<svg version="1.1" id="Layer_1" xmlns="http://www.w3.org/2000/svg" xmlns:xlink="http://www.w3.org/1999/xlink" x="0px" y="0px"
	 width="100%" viewBox="0 0 524 90" enable-background="new 0 0 524 90" xml:space="preserve">
<path fill="#FDFDFC" opacity="1.000000" stroke="none" 
	d="
M392.000000,91.000000 
	C261.333344,91.000000 131.166702,91.000000 1.000035,91.000000 
	C1.000023,61.000019 1.000023,31.000038 1.000012,1.000043 
	C175.666626,1.000029 350.333252,1.000029 524.999878,1.000014 
	C524.999939,30.999956 524.999939,60.999912 525.000000,90.999939 
	C480.833344,91.000000 436.666656,91.000000 392.000000,91.000000 
M85.199081,53.402725 
	C89.058449,37.645073 83.279755,21.586319 70.416565,12.322699 
	C57.595985,3.089763 40.687859,2.547438 27.205381,10.936707 
	C13.677291,19.354359 6.936905,34.812386 9.734818,50.904011 
	C9.957822,52.186581 10.303728,54.517681 9.912862,54.675220 
	C4.766230,56.749573 5.929681,61.550228 4.761354,65.446442 
	C2.122217,74.247597 3.997411,78.904633 12.541800,82.327019 
	C16.068516,83.739616 19.751139,85.015617 23.481350,85.609619 
	C29.400688,86.552231 34.990589,86.209091 40.833206,83.259941 
	C44.651253,81.332726 51.157360,80.790611 54.592388,82.807648 
	C63.713104,88.163300 72.117989,85.971428 80.954491,83.353584 
	C87.892586,81.298157 93.215576,77.829330 91.773407,69.542953 
	C90.807037,63.990433 92.267845,57.142509 85.199081,53.402725 
M162.738861,44.784164 
	C159.374634,36.318050 155.704926,27.956379 152.761063,19.346537 
	C151.002991,14.204735 147.235458,16.452652 144.173035,16.038939 
	C141.485992,15.675938 139.344208,15.829743 138.093552,19.310316 
	C133.446014,32.244282 128.345047,45.015137 123.430367,57.853374 
	C121.435020,63.065647 119.480743,68.293648 117.460960,73.638351 
	C128.644928,74.721306 128.643677,74.720840 132.273605,64.950554 
	C132.504105,64.330109 132.629669,63.577858 133.062363,63.145329 
	C133.876144,62.331856 134.864517,61.120193 135.804977,61.097504 
	C142.903183,60.926247 150.007416,61.004021 157.034546,61.004021 
	C158.862534,65.606056 160.506027,69.743614 162.145432,73.870865 
	C166.106812,73.870865 169.897827,73.870865 173.659760,73.870865 
	C173.721939,73.577484 173.830551,73.386124 173.780350,73.256065 
	C170.207520,63.999958 166.622040,54.748730 162.738861,44.784164 
M418.960297,73.891998 
	C425.940399,76.150833 431.981598,74.069420 437.454712,69.382309 
	C438.190308,71.173080 438.740234,72.511810 439.213959,73.665085 
	C442.602966,73.665085 445.805206,73.665085 448.385132,73.665085 
	C447.938263,68.461220 447.347168,63.565884 447.143036,58.654469 
	C446.928986,53.504597 447.541138,48.282806 446.910339,43.201935 
	C446.532440,40.158295 445.174866,36.565125 443.016205,34.546600 
	C437.721924,29.596071 422.540771,29.966095 417.225189,34.865337 
	C415.077209,36.845097 413.735748,39.699924 411.458099,42.974876 
	C417.045288,42.855080 421.124969,44.900253 424.872009,40.282185 
	C426.223785,38.616169 431.320312,39.579971 434.579926,40.118595 
	C435.562866,40.281017 436.527924,43.014015 436.677551,44.645061 
	C436.745239,45.382648 434.921417,46.728527 433.745026,47.067646 
	C429.454834,48.304394 425.049530,49.135838 420.736847,50.302128 
	C415.260040,51.783249 411.594513,55.259300 411.090424,61.028255 
	C410.599518,66.646927 412.984924,71.027100 418.960297,73.891998 
M504.920868,66.883430 
	C497.117279,67.081657 494.256012,64.325073 493.956665,55.954239 
	C502.903717,55.954239 511.842621,55.954239 521.394287,55.954239 
	C520.924438,52.272881 520.734741,48.983955 520.054443,45.799847 
	C518.151428,36.892879 511.647308,31.608547 502.324554,31.123867 
	C494.022552,30.692255 486.206635,36.074223 484.101410,44.499107 
	C483.034515,48.768810 482.692993,53.432323 483.104828,57.816208 
	C484.059418,67.977997 490.893738,74.038589 501.337952,74.838333 
	C510.336060,75.527351 517.240784,70.916519 519.968201,62.178947 
	C516.670898,61.904442 513.431519,61.634758 510.192108,61.365078 
	C510.738495,61.967278 511.284851,62.569473 511.831238,63.171673 
	C509.785065,64.344101 507.738892,65.516525 504.920868,66.883430 
M362.963867,61.302143 
	C362.570587,61.553284 361.968475,61.714436 361.815613,62.069180 
	C359.796143,66.756218 356.067780,68.202644 351.628296,66.515823 
	C347.133698,64.808060 345.634125,60.904514 345.983795,55.750755 
	C355.211975,55.750755 364.116760,55.750755 373.025238,55.750755 
	C373.025238,53.807041 373.137146,52.299053 373.007538,50.812115 
	C371.956390,38.752434 365.372284,31.796856 354.441406,31.133663 
	C345.115906,30.567873 337.458313,36.991707 335.235626,47.245064 
	C332.059906,61.894806 339.291168,73.278107 352.725433,74.777168 
	C362.127838,75.826347 370.208496,70.457886 371.690094,62.148354 
	C369.040894,61.904690 366.394318,61.661274 362.963867,61.302143 
M271.896851,38.526966 
	C270.679810,41.418327 269.017059,44.206738 268.321381,47.218525 
	C264.948547,61.820564 272.259064,73.250099 285.691406,74.772224 
	C295.091736,75.837456 303.121552,70.525200 304.724365,62.114101 
	C301.578125,61.871490 298.440155,61.629517 295.098083,61.371803 
	C293.332397,66.181396 289.744843,68.273460 284.915222,66.629898 
	C280.241394,65.039383 278.682129,61.059181 278.921082,55.911087 
	C287.959534,55.911087 296.905823,55.911087 305.815308,55.911087 
	C306.560364,44.396152 302.658081,36.257195 294.981934,32.881767 
	C286.933411,29.342590 279.006897,31.110332 271.896851,38.526966 
M239.634155,39.768990 
	C246.508423,38.077671 248.351471,38.821152 251.761780,44.661621 
	C254.862915,44.384590 257.964050,44.107559 261.297150,43.809803 
	C261.052063,42.779549 260.982666,41.940987 260.659821,41.215141 
	C257.354767,33.784042 249.715317,30.015160 240.777771,31.361254 
	C231.235153,32.798477 225.006821,38.698006 223.995071,47.683640 
	C223.606857,51.131416 223.607635,54.691963 223.976227,58.142899 
	C225.028717,67.996506 232.991013,74.858177 243.069061,74.914406 
	C253.422272,74.972168 260.186279,69.640167 261.715637,60.112274 
	C258.577087,59.873547 255.447952,59.635536 252.182770,59.387177 
	C251.725372,60.463737 251.327942,61.541790 250.822037,62.566265 
	C248.027008,68.225998 240.680237,68.814522 236.907822,63.695538 
	C232.586487,57.831715 233.658005,45.306721 239.634155,39.768990 
M191.089569,73.726654 
	C192.718155,74.057617 194.334763,74.473000 195.977249,74.705864 
	C206.592911,76.210823 214.733231,70.549759 216.826370,60.116093 
	C213.559158,59.882690 210.314240,59.650883 206.985184,59.413063 
	C205.597000,64.513069 203.034882,67.826675 197.369690,66.942993 
	C191.838974,66.080292 190.257416,61.984310 189.818878,57.255356 
	C189.530640,54.147194 189.559036,50.971775 189.826462,47.859200 
	C190.192322,43.600994 191.937210,40.030697 196.596786,39.143055 
	C201.386246,38.230671 205.092346,39.781059 206.392273,44.725056 
	C209.936600,44.385727 213.017929,44.090725 216.336609,43.772999 
	C214.893890,37.822666 211.406967,34.087112 206.026611,32.268711 
	C195.118332,28.582026 183.630371,33.216164 180.222763,42.992184 
	C176.807510,52.790134 177.663193,68.598526 191.089569,73.726654 
M470.126495,63.974918 
	C470.126495,56.049194 470.126495,48.123474 470.126495,40.201660 
	C472.910248,40.017910 475.143951,39.870468 477.278595,39.729561 
	C477.278595,36.994801 477.278595,34.709961 477.278595,32.163193 
	C474.867523,32.054062 472.621399,31.952400 469.833191,31.826200 
	C469.833191,27.341000 469.833191,23.176657 469.833191,18.828503 
	C463.631927,21.469229 457.308563,23.309141 459.677704,31.711437 
	C457.631012,31.945000 456.198761,32.108444 454.807922,32.267166 
	C454.807922,34.943596 454.807922,37.333435 454.807922,39.742580 
	C456.505554,39.938820 457.913300,40.101551 459.735657,40.312210 
	C459.735657,48.608582 459.563263,56.583195 459.785248,64.546814 
	C459.997498,72.160393 464.235779,75.620796 471.827087,74.763855 
	C473.915955,74.528046 475.974854,74.026421 478.269958,73.606033 
	C478.073578,71.033501 477.914734,68.952858 477.851990,68.130875 
	C474.692291,66.773514 472.476074,65.821465 470.126495,63.974918 
M326.376068,41.500191 
	C326.376068,33.094025 326.376068,24.687855 326.376068,16.308517 
	C322.567780,16.308517 319.338562,16.308517 316.212402,16.308517 
	C316.212402,35.657063 316.212402,54.700718 316.212402,73.709267 
	C319.743439,73.709267 322.990265,73.709267 326.376068,73.709267 
	C326.376068,63.115913 326.376068,52.808052 326.376068,41.500191 
M382.616119,55.499580 
	C382.616119,61.573360 382.616119,67.647141 382.616119,73.707100 
	C386.414337,73.707100 389.642731,73.707100 393.068787,73.707100 
	C393.068787,69.947609 393.050598,66.477280 393.073730,63.007233 
	C393.098114,59.352482 392.970398,55.683456 393.246460,52.046268 
	C393.930969,43.027081 396.991516,40.822163 405.852661,42.830666 
	C406.820099,39.737694 407.791412,36.632404 408.763031,33.526104 
	C401.994507,29.002567 396.872650,31.499506 392.429779,37.818092 
	C392.186279,35.256809 392.037720,33.694241 391.904449,32.292370 
	C388.604523,32.292370 385.677521,32.292370 382.616089,32.292370 
	C382.616089,39.888962 382.616089,47.194267 382.616119,55.499580 
z"/>
<path fill="#FFAE09" opacity="1.000000" stroke="none" 
	d="
M85.152893,53.798668 
	C92.267845,57.142509 90.807037,63.990433 91.773407,69.542953 
	C93.215576,77.829330 87.892586,81.298157 80.954491,83.353584 
	C72.117989,85.971428 63.713104,88.163300 54.592388,82.807648 
	C51.157360,80.790611 44.651253,81.332726 40.833206,83.259941 
	C34.990589,86.209091 29.400688,86.552231 23.481350,85.609619 
	C19.751139,85.015617 16.068516,83.739616 12.541800,82.327019 
	C3.997411,78.904633 2.122217,74.247597 4.761354,65.446442 
	C5.929681,61.550228 4.766230,56.749573 9.912862,54.675220 
	C10.303728,54.517681 9.957822,52.186581 9.734818,50.904011 
	C6.936905,34.812386 13.677291,19.354359 27.205381,10.936707 
	C40.687859,2.547438 57.595985,3.089763 70.416565,12.322699 
	C83.279755,21.586319 89.058449,37.645073 85.152893,53.798668 
M80.999290,73.999344 
	C80.999290,73.999344 80.983994,73.983856 81.388908,73.430763 
	C83.460426,71.410828 88.558365,71.726112 87.465988,65.866852 
	C82.885605,68.040749 79.278900,69.752518 75.672203,71.464287 
	C75.476608,71.059235 75.281013,70.654175 75.085419,70.249123 
	C77.291382,68.876007 79.546951,67.575333 81.688805,66.108589 
	C83.671768,64.750648 85.533051,63.215015 87.447914,61.757633 
	C87.101151,61.232365 86.754387,60.707096 86.407631,60.181828 
	C79.780296,58.669178 77.104370,66.512474 71.257851,67.652832 
	C72.373390,62.315693 80.796127,61.061722 77.866623,52.628487 
	C75.222290,55.750202 73.266579,57.839314 71.571136,60.121758 
	C69.846283,62.443790 68.377785,64.956253 66.797028,67.385323 
	C66.164169,66.987389 65.531319,66.589447 64.898460,66.191505 
	C65.963219,64.392975 67.336433,62.697292 67.982689,60.759209 
	C68.403008,59.498672 67.764771,57.885166 67.600792,56.429794 
	C66.394341,57.144569 64.841164,57.593178 64.048576,58.625660 
	C61.946842,61.363503 60.396942,64.537697 58.207729,67.192093 
	C55.978569,69.894913 53.951653,72.472710 55.605961,76.110588 
	C57.468910,80.207291 60.893303,83.425034 65.220070,82.753510 
	C71.995926,81.701889 78.587585,79.354019 85.170120,77.278770 
	C86.213867,76.949707 86.801079,75.172562 88.180656,73.258362 
	C84.871727,73.608223 82.941963,73.812263 80.999290,73.999344 
M80.519775,31.232885 
	C79.386452,29.034170 78.362625,26.770416 77.101669,24.647507 
	C70.020294,12.725412 54.524063,6.930715 39.265682,10.173218 
	C22.339071,13.770230 10.979334,30.493563 13.062065,47.841942 
	C13.169292,48.735104 14.065396,50.346165 14.237514,50.299767 
	C18.254335,49.216949 22.087179,53.172424 24.640615,52.479088 
	C32.573875,50.324947 35.300129,54.137772 37.294079,60.394028 
	C37.682564,61.612953 38.517735,62.845684 39.478069,63.699566 
	C44.002464,67.722427 46.149990,72.535042 44.441620,78.542847 
	C47.146732,78.542847 49.326679,78.542847 51.744167,78.542847 
	C50.274792,73.199516 51.374680,69.119240 54.932045,65.331245 
	C57.136395,62.983990 58.861023,59.952568 60.040348,56.931343 
	C61.789772,52.449612 64.769821,51.364735 69.103462,52.145332 
	C70.448296,52.387569 71.949364,52.395676 73.261047,52.055935 
	C75.923386,51.366352 78.505325,50.366344 81.987312,49.205212 
	C84.404358,44.117321 82.224457,38.046249 80.519775,31.232885 
M27.208273,59.225254 
	C28.463833,61.577625 29.719395,63.929993 30.974955,66.282364 
	C24.401590,64.181396 24.690018,55.568275 17.495588,54.042084 
	C15.494880,61.151253 23.623686,62.325829 24.902838,68.579872 
	C21.612604,66.098618 19.215935,64.244522 16.770445,62.457222 
	C12.376884,59.246174 11.716000,59.255302 9.123537,62.713676 
	C13.112512,65.272446 17.072779,67.812798 21.033049,70.353149 
	C20.782770,70.740898 20.532492,71.128654 20.282213,71.516403 
	C16.544674,69.807892 12.807137,68.099380 8.143889,65.967712 
	C8.608585,73.330482 15.704288,71.976196 19.080372,76.512024 
	C14.851068,75.192528 11.706670,74.211510 8.562270,73.230492 
	C8.307442,73.576180 8.052614,73.921860 7.797785,74.267548 
	C8.637016,75.227798 9.299876,76.709305 10.344427,77.062744 
	C16.585510,79.174461 22.809162,81.635658 29.251352,82.749939 
	C33.518406,83.487984 38.037891,81.455696 39.825916,76.962151 
	C40.674793,74.828812 40.551716,71.629272 39.532864,69.575600 
	C37.498489,65.474953 34.564896,61.816212 31.959534,58.004452 
	C30.092546,55.272961 28.414289,55.136311 27.208273,59.225254 
z"/>
<path fill="#030303" opacity="1.000000" stroke="none" 
	d="
M162.888214,45.140633 
	C166.622040,54.748730 170.207520,63.999958 173.780350,73.256065 
	C173.830551,73.386124 173.721939,73.577484 173.659760,73.870865 
	C169.897827,73.870865 166.106812,73.870865 162.145432,73.870865 
	C160.506027,69.743614 158.862534,65.606056 157.034546,61.004021 
	C150.007416,61.004021 142.903183,60.926247 135.804977,61.097504 
	C134.864517,61.120193 133.876144,62.331856 133.062363,63.145329 
	C132.629669,63.577858 132.504105,64.330109 132.273605,64.950554 
	C128.643677,74.720840 128.644928,74.721306 117.460960,73.638351 
	C119.480743,68.293648 121.435020,63.065647 123.430367,57.853374 
	C128.345047,45.015137 133.446014,32.244282 138.093552,19.310316 
	C139.344208,15.829743 141.485992,15.675938 144.173035,16.038939 
	C147.235458,16.452652 151.002991,14.204735 152.761063,19.346537 
	C155.704926,27.956379 159.374634,36.318050 162.888214,45.140633 
M148.840439,38.672920 
	C147.763580,35.934326 146.686707,33.195732 145.240616,29.518145 
	C142.461349,37.088615 139.981094,43.844601 137.421219,50.817467 
	C142.946548,50.817467 147.879761,50.817467 153.327347,50.817467 
	C151.794525,46.796829 150.390839,43.114899 148.840439,38.672920 
z"/>
<path fill="#050505" opacity="1.000000" stroke="none" 
	d="
M418.608154,73.722610 
	C412.984924,71.027100 410.599518,66.646927 411.090424,61.028255 
	C411.594513,55.259300 415.260040,51.783249 420.736847,50.302128 
	C425.049530,49.135838 429.454834,48.304394 433.745026,47.067646 
	C434.921417,46.728527 436.745239,45.382648 436.677551,44.645061 
	C436.527924,43.014015 435.562866,40.281017 434.579926,40.118595 
	C431.320312,39.579971 426.223785,38.616169 424.872009,40.282185 
	C421.124969,44.900253 417.045288,42.855080 411.458099,42.974876 
	C413.735748,39.699924 415.077209,36.845097 417.225189,34.865337 
	C422.540771,29.966095 437.721924,29.596071 443.016205,34.546600 
	C445.174866,36.565125 446.532440,40.158295 446.910339,43.201935 
	C447.541138,48.282806 446.928986,53.504597 447.143036,58.654469 
	C447.347168,63.565884 447.938263,68.461220 448.385132,73.665085 
	C445.805206,73.665085 442.602966,73.665085 439.213959,73.665085 
	C438.740234,72.511810 438.190308,71.173080 437.454712,69.382309 
	C431.981598,74.069420 425.940399,76.150833 418.608154,73.722610 
M429.206970,55.630932 
	C428.398224,55.809238 427.571655,55.930317 426.783905,56.175980 
	C423.710571,57.134422 421.129944,58.622452 421.859497,62.450703 
	C422.602692,66.350380 425.455353,67.264404 428.979095,66.989128 
	C435.184509,66.504356 437.850067,61.846149 436.256958,54.057201 
	C434.163605,54.483330 432.068756,54.909760 429.206970,55.630932 
z"/>
<path fill="#040404" opacity="1.000000" stroke="none" 
	d="
M505.306793,66.786194 
	C507.738892,65.516525 509.785065,64.344101 511.831238,63.171673 
	C511.284851,62.569473 510.738495,61.967278 510.192108,61.365078 
	C513.431519,61.634758 516.670898,61.904442 519.968201,62.178947 
	C517.240784,70.916519 510.336060,75.527351 501.337952,74.838333 
	C490.893738,74.038589 484.059418,67.977997 483.104828,57.816208 
	C482.692993,53.432323 483.034515,48.768810 484.101410,44.499107 
	C486.206635,36.074223 494.022552,30.692255 502.324554,31.123867 
	C511.647308,31.608547 518.151428,36.892879 520.054443,45.799847 
	C520.734741,48.983955 520.924438,52.272881 521.394287,55.954239 
	C511.842621,55.954239 502.903717,55.954239 493.956665,55.954239 
	C494.256012,64.325073 497.117279,67.081657 505.306793,66.786194 
M509.642517,48.955471 
	C508.799683,46.150848 508.750610,42.438927 506.883331,40.805256 
	C505.132172,39.273228 501.143005,39.019562 498.702667,39.853619 
	C495.001190,41.118713 493.573547,44.651306 494.188171,49.004230 
	C499.169769,49.004230 503.980103,49.004230 509.642517,48.955471 
z"/>
<path fill="#040404" opacity="1.000000" stroke="none" 
	d="
M363.355835,61.360001 
	C366.394318,61.661274 369.040894,61.904690 371.690094,62.148354 
	C370.208496,70.457886 362.127838,75.826347 352.725433,74.777168 
	C339.291168,73.278107 332.059906,61.894806 335.235626,47.245064 
	C337.458313,36.991707 345.115906,30.567873 354.441406,31.133663 
	C365.372284,31.796856 371.956390,38.752434 373.007538,50.812115 
	C373.137146,52.299053 373.025238,53.807041 373.025238,55.750755 
	C364.116760,55.750755 355.211975,55.750755 345.983795,55.750755 
	C345.634125,60.904514 347.133698,64.808060 351.628296,66.515823 
	C356.067780,68.202644 359.796143,66.756218 361.815613,62.069180 
	C361.968475,61.714436 362.570587,61.553284 363.355835,61.360001 
M346.461792,44.404415 
	C346.288452,45.819225 346.115082,47.234039 345.923218,48.799953 
	C351.689056,48.799953 357.073090,48.799953 362.587555,48.799953 
	C362.186646,44.239456 361.018921,40.278683 356.202972,39.173031 
	C352.120728,38.235825 348.703339,39.559139 346.461792,44.404415 
z"/>
<path fill="#040404" opacity="1.000000" stroke="none" 
	d="
M272.115509,38.229767 
	C279.006897,31.110332 286.933411,29.342590 294.981934,32.881767 
	C302.658081,36.257195 306.560364,44.396152 305.815308,55.911087 
	C296.905823,55.911087 287.959534,55.911087 278.921082,55.911087 
	C278.682129,61.059181 280.241394,65.039383 284.915222,66.629898 
	C289.744843,68.273460 293.332397,66.181396 295.098083,61.371803 
	C298.440155,61.629517 301.578125,61.871490 304.724365,62.114101 
	C303.121552,70.525200 295.091736,75.837456 285.691406,74.772224 
	C272.259064,73.250099 264.948547,61.820564 268.321381,47.218525 
	C269.017059,44.206738 270.679810,41.418327 272.115509,38.229767 
M292.481384,40.869316 
	C289.409576,40.526237 285.743805,38.999664 283.427612,40.162132 
	C280.950653,41.405289 279.746155,45.183846 277.347565,48.825401 
	C284.599091,48.825401 290.000763,48.825401 296.245331,48.825401 
	C295.053619,46.062347 294.048309,43.731491 292.481384,40.869316 
z"/>
<path fill="#060606" opacity="1.000000" stroke="none" 
	d="
M239.279053,39.948814 
	C233.658005,45.306721 232.586487,57.831715 236.907822,63.695538 
	C240.680237,68.814522 248.027008,68.225998 250.822037,62.566265 
	C251.327942,61.541790 251.725372,60.463737 252.182770,59.387177 
	C255.447952,59.635536 258.577087,59.873547 261.715637,60.112274 
	C260.186279,69.640167 253.422272,74.972168 243.069061,74.914406 
	C232.991013,74.858177 225.028717,67.996506 223.976227,58.142899 
	C223.607635,54.691963 223.606857,51.131416 223.995071,47.683640 
	C225.006821,38.698006 231.235153,32.798477 240.777771,31.361254 
	C249.715317,30.015160 257.354767,33.784042 260.659821,41.215141 
	C260.982666,41.940987 261.052063,42.779549 261.297150,43.809803 
	C257.964050,44.107559 254.862915,44.384590 251.760406,44.660885 
	C248.351471,38.821152 246.508423,38.077671 239.279053,39.948814 
z"/>
<path fill="#060606" opacity="1.000000" stroke="none" 
	d="
M190.745621,73.535721 
	C177.663193,68.598526 176.807510,52.790134 180.222763,42.992184 
	C183.630371,33.216164 195.118332,28.582026 206.026611,32.268711 
	C211.406967,34.087112 214.893890,37.822666 216.336609,43.772999 
	C213.017929,44.090725 209.936600,44.385727 206.392273,44.725056 
	C205.092346,39.781059 201.386246,38.230671 196.596786,39.143055 
	C191.937210,40.030697 190.192322,43.600994 189.826462,47.859200 
	C189.559036,50.971775 189.530640,54.147194 189.818878,57.255356 
	C190.257416,61.984310 191.838974,66.080292 197.369690,66.942993 
	C203.034882,67.826675 205.597000,64.513069 206.985184,59.413063 
	C210.314240,59.650883 213.559158,59.882690 216.826370,60.116093 
	C214.733231,70.549759 206.592911,76.210823 195.977249,74.705864 
	C194.334763,74.473000 192.718155,74.057617 190.745621,73.535721 
z"/>
<path fill="#010101" opacity="1.000000" stroke="none" 
	d="
M470.193176,64.422165 
	C472.476074,65.821465 474.692291,66.773514 477.851990,68.130875 
	C477.914734,68.952858 478.073578,71.033501 478.269958,73.606033 
	C475.974854,74.026421 473.915955,74.528046 471.827087,74.763855 
	C464.235779,75.620796 459.997498,72.160393 459.785248,64.546814 
	C459.563263,56.583195 459.735657,48.608582 459.735657,40.312210 
	C457.913300,40.101551 456.505554,39.938820 454.807922,39.742580 
	C454.807922,37.333435 454.807922,34.943596 454.807922,32.267166 
	C456.198761,32.108444 457.631012,31.945000 459.677704,31.711437 
	C457.308563,23.309141 463.631927,21.469229 469.833191,18.828503 
	C469.833191,23.176657 469.833191,27.341000 469.833191,31.826200 
	C472.621399,31.952400 474.867523,32.054062 477.278595,32.163193 
	C477.278595,34.709961 477.278595,36.994801 477.278595,39.729561 
	C475.143951,39.870468 472.910248,40.017910 470.126495,40.201660 
	C470.126495,48.123474 470.126495,56.049194 470.193176,64.422165 
z"/>
<path fill="#000000" opacity="1.000000" stroke="none" 
	d="
M326.376068,42.000191 
	C326.376068,52.808052 326.376068,63.115913 326.376068,73.709267 
	C322.990265,73.709267 319.743439,73.709267 316.212402,73.709267 
	C316.212402,54.700718 316.212402,35.657063 316.212402,16.308517 
	C319.338562,16.308517 322.567780,16.308517 326.376068,16.308517 
	C326.376068,24.687855 326.376068,33.094025 326.376068,42.000191 
z"/>
<path fill="#020202" opacity="1.000000" stroke="none" 
	d="
M382.616089,54.999580 
	C382.616089,47.194267 382.616089,39.888962 382.616089,32.292370 
	C385.677521,32.292370 388.604523,32.292370 391.904449,32.292370 
	C392.037720,33.694241 392.186279,35.256809 392.429779,37.818092 
	C396.872650,31.499506 401.994507,29.002567 408.763031,33.526104 
	C407.791412,36.632404 406.820099,39.737694 405.852661,42.830666 
	C396.991516,40.822163 393.930969,43.027081 393.246460,52.046268 
	C392.970398,55.683456 393.098114,59.352482 393.073730,63.007233 
	C393.050598,66.477280 393.068787,69.947609 393.068787,73.707100 
	C389.642731,73.707100 386.414337,73.707100 382.616119,73.707100 
	C382.616119,67.647141 382.616119,61.573360 382.616089,54.999580 
z"/>
<path fill="#FED11F" opacity="1.000000" stroke="none" 
	d="
M80.691208,31.591051 
	C82.224457,38.046249 84.404358,44.117321 81.987312,49.205212 
	C78.505325,50.366344 75.923386,51.366352 73.261047,52.055935 
	C71.949364,52.395676 70.448296,52.387569 69.103462,52.145332 
	C64.769821,51.364735 61.789772,52.449612 60.040348,56.931343 
	C58.861023,59.952568 57.136395,62.983990 54.932045,65.331245 
	C51.374680,69.119240 50.274792,73.199516 51.744167,78.542847 
	C49.326679,78.542847 47.146732,78.542847 44.441620,78.542847 
	C46.149990,72.535042 44.002464,67.722427 39.478069,63.699566 
	C38.517735,62.845684 37.682564,61.612953 37.294079,60.394028 
	C35.300129,54.137772 32.573875,50.324947 24.640615,52.479088 
	C22.087179,53.172424 18.254335,49.216949 14.237514,50.299767 
	C14.065396,50.346165 13.169292,48.735104 13.062065,47.841942 
	C10.979334,30.493563 22.339071,13.770230 39.265682,10.173218 
	C54.524063,6.930715 70.020294,12.725412 77.101669,24.647507 
	C78.362625,26.770416 79.386452,29.034170 80.691208,31.591051 
M40.381477,56.438129 
	C45.465691,59.159977 50.439842,59.785877 55.734325,55.383854 
	C58.969631,52.281086 60.796196,48.671005 59.949051,42.846310 
	C51.567787,48.711136 43.265633,48.025543 34.699635,42.965012 
	C34.570663,49.039154 36.004997,52.985435 40.381477,56.438129 
M60.220642,35.611778 
	C61.503277,35.300346 63.859798,35.061966 63.886791,34.665119 
	C64.019402,32.715698 64.149147,30.222342 63.074478,28.902920 
	C62.180511,27.805359 58.989986,27.184553 57.930744,27.931774 
	C56.205917,29.148518 55.389790,31.653402 53.774002,34.295109 
	C56.843960,34.692165 58.258694,34.875145 60.220642,35.611778 
M39.794617,31.768400 
	C38.076042,30.242481 36.558338,28.088064 34.556549,27.448277 
	C33.511227,27.114182 30.735941,29.194675 30.325460,30.635660 
	C29.818821,32.414207 30.958929,34.661854 31.529291,37.383682 
	C34.984516,35.361126 37.396832,33.949047 39.794617,31.768400 
z"/>
<path fill="#FFD11F" opacity="1.000000" stroke="none" 
	d="
M81.012199,74.016312 
	C82.941963,73.812263 84.871727,73.608223 88.180656,73.258362 
	C86.801079,75.172562 86.213867,76.949707 85.170120,77.278770 
	C78.587585,79.354019 71.995926,81.701889 65.220070,82.753510 
	C60.893303,83.425034 57.468910,80.207291 55.605961,76.110588 
	C53.951653,72.472710 55.978569,69.894913 58.207729,67.192093 
	C60.396942,64.537697 61.946842,61.363503 64.048576,58.625660 
	C64.841164,57.593178 66.394341,57.144569 67.600792,56.429794 
	C67.764771,57.885166 68.403008,59.498672 67.982689,60.759209 
	C67.336433,62.697292 65.963219,64.392975 64.898460,66.191505 
	C65.531319,66.589447 66.164169,66.987389 66.797028,67.385323 
	C68.377785,64.956253 69.846283,62.443790 71.571136,60.121758 
	C73.266579,57.839314 75.222290,55.750202 77.866623,52.628487 
	C80.796127,61.061722 72.373390,62.315693 71.257851,67.652832 
	C77.104370,66.512474 79.780296,58.669178 86.407631,60.181828 
	C86.754387,60.707096 87.101151,61.232365 87.447914,61.757633 
	C85.533051,63.215015 83.671768,64.750648 81.688805,66.108589 
	C79.546951,67.575333 77.291382,68.876007 75.085419,70.249123 
	C75.281013,70.654175 75.476608,71.059235 75.672203,71.464287 
	C79.278900,69.752518 82.885605,68.040749 87.465988,65.866852 
	C88.558365,71.726112 83.460426,71.410828 80.843552,73.714005 
	C79.246323,74.517357 78.194435,75.037468 77.142555,75.557579 
	C77.408920,75.929733 77.675278,76.301880 77.941643,76.674026 
	C78.965164,75.788124 79.988678,74.902214 81.012199,74.016312 
z"/>
<path fill="#FFD11F" opacity="1.000000" stroke="none" 
	d="
M27.166328,58.858368 
	C28.414289,55.136311 30.092546,55.272961 31.959534,58.004452 
	C34.564896,61.816212 37.498489,65.474953 39.532864,69.575600 
	C40.551716,71.629272 40.674793,74.828812 39.825916,76.962151 
	C38.037891,81.455696 33.518406,83.487984 29.251352,82.749939 
	C22.809162,81.635658 16.585510,79.174461 10.344427,77.062744 
	C9.299876,76.709305 8.637016,75.227798 7.797785,74.267548 
	C8.052614,73.921860 8.307442,73.576180 8.562270,73.230492 
	C11.706670,74.211510 14.851068,75.192528 19.080372,76.512024 
	C15.704288,71.976196 8.608585,73.330482 8.143889,65.967712 
	C12.807137,68.099380 16.544674,69.807892 20.282213,71.516403 
	C20.532492,71.128654 20.782770,70.740898 21.033049,70.353149 
	C17.072779,67.812798 13.112512,65.272446 9.123537,62.713676 
	C11.716000,59.255302 12.376884,59.246174 16.770445,62.457222 
	C19.215935,64.244522 21.612604,66.098618 24.902838,68.579872 
	C23.623686,62.325829 15.494880,61.151253 17.495588,54.042084 
	C24.690018,55.568275 24.401590,64.181396 30.974955,66.282364 
	C29.719395,63.929993 28.463833,61.577625 27.166328,58.858368 
z"/>
<path fill="#F3F3F3" opacity="1.000000" stroke="none" 
	d="
M148.913788,39.052944 
	C150.390839,43.114899 151.794525,46.796829 153.327347,50.817467 
	C147.879761,50.817467 142.946548,50.817467 137.421219,50.817467 
	C139.981094,43.844601 142.461349,37.088615 145.240616,29.518145 
	C146.686707,33.195732 147.763580,35.934326 148.913788,39.052944 
z"/>
<path fill="#F4F4F4" opacity="1.000000" stroke="none" 
	d="
M429.590454,55.483562 
	C432.068756,54.909760 434.163605,54.483330 436.256958,54.057201 
	C437.850067,61.846149 435.184509,66.504356 428.979095,66.989128 
	C425.455353,67.264404 422.602692,66.350380 421.859497,62.450703 
	C421.129944,58.622452 423.710571,57.134422 426.783905,56.175980 
	C427.571655,55.930317 428.398224,55.809238 429.590454,55.483562 
z"/>
<path fill="#F7F7F7" opacity="1.000000" stroke="none" 
	d="
M509.216492,48.979851 
	C503.980103,49.004230 499.169769,49.004230 494.188171,49.004230 
	C493.573547,44.651306 495.001190,41.118713 498.702667,39.853619 
	C501.143005,39.019562 505.132172,39.273228 506.883331,40.805256 
	C508.750610,42.438927 508.799683,46.150848 509.216492,48.979851 
z"/>
<path fill="#F7F7F7" opacity="1.000000" stroke="none" 
	d="
M346.671295,44.057217 
	C348.703339,39.559139 352.120728,38.235825 356.202972,39.173031 
	C361.018921,40.278683 362.186646,44.239456 362.587555,48.799953 
	C357.073090,48.799953 351.689056,48.799953 345.923218,48.799953 
	C346.115082,47.234039 346.288452,45.819225 346.671295,44.057217 
z"/>
<path fill="#F7F7F7" opacity="1.000000" stroke="none" 
	d="
M292.762207,41.134975 
	C294.048309,43.731491 295.053619,46.062347 296.245331,48.825401 
	C290.000763,48.825401 284.599091,48.825401 277.347565,48.825401 
	C279.746155,45.183846 280.950653,41.405289 283.427612,40.162132 
	C285.743805,38.999664 289.409576,40.526237 292.762207,41.134975 
z"/>
<path fill="#434044" opacity="1.000000" stroke="none" 
	d="
M39.997139,55.805656 
	C36.004997,52.985435 34.570663,49.039154 34.699635,42.965012 
	C43.265633,48.025543 51.567787,48.711136 59.949051,42.846310 
	C60.796196,48.671005 58.969631,52.281086 55.341240,55.205509 
	C52.612415,49.855885 47.513943,54.641895 44.238522,52.234417 
	C43.888695,51.977287 41.460945,54.547199 39.997139,55.805656 
z"/>
<path fill="#494742" opacity="1.000000" stroke="none" 
	d="
M59.947037,35.334949 
	C58.258694,34.875145 56.843960,34.692165 53.774002,34.295109 
	C55.389790,31.653402 56.205917,29.148518 57.930744,27.931774 
	C58.989986,27.184553 62.180511,27.805359 63.074478,28.902920 
	C64.149147,30.222342 64.019402,32.715698 63.886791,34.665119 
	C63.859798,35.061966 61.503277,35.300346 59.947037,35.334949 
z"/>
<path fill="#E5514C" opacity="1.000000" stroke="none" 
	d="
M40.189308,56.121895 
	C41.460945,54.547199 43.888695,51.977287 44.238522,52.234417 
	C47.513943,54.641895 52.612415,49.855885 55.056355,55.344494 
	C50.439842,59.785877 45.465691,59.159977 40.189308,56.121895 
z"/>
<path fill="#464443" opacity="1.000000" stroke="none" 
	d="
M39.801880,32.152687 
	C37.396832,33.949047 34.984516,35.361126 31.529291,37.383682 
	C30.958929,34.661854 29.818821,32.414207 30.325460,30.635660 
	C30.735941,29.194675 33.511227,27.114182 34.556549,27.448277 
	C36.558338,28.088064 38.076042,30.242481 39.801880,32.152687 
z"/>
<path fill="#FFAE09" opacity="1.000000" stroke="none" 
	d="
M81.005745,74.007828 
	C79.988678,74.902214 78.965164,75.788124 77.941643,76.674026 
	C77.675278,76.301880 77.408920,75.929733 77.142555,75.557579 
	C78.194435,75.037468 79.246323,74.517357 80.641098,73.990547 
	C80.983994,73.983856 80.999290,73.999344 81.005745,74.007828 
z"/>
</svg>