<svg version="1.1" id="Layer_1" xmlns="http://www.w3.org/2000/svg" xmlns:xlink="http://www.w3.org/1999/xlink" x="0px" y="0px"
	 width="100%" viewBox="0 0 818 157" enable-background="new 0 0 818 157" xml:space="preserve">
<path fill="#FDFDFD" opacity="1.000000" stroke="none" 
	d="
M9.000000,158.000000 
	C6.334411,158.000000 3.668821,158.000000 1.002424,158.000000 
	C1.001616,105.688881 1.001616,53.377766 1.001616,1.051362 
	C273.666656,1.051362 546.333313,1.051362 819.000000,1.051362 
	C819.000000,34.089378 819.000000,67.076027 818.710999,100.528877 
	C818.229370,101.001411 818.036804,101.007744 817.625549,100.711067 
	C816.254700,91.792610 812.235718,85.345306 802.737122,82.365532 
	C812.889221,78.655785 816.107544,71.204269 816.238281,62.069817 
	C816.364502,53.256138 816.506348,44.407635 815.892578,35.626766 
	C815.008667,22.981495 807.851440,14.479152 795.680542,13.383973 
	C783.675964,12.303750 771.498230,13.148108 758.954224,13.148108 
	C758.954224,14.447502 758.954163,16.070372 758.954163,17.693241 
	C758.954163,32.012707 758.954163,46.332176 758.954163,60.651642 
	C758.954163,91.288643 758.924927,121.925743 759.040588,152.562302 
	C759.046387,154.093323 760.309753,155.619598 760.991516,157.361053 
	C760.995544,157.574020 761.000000,158.000000 761.000000,158.000000 
	C751.979126,158.000000 742.958191,158.000000 733.627258,157.614182 
	C733.871216,155.740677 734.903625,154.254578 734.908569,152.765076 
	C735.003967,123.949806 734.979248,95.134132 734.979248,66.318550 
	C734.979248,65.032127 734.979309,63.745701 734.979309,62.324585 
	C727.789246,62.324585 721.080627,62.324585 714.000000,62.324585 
	C714.000000,94.428116 714.000000,126.214058 714.000000,158.000000 
	C615.645752,158.000000 517.291565,158.000000 418.493805,157.618362 
	C418.745728,156.830841 419.401855,156.172607 420.142578,156.057159 
	C430.191803,154.490921 436.220917,148.164948 438.812500,138.921585 
	C440.630707,132.436447 441.691162,125.551392 441.830933,118.818779 
	C442.228241,99.678391 442.079956,80.523888 441.941864,61.376411 
	C441.878326,52.569408 441.921631,43.695099 440.866882,34.978313 
	C439.491425,23.610842 435.221161,13.594403 422.957153,9.805958 
	C414.830322,7.295525 406.510559,7.308587 398.369751,9.769011 
	C385.340485,13.706895 380.533142,24.381313 380.254456,36.258106 
	C379.528625,67.187546 379.436066,98.161049 380.280334,129.084503 
	C380.644623,142.427307 386.470917,153.657150 401.762909,156.361832 
	C402.256409,156.449127 402.591217,157.433716 403.000000,158.000000 
	C323.312439,158.000000 243.624878,158.000000 163.466202,157.531342 
	C162.995087,106.482430 162.995087,55.902180 162.995087,5.311423 
	C111.376892,5.311423 60.332649,5.311423 9.170884,5.311423 
	C9.170884,32.077259 9.170884,58.537201 9.098507,85.443497 
	C9.073704,88.600410 9.121278,91.310974 9.096512,94.483688 
	C9.073507,101.296059 9.122842,107.646294 9.099562,114.459717 
	C9.072866,120.614494 9.118784,126.306076 9.096561,132.462006 
	C9.018949,141.284256 9.009474,149.642120 9.000000,158.000000 
M539.409485,56.500206 
	C539.409485,41.232166 539.409485,25.964125 539.409485,10.482906 
	C533.010681,10.482906 527.231445,10.482906 521.163452,10.482906 
	C515.366211,34.524788 509.579407,58.523235 503.792633,82.521683 
	C503.474243,82.564484 503.155853,82.607285 502.837463,82.650085 
	C496.521606,58.537067 490.205750,34.424046 483.956787,10.566403 
	C477.603851,10.566403 471.831451,10.566403 466.051361,10.566403 
	C466.051361,58.772373 466.051361,106.673317 466.051361,154.707886 
	C472.101105,154.707886 477.847931,154.707886 483.987427,154.707886 
	C483.987427,125.785423 483.987427,97.083870 483.987427,68.382317 
	C485.208862,69.359238 485.701324,70.474068 485.981506,71.639900 
	C488.580353,82.452103 491.127502,93.276741 493.720184,104.090439 
	C495.839355,112.928925 495.859650,112.780319 505.195038,112.897545 
	C508.458771,112.938538 509.703857,112.030006 510.417023,108.694122 
	C513.053162,96.362961 516.123108,84.124428 519.046021,71.854881 
	C519.339661,70.622147 519.741150,69.415085 520.092590,68.196106 
	C520.500183,68.294792 520.907837,68.393478 521.315430,68.492157 
	C521.315430,97.233315 521.315430,125.974472 521.315430,154.659866 
	C527.507019,154.659866 533.274109,154.659866 539.409485,154.659866 
	C539.409485,122.092354 539.409485,89.796288 539.409485,56.500206 
M340.164520,154.922699 
	C345.242920,154.922699 350.321320,154.922699 355.300232,154.922699 
	C355.300232,106.299721 355.300232,58.415142 355.300232,10.609230 
	C348.980988,10.609230 343.075531,10.609230 336.810547,10.609230 
	C336.810547,38.654293 336.810547,66.341194 336.810547,94.028091 
	C335.377380,92.196053 334.667450,90.241692 334.073486,88.252693 
	C326.717896,63.620262 319.404846,38.975052 311.973633,14.365491 
	C311.519531,12.861713 310.257019,10.544947 309.213776,10.456457 
	C304.310791,10.040594 299.352936,10.271434 294.446442,10.271434 
	C294.446442,58.844128 294.446442,106.738655 294.446442,154.651093 
	C300.710175,154.651093 306.624847,154.651093 312.998474,154.651093 
	C312.998474,126.708305 312.998474,99.052299 312.998474,71.396294 
	C314.230682,72.252647 314.635193,73.251297 314.941833,74.279144 
	C318.308563,85.563927 321.608215,96.869003 325.028381,108.137520 
	C329.745728,123.679787 334.550934,139.195389 340.164520,154.922699 
M597.320557,10.256021 
	C592.490112,10.256115 587.641785,10.028104 582.840576,10.402781 
	C581.494263,10.507847 579.413940,12.212152 579.160828,13.480372 
	C577.828674,20.154610 576.988525,26.926384 575.951294,33.660259 
	C571.094360,65.193237 566.216980,96.723068 561.373962,128.258179 
	C560.026855,137.029892 558.772705,145.815887 557.468445,154.645691 
	C564.567261,154.645691 570.990417,154.645691 577.588684,154.645691 
	C579.036743,142.938751 580.452576,131.492554 581.837708,120.293938 
	C588.931458,120.293938 595.346191,120.293938 601.684937,120.293938 
	C603.251831,131.969727 604.770569,143.286606 606.283875,154.562592 
	C613.381409,154.562592 620.073914,154.562592 626.947021,154.562592 
	C619.319641,106.278419 611.754700,58.389812 604.151062,10.256037 
	C601.892395,10.256037 600.077148,10.256037 597.320557,10.256021 
M220.850800,63.253185 
	C216.137527,93.681839 211.424255,124.110489 206.686569,154.696655 
	C213.949310,154.696655 220.385727,154.696655 226.923996,154.696655 
	C228.380707,142.997620 229.809677,131.521378 231.232788,120.092148 
	C238.020187,120.092148 244.312943,120.092148 250.955963,120.092148 
	C252.560150,131.748535 254.151123,143.308945 255.720459,154.712250 
	C262.902313,154.712250 269.354950,154.712250 276.320221,154.712250 
	C268.700317,106.442978 261.127716,58.473221 253.555115,10.503414 
	C245.055649,10.503414 237.136063,10.503414 228.838516,10.503414 
	C226.188095,27.916288 223.565399,45.146931 220.850800,63.253185 
M644.926697,59.499981 
	C644.926697,91.224983 644.926697,122.949989 644.926697,154.540833 
	C661.267395,154.540833 676.966309,154.540833 692.505493,154.540833 
	C692.505493,148.074203 692.505493,142.013885 692.505493,135.471039 
	C683.403503,135.471039 674.670227,135.471039 665.530457,135.471039 
	C665.530457,93.582520 665.530457,52.192413 665.530457,10.528508 
	C658.541138,10.528508 651.980774,10.528508 644.926697,10.528508 
	C644.926697,26.633509 644.926697,42.566742 644.926697,59.499981 
M725.481079,11.961197 
	C721.538818,11.961197 717.596497,11.961197 713.541199,11.961197 
	C713.541199,19.963385 713.541199,27.464138 713.541199,35.007454 
	C720.840393,35.007454 727.740295,35.007454 734.734619,35.007454 
	C734.734619,27.219051 734.734619,19.704840 734.734619,11.961191 
	C731.746826,11.961191 729.107300,11.961191 725.481079,11.961197 
z"/>
<path fill="#0267B4" opacity="1.000000" stroke="none" 
	d="
M9.170885,84.997147 
	C9.170884,58.537201 9.170884,32.077259 9.170884,5.311423 
	C60.332649,5.311423 111.376892,5.311423 162.995087,5.311423 
	C162.995087,55.902180 162.995087,106.482430 162.997543,157.531342 
	C143.645767,158.000000 124.291542,158.000000 104.433167,157.653259 
	C102.906082,156.038940 102.077942,154.521042 100.826431,153.547226 
	C95.476761,149.384537 89.979393,145.412415 84.577301,141.316208 
	C66.793999,127.831787 49.071243,114.267075 31.235771,100.852142 
	C23.999470,95.409378 16.532757,90.272957 9.170885,84.997147 
M46.676308,47.687775 
	C46.602230,46.077000 46.528152,44.466228 46.445621,42.671646 
	C41.253162,42.671646 36.412674,42.671646 31.505295,42.671646 
	C31.505295,47.780613 31.505295,52.503082 31.505295,57.379326 
	C36.638771,57.379326 41.468956,57.379326 46.676067,57.379326 
	C46.676067,54.193470 46.676067,51.402370 46.676308,47.687775 
M93.222565,120.146996 
	C93.992432,121.305351 94.685646,123.393753 95.545151,123.464592 
	C99.757950,123.811813 104.015015,123.622055 108.244461,123.622055 
	C108.244461,118.095070 108.244461,113.257729 108.244461,108.537460 
	C103.072975,108.537460 98.357277,108.537460 93.222145,108.537460 
	C93.222145,112.340973 93.222145,115.787216 93.222565,120.146996 
M52.762878,83.362862 
	C51.338879,83.477295 49.914879,83.591721 48.573463,83.699516 
	C48.573463,88.915222 48.573463,93.640114 48.573463,98.396858 
	C53.746964,98.396858 58.576847,98.396858 63.362091,98.396858 
	C63.362091,93.245819 63.362091,88.535110 63.362091,83.363075 
	C59.915237,83.363075 56.801502,83.363075 52.762878,83.362862 
M105.159355,102.782127 
	C106.329460,102.023651 108.440468,101.342972 108.510704,100.493561 
	C108.859268,96.278091 108.669678,92.018127 108.669678,87.733421 
	C103.164375,87.733421 98.323822,87.733421 93.570961,87.733421 
	C93.570961,92.892128 93.570961,97.614029 93.570961,102.782539 
	C97.351479,102.782539 100.797470,102.782539 105.159355,102.782127 
M70.096985,64.268349 
	C70.898705,65.720497 71.568413,68.315651 72.525078,68.426140 
	C76.580070,68.894455 80.720291,68.624802 85.022980,68.624802 
	C85.022980,63.243919 85.022980,58.373264 85.022980,53.573341 
	C79.916161,53.573341 75.180481,53.573341 70.096962,53.573341 
	C70.096962,57.060020 70.096962,60.195789 70.096985,64.268349 
M57.358013,76.439957 
	C59.302780,76.439957 61.247547,76.439957 63.399643,76.439957 
	C63.399643,71.098061 63.399643,66.369736 63.399643,61.520134 
	C58.266129,61.520134 53.423584,61.520134 48.655632,61.520134 
	C48.655632,66.645790 48.655632,71.352501 48.655632,76.439507 
	C51.514103,76.439507 53.983013,76.439507 57.358013,76.439957 
M74.652008,115.078430 
	C78.085663,115.078430 81.519325,115.078430 84.970810,115.078430 
	C84.970810,109.767876 84.970810,105.056458 84.970810,100.306961 
	C79.928680,100.306961 75.209450,100.306961 70.128555,100.306961 
	C70.128555,104.392990 70.296738,108.191238 70.074387,111.966484 
	C69.902000,114.893509 71.400932,115.312607 74.652008,115.078430 
M70.128281,79.777061 
	C70.128281,83.720001 70.128281,87.662941 70.128281,91.696625 
	C75.457550,91.696625 80.291466,91.696625 85.049408,91.696625 
	C85.049408,86.687714 85.049408,82.090202 85.049408,77.037086 
	C80.548187,77.037086 76.268234,76.962952 71.996544,77.117424 
	C71.359619,77.140465 70.761566,78.238213 70.128281,79.777061 
M138.192276,52.882050 
	C138.565201,47.411892 138.938126,41.941734 139.316101,36.397511 
	C133.016632,36.397511 127.652313,36.397511 122.409836,36.397511 
	C122.409836,42.150097 122.409836,47.519428 122.409836,53.022438 
	C127.626289,53.022438 132.436142,53.022438 138.192276,52.882050 
z"/>
<path fill="#030303" opacity="1.000000" stroke="none" 
	d="
M403.466125,158.000000 
	C402.591217,157.433716 402.256409,156.449127 401.762909,156.361832 
	C386.470917,153.657150 380.644623,142.427307 380.280334,129.084503 
	C379.436066,98.161049 379.528625,67.187546 380.254456,36.258106 
	C380.533142,24.381313 385.340485,13.706895 398.369751,9.769011 
	C406.510559,7.308587 414.830322,7.295525 422.957153,9.805958 
	C435.221161,13.594403 439.491425,23.610842 440.866882,34.978313 
	C441.921631,43.695099 441.878326,52.569408 441.941864,61.376411 
	C442.079956,80.523888 442.228241,99.678391 441.830933,118.818779 
	C441.691162,125.551392 440.630707,132.436447 438.812500,138.921585 
	C436.220917,148.164948 430.191803,154.490921 420.142578,156.057159 
	C419.401855,156.172607 418.745728,156.830841 418.025146,157.618362 
	C413.310760,158.000000 408.621490,158.000000 403.466125,158.000000 
M420.915161,63.500095 
	C420.896484,57.842056 421.095886,52.172127 420.788147,46.529854 
	C420.554565,42.247181 419.940277,37.940945 419.010864,33.752712 
	C418.032593,29.344414 414.713959,27.882685 410.376617,27.912380 
	C406.164825,27.941212 403.342072,29.725735 402.127411,33.710945 
	C401.504333,35.755272 401.012146,37.933037 400.995941,40.054585 
	C400.792938,66.673134 400.634003,93.292412 400.621216,119.911568 
	C400.619476,123.528015 401.279236,127.183502 401.982697,130.751923 
	C402.891266,135.361023 405.981720,137.240799 410.637543,137.229782 
	C415.281494,137.218796 418.426392,135.381027 419.246216,130.731720 
	C420.021454,126.335350 420.759857,121.864929 420.806885,117.419601 
	C420.993530,99.781342 420.902985,82.140160 420.915161,63.500095 
z"/>
<path fill="#030303" opacity="1.000000" stroke="none" 
	d="
M714.468262,158.000000 
	C714.000000,126.214058 714.000000,94.428116 714.000000,62.324585 
	C721.080627,62.324585 727.789246,62.324585 734.979309,62.324585 
	C734.979309,63.745701 734.979248,65.032127 734.979248,66.318550 
	C734.979248,95.134132 735.003967,123.949806 734.908569,152.765076 
	C734.903625,154.254578 733.871216,155.740677 733.158569,157.614182 
	C726.978821,158.000000 720.957703,158.000000 714.468262,158.000000 
z"/>
<path fill="#0864B3" opacity="1.000000" stroke="none" 
	d="
M9.098507,85.443497 
	C16.532757,90.272957 23.999470,95.409378 31.235771,100.852142 
	C49.071243,114.267075 66.793999,127.831787 84.577301,141.316208 
	C89.979393,145.412415 95.476761,149.384537 100.826431,153.547226 
	C102.077942,154.521042 102.906082,156.038940 103.964508,157.653259 
	C98.977905,158.000000 93.955818,158.000000 88.430634,157.652374 
	C87.259270,156.386841 86.763840,155.240723 85.897385,154.584427 
	C64.820320,138.619781 43.625439,122.809311 22.652744,106.709274 
	C17.781900,102.970108 13.643998,98.276169 9.168850,94.021545 
	C9.121278,91.310974 9.073704,88.600410 9.098507,85.443497 
z"/>
<path fill="#1061B2" opacity="1.000000" stroke="none" 
	d="
M9.096511,94.483688 
	C13.643998,98.276169 17.781900,102.970108 22.652744,106.709274 
	C43.625439,122.809311 64.820320,138.619781 85.897385,154.584427 
	C86.763840,155.240723 87.259270,156.386841 87.963776,157.652374 
	C81.645599,158.000000 75.291206,158.000000 68.462112,157.637711 
	C66.513016,155.622375 65.253883,153.690277 63.530125,152.360458 
	C49.841457,141.800140 36.182713,131.192932 22.239061,120.976425 
	C18.307552,118.095810 15.164207,113.209518 9.172175,113.996521 
	C9.122842,107.646294 9.073507,101.296059 9.096511,94.483688 
z"/>
<path fill="#195DB1" opacity="1.000000" stroke="none" 
	d="
M9.099562,114.459717 
	C15.164207,113.209518 18.307552,118.095810 22.239061,120.976425 
	C36.182713,131.192932 49.841457,141.800140 63.530125,152.360458 
	C65.253883,153.690277 66.513016,155.622375 67.993706,157.637711 
	C60.312424,158.000000 52.624847,158.000000 44.432434,157.652374 
	C42.978020,156.216263 42.181347,154.925781 41.053894,154.072250 
	C34.083714,148.795441 27.118610,143.504623 19.984671,138.454590 
	C16.567019,136.035278 12.782866,134.133713 9.164701,131.997650 
	C9.118784,126.306076 9.072866,120.614494 9.099562,114.459717 
z"/>
<path fill="#2558AF" opacity="1.000000" stroke="none" 
	d="
M9.096561,132.462006 
	C12.782866,134.133713 16.567019,136.035278 19.984671,138.454590 
	C27.118610,143.504623 34.083714,148.795441 41.053894,154.072250 
	C42.181347,154.925781 42.978020,156.216263 43.963799,157.652374 
	C32.645771,158.000000 21.291544,158.000000 9.468657,158.000000 
	C9.009474,149.642120 9.018949,141.284256 9.096561,132.462006 
z"/>
<path fill="#FAFAFA" opacity="1.000000" stroke="none" 
	d="
M819.000000,132.000000 
	C819.000000,140.591599 819.000000,149.183212 819.000000,158.000000 
	C810.980530,158.000000 802.958923,158.000000 794.471924,157.727341 
	C794.001465,157.272980 793.996460,157.091278 794.319580,156.715088 
	C806.152466,154.869110 813.751587,148.762451 816.611694,137.256821 
	C817.047180,135.505142 817.457092,133.747086 818.159058,131.998199 
	C818.626221,132.002975 818.813110,132.001495 819.000000,132.000000 
z"/>
<path fill="#EBEBEB" opacity="1.000000" stroke="none" 
	d="
M793.991394,156.909576 
	C793.996460,157.091278 794.001465,157.272980 794.003235,157.727341 
	C783.312439,158.000000 772.624878,158.000000 761.468628,158.000000 
	C761.000000,158.000000 760.995544,157.574020 761.453552,157.272278 
	C772.604858,156.950226 783.298096,156.929901 793.991394,156.909576 
z"/>
<path fill="#F0F0F0" opacity="1.000000" stroke="none" 
	d="
M819.000000,131.531342 
	C818.813110,132.001495 818.626221,132.002975 818.083740,131.534760 
	C817.766785,121.048088 817.805542,111.031082 817.844299,101.014076 
	C818.036804,101.007744 818.229370,101.001411 818.710999,100.997536 
	C819.000000,111.020897 819.000000,121.041786 819.000000,131.531342 
z"/>
<path fill="#020202" opacity="1.000000" stroke="none" 
	d="
M539.409485,57.000214 
	C539.409485,89.796288 539.409485,122.092354 539.409485,154.659866 
	C533.274109,154.659866 527.507019,154.659866 521.315430,154.659866 
	C521.315430,125.974472 521.315430,97.233315 521.315430,68.492157 
	C520.907837,68.393478 520.500183,68.294792 520.092590,68.196106 
	C519.741150,69.415085 519.339661,70.622147 519.046021,71.854881 
	C516.123108,84.124428 513.053162,96.362961 510.417023,108.694122 
	C509.703857,112.030006 508.458771,112.938538 505.195038,112.897545 
	C495.859650,112.780319 495.839355,112.928925 493.720184,104.090439 
	C491.127502,93.276741 488.580353,82.452103 485.981506,71.639900 
	C485.701324,70.474068 485.208862,69.359238 483.987427,68.382317 
	C483.987427,97.083870 483.987427,125.785423 483.987427,154.707886 
	C477.847931,154.707886 472.101105,154.707886 466.051361,154.707886 
	C466.051361,106.673317 466.051361,58.772373 466.051361,10.566403 
	C471.831451,10.566403 477.603851,10.566403 483.956787,10.566403 
	C490.205750,34.424046 496.521606,58.537067 502.837463,82.650085 
	C503.155853,82.607285 503.474243,82.564484 503.792633,82.521683 
	C509.579407,58.523235 515.366211,34.524788 521.163452,10.482906 
	C527.231445,10.482906 533.010681,10.482906 539.409485,10.482906 
	C539.409485,25.964125 539.409485,41.232166 539.409485,57.000214 
z"/>
<path fill="#060606" opacity="1.000000" stroke="none" 
	d="
M339.741516,154.822556 
	C334.550934,139.195389 329.745728,123.679787 325.028381,108.137520 
	C321.608215,96.869003 318.308563,85.563927 314.941833,74.279144 
	C314.635193,73.251297 314.230682,72.252647 312.998474,71.396294 
	C312.998474,99.052299 312.998474,126.708305 312.998474,154.651093 
	C306.624847,154.651093 300.710175,154.651093 294.446442,154.651093 
	C294.446442,106.738655 294.446442,58.844128 294.446442,10.271434 
	C299.352936,10.271434 304.310791,10.040594 309.213776,10.456457 
	C310.257019,10.544947 311.519531,12.861713 311.973633,14.365491 
	C319.404846,38.975052 326.717896,63.620262 334.073486,88.252693 
	C334.667450,90.241692 335.377380,92.196053 336.810547,94.028091 
	C336.810547,66.341194 336.810547,38.654293 336.810547,10.609230 
	C343.075531,10.609230 348.980988,10.609230 355.300232,10.609230 
	C355.300232,58.415142 355.300232,106.299721 355.300232,154.922699 
	C350.321320,154.922699 345.242920,154.922699 339.741516,154.822556 
z"/>
<path fill="#040404" opacity="1.000000" stroke="none" 
	d="
M817.625549,100.711067 
	C817.805542,111.031082 817.766785,121.048088 817.803467,131.528534 
	C817.457092,133.747086 817.047180,135.505142 816.611694,137.256821 
	C813.751587,148.762451 806.152466,154.869110 794.319580,156.715088 
	C783.298096,156.929901 772.604858,156.950226 761.449524,157.059326 
	C760.309753,155.619598 759.046387,154.093323 759.040588,152.562302 
	C758.924927,121.925743 758.954163,91.288643 758.954163,60.651642 
	C758.954163,46.332176 758.954163,32.012707 758.954163,17.693241 
	C758.954163,16.070372 758.954224,14.447502 758.954224,13.148108 
	C771.498230,13.148108 783.675964,12.303750 795.680542,13.383973 
	C807.851440,14.479152 815.008667,22.981495 815.892578,35.626766 
	C816.506348,44.407635 816.364502,53.256138 816.238281,62.069817 
	C816.107544,71.204269 812.889221,78.655785 802.737122,82.365532 
	C812.235718,85.345306 816.254700,91.792610 817.625549,100.711067 
M789.564453,137.631271 
	C794.473267,136.394516 796.765686,132.856750 796.904968,128.180862 
	C797.152161,119.881714 797.212524,111.558495 796.860352,103.266182 
	C796.603394,97.216545 793.233337,93.693604 787.838440,93.117874 
	C784.924316,92.806885 781.949646,93.062515 778.979370,93.062515 
	C778.979370,108.217644 778.979370,123.039322 778.979370,137.845108 
	C782.464783,137.845108 785.602051,137.845108 789.564453,137.631271 
M792.664978,72.180283 
	C793.500916,70.229843 794.920532,68.322151 795.067078,66.321213 
	C795.576294,59.369717 795.874878,52.384296 795.827698,45.414661 
	C795.746765,33.463696 791.312622,29.926460 778.912842,31.685789 
	C778.912842,46.013287 778.912842,60.374756 778.912842,75.996353 
	C783.666748,74.817734 787.879333,73.773308 792.664978,72.180283 
z"/>
<path fill="#040404" opacity="1.000000" stroke="none" 
	d="
M597.791199,10.256029 
	C600.077148,10.256037 601.892395,10.256037 604.151062,10.256037 
	C611.754700,58.389812 619.319641,106.278419 626.947021,154.562592 
	C620.073914,154.562592 613.381409,154.562592 606.283875,154.562592 
	C604.770569,143.286606 603.251831,131.969727 601.684937,120.293938 
	C595.346191,120.293938 588.931458,120.293938 581.837708,120.293938 
	C580.452576,131.492554 579.036743,142.938751 577.588684,154.645691 
	C570.990417,154.645691 564.567261,154.645691 557.468445,154.645691 
	C558.772705,145.815887 560.026855,137.029892 561.373962,128.258179 
	C566.216980,96.723068 571.094360,65.193237 575.951294,33.660259 
	C576.988525,26.926384 577.828674,20.154610 579.160828,13.480372 
	C579.413940,12.212152 581.494263,10.507847 582.840576,10.402781 
	C587.641785,10.028104 592.490112,10.256115 597.791199,10.256029 
M590.018677,48.939411 
	C588.174927,66.403458 586.331116,83.867508 584.476929,101.429855 
	C589.498108,101.429855 594.231018,101.429855 599.611572,101.429855 
	C597.045227,82.103310 594.532410,63.180260 592.019653,44.257210 
	C591.786133,44.286217 591.552612,44.315224 591.319153,44.344231 
	C590.952332,45.594059 590.585510,46.843887 590.018677,48.939411 
z"/>
<path fill="#040404" opacity="1.000000" stroke="none" 
	d="
M220.896759,62.815380 
	C223.565399,45.146931 226.188095,27.916288 228.838516,10.503414 
	C237.136063,10.503414 245.055649,10.503414 253.555115,10.503414 
	C261.127716,58.473221 268.700317,106.442978 276.320221,154.712250 
	C269.354950,154.712250 262.902313,154.712250 255.720459,154.712250 
	C254.151123,143.308945 252.560150,131.748535 250.955963,120.092148 
	C244.312943,120.092148 238.020187,120.092148 231.232788,120.092148 
	C229.809677,131.521378 228.380707,142.997620 226.923996,154.696655 
	C220.385727,154.696655 213.949310,154.696655 206.686569,154.696655 
	C211.424255,124.110489 216.137527,93.681839 220.896759,62.815380 
M239.422714,52.002022 
	C237.506012,68.416718 235.589310,84.831421 233.642120,101.507141 
	C239.015244,101.507141 243.757996,101.507141 248.899475,101.507141 
	C246.638458,83.750275 244.415115,66.289391 242.191772,48.828514 
	C241.789581,48.758766 241.387390,48.689018 240.985199,48.619274 
	C240.526947,49.459641 240.068710,50.300011 239.422714,52.002022 
z"/>
<path fill="#050505" opacity="1.000000" stroke="none" 
	d="
M644.926697,58.999977 
	C644.926697,42.566742 644.926697,26.633509 644.926697,10.528508 
	C651.980774,10.528508 658.541138,10.528508 665.530457,10.528508 
	C665.530457,52.192413 665.530457,93.582520 665.530457,135.471039 
	C674.670227,135.471039 683.403503,135.471039 692.505493,135.471039 
	C692.505493,142.013885 692.505493,148.074203 692.505493,154.540833 
	C676.966309,154.540833 661.267395,154.540833 644.926697,154.540833 
	C644.926697,122.949989 644.926697,91.224983 644.926697,58.999977 
z"/>
<path fill="#046AB6" opacity="1.000000" stroke="none" 
	d="
M725.974426,11.961194 
	C729.107300,11.961191 731.746826,11.961191 734.734619,11.961191 
	C734.734619,19.704840 734.734619,27.219051 734.734619,35.007454 
	C727.740295,35.007454 720.840393,35.007454 713.541199,35.007454 
	C713.541199,27.464138 713.541199,19.963385 713.541199,11.961197 
	C717.596497,11.961197 721.538818,11.961197 725.974426,11.961194 
z"/>
<path fill="#E8F1F8" opacity="1.000000" stroke="none" 
	d="
M46.676186,48.149521 
	C46.676067,51.402370 46.676067,54.193470 46.676067,57.379326 
	C41.468956,57.379326 36.638771,57.379326 31.505295,57.379326 
	C31.505295,52.503082 31.505295,47.780613 31.505295,42.671646 
	C36.412674,42.671646 41.253162,42.671646 46.445621,42.671646 
	C46.528152,44.466228 46.602230,46.077000 46.676186,48.149521 
z"/>
<path fill="#E8F1F8" opacity="1.000000" stroke="none" 
	d="
M93.222351,119.690231 
	C93.222145,115.787216 93.222145,112.340973 93.222145,108.537460 
	C98.357277,108.537460 103.072975,108.537460 108.244461,108.537460 
	C108.244461,113.257729 108.244461,118.095070 108.244461,123.622055 
	C104.015015,123.622055 99.757950,123.811813 95.545151,123.464592 
	C94.685646,123.393753 93.992432,121.305351 93.222351,119.690231 
z"/>
<path fill="#E8F1F8" opacity="1.000000" stroke="none" 
	d="
M53.225323,83.362968 
	C56.801502,83.363075 59.915237,83.363075 63.362091,83.363075 
	C63.362091,88.535110 63.362091,93.245819 63.362091,98.396858 
	C58.576847,98.396858 53.746964,98.396858 48.573463,98.396858 
	C48.573463,93.640114 48.573463,88.915222 48.573463,83.699516 
	C49.914879,83.591721 51.338879,83.477295 53.225323,83.362968 
z"/>
<path fill="#E7F1F8" opacity="1.000000" stroke="none" 
	d="
M104.701416,102.782333 
	C100.797470,102.782539 97.351479,102.782539 93.570961,102.782539 
	C93.570961,97.614029 93.570961,92.892128 93.570961,87.733421 
	C98.323822,87.733421 103.164375,87.733421 108.669678,87.733421 
	C108.669678,92.018127 108.859268,96.278091 108.510704,100.493561 
	C108.440468,101.342972 106.329460,102.023651 104.701416,102.782333 
z"/>
<path fill="#EFF5FA" opacity="1.000000" stroke="none" 
	d="
M70.096970,63.799957 
	C70.096962,60.195789 70.096962,57.060020 70.096962,53.573341 
	C75.180481,53.573341 79.916161,53.573341 85.022980,53.573341 
	C85.022980,58.373264 85.022980,63.243919 85.022980,68.624802 
	C80.720291,68.624802 76.580070,68.894455 72.525078,68.426140 
	C71.568413,68.315651 70.898705,65.720497 70.096970,63.799957 
z"/>
<path fill="#EFF5FA" opacity="1.000000" stroke="none" 
	d="
M56.904968,76.439728 
	C53.983013,76.439507 51.514103,76.439507 48.655632,76.439507 
	C48.655632,71.352501 48.655632,66.645790 48.655632,61.520134 
	C53.423584,61.520134 58.266129,61.520134 63.399643,61.520134 
	C63.399643,66.369736 63.399643,71.098061 63.399643,76.439957 
	C61.247547,76.439957 59.302780,76.439957 56.904968,76.439728 
z"/>
<path fill="#FBFDFE" opacity="1.000000" stroke="none" 
	d="
M74.174652,115.078194 
	C71.400932,115.312607 69.902000,114.893509 70.074387,111.966484 
	C70.296738,108.191238 70.128555,104.392990 70.128555,100.306961 
	C75.209450,100.306961 79.928680,100.306961 84.970810,100.306961 
	C84.970810,105.056458 84.970810,109.767876 84.970810,115.078430 
	C81.519325,115.078430 78.085663,115.078430 74.174652,115.078194 
z"/>
<path fill="#FBFCFE" opacity="1.000000" stroke="none" 
	d="
M70.136902,79.307922 
	C70.761566,78.238213 71.359619,77.140465 71.996544,77.117424 
	C76.268234,76.962952 80.548187,77.037086 85.049408,77.037086 
	C85.049408,82.090202 85.049408,86.687714 85.049408,91.696625 
	C80.291466,91.696625 75.457550,91.696625 70.128281,91.696625 
	C70.128281,87.662941 70.128281,83.720001 70.136902,79.307922 
z"/>
<path fill="#D2E4F2" opacity="1.000000" stroke="none" 
	d="
M137.719147,52.952244 
	C132.436142,53.022438 127.626289,53.022438 122.409836,53.022438 
	C122.409836,47.519428 122.409836,42.150097 122.409836,36.397511 
	C127.652313,36.397511 133.016632,36.397511 139.316101,36.397511 
	C138.938126,41.941734 138.565201,47.411892 137.719147,52.952244 
M124.001770,40.710022 
	C124.001770,44.098507 124.001770,47.486992 124.001770,50.674385 
	C128.781021,50.674385 132.808289,50.674385 136.638611,50.674385 
	C136.638611,46.244072 136.638611,42.219639 136.638611,38.017395 
	C133.454880,38.017395 130.641510,37.836403 127.869453,38.096169 
	C126.546120,38.220169 125.301239,39.181221 124.001770,40.710022 
z"/>
<path fill="#F8F8F8" opacity="1.000000" stroke="none" 
	d="
M420.915161,64.000076 
	C420.902985,82.140160 420.993530,99.781342 420.806885,117.419601 
	C420.759857,121.864929 420.021454,126.335350 419.246216,130.731720 
	C418.426392,135.381027 415.281494,137.218796 410.637543,137.229782 
	C405.981720,137.240799 402.891266,135.361023 401.982697,130.751923 
	C401.279236,127.183502 400.619476,123.528015 400.621216,119.911568 
	C400.634003,93.292412 400.792938,66.673134 400.995941,40.054585 
	C401.012146,37.933037 401.504333,35.755272 402.127411,33.710945 
	C403.342072,29.725735 406.164825,27.941212 410.376617,27.912380 
	C414.713959,27.882685 418.032593,29.344414 419.010864,33.752712 
	C419.940277,37.940945 420.554565,42.247181 420.788147,46.529854 
	C421.095886,52.172127 420.896484,57.842056 420.915161,64.000076 
z"/>
<path fill="#FBFBFB" opacity="1.000000" stroke="none" 
	d="
M789.151855,137.738190 
	C785.602051,137.845108 782.464783,137.845108 778.979370,137.845108 
	C778.979370,123.039322 778.979370,108.217644 778.979370,93.062515 
	C781.949646,93.062515 784.924316,92.806885 787.838440,93.117874 
	C793.233337,93.693604 796.603394,97.216545 796.860352,103.266182 
	C797.212524,111.558495 797.152161,119.881714 796.904968,128.180862 
	C796.765686,132.856750 794.473267,136.394516 789.151855,137.738190 
z"/>
<path fill="#FAFAFA" opacity="1.000000" stroke="none" 
	d="
M792.378479,72.454590 
	C787.879333,73.773308 783.666748,74.817734 778.912842,75.996353 
	C778.912842,60.374756 778.912842,46.013287 778.912842,31.685789 
	C791.312622,29.926460 795.746765,33.463696 795.827698,45.414661 
	C795.874878,52.384296 795.576294,59.369717 795.067078,66.321213 
	C794.920532,68.322151 793.500916,70.229843 792.378479,72.454590 
z"/>
<path fill="#F4F4F4" opacity="1.000000" stroke="none" 
	d="
M590.118652,48.516563 
	C590.585510,46.843887 590.952332,45.594059 591.319153,44.344231 
	C591.552612,44.315224 591.786133,44.286217 592.019653,44.257210 
	C594.532410,63.180260 597.045227,82.103310 599.611572,101.429855 
	C594.231018,101.429855 589.498108,101.429855 584.476929,101.429855 
	C586.331116,83.867508 588.174927,66.403458 590.118652,48.516563 
z"/>
<path fill="#F3F3F3" opacity="1.000000" stroke="none" 
	d="
M239.516602,51.571198 
	C240.068710,50.300011 240.526947,49.459641 240.985199,48.619274 
	C241.387390,48.689018 241.789581,48.758766 242.191772,48.828514 
	C244.415115,66.289391 246.638458,83.750275 248.899475,101.507141 
	C243.757996,101.507141 239.015244,101.507141 233.642120,101.507141 
	C235.589310,84.831421 237.506012,68.416718 239.516602,51.571198 
z"/>
<path fill="#0167B4" opacity="1.000000" stroke="none" 
	d="
M124.011292,40.236576 
	C125.301239,39.181221 126.546120,38.220169 127.869453,38.096169 
	C130.641510,37.836403 133.454880,38.017395 136.638611,38.017395 
	C136.638611,42.219639 136.638611,46.244072 136.638611,50.674385 
	C132.808289,50.674385 128.781021,50.674385 124.001770,50.674385 
	C124.001770,47.486992 124.001770,44.098507 124.011292,40.236576 
z"/>
</svg>