<svg version="1.1" id="Layer_1" xmlns="http://www.w3.org/2000/svg" xmlns:xlink="http://www.w3.org/1999/xlink" x="0px" y="0px"
	 width="100%" viewBox="0 0 304 92" enable-background="new 0 0 304 92" xml:space="preserve">
<path fill="#FEFEFE" opacity="1.000000" stroke="none" 
	d="
M207.000000,93.000000 
	C138.000015,93.000000 69.500038,93.000000 1.000046,93.000000 
	C1.000031,62.333363 1.000031,31.666725 1.000015,1.000067 
	C102.333275,1.000044 203.666550,1.000044 304.999878,1.000022 
	C304.999908,31.666597 304.999908,62.333195 304.999939,92.999893 
	C272.500000,93.000000 240.000000,93.000000 207.000000,93.000000 
M63.304768,44.376892 
	C60.966721,43.163719 58.628674,41.950546 56.440712,40.815247 
	C56.704094,44.623627 53.402081,44.312355 50.186012,43.205418 
	C50.186012,37.998646 50.186012,32.791874 50.186012,27.313919 
	C41.856922,30.678865 40.984249,31.902161 40.984142,39.470337 
	C40.984005,49.125248 41.211601,58.788223 40.869579,68.431000 
	C40.737034,72.167900 42.236290,73.782417 45.356060,74.948654 
	C62.141415,81.223381 80.572273,72.859856 86.912285,56.022736 
	C91.958244,42.622204 86.838165,26.035942 74.148590,18.954718 
	C75.606384,25.780666 76.304459,31.622885 78.150864,37.076302 
	C80.754341,44.765736 79.058746,54.793030 73.244812,60.695042 
	C67.170547,66.861343 58.045780,69.001465 49.925705,65.802612 
	C49.925705,59.231293 49.925705,52.428490 50.788544,45.751572 
	C53.013275,46.800289 55.238007,47.849010 57.027992,48.692795 
	C59.034100,47.514244 61.602390,46.005417 63.886337,45.460548 
	C63.886337,50.887123 63.886337,56.313702 63.886337,61.944191 
	C70.100204,59.078236 72.950493,55.889732 72.987282,51.518875 
	C73.075630,41.022263 73.112373,30.522449 72.899773,20.029398 
	C72.871773,18.647680 71.583641,16.621067 70.340744,16.035082 
	C52.058037,7.415379 30.491877,18.078411 25.917473,37.848629 
	C22.982052,50.535290 28.635942,65.219017 39.437107,70.657425 
	C38.486324,64.833870 38.479771,59.380028 36.635265,54.641647 
	C32.980877,45.253819 34.103622,36.885296 40.630707,29.643320 
	C46.662872,22.950462 54.600616,21.343885 64.168869,23.582375 
	C64.168869,30.651615 64.168869,37.599560 63.304768,44.376892 
M115.869843,57.455502 
	C123.051659,57.255653 125.324707,55.604206 126.654449,48.525463 
	C124.430229,49.669262 122.942123,50.567852 121.352264,51.217430 
	C119.479439,51.982624 117.261833,53.400391 115.668350,52.929409 
	C114.094269,52.464165 112.574310,50.161648 112.017143,48.360020 
	C111.420654,46.431293 111.591972,44.048088 112.106979,42.037094 
	C113.234894,37.632877 117.705696,36.725048 121.048256,39.809311 
	C122.423950,41.078701 124.307671,41.797512 125.960312,42.766762 
	C125.657242,36.677929 122.527336,34.248032 117.683228,33.961876 
	C111.830162,33.616104 107.824554,36.897499 106.823608,42.686596 
	C105.479332,50.461456 108.238724,55.335365 115.869843,57.455502 
M259.619263,35.047016 
	C257.059326,42.191189 254.499390,49.335361 251.887299,56.625114 
	C254.979706,57.465405 257.031891,57.382782 258.102722,53.806374 
	C258.429047,52.716492 261.093506,51.818344 262.711853,51.776077 
	C264.140778,51.738754 266.600494,52.747650 266.872772,53.760365 
	C267.844482,57.374416 269.912445,57.552193 272.913086,56.616547 
	C272.694397,55.951488 272.498840,55.329926 272.286163,54.714256 
	C270.343079,49.089344 268.183716,43.527298 266.528442,37.819031 
	C265.465546,34.153580 263.460907,33.479961 259.619263,35.047016 
M223.806030,40.604912 
	C216.771606,38.526535 213.967178,39.451817 212.130478,45.290516 
	C214.434052,44.448269 216.164322,43.373825 217.931229,43.309772 
	C219.338028,43.258774 220.789536,44.441395 222.221207,45.076366 
	C222.025757,45.530140 221.830307,45.983910 221.634857,46.437679 
	C219.388428,46.790382 216.820190,46.591034 214.990051,47.657864 
	C213.307648,48.638565 211.310364,51.109100 211.490921,52.690445 
	C211.675201,54.304367 214.197479,56.619003 215.954056,56.878040 
	C219.292709,57.370384 222.815262,56.615788 227.375702,56.302498 
	C226.378174,51.154106 225.402618,46.118996 223.806030,40.604912 
M146.018646,46.837490 
	C145.387177,42.186222 142.642441,39.670544 138.040634,39.499451 
	C134.272110,39.359344 130.570526,40.682049 130.055923,44.695847 
	C129.631210,48.008553 129.857407,52.506226 131.802734,54.692513 
	C133.535812,56.640274 138.234802,57.126831 141.239044,56.476364 
	C145.260086,55.605747 146.302063,51.644638 146.018646,46.837490 
M173.782104,45.232063 
	C171.067413,40.087658 166.661835,38.178463 161.996490,40.124687 
	C158.032883,41.778175 156.147537,46.801140 157.682053,51.619270 
	C159.114273,56.116123 162.931625,58.130184 167.977600,57.051262 
	C172.439133,56.097305 174.184525,52.875175 173.782104,45.232063 
M188.682739,40.674286 
	C187.096268,40.280258 185.223694,39.157944 183.983429,39.645180 
	C181.471848,40.631844 178.065735,42.016243 177.268158,44.095707 
	C175.899887,47.663094 179.393112,49.013031 182.381393,49.950104 
	C183.983353,50.452457 185.540207,51.098698 187.117401,51.680008 
	C186.978607,52.336906 186.839813,52.993801 186.701004,53.650700 
	C183.499542,53.184105 180.298080,52.717510 176.551025,52.171398 
	C178.511276,57.630096 182.506989,57.813709 186.143661,56.838985 
	C188.251602,56.273998 189.831390,53.738434 191.648849,52.089668 
	C190.099533,50.415306 188.762436,48.437965 186.936249,47.158909 
	C185.371475,46.062950 183.246750,45.766514 181.369659,45.116478 
	C181.514511,44.456116 181.659348,43.795750 181.804184,43.135387 
	C184.757889,43.597603 187.711594,44.059818 191.708725,44.685318 
	C190.497177,42.869602 189.902527,41.978424 188.682739,40.674286 
M194.345703,46.034122 
	C197.589783,48.140873 200.833847,50.247623 204.077927,52.354370 
	C204.001785,52.816120 203.925644,53.277866 203.849503,53.739616 
	C200.657257,53.205917 197.465027,52.672222 193.572311,52.021416 
	C195.806992,57.428616 199.689819,57.880997 203.388306,56.842430 
	C205.505646,56.247860 207.088074,53.748375 208.911316,52.106514 
	C207.365952,50.427563 206.035858,48.440750 204.209503,47.163616 
	C202.648590,46.072094 200.518173,45.794960 198.639664,45.157608 
	C198.782639,44.484913 198.925613,43.812222 199.068588,43.139526 
	C201.985519,43.582176 204.902435,44.024830 208.637894,44.591694 
	C206.811539,39.971127 203.747269,39.344574 200.359039,39.649544 
	C196.980225,39.953667 194.193268,41.185204 194.345703,46.034122 
M230.304626,42.561119 
	C230.304626,47.197968 230.304626,51.834812 230.304626,56.750328 
	C232.032303,56.750328 233.387360,56.750328 234.764954,56.750328 
	C234.764954,48.781422 234.764954,41.023052 234.764954,33.385082 
	C231.618027,32.523651 229.959366,33.213261 230.278336,36.596874 
	C230.433929,38.247295 230.304886,39.924549 230.304626,42.561119 
M149.304626,50.359947 
	C149.304626,52.483322 149.304626,54.606701 149.304626,56.873291 
	C151.107574,56.873291 152.376419,56.873291 153.815872,56.873291 
	C153.815872,48.947845 153.815872,41.189388 153.815872,33.039082 
	C152.205505,33.206726 150.862946,33.346497 149.304703,33.508717 
	C149.304703,39.095833 149.304703,44.244404 149.304626,50.359947 
M276.107910,41.635441 
	C276.107910,46.711330 276.107910,51.787220 276.107910,57.167908 
	C278.158569,56.963242 279.532410,56.826122 280.697937,56.709797 
	C280.697937,49.054943 280.697937,41.838428 280.697937,34.247498 
	C278.968658,34.452763 277.594177,34.615910 276.107941,34.792328 
	C276.107941,37.050957 276.107941,38.868176 276.107910,41.635441 
M241.777481,45.871788 
	C240.764481,46.831100 239.751480,47.790413 238.738480,48.749729 
	C239.064575,49.094357 239.390671,49.438988 239.716766,49.783615 
	C242.932251,49.783615 246.147736,49.783615 249.363205,49.783615 
	C249.656952,49.389999 249.950699,48.996387 250.244461,48.602772 
	C249.203903,47.692451 248.297363,46.396587 247.086670,45.975796 
	C245.767670,45.517361 244.166504,45.870670 241.777481,45.871788 
z"/>
<path fill="#CD463A" opacity="1.000000" stroke="none" 
	d="
M49.925705,45.625683 
	C49.925705,52.428490 49.925705,59.231293 49.925705,65.802612 
	C58.045780,69.001465 67.170547,66.861343 73.244812,60.695042 
	C79.058746,54.793030 80.754341,44.765736 78.150864,37.076302 
	C76.304459,31.622885 75.606384,25.780666 74.148590,18.954718 
	C86.838165,26.035942 91.958244,42.622204 86.912285,56.022736 
	C80.572273,72.859856 62.141415,81.223381 45.356060,74.948654 
	C42.236290,73.782417 40.737034,72.167900 40.869579,68.431000 
	C41.211601,58.788223 40.984005,49.125248 40.984142,39.470337 
	C40.984249,31.902161 41.856922,30.678865 50.186012,27.313919 
	C50.186012,32.791874 50.186012,37.998646 50.077946,43.913250 
	C49.955154,44.955948 49.940430,45.290817 49.925705,45.625683 
z"/>
<path fill="#334F9D" opacity="1.000000" stroke="none" 
	d="
M64.168869,44.547508 
	C64.168869,37.599560 64.168869,30.651615 64.168869,23.582375 
	C54.600616,21.343885 46.662872,22.950462 40.630707,29.643320 
	C34.103622,36.885296 32.980877,45.253819 36.635265,54.641647 
	C38.479771,59.380028 38.486324,64.833870 39.437107,70.657425 
	C28.635942,65.219017 22.982052,50.535290 25.917473,37.848629 
	C30.491877,18.078411 52.058037,7.415379 70.340744,16.035082 
	C71.583641,16.621067 72.871773,18.647680 72.899773,20.029398 
	C73.112373,30.522449 73.075630,41.022263 72.987282,51.518875 
	C72.950493,55.889732 70.100204,59.078236 63.886337,61.944191 
	C63.886337,56.313702 63.886337,50.887123 64.026100,44.993103 
	C64.165863,44.525661 64.168869,44.547508 64.168869,44.547508 
z"/>
<path fill="#2C2D30" opacity="1.000000" stroke="none" 
	d="
M115.489548,57.388531 
	C108.238724,55.335365 105.479332,50.461456 106.823608,42.686596 
	C107.824554,36.897499 111.830162,33.616104 117.683228,33.961876 
	C122.527336,34.248032 125.657242,36.677929 125.960312,42.766762 
	C124.307671,41.797512 122.423950,41.078701 121.048256,39.809311 
	C117.705696,36.725048 113.234894,37.632877 112.106979,42.037094 
	C111.591972,44.048088 111.420654,46.431293 112.017143,48.360020 
	C112.574310,50.161648 114.094269,52.464165 115.668350,52.929409 
	C117.261833,53.400391 119.479439,51.982624 121.352264,51.217430 
	C122.942123,50.567852 124.430229,49.669262 126.654449,48.525463 
	C125.324707,55.604206 123.051659,57.255653 115.489548,57.388531 
z"/>
<path fill="#2A2C2F" opacity="1.000000" stroke="none" 
	d="
M259.930847,34.814964 
	C263.460907,33.479961 265.465546,34.153580 266.528442,37.819031 
	C268.183716,43.527298 270.343079,49.089344 272.286163,54.714256 
	C272.498840,55.329926 272.694397,55.951488 272.913086,56.616547 
	C269.912445,57.552193 267.844482,57.374416 266.872772,53.760365 
	C266.600494,52.747650 264.140778,51.738754 262.711853,51.776077 
	C261.093506,51.818344 258.429047,52.716492 258.102722,53.806374 
	C257.031891,57.382782 254.979706,57.465405 251.887299,56.625114 
	C254.499390,49.335361 257.059326,42.191189 259.930847,34.814964 
M260.386353,45.210152 
	C260.236023,46.004658 260.085663,46.799168 259.894287,47.810585 
	C261.660645,47.810585 263.256409,47.810585 265.307220,47.810585 
	C264.402588,44.915375 263.586945,42.304985 262.478149,38.756382 
	C261.671600,41.358269 261.187988,42.918381 260.386353,45.210152 
z"/>
<path fill="#2C2E31" opacity="1.000000" stroke="none" 
	d="
M224.116547,40.844398 
	C225.402618,46.118996 226.378174,51.154106 227.375702,56.302498 
	C222.815262,56.615788 219.292709,57.370384 215.954056,56.878040 
	C214.197479,56.619003 211.675201,54.304367 211.490921,52.690445 
	C211.310364,51.109100 213.307648,48.638565 214.990051,47.657864 
	C216.820190,46.591034 219.388428,46.790382 221.634857,46.437679 
	C221.830307,45.983910 222.025757,45.530140 222.221207,45.076366 
	C220.789536,44.441395 219.338028,43.258774 217.931229,43.309772 
	C216.164322,43.373825 214.434052,44.448269 212.130478,45.290516 
	C213.967178,39.451817 216.771606,38.526535 224.116547,40.844398 
z"/>
<path fill="#27292C" opacity="1.000000" stroke="none" 
	d="
M146.038940,47.249256 
	C146.302063,51.644638 145.260086,55.605747 141.239044,56.476364 
	C138.234802,57.126831 133.535812,56.640274 131.802734,54.692513 
	C129.857407,52.506226 129.631210,48.008553 130.055923,44.695847 
	C130.570526,40.682049 134.272110,39.359344 138.040634,39.499451 
	C142.642441,39.670544 145.387177,42.186222 146.038940,47.249256 
M136.788101,43.244492 
	C133.287064,44.988609 133.557526,48.091751 134.423523,51.000015 
	C134.757217,52.120697 136.424606,53.341961 137.642746,53.539223 
	C138.565918,53.688721 140.436279,52.469383 140.677963,51.543919 
	C141.558243,48.173172 142.515503,44.447628 136.788101,43.244492 
z"/>
<path fill="#27292C" opacity="1.000000" stroke="none" 
	d="
M173.864807,45.631226 
	C174.184525,52.875175 172.439133,56.097305 167.977600,57.051262 
	C162.931625,58.130184 159.114273,56.116123 157.682053,51.619270 
	C156.147537,46.801140 158.032883,41.778175 161.996490,40.124687 
	C166.661835,38.178463 171.067413,40.087658 173.864807,45.631226 
M169.149673,46.828644 
	C167.855682,45.602715 166.561676,44.376785 165.267685,43.150856 
	C164.191986,44.461723 162.102570,45.907562 162.255325,47.054878 
	C162.556992,49.320522 163.782608,53.005054 165.190430,53.287189 
	C169.128799,54.076458 169.232056,50.562748 169.149673,46.828644 
z"/>
<path fill="#2D2F31" opacity="1.000000" stroke="none" 
	d="
M188.995300,40.880768 
	C189.902527,41.978424 190.497177,42.869602 191.708725,44.685318 
	C187.711594,44.059818 184.757889,43.597603 181.804184,43.135387 
	C181.659348,43.795750 181.514511,44.456116 181.369659,45.116478 
	C183.246750,45.766514 185.371475,46.062950 186.936249,47.158909 
	C188.762436,48.437965 190.099533,50.415306 191.648849,52.089668 
	C189.831390,53.738434 188.251602,56.273998 186.143661,56.838985 
	C182.506989,57.813709 178.511276,57.630096 176.551025,52.171398 
	C180.298080,52.717510 183.499542,53.184105 186.701004,53.650700 
	C186.839813,52.993801 186.978607,52.336906 187.117401,51.680008 
	C185.540207,51.098698 183.983353,50.452457 182.381393,49.950104 
	C179.393112,49.013031 175.899887,47.663094 177.268158,44.095707 
	C178.065735,42.016243 181.471848,40.631844 183.983429,39.645180 
	C185.223694,39.157944 187.096268,40.280258 188.995300,40.880768 
z"/>
<path fill="#2C2E31" opacity="1.000000" stroke="none" 
	d="
M194.255875,45.665455 
	C194.193268,41.185204 196.980225,39.953667 200.359039,39.649544 
	C203.747269,39.344574 206.811539,39.971127 208.637894,44.591694 
	C204.902435,44.024830 201.985519,43.582176 199.068588,43.139526 
	C198.925613,43.812222 198.782639,44.484913 198.639664,45.157608 
	C200.518173,45.794960 202.648590,46.072094 204.209503,47.163616 
	C206.035858,48.440750 207.365952,50.427563 208.911316,52.106514 
	C207.088074,53.748375 205.505646,56.247860 203.388306,56.842430 
	C199.689819,57.880997 195.806992,57.428616 193.572311,52.021416 
	C197.465027,52.672222 200.657257,53.205917 203.849503,53.739616 
	C203.925644,53.277866 204.001785,52.816120 204.077927,52.354370 
	C200.833847,50.247623 197.589783,48.140873 194.255875,45.665455 
z"/>
<path fill="#313335" opacity="1.000000" stroke="none" 
	d="
M230.304657,42.075390 
	C230.304886,39.924549 230.433929,38.247295 230.278336,36.596874 
	C229.959366,33.213261 231.618027,32.523651 234.764954,33.385082 
	C234.764954,41.023052 234.764954,48.781422 234.764954,56.750328 
	C233.387360,56.750328 232.032303,56.750328 230.304626,56.750328 
	C230.304626,51.834812 230.304626,47.197968 230.304657,42.075390 
z"/>
<path fill="#313335" opacity="1.000000" stroke="none" 
	d="
M149.304657,49.876461 
	C149.304703,44.244404 149.304703,39.095833 149.304703,33.508717 
	C150.862946,33.346497 152.205505,33.206726 153.815872,33.039082 
	C153.815872,41.189388 153.815872,48.947845 153.815872,56.873291 
	C152.376419,56.873291 151.107574,56.873291 149.304626,56.873291 
	C149.304626,54.606701 149.304626,52.483322 149.304657,49.876461 
z"/>
<path fill="#2C2E30" opacity="1.000000" stroke="none" 
	d="
M276.107910,41.160416 
	C276.107941,38.868176 276.107941,37.050957 276.107941,34.792328 
	C277.594177,34.615910 278.968658,34.452763 280.697937,34.247498 
	C280.697937,41.838428 280.697937,49.054943 280.697937,56.709797 
	C279.532410,56.826122 278.158569,56.963242 276.107910,57.167908 
	C276.107910,51.787220 276.107910,46.711330 276.107910,41.160416 
z"/>
<path fill="#F8D06D" opacity="1.000000" stroke="none" 
	d="
M63.736816,44.462200 
	C64.168869,44.547508 64.165863,44.525661 64.168274,44.511127 
	C61.602390,46.005417 59.034100,47.514244 57.027992,48.692795 
	C55.238007,47.849010 53.013275,46.800289 50.357124,45.688629 
	C49.940430,45.290817 49.955154,44.955948 50.087669,44.390511 
	C53.402081,44.312355 56.704094,44.623627 56.440712,40.815247 
	C58.628674,41.950546 60.966721,43.163719 63.736816,44.462200 
z"/>
<path fill="#2B2D30" opacity="1.000000" stroke="none" 
	d="
M242.232910,45.870941 
	C244.166504,45.870670 245.767670,45.517361 247.086670,45.975796 
	C248.297363,46.396587 249.203903,47.692451 250.244461,48.602772 
	C249.950699,48.996387 249.656952,49.389999 249.363205,49.783615 
	C246.147736,49.783615 242.932251,49.783615 239.716766,49.783615 
	C239.390671,49.438988 239.064575,49.094357 238.738480,48.749729 
	C239.751480,47.790413 240.764481,46.831100 242.232910,45.870941 
z"/>
<path fill="#EFF0F0" opacity="1.000000" stroke="none" 
	d="
M260.545349,44.844322 
	C261.187988,42.918381 261.671600,41.358269 262.478149,38.756382 
	C263.586945,42.304985 264.402588,44.915375 265.307220,47.810585 
	C263.256409,47.810585 261.660645,47.810585 259.894287,47.810585 
	C260.085663,46.799168 260.236023,46.004658 260.545349,44.844322 
z"/>
<path fill="#F4F4F4" opacity="1.000000" stroke="none" 
	d="
M137.179871,43.168270 
	C142.515503,44.447628 141.558243,48.173172 140.677963,51.543919 
	C140.436279,52.469383 138.565918,53.688721 137.642746,53.539223 
	C136.424606,53.341961 134.757217,52.120697 134.423523,51.000015 
	C133.557526,48.091751 133.287064,44.988609 137.179871,43.168270 
z"/>
<path fill="#F4F4F4" opacity="1.000000" stroke="none" 
	d="
M169.207336,47.237007 
	C169.232056,50.562748 169.128799,54.076458 165.190430,53.287189 
	C163.782608,53.005054 162.556992,49.320522 162.255325,47.054878 
	C162.102570,45.907562 164.191986,44.461723 165.267685,43.150856 
	C166.561676,44.376785 167.855682,45.602715 169.207336,47.237007 
z"/>
</svg>