<?xml version="1.0" standalone="no"?>
<!DOCTYPE svg PUBLIC "-//W3C//DTD SVG 20010904//EN"
 "http://www.w3.org/TR/2001/REC-SVG-20010904/DTD/svg10.dtd">
<svg version="1.0" xmlns="http://www.w3.org/2000/svg"
 width="963.000000pt" height="324.000000pt" viewBox="0 0 963.000000 324.000000"
 preserveAspectRatio="xMidYMid meet">

<g transform="translate(0.000000,324.000000) scale(0.100000,-0.100000)"
fill="#000000" stroke="none">
<path d="M400 2275 l0 -535 175 0 175 0 2 358 3 357 358 3 357 2 0 175 0 175
-535 0 -535 0 0 -535z"/>
<path d="M1840 2635 l0 -175 355 0 355 0 0 -360 0 -360 175 0 175 0 0 535 0
535 -530 0 -530 0 0 -175z"/>
<path d="M4240 2080 c0 -148 -2 -270 -5 -270 -3 0 -25 15 -50 34 -72 56 -140
76 -253 76 -152 0 -240 -36 -326 -132 -105 -116 -140 -217 -140 -403 1 -182
36 -287 134 -397 94 -106 186 -141 353 -136 104 3 118 6 179 36 37 18 78 46
92 62 13 17 27 30 30 30 3 0 6 -25 6 -55 l0 -55 130 0 130 0 0 740 0 740 -140
0 -140 0 0 -270z m-156 -415 c55 -23 111 -79 137 -138 31 -70 32 -209 1 -278
-44 -101 -127 -159 -226 -159 -172 0 -285 161 -251 360 6 36 18 79 28 96 24
46 75 94 122 115 49 23 139 24 189 4z"/>
<path d="M6994 2257 c-2 -7 -3 -67 -2 -133 l3 -119 190 -5 190 -5 3 -562 2
-563 140 0 140 0 2 563 3 562 187 3 c220 3 200 -13 196 157 l-3 110 -523 3
c-425 2 -524 0 -528 -11z"/>
<path d="M8217 2264 c-4 -4 -7 -319 -7 -701 l0 -694 143 3 142 3 3 263 2 263
138 -3 137 -3 130 -262 130 -263 163 0 c89 0 162 3 162 7 0 3 -19 40 -41 82
-23 42 -55 101 -72 131 -60 111 -85 157 -132 244 -55 101 -58 86 38 153 93 65
146 172 154 314 13 217 -91 381 -283 446 -41 13 -109 17 -424 20 -206 3 -378
1 -383 -3z m736 -287 c51 -39 69 -78 68 -149 0 -72 -25 -118 -79 -144 -32 -16
-67 -19 -239 -22 l-203 -3 0 176 0 177 208 -4 209 -3 36 -28z"/>
<path d="M1480 1915 l0 -175 170 0 170 0 0 175 0 175 -170 0 -170 0 0 -175z"/>
<path d="M5080 1901 c-114 -37 -205 -105 -268 -200 -59 -89 -75 -131 -93 -242
-22 -133 14 -277 98 -397 103 -146 238 -212 436 -212 177 0 293 45 396 156
199 212 199 546 0 758 -63 68 -148 120 -233 142 -75 20 -267 17 -336 -5z m264
-233 c98 -30 176 -154 176 -283 0 -222 -195 -359 -380 -267 -211 104 -195 467
24 548 42 16 130 17 180 2z"/>
<path d="M6269 1896 c-249 -86 -386 -359 -325 -647 39 -182 175 -330 353 -384
29 -9 90 -15 155 -15 174 0 287 49 387 170 42 50 99 165 88 176 -6 6 -219 44
-248 44 -20 0 -30 -7 -39 -30 -15 -37 -69 -85 -117 -105 -102 -43 -229 9 -283
116 -41 79 -40 250 0 330 72 139 237 172 353 69 19 -16 40 -43 47 -60 8 -19
20 -30 32 -30 23 0 251 39 256 44 9 9 -45 123 -78 165 -105 132 -216 181 -407
180 -86 0 -122 -5 -174 -23z"/>
<path d="M1120 1555 l0 -175 175 0 175 0 0 175 0 175 -175 0 -175 0 0 -175z"/>
<path d="M1840 1555 l0 -175 170 0 170 0 0 175 0 175 -170 0 -170 0 0 -175z"/>
<path d="M400 835 l0 -535 535 0 535 0 0 175 0 175 -357 2 -358 3 -3 358 -2
357 -175 0 -175 0 0 -535z"/>
<path d="M1480 1195 l0 -175 170 0 170 0 0 175 0 175 -170 0 -170 0 0 -175z"/>
<path d="M2550 1010 l0 -360 -355 0 -355 0 0 -175 0 -175 530 0 530 0 0 535 0
535 -175 0 -175 0 0 -360z"/>
</g>
</svg>
