<svg version="1.1" id="Layer_1" xmlns="http://www.w3.org/2000/svg" xmlns:xlink="http://www.w3.org/1999/xlink" x="0px" y="0px"
	 width="100%" viewBox="0 0 145 63" enable-background="new 0 0 145 63" xml:space="preserve">
<path fill="#F6F7F8" opacity="1.000000" stroke="none" 
	d="
M1.000000,62.000000 
	C1.000000,41.700027 1.000000,21.400057 1.000000,1.050043 
	C49.220623,1.050043 97.441315,1.050043 146.000000,1.050043 
	C146.000000,21.019627 146.000000,41.041153 145.531342,61.530861 
	C97.041786,61.999359 49.020893,61.999680 1.000000,62.000000 
M116.097954,41.427979 
	C117.935532,36.671333 118.509331,31.857241 114.546669,27.994257 
	C110.776421,24.318853 106.708900,25.931143 104.100212,27.902493 
	C101.731552,26.939030 100.181091,26.308374 98.017097,25.428160 
	C98.017097,30.850758 98.017097,35.156590 98.017097,39.462418 
	C98.017097,43.912117 98.017097,48.361816 98.017097,53.086983 
	C99.755768,52.927628 100.976295,52.815762 102.625839,52.664574 
	C102.625839,49.581028 102.625839,46.861210 102.625839,43.944378 
	C109.310921,47.036602 111.474121,46.682621 116.097954,41.427979 
M76.135338,43.423237 
	C77.290123,44.058537 78.388329,44.845085 79.609833,45.302055 
	C84.084717,46.976139 89.226669,45.626888 91.804092,42.215321 
	C94.365166,38.825394 94.369827,32.892509 91.814064,29.530066 
	C89.251526,26.158709 84.198746,25.026207 79.538689,26.778727 
	C72.996292,29.239141 71.375603,35.841812 76.135338,43.423237 
M35.133980,43.680527 
	C34.862053,39.967216 32.557858,42.349648 31.238064,42.521965 
	C26.509951,43.139286 24.448132,41.749672 23.916971,36.837555 
	C28.211895,36.837555 32.458031,36.837555 36.695618,36.837555 
	C36.589607,29.333843 33.775665,25.899189 28.170889,25.982546 
	C22.405373,26.068295 18.446396,30.797903 18.832081,37.139187 
	C19.306641,44.941673 25.781355,47.889492 35.133980,43.680527 
M62.355190,30.029987 
	C63.463017,35.190079 64.570847,40.350174 65.738976,45.791122 
	C66.224457,45.791122 67.471794,45.791122 68.988060,45.791122 
	C68.988060,41.097095 69.295334,36.603138 68.908852,32.169659 
	C68.444885,26.847326 63.859318,24.533003 59.101307,26.883963 
	C57.961460,27.447166 56.936977,28.243832 56.555721,28.487717 
	C54.799942,27.314579 53.497017,26.444019 51.288567,24.968424 
	C51.288567,31.988365 51.159542,37.634296 51.405510,43.263844 
	C51.450676,44.297573 53.018040,45.264793 53.882774,46.262714 
	C55.051224,42.521099 55.245926,39.684849 55.008057,36.885353 
	C54.595436,32.029175 56.716465,29.737692 62.355190,30.029987 
M125.749809,30.728998 
	C128.305115,30.158831 130.860413,29.588661 133.696457,28.955854 
	C133.691376,28.997644 133.868835,28.136213 133.788239,28.111353 
	C131.478653,27.398952 128.882858,25.825821 126.880569,26.377605 
	C124.593475,27.007868 122.228325,29.232298 121.120697,31.391634 
	C120.640945,32.326920 122.919662,35.190838 124.496063,36.530991 
	C126.277817,38.045723 128.678253,38.832710 130.809647,39.936165 
	C130.626358,40.574711 130.443069,41.213253 130.259781,41.851799 
	C127.257927,41.851799 124.256073,41.851799 120.088928,41.851799 
	C121.185196,43.320396 121.890808,45.253120 122.919304,45.443733 
	C125.266045,45.878674 128.041687,46.094994 130.132584,45.203213 
	C132.076614,44.374069 134.353012,42.134575 134.618790,40.252697 
	C134.831589,38.746044 132.437805,36.638153 130.851746,35.175709 
	C129.248032,33.696964 127.214996,32.683807 125.749809,30.728998 
M41.025459,40.364429 
	C41.044483,46.177608 41.044483,46.177608 45.150688,45.285679 
	C45.150688,39.018265 45.150688,32.758808 45.150688,26.281694 
	C43.760059,26.281694 42.561226,26.281694 41.025459,26.281694 
	C41.025459,30.837973 41.025459,35.120663 41.025459,40.364429 
z"/>
<path fill="#FFFFFF" opacity="1.000000" stroke="none" 
	d="
M1.000000,62.500000 
	C49.020893,61.999680 97.041786,61.999359 145.531342,61.999519 
	C145.666672,62.666668 145.404129,63.851662 144.987518,63.908546 
	C143.351349,64.131973 141.666672,64.000000 140.000000,64.000000 
	C95.000008,64.000000 50.000000,64.008591 5.000064,63.958031 
	C3.666352,63.956532 2.333339,63.333332 1.000000,62.500000 
z"/>
<path fill="#342D34" opacity="1.000000" stroke="none" 
	d="
M115.912849,41.761272 
	C111.474121,46.682621 109.310921,47.036602 102.625839,43.944378 
	C102.625839,46.861210 102.625839,49.581028 102.625839,52.664574 
	C100.976295,52.815762 99.755768,52.927628 98.017097,53.086983 
	C98.017097,48.361816 98.017097,43.912117 98.017097,39.462418 
	C98.017097,35.156590 98.017097,30.850758 98.017097,25.428160 
	C100.181091,26.308374 101.731552,26.939030 104.100212,27.902493 
	C106.708900,25.931143 110.776421,24.318853 114.546669,27.994257 
	C118.509331,31.857241 117.935532,36.671333 115.912849,41.761272 
M105.864212,42.184036 
	C109.429482,42.965694 112.153427,41.534740 112.476425,38.058422 
	C112.707489,35.571522 111.858650,32.485023 110.352943,30.553911 
	C109.637184,29.635925 104.730301,30.202013 104.381088,31.114002 
	C103.301788,33.932693 103.411377,37.237534 103.293861,40.362411 
	C103.274841,40.868317 104.451706,41.419189 105.864212,42.184036 
z"/>
<path fill="#33353C" opacity="1.000000" stroke="none" 
	d="
M75.860573,43.152988 
	C71.375603,35.841812 72.996292,29.239141 79.538689,26.778727 
	C84.198746,25.026207 89.251526,26.158709 91.814064,29.530066 
	C94.369827,32.892509 94.365166,38.825394 91.804092,42.215321 
	C89.226669,45.626888 84.084717,46.976139 79.609833,45.302055 
	C78.388329,44.845085 77.290123,44.058537 75.860573,43.152988 
M78.692451,32.394653 
	C78.499336,34.327003 77.585571,36.603199 78.300766,38.102177 
	C79.140533,39.862240 81.254784,41.763779 83.079163,42.078072 
	C84.667961,42.351780 87.984154,40.696281 88.146065,39.554264 
	C88.545433,36.737366 88.488586,33.019176 86.913277,30.974497 
	C85.020599,28.517872 81.546371,29.036377 78.692451,32.394653 
z"/>
<path fill="#2E2F34" opacity="1.000000" stroke="none" 
	d="
M35.002914,44.061165 
	C25.781355,47.889492 19.306641,44.941673 18.832081,37.139187 
	C18.446396,30.797903 22.405373,26.068295 28.170889,25.982546 
	C33.775665,25.899189 36.589607,29.333843 36.695618,36.837555 
	C32.458031,36.837555 28.211895,36.837555 23.916971,36.837555 
	C24.448132,41.749672 26.509951,43.139286 31.238064,42.521965 
	C32.557858,42.349648 34.862053,39.967216 35.002914,44.061165 
M28.415524,34.005856 
	C29.697338,33.945496 30.979153,33.885132 32.260967,33.824772 
	C32.491959,33.471912 32.722946,33.119053 32.953938,32.766193 
	C31.515463,31.585112 30.008207,29.378450 28.655031,29.469202 
	C26.742254,29.597481 24.943308,31.423092 23.095705,32.523163 
	C23.326641,32.960068 23.557577,33.396973 23.788511,33.833874 
	C25.065544,33.891201 26.342577,33.948524 28.415524,34.005856 
z"/>
<path fill="#383534" opacity="1.000000" stroke="none" 
	d="
M61.933601,29.895859 
	C56.716465,29.737692 54.595436,32.029175 55.008057,36.885353 
	C55.245926,39.684849 55.051224,42.521099 53.882774,46.262714 
	C53.018040,45.264793 51.450676,44.297573 51.405510,43.263844 
	C51.159542,37.634296 51.288567,31.988365 51.288567,24.968424 
	C53.497017,26.444019 54.799942,27.314579 56.555721,28.487717 
	C56.936977,28.243832 57.961460,27.447166 59.101307,26.883963 
	C63.859318,24.533003 68.444885,26.847326 68.908852,32.169659 
	C69.295334,36.603138 68.988060,41.097095 68.988060,45.791122 
	C67.471794,45.791122 66.224457,45.791122 65.738976,45.791122 
	C64.570847,40.350174 63.463017,35.190079 61.933601,29.895859 
z"/>
<path fill="#2E333B" opacity="1.000000" stroke="none" 
	d="
M125.559921,31.097849 
	C127.214996,32.683807 129.248032,33.696964 130.851746,35.175709 
	C132.437805,36.638153 134.831589,38.746044 134.618790,40.252697 
	C134.353012,42.134575 132.076614,44.374069 130.132584,45.203213 
	C128.041687,46.094994 125.266045,45.878674 122.919304,45.443733 
	C121.890808,45.253120 121.185196,43.320396 120.088928,41.851799 
	C124.256073,41.851799 127.257927,41.851799 130.259781,41.851799 
	C130.443069,41.213253 130.626358,40.574711 130.809647,39.936165 
	C128.678253,38.832710 126.277817,38.045723 124.496063,36.530991 
	C122.919662,35.190838 120.640945,32.326920 121.120697,31.391634 
	C122.228325,29.232298 124.593475,27.007868 126.880569,26.377605 
	C128.882858,25.825821 131.478653,27.398952 133.788239,28.111353 
	C133.868835,28.136213 133.691376,28.997644 133.696457,28.955854 
	C130.860413,29.588661 128.305115,30.158831 125.559921,31.097849 
z"/>
<path fill="#392529" opacity="1.000000" stroke="none" 
	d="
M41.025459,39.883888 
	C41.025459,35.120663 41.025459,30.837973 41.025459,26.281694 
	C42.561226,26.281694 43.760059,26.281694 45.150688,26.281694 
	C45.150688,32.758808 45.150688,39.018265 45.150688,45.285679 
	C41.044483,46.177608 41.044483,46.177608 41.025459,39.883888 
z"/>
<path fill="#EDEFEE" opacity="1.000000" stroke="none" 
	d="
M105.470001,42.066658 
	C104.451706,41.419189 103.274841,40.868317 103.293861,40.362411 
	C103.411377,37.237534 103.301788,33.932693 104.381088,31.114002 
	C104.730301,30.202013 109.637184,29.635925 110.352943,30.553911 
	C111.858650,32.485023 112.707489,35.571522 112.476425,38.058422 
	C112.153427,41.534740 109.429482,42.965694 105.470001,42.066658 
z"/>
<path fill="#F1F4F2" opacity="1.000000" stroke="none" 
	d="
M78.916794,32.042835 
	C81.546371,29.036377 85.020599,28.517872 86.913277,30.974497 
	C88.488586,33.019176 88.545433,36.737366 88.146065,39.554264 
	C87.984154,40.696281 84.667961,42.351780 83.079163,42.078072 
	C81.254784,41.763779 79.140533,39.862240 78.300766,38.102177 
	C77.585571,36.603199 78.499336,34.327003 78.916794,32.042835 
z"/>
<path fill="#E7ECED" opacity="1.000000" stroke="none" 
	d="
M28.017567,34.005852 
	C26.342577,33.948524 25.065544,33.891201 23.788511,33.833874 
	C23.557577,33.396973 23.326641,32.960068 23.095705,32.523163 
	C24.943308,31.423092 26.742254,29.597481 28.655031,29.469202 
	C30.008207,29.378450 31.515463,31.585112 32.953938,32.766193 
	C32.722946,33.119053 32.491959,33.471912 32.260967,33.824772 
	C30.979153,33.885132 29.697338,33.945496 28.017567,34.005852 
z"/>
</svg>