<svg version="1.1" id="Layer_1" xmlns="http://www.w3.org/2000/svg" xmlns:xlink="http://www.w3.org/1999/xlink" x="0px" y="0px"
	 width="100%" viewBox="0 0 1008 1024" enable-background="new 0 0 1008 1024" xml:space="preserve">
<path fill="#000000" opacity="1.000000" stroke="none" 
	d="
M264.999878,965.386353 
	C252.333954,965.385864 240.167297,965.309448 228.002686,965.433594 
	C224.654999,965.467712 223.365234,964.590271 223.417572,960.902771 
	C223.609009,947.411316 223.549454,933.911621 223.282257,920.421021 
	C223.192963,915.913269 225.628006,915.715332 228.966873,915.722046 
	C252.798569,915.769897 276.630432,915.736267 300.462219,915.738220 
	C344.459412,915.741821 388.456604,915.754578 432.453796,915.756958 
	C440.238403,915.757385 440.632965,915.392029 440.639008,907.576172 
	C440.672241,864.412415 440.620667,821.248352 440.788574,778.085205 
	C440.806946,773.356689 439.083344,772.042297 434.646484,772.126587 
	C423.651306,772.335693 412.646210,772.029663 401.651459,772.249329 
	C397.246857,772.337280 395.648865,770.713928 395.919464,766.406555 
	C396.169739,762.423218 395.687500,758.388916 396.011200,754.416443 
	C396.401123,749.630859 394.647522,748.061890 389.805054,748.100891 
	C364.474945,748.305176 339.142365,748.206116 313.810669,748.212585 
	C312.810730,748.212830 311.800934,748.122375 310.812561,748.229492 
	C306.451721,748.702087 304.957153,746.765381 305.019867,742.446899 
	C305.206085,729.617371 305.144012,716.782471 305.022675,703.951172 
	C304.988007,700.288269 305.975189,698.532959 310.091949,698.538635 
	C337.920197,698.577148 365.748810,698.433472 393.577026,698.292725 
	C396.961639,698.275635 398.382050,699.650574 398.259735,703.089844 
	C398.088074,707.916748 398.441376,712.767883 398.147827,717.582947 
	C397.915894,721.387024 399.492401,722.606018 403.037292,722.577942 
	C413.535217,722.494812 424.034454,722.523071 434.532806,722.580627 
	C438.904327,722.604553 440.800446,720.741150 440.715851,716.205017 
	C440.516998,705.542786 440.648071,694.874329 440.649292,684.208435 
	C440.655334,630.711853 440.628448,577.215210 440.736969,523.718811 
	C440.745239,519.642273 439.734009,516.395874 437.096100,513.256165 
	C430.344635,505.220245 423.727661,497.060852 417.351440,488.725525 
	C414.890472,485.508362 412.480621,484.998718 408.791107,486.243347 
	C399.644653,489.328949 390.357117,491.993713 381.172729,494.970886 
	C377.953674,496.014343 375.246490,495.753815 372.229645,493.996796 
	C348.042084,479.909760 323.796753,465.920410 299.470703,452.074097 
	C296.081024,450.144745 294.974823,447.814117 295.020233,444.056152 
	C295.187286,430.225952 294.861511,416.387726 295.167328,402.562408 
	C295.279633,397.484314 293.444580,395.176941 288.671844,393.704712 
	C275.153656,389.534882 261.816101,384.782593 248.328583,380.508362 
	C244.438385,379.275513 243.035843,377.257629 242.471985,373.135895 
	C239.092636,348.433167 235.365601,323.777008 231.582947,299.131622 
	C231.012421,295.414551 231.568756,292.389435 233.679825,289.269897 
	C240.682983,278.921204 247.363815,268.353577 254.420364,258.042419 
	C256.456512,255.067108 256.205994,252.849792 254.419785,249.962845 
	C246.530746,237.212372 238.866699,224.322891 231.022491,211.544327 
	C229.514252,209.087326 228.985321,206.983658 230.303543,204.135895 
	C243.808823,174.960464 257.232605,145.746841 270.525146,116.473961 
	C272.372314,112.406075 274.558136,110.591263 279.403076,110.449020 
	C294.521973,110.005119 309.614044,108.709648 324.727570,107.970802 
	C328.155029,107.803238 329.745697,106.305313 330.807220,103.272934 
	C334.935303,91.480377 339.343597,79.784462 343.351929,67.952408 
	C344.467926,64.658226 346.166626,62.625935 349.348053,61.255932 
	C371.071167,51.901451 392.750702,42.445126 414.402161,32.925732 
	C417.376312,31.618101 420.022034,31.624760 423.019989,32.855198 
	C434.113068,37.408176 445.368347,41.575485 456.379608,46.313267 
	C460.454102,48.066402 462.725403,47.073849 465.191864,43.816444 
	C471.425995,35.582977 477.988708,27.598822 484.258789,19.391773 
	C486.275604,16.751949 488.571960,15.665289 491.894257,15.677099 
	C519.058899,15.773677 546.224182,15.790993 573.388611,15.678495 
	C576.910034,15.663911 579.279358,16.881641 581.509766,19.512415 
	C588.403625,27.643759 595.597107,35.521088 602.492371,43.651279 
	C605.398926,47.078362 608.311218,48.261307 612.910950,46.889004 
	C623.584045,43.704803 634.464355,41.221706 645.199524,38.234562 
	C648.160400,37.410675 650.538940,37.556770 653.194641,39.238209 
	C675.999634,53.677311 698.851990,68.042328 721.764465,82.310226 
	C724.833496,84.221390 725.912231,86.620369 726.037109,90.104317 
	C726.460266,101.914452 727.168457,113.714073 727.686707,125.521271 
	C727.843689,129.097992 729.005005,131.034409 732.999084,131.929794 
	C745.008484,134.622009 756.855347,138.031158 768.824829,140.915039 
	C772.147766,141.715668 773.888062,143.267227 774.822144,146.589951 
	C782.932373,175.440796 791.152832,204.260956 799.453674,233.057587 
	C800.237244,235.776123 799.721436,237.805389 798.175537,240.013382 
	C789.957764,251.751007 781.944031,263.633087 773.609192,275.285980 
	C771.267700,278.559570 771.027405,281.254822 772.754883,284.882874 
	C779.054993,298.114532 785.037231,311.497314 791.177856,324.805328 
	C792.118896,326.844635 792.527039,328.664154 791.583679,330.967621 
	C780.914612,357.018097 770.333191,383.104736 759.822266,409.219482 
	C758.471130,412.576355 756.416809,414.019257 752.747009,414.320892 
	C738.499512,415.492035 724.279419,416.994324 710.045105,418.330231 
	C706.880310,418.627228 705.479797,420.267120 704.981750,423.403046 
	C702.787903,437.217438 700.303040,450.986115 698.172791,464.809753 
	C697.625793,468.359222 696.270386,470.362305 692.760986,471.612122 
	C666.252625,481.052887 639.800781,490.653046 613.365967,500.298401 
	C610.502258,501.343292 607.977295,501.270966 605.189575,500.119415 
	C596.415527,496.495026 587.523193,493.154114 578.781067,489.456696 
	C575.858154,488.220490 573.916687,488.715363 571.726807,490.883942 
	C564.033508,498.502319 556.048828,505.829529 548.447754,513.536499 
	C545.185425,516.844299 541.853821,518.462158 537.066956,518.344910 
	C524.242188,518.030884 511.404572,518.244019 498.572052,518.246765 
	C490.393799,518.248535 490.369232,518.281250 490.369232,526.722107 
	C490.369141,575.218933 490.364838,623.715698 490.362701,672.212524 
	C490.362549,675.378845 490.420837,678.546204 490.356384,681.711182 
	C490.295929,684.679688 491.714539,685.891174 494.619476,685.884277 
	C513.617981,685.839417 532.617004,685.788818 551.615051,685.885498 
	C555.492798,685.905212 555.850708,683.761169 555.834656,680.757324 
	C555.768860,668.425110 555.955872,656.089294 555.714783,643.761414 
	C555.625854,639.214417 557.082397,637.676208 561.721863,637.695618 
	C596.885620,637.842651 632.050476,637.816406 667.214478,637.680725 
	C671.579285,637.663879 673.488464,638.688416 673.375244,643.530334 
	C673.079102,656.188843 673.315125,668.859314 673.293701,681.524963 
	C673.283508,687.565857 672.887878,687.940552 666.683289,687.940857 
	C633.018799,687.942627 599.354370,687.930115 565.689880,687.910095 
	C558.137146,687.905640 558.133484,687.882751 558.128845,695.263000 
	C558.123535,703.762451 557.988525,712.264954 558.183044,720.759949 
	C558.277344,724.879700 556.726379,726.307373 552.616455,726.273682 
	C534.118896,726.122070 515.619385,726.194763 497.120575,726.208984 
	C490.407593,726.214172 490.343292,726.274231 490.342285,732.844360 
	C490.333130,791.507202 490.331512,850.170105 490.341766,908.832947 
	C490.342987,915.758484 490.382263,915.767334 497.256104,915.767273 
	C563.585205,915.767212 629.914246,915.763123 696.243347,915.762756 
	C703.988403,915.762695 703.991028,915.769775 703.998535,923.508728 
	C704.010437,935.674561 703.906982,947.842041 704.089478,960.005310 
	C704.151367,964.126526 702.665405,965.473633 698.546570,965.452393 
	C671.549011,965.313049 644.550415,965.378784 617.552124,965.389221 
	C610.347961,965.392029 610.172241,965.563110 610.159973,972.572021 
	C610.141052,983.404663 609.969849,994.241638 610.233765,1005.067810 
	C610.346375,1009.687439 608.683411,1011.209473 604.163269,1011.169617 
	C586.165894,1011.010803 568.166260,1011.119568 550.167419,1011.115417 
	C476.338837,1011.098450 402.510223,1011.082336 328.681641,1011.047913 
	C320.903381,1011.044250 320.911591,1010.989319 320.920471,1003.249939 
	C320.932861,992.417358 320.807007,981.582581 320.999725,970.753357 
	C321.072968,966.636963 319.612244,965.260254 315.479828,965.306091 
	C298.821594,965.490845 282.160156,965.384705 264.999878,965.386353 
M741.501831,234.010559 
	C742.978943,231.014908 746.429871,228.923553 745.197266,224.709778 
	C741.555420,212.259048 738.035767,199.772034 734.556458,187.274689 
	C733.759155,184.410858 732.224548,182.928253 729.213989,182.191757 
	C715.003723,178.715393 700.901062,174.790909 686.661499,171.446045 
	C681.820251,170.308838 679.846558,168.264877 679.709229,163.136002 
	C679.304016,148.009323 678.303833,132.899414 677.678772,117.777054 
	C677.556702,114.824059 676.584106,112.783775 674.031494,111.219879 
	C664.088745,105.128342 654.194031,98.957275 644.339294,92.724289 
	C641.862732,91.157860 639.506592,91.132706 636.748657,91.886604 
	C622.633240,95.745155 608.453125,99.367165 594.345947,103.254776 
	C590.888184,104.207672 588.607483,103.697266 586.149170,100.796028 
	C576.889771,89.868088 567.254150,79.259773 557.903137,68.407875 
	C555.971863,66.166595 553.944885,65.264610 551.023865,65.298615 
	C539.860718,65.428581 528.691467,65.516998 517.532288,65.270195 
	C513.421753,65.179291 510.697205,66.586464 508.246155,69.786758 
	C499.437256,81.288620 490.349182,92.576828 481.550385,104.086258 
	C479.151459,107.224213 476.940552,108.057396 473.099915,106.483925 
	C456.615936,99.730621 439.984711,93.337646 423.463470,86.673714 
	C420.605957,85.521118 418.218353,85.586891 415.408051,86.875763 
	C406.933502,90.762444 398.384369,94.503555 389.741791,97.998299 
	C386.350525,99.369598 384.399109,101.413185 383.208466,104.861168 
	C377.939148,120.120438 372.449036,135.303391 367.056458,150.520218 
	C365.967682,153.592560 364.912750,156.212799 360.720367,156.341385 
	C344.418152,156.841400 328.129578,157.807083 311.826324,158.236267 
	C307.672089,158.345642 305.526733,159.850845 303.901642,163.517410 
	C298.368713,176.000656 292.669495,188.413101 286.814331,200.748459 
	C285.479553,203.560516 285.878021,205.616333 287.404938,208.105103 
	C296.116364,222.304016 304.585724,236.652603 313.401306,250.785660 
	C315.502319,254.153961 315.341339,256.528961 313.157654,259.754608 
	C304.008026,273.270233 295.231140,287.038025 286.099457,300.566101 
	C283.681824,304.147705 282.972534,307.540253 283.785828,311.793365 
	C285.250977,319.455139 286.496582,327.197968 287.133270,334.964355 
	C287.510864,339.570770 289.419647,341.689148 293.657043,343.014343 
	C308.916748,347.786713 324.059174,352.933380 339.309875,357.735596 
	C342.850037,358.850342 344.374603,360.490753 344.392517,364.407623 
	C344.470306,381.387695 344.984222,398.365601 345.084076,415.345795 
	C345.106232,419.115906 346.160309,421.413971 349.594513,423.282501 
	C359.249878,428.536011 368.755951,434.075012 378.180756,439.734802 
	C381.170410,441.530121 383.839691,441.808075 387.121002,440.737579 
	C400.102753,436.502380 413.192902,432.597443 426.152466,428.297729 
	C429.814972,427.082581 432.116913,427.412506 434.652191,430.656342 
	C443.575958,442.074036 452.906372,453.173004 461.937500,464.508392 
	C463.887543,466.955902 465.971497,468.032806 469.121643,468.007416 
	C485.450928,467.875763 501.782562,467.832947 518.111328,467.985352 
	C522.121582,468.022797 524.948120,466.588867 527.734741,463.816162 
	C538.244019,453.359314 549.051270,443.201782 559.549194,432.733795 
	C562.234680,430.055939 564.531677,429.765839 567.933533,431.191559 
	C580.064941,436.275665 592.357483,440.974548 604.500916,446.030975 
	C608.088318,447.524719 611.331299,447.881012 615.058594,446.483551 
	C626.129150,442.332886 637.263184,438.341156 648.457764,434.538269 
	C651.893494,433.371124 653.028442,430.985718 653.535828,427.895630 
	C656.254944,411.337463 659.078003,394.794495 661.557068,378.200256 
	C662.101196,374.557648 663.422424,372.761292 667.077026,372.588989 
	C669.232361,372.487366 671.372742,372.093140 673.523438,371.864655 
	C688.746826,370.247589 703.963379,368.559143 719.201660,367.097290 
	C722.181763,366.811432 723.568970,365.428131 724.594849,362.859283 
	C728.546570,352.963867 732.573730,343.097443 736.698181,333.272858 
	C737.890137,330.433685 737.719788,327.972717 736.408203,325.176514 
	C729.265503,309.949310 722.394409,294.594025 715.173096,279.404877 
	C713.579102,276.052032 713.929443,273.611725 715.975281,270.715210 
	C724.433899,258.739777 732.727295,246.647675 741.501831,234.010559 
z"/>
<path fill="#000000" opacity="1.000000" stroke="none" 
	d="
M466.162720,328.842346 
	C454.226624,316.947327 442.586060,305.255463 430.814758,293.696838 
	C428.726562,291.646362 427.894531,289.501312 427.899261,286.639984 
	C427.937592,263.474731 427.903595,240.309219 427.815491,217.144073 
	C427.805206,214.439667 428.702484,212.387024 430.603149,210.500076 
	C443.257568,197.936752 455.882812,185.343536 468.437622,172.680786 
	C470.596466,170.503403 472.921722,169.642334 475.982452,169.648224 
	C514.980286,169.723389 553.978333,169.721573 592.976196,169.652939 
	C596.000854,169.647614 598.366821,170.348511 600.533264,172.591919 
	C613.264099,185.775055 626.098755,198.858017 638.904602,211.968704 
	C640.221252,213.316757 641.214233,214.751892 641.161255,216.778915 
	C640.648071,236.422318 640.171143,256.066681 639.665039,275.710236 
	C639.635071,276.871521 639.168701,278.078186 639.368530,279.179749 
	C641.034851,288.366272 636.352661,294.343842 629.988159,300.193176 
	C619.566406,309.771362 609.714783,319.975098 599.747253,330.038391 
	C597.465637,332.341888 595.094543,333.374420 591.829224,333.357605 
	C576.341003,333.277893 560.833435,332.946106 545.367126,333.563965 
	C523.217407,334.448761 501.068085,333.949402 478.928009,334.449921 
	C473.584564,334.570679 469.546112,333.317963 466.162720,328.842346 
M478.215057,242.588135 
	C478.211029,247.414536 478.750183,252.316772 478.089233,257.051483 
	C476.736938,266.738647 480.098206,273.828247 487.598297,279.960388 
	C491.332855,283.013794 494.664978,284.932434 499.532867,284.656891 
	C520.307922,283.480896 541.117249,284.212036 561.906860,283.752991 
	C566.361938,283.654633 572.014343,284.894836 575.021484,282.678162 
	C582.152588,277.421478 591.327698,272.758331 589.892090,261.120453 
	C589.469360,257.693573 589.571716,254.068787 590.187927,250.671539 
	C592.136536,239.928345 590.272339,230.935730 581.078430,223.742172 
	C577.443298,220.898010 574.309631,219.171661 569.630371,219.212906 
	C546.665100,219.415405 523.697083,219.304733 500.730011,219.301849 
	C488.804840,219.300354 478.218414,229.793259 478.215057,242.588135 
z"/>
</svg>