<svg version="1.1" id="Layer_1" xmlns="http://www.w3.org/2000/svg" xmlns:xlink="http://www.w3.org/1999/xlink" x="0px" y="0px"
	 width="100%" viewBox="0 0 664 261" enable-background="new 0 0 664 261" xml:space="preserve">
<path fill="#37767F" opacity="1.000000" stroke="none" 
	d="
M401.000000,262.000000 
	C267.333344,262.000000 134.166672,262.000000 1.000000,262.000000 
	C1.000000,175.000000 1.000000,88.000000 1.000000,1.000000 
	C222.333328,1.000000 443.666656,1.000000 665.000000,1.000000 
	C665.000000,88.000000 665.000000,175.000000 665.000000,262.000000 
	C577.166687,262.000000 489.333344,262.000000 401.000000,262.000000 
M286.411957,101.111046 
	C289.172638,106.975410 291.828583,112.893097 294.766754,118.667160 
	C295.513397,120.134483 297.157257,121.145264 298.388855,122.365829 
	C299.597198,121.103279 301.213715,120.039742 301.943054,118.543671 
	C305.075104,112.118767 307.841888,105.515678 310.979248,99.093521 
	C311.866425,97.277512 313.558960,95.854958 314.882141,94.251953 
	C315.495148,94.545845 316.108124,94.839729 316.721130,95.133614 
	C316.266205,102.305199 319.572906,109.961555 312.875763,116.323586 
	C310.032318,119.024757 310.746704,121.906219 314.032654,122.990219 
	C323.408661,126.083260 333.031982,126.254730 342.401733,122.950836 
	C345.961487,121.695618 346.510529,117.987076 343.497833,115.903290 
	C340.281891,113.678932 339.355957,110.726593 339.293335,107.381699 
	C339.094086,96.742455 338.847473,86.087921 339.255981,75.463791 
	C339.371613,72.457657 341.195953,69.186081 343.071808,66.655296 
	C345.989227,62.719276 345.681946,59.190506 340.936554,57.844254 
	C337.019562,56.733002 332.758301,56.626564 328.636230,56.495762 
	C322.531128,56.302036 318.326599,59.140900 315.761108,64.854027 
	C313.244934,70.457489 310.293671,75.874794 307.330933,81.262489 
	C306.523773,82.730286 305.039490,84.709114 303.769501,84.782440 
	C302.577301,84.851265 300.875641,82.930183 300.059448,81.505783 
	C296.338928,75.012917 292.947723,68.331116 289.217041,61.844414 
	C288.197723,60.072105 286.422638,57.441498 284.973419,57.427811 
	C277.759552,57.359653 270.429291,57.419228 263.361664,58.678226 
	C259.177917,59.423500 258.704956,64.528877 262.478912,66.547134 
	C266.572327,68.736244 267.675629,72.081055 267.600983,75.989716 
	C267.388153,87.131348 267.130463,98.285606 266.307495,109.391693 
	C266.124298,111.863647 263.951263,114.586823 261.980499,116.431786 
	C259.203278,119.031746 258.876648,122.013237 262.407715,123.382721 
	C269.158875,126.001045 276.153320,125.897285 282.823120,123.023842 
	C286.150146,121.590492 286.183533,118.672417 283.392120,116.364471 
	C282.268066,115.435081 280.285706,114.485374 280.242554,113.478508 
	C279.957947,106.841972 280.095612,100.187325 280.095612,93.538582 
	C280.765717,93.369553 281.435822,93.200523 282.105927,93.031494 
	C283.436768,95.490776 284.767639,97.950058 286.411957,101.111046 
M494.921570,105.617088 
	C496.836792,109.675491 498.598297,113.817436 500.737518,117.754105 
	C501.686859,119.501053 503.399170,120.833382 504.765137,122.353935 
	C506.133331,120.806335 507.912781,119.461823 508.795380,117.674446 
	C511.886749,111.414024 514.541809,104.937660 517.652100,98.687386 
	C518.497437,96.988564 520.361572,95.796700 521.758118,94.372169 
	C522.240967,94.709129 522.723755,95.046097 523.206604,95.383064 
	C522.598633,102.789734 525.860168,110.715416 518.712219,117.213028 
	C516.149780,119.542305 518.162109,122.488434 521.084290,123.319817 
	C530.052368,125.871262 539.194153,126.129784 548.114807,123.272072 
	C552.652222,121.818489 552.825623,118.801880 549.617126,115.366302 
	C548.034607,113.671776 546.280396,111.358315 546.143555,109.226089 
	C545.504700,99.270317 545.139893,89.277946 545.221130,79.303101 
	C545.260986,74.407562 545.811768,69.472504 550.141174,65.685997 
	C553.019165,63.168873 551.796265,59.077202 547.710938,57.995411 
	C543.454590,56.868362 538.886230,56.683834 534.441406,56.562950 
	C528.713562,56.407169 524.768250,59.213951 522.359863,64.535919 
	C520.030945,69.682343 517.414246,74.714561 514.634094,79.633064 
	C513.493896,81.650177 511.593567,83.237633 510.039062,85.020554 
	C508.563019,83.338036 506.766632,81.840248 505.670074,79.938866 
	C502.180115,73.887466 499.066437,67.618317 495.547913,61.584610 
	C494.528656,59.836784 492.648865,57.351997 491.143463,57.337833 
	C484.083557,57.271393 476.900238,57.317219 469.994659,58.590389 
	C465.652161,59.391010 465.287903,64.620834 469.248322,66.816277 
	C473.104248,68.953827 474.101532,72.091476 474.004456,75.923988 
	C473.722137,87.071442 473.571716,98.233528 472.782471,109.348175 
	C472.606415,111.827377 470.436401,114.575623 468.456696,116.418068 
	C465.620239,119.057907 465.219543,121.913170 468.775116,123.319855 
	C475.677338,126.050537 482.857147,125.978714 489.621429,122.828270 
	C492.569061,121.455429 493.265381,118.368065 490.005890,116.621948 
	C486.333923,114.654884 485.894409,111.790688 485.973999,108.317619 
	C486.057922,104.655205 485.944672,100.984459 486.151672,97.330605 
	C486.232056,95.911942 486.953003,94.529572 487.382172,93.130676 
	C487.893616,93.084343 488.405029,93.038010 488.916473,92.991676 
	C490.819580,96.967491 492.722717,100.943306 494.921570,105.617088 
M435.840790,77.988121 
	C431.485352,77.149460 427.050385,75.323059 422.790039,75.665916 
	C412.006348,76.533745 403.313599,85.736465 401.819214,96.639572 
	C400.304840,107.688484 406.681519,119.802734 416.369324,123.772926 
	C422.063141,126.106339 427.747742,125.925217 433.091400,122.462112 
	C434.553131,121.514786 436.069611,120.651939 437.307251,119.903732 
	C438.997650,121.907364 440.470184,124.853172 441.528076,124.711113 
	C448.208466,123.814003 454.915588,122.627266 461.360260,120.691658 
	C464.131348,119.859367 465.136749,116.420609 462.307831,114.252884 
	C459.003876,111.721130 458.803009,108.583557 458.821869,104.989143 
	C458.895294,90.995186 458.835602,77.000580 458.862335,63.006287 
	C458.867889,60.091122 458.251495,56.814617 454.865967,57.411957 
	C447.562744,58.700535 440.256226,60.439198 433.279510,62.918144 
	C429.613556,64.220711 429.929993,67.870850 433.580627,69.506172 
	C437.680450,71.342697 438.671448,73.908539 435.840790,77.988121 
M67.507271,57.588676 
	C58.854942,57.402805 50.202911,57.201286 41.550137,57.039291 
	C38.390491,56.980133 35.141079,56.571415 32.101803,57.174606 
	C30.303837,57.531445 28.208429,59.275703 27.467672,60.939606 
	C27.054590,61.867485 29.174959,63.888924 30.094526,65.452324 
	C31.525003,67.884361 34.045059,70.315292 34.112030,72.800362 
	C34.425564,84.434631 34.286560,96.098068 33.738598,107.724182 
	C33.629868,110.031067 31.041231,112.235138 29.553621,114.458138 
	C28.523787,115.997086 26.410156,117.631874 26.600828,118.963158 
	C26.851477,120.713165 28.662497,123.318634 30.196419,123.632744 
	C41.068512,125.859123 52.030418,125.810829 62.789234,122.890755 
	C64.168846,122.516312 65.693146,120.102600 65.818130,118.527824 
	C65.910744,117.360970 63.999401,115.154335 62.706650,114.919441 
	C58.419075,114.140358 57.483681,111.205299 57.203697,107.724815 
	C56.977264,104.910042 57.180061,102.063126 57.023724,99.239807 
	C56.774242,94.734329 59.612324,93.868446 62.758438,95.184898 
	C64.626846,95.966698 65.756035,98.572136 67.152618,100.407089 
	C68.345764,101.974731 69.446274,103.612892 70.587753,105.219856 
	C72.378120,103.739311 75.496117,102.437393 75.723610,100.746574 
	C76.598480,94.244019 76.939293,87.596886 76.604179,81.048454 
	C76.503250,79.076309 73.563797,77.249420 71.924637,75.355995 
	C70.318901,76.997307 67.987488,78.370667 67.261505,80.336815 
	C65.837875,84.192375 63.164963,84.275993 60.057972,83.844475 
	C56.458164,83.344505 56.905128,80.575233 57.096420,78.075699 
	C57.235756,76.255089 57.632359,74.451729 57.729412,72.630829 
	C57.932777,68.815346 60.084141,67.475922 63.645855,67.518913 
	C70.774345,67.604965 77.596146,68.080086 82.354568,74.705322 
	C83.329735,76.063072 86.440407,77.231300 87.771568,76.653862 
	C89.492615,75.907288 91.456398,73.319695 91.456543,71.524666 
	C91.456825,68.168022 90.452232,64.685646 89.248444,61.487965 
	C87.896820,57.897587 85.200394,56.178898 80.963821,56.826611 
	C76.869682,57.452560 72.664253,57.350616 67.507271,57.588676 
M125.049500,84.400192 
	C126.480713,86.136833 129.007355,87.791847 129.143921,89.624947 
	C129.610046,95.880959 129.579224,102.234360 128.950089,108.471115 
	C128.783249,110.125046 125.764412,112.697212 124.101082,112.662216 
	C122.364990,112.625671 120.078918,110.248581 119.147919,108.348564 
	C118.195480,106.404793 118.454147,103.800026 118.429306,101.481956 
	C118.354416,94.494606 118.549751,87.500198 118.281952,80.522278 
	C118.222160,78.964470 116.584412,76.087181 115.869293,76.147377 
	C108.465836,76.770599 101.016373,77.467545 93.765419,79.014503 
	C90.266052,79.761078 89.881287,83.379219 92.850891,85.304329 
	C96.460999,87.644661 97.122856,90.837067 97.196030,94.693192 
	C97.312538,100.833282 97.394028,107.006165 98.103279,113.093765 
	C98.800156,119.075226 102.299416,123.023949 108.428940,124.411186 
	C114.464043,125.777069 119.934067,124.752319 124.983978,121.161415 
	C127.170731,119.606468 129.400299,118.156273 130.324860,122.534882 
	C130.526917,123.491753 132.214066,124.970535 132.987610,124.840698 
	C139.948669,123.672310 147.010376,122.690117 153.722198,120.616440 
	C157.324814,119.503372 156.974091,116.490349 154.486877,113.496574 
	C152.966171,111.666161 151.622375,109.070648 151.542999,106.772339 
	C151.261902,98.633797 151.571121,90.475372 151.632339,82.324295 
	C151.662674,78.284615 150.402054,75.345413 145.593384,75.893967 
	C139.992905,76.532845 134.364304,77.059044 128.828568,78.074066 
	C126.108643,78.572792 123.041817,79.682014 125.049500,84.400192 
M592.263306,59.170441 
	C581.246582,55.061050 570.105591,55.374069 559.030945,58.672741 
	C557.309753,59.185413 554.840088,61.623936 554.992432,62.900249 
	C555.197266,64.616341 557.692261,66.003502 559.059937,67.651566 
	C560.509888,69.398666 562.870911,71.230194 562.968506,73.121132 
	C563.551941,84.424767 563.612061,95.755936 563.814514,107.078461 
	C563.891174,111.366051 562.662292,114.824738 558.331055,116.815498 
	C557.202209,117.334358 555.967590,119.471069 556.189148,120.584557 
	C556.433655,121.813057 558.138428,123.175697 559.496704,123.649017 
	C561.152771,124.226128 563.109558,123.978294 564.937744,124.017044 
	C577.414368,124.281487 589.896240,124.395760 602.365601,124.852112 
	C606.629456,125.008148 610.534851,125.704948 613.035522,120.882263 
	C616.025208,115.116478 618.851624,109.421303 615.518860,102.995132 
	C614.836731,101.679825 612.655273,100.509476 611.137817,100.475311 
	C610.069092,100.451256 608.744812,102.326332 607.914917,103.600990 
	C606.931458,105.111488 606.560059,107.023026 605.565063,108.523071 
	C602.819397,112.662392 596.497131,114.520737 591.185425,112.983368 
	C586.464233,111.616905 586.685913,107.581345 586.645203,104.018600 
	C586.527222,93.695015 586.450928,83.357132 586.928772,73.051292 
	C587.034424,70.772697 589.010315,67.913193 590.976562,66.545120 
	C593.919006,64.497910 594.991455,62.759407 592.263306,59.170441 
M212.602432,85.156548 
	C211.080948,87.900032 209.050644,90.484283 208.132950,93.416725 
	C205.328476,102.378265 207.230713,110.585098 213.576874,117.490067 
	C220.601486,125.133224 229.772125,126.760529 239.224701,124.299118 
	C244.265961,122.986404 248.951462,119.613380 253.193924,116.378624 
	C254.364746,115.485878 253.367722,111.749954 253.365372,109.318573 
	C251.453018,109.398705 249.499710,109.259041 247.637131,109.606194 
	C244.108414,110.263893 240.629562,111.875191 237.133972,111.863846 
	C231.879379,111.846802 228.274582,107.558609 228.382568,102.072762 
	C235.297791,102.072762 242.238571,102.084969 249.179276,102.069084 
	C255.284424,102.055115 257.917236,99.065155 256.765198,92.975403 
	C256.313538,90.587807 255.313339,88.165924 254.021729,86.097649 
	C245.479446,72.418816 225.149902,71.724731 212.602432,85.156548 
M353.817017,85.387672 
	C349.540100,90.904701 347.586823,97.112106 348.683044,104.054565 
	C350.244354,113.942421 355.653900,121.030357 365.294891,123.903221 
	C375.650238,126.988930 385.388519,125.142059 393.714508,117.888458 
	C394.770966,116.968063 395.870636,115.380806 395.853943,114.116943 
	C395.830292,112.324104 395.175812,110.199760 394.020721,108.903084 
	C393.431122,108.241180 391.106567,108.871536 389.665985,109.274551 
	C386.822296,110.070099 384.103149,111.654495 381.234100,111.946671 
	C374.521729,112.630226 369.989227,108.798546 369.705444,102.073334 
	C371.312561,102.073334 372.893158,102.073372 374.473724,102.073326 
	C380.127899,102.073174 385.792419,101.861519 391.433105,102.137192 
	C396.278412,102.374016 398.758850,99.755310 398.051361,95.650513 
	C397.299622,91.288727 395.815491,86.436607 393.046417,83.151115 
	C383.572083,71.909828 365.415497,72.969551 353.817017,85.387672 
M191.245178,95.216614 
	C188.884781,93.989403 186.232895,93.098907 184.276337,91.405190 
	C183.152756,90.432549 183.156693,88.157433 182.653046,86.468666 
	C184.423447,86.322945 186.532639,85.501846 187.888672,86.182106 
	C190.203766,87.343483 191.946533,89.588081 194.113159,91.117828 
	C196.722046,92.959816 200.277740,93.325165 201.445511,90.358482 
	C202.416107,87.892715 201.743790,84.017509 200.354843,81.594681 
	C198.890335,79.040085 195.978271,76.404762 193.221741,75.717491 
	C189.210526,74.717384 184.759323,75.635933 180.519089,75.367447 
	C172.430161,74.855286 164.809174,79.175514 162.399887,85.929253 
	C159.839813,93.105797 162.335358,99.828178 169.594101,104.867371 
	C171.771912,106.379250 174.435333,107.272255 176.389191,108.999718 
	C177.855118,110.295792 179.849030,113.191666 179.335175,114.127876 
	C177.631882,117.231148 174.795578,116.081673 172.603302,114.215240 
	C170.327896,112.278053 168.556381,109.612801 166.052170,108.132935 
	C164.607681,107.279335 161.086853,107.356483 160.338303,108.370842 
	C157.607803,112.070969 162.696274,123.705353 167.232910,124.136169 
	C174.158142,124.793816 181.176682,125.220047 188.108170,124.851837 
	C195.196823,124.475266 201.067291,119.068253 202.466782,112.860420 
	C204.084747,105.683319 200.238892,101.170753 194.806641,97.482941 
	C193.844513,96.829773 192.837570,96.242599 191.245178,95.216614 
M380.059692,186.459274 
	C381.911285,187.467224 384.247223,188.067108 385.512543,189.569000 
	C388.063446,192.596741 390.053497,196.101059 392.235138,199.434814 
	C394.921448,203.539673 395.198700,203.650436 400.957794,202.087509 
	C397.108307,196.626419 393.351532,191.296814 389.504974,185.839890 
	C390.708160,185.274109 392.101898,184.755188 393.356354,184.003769 
	C397.458496,181.546616 398.597839,177.705902 397.887421,173.261826 
	C397.182434,168.851730 394.438110,165.636475 390.089264,165.342850 
	C382.728790,164.845886 375.310425,165.206360 367.785980,165.206360 
	C367.785980,177.985077 367.785980,190.261520 367.785980,202.684052 
	C369.530426,202.684052 371.072723,202.684052 373.153656,202.684052 
	C373.153656,197.146561 373.153656,191.920776 373.153656,186.419846 
	C375.519379,186.419846 377.338318,186.419846 380.059692,186.459274 
M48.823593,165.978561 
	C39.382450,170.341232 35.709251,178.428314 38.116840,189.551010 
	C39.953491,198.036041 45.748486,202.871902 54.259384,203.021729 
	C63.567360,203.185593 68.784027,199.319366 70.987534,190.314575 
	C69.520065,189.851532 68.031937,189.381973 66.405693,188.868820 
	C65.706100,190.459061 65.229355,191.686920 64.639313,192.857697 
	C62.623775,196.856995 59.213646,198.627396 54.878223,198.510513 
	C50.228825,198.385147 46.430275,196.593231 44.544594,192.030502 
	C42.351341,186.723541 42.283604,181.317245 44.472305,176.007156 
	C46.246376,171.703018 49.820141,169.748672 54.298729,169.529068 
	C58.493496,169.323410 62.126343,170.315186 64.339195,174.506042 
	C66.017197,177.684006 66.217987,177.577988 70.270874,175.158035 
	C66.855156,166.298065 60.240356,163.285141 48.823593,165.978561 
M602.822754,199.149750 
	C602.822754,187.876480 602.822754,176.603210 602.822754,165.210236 
	C600.845154,165.210236 599.405273,165.210236 597.434082,165.210236 
	C597.434082,169.180450 597.434082,172.926987 597.434082,176.855255 
	C586.209534,172.735275 579.541321,176.654312 578.282654,187.603104 
	C577.168823,197.291977 585.091980,205.126785 593.628906,202.765701 
	C595.482910,202.252930 596.952576,200.308945 599.279724,202.797974 
	C600.443665,204.042862 603.199829,203.106415 602.822754,199.149750 
M435.667999,197.651306 
	C438.180969,199.411896 440.526489,202.273560 443.244354,202.686859 
	C447.851044,203.387421 452.692749,202.542511 457.466492,202.345978 
	C457.466492,190.033783 457.466492,177.644714 457.466492,164.945892 
	C455.679108,165.070709 454.271667,165.168976 452.287018,165.307571 
	C452.287018,169.308533 452.287018,173.001984 452.287018,176.894760 
	C441.430115,172.531448 434.101105,176.850647 433.379700,187.862625 
	C433.183350,190.860062 434.582062,193.961975 435.667999,197.651306 
M241.147797,176.273865 
	C239.299515,178.364380 237.451233,180.454880 235.602951,182.545380 
	C236.052841,183.131546 236.502731,183.717712 236.952606,184.303879 
	C238.574585,183.520004 240.629974,183.120483 241.733093,181.876495 
	C244.481964,178.776642 247.677353,178.363113 251.131210,179.763550 
	C252.376343,180.268387 253.139099,181.962936 254.121979,183.114578 
	C252.976990,184.038315 251.959686,185.442520 250.660934,185.787689 
	C247.789795,186.550751 244.722488,186.561722 241.834900,187.280151 
	C237.534485,188.350098 234.768219,192.244812 235.214951,196.062393 
	C235.679749,200.034607 239.020523,203.132462 243.623047,202.907455 
	C247.305954,202.727386 250.940674,201.561569 253.937759,200.964523 
	C255.969528,201.833038 257.837982,202.631714 259.420502,203.308182 
	C259.420502,196.267120 259.436707,190.001511 259.415283,183.736053 
	C259.398743,178.893890 257.109161,175.602386 252.216919,175.200150 
	C248.820435,174.920898 245.338150,175.685013 241.147797,176.273865 
M178.976593,200.659378 
	C184.398209,195.080765 185.897415,186.721024 181.833160,180.635757 
	C180.236954,178.245789 177.284592,176.002060 174.550552,175.339615 
	C171.667236,174.640976 168.307388,175.909027 164.747681,176.370804 
	C164.747681,172.800583 164.747681,169.030914 164.747681,164.924438 
	C162.911789,165.085327 161.535980,165.205917 160.160782,165.326431 
	C160.160782,178.035034 160.160782,190.324036 160.160782,203.010986 
	C162.646469,202.552490 165.208801,201.233322 167.004745,201.919617 
	C171.117096,203.491180 174.712265,203.452988 178.976593,200.659378 
M137.298355,175.289169 
	C133.423187,176.655594 130.047928,178.451080 130.130722,184.911026 
	C132.465408,183.483795 133.888321,182.305222 135.523071,181.684982 
	C138.154282,180.686676 140.963165,179.368820 143.623825,179.515320 
	C145.373703,179.611633 146.994965,182.044250 148.673813,183.430679 
	C148.429840,183.952408 148.185867,184.474136 147.941879,184.995865 
	C143.903671,185.697311 139.836609,186.265869 135.834717,187.134583 
	C131.069199,188.169037 128.651871,191.473389 128.984039,196.048828 
	C129.282028,200.153442 132.382950,203.117065 137.177231,202.903488 
	C140.814529,202.741470 144.406723,201.567337 147.059372,201.035843 
	C149.572754,201.933716 151.509537,202.625626 152.942627,203.137573 
	C152.942627,196.243256 153.004944,190.145569 152.925018,184.049759 
	C152.845947,178.018326 150.138687,175.269501 144.107452,175.009720 
	C142.120377,174.924118 140.122971,175.078308 137.298355,175.289169 
M558.265747,202.753845 
	C568.300232,203.590149 572.279236,201.546692 574.061707,193.627426 
	C571.929688,194.339890 569.784973,194.413544 568.766785,195.521988 
	C566.116089,198.407608 563.362366,199.814087 559.534180,198.289886 
	C555.850647,196.823257 554.442139,193.993500 554.377686,189.834091 
	C561.230469,189.834091 567.845947,189.834091 574.427368,189.834091 
	C574.924133,181.298965 570.604370,175.531677 563.609680,175.005020 
	C556.312927,174.455612 551.230957,177.955917 549.442505,184.762894 
	C547.409790,192.500046 550.411316,199.110565 558.265747,202.753845 
M472.744354,198.027618 
	C470.981293,195.687210 469.218231,193.346817 467.455170,191.006409 
	C467.796326,190.581238 468.137482,190.156067 468.478638,189.730896 
	C475.201843,189.730896 481.925049,189.730896 488.626251,189.730896 
	C488.476532,180.341873 484.203430,175.213882 476.763458,174.982101 
	C469.102722,174.743469 463.686157,179.529343 463.078796,187.073288 
	C462.388519,195.647705 466.388733,201.895859 473.295319,202.896881 
	C480.010498,203.870178 487.421356,201.580795 487.854340,193.516861 
	C485.708191,194.441467 483.668060,194.780777 482.435638,195.962448 
	C479.774109,198.514435 477.067993,199.790024 472.744354,198.027618 
M428.086700,194.224228 
	C426.624237,194.609711 424.631531,194.525894 423.797729,195.467834 
	C421.198242,198.404587 418.427612,199.807724 414.586029,198.311462 
	C410.869934,196.864044 409.456757,194.009476 409.354156,189.852356 
	C416.182159,189.852356 422.800110,189.852356 429.383301,189.852356 
	C429.996155,181.410706 425.648041,175.552292 418.651062,175.007263 
	C412.311707,174.513458 407.463348,177.175705 405.245758,182.368240 
	C402.658264,188.426910 403.911804,196.210739 408.199707,199.981262 
	C412.374786,203.652588 417.328918,203.806183 422.280792,202.322510 
	C425.898468,201.238586 428.735138,198.982330 428.086700,194.224228 
M297.422760,176.637009 
	C291.138885,181.575333 289.318451,190.337921 293.160583,197.152725 
	C295.997803,202.185135 302.933380,204.503662 308.933746,202.425644 
	C316.341644,199.860199 319.631134,191.306046 316.479370,182.803879 
	C313.887146,175.811203 306.527832,173.183105 297.422760,176.637009 
M79.447937,200.150909 
	C84.323952,203.900177 89.614418,204.141907 94.890862,201.409378 
	C100.876320,198.309708 101.349442,192.619003 101.004349,186.730286 
	C100.645966,180.614761 96.384323,175.811752 90.660759,175.057739 
	C83.227127,174.078476 77.823326,177.214203 75.880646,183.780060 
	C74.173210,189.550873 74.753204,194.956482 79.447937,200.150909 
M211.487930,197.789322 
	C212.259216,194.434830 213.659225,191.081451 213.665085,187.725616 
	C213.675842,181.575775 210.229431,177.215210 205.104126,175.506195 
	C199.916931,173.776535 193.633331,175.408615 190.500900,179.299194 
	C186.137604,184.718536 186.787827,195.642822 191.734802,200.030075 
	C197.005981,204.704880 205.288376,203.995941 211.487930,197.789322 
M340.182220,187.721725 
	C340.182220,192.667282 340.182220,197.612839 340.182220,202.667480 
	C342.065125,202.667480 343.418579,202.667480 344.698120,202.667480 
	C344.846100,202.009338 344.977966,201.693085 344.979340,201.376266 
	C345.003693,195.727676 344.707214,190.057922 345.096069,184.435333 
	C345.672058,176.106796 337.835938,173.317841 331.261139,175.745621 
	C329.900909,176.247910 328.681000,177.130188 327.396423,177.837341 
	C327.521362,177.409012 327.646301,176.980682 327.771240,176.552353 
	C326.264099,175.913834 324.756958,175.275330 322.875336,174.478165 
	C322.875336,184.564926 322.875336,193.629227 322.875336,202.997604 
	C324.604736,202.909988 326.016418,202.838470 327.819763,202.747116 
	C327.819763,197.311279 327.767792,192.184570 327.834290,187.059372 
	C327.901306,181.897202 330.398407,178.869064 334.620087,179.087753 
	C339.477448,179.339386 340.409210,182.713211 340.182220,187.721725 
M520.987488,184.548996 
	C520.987488,190.654312 520.987488,196.759613 520.987488,203.197708 
	C523.042542,202.928711 524.425232,202.747726 525.933228,202.550323 
	C525.933228,196.972824 525.856628,191.820190 525.955994,186.670959 
	C526.045593,182.026138 528.759949,179.002136 532.765564,179.064148 
	C537.414673,179.136154 538.478333,182.372559 538.539490,186.178207 
	C538.627319,191.645737 538.561890,197.115753 538.561890,202.961441 
	C540.388733,202.873642 541.772827,202.807114 543.381409,202.729797 
	C543.381409,196.015533 543.569702,189.693390 543.324768,183.388046 
	C543.110352,177.869614 539.855042,174.884186 534.250854,175.079254 
	C531.552185,175.173187 528.886414,176.211151 526.785095,176.689697 
	C524.914917,175.989365 523.239868,175.362137 520.987488,174.518707 
	C520.987488,178.271896 520.987488,180.920120 520.987488,184.548996 
M500.434753,197.237976 
	C500.434753,191.310211 500.434753,185.382431 500.434753,179.580353 
	C505.439331,178.623138 505.439331,178.623138 505.199402,175.346649 
	C503.666077,175.040665 502.132751,174.734665 500.599426,174.428680 
	C500.321930,173.928513 500.044464,173.428345 499.766998,172.928177 
	C501.231628,171.774582 502.674408,170.591751 504.167603,169.476379 
	C505.427246,168.535461 506.745361,167.672806 509.057251,166.067474 
	C499.151886,163.874802 496.943512,165.202454 495.120148,172.600784 
	C494.893097,173.522064 493.671906,174.191788 492.929230,174.994583 
	C492.349182,175.621582 491.505402,176.205414 491.332306,176.939056 
	C491.212372,177.447311 492.022736,178.715820 492.436310,178.724304 
	C495.962952,178.796570 495.144531,181.347916 495.158722,183.335480 
	C495.204681,189.775009 495.175903,196.215057 495.175903,202.804626 
	C497.149231,202.804626 498.591248,202.804626 500.434479,202.804626 
	C500.434479,201.117584 500.434479,199.642792 500.434753,197.237976 
M277.054291,200.850952 
	C268.343231,195.308716 273.352783,186.732895 271.841766,179.215317 
	C272.891174,179.087891 273.623810,179.207352 274.067993,178.904190 
	C275.203552,178.129181 276.210663,177.165939 278.095123,175.585052 
	C274.925232,175.053574 273.534454,174.820389 271.819244,174.532806 
	C271.819244,171.707520 271.819244,169.161530 271.819244,166.615524 
	C271.292206,166.397369 270.765137,166.179230 270.238098,165.961075 
	C268.163879,169.628845 266.068848,173.285278 264.052277,176.984482 
	C263.877838,177.304474 264.127502,178.269882 264.339111,178.324997 
	C268.735016,179.469711 266.807648,183.027603 267.000702,185.597290 
	C267.298187,189.557343 266.897491,193.573807 267.255920,197.524353 
	C267.731354,202.764435 272.271057,204.571716 277.054291,200.850952 
M123.013557,166.862366 
	C121.698006,166.099106 120.382454,165.335846 118.508728,164.248749 
	C118.508728,178.012741 118.508728,190.374588 118.508728,202.787476 
	C120.101624,202.787476 121.361275,202.787476 123.026657,202.787476 
	C123.026657,190.977905 123.026657,179.389755 123.013557,166.862366 
M223.949066,195.440430 
	C224.220108,191.332520 224.008209,187.103638 224.992416,183.174362 
	C225.404327,181.529907 228.294495,180.424850 230.171570,179.257294 
	C231.428787,178.475296 232.886032,178.014893 234.253769,177.410599 
	C234.020050,176.894058 233.786331,176.377518 233.552612,175.860977 
	C228.850769,175.860977 224.148941,175.860977 219.309784,175.860977 
	C219.309784,184.517227 219.309784,193.566910 219.309784,202.983307 
	C220.954224,202.881470 222.313843,202.797272 223.949051,202.696014 
	C223.949051,200.333847 223.949051,198.365662 223.949066,195.440430 
M106.610176,191.484787 
	C106.611389,194.139725 106.734879,196.801590 106.584480,199.447922 
	C106.371544,203.194626 108.112732,203.617554 111.381157,202.368988 
	C111.381157,190.911636 111.336021,179.481461 111.406227,168.051987 
	C111.430031,164.175400 109.333412,164.774658 106.610153,165.560013 
	C106.610153,173.935791 106.610153,182.213303 106.610176,191.484787 
M514.012451,198.307587 
	C514.012451,190.688293 514.012451,183.069000 514.012451,175.286041 
	C512.216980,175.286041 510.843506,175.286041 509.387634,175.286041 
	C509.387634,184.634232 509.387634,193.694611 509.387634,202.662064 
	C512.787720,203.617691 514.570374,202.881866 514.012451,198.307587 
M281.070831,178.773422 
	C281.070831,186.717865 281.070831,194.662308 281.070831,202.687851 
	C282.977203,202.687851 284.349701,202.687851 285.698334,202.687851 
	C285.698334,193.298187 285.698334,184.224518 285.698334,175.150848 
	C285.258484,174.842682 284.818634,174.534515 284.378784,174.226349 
	C283.277100,175.429443 282.175415,176.632523 281.070831,178.773422 
M509.096680,166.633240 
	C509.641724,167.750580 509.935791,169.195358 510.818604,169.872040 
	C511.423645,170.335815 512.847839,169.730927 514.116882,169.578400 
	C513.947815,167.865906 513.811462,166.484909 513.634033,164.687866 
	C511.892242,165.116669 510.553619,165.446213 509.096680,166.633240 
M285.992828,166.622665 
	C284.590485,165.945755 283.188110,165.268860 281.042969,164.233414 
	C281.187256,166.973526 281.259155,168.338699 281.331024,169.703873 
	C281.731049,170.027786 282.131073,170.351700 282.531097,170.675598 
	C283.689575,169.617065 284.848053,168.558533 285.992828,166.622665 
z"/>
<path fill="#FCFDFD" opacity="1.000000" stroke="none" 
	d="
M286.255219,100.760193 
	C284.767639,97.950058 283.436768,95.490776 282.105927,93.031494 
	C281.435822,93.200523 280.765717,93.369553 280.095612,93.538582 
	C280.095612,100.187325 279.957947,106.841972 280.242554,113.478508 
	C280.285706,114.485374 282.268066,115.435081 283.392120,116.364471 
	C286.183533,118.672417 286.150146,121.590492 282.823120,123.023842 
	C276.153320,125.897285 269.158875,126.001045 262.407715,123.382721 
	C258.876648,122.013237 259.203278,119.031746 261.980499,116.431786 
	C263.951263,114.586823 266.124298,111.863647 266.307495,109.391693 
	C267.130463,98.285606 267.388153,87.131348 267.600983,75.989716 
	C267.675629,72.081055 266.572327,68.736244 262.478912,66.547134 
	C258.704956,64.528877 259.177917,59.423500 263.361664,58.678226 
	C270.429291,57.419228 277.759552,57.359653 284.973419,57.427811 
	C286.422638,57.441498 288.197723,60.072105 289.217041,61.844414 
	C292.947723,68.331116 296.338928,75.012917 300.059448,81.505783 
	C300.875641,82.930183 302.577301,84.851265 303.769501,84.782440 
	C305.039490,84.709114 306.523773,82.730286 307.330933,81.262489 
	C310.293671,75.874794 313.244934,70.457489 315.761108,64.854027 
	C318.326599,59.140900 322.531128,56.302036 328.636230,56.495762 
	C332.758301,56.626564 337.019562,56.733002 340.936554,57.844254 
	C345.681946,59.190506 345.989227,62.719276 343.071808,66.655296 
	C341.195953,69.186081 339.371613,72.457657 339.255981,75.463791 
	C338.847473,86.087921 339.094086,96.742455 339.293335,107.381699 
	C339.355957,110.726593 340.281891,113.678932 343.497833,115.903290 
	C346.510529,117.987076 345.961487,121.695618 342.401733,122.950836 
	C333.031982,126.254730 323.408661,126.083260 314.032654,122.990219 
	C310.746704,121.906219 310.032318,119.024757 312.875763,116.323586 
	C319.572906,109.961555 316.266205,102.305199 316.721130,95.133614 
	C316.108124,94.839729 315.495148,94.545845 314.882141,94.251953 
	C313.558960,95.854958 311.866425,97.277512 310.979248,99.093521 
	C307.841888,105.515678 305.075104,112.118767 301.943054,118.543671 
	C301.213715,120.039742 299.597198,121.103279 298.388855,122.365829 
	C297.157257,121.145264 295.513397,120.134483 294.766754,118.667160 
	C291.828583,112.893097 289.172638,106.975410 286.255219,100.760193 
z"/>
<path fill="#FCFDFD" opacity="1.000000" stroke="none" 
	d="
M494.773682,105.268097 
	C492.722717,100.943306 490.819580,96.967491 488.916473,92.991676 
	C488.405029,93.038010 487.893616,93.084343 487.382172,93.130676 
	C486.953003,94.529572 486.232056,95.911942 486.151672,97.330605 
	C485.944672,100.984459 486.057922,104.655205 485.973999,108.317619 
	C485.894409,111.790688 486.333923,114.654884 490.005890,116.621948 
	C493.265381,118.368065 492.569061,121.455429 489.621429,122.828270 
	C482.857147,125.978714 475.677338,126.050537 468.775116,123.319855 
	C465.219543,121.913170 465.620239,119.057907 468.456696,116.418068 
	C470.436401,114.575623 472.606415,111.827377 472.782471,109.348175 
	C473.571716,98.233528 473.722137,87.071442 474.004456,75.923988 
	C474.101532,72.091476 473.104248,68.953827 469.248322,66.816277 
	C465.287903,64.620834 465.652161,59.391010 469.994659,58.590389 
	C476.900238,57.317219 484.083557,57.271393 491.143463,57.337833 
	C492.648865,57.351997 494.528656,59.836784 495.547913,61.584610 
	C499.066437,67.618317 502.180115,73.887466 505.670074,79.938866 
	C506.766632,81.840248 508.563019,83.338036 510.039062,85.020546 
	C511.593567,83.237633 513.493896,81.650177 514.634094,79.633064 
	C517.414246,74.714561 520.030945,69.682343 522.359863,64.535919 
	C524.768250,59.213951 528.713562,56.407169 534.441406,56.562950 
	C538.886230,56.683834 543.454590,56.868362 547.710938,57.995411 
	C551.796265,59.077202 553.019165,63.168873 550.141174,65.685997 
	C545.811768,69.472504 545.260986,74.407562 545.221130,79.303101 
	C545.139893,89.277946 545.504700,99.270317 546.143555,109.226089 
	C546.280396,111.358315 548.034607,113.671776 549.617126,115.366302 
	C552.825623,118.801880 552.652222,121.818489 548.114807,123.272072 
	C539.194153,126.129784 530.052368,125.871262 521.084290,123.319817 
	C518.162109,122.488434 516.149780,119.542305 518.712219,117.213028 
	C525.860168,110.715416 522.598633,102.789734 523.206604,95.383064 
	C522.723755,95.046097 522.240967,94.709129 521.758118,94.372169 
	C520.361572,95.796700 518.497437,96.988564 517.652100,98.687386 
	C514.541809,104.937660 511.886749,111.414024 508.795380,117.674446 
	C507.912781,119.461823 506.133331,120.806335 504.765137,122.353928 
	C503.399170,120.833382 501.686859,119.501053 500.737518,117.754105 
	C498.598297,113.817436 496.836792,109.675491 494.773682,105.268097 
z"/>
<path fill="#FBFCFD" opacity="1.000000" stroke="none" 
	d="
M436.258728,77.897064 
	C438.671448,73.908539 437.680450,71.342697 433.580627,69.506172 
	C429.929993,67.870850 429.613556,64.220711 433.279510,62.918144 
	C440.256226,60.439198 447.562744,58.700535 454.865967,57.411957 
	C458.251495,56.814617 458.867889,60.091122 458.862335,63.006287 
	C458.835602,77.000580 458.895294,90.995186 458.821869,104.989143 
	C458.803009,108.583557 459.003876,111.721130 462.307831,114.252884 
	C465.136749,116.420609 464.131348,119.859367 461.360260,120.691658 
	C454.915588,122.627266 448.208466,123.814003 441.528076,124.711113 
	C440.470184,124.853172 438.997650,121.907364 437.307251,119.903732 
	C436.069611,120.651939 434.553131,121.514786 433.091400,122.462112 
	C427.747742,125.925217 422.063141,126.106339 416.369324,123.772926 
	C406.681519,119.802734 400.304840,107.688484 401.819214,96.639572 
	C403.313599,85.736465 412.006348,76.533745 422.790039,75.665916 
	C427.050385,75.323059 431.485352,77.149460 436.258728,77.897064 
M433.126556,113.089584 
	C434.328796,111.595245 436.430634,110.181343 436.572754,108.592194 
	C437.099609,102.700661 437.307159,96.728706 436.898560,90.838020 
	C436.781067,89.143578 434.208557,86.359772 432.723389,86.334663 
	C430.813263,86.302376 428.004303,88.105507 427.089752,89.890327 
	C424.021515,95.878250 423.971649,102.348061 426.048950,108.739693 
	C426.997955,111.659706 428.884949,113.614716 433.126556,113.089584 
z"/>
<path fill="#FBFCFD" opacity="1.000000" stroke="none" 
	d="
M68.007492,57.578545 
	C72.664253,57.350616 76.869682,57.452560 80.963821,56.826611 
	C85.200394,56.178898 87.896820,57.897587 89.248444,61.487965 
	C90.452232,64.685646 91.456825,68.168022 91.456543,71.524666 
	C91.456398,73.319695 89.492615,75.907288 87.771568,76.653862 
	C86.440407,77.231300 83.329735,76.063072 82.354568,74.705322 
	C77.596146,68.080086 70.774345,67.604965 63.645855,67.518913 
	C60.084141,67.475922 57.932777,68.815346 57.729412,72.630829 
	C57.632359,74.451729 57.235756,76.255089 57.096420,78.075699 
	C56.905128,80.575233 56.458164,83.344505 60.057972,83.844475 
	C63.164963,84.275993 65.837875,84.192375 67.261505,80.336815 
	C67.987488,78.370667 70.318901,76.997307 71.924637,75.355995 
	C73.563797,77.249420 76.503250,79.076309 76.604179,81.048454 
	C76.939293,87.596886 76.598480,94.244019 75.723610,100.746574 
	C75.496117,102.437393 72.378120,103.739311 70.587753,105.219856 
	C69.446274,103.612892 68.345764,101.974731 67.152618,100.407089 
	C65.756035,98.572136 64.626846,95.966698 62.758438,95.184898 
	C59.612324,93.868446 56.774242,94.734329 57.023724,99.239807 
	C57.180061,102.063126 56.977264,104.910042 57.203697,107.724815 
	C57.483681,111.205299 58.419075,114.140358 62.706650,114.919441 
	C63.999401,115.154335 65.910744,117.360970 65.818130,118.527824 
	C65.693146,120.102600 64.168846,122.516312 62.789234,122.890755 
	C52.030418,125.810829 41.068512,125.859123 30.196419,123.632744 
	C28.662497,123.318634 26.851477,120.713165 26.600828,118.963158 
	C26.410156,117.631874 28.523787,115.997086 29.553621,114.458138 
	C31.041231,112.235138 33.629868,110.031067 33.738598,107.724182 
	C34.286560,96.098068 34.425564,84.434631 34.112030,72.800362 
	C34.045059,70.315292 31.525003,67.884361 30.094526,65.452324 
	C29.174959,63.888924 27.054590,61.867485 27.467672,60.939606 
	C28.208429,59.275703 30.303837,57.531445 32.101803,57.174606 
	C35.141079,56.571415 38.390491,56.980133 41.550137,57.039291 
	C50.202911,57.201286 58.854942,57.402805 68.007492,57.578545 
z"/>
<path fill="#FCFDFD" opacity="1.000000" stroke="none" 
	d="
M124.839638,84.082909 
	C123.041817,79.682014 126.108643,78.572792 128.828568,78.074066 
	C134.364304,77.059044 139.992905,76.532845 145.593384,75.893967 
	C150.402054,75.345413 151.662674,78.284615 151.632339,82.324295 
	C151.571121,90.475372 151.261902,98.633797 151.542999,106.772339 
	C151.622375,109.070648 152.966171,111.666161 154.486877,113.496574 
	C156.974091,116.490349 157.324814,119.503372 153.722198,120.616440 
	C147.010376,122.690117 139.948669,123.672310 132.987610,124.840698 
	C132.214066,124.970535 130.526917,123.491753 130.324860,122.534882 
	C129.400299,118.156273 127.170731,119.606468 124.983978,121.161415 
	C119.934067,124.752319 114.464043,125.777069 108.428940,124.411186 
	C102.299416,123.023949 98.800156,119.075226 98.103279,113.093765 
	C97.394028,107.006165 97.312538,100.833282 97.196030,94.693192 
	C97.122856,90.837067 96.460999,87.644661 92.850891,85.304329 
	C89.881287,83.379219 90.266052,79.761078 93.765419,79.014503 
	C101.016373,77.467545 108.465836,76.770599 115.869293,76.147377 
	C116.584412,76.087181 118.222160,78.964470 118.281952,80.522278 
	C118.549751,87.500198 118.354416,94.494606 118.429306,101.481956 
	C118.454147,103.800026 118.195480,106.404793 119.147919,108.348564 
	C120.078918,110.248581 122.364990,112.625671 124.101082,112.662216 
	C125.764412,112.697212 128.783249,110.125046 128.950089,108.471115 
	C129.579224,102.234360 129.610046,95.880959 129.143921,89.624947 
	C129.007355,87.791847 126.480713,86.136833 124.839638,84.082909 
z"/>
<path fill="#FCFDFD" opacity="1.000000" stroke="none" 
	d="
M592.550476,59.436043 
	C594.991455,62.759407 593.919006,64.497910 590.976562,66.545120 
	C589.010315,67.913193 587.034424,70.772697 586.928772,73.051292 
	C586.450928,83.357132 586.527222,93.695015 586.645203,104.018600 
	C586.685913,107.581345 586.464233,111.616905 591.185425,112.983368 
	C596.497131,114.520737 602.819397,112.662392 605.565063,108.523071 
	C606.560059,107.023026 606.931458,105.111488 607.914917,103.600990 
	C608.744812,102.326332 610.069092,100.451256 611.137817,100.475311 
	C612.655273,100.509476 614.836731,101.679825 615.518860,102.995132 
	C618.851624,109.421303 616.025208,115.116478 613.035522,120.882263 
	C610.534851,125.704948 606.629456,125.008148 602.365601,124.852112 
	C589.896240,124.395760 577.414368,124.281487 564.937744,124.017044 
	C563.109558,123.978294 561.152771,124.226128 559.496704,123.649017 
	C558.138428,123.175697 556.433655,121.813057 556.189148,120.584557 
	C555.967590,119.471069 557.202209,117.334358 558.331055,116.815498 
	C562.662292,114.824738 563.891174,111.366051 563.814514,107.078461 
	C563.612061,95.755936 563.551941,84.424767 562.968506,73.121132 
	C562.870911,71.230194 560.509888,69.398666 559.059937,67.651566 
	C557.692261,66.003502 555.197266,64.616341 554.992432,62.900249 
	C554.840088,61.623936 557.309753,59.185413 559.030945,58.672741 
	C570.105591,55.374069 581.246582,55.061050 592.550476,59.436043 
z"/>
<path fill="#FCFDFD" opacity="1.000000" stroke="none" 
	d="
M212.834061,84.879112 
	C225.149902,71.724731 245.479446,72.418816 254.021729,86.097649 
	C255.313339,88.165924 256.313538,90.587807 256.765198,92.975403 
	C257.917236,99.065155 255.284424,102.055115 249.179276,102.069084 
	C242.238571,102.084969 235.297791,102.072762 228.382568,102.072762 
	C228.274582,107.558609 231.879379,111.846802 237.133972,111.863846 
	C240.629562,111.875191 244.108414,110.263893 247.637131,109.606194 
	C249.499710,109.259041 251.453018,109.398705 253.365372,109.318573 
	C253.367722,111.749954 254.364746,115.485878 253.193924,116.378624 
	C248.951462,119.613380 244.265961,122.986404 239.224701,124.299118 
	C229.772125,126.760529 220.601486,125.133224 213.576874,117.490067 
	C207.230713,110.585098 205.328476,102.378265 208.132950,93.416725 
	C209.050644,90.484283 211.080948,87.900032 212.834061,84.879112 
M228.024643,91.985802 
	C230.060425,92.329681 232.109802,92.993607 234.127304,92.907799 
	C235.531662,92.848076 237.968918,91.877556 238.053818,91.105881 
	C238.245270,89.365623 237.781891,86.955704 236.611526,85.832970 
	C235.463776,84.731956 232.224335,83.955162 231.465332,84.677597 
	C229.688431,86.368927 228.847153,89.043205 228.024643,91.985802 
z"/>
<path fill="#FCFDFD" opacity="1.000000" stroke="none" 
	d="
M354.042786,85.105980 
	C365.415497,72.969551 383.572083,71.909828 393.046417,83.151115 
	C395.815491,86.436607 397.299622,91.288727 398.051361,95.650513 
	C398.758850,99.755310 396.278412,102.374016 391.433105,102.137192 
	C385.792419,101.861519 380.127899,102.073174 374.473724,102.073326 
	C372.893158,102.073372 371.312561,102.073334 369.705444,102.073334 
	C369.989227,108.798546 374.521729,112.630226 381.234100,111.946671 
	C384.103149,111.654495 386.822296,110.070099 389.665985,109.274551 
	C391.106567,108.871536 393.431122,108.241180 394.020721,108.903084 
	C395.175812,110.199760 395.830292,112.324104 395.853943,114.116943 
	C395.870636,115.380806 394.770966,116.968063 393.714508,117.888458 
	C385.388519,125.142059 375.650238,126.988930 365.294891,123.903221 
	C355.653900,121.030357 350.244354,113.942421 348.683044,104.054565 
	C347.586823,97.112106 349.540100,90.904701 354.042786,85.105980 
M379.734589,88.090927 
	C378.334412,84.997551 375.890747,82.882538 372.775146,84.741394 
	C370.935425,85.839058 370.229584,88.837257 369.013824,90.980766 
	C370.983582,91.659805 372.909180,92.665634 374.933716,92.938957 
	C377.755920,93.319977 380.444397,92.904045 379.734589,88.090927 
z"/>
<path fill="#FBFCFD" opacity="1.000000" stroke="none" 
	d="
M191.548248,95.420784 
	C192.837570,96.242599 193.844513,96.829773 194.806641,97.482941 
	C200.238892,101.170753 204.084747,105.683319 202.466782,112.860420 
	C201.067291,119.068253 195.196823,124.475266 188.108170,124.851837 
	C181.176682,125.220047 174.158142,124.793816 167.232910,124.136169 
	C162.696274,123.705353 157.607803,112.070969 160.338303,108.370842 
	C161.086853,107.356483 164.607681,107.279335 166.052170,108.132935 
	C168.556381,109.612801 170.327896,112.278053 172.603302,114.215240 
	C174.795578,116.081673 177.631882,117.231148 179.335175,114.127876 
	C179.849030,113.191666 177.855118,110.295792 176.389191,108.999718 
	C174.435333,107.272255 171.771912,106.379250 169.594101,104.867371 
	C162.335358,99.828178 159.839813,93.105797 162.399887,85.929253 
	C164.809174,79.175514 172.430161,74.855286 180.519089,75.367447 
	C184.759323,75.635933 189.210526,74.717384 193.221741,75.717491 
	C195.978271,76.404762 198.890335,79.040085 200.354843,81.594681 
	C201.743790,84.017509 202.416107,87.892715 201.445511,90.358482 
	C200.277740,93.325165 196.722046,92.959816 194.113159,91.117828 
	C191.946533,89.588081 190.203766,87.343483 187.888672,86.182106 
	C186.532639,85.501846 184.423447,86.322945 182.653046,86.468658 
	C183.156693,88.157433 183.152756,90.432549 184.276337,91.405190 
	C186.232895,93.098907 188.884781,93.989403 191.548248,95.420784 
z"/>
<path fill="#F8FAFB" opacity="1.000000" stroke="none" 
	d="
M379.608490,186.439560 
	C377.338318,186.419846 375.519379,186.419846 373.153656,186.419846 
	C373.153656,191.920776 373.153656,197.146561 373.153656,202.684052 
	C371.072723,202.684052 369.530426,202.684052 367.785980,202.684052 
	C367.785980,190.261520 367.785980,177.985077 367.785980,165.206360 
	C375.310425,165.206360 382.728790,164.845886 390.089264,165.342850 
	C394.438110,165.636475 397.182434,168.851730 397.887421,173.261826 
	C398.597839,177.705902 397.458496,181.546616 393.356354,184.003769 
	C392.101898,184.755188 390.708160,185.274109 389.504974,185.839890 
	C393.351532,191.296814 397.108307,196.626419 400.957794,202.087509 
	C395.198700,203.650436 394.921448,203.539673 392.235138,199.434814 
	C390.053497,196.101059 388.063446,192.596741 385.512543,189.569000 
	C384.247223,188.067108 381.911285,187.467224 379.608490,186.439560 
M377.681213,169.379562 
	C376.232086,169.467590 374.782928,169.555603 373.200500,169.651733 
	C373.200500,173.853653 373.200500,177.726791 373.200500,182.295013 
	C378.400543,181.929291 383.415985,182.133560 388.093323,180.974060 
	C389.970123,180.508820 392.205841,177.058090 392.228943,174.943878 
	C392.247559,173.235779 389.475342,170.689133 387.428711,169.967072 
	C384.751526,169.022583 381.569641,169.508621 377.681213,169.379562 
z"/>
<path fill="#F4F8F8" opacity="1.000000" stroke="none" 
	d="
M49.216789,165.862976 
	C60.240356,163.285141 66.855156,166.298065 70.270874,175.158035 
	C66.217987,177.577988 66.017197,177.684006 64.339195,174.506042 
	C62.126343,170.315186 58.493496,169.323410 54.298729,169.529068 
	C49.820141,169.748672 46.246376,171.703018 44.472305,176.007156 
	C42.283604,181.317245 42.351341,186.723541 44.544594,192.030502 
	C46.430275,196.593231 50.228825,198.385147 54.878223,198.510513 
	C59.213646,198.627396 62.623775,196.856995 64.639313,192.857697 
	C65.229355,191.686920 65.706100,190.459061 66.405693,188.868820 
	C68.031937,189.381973 69.520065,189.851532 70.987534,190.314575 
	C68.784027,199.319366 63.567360,203.185593 54.259384,203.021729 
	C45.748486,202.871902 39.953491,198.036041 38.116840,189.551010 
	C35.709251,178.428314 39.382450,170.341232 49.216789,165.862976 
z"/>
<path fill="#F3F6F7" opacity="1.000000" stroke="none" 
	d="
M602.821106,199.605881 
	C603.199829,203.106415 600.443665,204.042862 599.279724,202.797974 
	C596.952576,200.308945 595.482910,202.252930 593.628906,202.765701 
	C585.091980,205.126785 577.168823,197.291977 578.282654,187.603104 
	C579.541321,176.654312 586.209534,172.735275 597.434082,176.855255 
	C597.434082,172.926987 597.434082,169.180450 597.434082,165.210236 
	C599.405273,165.210236 600.845154,165.210236 602.822754,165.210236 
	C602.822754,176.603210 602.822754,187.876480 602.821106,199.605881 
M596.808167,183.090775 
	C592.261902,177.716843 586.205078,177.811203 584.505737,183.651199 
	C583.550110,186.935287 583.640259,191.004425 584.724426,194.227036 
	C585.411499,196.269379 588.814453,198.632858 590.962585,198.597763 
	C593.064514,198.563400 596.244141,196.037659 596.928955,193.944138 
	C597.928040,190.889954 597.119202,187.244339 596.808167,183.090775 
z"/>
<path fill="#F3F6F7" opacity="1.000000" stroke="none" 
	d="
M435.458374,197.333618 
	C434.582062,193.961975 433.183350,190.860062 433.379700,187.862625 
	C434.101105,176.850647 441.430115,172.531448 452.287018,176.894760 
	C452.287018,173.001984 452.287018,169.308533 452.287018,165.307571 
	C454.271667,165.168976 455.679108,165.070709 457.466492,164.945892 
	C457.466492,177.644714 457.466492,190.033783 457.466492,202.345978 
	C452.692749,202.542511 447.851044,203.387421 443.244354,202.686859 
	C440.526489,202.273560 438.180969,199.411896 435.458374,197.333618 
M438.667908,190.268982 
	C439.591949,196.790985 443.179199,200.084442 447.689270,198.551468 
	C451.759552,197.167969 454.006683,192.048492 452.859589,186.437378 
	C452.032898,182.393433 449.981750,178.940506 445.447571,179.173141 
	C440.338470,179.435287 438.810638,183.365540 438.620239,187.927917 
	C438.599670,188.420731 438.536896,188.911774 438.667908,190.268982 
z"/>
<path fill="#F3F6F7" opacity="1.000000" stroke="none" 
	d="
M241.520996,176.128418 
	C245.338150,175.685013 248.820435,174.920898 252.216919,175.200150 
	C257.109161,175.602386 259.398743,178.893890 259.415283,183.736053 
	C259.436707,190.001511 259.420502,196.267120 259.420502,203.308182 
	C257.837982,202.631714 255.969528,201.833038 253.937759,200.964523 
	C250.940674,201.561569 247.305954,202.727386 243.623047,202.907455 
	C239.020523,203.132462 235.679749,200.034607 235.214951,196.062393 
	C234.768219,192.244812 237.534485,188.350098 241.834900,187.280151 
	C244.722488,186.561722 247.789795,186.550751 250.660934,185.787689 
	C251.959686,185.442520 252.976990,184.038315 254.121979,183.114563 
	C253.139099,181.962936 252.376343,180.268387 251.131210,179.763550 
	C247.677353,178.363113 244.481964,178.776642 241.733093,181.876495 
	C240.629974,183.120483 238.574585,183.520004 236.952606,184.303879 
	C236.502731,183.717712 236.052841,183.131546 235.602951,182.545380 
	C237.451233,180.454880 239.299515,178.364380 241.520996,176.128418 
M243.122986,198.636215 
	C251.091873,199.713943 254.511597,196.890778 253.700104,189.535355 
	C250.679199,190.028336 247.644867,190.399261 244.668427,191.039383 
	C240.572037,191.920395 239.904526,194.215073 243.122986,198.636215 
z"/>
<path fill="#F6F9FA" opacity="1.000000" stroke="none" 
	d="
M178.665466,200.886261 
	C174.712265,203.452988 171.117096,203.491180 167.004745,201.919617 
	C165.208801,201.233322 162.646469,202.552490 160.160782,203.010986 
	C160.160782,190.324036 160.160782,178.035034 160.160782,165.326431 
	C161.535980,165.205917 162.911789,165.085327 164.747681,164.924438 
	C164.747681,169.030914 164.747681,172.800583 164.747681,176.370804 
	C168.307388,175.909027 171.667236,174.640976 174.550552,175.339615 
	C177.284592,176.002060 180.236954,178.245789 181.833160,180.635757 
	C185.897415,186.721024 184.398209,195.080765 178.665466,200.886261 
M168.671158,179.962601 
	C164.518570,183.616165 162.688950,190.231125 165.479309,194.685989 
	C166.739670,196.698196 169.820847,198.577148 172.163071,198.688843 
	C176.642151,198.902420 179.829498,192.668289 178.901962,186.760788 
	C177.997177,180.998154 174.819702,178.633606 168.671158,179.962601 
z"/>
<path fill="#F4F8F8" opacity="1.000000" stroke="none" 
	d="
M137.714325,175.206009 
	C140.122971,175.078308 142.120377,174.924118 144.107452,175.009720 
	C150.138687,175.269501 152.845947,178.018326 152.925018,184.049759 
	C153.004944,190.145569 152.942627,196.243256 152.942627,203.137573 
	C151.509537,202.625626 149.572754,201.933716 147.059372,201.035843 
	C144.406723,201.567337 140.814529,202.741470 137.177231,202.903488 
	C132.382950,203.117065 129.282028,200.153442 128.984039,196.048828 
	C128.651871,191.473389 131.069199,188.169037 135.834717,187.134583 
	C139.836609,186.265869 143.903671,185.697311 147.941879,184.995865 
	C148.185867,184.474136 148.429840,183.952408 148.673813,183.430679 
	C146.994965,182.044250 145.373703,179.611633 143.623825,179.515320 
	C140.963165,179.368820 138.154282,180.686676 135.523071,181.684982 
	C133.888321,182.305222 132.465408,183.483795 130.130722,184.911026 
	C130.047928,178.451080 133.423187,176.655594 137.714325,175.206009 
M141.894180,190.365250 
	C140.756042,190.558609 139.361679,190.405701 138.533737,191.018326 
	C136.873123,192.247025 135.521973,193.893982 134.043091,195.368301 
	C135.741608,196.600327 137.337723,198.689087 139.157516,198.906647 
	C145.044968,199.610413 148.283829,195.606857 147.519150,189.313782 
	C145.913818,189.608994 144.307663,189.904358 141.894180,190.365250 
z"/>
<path fill="#F5F8F9" opacity="1.000000" stroke="none" 
	d="
M557.878662,202.621933 
	C550.411316,199.110565 547.409790,192.500046 549.442505,184.762894 
	C551.230957,177.955917 556.312927,174.455612 563.609680,175.005020 
	C570.604370,175.531677 574.924133,181.298965 574.427368,189.834091 
	C567.845947,189.834091 561.230469,189.834091 554.377686,189.834091 
	C554.442139,193.993500 555.850647,196.823257 559.534180,198.289886 
	C563.362366,199.814087 566.116089,198.407608 568.766785,195.521988 
	C569.784973,194.413544 571.929688,194.339890 574.061707,193.627426 
	C572.279236,201.546692 568.300232,203.590149 557.878662,202.621933 
M559.656189,185.992661 
	C562.727905,185.992661 565.799561,185.992661 569.082092,185.992661 
	C568.822632,181.039597 565.943848,179.216766 562.258667,179.136520 
	C558.367676,179.051773 555.358093,180.880997 554.697754,185.713043 
	C556.245850,185.820129 557.491760,185.906311 559.656189,185.992661 
z"/>
<path fill="#F5F8F9" opacity="1.000000" stroke="none" 
	d="
M473.116211,198.147400 
	C477.067993,199.790024 479.774109,198.514435 482.435638,195.962448 
	C483.668060,194.780777 485.708191,194.441467 487.854340,193.516861 
	C487.421356,201.580795 480.010498,203.870178 473.295319,202.896881 
	C466.388733,201.895859 462.388519,195.647705 463.078796,187.073288 
	C463.686157,179.529343 469.102722,174.743469 476.763458,174.982101 
	C484.203430,175.213882 488.476532,180.341873 488.626251,189.730896 
	C481.925049,189.730896 475.201843,189.730896 468.478638,189.730896 
	C468.137482,190.156067 467.796326,190.581238 467.455170,191.006409 
	C469.218231,193.346817 470.981293,195.687210 473.116211,198.147400 
M470.922668,185.985779 
	C474.870300,185.985779 478.817902,185.985779 482.908997,185.985779 
	C483.202118,181.372879 480.294312,179.195312 477.005219,179.330765 
	C474.332947,179.440796 471.723969,181.789948 469.198639,183.329346 
	C469.012939,183.442551 469.732513,185.040802 470.922668,185.985779 
z"/>
<path fill="#F5F8F9" opacity="1.000000" stroke="none" 
	d="
M428.421936,194.423767 
	C428.735138,198.982330 425.898468,201.238586 422.280792,202.322510 
	C417.328918,203.806183 412.374786,203.652588 408.199707,199.981262 
	C403.911804,196.210739 402.658264,188.426910 405.245758,182.368240 
	C407.463348,177.175705 412.311707,174.513458 418.651062,175.007263 
	C425.648041,175.552292 429.996155,181.410706 429.383301,189.852356 
	C422.800110,189.852356 416.182159,189.852356 409.354156,189.852356 
	C409.456757,194.009476 410.869934,196.864044 414.586029,198.311462 
	C418.427612,199.807724 421.198242,198.404587 423.797729,195.467834 
	C424.631531,194.525894 426.624237,194.609711 428.421936,194.423767 
M411.922668,185.985779 
	C415.870300,185.985779 419.817902,185.985779 423.908997,185.985779 
	C424.202118,181.372879 421.294312,179.195343 418.005219,179.330795 
	C415.332916,179.440826 412.723969,181.789948 410.198639,183.329361 
	C410.012939,183.442551 410.732483,185.040802 411.922668,185.985779 
z"/>
<path fill="#F4F8F8" opacity="1.000000" stroke="none" 
	d="
M297.758636,176.437714 
	C306.527832,173.183105 313.887146,175.811203 316.479370,182.803879 
	C319.631134,191.306046 316.341644,199.860199 308.933746,202.425644 
	C302.933380,204.503662 295.997803,202.185135 293.160583,197.152725 
	C289.318451,190.337921 291.138885,181.575333 297.758636,176.437714 
M302.223267,198.470749 
	C307.368134,199.203171 310.634613,197.365250 311.861115,193.047897 
	C313.473450,187.372330 311.692688,181.913864 307.626038,179.913849 
	C303.873138,178.068146 300.716309,179.237915 298.321503,182.178787 
	C294.614929,186.730576 296.349731,194.864883 302.223267,198.470749 
z"/>
<path fill="#F4F8F8" opacity="1.000000" stroke="none" 
	d="
M79.159637,199.906708 
	C74.753204,194.956482 74.173210,189.550873 75.880646,183.780060 
	C77.823326,177.214203 83.227127,174.078476 90.660759,175.057739 
	C96.384323,175.811752 100.645966,180.614761 101.004349,186.730286 
	C101.349442,192.619003 100.876320,198.309708 94.890862,201.409378 
	C89.614418,204.141907 84.323952,203.900177 79.159637,199.906708 
M95.112778,183.789444 
	C93.323532,180.323914 90.594780,178.463974 86.624947,179.301788 
	C82.695564,180.131058 80.731155,182.981750 80.389992,186.753265 
	C80.186775,188.999725 79.953903,191.860992 81.103271,193.464935 
	C82.751984,195.765747 85.551376,198.392166 88.044388,198.593796 
	C90.256340,198.772720 93.800583,196.328766 94.799362,194.146683 
	C96.043503,191.428574 95.279526,187.791290 95.112778,183.789444 
z"/>
<path fill="#F4F8F8" opacity="1.000000" stroke="none" 
	d="
M211.248291,198.084824 
	C205.288376,203.995941 197.005981,204.704880 191.734802,200.030075 
	C186.787827,195.642822 186.137604,184.718536 190.500900,179.299194 
	C193.633331,175.408615 199.916931,173.776535 205.104126,175.506195 
	C210.229431,177.215210 213.675842,181.575775 213.665085,187.725616 
	C213.659225,191.081451 212.259216,194.434830 211.248291,198.084824 
M205.602692,180.973389 
	C200.432083,178.199921 196.414200,178.888031 194.041672,182.953354 
	C191.486496,187.331604 192.690109,195.138611 196.293671,197.560760 
	C200.445053,200.351151 206.308258,198.617569 207.738953,193.824478 
	C208.987473,189.641724 209.307022,185.301239 205.602692,180.973389 
z"/>
<path fill="#F4F8F8" opacity="1.000000" stroke="none" 
	d="
M340.181183,187.255035 
	C340.409210,182.713211 339.477448,179.339386 334.620087,179.087753 
	C330.398407,178.869064 327.901306,181.897202 327.834290,187.059372 
	C327.767792,192.184570 327.819763,197.311279 327.819763,202.747116 
	C326.016418,202.838470 324.604736,202.909988 322.875336,202.997604 
	C322.875336,193.629227 322.875336,184.564926 322.875336,174.478165 
	C324.756958,175.275330 326.264099,175.913834 327.771240,176.552353 
	C327.646301,176.980682 327.521362,177.409012 327.396423,177.837341 
	C328.681000,177.130188 329.900909,176.247910 331.261139,175.745621 
	C337.835938,173.317841 345.672058,176.106796 345.096069,184.435333 
	C344.707214,190.057922 345.003693,195.727676 344.979340,201.376266 
	C344.977966,201.693085 344.846100,202.009338 344.698120,202.667480 
	C343.418579,202.667480 342.065125,202.667480 340.182220,202.667480 
	C340.182220,197.612839 340.182220,192.667282 340.181183,187.255035 
z"/>
<path fill="#F9FBFB" opacity="1.000000" stroke="none" 
	d="
M520.987488,184.058670 
	C520.987488,180.920120 520.987488,178.271896 520.987488,174.518707 
	C523.239868,175.362137 524.914917,175.989365 526.785095,176.689697 
	C528.886414,176.211151 531.552185,175.173187 534.250854,175.079254 
	C539.855042,174.884186 543.110352,177.869614 543.324768,183.388046 
	C543.569702,189.693390 543.381409,196.015533 543.381409,202.729797 
	C541.772827,202.807114 540.388733,202.873642 538.561890,202.961441 
	C538.561890,197.115753 538.627319,191.645737 538.539490,186.178207 
	C538.478333,182.372559 537.414673,179.136154 532.765564,179.064148 
	C528.759949,179.002136 526.045593,182.026138 525.955994,186.670959 
	C525.856628,191.820190 525.933228,196.972824 525.933228,202.550323 
	C524.425232,202.747726 523.042542,202.928711 520.987488,203.197708 
	C520.987488,196.759613 520.987488,190.654312 520.987488,184.058670 
z"/>
<path fill="#F3F6F7" opacity="1.000000" stroke="none" 
	d="
M500.434631,197.702988 
	C500.434479,199.642792 500.434479,201.117584 500.434479,202.804626 
	C498.591248,202.804626 497.149231,202.804626 495.175903,202.804626 
	C495.175903,196.215057 495.204681,189.775009 495.158722,183.335480 
	C495.144531,181.347916 495.962952,178.796570 492.436310,178.724304 
	C492.022736,178.715820 491.212372,177.447311 491.332306,176.939056 
	C491.505402,176.205414 492.349182,175.621582 492.929230,174.994583 
	C493.671906,174.191788 494.893097,173.522064 495.120148,172.600784 
	C496.943512,165.202454 499.151886,163.874802 509.057251,166.067474 
	C506.745361,167.672806 505.427246,168.535461 504.167603,169.476379 
	C502.674408,170.591751 501.231628,171.774582 499.766998,172.928177 
	C500.044464,173.428345 500.321930,173.928513 500.599426,174.428680 
	C502.132751,174.734665 503.666077,175.040665 505.199097,175.349625 
	C505.439331,178.623138 505.439331,178.623138 500.434753,179.580353 
	C500.434753,185.382431 500.434753,191.310211 500.434631,197.702988 
z"/>
<path fill="#F8FAFB" opacity="1.000000" stroke="none" 
	d="
M277.100403,201.278870 
	C272.271057,204.571716 267.731354,202.764435 267.255920,197.524353 
	C266.897491,193.573807 267.298187,189.557343 267.000702,185.597290 
	C266.807648,183.027603 268.735016,179.469711 264.339111,178.324997 
	C264.127502,178.269882 263.877838,177.304474 264.052277,176.984482 
	C266.068848,173.285278 268.163879,169.628845 270.238098,165.961075 
	C270.765137,166.179230 271.292206,166.397369 271.819244,166.615524 
	C271.819244,169.161530 271.819244,171.707520 271.819244,174.532806 
	C273.534454,174.820389 274.925232,175.053574 278.095123,175.585052 
	C276.210663,177.165939 275.203552,178.129181 274.067993,178.904190 
	C273.623810,179.207352 272.891174,179.087891 271.841766,179.215317 
	C273.352783,186.732895 268.343231,195.308716 277.100403,201.278870 
z"/>
<path fill="#F3F6F7" opacity="1.000000" stroke="none" 
	d="
M123.020111,167.331970 
	C123.026657,179.389755 123.026657,190.977905 123.026657,202.787476 
	C121.361275,202.787476 120.101624,202.787476 118.508728,202.787476 
	C118.508728,190.374588 118.508728,178.012741 118.508728,164.248749 
	C120.382454,165.335846 121.698006,166.099106 123.020111,167.331970 
z"/>
<path fill="#F3F6F7" opacity="1.000000" stroke="none" 
	d="
M223.949066,195.918961 
	C223.949051,198.365662 223.949051,200.333847 223.949051,202.696014 
	C222.313843,202.797272 220.954224,202.881470 219.309784,202.983307 
	C219.309784,193.566910 219.309784,184.517227 219.309784,175.860977 
	C224.148941,175.860977 228.850769,175.860977 233.552612,175.860977 
	C233.786331,176.377518 234.020050,176.894058 234.253769,177.410599 
	C232.886032,178.014893 231.428787,178.475296 230.171570,179.257294 
	C228.294495,180.424850 225.404327,181.529907 224.992416,183.174362 
	C224.008209,187.103638 224.220108,191.332520 223.949066,195.918961 
z"/>
<path fill="#FCFDFD" opacity="1.000000" stroke="none" 
	d="
M106.610168,190.987793 
	C106.610153,182.213303 106.610153,173.935791 106.610153,165.560013 
	C109.333412,164.774658 111.430031,164.175400 111.406227,168.051987 
	C111.336021,179.481461 111.381157,190.911636 111.381157,202.368988 
	C108.112732,203.617554 106.371544,203.194626 106.584480,199.447922 
	C106.734879,196.801590 106.611389,194.139725 106.610168,190.987793 
z"/>
<path fill="#F9FBFB" opacity="1.000000" stroke="none" 
	d="
M514.012329,198.782944 
	C514.570374,202.881866 512.787720,203.617691 509.387634,202.662064 
	C509.387634,193.694611 509.387634,184.634232 509.387634,175.286041 
	C510.843506,175.286041 512.216980,175.286041 514.012451,175.286041 
	C514.012451,183.069000 514.012451,190.688293 514.012329,198.782944 
z"/>
<path fill="#F9FBFB" opacity="1.000000" stroke="none" 
	d="
M281.072266,178.304520 
	C282.175415,176.632523 283.277100,175.429443 284.378784,174.226349 
	C284.818634,174.534515 285.258484,174.842682 285.698334,175.150848 
	C285.698334,184.224518 285.698334,193.298187 285.698334,202.687851 
	C284.349701,202.687851 282.977203,202.687851 281.070831,202.687851 
	C281.070831,194.662308 281.070831,186.717865 281.072266,178.304520 
z"/>
<path fill="#F9FBFB" opacity="1.000000" stroke="none" 
	d="
M509.155823,166.204498 
	C510.553619,165.446213 511.892242,165.116669 513.634033,164.687866 
	C513.811462,166.484909 513.947815,167.865906 514.116882,169.578400 
	C512.847839,169.730927 511.423645,170.335815 510.818604,169.872040 
	C509.935791,169.195358 509.641724,167.750580 509.155823,166.204498 
z"/>
<path fill="#F9FBFB" opacity="1.000000" stroke="none" 
	d="
M285.999695,167.061340 
	C284.848053,168.558533 283.689575,169.617065 282.531097,170.675598 
	C282.131073,170.351700 281.731049,170.027786 281.331024,169.703873 
	C281.259155,168.338699 281.187256,166.973526 281.042969,164.233414 
	C283.188110,165.268860 284.590485,165.945755 285.999695,167.061340 
z"/>
<path fill="#3B7882" opacity="1.000000" stroke="none" 
	d="
M432.723145,113.162872 
	C428.884949,113.614716 426.997955,111.659706 426.048950,108.739693 
	C423.971649,102.348061 424.021515,95.878250 427.089752,89.890327 
	C428.004303,88.105507 430.813263,86.302376 432.723389,86.334663 
	C434.208557,86.359772 436.781067,89.143578 436.898560,90.838020 
	C437.307159,96.728706 437.099609,102.700661 436.572754,108.592194 
	C436.430634,110.181343 434.328796,111.595245 432.723145,113.162872 
z"/>
<path fill="#3D7A83" opacity="1.000000" stroke="none" 
	d="
M227.825836,91.652649 
	C228.847153,89.043205 229.688431,86.368927 231.465332,84.677597 
	C232.224335,83.955162 235.463776,84.731956 236.611526,85.832970 
	C237.781891,86.955704 238.245270,89.365623 238.053818,91.105881 
	C237.968918,91.877556 235.531662,92.848076 234.127304,92.907799 
	C232.109802,92.993607 230.060425,92.329681 227.825836,91.652649 
z"/>
<path fill="#3D7A83" opacity="1.000000" stroke="none" 
	d="
M379.814209,88.482773 
	C380.444397,92.904045 377.755920,93.319977 374.933716,92.938957 
	C372.909180,92.665634 370.983582,91.659805 369.013824,90.980774 
	C370.229584,88.837257 370.935425,85.839058 372.775146,84.741394 
	C375.890747,82.882538 378.334412,84.997551 379.814209,88.482773 
z"/>
<path fill="#3D7A83" opacity="1.000000" stroke="none" 
	d="
M378.143066,169.379410 
	C381.569641,169.508621 384.751526,169.022583 387.428711,169.967072 
	C389.475342,170.689133 392.247559,173.235779 392.228943,174.943878 
	C392.205841,177.058090 389.970123,180.508820 388.093323,180.974060 
	C383.415985,182.133560 378.400543,181.929291 373.200500,182.295013 
	C373.200500,177.726791 373.200500,173.853653 373.200500,169.651733 
	C374.782928,169.555603 376.232086,169.467590 378.143066,169.379410 
z"/>
<path fill="#3A7881" opacity="1.000000" stroke="none" 
	d="
M596.944580,183.470810 
	C597.119202,187.244339 597.928040,190.889954 596.928955,193.944138 
	C596.244141,196.037659 593.064514,198.563400 590.962585,198.597763 
	C588.814453,198.632858 585.411499,196.269379 584.724426,194.227036 
	C583.640259,191.004425 583.550110,186.935287 584.505737,183.651199 
	C586.205078,177.811203 592.261902,177.716843 596.944580,183.470810 
z"/>
<path fill="#3A7881" opacity="1.000000" stroke="none" 
	d="
M438.580811,189.836304 
	C438.536896,188.911774 438.599670,188.420731 438.620239,187.927917 
	C438.810638,183.365540 440.338470,179.435287 445.447571,179.173141 
	C449.981750,178.940506 452.032898,182.393433 452.859589,186.437378 
	C454.006683,192.048492 451.759552,197.167969 447.689270,198.551468 
	C443.179199,200.084442 439.591949,196.790985 438.580811,189.836304 
z"/>
<path fill="#3B7882" opacity="1.000000" stroke="none" 
	d="
M242.781403,198.397491 
	C239.904526,194.215073 240.572037,191.920395 244.668427,191.039383 
	C247.644867,190.399261 250.679199,190.028336 253.700104,189.535355 
	C254.511597,196.890778 251.091873,199.713943 242.781403,198.397491 
z"/>
<path fill="#3B7882" opacity="1.000000" stroke="none" 
	d="
M169.031982,179.823532 
	C174.819702,178.633606 177.997177,180.998154 178.901962,186.760788 
	C179.829498,192.668289 176.642151,198.902420 172.163071,198.688843 
	C169.820847,198.577148 166.739670,196.698196 165.479309,194.685989 
	C162.688950,190.231125 164.518570,183.616165 169.031982,179.823532 
z"/>
<path fill="#3D7A83" opacity="1.000000" stroke="none" 
	d="
M142.297852,190.282486 
	C144.307663,189.904358 145.913818,189.608994 147.519150,189.313782 
	C148.283829,195.606857 145.044968,199.610413 139.157516,198.906647 
	C137.337723,198.689087 135.741608,196.600327 134.043091,195.368301 
	C135.521973,193.893982 136.873123,192.247025 138.533737,191.018326 
	C139.361679,190.405701 140.756042,190.558609 142.297852,190.282486 
z"/>
<path fill="#3D7A83" opacity="1.000000" stroke="none" 
	d="
M559.196960,185.992584 
	C557.491760,185.906311 556.245850,185.820129 554.697754,185.713043 
	C555.358093,180.880997 558.367676,179.051773 562.258667,179.136520 
	C565.943848,179.216766 568.822632,181.039597 569.082092,185.992661 
	C565.799561,185.992661 562.727905,185.992661 559.196960,185.992584 
z"/>
<path fill="#3D7A83" opacity="1.000000" stroke="none" 
	d="
M470.476929,185.967209 
	C469.732513,185.040802 469.012939,183.442551 469.198639,183.329346 
	C471.723969,181.789948 474.332947,179.440796 477.005219,179.330765 
	C480.294312,179.195312 483.202118,181.372879 482.908997,185.985779 
	C478.817902,185.985779 474.870300,185.985779 470.476929,185.967209 
z"/>
<path fill="#3D7A83" opacity="1.000000" stroke="none" 
	d="
M411.476929,185.967209 
	C410.732483,185.040802 410.012939,183.442551 410.198639,183.329361 
	C412.723969,181.789948 415.332916,179.440826 418.005219,179.330795 
	C421.294312,179.195343 424.202118,181.372879 423.908997,185.985779 
	C419.817902,185.985779 415.870300,185.985779 411.476929,185.967209 
z"/>
<path fill="#3A7881" opacity="1.000000" stroke="none" 
	d="
M301.854736,198.333237 
	C296.349731,194.864883 294.614929,186.730576 298.321503,182.178787 
	C300.716309,179.237915 303.873138,178.068146 307.626038,179.913849 
	C311.692688,181.913864 313.473450,187.372330 311.861115,193.047897 
	C310.634613,197.365250 307.368134,199.203171 301.854736,198.333237 
z"/>
<path fill="#3A7881" opacity="1.000000" stroke="none" 
	d="
M95.247726,184.170197 
	C95.279526,187.791290 96.043503,191.428574 94.799362,194.146683 
	C93.800583,196.328766 90.256340,198.772720 88.044388,198.593796 
	C85.551376,198.392166 82.751984,195.765747 81.103271,193.464935 
	C79.953903,191.860992 80.186775,188.999725 80.389992,186.753265 
	C80.731155,182.981750 82.695564,180.131058 86.624947,179.301788 
	C90.594780,178.463974 93.323532,180.323914 95.247726,184.170197 
z"/>
<path fill="#3B7882" opacity="1.000000" stroke="none" 
	d="
M205.881531,181.262756 
	C209.307022,185.301239 208.987473,189.641724 207.738953,193.824478 
	C206.308258,198.617569 200.445053,200.351151 196.293671,197.560760 
	C192.690109,195.138611 191.486496,187.331604 194.041672,182.953354 
	C196.414200,178.888031 200.432083,178.199921 205.881531,181.262756 
z"/>
</svg>