<svg version="1.1" id="Layer_1" xmlns="http://www.w3.org/2000/svg" xmlns:xlink="http://www.w3.org/1999/xlink" x="0px" y="0px"
	 width="100%" viewBox="0 0 314 108" enable-background="new 0 0 314 108" xml:space="preserve">
<path fill="none" opacity="1.000000" stroke="#000000" stroke-linecap="round" stroke-linejoin="round" stroke-width="5.000000"
	d="
M283.000000,54.500000 
	C282.316833,54.399307 281.698944,54.518509 280.969513,54.047203 
	C274.085876,49.599487 271.759460,50.629650 268.917755,58.470188 
	C267.645721,61.979790 267.775421,65.198944 269.018951,68.492844 
	C271.169891,74.190285 275.545166,75.161003 279.993561,70.993141 
	C280.858978,70.182343 281.549683,69.099358 283.000000,69.500000 
"/>
<path fill="none" opacity="1.000000" stroke="#000000" stroke-linecap="round" stroke-linejoin="round" stroke-width="5.000000"
	d="
M217.500000,71.000000 
	C219.156998,70.636894 220.187119,71.957886 221.493103,72.516151 
	C225.948013,74.420502 228.618332,73.659622 230.982040,69.489815 
	C233.649429,64.784271 232.903732,59.670959 231.332184,55.057163 
	C229.859650,50.734112 225.394623,50.374134 221.495987,53.494980 
	C220.263870,54.481270 219.580292,56.361805 217.500000,56.000000 
"/>
<path fill="none" opacity="1.000000" stroke="#000000" stroke-linecap="round" stroke-linejoin="round" stroke-width="5.000000"
	d="
M204.000000,54.500000 
	C203.316833,54.399307 202.698944,54.518509 201.969498,54.047203 
	C195.085876,49.599487 192.759476,50.629646 189.917755,58.470188 
	C188.645737,61.979797 188.775436,65.198936 190.018967,68.492844 
	C192.169891,74.190285 196.545181,75.161011 200.993591,70.993156 
	C201.858963,70.182350 202.549683,69.099358 204.000000,69.500000 
"/>
<path fill="none" opacity="1.000000" stroke="#000000" stroke-linecap="round" stroke-linejoin="round" stroke-width="5.000000"
	d="
M52.000000,51.000000 
	C52.000000,55.833332 51.965794,60.666965 52.007950,65.499931 
	C52.072563,72.907951 56.003357,75.348213 62.482811,71.967056 
	C63.467236,71.453354 64.337212,70.844978 65.500000,71.000000 
"/>
<path fill="none" opacity="1.000000" stroke="#000000" stroke-linecap="round" stroke-linejoin="round" stroke-width="5.000000"
	d="
M143.000000,74.000000 
	C142.784058,68.668205 143.185593,63.340244 142.625107,57.986900 
	C142.318024,55.053841 141.733688,52.501671 138.960861,51.623581 
	C136.776550,50.931866 134.629822,52.199661 132.978378,53.979942 
	C132.100372,54.926441 131.000000,55.666664 130.000000,56.500000 
"/>
<path fill="none" opacity="1.000000" stroke="#000000" stroke-linecap="round" stroke-linejoin="round" stroke-width="6.000000"
	d="
M179.500000,73.500000 
	C179.500000,68.666664 179.289322,63.820950 179.572418,59.004257 
	C179.768356,55.670380 178.607086,52.891384 175.916214,51.687214 
	C174.012482,50.835281 171.149338,51.535023 169.560913,53.548069 
	C168.670303,54.676762 167.279846,54.059708 166.500000,55.000000 
"/>
<path fill="none" opacity="1.000000" stroke="#000000" stroke-linecap="round" stroke-linejoin="round" stroke-width="5.000000"
	d="
M104.500000,73.500000 
	C104.500000,68.500000 104.291313,63.488018 104.577446,58.504448 
	C104.752029,55.463856 103.407875,52.876633 101.377350,51.714256 
	C99.397713,50.581020 97.032570,52.446243 94.926140,53.892418 
	C91.504440,56.241585 90.715813,59.195126 90.951233,63.003014 
	C91.177055,66.655716 91.000000,70.333336 91.000000,74.000000 
"/>
<path fill="none" opacity="1.000000" stroke="#000000" stroke-linecap="round" stroke-linejoin="round" stroke-width="5.000000"
	d="
M205.000000,51.000000 
	C205.000000,59.333332 204.858368,67.669769 205.040924,75.999100 
	C205.214005,83.897446 197.703857,88.889008 190.021530,84.957939 
	C189.686676,84.786591 189.666656,84.000000 189.500000,83.500000 
"/>
<path fill="none" opacity="1.000000" stroke="#000000" stroke-linecap="round" stroke-linejoin="round" stroke-width="5.000000"
	d="
M154.000000,51.000000 
	C154.000000,58.666668 154.000000,66.333336 154.000000,74.000000 
"/>
<path fill="none" opacity="1.000000" stroke="#000000" stroke-linecap="round" stroke-linejoin="round" stroke-width="6.000000"
	d="
M242.500000,51.500000 
	C242.500000,58.833332 242.500000,66.166664 242.500000,73.500000 
"/>
<path fill="none" opacity="1.000000" stroke="#000000" stroke-linecap="round" stroke-linejoin="round" stroke-width="6.000000"
	d="
M66.500000,51.500000 
	C66.500000,58.833332 66.500000,66.166664 66.500000,73.500000 
"/>
<path fill="none" opacity="1.000000" stroke="#000000" stroke-linecap="round" stroke-linejoin="round" stroke-width="6.000000"
	d="
M77.500000,51.500000 
	C77.500000,58.833332 77.500000,66.166664 77.500000,73.500000 
"/>
<path fill="none" opacity="1.000000" stroke="#000000" stroke-linecap="round" stroke-linejoin="round" stroke-width="6.000000"
	d="
M165.500000,51.500000 
	C165.500000,58.833332 165.500000,66.166664 165.500000,73.500000 
"/>
<path fill="none" opacity="1.000000" stroke="#000000" stroke-linecap="round" stroke-linejoin="round" stroke-width="5.000000"
	d="
M254.000000,51.000000 
	C254.000000,58.666668 254.000000,66.333336 254.000000,74.000000 
"/>
<path fill="none" opacity="1.000000" stroke="#000000" stroke-linecap="round" stroke-linejoin="round" stroke-width="6.000000"
	d="
M115.500000,51.500000 
	C115.500000,58.833332 115.500000,66.166664 115.500000,73.500000 
"/>
<path fill="none" opacity="1.000000" stroke="#000000" stroke-linecap="round" stroke-linejoin="round" stroke-width="5.000000"
	d="
M118.000000,55.000000 
	C120.018761,53.204185 121.952766,51.238873 125.565506,51.569275 
	C128.030655,53.952003 130.025620,56.490551 129.168076,61.031738 
	C128.377960,65.215874 129.000000,69.666664 129.000000,74.000000 
"/>
<path fill="none" opacity="1.000000" stroke="#000000" stroke-linecap="round" stroke-linejoin="round" stroke-width="6.000000"
	d="
M21.500000,40.500000 
	C21.500000,51.500000 21.500000,62.500000 21.500000,73.500000 
"/>
<path fill="none" opacity="1.000000" stroke="#000000" stroke-linecap="round" stroke-linejoin="round" stroke-width="6.000000"
	d="
M40.500000,40.500000 
	C40.500000,51.500000 40.500000,62.500000 40.500000,73.500000 
"/>
<path fill="none" opacity="1.000000" stroke="#000000" stroke-linecap="round" stroke-linejoin="round" stroke-width="6.000000"
	d="
M216.500000,39.500000 
	C216.762573,49.831787 216.062347,60.177624 216.966339,70.502945 
	C217.051956,71.480858 216.666672,72.500000 216.500000,73.500000 
"/>
<path fill="none" opacity="1.000000" stroke="#000000" stroke-linecap="round" stroke-linejoin="round" stroke-width="6.000000"
	d="
M23.000000,56.500000 
	C28.333334,56.500000 33.666668,56.500000 39.000000,56.500000 
"/>
<path fill="none" opacity="1.000000" stroke="#000000" stroke-linecap="round" stroke-linejoin="round" stroke-width="5.000000"
	d="
M284.000000,39.000000 
	C284.000000,50.666668 284.000000,62.333332 284.000000,74.000000 
"/>
<path fill="none" opacity="1.000000" stroke="#000000" stroke-linecap="round" stroke-linejoin="round" stroke-width="5.000000"
	d="
M91.500000,56.500000 
	C87.642914,50.781406 87.642914,50.781406 78.500000,55.000000 
"/>
<path fill="none" opacity="1.000000" stroke="#000000" stroke-linecap="round" stroke-linejoin="round" stroke-width="3.000000"
	d="
M261.750000,51.000000 
	C259.118896,52.152161 257.922852,55.241680 255.000000,56.000000 
"/>
</svg>