<svg version="1.1" id="Layer_1" xmlns="http://www.w3.org/2000/svg" xmlns:xlink="http://www.w3.org/1999/xlink" x="0px" y="0px"
	 width="100%" viewBox="0 0 2718 657" enable-background="new 0 0 2718 657" xml:space="preserve">
<path fill="#FFFFFF" opacity="1.000000" stroke="none" 
	d="
M1972.000000,658.000000 
	C1314.666748,658.000000 657.833496,658.000000 1.000176,658.000000 
	C1.000118,439.000092 1.000118,220.000214 1.000059,1.000235 
	C906.999756,1.000157 1812.999512,1.000157 2718.999512,1.000078 
	C2718.999512,219.999756 2718.999512,438.999512 2718.999756,657.999634 
	C2470.166748,658.000000 2221.333252,658.000000 1972.000000,658.000000 
M338.232147,529.687134 
	C339.278839,530.140564 340.404205,530.468201 341.360809,531.065796 
	C369.347900,548.551147 399.163391,562.349121 430.446472,572.490173 
	C450.449768,578.974670 471.203217,583.232300 491.745361,587.943176 
	C512.274414,592.651001 533.173950,594.741455 554.245117,595.032288 
	C555.506897,595.049622 556.761963,595.554626 558.945190,595.974854 
	C600.463928,595.982788 641.982727,596.000488 683.501404,595.959839 
	C685.028137,595.958374 686.554321,595.386230 688.997437,595.009460 
	C698.611084,594.003662 708.278809,593.357056 717.827759,591.921204 
	C741.455078,588.368347 763.882935,580.711365 785.227417,570.188293 
	C802.909851,561.470642 819.953308,551.420166 834.443665,537.873535 
	C847.177856,525.968689 860.140259,514.089233 871.294434,500.768860 
	C885.064880,484.324066 896.315979,465.900879 904.433105,445.894867 
	C909.111755,434.363617 913.288086,422.581299 916.879150,410.667480 
	C921.745361,394.522980 924.840393,377.971466 924.975891,361.018280 
	C925.066589,349.675262 924.889038,338.330139 924.985596,326.090668 
	C922.989990,312.702850 921.514404,299.211517 918.874268,285.952057 
	C915.114136,267.067017 908.006958,249.187683 899.392578,232.059158 
	C891.713013,216.789261 882.309875,202.541489 871.735779,188.972351 
	C858.562012,172.067184 843.457031,157.221680 826.529785,144.341904 
	C807.938171,130.195755 787.576904,118.919563 765.772827,110.316978 
	C738.783386,99.668533 710.687012,93.272743 681.835876,93.208725 
	C497.060303,92.798676 312.283356,92.999504 127.506836,92.999466 
	C125.749039,92.999466 123.991249,92.999466 122.994972,92.999466 
	C122.994972,114.256691 122.480614,134.844940 123.152687,155.394394 
	C123.721970,172.800537 125.015572,190.243408 127.191650,207.518478 
	C129.119904,222.826157 132.126373,238.062393 135.691238,253.084686 
	C141.244507,276.485992 149.049362,299.180695 158.582291,321.324493 
	C168.724060,344.882599 180.238907,367.687256 194.583115,388.918854 
	C204.251328,403.229279 214.392197,417.308746 225.391876,430.606201 
	C236.206497,443.679932 248.372009,455.636169 260.206421,468.689270 
	C271.316010,478.464539 281.955780,488.849945 293.655396,497.858948 
	C307.942749,508.860565 323.119720,518.706848 338.232147,529.687134 
M1917.000000,303.500000 
	C1917.000000,376.915833 1917.000000,450.331696 1917.000000,523.999756 
	C1918.345093,523.999756 1919.151489,523.999817 1919.957886,523.999817 
	C1978.610107,523.999878 2037.262573,524.070618 2095.914307,523.910583 
	C2103.249023,523.890564 2110.669922,523.154114 2117.895508,521.874023 
	C2134.677246,518.900879 2151.251465,515.228821 2167.332520,509.155426 
	C2190.219971,500.511383 2210.557129,487.953156 2228.125488,471.178680 
	C2243.858643,456.156525 2256.059814,438.410553 2264.342773,418.174805 
	C2272.429443,398.417816 2277.468018,377.942871 2277.968994,356.508881 
	C2278.159668,348.346954 2278.548096,340.130737 2277.866211,332.021698 
	C2276.941406,321.022888 2275.847656,309.930450 2273.447510,299.186188 
	C2268.646973,277.697601 2259.976807,257.755798 2247.011475,239.776993 
	C2238.612793,228.130737 2229.177734,217.372742 2217.898682,208.582260 
	C2202.116455,196.282181 2184.947510,186.354904 2165.997314,179.327179 
	C2143.142090,170.851135 2119.538330,165.623734 2095.430908,165.273041 
	C2037.457397,164.429733 1979.463379,164.998306 1921.477661,165.009796 
	C1920.043945,165.010086 1918.610229,165.156235 1917.000000,165.243973 
	C1917.000000,211.228439 1917.000000,256.864227 1917.000000,303.500000 
M1468.039551,503.568207 
	C1465.229980,510.164978 1462.420532,516.761719 1459.337769,524.000000 
	C1461.805420,524.000000 1463.430298,524.000000 1465.055176,524.000000 
	C1488.383057,524.000000 1511.713501,523.813171 1535.036987,524.133179 
	C1540.765381,524.211731 1543.858032,523.116394 1546.195190,517.172302 
	C1553.696167,498.095306 1562.015381,479.336639 1570.266846,460.564056 
	C1570.970825,458.962280 1573.510498,457.153442 1575.203369,457.147522 
	C1626.690796,456.966644 1678.178955,456.972778 1729.666504,457.126007 
	C1731.276611,457.130798 1733.741333,458.628204 1734.359131,460.056396 
	C1743.558960,481.320740 1752.514038,502.690948 1761.453369,523.861938 
	C1791.801392,523.861938 1821.773804,523.861938 1852.419678,523.861938 
	C1850.877930,520.480591 1849.444458,517.481628 1848.130737,514.430969 
	C1840.083130,495.741791 1832.081177,477.032990 1824.026611,458.346863 
	C1818.444336,445.396515 1812.774536,432.483887 1807.192139,419.533600 
	C1799.137085,400.846863 1791.147949,382.131805 1783.088501,363.447021 
	C1777.438599,350.348877 1771.670288,337.301697 1766.041016,324.194794 
	C1758.138916,305.796234 1750.371582,287.339691 1742.443237,268.952515 
	C1735.715210,253.349350 1728.759644,237.844284 1722.052612,222.232193 
	C1714.274536,204.126511 1706.712158,185.927826 1698.859131,167.855103 
	C1698.290405,166.546234 1696.156006,165.211502 1694.679688,165.128464 
	C1689.032227,164.810806 1683.356201,165.000000 1677.690918,165.000000 
	C1656.543701,165.000000 1635.396606,165.000000 1614.687744,165.000000 
	C1611.753418,171.718781 1609.005737,178.040054 1606.233887,184.350632 
	C1600.173340,198.148254 1594.036621,211.912857 1588.047852,225.741577 
	C1579.771606,244.852264 1571.638062,264.024750 1563.376221,283.141693 
	C1557.652710,296.385590 1551.750244,309.552277 1546.044800,322.803894 
	C1538.126587,341.195251 1530.382202,359.661621 1522.441284,378.043152 
	C1516.401367,392.024323 1510.091187,405.888672 1504.046265,419.867676 
	C1496.098267,438.247070 1488.290283,456.686951 1480.426880,475.102905 
	C1476.462524,484.387177 1472.509155,493.676056 1468.039551,503.568207 
M1208.500000,165.000000 
	C1186.071533,165.000000 1163.643188,165.000000 1141.280640,165.000000 
	C1141.280640,284.972198 1141.280640,404.370270 1141.280640,523.717407 
	C1169.299438,523.717407 1197.036621,523.717407 1225.169922,523.717407 
	C1225.169922,490.698090 1225.169922,457.959473 1225.169922,425.000000 
	C1253.875488,425.000000 1282.187012,425.258484 1310.489380,424.859894 
	C1320.413086,424.720184 1330.456177,423.692596 1340.194580,421.790253 
	C1357.885986,418.334320 1374.924194,412.733002 1390.917847,404.070984 
	C1411.647339,392.843933 1428.013672,377.158966 1438.795776,356.326416 
	C1450.792969,333.146118 1454.658203,308.309540 1452.179932,282.188293 
	C1450.491699,264.393066 1446.157104,247.711151 1437.573242,232.050430 
	C1426.255981,211.402588 1409.724609,196.015564 1389.178467,185.119720 
	C1362.939209,171.204636 1334.481079,165.440216 1304.990967,165.086395 
	C1273.164795,164.704544 1241.330688,165.000000 1208.500000,165.000000 
M2614.492188,524.000000 
	C2618.927734,524.000000 2623.363281,524.000000 2627.710938,524.000000 
	C2627.710938,501.022278 2627.710938,478.617554 2627.710938,455.818176 
	C2567.685547,455.818176 2507.948486,455.818176 2447.818604,455.818176 
	C2447.818604,358.685974 2447.818604,261.950867 2447.818604,165.291000 
	C2419.684570,165.291000 2391.946777,165.291000 2364.288086,165.291000 
	C2364.288086,284.982452 2364.288086,404.382690 2364.288086,524.000000 
	C2447.549316,524.000000 2530.522461,524.000000 2614.492188,524.000000 
z"/>
<path fill="#FEA000" opacity="1.000000" stroke="none" 
	d="
M259.944733,468.082794 
	C248.372009,455.636169 236.206497,443.679932 225.391876,430.606201 
	C214.392197,417.308746 204.251328,403.229279 194.583115,388.918854 
	C180.238907,367.687256 168.724060,344.882599 158.582291,321.324493 
	C149.049362,299.180695 141.244507,276.485992 135.691238,253.084686 
	C132.126373,238.062393 129.119904,222.826157 127.191650,207.518478 
	C125.015572,190.243408 123.721970,172.800537 123.152687,155.394394 
	C122.480614,134.844940 122.994972,114.256691 122.994972,92.999466 
	C123.991249,92.999466 125.749039,92.999466 127.506836,92.999466 
	C312.283356,92.999504 497.060303,92.798676 681.835876,93.208725 
	C710.687012,93.272743 738.783386,99.668533 765.772827,110.316978 
	C787.576904,118.919563 807.938171,130.195755 826.529785,144.341904 
	C843.457031,157.221680 858.562012,172.067184 871.735779,188.972351 
	C882.309875,202.541489 891.713013,216.789261 899.392578,232.059158 
	C908.006958,249.187683 915.114136,267.067017 918.874268,285.952057 
	C921.514404,299.211517 922.989990,312.702850 924.661987,326.235229 
	C921.216858,314.050293 919.022766,301.390228 914.771301,289.463501 
	C907.065002,267.844666 893.864868,249.586044 876.775146,233.959351 
	C876.355164,233.935852 876.186584,233.940247 876.005676,233.968170 
	C875.993408,233.991669 876.045654,233.982925 875.954529,233.741974 
	C875.580261,233.319458 875.297119,233.137894 875.005676,232.978790 
	C874.997375,233.001236 875.043091,232.986908 874.942383,232.733795 
	C874.568176,232.242020 874.294678,232.003342 873.935852,231.587830 
	C873.687561,231.193130 873.475586,231.045639 873.018677,230.683411 
	C859.846558,218.647659 845.020935,209.950424 828.679199,203.802246 
	C805.918579,195.239105 782.505615,192.100021 758.252991,194.918198 
	C737.859253,197.287949 718.690125,203.123779 700.891235,213.421539 
	C676.427795,227.575195 651.932678,241.673935 627.443665,255.783356 
	C600.218628,271.469208 572.974487,287.121857 545.758545,302.823486 
	C516.671387,319.604645 487.606720,336.424805 458.533691,353.230499 
	C433.778198,367.540436 409.030823,381.864380 384.268829,396.163086 
	C359.506409,410.462128 334.719055,424.718048 309.964172,439.030090 
	C293.271667,448.680878 276.616547,458.396301 259.944733,468.082794 
z"/>
<path fill="#FF6600" opacity="1.000000" stroke="none" 
	d="
M877.026611,233.987259 
	C893.864868,249.586044 907.065002,267.844666 914.771301,289.463501 
	C919.022766,301.390228 921.216858,314.050293 924.584961,326.682861 
	C924.889038,338.330139 925.066589,349.675262 924.975891,361.018280 
	C924.840393,377.971466 921.745361,394.522980 916.879150,410.667480 
	C913.288086,422.581299 909.111755,434.363617 904.433105,445.894867 
	C896.315979,465.900879 885.064880,484.324066 871.294434,500.768860 
	C860.140259,514.089233 847.177856,525.968689 834.443665,537.873535 
	C819.953308,551.420166 802.909851,561.470642 785.227417,570.188293 
	C763.882935,580.711365 741.455078,588.368347 717.827759,591.921204 
	C708.278809,593.357056 698.611084,594.003662 688.067505,595.015076 
	C645.686707,595.013367 604.235718,594.996765 562.784851,595.033936 
	C561.196350,595.035339 559.608337,595.554626 558.020142,595.832642 
	C556.761963,595.554626 555.506897,595.049622 554.245117,595.032288 
	C533.173950,594.741455 512.274414,592.651001 491.745361,587.943176 
	C471.203217,583.232300 450.449768,578.974670 430.446472,572.490173 
	C399.163391,562.349121 369.347900,548.551147 341.360809,531.065796 
	C340.404205,530.468201 339.278839,530.140564 338.391296,529.235107 
	C339.778900,527.941650 341.068298,527.176270 342.226440,526.247314 
	C356.313812,514.947998 370.353729,503.589355 384.461792,492.315948 
	C403.614258,477.011749 422.844330,461.804626 441.986786,446.488007 
	C461.132751,431.168549 480.170807,415.714111 499.333374,400.415497 
	C514.738342,388.116791 530.318298,376.037048 545.713745,363.726501 
	C568.228577,345.723206 590.602600,327.543732 613.119263,309.542725 
	C640.549133,287.613831 668.238953,266.006683 695.498657,243.869247 
	C728.755859,216.861328 766.459778,205.650223 809.050964,209.873734 
	C829.240479,211.875793 847.793396,218.456055 865.580200,227.780975 
	C868.013306,229.056580 870.664490,229.916260 873.214722,230.968506 
	C873.475586,231.045639 873.687561,231.193130 874.014099,231.861267 
	C874.466125,232.536667 874.754639,232.761795 875.043091,232.986908 
	C875.043091,232.986908 874.997375,233.001236 875.108032,233.211624 
	C875.494324,233.608994 875.769958,233.795959 876.045654,233.982925 
	C876.045654,233.982925 875.993408,233.991669 876.085327,234.146484 
	C876.460388,234.196625 876.743530,234.091934 877.026611,233.987259 
z"/>
<path fill="#000000" opacity="1.000000" stroke="none" 
	d="
M1917.000000,303.000000 
	C1917.000000,256.864227 1917.000000,211.228439 1917.000000,165.243973 
	C1918.610229,165.156235 1920.043945,165.010086 1921.477661,165.009796 
	C1979.463379,164.998306 2037.457397,164.429733 2095.430908,165.273041 
	C2119.538330,165.623734 2143.142090,170.851135 2165.997314,179.327179 
	C2184.947510,186.354904 2202.116455,196.282181 2217.898682,208.582260 
	C2229.177734,217.372742 2238.612793,228.130737 2247.011475,239.776993 
	C2259.976807,257.755798 2268.646973,277.697601 2273.447510,299.186188 
	C2275.847656,309.930450 2276.941406,321.022888 2277.866211,332.021698 
	C2278.548096,340.130737 2278.159668,348.346954 2277.968994,356.508881 
	C2277.468018,377.942871 2272.429443,398.417816 2264.342773,418.174805 
	C2256.059814,438.410553 2243.858643,456.156525 2228.125488,471.178680 
	C2210.557129,487.953156 2190.219971,500.511383 2167.332520,509.155426 
	C2151.251465,515.228821 2134.677246,518.900879 2117.895508,521.874023 
	C2110.669922,523.154114 2103.249023,523.890564 2095.914307,523.910583 
	C2037.262573,524.070618 1978.610107,523.999878 1919.957886,523.999817 
	C1919.151489,523.999817 1918.345093,523.999756 1917.000000,523.999756 
	C1917.000000,450.331696 1917.000000,376.915833 1917.000000,303.000000 
M2189.041016,377.674622 
	C2193.147217,366.127258 2193.566162,353.995392 2193.784424,342.005463 
	C2193.925049,334.287201 2192.239746,326.491119 2190.951904,318.800385 
	C2188.050293,301.473206 2181.052734,285.738007 2169.735840,272.441010 
	C2147.734619,246.590317 2118.325195,235.574265 2085.359863,234.221344 
	C2058.748291,233.129181 2032.056519,233.996353 2005.400269,234.010101 
	C2003.973267,234.010834 2002.546265,234.157822 2001.297363,234.226883 
	C2001.297363,308.032501 2001.297363,381.417511 2001.297363,455.000000 
	C2018.234985,455.000000 2034.881226,455.259888 2051.515381,454.926575 
	C2068.013428,454.596039 2084.546387,454.224640 2100.977539,452.844482 
	C2117.220459,451.480133 2132.259766,445.642120 2146.055176,436.962830 
	C2168.011719,423.148712 2182.392578,403.664642 2189.041016,377.674622 
z"/>
<path fill="#000000" opacity="1.000000" stroke="none" 
	d="
M1468.295166,503.265533 
	C1472.509155,493.676056 1476.462524,484.387177 1480.426880,475.102905 
	C1488.290283,456.686951 1496.098267,438.247070 1504.046265,419.867676 
	C1510.091187,405.888672 1516.401367,392.024323 1522.441284,378.043152 
	C1530.382202,359.661621 1538.126587,341.195251 1546.044800,322.803894 
	C1551.750244,309.552277 1557.652710,296.385590 1563.376221,283.141693 
	C1571.638062,264.024750 1579.771606,244.852264 1588.047852,225.741577 
	C1594.036621,211.912857 1600.173340,198.148254 1606.233887,184.350632 
	C1609.005737,178.040054 1611.753418,171.718781 1614.687744,165.000000 
	C1635.396606,165.000000 1656.543701,165.000000 1677.690918,165.000000 
	C1683.356201,165.000000 1689.032227,164.810806 1694.679688,165.128464 
	C1696.156006,165.211502 1698.290405,166.546234 1698.859131,167.855103 
	C1706.712158,185.927826 1714.274536,204.126511 1722.052612,222.232193 
	C1728.759644,237.844284 1735.715210,253.349350 1742.443237,268.952515 
	C1750.371582,287.339691 1758.138916,305.796234 1766.041016,324.194794 
	C1771.670288,337.301697 1777.438599,350.348877 1783.088501,363.447021 
	C1791.147949,382.131805 1799.137085,400.846863 1807.192139,419.533600 
	C1812.774536,432.483887 1818.444336,445.396515 1824.026611,458.346863 
	C1832.081177,477.032990 1840.083130,495.741791 1848.130737,514.430969 
	C1849.444458,517.481628 1850.877930,520.480591 1852.419678,523.861938 
	C1821.773804,523.861938 1791.801392,523.861938 1761.453369,523.861938 
	C1752.514038,502.690948 1743.558960,481.320740 1734.359131,460.056396 
	C1733.741333,458.628204 1731.276611,457.130798 1729.666504,457.126007 
	C1678.178955,456.972778 1626.690796,456.966644 1575.203369,457.147522 
	C1573.510498,457.153442 1570.970825,458.962280 1570.266846,460.564056 
	C1562.015381,479.336639 1553.696167,498.095306 1546.195190,517.172302 
	C1543.858032,523.116394 1540.765381,524.211731 1535.036987,524.133179 
	C1511.713501,523.813171 1488.383057,524.000000 1465.055176,524.000000 
	C1463.430298,524.000000 1461.805420,524.000000 1459.337769,524.000000 
	C1462.420532,516.761719 1465.229980,510.164978 1468.295166,503.265533 
M1602.918579,385.565002 
	C1600.682129,390.012878 1604.745239,387.899078 1605.713745,387.902649 
	C1637.345459,388.020355 1668.977783,388.001404 1700.609985,387.988220 
	C1701.368408,387.987915 1702.126831,387.822754 1703.495850,387.663391 
	C1686.710815,348.262054 1670.109131,309.290771 1653.328857,269.900513 
	C1652.690918,270.898010 1652.269043,271.400513 1652.015869,271.977051 
	C1647.449829,282.379639 1642.863159,292.773438 1638.364380,303.205170 
	C1632.533203,316.726959 1626.826538,330.302551 1620.972290,343.814301 
	C1615.048950,357.485565 1609.010864,371.107117 1602.918579,385.565002 
z"/>
<path fill="#000000" opacity="1.000000" stroke="none" 
	d="
M1209.000000,165.000000 
	C1241.330688,165.000000 1273.164795,164.704544 1304.990967,165.086395 
	C1334.481079,165.440216 1362.939209,171.204636 1389.178467,185.119720 
	C1409.724609,196.015564 1426.255981,211.402588 1437.573242,232.050430 
	C1446.157104,247.711151 1450.491699,264.393066 1452.179932,282.188293 
	C1454.658203,308.309540 1450.792969,333.146118 1438.795776,356.326416 
	C1428.013672,377.158966 1411.647339,392.843933 1390.917847,404.070984 
	C1374.924194,412.733002 1357.885986,418.334320 1340.194580,421.790253 
	C1330.456177,423.692596 1320.413086,424.720184 1310.489380,424.859894 
	C1282.187012,425.258484 1253.875488,425.000000 1225.169922,425.000000 
	C1225.169922,457.959473 1225.169922,490.698090 1225.169922,523.717407 
	C1197.036621,523.717407 1169.299438,523.717407 1141.280640,523.717407 
	C1141.280640,404.370270 1141.280640,284.972198 1141.280640,165.000000 
	C1163.643188,165.000000 1186.071533,165.000000 1209.000000,165.000000 
M1225.000000,258.500000 
	C1225.000000,291.257080 1225.000000,324.014130 1225.000000,357.000000 
	C1244.532349,357.000000 1263.505615,356.851715 1282.475342,357.047028 
	C1297.590576,357.202637 1312.566528,356.416351 1327.115234,351.972473 
	C1340.226440,347.967773 1351.632812,340.966461 1358.829712,329.188263 
	C1368.970459,312.592651 1370.443359,294.422821 1365.301270,275.794006 
	C1360.054810,256.786987 1347.009766,245.467896 1328.886963,238.875381 
	C1317.047363,234.568497 1304.738892,233.556015 1292.485352,233.179825 
	C1271.343628,232.530746 1250.167480,232.995789 1229.005859,233.010422 
	C1227.735840,233.011292 1226.465820,233.162491 1225.000000,233.256271 
	C1225.000000,241.547852 1225.000000,249.523926 1225.000000,258.500000 
z"/>
<path fill="#000000" opacity="1.000000" stroke="none" 
	d="
M2613.993896,524.000000 
	C2530.522461,524.000000 2447.549316,524.000000 2364.288086,524.000000 
	C2364.288086,404.382690 2364.288086,284.982452 2364.288086,165.291000 
	C2391.946777,165.291000 2419.684570,165.291000 2447.818604,165.291000 
	C2447.818604,261.950867 2447.818604,358.685974 2447.818604,455.818176 
	C2507.948486,455.818176 2567.685547,455.818176 2627.710938,455.818176 
	C2627.710938,478.617554 2627.710938,501.022278 2627.710938,524.000000 
	C2623.363281,524.000000 2618.927734,524.000000 2613.993896,524.000000 
z"/>
<path fill="#DC5800" opacity="1.000000" stroke="none" 
	d="
M873.018677,230.683411 
	C870.664490,229.916260 868.013306,229.056580 865.580200,227.780975 
	C847.793396,218.456055 829.240479,211.875793 809.050964,209.873734 
	C766.459778,205.650223 728.755859,216.861328 695.498657,243.869247 
	C668.238953,266.006683 640.549133,287.613831 613.119263,309.542725 
	C590.602600,327.543732 568.228577,345.723206 545.713745,363.726501 
	C530.318298,376.037048 514.738342,388.116791 499.333374,400.415497 
	C480.170807,415.714111 461.132751,431.168549 441.986786,446.488007 
	C422.844330,461.804626 403.614258,477.011749 384.461792,492.315948 
	C370.353729,503.589355 356.313812,514.947998 342.226440,526.247314 
	C341.068298,527.176270 339.778900,527.941650 338.231232,528.917908 
	C323.119720,518.706848 307.942749,508.860565 293.655396,497.858948 
	C281.955780,488.849945 271.316010,478.464539 260.075562,468.386047 
	C276.616547,458.396301 293.271667,448.680878 309.964172,439.030090 
	C334.719055,424.718048 359.506409,410.462128 384.268829,396.163086 
	C409.030823,381.864380 433.778198,367.540436 458.533691,353.230499 
	C487.606720,336.424805 516.671387,319.604645 545.758545,302.823486 
	C572.974487,287.121857 600.218628,271.469208 627.443665,255.783356 
	C651.932678,241.673935 676.427795,227.575195 700.891235,213.421539 
	C718.690125,203.123779 737.859253,197.287949 758.252991,194.918198 
	C782.505615,192.100021 805.918579,195.239105 828.679199,203.802246 
	C845.020935,209.950424 859.846558,218.647659 873.018677,230.683411 
z"/>
<path fill="#FC7D00" opacity="1.000000" stroke="none" 
	d="
M558.482666,595.903687 
	C559.608337,595.554626 561.196350,595.035339 562.784851,595.033936 
	C604.235718,594.996765 645.686707,595.013367 687.609192,595.050293 
	C686.554321,595.386230 685.028137,595.958374 683.501404,595.959839 
	C641.982727,596.000488 600.463928,595.982788 558.482666,595.903687 
z"/>
<path fill="#DC5800" opacity="1.000000" stroke="none" 
	d="
M874.942383,232.733795 
	C874.754639,232.761795 874.466125,232.536667 874.099426,232.038101 
	C874.294678,232.003342 874.568176,232.242020 874.942383,232.733795 
z"/>
<path fill="#DC5800" opacity="1.000000" stroke="none" 
	d="
M875.954529,233.741974 
	C875.769958,233.795959 875.494324,233.608994 875.116333,233.189178 
	C875.297119,233.137894 875.580261,233.319458 875.954529,233.741974 
z"/>
<path fill="#DC5800" opacity="1.000000" stroke="none" 
	d="
M876.775146,233.959351 
	C876.743530,234.091934 876.460388,234.196625 876.097656,234.122986 
	C876.186584,233.940247 876.355164,233.935852 876.775146,233.959351 
z"/>
<path fill="#FFFFFF" opacity="1.000000" stroke="none" 
	d="
M2189.021973,378.097961 
	C2182.392578,403.664642 2168.011719,423.148712 2146.055176,436.962830 
	C2132.259766,445.642120 2117.220459,451.480133 2100.977539,452.844482 
	C2084.546387,454.224640 2068.013428,454.596039 2051.515381,454.926575 
	C2034.881226,455.259888 2018.234985,455.000000 2001.297363,455.000000 
	C2001.297363,381.417511 2001.297363,308.032501 2001.297363,234.226883 
	C2002.546265,234.157822 2003.973267,234.010834 2005.400269,234.010101 
	C2032.056519,233.996353 2058.748291,233.129181 2085.359863,234.221344 
	C2118.325195,235.574265 2147.734619,246.590317 2169.735840,272.441010 
	C2181.052734,285.738007 2188.050293,301.473206 2190.951904,318.800385 
	C2192.239746,326.491119 2193.925049,334.287201 2193.784424,342.005463 
	C2193.566162,353.995392 2193.147217,366.127258 2189.021973,378.097961 
z"/>
<path fill="#FFFFFF" opacity="1.000000" stroke="none" 
	d="
M1602.970825,385.157715 
	C1609.010864,371.107117 1615.048950,357.485565 1620.972290,343.814301 
	C1626.826538,330.302551 1632.533203,316.726959 1638.364380,303.205170 
	C1642.863159,292.773438 1647.449829,282.379639 1652.015869,271.977051 
	C1652.269043,271.400513 1652.690918,270.898010 1653.328857,269.900513 
	C1670.109131,309.290771 1686.710815,348.262054 1703.495850,387.663391 
	C1702.126831,387.822754 1701.368408,387.987915 1700.609985,387.988220 
	C1668.977783,388.001404 1637.345459,388.020355 1605.713745,387.902649 
	C1604.745239,387.899078 1600.682129,390.012878 1602.970825,385.157715 
z"/>
<path fill="#FFFFFF" opacity="1.000000" stroke="none" 
	d="
M1225.000000,258.000000 
	C1225.000000,249.523926 1225.000000,241.547852 1225.000000,233.256271 
	C1226.465820,233.162491 1227.735840,233.011292 1229.005859,233.010422 
	C1250.167480,232.995789 1271.343628,232.530746 1292.485352,233.179825 
	C1304.738892,233.556015 1317.047363,234.568497 1328.886963,238.875381 
	C1347.009766,245.467896 1360.054810,256.786987 1365.301270,275.794006 
	C1370.443359,294.422821 1368.970459,312.592651 1358.829712,329.188263 
	C1351.632812,340.966461 1340.226440,347.967773 1327.115234,351.972473 
	C1312.566528,356.416351 1297.590576,357.202637 1282.475342,357.047028 
	C1263.505615,356.851715 1244.532349,357.000000 1225.000000,357.000000 
	C1225.000000,324.014130 1225.000000,291.257080 1225.000000,258.000000 
z"/>
</svg>