<?xml version="1.0" encoding="UTF-8"?>
<svg id="Layer_1" xmlns="http://www.w3.org/2000/svg" version="1.1" viewBox="0 0 400 245">
  <!-- Generator: Adobe Illustrator 29.1.0, SVG Export Plug-In . SVG Version: 2.1.0 Build 142)  -->
  <defs>
    <style>
      .st0 {
        fill: #de3412;
      }
    </style>
  </defs>
  <g>
    <path class="st0" d="M85.676349,103.7489638l-3.9121578,3.9121578c6.4851598,6.4851598,6.4851598,16.9953236,0,23.4767237-6.4813944,6.4851598-16.9953293,6.4851598-23.4767237,0-6.4851569-6.4813944-6.4851569-16.9953236,0-23.4767237h-.0037596l10.3408945-10.3446541,1.3955904-1.3955904h.0037596v-7.8205589l-15.6524024,15.6523995c-8.6443676,8.6443676-8.6443676,22.6604372,0,31.3048047,8.6443676,8.6443733,22.6604372,8.6443733,31.3048047,0,8.6443676-8.6443676,8.6443676-22.6604372,0-31.3048047"/>
    <path class="st0" d="M79.87582,101.8756426c1.1247481-1.1247481,1.1247481-2.9454058,0-4.0701482-1.1247481-1.1247481-2.9454058-1.1247481-4.0701539,0s-1.1247481,2.9454058,0,4.0701539,2.9454058,1.1247481,4.0701539,0"/>
  </g>
  <g>
    <path d="M131.7011719,104.5019531h-12.6376953v-4.5615234h30.7607422v4.5615234h-12.6992188v36.9873047h-5.4238281v-36.9873047Z"/>
    <path d="M176.7929688,126.3242188c0,11.0351562-7.7060547,15.8427734-14.8564453,15.8427734-8.0146484,0-14.3017578-5.9179688-14.3017578-15.3496094,0-9.9248047,6.5957031-15.78125,14.7949219-15.78125,8.5683594,0,14.3632812,6.2265625,14.3632812,15.2880859ZM153.1826172,126.6328125c0,6.5341797,3.6982422,11.4658203,9,11.4658203,5.1787109,0,9.0625-4.8701172,9.0625-11.5888672,0-5.0556641-2.5283203-11.4052734-8.9384766-11.4052734-6.3496094,0-9.1240234,5.9179688-9.1240234,11.5283203Z"/>
    <path d="M183.6201172,120.9609375c0-3.5136719-.0615234-6.5341797-.2460938-9.3076172h4.7460938l.2470703,5.9179688h.1845703c1.3564453-4.0078125,4.6855469-6.5351562,8.3222656-6.5351562.5546875,0,.9863281.0615234,1.4794922.1230469v5.1171875c-.5546875-.1230469-1.109375-.1230469-1.8496094-.1230469-3.8222656,0-6.5341797,2.8349609-7.2734375,6.9042969-.1240234.7392578-.1855469,1.6640625-.1855469,2.5273438v15.9042969h-5.4248047v-20.5283203Z"/>
    <path d="M224.4775391,140.4414062c-1.4179688.6777344-4.5615234,1.7255859-8.5683594,1.7255859-9,0-14.8564453-6.1025391-14.8564453-15.2265625,0-9.1845703,6.2871094-15.9042969,16.0273438-15.9042969,3.2060547,0,6.0410156.8017578,7.5214844,1.6035156l-1.2333984,4.1298828c-1.2949219-.6787109-3.3291016-1.4179688-6.2880859-1.4179688-6.8427734,0-10.5410156,5.1162109-10.5410156,11.28125,0,6.9042969,4.4384766,11.1572266,10.3564453,11.1572266,3.0820312,0,5.1162109-.7392578,6.6572266-1.4169922l.9248047,4.0683594Z"/>
    <path d="M230.3261719,97.7207031h5.4248047v18.6787109h.1230469c.8632812-1.5410156,2.2197266-2.9589844,3.8837891-3.8837891,1.6035156-.9248047,3.5136719-1.4794922,5.5488281-1.4794922,4.0068359,0,10.4179688,2.4658203,10.4179688,12.6992188v17.7539062h-5.4248047v-17.1376953c0-4.8076172-1.7880859-8.8154297-6.9042969-8.8154297-3.5146484,0-6.2265625,2.4658203-7.2744141,5.3632812-.3085938.8017578-.3701172,1.6035156-.3701172,2.5898438v18h-5.4248047v-43.7685547Z"/>
    <path d="M264.5742188,100.4951172c2.7128906-.4931641,6.6582031-.8632812,10.2949219-.8632812,5.7333984,0,9.4941406,1.109375,12.0214844,3.390625,2.0341797,1.8496094,3.2666016,4.6855469,3.2666016,7.9521484,0,5.4248047-3.4521484,9.0615234-7.7666016,10.5419922v.1845703c3.1435547,1.109375,5.0546875,4.0683594,6.0410156,8.3837891,1.3564453,5.7949219,2.3427734,9.8017578,3.2050781,11.4042969h-5.5478516c-.6777344-1.2324219-1.6025391-4.7470703-2.7119141-9.9248047-1.2333984-5.7333984-3.5136719-7.890625-8.3837891-8.0751953h-5.0556641v18h-5.3632812v-40.9941406ZM269.9375,119.4199219h5.4863281c5.7333984,0,9.3710938-3.1435547,9.3710938-7.890625,0-5.3632812-3.8837891-7.7050781-9.5556641-7.7050781-2.5888672,0-4.3769531.1845703-5.3017578.4306641v15.1650391Z"/>
    <path d="M300.6962891,127.5576172c.1240234,7.3359375,4.7470703,10.3564453,10.2333984,10.3564453,3.8837891,0,6.2880859-.6787109,8.2607422-1.5410156l.9863281,3.8837891c-1.9111328.8623047-5.2402344,1.9101562-9.9873047,1.9101562-9.1845703,0-14.6708984-6.1025391-14.6708984-15.1025391,0-9.0009766,5.3017578-16.0283203,13.9931641-16.0283203,9.8017578,0,12.3291016,8.5078125,12.3291016,13.9941406,0,1.109375-.0615234,1.9101562-.1845703,2.5273438h-20.9599609ZM316.6015625,123.6738281c.0615234-3.390625-1.4179688-8.7539062-7.5214844-8.7539062-5.5478516,0-7.890625,4.9931641-8.3222656,8.7539062h15.84375Z"/>
    <path d="M350.2626953,140.4414062c-1.4179688.6777344-4.5615234,1.7255859-8.5683594,1.7255859-9,0-14.8564453-6.1025391-14.8564453-15.2265625,0-9.1845703,6.2871094-15.9042969,16.0273438-15.9042969,3.2060547,0,6.0410156.8017578,7.5214844,1.6035156l-1.2333984,4.1298828c-1.2949219-.6787109-3.3291016-1.4179688-6.2880859-1.4179688-6.8427734,0-10.5410156,5.1162109-10.5410156,11.28125,0,6.9042969,4.4384766,11.1572266,10.3564453,11.1572266,3.0820312,0,5.1162109-.7392578,6.6572266-1.4169922l.9248047,4.0683594Z"/>
  </g>
</svg>