<svg version="1.1" id="Layer_1" xmlns="http://www.w3.org/2000/svg" xmlns:xlink="http://www.w3.org/1999/xlink" x="0px" y="0px"
	 width="100%" viewBox="0 0 547 166" enable-background="new 0 0 547 166" xml:space="preserve">
<path fill="#FEFEFE" opacity="1.000000" stroke="none" 
	d="
M452.000000,167.000000 
	C301.333374,167.000000 151.166718,167.000000 1.000060,167.000000 
	C1.000040,111.666702 1.000040,56.333408 1.000020,1.000083 
	C183.333267,1.000055 365.666534,1.000055 547.999878,1.000028 
	C547.999878,56.333252 547.999878,111.666504 547.999939,166.999878 
	C516.166687,167.000000 484.333344,167.000000 452.000000,167.000000 
M514.967712,92.870193 
	C509.597168,111.002777 498.786835,119.100426 479.876862,119.126503 
	C468.217957,119.142578 456.538483,119.539841 444.908600,118.958542 
	C439.000916,118.663254 435.843719,121.435120 432.271515,126.020172 
	C449.267487,126.020172 465.539764,126.033394 481.812073,126.016075 
	C495.346863,126.001671 506.408173,120.861282 514.520752,109.898682 
	C523.301025,98.033806 524.680237,84.881058 519.110657,71.601265 
	C513.362549,57.895611 502.492889,48.775860 487.528046,48.192665 
	C461.934753,47.195263 436.253143,47.186642 410.653046,48.061577 
	C391.558655,48.714161 377.222565,63.890961 375.118469,83.110985 
	C373.145752,101.130997 384.304932,118.195229 401.971252,123.951004 
	C405.073730,124.961800 408.354492,125.425331 412.142303,126.273590 
	C412.142303,131.547119 412.142303,136.691177 412.142303,142.058273 
	C422.330841,136.106857 417.503265,127.149055 418.609924,119.319939 
	C415.601715,119.160599 413.270569,119.132034 410.959869,118.899918 
	C389.910278,116.785355 376.751007,96.335884 383.539459,76.330505 
	C388.305176,62.285965 400.189240,54.287106 416.827454,54.211975 
	C438.146210,54.115704 459.466156,54.124187 480.784576,54.252510 
	C484.405823,54.274307 488.125427,54.733788 491.623016,55.658791 
	C507.771454,59.929543 516.156006,73.093498 514.967712,92.870193 
M39.901340,102.526932 
	C39.901340,100.262779 39.901340,97.998634 39.901340,96.581032 
	C48.048218,95.337814 55.594360,94.900490 62.712547,92.922836 
	C72.027061,90.334961 77.073845,82.208450 76.910263,72.372635 
	C76.742928,62.311237 71.553467,54.127773 62.127262,52.320492 
	C52.659103,50.505161 42.831944,50.562267 32.959316,49.782795 
	C32.959316,73.899666 32.959316,96.680779 32.959316,119.624878 
	C35.235687,119.624878 37.322044,119.624878 39.901333,119.624878 
	C39.901333,114.107475 39.901333,108.815651 39.901340,102.526932 
M333.571655,68.835449 
	C329.622742,70.717239 325.673828,72.599037 321.093079,74.781921 
	C321.093079,64.305260 321.093079,54.270145 321.093079,43.941956 
	C318.572388,44.481079 316.655457,44.891071 314.639618,45.322220 
	C314.639618,70.337196 314.639618,95.220161 314.639618,120.332230 
	C316.870605,120.332230 318.808960,120.332230 321.236694,120.332230 
	C321.236694,109.414993 321.641205,98.611176 321.080994,87.857613 
	C320.758423,81.665131 323.613495,78.518814 328.651520,76.629082 
	C331.398346,75.598770 334.403931,74.857704 337.318695,74.760231 
	C343.189423,74.563934 346.467743,77.196373 347.070190,83.129105 
	C347.739990,89.725151 347.635742,96.405174 347.749329,103.050682 
	C347.844696,108.631294 347.768921,114.214828 347.768921,119.721298 
	C350.454285,119.721298 352.534363,119.721298 354.810822,119.721298 
	C354.810822,107.626877 355.205872,95.816948 354.701294,84.045570 
	C354.182068,71.932152 346.658813,66.551933 333.571655,68.835449 
M208.570526,118.201973 
	C216.046982,113.802345 219.854340,106.933662 220.678574,98.618462 
	C221.670959,88.606743 219.701141,79.263931 211.244324,72.655563 
	C203.951218,66.956551 195.652802,66.211021 187.207077,69.553589 
	C173.412918,75.012917 167.565811,91.980232 173.944672,107.116608 
	C178.790329,118.614883 192.901550,125.858246 208.570526,118.201973 
M120.382454,89.994698 
	C123.023499,83.231850 125.664543,76.469002 128.312622,69.688133 
	C123.466209,68.110603 121.040398,69.408798 119.498154,74.071724 
	C116.480774,83.194649 112.800209,92.098724 109.373032,101.085327 
	C108.243279,104.047752 107.048386,106.985336 105.609299,110.627739 
	C100.054337,96.177963 94.843002,82.622040 89.813362,69.538742 
	C87.052879,69.538742 85.026451,69.538742 82.528358,69.538742 
	C87.813400,83.003532 92.391281,96.180519 98.164688,108.811020 
	C101.658737,116.454956 101.410767,122.992714 97.891571,130.356552 
	C93.383690,139.789169 90.605873,141.421036 80.241585,138.291809 
	C79.591057,140.229660 78.939407,142.170883 78.005630,144.952530 
	C81.925713,145.532516 85.134148,146.401016 88.344337,146.407547 
	C97.566368,146.426331 101.026230,139.502502 103.872940,132.444885 
	C109.455406,118.604691 114.715088,104.634300 120.382454,89.994698 
M152.119019,57.805111 
	C153.851776,57.544067 155.581619,57.083260 157.317810,57.057880 
	C163.568878,56.966503 169.822083,57.021980 175.998337,57.021980 
	C175.998337,54.524292 175.998337,52.621845 175.998337,50.749550 
	C157.438690,50.749550 139.229065,50.749550 120.992325,50.749550 
	C120.992325,53.137981 120.992325,55.201225 120.992325,57.686638 
	C129.062500,57.686638 136.799713,57.686638 144.989853,57.686638 
	C144.989853,78.654663 144.989853,99.195686 144.989853,119.780083 
	C147.533691,119.780083 149.604111,119.780083 152.029388,119.780083 
	C152.029388,99.280884 152.029388,79.021111 152.119019,57.805111 
M271.835754,91.788635 
	C272.252441,85.856567 274.310150,80.692894 279.393585,77.282791 
	C287.467255,71.866760 295.520020,74.546638 303.587982,78.187218 
	C304.183716,76.036201 304.660431,74.314873 305.230743,72.255600 
	C297.053345,67.424500 288.574951,66.175987 279.872528,69.603363 
	C266.710541,74.787086 260.916931,90.891876 266.388489,106.015060 
	C271.046478,118.889580 284.320343,124.547646 298.951477,119.895241 
	C305.210999,117.904831 305.388489,117.565628 303.554565,111.444443 
	C299.772339,112.584839 296.062775,114.249367 292.199432,114.767616 
	C279.727356,116.440704 271.706390,107.595589 271.835754,91.788635 
M410.550812,102.865395 
	C413.511414,103.347313 414.194031,101.898560 414.124908,99.182220 
	C413.964569,92.880630 414.073883,86.572174 414.073883,80.266502 
	C418.323944,85.944389 421.636841,91.697281 424.925537,97.463974 
	C428.527588,103.780159 428.643250,103.838020 436.793213,102.121231 
	C436.793213,93.272026 436.793213,84.317719 436.793213,75.363403 
	C436.793213,73.736061 436.793213,72.108719 436.793213,70.334732 
	C434.449371,70.334732 432.588867,70.334732 430.285400,70.334732 
	C430.285400,77.686005 430.285400,84.691895 430.285400,91.697777 
	C426.224579,86.586327 422.729736,81.366432 420.113556,75.738106 
	C417.538544,70.198387 413.834656,68.713791 407.960938,70.589539 
	C407.960938,80.629959 407.929230,90.748894 408.033356,100.866409 
	C408.040161,101.529984 409.086121,102.182854 410.550812,102.865395 
M238.361771,97.527199 
	C236.425018,82.268440 247.166611,71.002754 260.697662,76.222687 
	C261.235046,74.339699 261.764343,72.485008 262.340759,70.465340 
	C252.471985,65.405342 245.136703,68.688705 238.920944,77.453621 
	C238.742981,73.687981 238.614426,70.967697 238.472961,67.974365 
	C235.974350,68.500923 234.073303,68.901550 232.109879,69.315323 
	C232.109879,86.249588 232.109879,102.992508 232.109879,119.733246 
	C234.277573,119.733246 236.176102,119.733246 238.361649,119.733246 
	C238.361649,112.478439 238.361649,105.498581 238.361771,97.527199 
M495.286377,81.969727 
	C495.391357,73.720619 492.308044,70.355255 484.174225,70.051292 
	C480.565002,69.916412 476.946564,70.028526 473.325378,70.028526 
	C473.325378,81.229736 473.325378,91.935501 473.325378,102.557350 
	C475.642456,102.557350 477.569305,102.557350 480.101532,102.557350 
	C480.101532,98.559044 480.101532,94.847267 480.101532,91.204178 
	C486.906738,90.699234 493.421478,90.790405 495.286377,81.969727 
M453.056946,78.545937 
	C453.056946,75.774254 453.056946,73.002579 453.056946,70.377457 
	C450.366760,70.377457 448.317413,70.377457 446.397888,70.377457 
	C446.397888,81.340721 446.397888,91.912437 446.397888,102.491837 
	C453.134949,102.491837 459.522552,102.491837 465.934509,102.491837 
	C465.934509,100.538383 465.934509,98.953712 465.934509,96.893631 
	C461.585022,96.893631 457.496948,96.893631 453.056946,96.893631 
	C453.056946,90.792549 453.056946,85.163757 453.056946,78.545937 
z"/>
<path fill="#F05634" opacity="1.000000" stroke="none" 
	d="
M515.000488,92.427887 
	C516.156006,73.093498 507.771454,59.929543 491.623016,55.658791 
	C488.125427,54.733788 484.405823,54.274307 480.784576,54.252510 
	C459.466156,54.124187 438.146210,54.115704 416.827454,54.211975 
	C400.189240,54.287106 388.305176,62.285965 383.539459,76.330505 
	C376.751007,96.335884 389.910278,116.785355 410.959869,118.899918 
	C413.270569,119.132034 415.601715,119.160599 418.609924,119.319939 
	C417.503265,127.149055 422.330841,136.106857 412.142303,142.058273 
	C412.142303,136.691177 412.142303,131.547119 412.142303,126.273590 
	C408.354492,125.425331 405.073730,124.961800 401.971252,123.951004 
	C384.304932,118.195229 373.145752,101.130997 375.118469,83.110985 
	C377.222565,63.890961 391.558655,48.714161 410.653046,48.061577 
	C436.253143,47.186642 461.934753,47.195263 487.528046,48.192665 
	C502.492889,48.775860 513.362549,57.895611 519.110657,71.601265 
	C524.680237,84.881058 523.301025,98.033806 514.520752,109.898682 
	C506.408173,120.861282 495.346863,126.001671 481.812073,126.016075 
	C465.539764,126.033394 449.267487,126.020172 432.271515,126.020172 
	C435.843719,121.435120 439.000916,118.663254 444.908600,118.958542 
	C456.538483,119.539841 468.217957,119.142578 479.876862,119.126503 
	C498.786835,119.100426 509.597168,111.002777 515.000488,92.427887 
z"/>
<path fill="#302F2F" opacity="1.000000" stroke="none" 
	d="
M39.901337,103.025375 
	C39.901333,108.815651 39.901333,114.107475 39.901333,119.624878 
	C37.322044,119.624878 35.235687,119.624878 32.959316,119.624878 
	C32.959316,96.680779 32.959316,73.899666 32.959316,49.782795 
	C42.831944,50.562267 52.659103,50.505161 62.127262,52.320492 
	C71.553467,54.127773 76.742928,62.311237 76.910263,72.372635 
	C77.073845,82.208450 72.027061,90.334961 62.712547,92.922836 
	C55.594360,94.900490 48.048218,95.337814 39.901340,96.581032 
	C39.901340,97.998634 39.901340,100.262779 39.901337,103.025375 
M39.651524,81.464050 
	C39.651524,83.880333 39.651524,86.296616 39.651524,89.716949 
	C46.725956,88.744949 53.207336,88.441422 59.357803,86.854996 
	C66.425499,85.031975 69.855675,79.403709 69.622604,72.242950 
	C69.393456,65.202499 65.425125,59.752506 58.312645,58.395912 
	C52.391415,57.266533 46.246964,57.307491 39.651402,56.786644 
	C39.651402,65.289009 39.651402,72.881844 39.651524,81.464050 
z"/>
<path fill="#323131" opacity="1.000000" stroke="none" 
	d="
M333.968475,68.710739 
	C346.658813,66.551933 354.182068,71.932152 354.701294,84.045570 
	C355.205872,95.816948 354.810822,107.626877 354.810822,119.721298 
	C352.534363,119.721298 350.454285,119.721298 347.768921,119.721298 
	C347.768921,114.214828 347.844696,108.631294 347.749329,103.050682 
	C347.635742,96.405174 347.739990,89.725151 347.070190,83.129105 
	C346.467743,77.196373 343.189423,74.563934 337.318695,74.760231 
	C334.403931,74.857704 331.398346,75.598770 328.651520,76.629082 
	C323.613495,78.518814 320.758423,81.665131 321.080994,87.857613 
	C321.641205,98.611176 321.236694,109.414993 321.236694,120.332230 
	C318.808960,120.332230 316.870605,120.332230 314.639618,120.332230 
	C314.639618,95.220161 314.639618,70.337196 314.639618,45.322220 
	C316.655457,44.891071 318.572388,44.481079 321.093079,43.941956 
	C321.093079,54.270145 321.093079,64.305260 321.093079,74.781921 
	C325.673828,72.599037 329.622742,70.717239 333.968475,68.710739 
z"/>
<path fill="#2E2D2D" opacity="1.000000" stroke="none" 
	d="
M208.257660,118.411911 
	C192.901550,125.858246 178.790329,118.614883 173.944672,107.116608 
	C167.565811,91.980232 173.412918,75.012917 187.207077,69.553589 
	C195.652802,66.211021 203.951218,66.956551 211.244324,72.655563 
	C219.701141,79.263931 221.670959,88.606743 220.678574,98.618462 
	C219.854340,106.933662 216.046982,113.802345 208.257660,118.411911 
M192.294632,74.316582 
	C184.365250,76.327995 180.304855,81.952133 179.158844,89.545692 
	C177.891159,97.945343 178.863586,106.331856 186.453003,111.489059 
	C189.840637,113.791039 194.964478,114.907227 199.089844,114.488350 
	C209.917679,113.388901 215.571075,103.641685 214.036362,90.386818 
	C212.744171,79.226669 205.115997,73.304726 192.294632,74.316582 
z"/>
<path fill="#2F2E2E" opacity="1.000000" stroke="none" 
	d="
M120.245399,90.356247 
	C114.715088,104.634300 109.455406,118.604691 103.872940,132.444885 
	C101.026230,139.502502 97.566368,146.426331 88.344337,146.407547 
	C85.134148,146.401016 81.925713,145.532516 78.005630,144.952530 
	C78.939407,142.170883 79.591057,140.229660 80.241585,138.291809 
	C90.605873,141.421036 93.383690,139.789169 97.891571,130.356552 
	C101.410767,122.992714 101.658737,116.454956 98.164688,108.811020 
	C92.391281,96.180519 87.813400,83.003532 82.528358,69.538742 
	C85.026451,69.538742 87.052879,69.538742 89.813362,69.538742 
	C94.843002,82.622040 100.054337,96.177963 105.609299,110.627739 
	C107.048386,106.985336 108.243279,104.047752 109.373032,101.085327 
	C112.800209,92.098724 116.480774,83.194649 119.498154,74.071724 
	C121.040398,69.408798 123.466209,68.110603 128.312622,69.688133 
	C125.664543,76.469002 123.023499,83.231850 120.245399,90.356247 
z"/>
<path fill="#302F2F" opacity="1.000000" stroke="none" 
	d="
M152.074203,58.283226 
	C152.029388,79.021111 152.029388,99.280884 152.029388,119.780083 
	C149.604111,119.780083 147.533691,119.780083 144.989853,119.780083 
	C144.989853,99.195686 144.989853,78.654663 144.989853,57.686638 
	C136.799713,57.686638 129.062500,57.686638 120.992325,57.686638 
	C120.992325,55.201225 120.992325,53.137981 120.992325,50.749550 
	C139.229065,50.749550 157.438690,50.749550 175.998337,50.749550 
	C175.998337,52.621845 175.998337,54.524292 175.998337,57.021980 
	C169.822083,57.021980 163.568878,56.966503 157.317810,57.057880 
	C155.581619,57.083260 153.851776,57.544067 152.074203,58.283226 
z"/>
<path fill="#2D2C2C" opacity="1.000000" stroke="none" 
	d="
M271.810242,92.240013 
	C271.706390,107.595589 279.727356,116.440704 292.199432,114.767616 
	C296.062775,114.249367 299.772339,112.584839 303.554565,111.444443 
	C305.388489,117.565628 305.210999,117.904831 298.951477,119.895241 
	C284.320343,124.547646 271.046478,118.889580 266.388489,106.015060 
	C260.916931,90.891876 266.710541,74.787086 279.872528,69.603363 
	C288.574951,66.175987 297.053345,67.424500 305.230743,72.255600 
	C304.660431,74.314873 304.183716,76.036201 303.587982,78.187218 
	C295.520020,74.546638 287.467255,71.866760 279.393585,77.282791 
	C274.310150,80.692894 272.252441,85.856567 271.810242,92.240013 
z"/>
<path fill="#F05734" opacity="1.000000" stroke="none" 
	d="
M410.099762,102.853043 
	C409.086121,102.182854 408.040161,101.529984 408.033356,100.866409 
	C407.929230,90.748894 407.960938,80.629959 407.960938,70.589539 
	C413.834656,68.713791 417.538544,70.198387 420.113556,75.738106 
	C422.729736,81.366432 426.224579,86.586327 430.285400,91.697777 
	C430.285400,84.691895 430.285400,77.686005 430.285400,70.334732 
	C432.588867,70.334732 434.449371,70.334732 436.793213,70.334732 
	C436.793213,72.108719 436.793213,73.736061 436.793213,75.363403 
	C436.793213,84.317719 436.793213,93.272026 436.793213,102.121231 
	C428.643250,103.838020 428.527588,103.780159 424.925537,97.463974 
	C421.636841,91.697281 418.323944,85.944389 414.073883,80.266502 
	C414.073883,86.572174 413.964569,92.880630 414.124908,99.182220 
	C414.194031,101.898560 413.511414,103.347313 410.099762,102.853043 
z"/>
<path fill="#2C2B2B" opacity="1.000000" stroke="none" 
	d="
M238.361710,98.022964 
	C238.361649,105.498581 238.361649,112.478439 238.361649,119.733246 
	C236.176102,119.733246 234.277573,119.733246 232.109879,119.733246 
	C232.109879,102.992508 232.109879,86.249588 232.109879,69.315323 
	C234.073303,68.901550 235.974350,68.500923 238.472961,67.974365 
	C238.614426,70.967697 238.742981,73.687981 238.920944,77.453621 
	C245.136703,68.688705 252.471985,65.405342 262.340759,70.465340 
	C261.764343,72.485008 261.235046,74.339699 260.697662,76.222687 
	C247.166611,71.002754 236.425018,82.268440 238.361710,98.022964 
z"/>
<path fill="#EF5330" opacity="1.000000" stroke="none" 
	d="
M495.228699,82.344589 
	C493.421478,90.790405 486.906738,90.699234 480.101532,91.204178 
	C480.101532,94.847267 480.101532,98.559044 480.101532,102.557350 
	C477.569305,102.557350 475.642456,102.557350 473.325378,102.557350 
	C473.325378,91.935501 473.325378,81.229736 473.325378,70.028526 
	C476.946564,70.028526 480.565002,69.916412 484.174225,70.051292 
	C492.308044,70.355255 495.391357,73.720619 495.228699,82.344589 
M488.090820,78.246994 
	C485.622681,77.275307 483.154541,76.303627 480.322632,75.188721 
	C480.322632,79.528893 480.322632,82.417717 480.322632,85.283180 
	C487.116119,85.549866 488.418121,84.480461 488.090820,78.246994 
z"/>
<path fill="#EF5330" opacity="1.000000" stroke="none" 
	d="
M453.056946,79.040451 
	C453.056946,85.163757 453.056946,90.792549 453.056946,96.893631 
	C457.496948,96.893631 461.585022,96.893631 465.934509,96.893631 
	C465.934509,98.953712 465.934509,100.538383 465.934509,102.491837 
	C459.522552,102.491837 453.134949,102.491837 446.397888,102.491837 
	C446.397888,91.912437 446.397888,81.340721 446.397888,70.377457 
	C448.317413,70.377457 450.366760,70.377457 453.056946,70.377457 
	C453.056946,73.002579 453.056946,75.774254 453.056946,79.040451 
z"/>
<path fill="#FCFCFC" opacity="1.000000" stroke="none" 
	d="
M39.651463,80.969368 
	C39.651402,72.881844 39.651402,65.289009 39.651402,56.786644 
	C46.246964,57.307491 52.391415,57.266533 58.312645,58.395912 
	C65.425125,59.752506 69.393456,65.202499 69.622604,72.242950 
	C69.855675,79.403709 66.425499,85.031975 59.357803,86.854996 
	C53.207336,88.441422 46.725956,88.744949 39.651524,89.716949 
	C39.651524,86.296616 39.651524,83.880333 39.651463,80.969368 
z"/>
<path fill="#FDFDFD" opacity="1.000000" stroke="none" 
	d="
M192.707489,74.232872 
	C205.115997,73.304726 212.744171,79.226669 214.036362,90.386818 
	C215.571075,103.641685 209.917679,113.388901 199.089844,114.488350 
	C194.964478,114.907227 189.840637,113.791039 186.453003,111.489059 
	C178.863586,106.331856 177.891159,97.945343 179.158844,89.545692 
	C180.304855,81.952133 184.365250,76.327995 192.707489,74.232872 
z"/>
<path fill="#FEF8F7" opacity="1.000000" stroke="none" 
	d="
M488.218323,78.611702 
	C488.418121,84.480461 487.116119,85.549866 480.322632,85.283180 
	C480.322632,82.417717 480.322632,79.528893 480.322632,75.188721 
	C483.154541,76.303627 485.622681,77.275307 488.218323,78.611702 
z"/>
</svg>