<?xml version="1.0" encoding="UTF-8"?>
<svg id="Layer_1" xmlns="http://www.w3.org/2000/svg" version="1.1" viewBox="0 0 400 245">
  <!-- Generator: Adobe Illustrator 29.1.0, SVG Export Plug-In . SVG Version: 2.1.0 Build 142)  -->
  <defs>
    <style>
      .st0 {
        fill: #de3412;
      }
    </style>
  </defs>
  <g>
    <path class="st0" d="M103.4010227,103.7488443l-3.9121578,3.9121578c6.4851598,6.4851598,6.4851598,16.9953236,0,23.4767237-6.4813944,6.4851598-16.9953293,6.4851598-23.4767237,0-6.4851569-6.4813944-6.4851569-16.9953236,0-23.4767237h-.0037596l10.3408945-10.3446541,1.3955904-1.3955904h.0037596v-7.8205589l-15.6524024,15.6523995c-8.6443676,8.6443676-8.6443676,22.6604372,0,31.3048047,8.6443676,8.6443733,22.6604372,8.6443733,31.3048047,0,8.6443676-8.6443676,8.6443676-22.6604372,0-31.3048047"/>
    <path class="st0" d="M97.6004937,101.8755231c1.1247481-1.1247481,1.1247481-2.9454058,0-4.0701482-1.1247481-1.1247481-2.9454058-1.1247481-4.0701539,0s-1.1247481,2.9454058,0,4.0701539,2.9454058,1.1247481,4.0701539,0"/>
  </g>
  <g>
    <path d="M147.8847656,104.5024414v7.1508789h7.7675781v4.1303711h-7.7675781v16.0893555c0,3.6982422,1.0488281,5.7939453,4.0693359,5.7939453,1.4794922,0,2.3417969-.1230469,3.1435547-.3701172l.2460938,4.1308594c-1.0478516.3701172-2.7119141.7392578-4.8076172.7392578-2.5273438,0-4.5615234-.8623047-5.8564453-2.2802734-1.4794922-1.6650391-2.0957031-4.3154297-2.0957031-7.8291016v-16.2739258h-4.6240234v-4.1303711h4.6240234v-5.5483398l5.3007812-1.6025391Z"/>
    <path d="M187.9599609,126.3242188c0,11.0351562-7.7060547,15.8427734-14.8564453,15.8427734-8.0136719,0-14.3017578-5.9179688-14.3017578-15.3496094,0-9.9243164,6.5957031-15.7807617,14.7949219-15.7807617,8.5683594,0,14.3632812,6.2265625,14.3632812,15.2875977ZM164.3496094,126.6328125c0,6.5341797,3.6992188,11.4658203,9,11.4658203,5.1787109,0,9.0625-4.8701172,9.0625-11.5888672,0-5.0546875-2.5273438-11.4042969-8.9394531-11.4042969-6.3486328,0-9.1230469,5.9179688-9.1230469,11.5273438Z"/>
    <path d="M194.7871094,120.9619141c0-3.5141602-.0615234-6.534668-.2460938-9.3085938h4.7460938l.2470703,5.9179688h.1845703c1.3564453-4.0068359,4.6855469-6.534668,8.3222656-6.534668.5546875,0,.9863281.0620117,1.4794922.1235352v5.1166992c-.5546875-.1235352-1.109375-.1235352-1.8496094-.1235352-3.8212891,0-6.5341797,2.8359375-7.2744141,6.9042969-.1230469.7392578-.1845703,1.6640625-.1845703,2.5273438v15.9042969h-5.4248047v-20.5273438Z"/>
    <path d="M235.6445312,140.4414062c-1.4179688.6777344-4.5615234,1.7255859-8.5683594,1.7255859-9,0-14.8564453-6.1025391-14.8564453-15.2255859,0-9.1850586,6.2880859-15.9047852,16.0273438-15.9047852,3.2060547,0,6.0419922.8017578,7.5205078,1.6030273l-1.2324219,4.1303711c-1.2949219-.6782227-3.3291016-1.4179688-6.2880859-1.4179688-6.8427734,0-10.5410156,5.1166992-10.5410156,11.2807617,0,6.9042969,4.4384766,11.1582031,10.3564453,11.1582031,3.0820312,0,5.1162109-.7402344,6.6572266-1.4179688l.9248047,4.0683594Z"/>
    <path d="M241.4931641,97.7211914h5.4248047v18.6787109h.1230469c.8632812-1.5410156,2.2197266-2.9589844,3.8837891-3.8837891,1.6025391-.9243164,3.5136719-1.4794922,5.5478516-1.4794922,4.0078125,0,10.4189453,2.4658203,10.4189453,12.6987305v17.7539062h-5.4248047v-17.1376953c0-4.8076172-1.7880859-8.8144531-6.9042969-8.8144531-3.5136719,0-6.2265625,2.4658203-7.2744141,5.362793-.3085938.8017578-.3701172,1.6030273-.3701172,2.5883789v18.0009766h-5.4248047v-43.7680664Z"/>
    <path d="M296.34375,134.3378906c0,2.5898438.1230469,5.1171875.4316406,7.1513672h-4.8701172l-.4316406-3.7607422h-.1855469c-1.6640625,2.3427734-4.8701172,4.4384766-9.1230469,4.4384766-6.0410156,0-9.1240234-4.2529297-9.1240234-8.5683594,0-7.2128906,6.4111328-11.1572266,17.9394531-11.0957031v-.6166992c0-2.4038086-.6787109-6.9042969-6.78125-6.8422852-2.8359375,0-5.7333984.8012695-7.8291016,2.2192383l-1.2324219-3.637207c2.4658203-1.5410156,6.1025391-2.5893555,9.8632812-2.5893555,9.1230469,0,11.3427734,6.2265625,11.3427734,12.144043v11.1572266ZM291.1035156,126.2626953c-5.9179688-.1230469-12.6376953.9248047-12.6376953,6.7197266,0,3.5751953,2.3427734,5.1777344,5.0556641,5.1777344,3.9453125,0,6.4726562-2.4658203,7.3359375-4.9931641.1845703-.6162109.2460938-1.2324219.2460938-1.7255859v-5.1787109Z"/>
    <path d="M332.0458984,126.3242188c0,11.0351562-7.7060547,15.8427734-14.8564453,15.8427734-8.0136719,0-14.3017578-5.9179688-14.3017578-15.3496094,0-9.9243164,6.5957031-15.7807617,14.7949219-15.7807617,8.5683594,0,14.3632812,6.2265625,14.3632812,15.2875977ZM308.4355469,126.6328125c0,6.5341797,3.6992188,11.4658203,9,11.4658203,5.1787109,0,9.0625-4.8701172,9.0625-11.5888672,0-5.0546875-2.5273438-11.4042969-8.9394531-11.4042969-6.3486328,0-9.1230469,5.9179688-9.1230469,11.5273438Z"/>
  </g>
</svg>