<svg version="1.1" id="Layer_1" xmlns="http://www.w3.org/2000/svg" xmlns:xlink="http://www.w3.org/1999/xlink" x="0px" y="0px"
	 width="100%" viewBox="0 0 1301 330" enable-background="new 0 0 1301 330" xml:space="preserve">
<path fill="#FFFFFF" opacity="1.000000" stroke="none" 
	d="
M917.000000,331.000000 
	C611.333374,331.000000 306.166779,331.000000 1.000123,331.000000 
	C1.000082,221.000076 1.000082,111.000145 1.000041,1.000167 
	C434.666504,1.000111 868.333008,1.000111 1301.999634,1.000056 
	C1301.999756,110.999825 1301.999756,220.999649 1301.999878,330.999756 
	C1173.833374,331.000000 1045.666626,331.000000 917.000000,331.000000 
M106.032898,116.790062 
	C106.077774,117.859268 106.122643,118.928467 106.035011,120.791344 
	C106.079086,121.860306 106.123169,122.929260 106.020714,124.822800 
	C106.069496,126.214127 106.118279,127.605453 106.034904,129.823044 
	C106.078712,131.213379 106.122528,132.603714 106.035027,134.789932 
	C106.078842,135.861343 106.122658,136.932755 106.036079,138.830643 
	C106.079643,140.221695 106.123207,141.612762 106.035400,143.853714 
	C106.078804,145.569382 106.122208,147.285034 106.035439,149.828384 
	C106.079140,151.220520 106.122849,152.612656 106.035400,154.831589 
	C106.079063,156.222794 106.122726,157.613998 106.035133,159.831436 
	C106.078529,161.221695 106.121925,162.611969 106.033363,164.796692 
	C106.077736,165.866196 106.122101,166.935715 106.020996,168.829147 
	C106.068512,170.220001 106.116028,171.610870 106.030350,173.795868 
	C106.074692,174.864960 106.119034,175.934052 106.029282,177.797501 
	C106.074791,178.867233 106.120308,179.936966 106.031967,181.856430 
	C106.076340,183.573395 106.120712,185.290359 106.030731,187.935074 
	C106.030731,208.184372 106.030731,228.433670 106.030731,248.997955 
	C140.554642,248.997955 174.497757,249.008987 208.440659,248.938263 
	C209.345810,248.936371 210.653244,248.283859 211.089874,247.535919 
	C214.854050,241.087646 218.461090,234.547623 222.767136,227.730286 
	C223.477692,226.259308 224.188248,224.788330 225.395859,223.022690 
	C225.967880,222.029404 226.539902,221.036118 227.703308,219.727844 
	C228.171417,218.499405 228.639542,217.270966 229.667923,215.766708 
	C230.145935,214.861313 230.623947,213.955902 231.691544,212.729797 
	C232.164642,211.500244 232.637756,210.270706 233.666733,208.760071 
	C234.146149,207.856888 234.625565,206.953705 235.688980,205.725128 
	C236.161667,204.499908 236.634338,203.274689 237.746948,201.729370 
	C238.455826,200.260254 239.164703,198.791153 240.358994,197.025650 
	C240.941681,196.034058 241.524368,195.042450 242.718185,193.671127 
	C243.412262,191.889984 244.106339,190.108841 245.337708,188.044205 
	C246.169693,186.695160 247.001678,185.346115 248.126480,183.404373 
	C248.787552,182.285141 249.448608,181.165894 250.686096,179.713974 
	C251.160110,178.492172 251.634140,177.270355 252.690475,175.779480 
	C253.163574,174.868561 253.636673,173.957642 254.637833,172.784348 
	C254.776398,172.222000 254.914963,171.659637 255.613876,170.801071 
	C256.109894,169.884750 256.605896,168.968430 257.633179,167.791733 
	C257.772949,167.228043 257.912689,166.664368 258.596741,165.828064 
	C258.748566,165.252350 258.900421,164.676636 259.657898,163.743195 
	C259.716583,162.827805 259.775269,161.912399 259.949066,160.315796 
	C259.006927,158.865448 258.064819,157.415100 257.007751,155.297318 
	C256.376862,154.184753 255.745987,153.072174 255.003189,151.293365 
	C254.279709,150.194702 253.556229,149.096054 252.774994,147.345795 
	C252.127716,146.229553 251.480423,145.113312 250.743378,143.313232 
	C247.621323,138.148727 244.411728,133.034821 241.393173,127.810516 
	C231.036514,109.885918 220.746796,91.922646 210.618362,74.299118 
	C175.550598,74.299118 140.955444,74.299118 106.169502,74.299118 
	C106.169502,81.060143 106.169502,87.525253 106.028877,94.816223 
	C106.075600,96.208168 106.122322,97.600105 106.030434,99.817909 
	C106.077469,101.209267 106.124504,102.600624 106.034378,104.785233 
	C106.079826,105.853989 106.125282,106.922737 106.028458,108.784943 
	C106.074928,109.855095 106.121407,110.925247 106.032875,112.788879 
	C106.077446,113.858017 106.122009,114.927162 106.032898,116.790062 
M1157.000000,174.430725 
	C1156.664917,165.644562 1157.047607,156.756271 1155.815796,148.097717 
	C1154.225464,136.920319 1149.120605,127.091629 1141.282104,118.731926 
	C1129.671875,106.349800 1115.440674,98.964905 1098.603027,98.162117 
	C1081.598511,97.351387 1064.525024,97.983475 1047.269287,97.983475 
	C1047.269287,142.840988 1047.269287,188.222321 1047.269287,233.001724 
	C1064.596680,233.001724 1081.671509,233.548035 1098.694214,232.840607 
	C1114.211548,232.195740 1128.028198,225.813904 1139.082397,215.098251 
	C1150.081055,204.436508 1155.462036,190.599808 1157.000000,174.430725 
M380.569550,109.043205 
	C375.298004,106.033569 370.358032,101.931480 364.694733,100.212608 
	C345.218628,94.301422 325.120300,98.001236 305.245056,96.865746 
	C305.245056,142.908188 305.245056,188.303650 305.245056,233.752411 
	C310.231903,233.752411 314.970001,233.752411 320.097656,233.752411 
	C320.097656,217.770416 320.097656,202.031036 320.097656,186.000000 
	C324.788025,186.000000 329.114868,186.305008 333.383759,185.937286 
	C342.631378,185.140732 352.093842,184.984650 361.022003,182.768311 
	C374.307495,179.470322 384.974579,172.242752 390.279205,158.495850 
	C393.924561,149.048950 394.849884,139.571121 392.872650,129.858475 
	C391.251282,121.893814 387.715668,114.764236 380.569550,109.043205 
M997.568604,162.890259 
	C994.620056,162.446457 991.671448,162.002640 988.427612,161.514374 
	C997.578369,158.121490 1005.705383,153.824844 1012.752136,147.032974 
	C1021.817871,138.295090 1022.016724,119.928299 1016.250671,110.837914 
	C1008.930847,99.298103 997.413147,95.045456 984.561584,94.080002 
	C968.003479,92.836113 953.440186,98.422394 940.104736,108.283806 
	C941.984314,112.691055 943.780518,116.902664 945.659424,121.308281 
	C959.135498,110.531540 973.394348,104.718987 990.396667,109.000412 
	C999.037598,111.176323 1006.591797,120.239815 1005.861816,128.659805 
	C1005.166870,136.675751 1000.495605,142.606415 993.952332,146.982574 
	C984.360535,153.397675 973.547852,156.935593 962.556824,160.067001 
	C961.199219,160.453781 959.340576,161.909058 959.167786,163.083191 
	C958.697266,166.279633 959.006104,169.590790 959.006104,172.000000 
	C966.458252,172.000000 973.215210,172.184952 979.957764,171.951584 
	C987.783142,171.680740 994.596375,173.929474 1001.029846,178.400482 
	C1013.387573,186.988602 1012.935974,205.452072 1002.438965,214.720123 
	C991.851929,224.067535 978.770752,224.615799 965.698364,222.126663 
	C958.143799,220.688187 950.887573,217.683044 943.272766,215.313217 
	C942.234497,219.301025 941.146973,223.478149 940.053894,227.676575 
	C940.809326,228.215149 941.290466,228.700226 941.872498,228.952225 
	C956.361877,235.225433 971.208191,238.680313 987.192871,236.082062 
	C1004.105530,233.332947 1020.685974,222.636383 1024.291382,203.643448 
	C1028.063354,183.772263 1017.403931,167.110062 997.568604,162.890259 
M921.972473,149.795029 
	C919.961975,146.347458 918.388855,142.532761 915.860291,139.520050 
	C907.758545,129.867340 891.039307,127.657188 878.641785,132.989197 
	C871.522400,136.051163 864.887939,140.240784 858.013794,143.934296 
	C858.013794,124.078850 858.013794,103.672516 858.013794,83.072037 
	C853.189087,84.178505 848.705139,85.206825 844.218323,86.235794 
	C844.218323,135.504852 844.218323,184.575500 844.218323,233.780548 
	C848.842224,233.780548 853.245728,233.780548 858.000000,233.780548 
	C858.000000,231.939362 858.000000,230.312363 858.000000,228.685364 
	C858.000000,206.530716 857.939148,184.375626 858.102173,162.222153 
	C858.117126,160.197906 858.993591,157.505524 860.445984,156.280655 
	C867.521545,150.313614 875.428894,146.035812 884.826111,144.464310 
	C891.992554,143.265884 903.799805,146.027222 906.706909,154.507736 
	C908.358521,159.325699 909.765015,164.496597 909.854309,169.533875 
	C910.208496,189.516754 909.995239,209.509613 910.009827,229.498764 
	C910.010864,230.934952 910.152344,232.371048 910.223450,233.711121 
	C914.985474,233.711121 919.391235,233.711121 924.000000,233.711121 
	C924.000000,209.457474 924.083618,185.491501 923.910950,161.527344 
	C923.884705,157.889160 922.668274,154.259552 921.972473,149.795029 
M669.000000,186.300385 
	C668.666687,181.722336 668.548279,177.116455 667.959839,172.571426 
	C666.175293,158.787094 660.184265,147.233704 648.766907,139.028061 
	C638.512390,131.658173 627.047668,129.410278 614.415955,130.876602 
	C597.679749,132.819397 585.380859,140.776672 577.197998,155.397263 
	C571.130981,166.237473 570.543640,177.998993 570.970520,190.012299 
	C571.420715,202.676804 575.895142,213.873184 584.541260,222.822144 
	C596.144592,234.831924 610.619629,238.591782 627.249023,236.168076 
	C641.707031,234.060837 652.519775,226.988098 660.323303,215.084061 
	C665.816406,206.704391 667.896545,197.080170 669.000000,186.300385 
M444.473816,259.017853 
	C446.642151,253.675415 448.881744,248.360641 450.967010,242.985977 
	C463.067932,211.796158 475.129791,180.591171 487.212097,149.394104 
	C489.260162,144.106003 491.343353,138.831482 493.571869,133.137878 
	C487.849213,133.137878 483.049988,133.137878 478.129822,133.137878 
	C468.172089,159.832260 458.243622,186.448181 447.852020,214.305664 
	C437.232025,186.472534 427.049072,159.784744 416.898071,133.180664 
	C411.469238,133.180664 406.354889,133.180664 400.794250,133.180664 
	C401.533752,134.769241 402.191284,136.016998 402.709930,137.320023 
	C414.374084,166.624405 426.039856,195.928162 437.644501,225.256104 
	C438.638947,227.769302 440.485901,230.899231 439.756348,232.977097 
	C436.419678,242.480286 432.566711,251.829468 428.389130,261.001648 
	C424.949310,268.553925 419.280029,273.510040 410.263000,271.912415 
	C406.237244,271.199127 402.377777,269.547150 397.875153,268.144318 
	C396.638275,271.815735 395.224030,275.700134 394.099213,279.666626 
	C393.915619,280.314056 394.810303,281.768860 395.544037,282.097687 
	C403.290039,285.569336 411.517731,287.355286 419.822357,285.557434 
	C433.611786,282.572144 439.581787,271.703705 444.473816,259.017853 
M488.503296,97.000000 
	C483.403503,97.000000 478.303741,97.000000 473.289734,97.000000 
	C473.289734,101.984924 473.289734,106.391708 473.289734,111.183533 
	C489.316620,111.183533 505.057281,111.183533 521.180786,111.183533 
	C521.180786,152.315659 521.180786,193.050735 521.180786,233.709869 
	C526.317017,233.709869 531.055847,233.709869 536.179077,233.709869 
	C536.179077,192.686600 536.179077,151.952072 536.179077,110.824173 
	C552.310242,110.824173 568.051819,110.824173 583.709717,110.824173 
	C583.709717,106.014000 583.709717,101.607185 583.709717,97.000000 
	C552.113892,97.000000 520.807861,97.000000 488.503296,97.000000 
M796.635376,144.000000 
	C806.039673,143.931931 814.843262,146.118271 822.935669,150.990967 
	C824.648254,152.022156 826.296509,152.720901 826.982483,149.893814 
	C827.868469,146.241791 828.763306,142.591904 829.655457,138.936737 
	C815.341064,130.649261 800.370544,127.951973 784.643677,132.086426 
	C767.147583,136.685959 756.076843,148.141861 750.966248,165.513290 
	C747.681213,176.679398 747.496582,187.815491 749.949219,199.165833 
	C752.523682,211.080429 758.121521,221.108871 768.243042,227.949951 
	C787.391541,240.892426 807.169800,239.315903 826.989746,229.394104 
	C827.887451,228.944733 829.016785,227.486618 828.882080,226.695282 
	C828.218811,222.800629 827.164917,218.972504 826.164185,214.764526 
	C816.393555,220.522171 806.556335,223.586441 795.645264,223.054855 
	C782.552612,222.416962 771.654114,214.445969 766.976990,202.096100 
	C763.778198,193.649841 762.461182,185.180496 763.856201,175.998672 
	C766.544617,158.303818 776.831665,146.020477 796.635376,144.000000 
M705.026245,142.700043 
	C703.539429,145.031891 702.052551,147.363739 699.908691,150.726059 
	C699.908691,143.105026 699.908691,136.743271 699.908691,130.288147 
	C695.082397,131.364807 690.571350,132.371140 686.306030,133.322662 
	C686.306030,167.077118 686.306030,200.451843 686.306030,233.694885 
	C691.019836,233.694885 695.422913,233.694885 700.000000,233.694885 
	C700.000000,215.596329 700.309570,197.794205 699.846802,180.012192 
	C699.663269,172.956482 701.350037,166.842117 705.025024,161.139511 
	C709.044922,154.901581 713.253235,148.909271 720.658508,145.925095 
	C728.998779,142.564026 736.334167,145.112823 743.661926,148.774261 
	C744.682617,145.408203 745.908203,142.084763 746.621765,138.654816 
	C746.900940,137.312622 746.352295,134.643250 745.633545,134.430939 
	C739.820740,132.713928 733.859741,130.222946 727.978455,130.309494 
	C718.940308,130.442520 711.277466,134.964172 705.026245,142.700043 
z"/>
<path fill="#FFB000" opacity="1.000000" stroke="none" 
	d="
M1157.000000,174.888138 
	C1155.462036,190.599808 1150.081055,204.436508 1139.082397,215.098251 
	C1128.028198,225.813904 1114.211548,232.195740 1098.694214,232.840607 
	C1081.671509,233.548035 1064.596680,233.001724 1047.269287,233.001724 
	C1047.269287,188.222321 1047.269287,142.840988 1047.269287,97.983475 
	C1064.525024,97.983475 1081.598511,97.351387 1098.603027,98.162117 
	C1115.440674,98.964905 1129.671875,106.349800 1141.282104,118.731926 
	C1149.120605,127.091629 1154.225464,136.920319 1155.815796,148.097717 
	C1157.047607,156.756271 1156.664917,165.644562 1157.000000,174.888138 
M1099.353516,218.999146 
	C1100.943604,218.665512 1102.556152,218.413513 1104.120361,217.985321 
	C1116.794312,214.515991 1127.766846,208.452972 1134.619507,196.753159 
	C1143.216553,182.075211 1144.479614,166.208878 1140.871460,149.930313 
	C1137.430908,134.407516 1128.110840,123.125870 1113.791260,116.453873 
	C1097.310425,108.774864 1079.667236,111.237976 1062.361084,111.082260 
	C1062.361084,147.677826 1062.361084,183.733658 1062.361084,219.995010 
	C1073.041260,219.995010 1083.361938,220.037308 1093.681641,219.950653 
	C1095.279297,219.937241 1096.871826,219.333176 1099.353516,218.999146 
z"/>
<path fill="#000000" opacity="1.000000" stroke="none" 
	d="
M380.819031,109.316322 
	C387.715668,114.764236 391.251282,121.893814 392.872650,129.858475 
	C394.849884,139.571121 393.924561,149.048950 390.279205,158.495850 
	C384.974579,172.242752 374.307495,179.470322 361.022003,182.768311 
	C352.093842,184.984650 342.631378,185.140732 333.383759,185.937286 
	C329.114868,186.305008 324.788025,186.000000 320.097656,186.000000 
	C320.097656,202.031036 320.097656,217.770416 320.097656,233.752411 
	C314.970001,233.752411 310.231903,233.752411 305.245056,233.752411 
	C305.245056,188.303650 305.245056,142.908188 305.245056,96.865746 
	C325.120300,98.001236 345.218628,94.301422 364.694733,100.212608 
	C370.358032,101.931480 375.298004,106.033569 380.819031,109.316322 
M368.541351,162.976776 
	C373.739227,159.211044 376.688110,153.793701 377.577606,147.778931 
	C380.090759,130.785126 374.807922,118.236641 357.835449,113.475746 
	C345.966827,110.146530 332.897614,111.097443 320.225647,110.126045 
	C320.225647,131.563126 320.225647,151.611099 320.225647,171.998779 
	C327.895905,171.998779 335.419281,172.654770 342.776611,171.829971 
	C351.640198,170.836334 360.799622,169.879456 368.541351,162.976776 
z"/>
<path fill="#FFB000" opacity="1.000000" stroke="none" 
	d="
M997.992065,162.936371 
	C1017.403931,167.110062 1028.063354,183.772263 1024.291382,203.643448 
	C1020.685974,222.636383 1004.105530,233.332947 987.192871,236.082062 
	C971.208191,238.680313 956.361877,235.225433 941.872498,228.952225 
	C941.290466,228.700226 940.809326,228.215149 940.053894,227.676575 
	C941.146973,223.478149 942.234497,219.301025 943.272766,215.313217 
	C950.887573,217.683044 958.143799,220.688187 965.698364,222.126663 
	C978.770752,224.615799 991.851929,224.067535 1002.438965,214.720123 
	C1012.935974,205.452072 1013.387573,186.988602 1001.029846,178.400482 
	C994.596375,173.929474 987.783142,171.680740 979.957764,171.951584 
	C973.215210,172.184952 966.458252,172.000000 959.006104,172.000000 
	C959.006104,169.590790 958.697266,166.279633 959.167786,163.083191 
	C959.340576,161.909058 961.199219,160.453781 962.556824,160.067001 
	C973.547852,156.935593 984.360535,153.397675 993.952332,146.982574 
	C1000.495605,142.606415 1005.166870,136.675751 1005.861816,128.659805 
	C1006.591797,120.239815 999.037598,111.176323 990.396667,109.000412 
	C973.394348,104.718987 959.135498,110.531540 945.659424,121.308281 
	C943.780518,116.902664 941.984314,112.691055 940.104736,108.283806 
	C953.440186,98.422394 968.003479,92.836113 984.561584,94.080002 
	C997.413147,95.045456 1008.930847,99.298103 1016.250671,110.837914 
	C1022.016724,119.928299 1021.817871,138.295090 1012.752136,147.032974 
	C1005.705383,153.824844 997.578369,158.121490 988.427612,161.514374 
	C991.671448,162.002640 994.620056,162.446457 997.992065,162.936371 
z"/>
<path fill="#000000" opacity="1.000000" stroke="none" 
	d="
M921.987427,150.210510 
	C922.668274,154.259552 923.884705,157.889160 923.910950,161.527344 
	C924.083618,185.491501 924.000000,209.457474 924.000000,233.711121 
	C919.391235,233.711121 914.985474,233.711121 910.223450,233.711121 
	C910.152344,232.371048 910.010864,230.934952 910.009827,229.498764 
	C909.995239,209.509613 910.208496,189.516754 909.854309,169.533875 
	C909.765015,164.496597 908.358521,159.325699 906.706909,154.507736 
	C903.799805,146.027222 891.992554,143.265884 884.826111,144.464310 
	C875.428894,146.035812 867.521545,150.313614 860.445984,156.280655 
	C858.993591,157.505524 858.117126,160.197906 858.102173,162.222153 
	C857.939148,184.375626 858.000000,206.530716 858.000000,228.685364 
	C858.000000,230.312363 858.000000,231.939362 858.000000,233.780548 
	C853.245728,233.780548 848.842224,233.780548 844.218323,233.780548 
	C844.218323,184.575500 844.218323,135.504852 844.218323,86.235794 
	C848.705139,85.206825 853.189087,84.178505 858.013794,83.072037 
	C858.013794,103.672516 858.013794,124.078850 858.013794,143.934296 
	C864.887939,140.240784 871.522400,136.051163 878.641785,132.989197 
	C891.039307,127.657188 907.758545,129.867340 915.860291,139.520050 
	C918.388855,142.532761 919.961975,146.347458 921.987427,150.210510 
z"/>
<path fill="#000000" opacity="1.000000" stroke="none" 
	d="
M669.000000,186.769562 
	C667.896545,197.080170 665.816406,206.704391 660.323303,215.084061 
	C652.519775,226.988098 641.707031,234.060837 627.249023,236.168076 
	C610.619629,238.591782 596.144592,234.831924 584.541260,222.822144 
	C575.895142,213.873184 571.420715,202.676804 570.970520,190.012299 
	C570.543640,177.998993 571.130981,166.237473 577.197998,155.397263 
	C585.380859,140.776672 597.679749,132.819397 614.415955,130.876602 
	C627.047668,129.410278 638.512390,131.658173 648.766907,139.028061 
	C660.184265,147.233704 666.175293,158.787094 667.959839,172.571426 
	C668.548279,177.116455 668.666687,181.722336 669.000000,186.769562 
M586.943298,196.489502 
	C589.724976,210.669846 603.618713,226.552307 624.740784,223.092178 
	C636.964661,221.089722 645.023071,214.698914 650.264038,203.552200 
	C654.057190,195.484726 654.445496,187.252609 653.979248,178.754639 
	C653.372131,167.687775 649.213806,158.467316 640.641052,150.994797 
	C626.131104,138.347092 598.597900,142.668076 589.883606,162.207962 
	C584.985474,173.191010 583.904114,184.270660 586.943298,196.489502 
z"/>
<path fill="#000000" opacity="1.000000" stroke="none" 
	d="
M444.255005,259.349487 
	C439.581787,271.703705 433.611786,282.572144 419.822357,285.557434 
	C411.517731,287.355286 403.290039,285.569336 395.544037,282.097687 
	C394.810303,281.768860 393.915619,280.314056 394.099213,279.666626 
	C395.224030,275.700134 396.638275,271.815735 397.875153,268.144318 
	C402.377777,269.547150 406.237244,271.199127 410.263000,271.912415 
	C419.280029,273.510040 424.949310,268.553925 428.389130,261.001648 
	C432.566711,251.829468 436.419678,242.480286 439.756348,232.977097 
	C440.485901,230.899231 438.638947,227.769302 437.644501,225.256104 
	C426.039856,195.928162 414.374084,166.624405 402.709930,137.320023 
	C402.191284,136.016998 401.533752,134.769241 400.794250,133.180664 
	C406.354889,133.180664 411.469238,133.180664 416.898071,133.180664 
	C427.049072,159.784744 437.232025,186.472534 447.852020,214.305664 
	C458.243622,186.448181 468.172089,159.832260 478.129822,133.137878 
	C483.049988,133.137878 487.849213,133.137878 493.571869,133.137878 
	C491.343353,138.831482 489.260162,144.106003 487.212097,149.394104 
	C475.129791,180.591171 463.067932,211.796158 450.967010,242.985977 
	C448.881744,248.360641 446.642151,253.675415 444.255005,259.349487 
z"/>
<path fill="#812CE5" opacity="1.000000" stroke="none" 
	d="
M106.169502,93.990364 
	C106.169502,87.525253 106.169502,81.060143 106.169502,74.299118 
	C140.955444,74.299118 175.550598,74.299118 210.618362,74.299118 
	C220.746796,91.922646 231.036514,109.885918 241.393173,127.810516 
	C244.411728,133.034821 247.621323,138.148727 250.408173,143.647675 
	C248.345535,143.473022 246.618256,142.963455 244.890625,142.454987 
	C239.887543,140.982468 234.884323,139.510406 229.579346,137.866959 
	C222.758667,126.287964 216.239838,114.880173 209.188065,102.539764 
	C209.033203,105.797859 208.933533,107.894417 208.469879,109.943893 
	C203.460129,108.594421 198.814377,107.292030 194.102173,105.526428 
	C194.035736,99.805206 194.035736,94.547203 194.035736,89.433182 
	C176.744919,89.433182 160.154465,89.433182 142.294846,89.433182 
	C160.281982,99.693817 177.118698,109.298203 193.971497,119.327194 
	C193.974365,121.168045 193.961166,122.584290 193.552246,123.999969 
	C192.026779,123.786469 190.841751,123.725426 189.775696,123.337433 
	C177.145691,118.740654 164.548904,114.051865 151.896027,109.519524 
	C150.393265,108.981239 148.609375,109.227699 146.593994,109.052254 
	C137.968155,104.418724 129.704132,99.843346 121.259079,95.167732 
	C121.076126,96.382492 120.954773,97.188263 120.469765,97.945679 
	C115.460571,96.594994 110.815041,95.292679 106.169502,93.990364 
z"/>
<path fill="#FFB000" opacity="1.000000" stroke="none" 
	d="
M222.114990,228.034958 
	C218.461090,234.547623 214.854050,241.087646 211.089874,247.535919 
	C210.653244,248.283859 209.345810,248.936371 208.440659,248.938263 
	C174.497757,249.008987 140.554642,248.997955 106.030731,248.997955 
	C106.030731,228.433670 106.030731,208.184372 106.477295,187.477020 
	C111.560005,188.348724 116.196144,189.678497 120.899902,191.472076 
	C120.967522,203.912323 120.967522,215.888748 120.967522,228.466278 
	C124.872940,226.188873 127.783478,224.434952 130.746262,222.774231 
	C140.786346,217.146530 150.844940,211.551804 161.228348,206.090546 
	C164.709579,207.532028 167.954895,208.640656 170.973053,210.191391 
	C172.844162,211.152786 174.370483,212.785263 175.881149,214.421570 
	C164.959946,220.878021 154.209183,227.029358 142.605820,233.668549 
	C160.435532,233.668549 177.083664,233.668549 194.161591,233.668549 
	C194.161591,224.561264 194.161591,215.782776 194.554657,207.003235 
	C199.577255,208.336472 204.206787,209.670792 208.902893,211.446350 
	C208.995636,214.552490 209.021805,217.217407 209.035156,220.278931 
	C209.623993,221.907440 209.928253,223.844650 210.880066,224.245972 
	C214.511917,225.777283 218.352432,226.813705 222.114990,228.034958 
z"/>
<path fill="#000000" opacity="1.000000" stroke="none" 
	d="
M489.002563,97.000000 
	C520.807861,97.000000 552.113892,97.000000 583.709717,97.000000 
	C583.709717,101.607185 583.709717,106.014000 583.709717,110.824173 
	C568.051819,110.824173 552.310242,110.824173 536.179077,110.824173 
	C536.179077,151.952072 536.179077,192.686600 536.179077,233.709869 
	C531.055847,233.709869 526.317017,233.709869 521.180786,233.709869 
	C521.180786,193.050735 521.180786,152.315659 521.180786,111.183533 
	C505.057281,111.183533 489.316620,111.183533 473.289734,111.183533 
	C473.289734,106.391708 473.289734,101.984924 473.289734,97.000000 
	C478.303741,97.000000 483.403503,97.000000 489.002563,97.000000 
z"/>
<path fill="#000000" opacity="1.000000" stroke="none" 
	d="
M796.175049,144.000000 
	C776.831665,146.020477 766.544617,158.303818 763.856201,175.998672 
	C762.461182,185.180496 763.778198,193.649841 766.976990,202.096100 
	C771.654114,214.445969 782.552612,222.416962 795.645264,223.054855 
	C806.556335,223.586441 816.393555,220.522171 826.164185,214.764526 
	C827.164917,218.972504 828.218811,222.800629 828.882080,226.695282 
	C829.016785,227.486618 827.887451,228.944733 826.989746,229.394104 
	C807.169800,239.315903 787.391541,240.892426 768.243042,227.949951 
	C758.121521,221.108871 752.523682,211.080429 749.949219,199.165833 
	C747.496582,187.815491 747.681213,176.679398 750.966248,165.513290 
	C756.076843,148.141861 767.147583,136.685959 784.643677,132.086426 
	C800.370544,127.951973 815.341064,130.649261 829.655457,138.936737 
	C828.763306,142.591904 827.868469,146.241791 826.982483,149.893814 
	C826.296509,152.720901 824.648254,152.022156 822.935669,150.990967 
	C814.843262,146.118271 806.039673,143.931931 796.175049,144.000000 
z"/>
<path fill="#000000" opacity="1.000000" stroke="none" 
	d="
M705.215942,142.386414 
	C711.277466,134.964172 718.940308,130.442520 727.978455,130.309494 
	C733.859741,130.222946 739.820740,132.713928 745.633545,134.430939 
	C746.352295,134.643250 746.900940,137.312622 746.621765,138.654816 
	C745.908203,142.084763 744.682617,145.408203 743.662109,148.770905 
	C736.334167,145.112823 728.998779,142.564026 720.658508,145.925095 
	C713.253235,148.909271 709.044922,154.901581 705.025024,161.139511 
	C701.350037,166.842117 699.663269,172.956482 699.846802,180.012192 
	C700.309570,197.794205 700.000000,215.596329 700.000000,233.694885 
	C695.422913,233.694885 691.019836,233.694885 686.306030,233.694885 
	C686.306030,200.451843 686.306030,167.077118 686.306030,133.322662 
	C690.571350,132.371140 695.082397,131.364807 699.908691,130.288147 
	C699.908691,136.743271 699.908691,143.105026 699.908691,150.726059 
	C702.052551,147.363739 703.539429,145.031891 705.215942,142.386414 
z"/>
<path fill="#BB687C" opacity="1.000000" stroke="none" 
	d="
M247.833679,183.997086 
	C247.001678,185.346115 246.169693,186.695160 244.620010,188.091187 
	C239.229538,186.772400 234.556778,185.406616 229.577515,184.026993 
	C228.863785,184.044434 228.456512,184.075684 227.890350,183.785034 
	C226.206161,182.612427 224.707977,181.707993 223.150055,180.921982 
	C219.765961,179.214569 216.351349,177.567612 213.093964,175.593506 
	C214.789139,174.512405 216.339569,173.733765 218.227814,173.099670 
	C228.321640,176.828522 238.077652,180.412811 247.833679,183.997086 
z"/>
<path fill="#8E3ACD" opacity="1.000000" stroke="none" 
	d="
M255.115112,151.959610 
	C255.745987,153.072174 256.376862,154.184753 256.652679,155.640839 
	C254.222992,155.499695 252.084045,155.199158 250.084122,154.500610 
	C236.381485,149.714523 222.708008,144.845016 209.009338,139.602417 
	C208.993866,138.135391 208.994202,137.068329 209.364014,136.039948 
	C217.206528,138.773712 224.659927,141.524887 232.158020,144.148254 
	C239.787460,146.817581 247.460922,149.361023 255.115112,151.959610 
z"/>
<path fill="#933EC5" opacity="1.000000" stroke="none" 
	d="
M209.025131,140.002365 
	C222.708008,144.845016 236.381485,149.714523 250.084122,154.500610 
	C252.084045,155.199158 254.222992,155.499695 256.710144,155.974564 
	C258.064819,157.415100 259.006927,158.865448 259.512573,160.649139 
	C258.277069,160.777634 257.454193,160.638641 256.682678,160.358276 
	C240.786133,154.581635 224.895447,148.788925 208.898315,142.739899 
	C208.545761,141.979370 208.298477,141.478348 208.161652,140.767670 
	C208.462891,140.291229 208.713898,140.106003 209.025131,140.002365 
z"/>
<path fill="#B3618A" opacity="1.000000" stroke="none" 
	d="
M247.980072,183.700729 
	C238.077652,180.412811 228.321640,176.828522 218.404175,172.800903 
	C220.482269,171.198547 222.721832,170.039505 225.114944,169.204163 
	C226.659897,170.348434 227.974167,171.360672 229.455856,171.956833 
	C236.315002,174.716705 243.220673,177.360962 250.109665,180.046646 
	C249.448608,181.165894 248.787552,182.285141 247.980072,183.700729 
z"/>
<path fill="#8935D6" opacity="1.000000" stroke="none" 
	d="
M255.059143,151.626495 
	C247.460922,149.361023 239.787460,146.817581 232.158020,144.148254 
	C224.659927,141.524887 217.206528,138.773712 209.336975,135.800507 
	C208.940430,135.522369 208.893280,135.042770 208.929108,134.702728 
	C208.982101,133.907547 208.999283,133.452408 209.389648,133.040405 
	C214.546982,134.375137 219.331131,135.666748 224.455322,136.982910 
	C226.494049,137.989304 228.192734,138.971191 230.228363,140.098328 
	C237.987808,142.828201 245.410278,145.412796 252.832748,147.997406 
	C253.556229,149.096054 254.279709,150.194702 255.059143,151.626495 
z"/>
<path fill="#AE5B93" opacity="1.000000" stroke="none" 
	d="
M250.397888,179.880310 
	C243.220673,177.360962 236.315002,174.716705 229.455856,171.956833 
	C227.974167,171.360672 226.659897,170.348434 225.282867,168.915543 
	C226.851074,167.496017 228.404938,166.688797 230.019836,166.242218 
	C230.677597,167.096039 231.198410,167.778030 231.882782,168.053146 
	C238.609009,170.756989 245.362442,173.393173 252.108154,176.048538 
	C251.634140,177.270355 251.160110,178.492172 250.397888,179.880310 
z"/>
<path fill="#9642BF" opacity="1.000000" stroke="none" 
	d="
M209.003601,142.999390 
	C224.895447,148.788925 240.786133,154.581635 256.682678,160.358276 
	C257.454193,160.638641 258.277069,160.777634 259.455017,160.989746 
	C259.775269,161.912399 259.716583,162.827805 259.147278,163.625275 
	C245.116653,158.516922 231.601822,153.512146 218.058090,148.586868 
	C217.498932,148.383545 216.668701,148.925705 215.612000,149.060760 
	C213.196945,148.023529 211.134644,147.046036 209.046005,145.686096 
	C209.014313,144.535553 209.008957,143.767471 209.003601,142.999390 
z"/>
<path fill="#9945BA" opacity="1.000000" stroke="none" 
	d="
M215.964752,149.120529 
	C216.668701,148.925705 217.498932,148.383545 218.058090,148.586868 
	C231.601822,153.512146 245.116653,158.516922 258.844482,163.804138 
	C258.900421,164.676636 258.748566,165.252350 258.117432,165.668304 
	C249.183029,162.320618 240.757538,159.049957 232.250580,156.007126 
	C230.299255,155.309158 228.067581,155.394928 225.609985,155.059204 
	C222.158279,153.039108 219.061508,151.079819 215.964752,149.120529 
z"/>
<path fill="#9C48B4" opacity="1.000000" stroke="none" 
	d="
M225.964935,155.120010 
	C228.067581,155.394928 230.299255,155.309158 232.250580,156.007126 
	C240.757538,159.049957 249.183029,162.320618 257.845276,165.804611 
	C257.912689,166.664368 257.772949,167.228043 257.025024,167.772614 
	C249.907120,165.516556 243.397385,163.279617 236.529877,161.011276 
	C232.769699,159.026596 229.367310,157.073303 225.964935,155.120010 
z"/>
<path fill="#C77566" opacity="1.000000" stroke="none" 
	d="
M106.165604,149.000702 
	C106.122208,147.285034 106.078804,145.569382 106.480614,143.436218 
	C111.561363,144.347610 116.196899,145.676483 120.898132,147.429977 
	C120.920326,149.571106 120.876831,151.287628 120.453323,152.994766 
	C115.437408,151.657166 110.801506,150.328934 106.165604,149.000702 
z"/>
<path fill="#F7A80F" opacity="1.000000" stroke="none" 
	d="
M120.832275,191.008270 
	C116.196144,189.678497 111.560005,188.348724 106.544479,187.013138 
	C106.120712,185.290359 106.076340,183.573395 106.472473,181.436935 
	C111.552444,182.347565 116.191910,183.677704 120.898621,185.432571 
	C120.921326,187.574295 120.876801,189.291275 120.832275,191.008270 
z"/>
<path fill="#C27070" opacity="1.000000" stroke="none" 
	d="
M229.884003,184.040817 
	C234.556778,185.406616 239.229538,186.772400 244.351364,188.232941 
	C244.106339,190.108841 243.412262,191.889984 242.075653,193.713089 
	C236.916199,192.155884 232.399277,190.556717 227.938080,188.620636 
	C228.623886,186.869400 229.253937,185.455109 229.884003,184.040817 
z"/>
<path fill="#F7A80F" opacity="1.000000" stroke="none" 
	d="
M222.441071,227.882629 
	C218.352432,226.813705 214.511917,225.777283 210.880066,224.245972 
	C209.928253,223.844650 209.623993,221.907440 209.334641,220.223373 
	C210.086349,219.140610 210.525772,218.510025 211.176819,218.171082 
	C215.891891,220.080933 220.395340,221.699142 224.898804,223.317352 
	C224.188248,224.788330 223.477692,226.259308 222.441071,227.882629 
z"/>
<path fill="#A8549F" opacity="1.000000" stroke="none" 
	d="
M252.399323,175.914001 
	C245.362442,173.393173 238.609009,170.756989 231.882782,168.053146 
	C231.198410,167.778030 230.677597,167.096039 230.150238,165.981079 
	C230.776566,165.224991 231.333511,165.090683 232.271606,165.004929 
	C239.805084,167.717896 246.957428,170.382294 254.109772,173.046692 
	C253.636673,173.957642 253.163574,174.868561 252.399323,175.914001 
z"/>
<path fill="#CF7D58" opacity="1.000000" stroke="none" 
	d="
M106.100525,149.414551 
	C110.801506,150.328934 115.437408,151.657166 120.518494,153.419586 
	C120.920509,155.569916 120.877335,157.286041 120.476486,158.953369 
	C115.468056,157.271301 110.817307,155.638046 106.166557,154.004791 
	C106.122849,152.612656 106.079140,151.220520 106.100525,149.414551 
z"/>
<path fill="#8833D8" opacity="1.000000" stroke="none" 
	d="
M106.099190,94.403290 
	C110.815041,95.292679 115.460571,96.594994 120.539810,98.358475 
	C120.926704,100.211403 120.879906,101.603157 120.444748,102.995537 
	C115.427269,101.661461 110.798149,100.326759 106.169037,98.992050 
	C106.122322,97.600105 106.075600,96.208168 106.099190,94.403290 
z"/>
<path fill="#D5844D" opacity="1.000000" stroke="none" 
	d="
M106.100983,154.418182 
	C110.817307,155.638046 115.468056,157.271301 120.542068,159.366821 
	C120.921776,161.220245 120.878212,162.611420 120.471710,163.951492 
	C115.461304,162.268677 110.813850,160.636948 106.166397,159.005203 
	C106.122726,157.613998 106.079063,156.222794 106.100983,154.418182 
z"/>
<path fill="#C27070" opacity="1.000000" stroke="none" 
	d="
M120.832436,147.005356 
	C116.196899,145.676483 111.561363,144.347610 106.546295,143.011276 
	C106.123207,141.612762 106.079643,140.221695 106.479874,138.424805 
	C111.560204,139.347961 116.196739,140.676956 120.898743,142.418945 
	C120.920280,144.223053 120.876358,145.614212 120.832436,147.005356 
z"/>
<path fill="#AE5B93" opacity="1.000000" stroke="none" 
	d="
M106.167068,128.996780 
	C106.118279,127.605453 106.069496,126.214127 106.456604,124.460464 
	C111.539146,125.730186 116.185791,127.362259 120.898956,129.391541 
	C120.921478,130.858337 120.877487,131.927917 120.440132,132.996841 
	C115.420204,131.663055 110.793633,130.329926 106.167068,128.996780 
z"/>
<path fill="#8631DC" opacity="1.000000" stroke="none" 
	d="
M252.803864,147.671600 
	C245.410278,145.412796 237.987808,142.828201 230.271133,139.779968 
	C229.945007,138.890274 229.913086,138.464218 229.881165,138.038162 
	C234.884323,139.510406 239.887543,140.982468 244.890625,142.454987 
	C246.618256,142.963455 248.345535,143.473022 250.453064,143.989594 
	C251.480423,145.113312 252.127716,146.229553 252.803864,147.671600 
z"/>
<path fill="#8E3ACD" opacity="1.000000" stroke="none" 
	d="
M106.099731,99.404984 
	C110.798149,100.326759 115.427269,101.661461 120.513908,103.408417 
	C120.924416,105.211929 120.877396,106.603172 120.452980,107.987595 
	C115.440910,106.651169 110.806221,105.321571 106.171539,103.991974 
	C106.124504,102.600624 106.077469,101.209267 106.099731,99.404984 
z"/>
<path fill="#CF7D58" opacity="1.000000" stroke="none" 
	d="
M239.873596,197.322052 
	C239.164703,198.791153 238.455826,200.260254 237.100159,201.731812 
	C232.288040,199.785675 228.122711,197.837097 223.984512,195.552475 
	C224.663116,194.103134 225.314590,192.989853 226.177490,192.168152 
	C230.883835,194.080521 235.378708,195.701294 239.873596,197.322052 
z"/>
<path fill="#F0A01B" opacity="1.000000" stroke="none" 
	d="
M225.147339,223.170013 
	C220.395340,221.699142 215.891891,220.080933 211.283264,217.894043 
	C211.837051,216.395615 212.496002,215.465897 213.572235,214.657623 
	C218.363647,216.533646 222.737778,218.288239 227.111938,220.042831 
	C226.539902,221.036118 225.967880,222.029404 225.147339,223.170013 
z"/>
<path fill="#D5844D" opacity="1.000000" stroke="none" 
	d="
M223.957367,195.888535 
	C228.122711,197.837097 232.288040,199.785675 236.780197,201.891846 
	C236.634338,203.274689 236.161667,204.499908 235.069183,205.729004 
	C232.531372,204.837219 230.583954,203.998764 228.702728,203.031555 
	C226.295700,201.794006 223.942017,200.452682 221.736969,198.917877 
	C222.591507,197.749298 223.274445,196.818909 223.957367,195.888535 
z"/>
<path fill="#B3618A" opacity="1.000000" stroke="none" 
	d="
M106.100983,129.409912 
	C110.793633,130.329926 115.420204,131.663055 120.506195,133.410217 
	C120.921761,135.215302 120.877892,136.606384 120.456398,137.989746 
	C115.441292,136.652695 110.803818,135.323364 106.166336,133.994049 
	C106.122528,132.603714 106.078712,131.213379 106.100983,129.409912 
z"/>
<path fill="#E6962D" opacity="1.000000" stroke="none" 
	d="
M106.163544,173.001724 
	C106.116028,171.610870 106.068512,170.220001 106.467056,168.423096 
	C111.552460,169.346817 116.191788,170.676590 120.897820,172.419312 
	C120.920906,174.222870 120.877289,175.613464 120.469360,176.952301 
	C115.457886,175.600937 110.810715,174.301331 106.163544,173.001724 
z"/>
<path fill="#DB8A41" opacity="1.000000" stroke="none" 
	d="
M221.565353,199.156082 
	C223.942017,200.452682 226.295700,201.794006 228.702728,203.031555 
	C230.583954,203.998764 232.531372,204.837219 234.777161,205.891708 
	C234.625565,206.953705 234.146149,207.856888 233.006226,208.852097 
	C227.857605,207.283142 223.369476,205.622162 219.026642,203.650330 
	C219.969742,201.945007 220.767548,200.550552 221.565353,199.156082 
z"/>
<path fill="#C77566" opacity="1.000000" stroke="none" 
	d="
M240.116302,197.173859 
	C235.378708,195.701294 230.883835,194.080521 226.294189,191.889069 
	C226.760406,190.531433 227.321365,189.744492 227.882339,188.957550 
	C232.399277,190.556717 236.916199,192.155884 241.770096,193.902954 
	C241.524368,195.042450 240.941681,196.034058 240.116302,197.173859 
z"/>
<path fill="#F0A01B" opacity="1.000000" stroke="none" 
	d="
M120.831390,185.007843 
	C116.191910,183.677704 111.552444,182.347565 106.539398,181.012070 
	C106.120308,179.936966 106.074791,178.867233 106.488632,177.400070 
	C111.576736,178.336319 116.205498,179.669998 120.901566,181.400879 
	C120.923035,182.867981 120.877213,183.937912 120.831390,185.007843 
z"/>
<path fill="#A8549F" opacity="1.000000" stroke="none" 
	d="
M120.832443,128.994324 
	C116.185791,127.362259 111.539146,125.730186 106.529869,124.048172 
	C106.123169,122.929260 106.079086,121.860306 106.480835,120.403427 
	C111.562424,121.343231 116.198174,122.670944 120.900162,124.411591 
	C120.921745,126.214462 120.877090,127.604393 120.832443,128.994324 
z"/>
<path fill="#DB8A41" opacity="1.000000" stroke="none" 
	d="
M106.100769,159.418320 
	C110.813850,160.636948 115.461304,162.268677 120.537125,164.348663 
	C120.921272,165.866058 120.877060,166.935211 120.452866,167.994812 
	C115.437035,166.657593 110.801178,165.329910 106.165321,164.002228 
	C106.121925,162.611969 106.078529,161.221695 106.100769,159.418320 
z"/>
<path fill="#EB9B24" opacity="1.000000" stroke="none" 
	d="
M227.407623,219.885345 
	C222.737778,218.288239 218.363647,216.533646 213.561310,214.293762 
	C214.074814,212.504349 215.016525,211.200226 216.119781,210.221924 
	C220.556763,212.379333 224.832199,214.210938 229.107651,216.042526 
	C228.639542,217.270966 228.171417,218.499405 227.407623,219.885345 
z"/>
<path fill="#E09038" opacity="1.000000" stroke="none" 
	d="
M106.099342,164.399460 
	C110.801178,165.329910 115.437035,166.657593 120.519119,168.391846 
	C120.920601,169.867737 120.875854,170.937042 120.831116,172.006363 
	C116.191788,170.676590 111.552460,169.346817 106.539795,168.011139 
	C106.122101,166.935715 106.077736,165.866196 106.099342,164.399460 
z"/>
<path fill="#A451A5" opacity="1.000000" stroke="none" 
	d="
M254.373810,172.915527 
	C246.957428,170.382294 239.805084,167.717896 232.423218,164.696716 
	C233.780182,163.522324 235.366638,162.704697 237.014587,162.247025 
	C238.242188,163.410477 239.317947,164.418228 240.590485,164.981140 
	C245.376755,167.098373 250.227158,169.070694 255.053528,171.097290 
	C254.914963,171.659637 254.776398,172.222000 254.373810,172.915527 
z"/>
<path fill="#9945BA" opacity="1.000000" stroke="none" 
	d="
M106.167877,111.995407 
	C106.121407,110.925247 106.074928,109.855095 106.478271,108.398453 
	C111.562546,109.339134 116.197014,110.666290 120.899719,112.390373 
	C120.923256,113.857147 120.878563,114.926994 120.440460,115.996758 
	C115.420670,114.662910 110.794273,113.329163 106.167877,111.995407 
z"/>
<path fill="#E09038" opacity="1.000000" stroke="none" 
	d="
M218.881348,203.961182 
	C223.369476,205.622162 227.857605,207.283142 232.728302,208.992645 
	C232.637756,210.270706 232.164642,211.500244 231.056976,212.743179 
	C225.908432,211.157593 221.394455,209.558624 216.935059,207.627472 
	C217.620224,206.183914 218.250778,205.072556 218.881348,203.961182 
z"/>
<path fill="#933EC5" opacity="1.000000" stroke="none" 
	d="
M120.831490,111.993454 
	C116.197014,110.666290 111.562546,109.339134 106.549408,108.001732 
	C106.125282,106.922737 106.079826,105.853989 106.102959,104.388603 
	C110.806221,105.321571 115.440910,106.651169 120.521324,108.384109 
	C120.921867,109.856125 120.876678,110.924782 120.831490,111.993454 
z"/>
<path fill="#BB687C" opacity="1.000000" stroke="none" 
	d="
M106.100677,134.391998 
	C110.803818,135.323364 115.441292,136.652695 120.522064,138.387436 
	C120.921318,139.863892 120.877296,140.934937 120.833267,142.005966 
	C116.196739,140.676956 111.560204,139.347961 106.545074,138.011566 
	C106.122658,136.932755 106.078842,135.861343 106.100677,134.391998 
z"/>
<path fill="#9F4BAF" opacity="1.000000" stroke="none" 
	d="
M255.333710,170.949188 
	C250.227158,169.070694 245.376755,167.098373 240.590485,164.981140 
	C239.317947,164.418228 238.242188,163.410477 237.016586,162.034485 
	C236.957092,161.462021 236.887665,161.042664 236.887665,161.042664 
	C243.397385,163.279617 249.907120,165.516556 256.759399,167.902802 
	C256.605896,168.968430 256.109894,169.884750 255.333710,170.949188 
z"/>
<path fill="#EB9B24" opacity="1.000000" stroke="none" 
	d="
M120.834267,181.003662 
	C116.205498,179.669998 111.576736,178.336319 106.555679,177.002899 
	C106.119034,175.934052 106.074692,174.864960 106.096947,173.398804 
	C110.810715,174.301331 115.457886,175.600937 120.536301,177.349060 
	C120.923119,178.866287 120.878693,179.934967 120.834267,181.003662 
z"/>
<path fill="#9F4BAF" opacity="1.000000" stroke="none" 
	d="
M106.100372,112.392143 
	C110.794273,113.329163 115.420670,114.662910 120.507889,116.393539 
	C120.924034,117.859924 120.879349,118.929436 120.441635,119.998459 
	C115.421257,118.664093 110.793922,117.330200 106.166580,115.996300 
	C106.122009,114.927162 106.077446,113.858017 106.100372,112.392143 
z"/>
<path fill="#A451A5" opacity="1.000000" stroke="none" 
	d="
M106.099739,116.393181 
	C110.793922,117.330200 115.421257,118.664093 120.508369,120.395111 
	C120.923409,121.861038 120.878670,122.929848 120.833939,123.998657 
	C116.198174,122.670944 111.562424,121.343231 106.547089,120.006592 
	C106.122643,118.928467 106.077774,117.859268 106.099739,116.393181 
z"/>
<path fill="#E6962D" opacity="1.000000" stroke="none" 
	d="
M216.880493,207.959656 
	C221.394455,209.558624 225.908432,211.157593 230.762177,212.903534 
	C230.623947,213.955902 230.145935,214.861313 229.387787,215.904617 
	C224.832199,214.210938 220.556763,212.379333 216.143097,209.929138 
	C216.296722,208.860260 216.588608,208.409958 216.880493,207.959656 
z"/>
<path fill="#FFFFFF" opacity="1.000000" stroke="none" 
	d="
M1098.910156,219.000702 
	C1096.871826,219.333176 1095.279297,219.937241 1093.681641,219.950653 
	C1083.361938,220.037308 1073.041260,219.995010 1062.361084,219.995010 
	C1062.361084,183.733658 1062.361084,147.677826 1062.361084,111.082260 
	C1079.667236,111.237976 1097.310425,108.774864 1113.791260,116.453873 
	C1128.110840,123.125870 1137.430908,134.407516 1140.871460,149.930313 
	C1144.479614,166.208878 1143.216553,182.075211 1134.619507,196.753159 
	C1127.766846,208.452972 1116.794312,214.515991 1104.120361,217.985321 
	C1102.556152,218.413513 1100.943604,218.665512 1098.910156,219.000702 
z"/>
<path fill="#FFFFFF" opacity="1.000000" stroke="none" 
	d="
M368.272766,163.234772 
	C360.799622,169.879456 351.640198,170.836334 342.776611,171.829971 
	C335.419281,172.654770 327.895905,171.998779 320.225647,171.998779 
	C320.225647,151.611099 320.225647,131.563126 320.225647,110.126045 
	C332.897614,111.097443 345.966827,110.146530 357.835449,113.475746 
	C374.807922,118.236641 380.090759,130.785126 377.577606,147.778931 
	C376.688110,153.793701 373.739227,159.211044 368.272766,163.234772 
z"/>
<path fill="#FFFFFF" opacity="1.000000" stroke="none" 
	d="
M586.645020,196.181122 
	C583.904114,184.270660 584.985474,173.191010 589.883606,162.207962 
	C598.597900,142.668076 626.131104,138.347092 640.641052,150.994797 
	C649.213806,158.467316 653.372131,167.687775 653.979248,178.754639 
	C654.445496,187.252609 654.057190,195.484726 650.264038,203.552200 
	C645.023071,214.698914 636.964661,221.089722 624.740784,223.092178 
	C603.618713,226.552307 589.724976,210.669846 586.645020,196.181122 
z"/>
<path fill="#FFFFFF" opacity="1.000000" stroke="none" 
	d="
M120.900162,124.411591 
	C120.878670,122.929848 120.923409,121.861038 120.901398,120.395584 
	C120.879349,118.929436 120.924034,117.859924 120.901291,116.393631 
	C120.878563,114.926994 120.923256,113.857147 120.899719,112.390366 
	C120.876678,110.924782 120.921867,109.856125 120.898712,108.390945 
	C120.877396,106.603172 120.924416,105.211929 120.902267,103.407791 
	C120.879906,101.603157 120.926704,100.211403 120.903465,98.406845 
	C120.954773,97.188263 121.076126,96.382492 121.259079,95.167732 
	C129.704132,99.843346 137.968155,104.418724 146.738541,109.366264 
	C155.148605,114.195618 163.052322,118.652809 171.123703,123.411377 
	C178.827164,128.155823 186.362946,132.598892 193.931915,137.038406 
	C193.965118,137.034836 193.918686,137.082825 193.950821,137.503387 
	C194.044128,139.614670 194.105316,141.305420 194.100494,143.393738 
	C194.078308,144.862091 194.122116,145.932892 194.100555,147.416779 
	C194.078873,149.220566 194.122574,150.611237 194.100739,152.415497 
	C194.079117,154.221649 194.123001,155.614227 194.101868,157.431396 
	C194.080109,159.571243 194.123383,161.286499 194.100891,163.415222 
	C194.078888,165.220474 194.122665,166.612244 194.100662,168.428650 
	C194.078339,170.569321 194.121780,172.285339 194.099945,174.414597 
	C194.077148,176.218170 194.119659,177.608536 194.096161,179.371719 
	C194.074371,180.497360 194.118591,181.250153 194.097839,182.388748 
	C193.338104,184.815216 192.643372,186.855911 191.572510,188.938507 
	C189.004379,190.031570 186.812378,191.082718 184.257477,192.134064 
	C182.581329,193.050278 181.268082,193.966324 179.621765,194.937744 
	C178.175583,195.626343 177.062469,196.259567 175.662201,197.019409 
	C174.567902,197.728607 173.760757,198.311188 172.614761,198.946533 
	C171.149307,199.648712 170.022705,200.298111 168.606155,201.069061 
	C167.508957,201.775497 166.701721,202.360382 165.551178,202.975891 
	C163.770767,203.985840 162.333618,204.965164 160.896469,205.944489 
	C150.844940,211.551804 140.786346,217.146530 130.746262,222.774231 
	C127.783478,224.434952 124.872940,226.188873 120.967522,228.466278 
	C120.967522,215.888748 120.967522,203.912323 120.899902,191.472076 
	C120.876801,189.291275 120.921326,187.574295 120.898621,185.432556 
	C120.877213,183.937912 120.923035,182.867981 120.901566,181.400864 
	C120.878693,179.934967 120.923119,178.866287 120.900604,177.400818 
	C120.877289,175.613464 120.920906,174.222870 120.897820,172.419312 
	C120.875854,170.937042 120.920601,169.867737 120.899094,168.401398 
	C120.877060,166.935211 120.921272,165.866058 120.900070,164.399750 
	C120.878212,162.611420 120.921776,161.220245 120.899750,159.415619 
	C120.877335,157.286041 120.920509,155.569916 120.898506,153.428955 
	C120.876831,151.287628 120.920326,149.571106 120.898132,147.429977 
	C120.876358,145.614212 120.920280,144.223053 120.898743,142.418945 
	C120.877296,140.934937 120.921318,139.863892 120.899689,138.395172 
	C120.877892,136.606384 120.921761,135.215302 120.899559,133.410858 
	C120.877487,131.927917 120.921478,130.858337 120.898956,129.391541 
	C120.877090,127.604393 120.921745,126.214462 120.900162,124.411591 
z"/>
<path fill="#FFFFFF" opacity="1.000000" stroke="none" 
	d="
M193.955414,118.902588 
	C177.118698,109.298203 160.281982,99.693817 142.294846,89.433182 
	C160.154465,89.433182 176.744919,89.433182 194.035736,89.433182 
	C194.035736,94.547203 194.035736,99.805206 194.031372,105.951134 
	C194.074692,108.556969 194.122375,110.274879 194.101105,112.417267 
	C194.078537,114.557274 194.124939,116.272804 194.097443,118.212189 
	C194.023560,118.436050 193.955414,118.902588 193.955414,118.902588 
z"/>
<path fill="#FFFFFF" opacity="1.000000" stroke="none" 
	d="
M229.579346,137.866959 
	C229.913086,138.464218 229.945007,138.890274 229.934174,139.634705 
	C228.192734,138.971191 226.494049,137.989304 224.281754,136.676300 
	C218.860825,133.533478 213.953506,130.721802 209.052063,127.934219 
	C209.057907,127.958321 209.091202,127.919312 209.052429,127.496567 
	C208.952545,125.379303 208.891418,123.684776 208.895737,121.565750 
	C208.918045,119.425514 208.874924,117.709778 208.898849,115.569107 
	C208.921890,113.426437 208.877884,111.708710 208.833893,109.990974 
	C208.933533,107.894417 209.033203,105.797859 209.188065,102.539764 
	C216.239838,114.880173 222.758667,126.287964 229.579346,137.866959 
z"/>
<path fill="#8833D8" opacity="1.000000" stroke="none" 
	d="
M170.956024,123.110008 
	C163.052322,118.652809 155.148605,114.195618 147.100357,109.424408 
	C148.609375,109.227699 150.393265,108.981239 151.896027,109.519524 
	C164.548904,114.051865 177.145691,118.740654 189.775696,123.337433 
	C190.841751,123.725426 192.026779,123.786469 193.580551,124.000473 
	C194.004562,124.001534 194.059814,124.001595 194.043289,124.416580 
	C194.003952,126.215614 193.981140,127.599663 193.559021,128.989014 
	C189.566635,127.899796 186.001526,126.699486 182.372757,125.739944 
	C178.599228,124.742104 174.764175,123.976929 170.956024,123.110008 
z"/>
<path fill="#8935D6" opacity="1.000000" stroke="none" 
	d="
M208.469894,109.943893 
	C208.877884,111.708710 208.921890,113.426437 208.508575,115.569672 
	C203.424194,114.661041 198.797119,113.326920 194.170059,111.992790 
	C194.122375,110.274879 194.074692,108.556969 194.097809,106.414352 
	C198.814377,107.292030 203.460129,108.594421 208.469894,109.943893 
z"/>
<path fill="#9642BF" opacity="1.000000" stroke="none" 
	d="
M208.830307,121.990250 
	C208.891418,123.684776 208.952545,125.379303 208.654755,127.516205 
	C203.550507,126.639580 198.805161,125.320587 194.059814,124.001602 
	C194.059814,124.001595 194.004562,124.001534 193.976257,124.001030 
	C193.961166,122.584290 193.974365,121.168045 193.971497,119.327194 
	C193.955414,118.902588 194.023560,118.436050 194.484573,118.215698 
	C199.573822,119.326988 204.202072,120.658615 208.830307,121.990250 
z"/>
<path fill="#FFFFFF" opacity="1.000000" stroke="none" 
	d="
M194.161591,207.004288 
	C194.161591,215.782776 194.161591,224.561264 194.161591,233.668549 
	C177.083664,233.668549 160.435532,233.668549 142.605820,233.668549 
	C154.209183,227.029358 164.959946,220.878021 176.229004,214.370667 
	C178.496109,212.955231 180.244919,211.895782 182.320145,210.816299 
	C183.799469,209.880142 184.952393,208.964020 186.399521,208.022781 
	C187.144608,207.703552 187.595505,207.409439 188.353668,207.065613 
	C189.579636,206.294907 190.498322,205.573898 191.756989,204.867462 
	C192.706482,204.624069 193.316040,204.366150 193.953583,204.471329 
	C194.041595,205.557724 194.101593,206.281006 194.161591,207.004288 
z"/>
<path fill="#FFFFFF" opacity="1.000000" stroke="none" 
	d="
M216.935074,207.627472 
	C216.588608,208.409958 216.296722,208.860260 215.981537,209.603333 
	C215.016525,211.200226 214.074814,212.504349 213.144028,214.172333 
	C212.496002,215.465897 211.837051,216.395615 211.071655,217.602386 
	C210.525772,218.510025 210.086349,219.140610 209.347443,219.826752 
	C209.021805,217.217407 208.995636,214.552490 208.974854,211.022247 
	C208.931412,208.439606 208.882568,206.722290 208.903763,204.608429 
	C208.928238,203.141754 208.882690,202.071594 208.907303,200.583466 
	C209.012772,198.471466 209.048065,196.777451 209.395523,194.936508 
	C212.156464,193.227676 214.605225,191.665787 217.402222,190.053116 
	C219.517471,189.036743 221.284485,188.071152 223.355133,186.963379 
	C225.122253,185.916443 226.585754,185.011688 228.049255,184.106934 
	C228.456512,184.075684 228.863785,184.044434 229.577515,184.026993 
	C229.253937,185.455109 228.623886,186.869400 227.938080,188.620636 
	C227.321365,189.744492 226.760406,190.531433 226.082748,191.597473 
	C225.314590,192.989853 224.663116,194.103134 223.984512,195.552475 
	C223.274445,196.818909 222.591507,197.749298 221.736969,198.917877 
	C220.767548,200.550552 219.969742,201.945007 219.026642,203.650330 
	C218.250778,205.072556 217.620224,206.183914 216.935074,207.627472 
z"/>
<path fill="#F7A80F" opacity="1.000000" stroke="none" 
	d="
M181.993744,210.836334 
	C180.244919,211.895782 178.496109,212.955231 176.399445,214.065582 
	C174.370483,212.785263 172.844162,211.152786 170.973053,210.191391 
	C167.954895,208.640656 164.709579,207.532028 161.228348,206.090576 
	C162.333618,204.965164 163.770767,203.985840 165.878281,203.135071 
	C169.395203,204.473770 172.293930,205.576538 175.072418,206.926758 
	C177.451065,208.082718 179.691940,209.522247 181.993744,210.836334 
z"/>
<path fill="#F7A80F" opacity="1.000000" stroke="none" 
	d="
M208.833740,205.004974 
	C208.882568,206.722290 208.931412,208.439606 208.908279,210.581009 
	C204.206787,209.670792 199.577255,208.336472 194.554657,207.003235 
	C194.101593,206.281006 194.041595,205.557724 193.974411,204.080872 
	C193.965103,202.544250 193.962997,201.761230 193.974045,200.983978 
	C193.987198,200.989777 194.007721,201.005127 194.382675,201.044983 
	C199.449661,202.391541 204.141708,203.698257 208.833740,205.004974 
z"/>
<path fill="#FFFFFF" opacity="1.000000" stroke="none" 
	d="
M236.529877,161.011276 
	C236.887665,161.042664 236.957092,161.462021 236.955093,161.674561 
	C235.366638,162.704697 233.780182,163.522324 232.042099,164.648163 
	C231.333511,165.090683 230.776566,165.224991 230.089203,165.620438 
	C228.404938,166.688797 226.851074,167.496017 225.129303,168.591843 
	C222.721832,170.039505 220.482269,171.198547 218.066360,172.656357 
	C216.339569,173.733765 214.789139,174.512405 212.752319,175.645966 
	C211.198242,176.301010 210.130539,176.601135 209.037369,176.493134 
	C208.952072,174.725433 208.892242,173.365875 208.899689,171.592804 
	C208.922150,169.787231 208.877365,168.395187 208.899048,166.578796 
	C208.921219,164.439560 208.876923,162.724670 208.899033,160.595764 
	C208.921371,158.788940 208.877319,157.396088 208.899185,155.590088 
	C208.921448,153.786530 208.877808,152.396133 208.899567,150.607971 
	C208.921280,149.139450 208.877563,148.068726 208.906067,146.768860 
	C208.978256,146.539719 209.072342,146.068542 209.072342,146.068542 
	C211.134644,147.046036 213.196945,148.023529 215.612000,149.060760 
	C219.061508,151.079819 222.158279,153.039108 225.609985,155.059204 
	C229.367310,157.073303 232.769699,159.026596 236.529877,161.011276 
z"/>
<path fill="#C27070" opacity="1.000000" stroke="none" 
	d="
M209.062851,176.901276 
	C210.130539,176.601135 211.198242,176.301010 212.607574,175.948425 
	C216.351349,177.567612 219.765961,179.214569 223.150055,180.921982 
	C224.707977,181.707993 226.206161,182.612427 227.890350,183.785034 
	C226.585754,185.011688 225.122253,185.916443 223.148880,186.665955 
	C218.101074,185.004044 213.563141,183.497391 209.015442,181.593353 
	C208.987442,180.137207 208.969193,179.078430 208.976868,177.739838 
	C209.022797,177.273788 209.042816,177.087540 209.062851,176.901276 
z"/>
<path fill="#A8549F" opacity="1.000000" stroke="none" 
	d="
M208.893280,135.042755 
	C208.893280,135.042770 208.940430,135.522369 208.967484,135.761810 
	C208.994202,137.068329 208.993866,138.135391 209.009338,139.602417 
	C208.713898,140.106003 208.462891,140.291229 207.765717,140.770233 
	C202.812439,139.682587 198.365570,138.382706 193.918686,137.082825 
	C193.918686,137.082825 193.965118,137.034836 193.961166,136.609467 
	C193.987732,134.464569 194.018250,132.745026 194.447449,131.018753 
	C199.528503,132.355606 204.210892,133.699188 208.893280,135.042755 
z"/>
<path fill="#AE5B93" opacity="1.000000" stroke="none" 
	d="
M193.950821,137.503387 
	C198.365570,138.382706 202.812439,139.682587 207.655258,140.979889 
	C208.298477,141.478348 208.545761,141.979370 208.898315,142.739899 
	C209.008957,143.767471 209.014313,144.535553 209.046005,145.686096 
	C209.072342,146.068542 208.978256,146.539719 208.529694,146.761383 
	C203.442917,145.654068 198.804718,144.325119 194.166504,142.996155 
	C194.105316,141.305420 194.044128,139.614670 193.950821,137.503387 
z"/>
<path fill="#9F4BAF" opacity="1.000000" stroke="none" 
	d="
M208.929108,134.702713 
	C204.210892,133.699188 199.528503,132.355606 194.427643,130.678467 
	C193.992233,129.891159 193.975296,129.437439 193.958344,128.983704 
	C193.981140,127.599663 194.003952,126.215614 194.043289,124.416588 
	C198.805161,125.320587 203.550507,126.639580 208.693527,127.938942 
	C209.091202,127.919312 209.057907,127.958321 209.025269,128.358536 
	C209.000580,130.171600 209.008514,131.584442 209.016449,132.997284 
	C208.999283,133.452408 208.982101,133.907547 208.929108,134.702713 
z"/>
<path fill="#8631DC" opacity="1.000000" stroke="none" 
	d="
M209.389633,133.040405 
	C209.008514,131.584442 209.000580,130.171600 209.019424,128.334442 
	C213.953506,130.721802 218.860825,133.533478 223.941711,136.651764 
	C219.331131,135.666748 214.546982,134.375137 209.389633,133.040405 
z"/>
<path fill="#8E3ACD" opacity="1.000000" stroke="none" 
	d="
M193.559021,128.989014 
	C193.975296,129.437439 193.992233,129.891159 194.028976,130.685181 
	C194.018250,132.745026 193.987732,134.464569 193.927979,136.613037 
	C186.362946,132.598892 178.827164,128.155823 171.123703,123.411377 
	C174.764175,123.976929 178.599228,124.742104 182.372757,125.739944 
	C186.001526,126.699486 189.566635,127.899796 193.559021,128.989014 
z"/>
<path fill="#D28152" opacity="1.000000" stroke="none" 
	d="
M209.037369,176.493134 
	C209.042816,177.087540 209.022797,177.273788 208.591949,177.726257 
	C203.509155,176.662109 198.837189,175.331741 194.165222,174.001373 
	C194.121780,172.285339 194.078339,170.569321 194.473801,168.434952 
	C199.552628,169.346512 204.192520,170.676422 208.832428,172.006317 
	C208.892242,173.365875 208.952072,174.725433 209.037369,176.493134 
z"/>
<path fill="#C77566" opacity="1.000000" stroke="none" 
	d="
M208.832626,161.009766 
	C208.876923,162.724670 208.921219,164.439560 208.525970,166.570587 
	C203.446518,165.658371 198.806580,164.330048 194.166656,163.001740 
	C194.123383,161.286499 194.080109,159.571243 194.480499,157.438202 
	C199.560318,158.350189 204.196472,159.679977 208.832626,161.009766 
z"/>
<path fill="#CB7A5E" opacity="1.000000" stroke="none" 
	d="
M194.100891,163.415207 
	C198.806580,164.330048 203.446518,165.658371 208.459503,166.994904 
	C208.877365,168.395187 208.922150,169.787231 208.899689,171.592804 
	C204.192520,170.676422 199.552628,169.346512 194.539581,168.010315 
	C194.122665,166.612244 194.078888,165.220474 194.100891,163.415207 
z"/>
<path fill="#BE6C76" opacity="1.000000" stroke="none" 
	d="
M208.899033,160.595764 
	C204.196472,159.679977 199.560318,158.350189 194.545532,157.013596 
	C194.123001,155.614227 194.079117,154.221649 194.490814,152.416061 
	C199.575348,153.336441 204.204300,154.669846 208.833267,156.003250 
	C208.877319,157.396088 208.921371,158.788940 208.899033,160.595764 
z"/>
<path fill="#D88846" opacity="1.000000" stroke="none" 
	d="
M194.099945,174.414597 
	C198.837189,175.331741 203.509155,176.662109 208.566025,178.006058 
	C208.969193,179.078430 208.987442,180.137207 208.996246,181.848206 
	C208.972153,182.670044 208.957489,182.839691 208.558380,182.999878 
	C203.503342,181.659882 198.832748,180.329376 194.162170,178.998886 
	C194.119659,177.608536 194.077148,176.218170 194.099945,174.414597 
z"/>
<path fill="#BB687C" opacity="1.000000" stroke="none" 
	d="
M208.899185,155.590088 
	C204.204300,154.669846 199.575348,153.336441 194.556320,152.002472 
	C194.122574,150.611237 194.078873,149.220566 194.476852,147.424164 
	C199.557083,148.347549 204.195618,149.676636 208.834152,151.005737 
	C208.877808,152.396133 208.921448,153.786530 208.899185,155.590088 
z"/>
<path fill="#B3618A" opacity="1.000000" stroke="none" 
	d="
M208.899567,150.607956 
	C204.195618,149.676636 199.557083,148.347549 194.542236,147.011063 
	C194.122116,145.932892 194.078308,144.862091 194.100494,143.393738 
	C198.804718,144.325119 203.442917,145.654068 208.457489,146.990509 
	C208.877563,148.068726 208.921280,149.139450 208.899567,150.607956 
z"/>
<path fill="#F2A317" opacity="1.000000" stroke="none" 
	d="
M182.320145,210.816315 
	C179.691940,209.522247 177.451065,208.082718 175.072418,206.926758 
	C172.293930,205.576538 169.395203,204.473770 166.221558,203.104446 
	C166.701721,202.360382 167.508957,201.775497 168.942535,201.216873 
	C175.081009,203.511398 180.593170,205.779648 186.105331,208.047913 
	C184.952393,208.964020 183.799469,209.880142 182.320145,210.816315 
z"/>
<path fill="#E6962D" opacity="1.000000" stroke="none" 
	d="
M193.960892,200.978195 
	C193.962997,201.761230 193.965103,202.544250 193.946411,203.717743 
	C193.316040,204.366150 192.706482,204.624069 191.575684,204.482986 
	C189.356064,203.216446 187.679321,202.303009 185.954742,201.491180 
	C182.633926,199.928009 179.286026,198.422318 175.949356,196.892792 
	C177.062469,196.259567 178.175583,195.626343 179.784897,195.265533 
	C184.841019,197.351349 189.400955,199.164764 193.960892,200.978195 
z"/>
<path fill="#E09038" opacity="1.000000" stroke="none" 
	d="
M193.974045,200.983978 
	C189.400955,199.164764 184.841019,197.351349 180.117950,195.210159 
	C181.268082,193.966324 182.581329,193.050278 184.434280,192.519302 
	C187.967972,193.929703 190.961945,194.955032 193.973221,196.237366 
	C193.998077,196.665939 194.005646,196.837509 194.007935,197.408386 
	C194.004364,198.873520 194.006042,199.939331 194.007721,201.005127 
	C194.007721,201.005127 193.987198,200.989777 193.974045,200.983978 
z"/>
<path fill="#F0A01B" opacity="1.000000" stroke="none" 
	d="
M186.399521,208.022781 
	C180.593170,205.779648 175.081009,203.511398 169.232483,201.095306 
	C170.022705,200.298111 171.149307,199.648712 172.819489,199.244080 
	C175.631485,200.382324 178.002365,201.082657 180.142654,202.217758 
	C182.874634,203.666641 185.420395,205.466660 188.046417,207.115326 
	C187.595505,207.409439 187.144608,207.703552 186.399521,208.022781 
z"/>
<path fill="#EB9B24" opacity="1.000000" stroke="none" 
	d="
M188.353683,207.065628 
	C185.420395,205.466660 182.874634,203.666641 180.142654,202.217758 
	C178.002365,201.082657 175.631485,200.382324 173.158325,199.191299 
	C173.760757,198.311188 174.567902,197.728607 175.662201,197.019409 
	C179.286026,198.422318 182.633926,199.928009 185.954742,201.491180 
	C187.679321,202.303009 189.356064,203.216446 191.235718,204.468445 
	C190.498322,205.573898 189.579636,206.294907 188.353683,207.065628 
z"/>
<path fill="#E09038" opacity="1.000000" stroke="none" 
	d="
M191.948654,188.896576 
	C192.643372,186.855911 193.338104,184.815216 194.460922,182.436676 
	C199.575638,183.404205 204.262283,184.709610 208.972961,186.257767 
	C208.997025,186.500534 209.034698,186.986984 208.917007,187.250397 
	C208.517151,188.014679 208.234985,188.515549 207.555054,189.010162 
	C204.500092,188.208771 201.808212,187.511948 199.195786,186.590042 
	C196.724823,185.718048 194.901947,185.593643 195.010803,189.260849 
	C195.005707,189.509995 194.984879,190.007950 194.637756,190.003235 
	C193.509995,189.631226 192.729324,189.263901 191.948654,188.896576 
z"/>
<path fill="#DB8A41" opacity="1.000000" stroke="none" 
	d="
M191.572510,188.938507 
	C192.729324,189.263901 193.509995,189.631226 194.639359,190.389191 
	C194.644028,192.513336 194.299973,194.246841 193.955917,195.980347 
	C190.961945,194.955032 187.967972,193.929703 184.797195,192.519135 
	C186.812378,191.082718 189.004379,190.031570 191.572510,188.938507 
z"/>
<path fill="#DB8A41" opacity="1.000000" stroke="none" 
	d="
M208.948914,186.014999 
	C204.262283,184.709610 199.575638,183.404205 194.525909,182.050888 
	C194.118591,181.250153 194.074371,180.497360 194.096146,179.371719 
	C198.832748,180.329376 203.503342,181.659882 208.576797,183.375046 
	C208.969421,184.511475 208.959167,185.263229 208.948914,186.014999 
z"/>
<path fill="#8E3ACD" opacity="1.000000" stroke="none" 
	d="
M208.895737,121.565750 
	C204.202072,120.658615 199.573822,119.326988 194.558472,117.991837 
	C194.124939,116.272804 194.078537,114.557274 194.101105,112.417267 
	C198.797119,113.326920 203.424194,114.661041 208.441528,115.994614 
	C208.874924,117.709778 208.918045,119.425514 208.895737,121.565750 
z"/>
<path fill="#EB9B24" opacity="1.000000" stroke="none" 
	d="
M193.973221,196.237366 
	C194.299973,194.246841 194.644028,192.513336 194.986481,190.393890 
	C194.984879,190.007950 195.005707,189.509995 195.399033,189.264175 
	C200.171722,190.351532 204.551071,191.684708 208.950897,193.362717 
	C209.008713,194.166168 209.046036,194.624817 209.083359,195.083450 
	C209.048065,196.777451 209.012772,198.471466 208.546585,200.533722 
	C203.414871,199.604340 198.714035,198.306702 194.013199,197.009064 
	C194.005646,196.837509 193.998077,196.665939 193.973221,196.237366 
z"/>
<path fill="#F2A317" opacity="1.000000" stroke="none" 
	d="
M194.007935,197.408386 
	C198.714035,198.306702 203.414871,199.604340 208.476425,200.951721 
	C208.882690,202.071594 208.928238,203.141754 208.903763,204.608444 
	C204.141708,203.698257 199.449661,202.391541 194.382675,201.044983 
	C194.006042,199.939331 194.004364,198.873520 194.007935,197.408386 
z"/>
<path fill="#C77566" opacity="1.000000" stroke="none" 
	d="
M208.972961,186.257767 
	C208.959167,185.263229 208.969421,184.511475 208.961243,183.384521 
	C208.957489,182.839691 208.972153,182.670044 209.005997,182.245560 
	C213.563141,183.497391 218.101074,185.004044 222.845276,186.808136 
	C221.284485,188.071152 219.517471,189.036743 217.196838,189.757416 
	C214.107056,188.670685 211.570877,187.828827 209.034698,186.986984 
	C209.034698,186.986984 208.997025,186.500534 208.972961,186.257767 
z"/>
<path fill="#CF7D58" opacity="1.000000" stroke="none" 
	d="
M208.917007,187.250397 
	C211.570877,187.828827 214.107056,188.670685 216.848602,189.808228 
	C214.605225,191.665787 212.156464,193.227676 209.395523,194.936508 
	C209.046036,194.624817 209.008713,194.166168 208.838867,193.033844 
	C208.455185,191.245575 208.204010,190.130997 207.952820,189.016418 
	C208.234985,188.515549 208.517151,188.014679 208.917007,187.250397 
z"/>
<path fill="#E6962D" opacity="1.000000" stroke="none" 
	d="
M207.555054,189.010162 
	C208.204010,190.130997 208.455185,191.245575 208.818390,192.689026 
	C204.551071,191.684708 200.171722,190.351532 195.404129,189.015030 
	C194.901947,185.593643 196.724823,185.718048 199.195786,186.590042 
	C201.808212,187.511948 204.500092,188.208771 207.555054,189.010162 
z"/>
</svg>