<?xml version="1.0" encoding="UTF-8"?>
<svg id="Layer_1" xmlns="http://www.w3.org/2000/svg" version="1.1" viewBox="0 0 400 245">
  <!-- Generator: Adobe Illustrator 29.1.0, SVG Export Plug-In . SVG Version: 2.1.0 Build 142)  -->
  <defs>
    <style>
      .st0 {
        fill: #de3412;
      }
    </style>
  </defs>
  <g>
    <path class="st0" d="M55.2929954,103.7489638l-3.9121578,3.9121578c6.4851598,6.4851598,6.4851598,16.9953236,0,23.4767237-6.4813944,6.4851598-16.9953293,6.4851598-23.4767237,0-6.4851569-6.4813944-6.4851569-16.9953236,0-23.4767237h-.0037596l10.3408945-10.3446541,1.3955904-1.3955904h.0037596v-7.8205589l-15.6524024,15.6523995c-8.6443676,8.6443676-8.6443676,22.6604372,0,31.3048047,8.6443676,8.6443733,22.6604372,8.6443733,31.3048047,0,8.6443676-8.6443676,8.6443676-22.6604372,0-31.3048047"/>
    <path class="st0" d="M49.4924664,101.8756426c1.1247481-1.1247481,1.1247481-2.9454058,0-4.0701482-1.1247481-1.1247481-2.9454058-1.1247481-4.0701539,0s-1.1247481,2.9454058,0,4.0701539,2.9454058,1.1247481,4.0701539,0"/>
  </g>
  <g>
    <path d="M101.3183594,104.5019531h-12.637207v-4.5615234h30.7607422v4.5615234h-12.6987305v36.9873047h-5.4248047v-36.9873047Z"/>
    <path d="M146.4101562,126.3242188c0,11.0351562-7.7055664,15.8427734-14.8569336,15.8427734-8.0136719,0-14.3017578-5.9179688-14.3017578-15.3496094,0-9.9248047,6.5961914-15.78125,14.7949219-15.78125,8.5688477,0,14.3637695,6.2265625,14.3637695,15.2880859ZM122.7998047,126.6328125c0,6.5341797,3.6987305,11.4658203,9.0004883,11.4658203,5.1777344,0,9.0615234-4.8701172,9.0615234-11.5888672,0-5.0556641-2.5273438-11.4052734-8.9384766-11.4052734-6.3496094,0-9.1235352,5.9179688-9.1235352,11.5283203Z"/>
    <path d="M153.2382812,120.9609375c0-3.5136719-.0615234-6.5341797-.246582-9.3076172h4.7470703l.2460938,5.9179688h.1850586c1.3564453-4.0078125,4.6850586-6.5351562,8.3222656-6.5351562.5546875,0,.9863281.0615234,1.4794922.1230469v5.1171875c-.5546875-.1230469-1.1098633-.1230469-1.8491211-.1230469-3.8222656,0-6.534668,2.8349609-7.2744141,6.9042969-.1230469.7392578-.1850586,1.6640625-.1850586,2.5273438v15.9042969h-5.4248047v-20.5283203Z"/>
    <path d="M194.0952148,140.4414062c-1.4174805.6777344-4.5615234,1.7255859-8.5683594,1.7255859-9.0004883,0-14.8564453-6.1025391-14.8564453-15.2265625,0-9.1845703,6.2875977-15.9042969,16.0273438-15.9042969,3.2060547,0,6.0415039.8017578,7.5209961,1.6035156l-1.2329102,4.1298828c-1.2944336-.6787109-3.3291016-1.4179688-6.2880859-1.4179688-6.8422852,0-10.5410156,5.1162109-10.5410156,11.28125,0,6.9042969,4.4384766,11.1572266,10.3564453,11.1572266,3.0820312,0,5.1162109-.7392578,6.6577148-1.4169922l.9243164,4.0683594Z"/>
    <path d="M199.9438477,97.7207031h5.4248047v18.6787109h.1235352c.862793-1.5410156,2.2192383-2.9589844,3.8833008-3.8837891,1.6030273-.9248047,3.5141602-1.4794922,5.5483398-1.4794922,4.0068359,0,10.4179688,2.4658203,10.4179688,12.6992188v17.7539062h-5.4248047v-17.1376953c0-4.8076172-1.7875977-8.8154297-6.9042969-8.8154297-3.5136719,0-6.2260742,2.4658203-7.2739258,5.3632812-.3085938.8017578-.3701172,1.6035156-.3701172,2.5898438v18h-5.4248047v-43.7685547Z"/>
    <path class="st0" d="M240.7324219,128.4208984l-4.3149414,13.0683594h-5.5483398l14.1787109-41.5488281h6.4111328l14.1782227,41.5488281h-5.7329102l-4.4384766-13.0683594h-14.7333984ZM254.4179688,124.2285156l-4.1303711-11.9589844c-.9248047-2.7128906-1.5410156-5.1787109-2.1577148-7.5830078h-.1230469c-.6166992,2.4042969-1.2329102,4.9941406-2.0961914,7.5214844l-4.0683594,12.0205078h12.5756836Z"/>
    <path class="st0" d="M295.4223633,133.2900391c0,3.1445312.0620117,5.8564453.2470703,8.1992188h-4.8085938l-.3081055-4.8701172h-.1235352c-1.355957,2.4042969-4.5615234,5.5478516-9.8632812,5.5478516-4.6850586,0-10.2949219-2.6503906-10.2949219-13.0683594v-17.4453125h5.4248047v16.4589844c0,5.6708984,1.7880859,9.5546875,6.6582031,9.5546875,3.6367188,0,6.1640625-2.5273438,7.1503906-4.9931641.3085938-.7392578.4931641-1.7255859.4931641-2.7744141v-18.2460938h5.4248047v21.6367188Z"/>
    <path class="st0" d="M330.1508789,97.7207031v36.0625c0,2.6513672.1235352,5.671875.2470703,7.7060547h-4.8085938l-.246582-5.1777344h-.1850586c-1.6025391,3.328125-5.1782227,5.8554688-10.0478516,5.8554688-7.2128906,0-12.8222656-6.1025391-12.8222656-15.1640625-.0620117-9.9257812,6.1640625-15.9667969,13.3769531-15.9667969,4.6230469,0,7.644043,2.1582031,9,4.5h.1235352v-17.8154297h5.362793ZM324.7880859,123.796875c0-.6777344-.0620117-1.6025391-.246582-2.2802734-.8017578-3.390625-3.7607422-6.2265625-7.8291016-6.2265625-5.6098633,0-8.9384766,4.9316406-8.9384766,11.4658203,0,6.0410156,3.0205078,11.0341797,8.8154297,11.0341797,3.6367188,0,6.9658203-2.4648438,7.9521484-6.4726562.1845703-.7392578.246582-1.4794922.246582-2.3417969v-5.1787109Z"/>
    <path class="st0" d="M344.8886719,103.2685547c0,1.8496094-1.2944336,3.3291016-3.4521484,3.3291016-1.9726562,0-3.2670898-1.4794922-3.2670898-3.3291016,0-1.8486328,1.355957-3.3896484,3.3901367-3.3896484,1.9726562,0,3.3291016,1.4794922,3.3291016,3.3896484ZM338.847168,141.4892578v-29.8359375h5.4248047v29.8359375h-5.4248047Z"/>
    <path class="st0" d="M380.1547852,126.3242188c0,11.0351562-7.7060547,15.8427734-14.8564453,15.8427734-8.0141602,0-14.3017578-5.9179688-14.3017578-15.3496094,0-9.9248047,6.5957031-15.78125,14.7949219-15.78125,8.5683594,0,14.3632812,6.2265625,14.3632812,15.2880859ZM356.5444336,126.6328125c0,6.5341797,3.6987305,11.4658203,9,11.4658203,5.1787109,0,9.0620117-4.8701172,9.0620117-11.5888672,0-5.0556641-2.5273438-11.4052734-8.9384766-11.4052734-6.3496094,0-9.1235352,5.9179688-9.1235352,11.5283203Z"/>
  </g>
</svg>