<?xml version="1.0" encoding="UTF-8"?>
<svg id="Layer_1" xmlns="http://www.w3.org/2000/svg" version="1.1" viewBox="0 0 400 245">
  <!-- Generator: Adobe Illustrator 29.1.0, SVG Export Plug-In . SVG Version: 2.1.0 Build 142)  -->
  <defs>
    <style>
      .st0 {
        fill: #de3412;
      }
    </style>
  </defs>
  <g>
    <path class="st0" d="M75.8940386,103.7484806l-3.9121578,3.9121578c6.4851598,6.4851598,6.4851598,16.9953236,0,23.4767237-6.4813944,6.4851598-16.9953293,6.4851598-23.4767237,0-6.4851569-6.4813944-6.4851569-16.9953236,0-23.4767237h-.0037596l10.3408945-10.3446541,1.3955904-1.3955904h.0037596v-7.8205589l-15.6524024,15.6523995c-8.6443676,8.6443676-8.6443676,22.6604372,0,31.3048047,8.6443676,8.6443733,22.6604372,8.6443733,31.3048047,0,8.6443676-8.6443676,8.6443676-22.6604372,0-31.3048047"/>
    <path class="st0" d="M70.0935096,101.8751594c1.1247481-1.1247481,1.1247481-2.9454058,0-4.0701482-1.1247481-1.1247481-2.9454058-1.1247481-4.0701539,0s-1.1247481,2.9454058,0,4.0701539,2.9454058,1.1247481,4.0701539,0"/>
  </g>
  <g>
    <path d="M120.3769531,104.5024414v7.1508789h7.7675781v4.1303711h-7.7675781v16.0893555c0,3.6987305,1.0488281,5.7944336,4.0693359,5.7944336,1.4794922,0,2.3417969-.1230469,3.1435547-.3696289l.2460938,4.1303711c-1.0478516.3696289-2.7119141.7397461-4.8076172.7397461-2.5273438,0-4.5615234-.8632812-5.8564453-2.2807617-1.4794922-1.6645508-2.0957031-4.3154297-2.0957031-7.8291016v-16.2744141h-4.6240234v-4.1303711h4.6240234v-5.5483398l5.3007812-1.6025391Z"/>
    <path d="M160.4521484,126.324707c0,11.034668-7.7060547,15.8432617-14.8564453,15.8432617-8.0136719,0-14.3017578-5.9179688-14.3017578-15.3500977,0-9.9248047,6.5957031-15.78125,14.7949219-15.78125,8.5683594,0,14.3632812,6.2265625,14.3632812,15.2880859ZM136.8417969,126.6333008c0,6.5341797,3.6992188,11.4658203,9,11.4658203,5.1787109,0,9.0625-4.8701172,9.0625-11.5893555,0-5.0546875-2.5273438-11.4042969-8.9394531-11.4042969-6.3486328,0-9.1230469,5.9179688-9.1230469,11.527832Z"/>
    <path d="M167.2792969,120.9619141c0-3.5141602-.0615234-6.534668-.2460938-9.3085938h4.7460938l.2470703,5.9179688h.1845703c1.3564453-4.0068359,4.6855469-6.534668,8.3222656-6.534668.5546875,0,.9863281.0620117,1.4794922.1235352v5.1166992c-.5546875-.1235352-1.109375-.1235352-1.8496094-.1235352-3.8212891,0-6.5341797,2.8359375-7.2744141,6.9042969-.1230469.7397461-.1845703,1.6645508-.1845703,2.527832v15.9042969h-5.4248047v-20.527832Z"/>
    <path d="M208.1367188,140.4418945c-1.4179688.6777344-4.5615234,1.7260742-8.5683594,1.7260742-9,0-14.8564453-6.1030273-14.8564453-15.2265625,0-9.1850586,6.2880859-15.9047852,16.0273438-15.9047852,3.2060547,0,6.0419922.8017578,7.5205078,1.6030273l-1.2324219,4.1303711c-1.2949219-.6782227-3.3291016-1.4179688-6.2880859-1.4179688-6.8427734,0-10.5410156,5.1166992-10.5410156,11.28125,0,6.9042969,4.4384766,11.1577148,10.3564453,11.1577148,3.0820312,0,5.1162109-.7397461,6.6572266-1.4179688l.9248047,4.0688477Z"/>
    <path d="M213.9853516,97.7211914h5.4248047v18.6787109h.1230469c.8632812-1.5410156,2.2197266-2.9589844,3.8837891-3.8837891,1.6025391-.9243164,3.5136719-1.4794922,5.5478516-1.4794922,4.0078125,0,10.4189453,2.4658203,10.4189453,12.6992188v17.7539062h-5.4248047v-17.1376953c0-4.8081055-1.7880859-8.8149414-6.9042969-8.8149414-3.5136719,0-6.2265625,2.4658203-7.2744141,5.362793-.3085938.8017578-.3701172,1.6030273-.3701172,2.5893555v18.0004883h-5.4248047v-43.7685547Z"/>
    <path d="M254.0341797,104.5024414v7.1508789h7.7675781v4.1303711h-7.7675781v16.0893555c0,3.6987305,1.0478516,5.7944336,4.0693359,5.7944336,1.4794922,0,2.3417969-.1230469,3.1435547-.3696289l.2470703,4.1303711c-1.0488281.3696289-2.7128906.7397461-4.8085938.7397461-2.5273438,0-4.5625-.8632812-5.8564453-2.2807617-1.4794922-1.6645508-2.0957031-4.3154297-2.0957031-7.8291016v-16.2744141h-4.6240234v-4.1303711h4.6240234v-5.5483398l5.3007812-1.6025391Z"/>
    <path d="M292.5371094,133.2910156c0,3.144043.0615234,5.855957.2460938,8.1987305h-4.8085938l-.3076172-4.8701172h-.1230469c-1.3564453,2.4042969-4.5625,5.5483398-9.8632812,5.5483398-4.6855469,0-10.2949219-2.6508789-10.2949219-13.0688477v-17.4458008h5.4248047v16.4594727c0,5.6713867,1.7871094,9.5546875,6.6572266,9.5546875,3.6376953,0,6.1650391-2.5273438,7.1513672-4.9931641.3076172-.7397461.4931641-1.7260742.4931641-2.7739258v-18.2470703h5.4248047v21.6376953Z"/>
    <path d="M301.2382812,119.7290039c0-3.144043-.0615234-5.6098633-.2460938-8.0756836h4.8076172l.3085938,4.9316406h.1230469c1.4794922-2.7739258,4.9316406-5.5483398,9.8632812-5.5483398,4.1308594,0,10.5419922,2.4658203,10.5419922,12.6992188v17.7539062h-5.4248047v-17.1992188c0-4.8081055-1.7880859-8.8154297-6.9042969-8.8154297-3.5146484,0-6.2880859,2.527832-7.2744141,5.5483398-.2470703.6782227-.3701172,1.6030273-.3701172,2.5273438v17.9389648h-5.4248047v-21.7607422Z"/>
    <path d="M338.53125,127.5581055c.1230469,7.3354492,4.7470703,10.3564453,10.2333984,10.3564453,3.8837891,0,6.2880859-.6782227,8.2607422-1.5415039l.9863281,3.8837891c-1.9111328.862793-5.2402344,1.9111328-9.9863281,1.9111328-9.1855469,0-14.671875-6.1030273-14.671875-15.1030273,0-9.0004883,5.3007812-16.0283203,13.9931641-16.0283203,9.8017578,0,12.3291016,8.5073242,12.3291016,13.9936523,0,1.1098633-.0615234,1.9111328-.1845703,2.527832h-20.9599609ZM354.4355469,123.6743164c.0625-3.390625-1.4169922-8.7539062-7.5205078-8.7539062-5.5478516,0-7.890625,4.9931641-8.3222656,8.7539062h15.8427734Z"/>
  </g>
</svg>