<?xml version="1.0" encoding="UTF-8"?>
<svg id="Layer_1" xmlns="http://www.w3.org/2000/svg" version="1.1" viewBox="0 0 400 245">
  <!-- Generator: Adobe Illustrator 29.1.0, SVG Export Plug-In . SVG Version: 2.1.0 Build 142)  -->
  <defs>
    <style>
      .st0 {
        fill: #de3412;
      }
    </style>
  </defs>
  <g>
    <path class="st0" d="M71.6933377,103.7489638l-3.9121578,3.9121578c6.4851598,6.4851598,6.4851598,16.9953236,0,23.4767237-6.4813944,6.4851598-16.9953293,6.4851598-23.4767237,0-6.4851569-6.4813944-6.4851569-16.9953236,0-23.4767237h-.0037596l10.3408945-10.3446541,1.3955904-1.3955904h.0037596v-7.8205589l-15.6524024,15.6523995c-8.6443676,8.6443676-8.6443676,22.6604372,0,31.3048047,8.6443676,8.6443733,22.6604372,8.6443733,31.3048047,0,8.6443676-8.6443676,8.6443676-22.6604372,0-31.3048047"/>
    <path class="st0" d="M65.8928087,101.8756426c1.1247481-1.1247481,1.1247481-2.9454058,0-4.0701482-1.1247481-1.1247481-2.9454058-1.1247481-4.0701539,0s-1.1247481,2.9454058,0,4.0701539,2.9454058,1.1247481,4.0701539,0"/>
  </g>
  <g>
    <path d="M117.7182617,104.5019531h-12.637207v-4.5615234h30.7607422v4.5615234h-12.6987305v36.9873047h-5.4248047v-36.9873047Z"/>
    <path d="M162.8100586,126.3242188c0,11.0351562-7.7055664,15.8427734-14.8569336,15.8427734-8.0136719,0-14.3017578-5.9179688-14.3017578-15.3496094,0-9.9248047,6.5961914-15.78125,14.7949219-15.78125,8.5688477,0,14.3637695,6.2265625,14.3637695,15.2880859ZM139.199707,126.6328125c0,6.5341797,3.6987305,11.4658203,9.0004883,11.4658203,5.1777344,0,9.0615234-4.8701172,9.0615234-11.5888672,0-5.0556641-2.5273438-11.4052734-8.9384766-11.4052734-6.3496094,0-9.1235352,5.9179688-9.1235352,11.5283203Z"/>
    <path d="M169.6381836,120.9609375c0-3.5136719-.0615234-6.5341797-.246582-9.3076172h4.7470703l.2460938,5.9179688h.1850586c1.3564453-4.0078125,4.6850586-6.5351562,8.3222656-6.5351562.5546875,0,.9863281.0615234,1.4794922.1230469v5.1171875c-.5546875-.1230469-1.1098633-.1230469-1.8491211-.1230469-3.8222656,0-6.534668,2.8349609-7.2744141,6.9042969-.1230469.7392578-.1850586,1.6640625-.1850586,2.5273438v15.9042969h-5.4248047v-20.5283203Z"/>
    <path d="M210.4951172,140.4414062c-1.4174805.6777344-4.5615234,1.7255859-8.5683594,1.7255859-9.0004883,0-14.8564453-6.1025391-14.8564453-15.2265625,0-9.1845703,6.2875977-15.9042969,16.0273438-15.9042969,3.2060547,0,6.0415039.8017578,7.5209961,1.6035156l-1.2329102,4.1298828c-1.2944336-.6787109-3.3291016-1.4179688-6.2880859-1.4179688-6.8422852,0-10.5410156,5.1162109-10.5410156,11.28125,0,6.9042969,4.4384766,11.1572266,10.3564453,11.1572266,3.0820312,0,5.1162109-.7392578,6.6577148-1.4169922l.9243164,4.0683594Z"/>
    <path d="M216.34375,97.7207031h5.4248047v18.6787109h.1235352c.862793-1.5410156,2.2192383-2.9589844,3.8833008-3.8837891,1.6030273-.9248047,3.5141602-1.4794922,5.5483398-1.4794922,4.0068359,0,10.4179688,2.4658203,10.4179688,12.6992188v17.7539062h-5.4248047v-17.1376953c0-4.8076172-1.7875977-8.8154297-6.9042969-8.8154297-3.5136719,0-6.2260742,2.4658203-7.2739258,5.3632812-.3085938.8017578-.3701172,1.6035156-.3701172,2.5898438v18h-5.4248047v-43.7685547Z"/>
    <path d="M250.5917969,100.5566406c3.2670898-.5546875,7.1508789-.9248047,11.4042969-.9248047,7.7060547,0,13.1923828,1.8496094,16.8291016,5.1787109,3.7607422,3.3896484,5.9179688,8.1982422,5.9179688,14.9179688,0,6.78125-2.1572266,12.3291016-5.9794922,16.1513672-3.9453125,3.8828125-10.3564453,5.9794922-18.4316406,5.9794922-3.8837891,0-7.027832-.1855469-9.7402344-.4931641v-40.8095703ZM255.9550781,137.2978516c1.355957.1845703,3.3286133.2460938,5.4248047.2460938,11.5273438,0,17.6923828-6.4111328,17.6923828-17.6308594.0615234-9.8017578-5.4868164-16.0273438-16.8295898-16.0273438-2.7739258,0-4.8696289.2460938-6.2875977.5546875v32.8574219Z"/>
    <path d="M312.0551758,134.3388672c0,2.5888672.1235352,5.1162109.4316406,7.1503906h-4.8701172l-.4311523-3.7607422h-.1850586c-1.6645508,2.3427734-4.8701172,4.4384766-9.1235352,4.4384766-6.0415039,0-9.1235352-4.2529297-9.1235352-8.5683594,0-7.2128906,6.4111328-11.1582031,17.9389648-11.0957031v-.6171875c0-2.4042969-.6782227-6.9042969-6.78125-6.8427734-2.8359375,0-5.7329102.8017578-7.8291016,2.2197266l-1.2329102-3.6367188c2.4658203-1.5419922,6.1030273-2.5898438,9.8632812-2.5898438,9.1235352,0,11.3427734,6.2265625,11.3427734,12.1445312v11.1582031ZM306.8154297,126.2626953c-5.9179688-.1230469-12.637207.9248047-12.637207,6.7197266,0,3.5751953,2.3422852,5.1777344,5.0546875,5.1777344,3.9453125,0,6.4731445-2.4658203,7.3359375-4.9931641.1850586-.6162109.246582-1.2324219.246582-1.7255859v-5.1787109Z"/>
    <path d="M326.7436523,104.5019531v7.1513672h7.7670898v4.1298828h-7.7670898v16.0888672c0,3.6992188,1.0478516,5.7949219,4.0683594,5.7949219,1.4794922,0,2.3427734-.1230469,3.144043-.3691406l.246582,4.1298828c-1.0478516.3701172-2.7124023.7392578-4.8081055.7392578-2.527832,0-4.5620117-.8623047-5.8564453-2.2802734-1.4794922-1.6650391-2.0961914-4.3154297-2.0961914-7.8291016v-16.2744141h-4.6235352v-4.1298828h4.6235352v-5.5488281l5.3017578-1.6025391Z"/>
    <path d="M361.8427734,134.3388672c0,2.5888672.1235352,5.1162109.4316406,7.1503906h-4.8701172l-.4316406-3.7607422h-.1845703c-1.6645508,2.3427734-4.8701172,4.4384766-9.1235352,4.4384766-6.0415039,0-9.1235352-4.2529297-9.1235352-8.5683594,0-7.2128906,6.4111328-11.1582031,17.9384766-11.0957031v-.6171875c0-2.4042969-.6777344-6.9042969-6.7807617-6.8427734-2.8354492,0-5.7329102.8017578-7.8291016,2.2197266l-1.2329102-3.6367188c2.4658203-1.5419922,6.1030273-2.5898438,9.8632812-2.5898438,9.1235352,0,11.3427734,6.2265625,11.3427734,12.1445312v11.1582031ZM356.6030273,126.2626953c-5.9179688-.1230469-12.637207.9248047-12.637207,6.7197266,0,3.5751953,2.3422852,5.1777344,5.0546875,5.1777344,3.9453125,0,6.4726562-2.4658203,7.3359375-4.9931641.1850586-.6162109.246582-1.2324219.246582-1.7255859v-5.1787109Z"/>
  </g>
</svg>