<svg version="1.1" id="Layer_1" xmlns="http://www.w3.org/2000/svg" xmlns:xlink="http://www.w3.org/1999/xlink" x="0px" y="0px"
	 width="100%" viewBox="0 0 1002 197" enable-background="new 0 0 1002 197" xml:space="preserve">
<path fill="#792FE5" opacity="1.000000" stroke="none" 
	d="
M1003.000000,12.000003 
	C1003.000000,53.689991 1003.000000,95.379982 1002.591370,137.495773 
	C988.142517,135.323044 974.107910,132.694016 960.061035,130.131927 
	C922.965088,123.365730 885.860046,116.649269 848.765991,109.872559 
	C823.926697,105.334679 799.102112,100.716682 774.266907,96.156555 
	C763.004333,94.088562 751.731873,92.073990 740.382812,89.579300 
	C740.284180,86.490417 740.480103,83.831184 740.161072,81.235245 
	C739.996338,79.895569 739.154846,77.891853 738.187439,77.594955 
	C737.080444,77.255234 735.494141,78.477295 733.497681,79.264641 
	C731.027893,76.480064 727.264648,76.599037 722.942627,77.951744 
	C720.714722,77.160973 718.880493,76.332405 716.957458,75.947937 
	C708.359619,74.229034 699.736511,72.636765 690.969971,70.703377 
	C688.761292,66.929413 686.411255,68.675415 683.708740,69.880142 
	C668.957214,67.137703 654.574524,64.574982 640.204285,61.944721 
	C607.513367,55.961151 574.827332,49.950462 542.141418,43.939358 
	C512.866150,38.555473 483.579559,33.231152 454.324524,27.739050 
	C432.770233,23.692617 411.277679,19.317280 389.722748,15.274372 
	C369.135712,11.412999 348.493256,7.847180 327.907196,3.980688 
	C325.824982,3.589598 323.963776,2.021746 322.000000,0.999997 
	C545.023315,1.000000 768.046631,1.000000 991.372681,1.332568 
	C995.450256,5.110093 999.225159,8.555049 1003.000000,12.000003 
z"/>
<path fill="#6F43E8" opacity="1.000000" stroke="none" 
	d="
M1003.000000,181.000000 
	C1003.000000,182.388885 1003.000000,183.777786 1002.668335,185.681244 
	C998.557739,190.130554 994.778870,194.065262 991.000000,198.000000 
	C966.979126,198.000000 942.958191,198.000000 918.327576,197.674896 
	C915.035706,196.242081 912.448181,194.647003 909.656189,194.105148 
	C890.402649,190.368484 871.104065,186.864334 851.824951,183.258530 
	C842.834900,181.577103 833.875610,179.723541 824.867676,178.146179 
	C808.997681,175.367233 793.073486,172.892029 777.223389,170.006668 
	C761.678345,167.176849 746.225342,163.841919 730.681824,161.002655 
	C707.109619,156.696854 683.476013,152.727310 659.902283,148.429642 
	C637.799438,144.400162 615.726013,140.203873 593.672485,135.912369 
	C588.350281,134.876694 583.157654,133.175415 577.956543,131.401093 
	C580.908875,126.021660 583.320068,130.057480 586.560486,131.181747 
	C585.025208,127.184807 583.489868,123.187866 581.954590,119.190933 
	C581.405701,119.188232 580.856873,119.185539 580.307983,119.182838 
	C578.796082,123.470627 577.284180,127.758408 575.358154,132.036697 
	C573.007690,132.016998 571.071472,132.006790 569.081177,131.559158 
	C569.027161,128.498993 569.027161,125.876259 569.027161,123.326508 
	C564.531433,122.065422 560.844238,121.464500 559.530518,126.996704 
	C558.904968,126.996895 558.547546,126.997017 558.119629,126.620819 
	C557.577820,123.219933 555.963501,122.168709 552.815674,122.430962 
	C549.494873,122.707611 549.909790,124.926559 549.419067,127.181915 
	C548.400269,128.980591 547.651428,130.592422 546.686707,132.668930 
	C545.344421,130.407425 544.331543,128.700928 543.256714,126.609589 
	C541.414490,121.658821 539.545532,121.160446 534.508118,123.990425 
	C533.746643,123.976448 533.311523,123.967506 532.829163,123.648232 
	C531.879089,122.340103 530.976318,121.342293 529.720398,119.954247 
	C529.016907,121.662407 528.538086,122.825043 527.731934,123.871391 
	C526.732605,123.582237 526.060608,123.409370 525.128540,123.083458 
	C522.602539,121.684288 520.336609,120.438164 517.758789,118.965088 
	C516.520142,118.390854 515.620728,117.890511 514.662476,117.718948 
	C496.279266,114.427872 477.882050,111.214973 459.504028,107.895416 
	C452.177765,106.572098 444.871063,105.120567 437.602356,103.515022 
	C436.093079,103.181648 434.791260,101.908905 433.524902,100.744019 
	C435.277832,96.002480 436.899658,91.586006 438.833527,87.462265 
	C443.100037,88.836632 447.054504,89.918266 451.098572,91.440460 
	C451.188141,94.483093 451.188141,97.085175 451.188141,100.058418 
	C453.508575,99.924797 455.069916,99.834900 457.141968,99.715584 
	C457.141968,93.225281 457.141968,87.111252 457.564392,80.999092 
	C460.785492,81.380135 463.584167,81.759308 466.352234,82.544205 
	C466.270660,83.278030 466.244812,83.612381 466.164917,83.933296 
	C464.808228,89.384506 464.803192,94.648140 469.544586,98.546646 
	C473.217773,101.566856 477.561371,101.751808 481.724304,99.594124 
	C487.181458,96.765648 487.518097,91.557831 487.765991,86.196075 
	C489.046936,86.100395 489.901764,86.047691 490.830078,86.455856 
	C490.903595,91.285782 490.903595,95.654823 490.903595,100.331116 
	C493.075104,100.210999 494.480377,100.133270 496.093384,100.044044 
	C496.277466,95.835052 496.448578,91.923569 497.051544,88.042984 
	C499.776001,88.385956 502.068604,88.698029 504.487152,89.356453 
	C505.006683,94.749001 506.934296,98.742043 512.150635,100.331085 
	C517.415527,101.934914 521.607056,100.247932 525.250000,95.961945 
	C526.636230,95.981201 527.644470,95.991798 528.736694,96.429459 
	C529.379395,97.980843 529.938049,99.105148 530.496643,100.229446 
	C531.797058,99.487030 533.097473,98.744614 534.814392,98.001373 
	C538.003967,98.002258 540.777100,98.003983 543.674622,98.416580 
	C545.555542,99.224907 547.312134,99.622375 549.444458,100.169807 
	C556.513916,101.375000 563.205688,102.442314 569.901672,103.482536 
	C579.370422,104.953491 588.842285,106.404427 598.667480,107.943527 
	C603.693176,110.101364 608.324219,109.769211 613.217896,108.030151 
	C615.864258,109.053352 618.167725,110.112801 620.585632,110.578568 
	C635.293396,113.411751 650.017029,116.166092 664.754395,118.841629 
	C698.969116,125.053238 733.210327,131.119766 767.411011,137.407318 
	C796.054199,142.673172 824.654114,148.174438 853.275146,153.560776 
	C869.793945,156.669540 886.298584,159.857864 902.842224,162.828659 
	C923.141541,166.473877 943.489685,169.847198 963.788269,173.496201 
	C976.885254,175.850586 989.931213,178.488922 1003.000000,181.000000 
M591.061890,124.654594 
	C590.840637,122.999352 590.619324,121.344116 590.398071,119.688881 
	C589.912537,119.731163 589.427063,119.773445 588.941589,119.815727 
	C588.941589,123.869606 588.941589,127.923485 588.941589,131.977371 
	C589.486328,132.008591 590.031067,132.039795 590.575806,132.071014 
	C590.738342,129.889130 590.900879,127.707222 591.061890,124.654594 
z"/>
<path fill="#733BE7" opacity="1.000000" stroke="none" 
	d="
M1003.000000,180.531342 
	C989.931213,178.488922 976.885254,175.850586 963.788269,173.496201 
	C943.489685,169.847198 923.141541,166.473877 902.842224,162.828659 
	C886.298584,159.857864 869.793945,156.669540 853.275146,153.560776 
	C824.654114,148.174438 796.054199,142.673172 767.411011,137.407318 
	C733.210327,131.119766 698.969116,125.053238 664.754395,118.841629 
	C650.017029,116.166092 635.293396,113.411751 620.585632,110.578568 
	C618.167725,110.112801 615.864258,109.053352 613.387390,107.731918 
	C614.283508,104.720932 615.975647,102.301430 616.182922,99.760788 
	C616.690369,93.541168 616.512146,87.265602 617.015625,81.009750 
	C618.503357,81.003395 619.585327,80.999825 620.751831,81.458191 
	C620.836365,87.869537 620.836365,93.818947 620.836365,99.991928 
	C622.847656,99.991928 624.239441,99.991928 626.188049,99.991928 
	C626.188049,95.611099 626.103760,91.484550 626.215088,87.363297 
	C626.301819,84.152481 627.667969,81.850861 631.295654,81.894333 
	C634.853394,81.936974 635.671692,84.416611 635.722412,87.324615 
	C635.794312,91.448509 635.740601,95.574600 635.740601,99.840584 
	C637.788696,99.840584 639.279114,99.840584 641.076599,99.840584 
	C641.076599,97.269333 641.049316,95.120979 641.083984,92.973633 
	C641.121582,90.647240 641.216980,88.321777 641.622925,85.956474 
	C643.305908,84.608673 644.653076,83.300308 646.376221,82.206665 
	C646.846802,86.369911 646.843750,90.323837 647.062195,94.265495 
	C647.304077,98.632507 650.598083,101.406677 654.645386,100.704010 
	C655.493164,100.556839 656.659363,99.959770 656.911804,99.283638 
	C657.186829,98.547112 656.731934,96.755898 656.315552,96.661797 
	C650.837708,95.423767 652.767639,91.361977 653.260498,88.014374 
	C655.805847,88.350830 657.942688,88.676300 660.181641,89.445946 
	C660.283752,93.284363 660.283752,96.678596 660.283752,100.397804 
	C662.664062,100.256531 664.094971,100.171600 666.007690,100.058083 
	C666.007690,95.519966 665.953552,91.252304 666.025818,86.986786 
	C666.078125,83.897545 667.503174,81.893150 670.841919,81.946182 
	C674.051270,81.997154 675.057068,84.079712 675.062866,86.919594 
	C675.071594,91.190933 675.065125,95.462318 675.065125,99.885406 
	C677.190369,99.885406 678.856323,99.885406 680.555847,99.885406 
	C680.729797,97.279030 680.872620,95.139343 681.395752,92.999756 
	C682.789917,92.998779 683.803833,92.997704 684.880920,93.424362 
	C684.944092,95.921280 684.944092,97.990456 684.944092,99.774155 
	C690.755249,101.787109 690.565979,98.140030 691.261963,95.002495 
	C692.686462,94.999969 693.722473,94.998108 694.837280,95.393158 
	C695.043274,97.201370 695.170410,98.612686 695.322388,100.299782 
	C697.112183,100.199257 698.520203,100.120178 700.351013,100.017349 
	C700.351013,95.769180 700.299500,91.825478 700.367004,87.883820 
	C700.423035,84.610756 701.328613,81.832207 705.339600,81.908546 
	C709.209412,81.982201 709.689575,84.838158 709.732849,87.821709 
	C709.791748,91.884773 709.747559,95.949341 709.747559,101.078819 
	C712.256897,100.138344 713.778992,99.567879 715.724121,98.996918 
	C718.132324,98.986664 720.117615,98.976913 722.433594,99.107376 
	C725.843750,99.210197 728.923157,99.172791 732.033936,99.486954 
	C732.406555,100.958931 732.747864,102.079346 732.881104,103.522263 
	C730.268555,103.910240 727.856384,104.120438 725.462219,103.992661 
	C723.733398,103.900391 722.028503,103.358757 719.660400,102.887764 
	C722.195557,108.640060 726.000610,110.244843 732.446106,109.148521 
	C737.055298,108.364532 740.062561,106.009064 740.199341,100.969727 
	C740.298279,97.325172 740.376465,93.680054 740.463928,90.035187 
	C751.731873,92.073990 763.004333,94.088562 774.266907,96.156555 
	C799.102112,100.716682 823.926697,105.334679 848.765991,109.872559 
	C885.860046,116.649269 922.965088,123.365730 960.061035,130.131927 
	C974.107910,132.694016 988.142517,135.323044 1002.591370,137.960785 
	C1003.000000,152.020889 1003.000000,166.041794 1003.000000,180.531342 
z"/>
<path fill="#605BEC" opacity="1.000000" stroke="none" 
	d="
M1.000000,133.000000 
	C1.000000,123.645775 1.000000,114.291542 1.400403,104.506538 
	C5.869707,104.955666 9.917139,105.953896 14.010925,106.696632 
	C44.776272,112.278427 75.559578,117.761482 106.319710,123.371666 
	C133.168198,128.268433 160.005768,133.227081 186.826508,138.273529 
	C220.673492,144.642014 254.474426,151.259140 288.353882,157.448029 
	C294.917786,158.647064 301.751160,158.371124 308.796600,158.855957 
	C311.388916,159.530457 313.644897,160.124588 316.116669,161.023544 
	C317.772064,162.097885 319.131500,163.262817 320.664062,163.573456 
	C331.593872,165.788849 342.545776,167.901840 353.515533,169.911865 
	C378.063171,174.409836 402.631866,178.793076 427.179291,183.292328 
	C444.677490,186.499542 462.183228,189.678680 479.625366,193.171204 
	C485.183044,194.284042 490.547272,196.363068 496.000000,198.000000 
	C446.312439,198.000000 396.624878,198.000000 346.306030,197.689087 
	C342.765045,196.292221 339.938263,194.779968 336.931122,194.194992 
	C324.712280,191.818085 312.425629,189.792343 300.186798,187.514801 
	C272.893219,182.435684 245.621048,177.241333 218.325836,172.171097 
	C183.191299,165.644669 148.050583,159.150894 112.897858,152.723267 
	C82.000526,147.073715 51.087948,141.506989 20.170288,135.969666 
	C13.807016,134.830002 7.391460,133.982269 1.000000,133.000000 
z"/>
<path fill="#6B49E9" opacity="1.000000" stroke="none" 
	d="
M569.135254,131.996582 
	C571.071472,132.006790 573.007690,132.016998 575.719482,132.084290 
	C576.965149,132.020981 577.435303,131.900604 577.905396,131.780228 
	C583.157654,133.175415 588.350281,134.876694 593.672485,135.912369 
	C615.726013,140.203873 637.799438,144.400162 659.902283,148.429642 
	C683.476013,152.727310 707.109619,156.696854 730.681824,161.002655 
	C746.225342,163.841919 761.678345,167.176849 777.223389,170.006668 
	C793.073486,172.892029 808.997681,175.367233 824.867676,178.146179 
	C833.875610,179.723541 842.834900,181.577103 851.824951,183.258530 
	C871.104065,186.864334 890.402649,190.368484 909.656189,194.105148 
	C912.448181,194.647003 915.035706,196.242081 917.858887,197.674896 
	C871.312439,198.000000 824.624878,198.000000 777.311218,197.682129 
	C775.411377,196.656967 774.212830,195.575073 772.851929,195.301788 
	C762.082703,193.139145 751.295959,191.056824 740.489014,189.090454 
	C720.357971,185.427521 700.193604,181.946564 680.072754,178.229416 
	C656.671326,173.906189 633.309326,169.369629 609.916077,165.001450 
	C585.715149,160.482437 561.503540,156.019775 537.284668,151.597855 
	C519.270813,148.308868 501.217346,145.234085 483.219879,141.859314 
	C468.013123,139.007828 452.861481,135.862488 437.742554,132.452820 
	C437.236786,128.159760 436.673859,124.261063 436.110931,120.362366 
	C435.476288,120.404747 434.841644,120.447128 434.207001,120.489517 
	C434.207001,123.863632 434.207001,127.237747 433.883484,130.829926 
	C432.816650,131.260620 432.073395,131.473236 431.319397,131.287170 
	C430.640472,128.173721 430.348053,125.255798 429.061157,122.875542 
	C428.703491,122.213997 425.398773,123.145782 424.650726,123.222702 
	C424.030518,126.666031 423.646545,128.797714 422.919983,130.942291 
	C422.120453,130.969879 421.663544,130.984558 421.022186,130.719696 
	C420.018829,130.055191 419.199890,129.670227 418.660980,129.416901 
	C419.624878,128.054932 421.093414,126.891350 421.038300,125.805016 
	C420.981659,124.687462 419.582733,122.969612 418.509827,122.741081 
	C417.168274,122.455322 415.217133,123.033638 414.168427,123.961472 
	C413.217834,124.802528 413.125275,126.613441 412.317596,128.017670 
	C410.555969,129.104233 409.131134,130.169876 407.914825,131.079559 
	C407.850586,125.982933 407.654907,125.805054 403.764954,128.010162 
	C403.529022,128.044952 403.056335,128.108627 402.755005,127.881104 
	C400.118896,127.138931 397.784088,126.624283 395.410675,125.697815 
	C396.174316,123.929604 396.916077,121.486748 397.791138,121.438034 
	C399.744720,121.329292 401.764832,122.415092 403.757812,123.014236 
	C403.996796,122.686295 404.235748,122.358360 404.474701,122.030426 
	C402.771515,121.034485 401.135559,119.358665 399.351349,119.182335 
	C395.484680,118.800179 393.987457,121.692375 392.810364,125.006363 
	C390.583893,124.745461 388.787109,124.516945 386.999603,124.230789 
	C380.334900,123.163864 373.673187,122.078018 366.920349,120.538857 
	C366.888184,114.385628 366.946014,108.692833 367.434601,103.000999 
	C373.771942,103.807396 379.724701,104.366158 385.576996,105.461418 
	C409.530640,109.944328 433.453644,114.590919 457.329712,119.509659 
	C456.210358,120.674690 455.268921,121.900185 454.065765,122.266853 
	C450.345612,123.400597 449.414246,126.399117 450.367828,129.245651 
	C450.902710,130.842255 453.771606,132.347855 455.762177,132.618042 
	C459.577148,133.135895 459.068665,129.888733 459.066681,127.476540 
	C459.064362,124.673515 458.916351,121.870621 459.241455,119.066681 
	C462.056274,119.376411 464.461212,119.687126 466.899139,120.456734 
	C466.947632,123.355949 466.799622,125.812943 467.045959,128.229736 
	C467.173584,129.481918 467.873077,131.605118 468.534607,131.693985 
	C470.302795,131.931488 472.190186,131.281860 474.012054,130.990311 
	C473.993927,130.995850 473.981964,131.031937 474.318237,130.886963 
	C474.620087,128.224548 474.585663,125.707123 474.955505,123.153748 
	C475.899445,123.078232 476.439117,123.038681 477.042664,123.368065 
	C477.511688,127.698120 482.799866,131.293732 478.279022,136.048691 
	C479.945526,135.148865 481.352509,134.034012 482.069336,132.579132 
	C483.447205,129.782669 484.434052,126.793571 485.956451,124.027504 
	C488.161438,124.448128 489.993011,124.725616 491.874695,125.436920 
	C492.465088,128.138733 492.340973,131.100708 493.755768,132.455399 
	C494.889465,133.540848 497.891724,132.674759 500.064697,132.674759 
	C500.061371,132.220795 500.058075,131.766846 500.054749,131.312881 
	C498.504181,131.050781 496.953613,130.788696 495.031708,130.463821 
	C495.031708,128.864899 495.031708,127.432816 495.437134,126.040306 
	C499.158844,126.387688 502.475098,126.695496 505.864502,127.373444 
	C507.931335,129.667130 509.925049,131.590668 512.278564,133.861389 
	C511.211945,134.088516 509.657715,134.419479 508.142761,134.742081 
	C512.868164,137.202362 514.401428,136.446854 516.067017,130.994110 
	C516.873169,130.999283 517.333801,131.002029 517.926514,131.252991 
	C518.706116,129.997635 519.239197,128.429398 520.040161,127.012589 
	C520.600769,126.020981 521.527283,125.236221 522.290344,124.359070 
	C522.892090,125.221130 523.786560,126.008591 524.029480,126.962074 
	C524.431885,128.541443 524.414795,130.227692 524.574463,131.868896 
	C525.124023,131.806488 525.673584,131.744064 526.223145,131.681641 
	C525.944946,128.866592 525.666809,126.051552 525.388611,123.236511 
	C526.060608,123.409370 526.732605,123.582237 528.021118,124.128326 
	C529.821167,127.013161 527.791687,131.140274 530.934937,132.195312 
	C531.673706,129.060913 532.275085,126.509735 532.876404,123.958557 
	C533.311523,123.967506 533.746643,123.976448 534.559998,124.418823 
	C535.041687,127.173622 535.145142,129.494995 535.248596,131.816360 
	C535.742737,131.804474 536.236877,131.792603 536.731018,131.780731 
	C536.850708,130.082474 536.761353,128.331314 537.172363,126.706772 
	C537.401245,125.801964 538.463257,125.107956 539.149841,124.318939 
	C539.806824,125.110886 540.802124,125.811401 541.046326,126.714920 
	C541.478516,128.314178 541.454041,130.036880 541.620667,131.707916 
	C542.008240,131.684738 542.395813,131.661575 542.783447,131.638397 
	C542.961792,130.090408 543.140198,128.542419 543.318604,126.994415 
	C544.331543,128.700928 545.344421,130.407425 546.686707,132.668930 
	C547.651428,130.592422 548.400269,128.980591 549.469971,127.516922 
	C549.905518,129.137268 550.020081,130.609467 550.134705,132.081650 
	C550.546509,132.061447 550.958252,132.041229 551.370056,132.021027 
	C551.533569,130.786133 551.513977,129.488907 551.907776,128.332428 
	C552.379822,126.945877 553.204590,125.679413 553.876587,124.360931 
	C554.580261,125.620209 555.451965,126.818649 555.936707,128.157211 
	C556.356689,129.316833 556.337830,130.635345 556.512939,131.883636 
	C556.890442,131.849014 557.267944,131.814392 557.645447,131.779785 
	C557.827026,130.185562 558.008545,128.591354 558.190063,126.997139 
	C558.547546,126.997017 558.904968,126.996895 559.597168,127.345169 
	C560.631226,128.807083 561.330505,129.920578 562.026550,131.013123 
	C562.023315,130.992142 561.981812,130.990891 562.185913,131.296478 
	C563.780579,132.016495 565.171143,132.430939 566.561707,132.845383 
	C566.521912,133.212372 566.482117,133.579346 566.442322,133.946335 
	C564.797607,134.196594 563.152954,134.446869 560.563110,134.840958 
	C565.366760,137.073166 568.043030,136.484833 569.135254,131.996582 
M445.131592,122.432930 
	C441.785889,122.091942 439.809204,123.886116 439.941833,126.948280 
	C440.020355,128.761322 441.301514,131.015244 442.762726,132.099289 
	C443.711426,132.803101 445.959137,131.755859 447.624847,131.493164 
	C447.550781,131.195587 447.476685,130.898010 447.402618,130.600418 
	C445.704041,130.377991 444.005463,130.155563 442.306885,129.933136 
	C442.353424,129.444794 442.399963,128.956451 442.446503,128.468109 
	C444.324066,128.222824 446.201630,127.977547 449.468842,127.550720 
	C447.884247,125.431076 446.848572,124.045685 445.131592,122.432930 
z"/>
<path fill="#7635E6" opacity="1.000000" stroke="none" 
	d="
M660.079590,89.001770 
	C657.942688,88.676300 655.805847,88.350830 653.152893,87.581177 
	C652.640930,84.639015 651.576599,81.524666 655.920898,81.414780 
	C655.981506,81.413246 656.520569,78.499245 655.890625,77.628609 
	C654.626892,75.881683 652.708496,74.608368 651.060242,73.139587 
	C651.303162,72.827133 651.546082,72.514671 651.789001,72.202217 
	C650.365295,72.202217 648.941589,72.202217 648.098267,72.202217 
	C647.045410,74.178596 646.319031,75.797256 645.354736,77.258957 
	C644.755127,78.167732 643.795166,78.838799 642.997009,79.616577 
	C643.998108,80.408363 644.999146,81.200150 646.000244,81.991943 
	C644.653076,83.300308 643.305908,84.608673 641.536255,85.571457 
	C639.714539,77.442871 636.324646,75.927315 626.241577,78.723213 
	C626.058594,75.810585 625.878113,72.938133 625.677979,69.752357 
	C623.875488,69.953651 622.498108,70.107468 620.667297,70.311913 
	C620.667297,74.110222 620.667297,77.553238 620.667297,80.996262 
	C619.585327,80.999825 618.503357,81.003395 616.906677,80.660645 
	C615.744507,79.342155 615.153137,77.578583 614.440369,77.528084 
	C610.257568,77.231728 605.983276,76.897354 601.871460,77.489548 
	C599.827393,77.783936 598.063904,80.025887 595.890137,81.148636 
	C594.170837,80.604408 592.734924,80.298355 591.191650,79.553703 
	C589.285583,78.722763 587.486877,78.330414 585.281006,77.942863 
	C579.603577,77.297630 574.333313,76.647614 568.983887,75.580093 
	C568.809937,73.566368 568.715149,71.970139 568.574585,69.603470 
	C566.378601,70.138748 564.620483,70.567276 562.421448,70.996353 
	C559.167664,70.787498 556.310486,70.824837 553.549316,70.328354 
	C536.544495,67.270691 519.571167,64.038124 502.568268,60.969551 
	C484.905151,57.781830 467.191071,54.869801 449.552643,51.553429 
	C428.471436,47.589748 407.477509,43.160286 386.389374,39.235558 
	C363.843170,35.039482 341.215240,31.284489 318.652954,27.172577 
	C299.176331,23.623026 279.756195,19.763992 260.284821,16.184855 
	C237.053467,11.914567 213.787674,7.831341 190.560654,3.538075 
	C188.939453,3.238413 187.515610,1.870924 186.000000,0.999999 
	C231.020889,1.000000 276.041779,1.000000 321.531342,0.999997 
	C323.963776,2.021746 325.824982,3.589598 327.907196,3.980688 
	C348.493256,7.847180 369.135712,11.412999 389.722748,15.274372 
	C411.277679,19.317280 432.770233,23.692617 454.324524,27.739050 
	C483.579559,33.231152 512.866150,38.555473 542.141418,43.939358 
	C574.827332,49.950462 607.513367,55.961151 640.204285,61.944721 
	C654.574524,64.574982 668.957214,67.137703 683.663696,70.249046 
	C684.824585,72.289284 685.656006,73.811562 686.915161,76.117035 
	C688.805054,73.818016 689.963745,72.408394 691.122498,70.998779 
	C699.736511,72.636765 708.359619,74.229034 716.957458,75.947937 
	C718.880493,76.332405 720.714722,77.160973 722.745117,78.238785 
	C715.937256,83.953300 716.579712,93.305695 722.102844,98.967155 
	C720.117615,98.976913 718.132324,98.986664 715.645081,98.535385 
	C715.127319,94.765289 715.064453,91.455605 715.107971,88.147324 
	C715.159180,84.258476 715.262390,79.783295 711.135742,78.328751 
	C708.014404,77.228577 704.162048,78.202332 700.635071,78.253090 
	C700.720581,78.416740 700.806030,78.580391 700.891541,78.744041 
	C699.117798,78.236450 697.344055,77.728867 694.758423,76.988953 
	C694.758423,83.793587 694.758423,89.394920 694.758423,94.996246 
	C693.722473,94.998108 692.686462,94.999969 691.158936,94.544014 
	C690.635864,89.945557 690.435425,85.797417 690.618835,81.666321 
	C690.815979,77.225830 688.851807,76.596352 684.817749,78.074142 
	C684.817749,83.094101 684.817749,88.045364 684.817749,92.996628 
	C683.803833,92.997704 682.789917,92.998779 681.309998,92.561272 
	C680.575562,88.994637 680.660034,85.784790 679.958252,82.757164 
	C678.826477,77.873955 674.069336,75.695068 669.487610,77.828972 
	C667.607056,78.704796 666.543152,79.507965 664.393250,77.679779 
	C662.761963,76.292564 660.239624,77.264038 660.328674,80.537598 
	C660.405396,83.354630 660.174500,86.180054 660.079590,89.001770 
M590.609314,72.924789 
	C592.090637,70.000496 590.812317,68.438538 587.920044,68.401817 
	C587.028687,68.390495 585.358582,70.005859 585.349548,70.889793 
	C585.316284,74.130981 587.352478,74.565773 590.609314,72.924789 
z"/>
<path fill="#674FEA" opacity="1.000000" stroke="none" 
	d="
M421.206635,130.999237 
	C421.663544,130.984558 422.120453,130.969879 423.177551,131.142975 
	C426.295197,131.449127 428.812653,131.567490 431.330109,131.685852 
	C432.073395,131.473236 432.816650,131.260620 434.100525,131.049591 
	C435.655853,131.649857 436.670654,132.248520 437.685425,132.847198 
	C452.861481,135.862488 468.013123,139.007828 483.219879,141.859314 
	C501.217346,145.234085 519.270813,148.308868 537.284668,151.597855 
	C561.503540,156.019775 585.715149,160.482437 609.916077,165.001450 
	C633.309326,169.369629 656.671326,173.906189 680.072754,178.229416 
	C700.193604,181.946564 720.357971,185.427521 740.489014,189.090454 
	C751.295959,191.056824 762.082703,193.139145 772.851929,195.301788 
	C774.212830,195.575073 775.411377,196.656967 776.842529,197.682129 
	C731.312439,198.000000 685.624878,198.000000 639.300537,197.684631 
	C637.190186,196.691406 635.780151,195.684097 634.233459,195.385956 
	C616.132202,191.896759 598.016785,188.479523 579.892273,185.112595 
	C559.630371,181.348618 539.356384,177.649521 519.085571,173.933762 
	C496.183350,169.735611 473.282318,165.530731 450.374268,161.364426 
	C421.564728,156.124786 392.729370,151.023544 363.953247,145.607071 
	C358.827271,144.642212 353.935364,142.433990 349.122955,140.513260 
	C352.137329,138.585571 354.840057,136.660141 357.816437,135.362106 
	C364.188995,132.582962 368.168976,128.494858 367.010376,120.999283 
	C373.673187,122.078018 380.334900,123.163864 386.999603,124.230789 
	C388.787109,124.516945 390.583893,124.745461 392.878052,125.362564 
	C393.789673,127.134018 393.766418,129.109451 394.705170,129.827866 
	C396.358337,131.093002 398.664124,132.320786 400.570648,132.150787 
	C401.828125,132.038666 402.865143,129.453323 404.000854,127.975388 
	C407.654907,125.805054 407.850586,125.982933 407.914825,131.079559 
	C409.131134,130.169876 410.555969,129.104233 412.416016,128.375366 
	C414.579254,133.336502 417.459137,133.752731 421.206635,130.999237 
z"/>
<path fill="#733BE7" opacity="1.000000" stroke="none" 
	d="
M185.531342,0.999999 
	C187.515610,1.870924 188.939453,3.238413 190.560654,3.538075 
	C213.787674,7.831341 237.053467,11.914567 260.284821,16.184855 
	C279.756195,19.763992 299.176331,23.623026 318.652954,27.172577 
	C341.215240,31.284489 363.843170,35.039482 386.389374,39.235558 
	C407.477509,43.160286 428.471436,47.589748 449.552643,51.553429 
	C467.191071,54.869801 484.905151,57.781830 502.568268,60.969551 
	C519.571167,64.038124 536.544495,67.270691 553.549316,70.328354 
	C556.310486,70.824837 559.167664,70.787498 562.502075,71.457458 
	C562.969604,76.944740 562.915405,81.971474 562.514954,87.072479 
	C557.865479,86.430183 553.562378,85.713600 549.158813,84.634026 
	C547.664795,82.168159 546.624756,78.739983 544.800171,78.253372 
	C541.549011,77.386307 537.823547,78.297791 533.808899,78.488663 
	C533.808899,76.161972 533.808899,73.108635 533.808899,69.733047 
	C531.894897,69.951675 530.507446,70.110161 528.652466,70.322044 
	C528.652466,74.106476 528.652466,77.549133 528.282715,80.992401 
	C526.679993,80.994026 525.447144,80.995033 523.938965,80.772217 
	C514.924683,73.424294 506.496582,77.118942 504.361176,89.010101 
	C502.068604,88.698029 499.776001,88.385956 496.954315,87.638367 
	C496.536011,82.474930 499.934814,81.860107 503.907166,81.807770 
	C503.822937,80.103447 503.754272,78.714203 503.643341,76.469887 
	C500.826355,77.528397 498.619324,78.357712 496.412262,79.187027 
	C496.499054,78.907288 496.585876,78.627548 496.672668,78.347801 
	C494.929749,78.010857 493.186829,77.673912 491.147614,77.279686 
	C490.992493,80.737511 490.874542,83.366241 490.756592,85.994980 
	C489.901764,86.047691 489.046936,86.100395 487.644287,85.887146 
	C482.635803,75.674019 472.502502,73.970245 466.382874,82.138481 
	C463.584167,81.759308 460.785492,81.380135 457.496033,80.570435 
	C457.005280,78.381256 457.005280,76.622589 457.005280,74.958321 
	C466.270966,73.681938 466.270966,73.681938 465.334351,70.020996 
	C457.750031,70.020996 450.145874,70.020996 442.203796,70.020996 
	C442.104767,71.464958 442.017792,72.733124 441.559998,74.085197 
	C438.783447,74.110802 436.353760,74.248108 433.976562,73.957031 
	C427.184448,73.125343 420.413666,72.119583 413.244629,71.093903 
	C406.975769,70.811920 401.096741,70.618324 394.996643,70.109314 
	C391.761017,68.675003 388.830109,67.049217 385.715729,66.535042 
	C377.359253,65.155457 368.924225,64.251549 360.193024,63.094200 
	C347.703796,55.841961 335.336456,48.974106 323.459167,41.343472 
	C316.614624,36.946129 310.574493,35.041870 304.064484,41.361462 
	C303.276978,42.125904 302.030884,42.417881 300.851349,42.609306 
	C297.848145,41.197292 295.076935,39.634388 292.118835,39.093445 
	C279.066467,36.706593 265.923828,34.809113 252.881912,32.370598 
	C231.817703,28.432123 210.830551,24.081978 189.768051,20.134045 
	C159.242584,14.412378 128.675156,8.914711 98.143356,3.226336 
	C96.674950,2.952757 95.377213,1.763071 94.000000,1.000000 
	C124.354225,1.000000 154.708450,1.000000 185.531342,0.999999 
z"/>
<path fill="#5C62ED" opacity="1.000000" stroke="none" 
	d="
M1.000000,133.468658 
	C7.391460,133.982269 13.807016,134.830002 20.170288,135.969666 
	C51.087948,141.506989 82.000526,147.073715 112.897858,152.723267 
	C148.050583,159.150894 183.191299,165.644669 218.325836,172.171097 
	C245.621048,177.241333 272.893219,182.435684 300.186798,187.514801 
	C312.425629,189.792343 324.712280,191.818085 336.931122,194.194992 
	C339.938263,194.779968 342.765045,196.292221 345.837372,197.689087 
	C296.645782,198.000000 247.291550,198.000000 197.324860,197.672668 
	C195.649323,196.626450 194.670746,195.485199 193.510269,195.252975 
	C179.500778,192.449600 165.477310,189.711090 151.431213,187.096893 
	C138.537949,184.697266 125.596893,182.554016 112.705627,180.144104 
	C97.043831,177.216263 81.428581,174.038651 65.762184,171.136429 
	C53.362652,168.839401 40.919117,166.778717 28.489880,164.643570 
	C19.330969,163.070206 10.163602,161.546066 1.000000,160.000000 
	C1.000000,151.312439 1.000000,142.624863 1.000000,133.468658 
z"/>
<path fill="#6E42E8" opacity="1.000000" stroke="none" 
	d="
M1.000000,28.000000 
	C1.000000,22.977907 1.000000,17.955816 1.338834,12.597851 
	C4.880040,9.047095 8.082412,5.832212 11.662737,2.804152 
	C14.235150,3.725024 16.378969,4.728078 18.631777,5.152185 
	C46.075218,10.318608 73.528511,15.433414 100.991455,20.495413 
	C141.205627,27.907734 181.427841,35.276447 221.650528,42.642521 
	C235.851807,45.243229 250.101547,47.597343 264.253082,50.442410 
	C269.646942,51.526806 274.827484,53.672146 279.894623,55.590282 
	C276.262878,57.893494 272.995483,60.280449 269.386505,61.911644 
	C263.178192,64.717682 259.343079,68.691933 260.150665,75.991287 
	C234.445602,71.401115 209.122787,66.858734 183.818024,62.217896 
	C166.496231,59.041111 149.200455,55.722599 131.891510,52.475639 
	C105.245552,47.477165 78.599533,42.478970 51.951103,37.493729 
	C34.969688,34.316933 17.983854,31.163763 1.000000,28.000000 
z"/>
<path fill="#6455EB" opacity="1.000000" stroke="none" 
	d="
M308.460236,158.775558 
	C301.751160,158.371124 294.917786,158.647064 288.353882,157.448029 
	C254.474426,151.259140 220.673492,144.642014 186.826508,138.273529 
	C160.005768,133.227081 133.168198,128.268433 106.319710,123.371666 
	C75.559578,117.761482 44.776272,112.278427 14.010925,106.696632 
	C9.917139,105.953896 5.869707,104.955666 1.400403,104.037880 
	C1.000000,96.645744 1.000000,89.291496 1.426712,81.473236 
	C12.955597,82.973938 24.068016,84.882706 35.157951,86.914200 
	C64.235138,92.240654 93.300850,97.629723 122.374382,102.976189 
	C142.775604,106.727859 163.186844,110.425163 183.584961,114.193550 
	C202.549164,117.697014 221.493469,121.308800 240.464294,124.775558 
	C247.154846,125.998192 253.898010,126.932823 260.767822,128.325485 
	C265.471222,132.054535 269.801239,135.818710 274.621460,138.786789 
	C285.774902,145.654556 297.165710,152.136902 308.460236,158.775558 
z"/>
<path fill="#6355EB" opacity="1.000000" stroke="none" 
	d="
M348.935364,140.799866 
	C353.935364,142.433990 358.827271,144.642212 363.953247,145.607071 
	C392.729370,151.023544 421.564728,156.124786 450.374268,161.364426 
	C473.282318,165.530731 496.183350,169.735611 519.085571,173.933762 
	C539.356384,177.649521 559.630371,181.348618 579.892273,185.112595 
	C598.016785,188.479523 616.132202,191.896759 634.233459,195.385956 
	C635.780151,195.684097 637.190186,196.691406 638.831848,197.684631 
	C591.645752,198.000000 544.291565,198.000000 496.468658,198.000000 
	C490.547272,196.363068 485.183044,194.284042 479.625366,193.171204 
	C462.183228,189.678680 444.677490,186.499542 427.179291,183.292328 
	C402.631866,178.793076 378.063171,174.409836 353.515533,169.911865 
	C342.545776,167.901840 331.593872,165.788849 320.664062,163.573456 
	C319.131500,163.262817 317.772064,162.097885 316.287170,160.731812 
	C327.139648,153.690109 338.037506,147.244995 348.935364,140.799866 
z"/>
<path fill="#6A49E9" opacity="1.000000" stroke="none" 
	d="
M1.000000,28.468636 
	C17.983854,31.163763 34.969688,34.316933 51.951103,37.493729 
	C78.599533,42.478970 105.245552,47.477165 131.891510,52.475639 
	C149.200455,55.722599 166.496231,59.041111 183.818024,62.217896 
	C209.122787,66.858734 234.445602,71.401115 260.242065,76.452179 
	C260.661865,84.278488 260.600342,91.638084 260.155304,98.979584 
	C246.008820,96.507034 232.235703,94.107903 218.484863,91.587250 
	C184.284790,85.318085 150.090439,79.017540 115.902237,72.683922 
	C86.769318,67.286827 57.658394,61.770378 28.515802,56.426395 
	C19.380487,54.751221 10.173941,53.464520 1.000000,52.000000 
	C1.000000,44.312424 1.000000,36.624847 1.000000,28.468636 
z"/>
<path fill="#713DE7" opacity="1.000000" stroke="none" 
	d="
M280.105255,55.333969 
	C274.827484,53.672146 269.646942,51.526806 264.253082,50.442410 
	C250.101547,47.597343 235.851807,45.243229 221.650528,42.642521 
	C181.427841,35.276447 141.205627,27.907734 100.991455,20.495413 
	C73.528511,15.433414 46.075218,10.318608 18.631777,5.152185 
	C16.378969,4.728078 14.235150,3.725024 11.898985,2.597035 
	C12.171520,1.802062 12.585760,1.401031 13.000000,1.000000 
	C39.687561,1.000000 66.375122,1.000000 93.531342,1.000000 
	C95.377213,1.763071 96.674950,2.952757 98.143356,3.226336 
	C128.675156,8.914711 159.242584,14.412378 189.768051,20.134045 
	C210.830551,24.081978 231.817703,28.432123 252.881912,32.370598 
	C265.923828,34.809113 279.066467,36.706593 292.118835,39.093445 
	C295.076935,39.634388 297.848145,41.197292 300.626648,42.871025 
	C293.733673,47.412830 286.919464,51.373398 280.105255,55.333969 
z"/>
<path fill="#5868EE" opacity="1.000000" stroke="none" 
	d="
M1.000000,160.468658 
	C10.163602,161.546066 19.330969,163.070206 28.489880,164.643570 
	C40.919117,166.778717 53.362652,168.839401 65.762184,171.136429 
	C81.428581,174.038651 97.043831,177.216263 112.705627,180.144104 
	C125.596893,182.554016 138.537949,184.697266 151.431213,187.096893 
	C165.477310,189.711090 179.500778,192.449600 193.510269,195.252975 
	C194.670746,195.485199 195.649323,196.626450 196.856201,197.672668 
	C135.645767,198.000000 74.291542,198.000000 12.621227,197.665100 
	C8.536759,193.886810 4.768378,190.443405 0.999998,187.000000 
	C1.000000,178.312439 1.000000,169.624863 1.000000,160.468658 
z"/>
<path fill="#6650EA" opacity="1.000000" stroke="none" 
	d="
M260.617157,127.998955 
	C253.898010,126.932823 247.154846,125.998192 240.464294,124.775558 
	C221.493469,121.308800 202.549164,117.697014 183.584961,114.193550 
	C163.186844,110.425163 142.775604,106.727859 122.374382,102.976189 
	C93.300850,97.629723 64.235138,92.240654 35.157951,86.914200 
	C24.068016,84.882706 12.955597,82.973938 1.426712,81.004623 
	C1.000000,76.310745 1.000000,71.621490 1.436568,66.466370 
	C15.298461,68.197952 28.750889,70.244072 42.140343,72.641846 
	C52.430256,74.484558 62.609047,76.944534 72.893745,78.820267 
	C91.022392,82.126587 109.219292,85.060013 127.342087,88.396835 
	C155.918762,93.658447 184.448532,99.174339 213.016388,104.484558 
	C228.838135,107.425507 244.696915,110.167213 260.629089,113.457260 
	C260.685211,118.610176 260.651184,123.304565 260.617157,127.998955 
z"/>
<path fill="#684DEA" opacity="1.000000" stroke="none" 
	d="
M260.539001,112.998734 
	C244.696915,110.167213 228.838135,107.425507 213.016388,104.484558 
	C184.448532,99.174339 155.918762,93.658447 127.342087,88.396835 
	C109.219292,85.060013 91.022392,82.126587 72.893745,78.820267 
	C62.609047,76.944534 52.430256,74.484558 42.140343,72.641846 
	C28.750889,70.244072 15.298461,68.197952 1.436568,66.000244 
	C1.000000,61.643101 1.000000,57.286201 1.000000,52.464653 
	C10.173941,53.464520 19.380487,54.751221 28.515802,56.426395 
	C57.658394,61.770378 86.769318,67.286827 115.902237,72.683922 
	C150.090439,79.017540 184.284790,85.318085 218.484863,91.587250 
	C232.235703,94.107903 246.008820,96.507034 260.245911,99.436752 
	C260.659698,104.274269 260.599335,108.636497 260.539001,112.998734 
z"/>
<path fill="#05030A" opacity="1.000000" stroke="none" 
	d="
M991.479187,198.000000 
	C994.778870,194.065262 998.557739,190.130554 1002.668335,186.097916 
	C1003.000000,189.921982 1003.000000,193.843948 1003.000000,198.000000 
	C999.321411,198.000000 995.639893,198.000000 991.479187,198.000000 
z"/>
<path fill="#040309" opacity="1.000000" stroke="none" 
	d="
M12.520824,1.000000 
	C12.585760,1.401031 12.171520,1.802062 11.521032,2.410211 
	C8.082412,5.832212 4.880040,9.047095 1.338834,12.130989 
	C1.000000,8.408027 1.000000,4.816054 1.000000,1.000000 
	C4.678767,1.000000 8.360208,1.000000 12.520824,1.000000 
z"/>
<path fill="#03040A" opacity="1.000000" stroke="none" 
	d="
M0.999998,187.482956 
	C4.768378,190.443405 8.536759,193.886810 12.152571,197.665100 
	C8.412791,198.000000 4.825583,198.000000 1.000000,198.000000 
	C1.000000,194.657455 1.000000,191.311676 0.999998,187.482956 
z"/>
<path fill="#040309" opacity="1.000000" stroke="none" 
	d="
M1003.000000,11.517047 
	C999.225159,8.555049 995.450256,5.110093 991.837708,1.332568 
	C995.587219,1.000000 999.174377,1.000000 1003.000000,1.000000 
	C1003.000000,4.342550 1003.000000,7.688319 1003.000000,11.517047 
z"/>
<path fill="#F8F5FE" opacity="1.000000" stroke="none" 
	d="
M722.433594,99.107376 
	C716.579712,93.305695 715.937256,83.953300 723.097839,78.405441 
	C727.264648,76.599037 731.027893,76.480064 733.497681,79.264641 
	C735.494141,78.477295 737.080444,77.255234 738.187439,77.594955 
	C739.154846,77.891853 739.996338,79.895569 740.161072,81.235245 
	C740.480103,83.831184 740.284180,86.490417 740.382812,89.579300 
	C740.376465,93.680054 740.298279,97.325172 740.199341,100.969727 
	C740.062561,106.009064 737.055298,108.364532 732.446106,109.148521 
	C726.000610,110.244843 722.195557,108.640060 719.660400,102.887764 
	C722.028503,103.358757 723.733398,103.900391 725.462219,103.992661 
	C727.856384,104.120438 730.268555,103.910240 733.192749,103.305443 
	C733.142456,101.555870 732.572510,100.345619 732.002563,99.135376 
	C728.923157,99.172791 725.843750,99.210197 722.433594,99.107376 
M733.538696,93.853455 
	C733.738342,90.851044 734.599609,87.699768 733.966187,84.884804 
	C733.214050,81.541916 730.093384,81.022293 727.146179,82.297707 
	C724.281860,83.537300 723.102112,89.043755 724.867798,92.518944 
	C726.771545,96.265839 729.580994,96.804436 733.538696,93.853455 
z"/>
<path fill="#F4F0FD" opacity="1.000000" stroke="none" 
	d="
M690.969971,70.703377 
	C689.963745,72.408394 688.805054,73.818016 686.915161,76.117035 
	C685.656006,73.811562 684.824585,72.289284 684.038208,70.398094 
	C686.411255,68.675415 688.761292,66.929413 690.969971,70.703377 
z"/>
<path fill="#6E49E9" opacity="1.000000" stroke="none" 
	d="
M517.794434,131.004776 
	C517.333801,131.002029 516.873169,130.999283 516.001221,130.568375 
	C515.553894,128.822739 515.709351,127.461945 515.423950,126.200890 
	C515.174438,125.097977 514.508301,123.287239 513.887329,123.227295 
	C512.297546,123.073799 510.630341,123.721214 509.019104,124.043526 
	C509.044159,124.038696 509.059204,123.989807 508.707581,123.932327 
	C507.501068,124.917664 506.646210,125.960472 505.791351,127.003296 
	C502.475098,126.695496 499.158844,126.387688 495.373474,125.642059 
	C494.773224,123.404785 494.642090,121.605324 494.510925,119.805855 
	C494.017181,119.776581 493.523438,119.747307 493.029663,119.718033 
	C492.627991,121.479729 492.226318,123.241417 491.824615,125.003113 
	C489.993011,124.725616 488.161438,124.448128 485.906799,123.793259 
	C484.025604,124.891113 482.567474,126.366333 481.502502,127.443748 
	C479.996216,125.963799 478.487518,124.481461 476.978790,122.999123 
	C476.439117,123.038681 475.899445,123.078232 474.663208,123.037315 
	C471.599792,121.970505 469.232971,120.984177 466.866119,119.997849 
	C464.461212,119.687126 462.056274,119.376411 459.000763,119.087509 
	C458.031372,119.160057 457.710632,119.182709 457.387909,119.177261 
	C433.453644,114.590919 409.530640,109.944328 385.576996,105.461418 
	C379.724701,104.366158 373.771942,103.807396 367.342468,102.545517 
	C366.881470,98.059143 366.943390,94.029213 367.426697,90.004196 
	C376.961121,91.341942 386.074188,92.674782 395.303406,94.415962 
	C395.555420,96.540001 395.691284,98.255714 395.829437,100.000000 
	C397.752533,100.000000 399.145172,100.000000 400.762634,100.000000 
	C400.939911,97.832573 401.096771,95.914429 401.656677,94.013397 
	C410.215027,95.300331 418.370331,96.570160 426.708435,98.187798 
	C427.914459,101.469658 427.591461,103.544769 424.025146,104.497406 
	C422.840607,104.813812 422.042175,106.575691 420.715240,108.074249 
	C428.382721,109.737106 430.597046,108.340622 433.393829,101.069077 
	C434.791260,101.908905 436.093079,103.181648 437.602356,103.515022 
	C444.871063,105.120567 452.177765,106.572098 459.504028,107.895416 
	C477.882050,111.214973 496.279266,114.427872 514.662476,117.718948 
	C515.620728,117.890511 516.520142,118.390854 517.731873,119.411072 
	C517.942627,123.724266 517.868530,127.364517 517.794434,131.004776 
z"/>
<path fill="#733DE7" opacity="1.000000" stroke="none" 
	d="
M549.259216,84.997009 
	C553.562378,85.713600 557.865479,86.430183 562.595215,87.529510 
	C563.021790,91.873344 563.021790,95.834442 563.021790,100.326797 
	C568.838196,100.326797 574.146667,100.512650 579.421570,100.175117 
	C580.519226,100.104874 581.492920,98.096870 582.523682,96.981911 
	C582.129517,96.489426 581.735291,95.996941 581.341064,95.504456 
	C577.282593,95.504456 573.224121,95.504456 569.062988,95.504456 
	C569.062988,88.612633 569.062988,82.305115 569.062988,75.997597 
	C574.333313,76.647614 579.603577,77.297630 585.310669,78.414597 
	C585.747498,85.825417 585.747498,92.769295 585.747498,100.206207 
	C587.836365,100.108658 589.330627,100.038879 591.298950,99.946953 
	C591.298950,92.923325 591.298950,86.457802 591.298950,79.992294 
	C592.734924,80.298355 594.170837,80.604408 595.816223,81.505814 
	C594.221130,87.517540 593.424011,93.003151 597.800171,97.500465 
	C601.723633,101.532539 606.321777,100.481537 611.211914,97.966248 
	C610.693176,100.475815 610.202271,103.494301 608.580444,104.337433 
	C606.800293,105.262833 603.972717,104.230522 601.611389,103.963478 
	C599.545593,103.729843 597.493591,103.374504 595.435486,103.072937 
	C595.344238,103.456039 595.252930,103.839142 595.161682,104.222244 
	C596.212036,105.436142 597.262451,106.650032 598.312805,107.863922 
	C588.842285,106.404427 579.370422,104.953491 569.901672,103.482536 
	C563.205688,102.442314 556.513916,101.375000 549.441345,99.702324 
	C549.128052,94.388916 549.193604,89.692963 549.259216,84.997009 
z"/>
<path fill="#7144E8" opacity="1.000000" stroke="none" 
	d="
M426.525665,97.839989 
	C418.370331,96.570160 410.215027,95.300331 401.582245,93.598236 
	C400.582367,89.202797 403.508636,89.978119 405.610718,90.085007 
	C410.634430,90.340401 414.736725,88.962112 416.881378,84.077461 
	C419.104004,79.015236 417.334747,74.822800 413.634491,71.182289 
	C420.413666,72.119583 427.184448,73.125343 433.976562,73.957031 
	C436.353760,74.248108 438.783447,74.110802 441.940613,74.236137 
	C445.416656,74.451836 448.141266,74.600502 451.009003,74.756989 
	C451.009003,80.517120 451.009003,85.758507 451.009003,90.999893 
	C447.054504,89.918266 443.100037,88.836632 438.912354,87.129608 
	C439.585815,83.704544 440.492432,80.904877 441.427765,78.016502 
	C437.775848,76.665665 435.764191,77.273491 434.849670,81.022789 
	C433.825714,85.220940 432.293671,89.295158 430.574158,94.709908 
	C428.959930,89.471191 427.565491,85.721527 426.676056,81.855675 
	C425.649292,77.393143 423.324921,76.314407 419.244171,78.057022 
	C420.379517,81.438126 421.380493,84.666107 422.549194,87.832191 
	C423.791870,91.198692 425.193451,94.506531 426.525665,97.839989 
z"/>
<path fill="#F8F5FE" opacity="1.000000" stroke="none" 
	d="
M598.667480,107.943527 
	C597.262451,106.650032 596.212036,105.436142 595.161682,104.222244 
	C595.252930,103.839142 595.344238,103.456039 595.435486,103.072937 
	C597.493591,103.374504 599.545593,103.729843 601.611389,103.963478 
	C603.972717,104.230522 606.800293,105.262833 608.580444,104.337433 
	C610.202271,103.494301 610.693176,100.475815 611.211914,97.966248 
	C606.321777,100.481537 601.723633,101.532539 597.800171,97.500465 
	C593.424011,93.003151 594.221130,87.517540 596.099609,81.743988 
	C598.063904,80.025887 599.827393,77.783936 601.871460,77.489548 
	C605.983276,76.897354 610.257568,77.231728 614.440369,77.528084 
	C615.153137,77.578583 615.744507,79.342155 616.500854,80.663437 
	C616.512146,87.265602 616.690369,93.541168 616.182922,99.760788 
	C615.975647,102.301430 614.283508,104.720932 613.097412,107.493782 
	C608.324219,109.769211 603.693176,110.101364 598.667480,107.943527 
M610.350769,92.454849 
	C610.358948,90.034569 610.843506,87.492325 610.262390,85.222923 
	C609.415039,81.913643 606.348694,80.593414 603.695984,82.307480 
	C601.876038,83.483406 600.384827,86.560181 600.393555,88.780800 
	C600.402161,90.980766 601.987183,93.976318 603.814270,95.086838 
	C605.041870,95.832954 607.894470,93.905464 610.350769,92.454849 
z"/>
<path fill="#F4F0FD" opacity="1.000000" stroke="none" 
	d="
M426.708435,98.187798 
	C425.193451,94.506531 423.791870,91.198692 422.549194,87.832191 
	C421.380493,84.666107 420.379517,81.438126 419.244171,78.057022 
	C423.324921,76.314407 425.649292,77.393143 426.676056,81.855675 
	C427.565491,85.721527 428.959930,89.471191 430.574158,94.709908 
	C432.293671,89.295158 433.825714,85.220940 434.849670,81.022789 
	C435.764191,77.273491 437.775848,76.665665 441.427765,78.016502 
	C440.492432,80.904877 439.585815,83.704544 438.600342,86.836868 
	C436.899658,91.586006 435.277832,96.002480 433.524902,100.744019 
	C430.597046,108.340622 428.382721,109.737106 420.715240,108.074249 
	C422.042175,106.575691 422.840607,104.813812 424.025146,104.497406 
	C427.591461,103.544769 427.914459,101.469658 426.708435,98.187798 
z"/>
<path fill="#F6F3FE" opacity="1.000000" stroke="none" 
	d="
M466.352234,82.544205 
	C472.502502,73.970245 482.635803,75.674019 487.218201,85.930122 
	C487.518097,91.557831 487.181458,96.765648 481.724304,99.594124 
	C477.561371,101.751808 473.217773,101.566856 469.544586,98.546646 
	C464.803192,94.648140 464.808228,89.384506 466.164917,83.933296 
	C466.244812,83.612381 466.270660,83.278030 466.352234,82.544205 
M481.283508,85.407417 
	C478.426544,80.801941 473.863983,79.958038 472.368134,84.094017 
	C471.273682,87.120193 471.918793,91.023026 472.693573,94.322609 
	C472.917847,95.277695 477.584869,96.429527 477.962311,95.896370 
	C479.696136,93.447090 480.661072,90.444832 481.820038,87.607574 
	C481.976379,87.224815 481.668793,86.652580 481.283508,85.407417 
z"/>
<path fill="#FCFBFE" opacity="1.000000" stroke="none" 
	d="
M549.158813,84.634026 
	C549.193604,89.692963 549.128052,94.388916 549.065552,99.552353 
	C547.312134,99.622375 545.555542,99.224907 543.761719,97.961342 
	C543.736450,93.767075 543.828430,90.436722 543.736938,87.111412 
	C543.655334,84.148056 542.606384,81.851547 539.089417,81.883675 
	C535.708252,81.914558 534.335876,84.046921 534.245544,87.035446 
	C534.135254,90.686172 534.333252,94.346214 534.397949,98.002213 
	C533.097473,98.744614 531.797058,99.487030 530.496643,100.229446 
	C529.938049,99.105148 529.379395,97.980843 528.818359,95.969360 
	C528.761475,90.385384 528.706970,85.688583 528.652466,80.991783 
	C528.652466,77.549133 528.652466,74.106476 528.652466,70.322044 
	C530.507446,70.110161 531.894897,69.951675 533.808899,69.733047 
	C533.808899,73.108635 533.808899,76.161972 533.808899,78.488663 
	C537.823547,78.297791 541.549011,77.386307 544.800171,78.253372 
	C546.624756,78.739983 547.664795,82.168159 549.158813,84.634026 
z"/>
<path fill="#F6F3FE" opacity="1.000000" stroke="none" 
	d="
M504.487152,89.356453 
	C506.496582,77.118942 514.924683,73.424294 524.032593,81.114594 
	C524.635071,82.737137 524.868591,83.793495 525.444519,86.398140 
	C522.633667,85.002831 521.013245,83.970543 519.244995,83.382851 
	C517.366150,82.758392 514.460449,81.576805 513.577820,82.376488 
	C511.850525,83.941376 510.365387,86.716949 510.371918,88.986801 
	C510.378448,91.258102 511.810913,94.274826 513.615295,95.518784 
	C514.752075,96.302460 517.715149,94.410332 519.869751,93.754143 
	C521.198364,93.349533 522.560059,92.746910 523.879150,92.810493 
	C524.259644,92.828827 524.543640,94.850220 524.871948,95.953293 
	C521.607056,100.247932 517.415527,101.934914 512.150635,100.331085 
	C506.934296,98.742043 505.006683,94.749001 504.487152,89.356453 
z"/>
<path fill="#F8F6FE" opacity="1.000000" stroke="none" 
	d="
M451.098572,91.440453 
	C451.009003,85.758507 451.009003,80.517120 451.009003,74.756989 
	C448.141266,74.600502 445.416656,74.451836 442.311432,74.152222 
	C442.017792,72.733124 442.104767,71.464958 442.203796,70.020996 
	C450.145874,70.020996 457.750031,70.020996 465.334351,70.020996 
	C466.270966,73.681938 466.270966,73.681938 457.005280,74.958321 
	C457.005280,76.622589 457.005280,78.381256 457.073608,80.568573 
	C457.141968,87.111252 457.141968,93.225281 457.141968,99.715584 
	C455.069916,99.834900 453.508575,99.924797 451.188141,100.058418 
	C451.188141,97.085175 451.188141,94.483093 451.098572,91.440453 
z"/>
<path fill="#733DE7" opacity="1.000000" stroke="none" 
	d="
M525.250000,95.961945 
	C524.543640,94.850220 524.259644,92.828827 523.879150,92.810493 
	C522.560059,92.746910 521.198364,93.349533 519.869751,93.754143 
	C517.715149,94.410332 514.752075,96.302460 513.615295,95.518784 
	C511.810913,94.274826 510.378448,91.258102 510.371918,88.986801 
	C510.365387,86.716949 511.850525,83.941376 513.577820,82.376488 
	C514.460449,81.576805 517.366150,82.758392 519.244995,83.382851 
	C521.013245,83.970543 522.633667,85.002831 525.444519,86.398140 
	C524.868591,83.793495 524.635071,82.737137 524.307861,81.338409 
	C525.447144,80.995033 526.679993,80.994026 528.282715,80.992401 
	C528.706970,85.688583 528.761475,90.385384 528.734375,95.542282 
	C527.644470,95.991798 526.636230,95.981201 525.250000,95.961945 
z"/>
<path fill="#F9F6FE" opacity="1.000000" stroke="none" 
	d="
M490.830078,86.455856 
	C490.874542,83.366241 490.992493,80.737511 491.147614,77.279686 
	C493.186829,77.673912 494.929749,78.010857 496.672668,78.347801 
	C496.585876,78.627548 496.499054,78.907288 496.412262,79.187027 
	C498.619324,78.357712 500.826355,77.528397 503.643341,76.469887 
	C503.754272,78.714203 503.822937,80.103447 503.907166,81.807770 
	C499.934814,81.860107 496.536011,82.474930 496.522430,87.607483 
	C496.448578,91.923569 496.277466,95.835052 496.093384,100.044044 
	C494.480377,100.133270 493.075104,100.210999 490.903595,100.331116 
	C490.903595,95.654823 490.903595,91.285782 490.830078,86.455856 
z"/>
<path fill="#733DE7" opacity="1.000000" stroke="none" 
	d="
M534.814392,98.001381 
	C534.333252,94.346214 534.135254,90.686172 534.245544,87.035446 
	C534.335876,84.046921 535.708252,81.914558 539.089417,81.883675 
	C542.606384,81.851547 543.655334,84.148056 543.736938,87.111412 
	C543.828430,90.436722 543.736450,93.767075 543.637329,97.550476 
	C540.777100,98.003983 538.003967,98.002258 534.814392,98.001381 
z"/>
<path fill="#BBB2D4" opacity="1.000000" stroke="none" 
	d="
M562.029785,131.034088 
	C561.330505,129.920578 560.631226,128.807083 559.865234,127.345108 
	C560.844238,121.464500 564.531433,122.065422 569.027161,123.326508 
	C569.027161,125.876259 569.027161,128.498993 569.081177,131.559158 
	C568.043030,136.484833 565.366760,137.073166 560.563110,134.840958 
	C563.152954,134.446869 564.797607,134.196594 566.442322,133.946335 
	C566.482117,133.579346 566.521912,133.212372 566.561707,132.845383 
	C565.171143,132.430939 563.780579,132.016495 562.540405,131.126358 
	C563.019043,130.657349 563.505859,130.807602 563.650391,130.647949 
	C564.782349,129.397446 566.051880,128.186905 566.771545,126.715805 
	C566.923767,126.404625 564.990845,125.073341 564.018616,124.212051 
	C563.342896,125.680847 562.565369,127.114204 562.036255,128.634033 
	C561.787598,129.348236 562.017029,130.228867 562.029785,131.034088 
z"/>
<path fill="#B8AED5" opacity="1.000000" stroke="none" 
	d="
M577.956543,131.401093 
	C577.435303,131.900604 576.965149,132.020981 576.133667,132.093781 
	C577.284180,127.758408 578.796082,123.470627 580.307983,119.182838 
	C580.856873,119.185539 581.405701,119.188232 581.954590,119.190933 
	C583.489868,123.187866 585.025208,127.184807 586.560486,131.181747 
	C583.320068,130.057480 580.908875,126.021660 577.956543,131.401093 
z"/>
<path fill="#B3A9D6" opacity="1.000000" stroke="none" 
	d="
M517.926514,131.252991 
	C517.868530,127.364517 517.942627,123.724266 518.043701,119.638023 
	C520.336609,120.438164 522.602539,121.684288 525.128540,123.083458 
	C525.666809,126.051552 525.944946,128.866592 526.223145,131.681641 
	C525.673584,131.744064 525.124023,131.806488 524.574463,131.868896 
	C524.414795,130.227692 524.431885,128.541443 524.029480,126.962074 
	C523.786560,126.008591 522.892090,125.221130 522.290344,124.359070 
	C521.527283,125.236221 520.600769,126.020981 520.040161,127.012589 
	C519.239197,128.429398 518.706116,129.997635 517.926514,131.252991 
z"/>
<path fill="#B5ABD6" opacity="1.000000" stroke="none" 
	d="
M558.119629,126.620819 
	C558.008545,128.591354 557.827026,130.185562 557.645447,131.779785 
	C557.267944,131.814392 556.890442,131.849014 556.512939,131.883636 
	C556.337830,130.635345 556.356689,129.316833 555.936707,128.157211 
	C555.451965,126.818649 554.580261,125.620209 553.876587,124.360931 
	C553.204590,125.679413 552.379822,126.945877 551.907776,128.332428 
	C551.513977,129.488907 551.533569,130.786133 551.370056,132.021027 
	C550.958252,132.041229 550.546509,132.061447 550.134705,132.081650 
	C550.020081,130.609467 549.905518,129.137268 549.739990,127.330078 
	C549.909790,124.926559 549.494873,122.707611 552.815674,122.430962 
	C555.963501,122.168709 557.577820,123.219933 558.119629,126.620819 
z"/>
<path fill="#B3A9D6" opacity="1.000000" stroke="none" 
	d="
M543.256653,126.609581 
	C543.140198,128.542419 542.961792,130.090408 542.783447,131.638397 
	C542.395813,131.661575 542.008240,131.684738 541.620667,131.707916 
	C541.454041,130.036880 541.478516,128.314178 541.046326,126.714920 
	C540.802124,125.811401 539.806824,125.110886 539.149841,124.318939 
	C538.463257,125.107956 537.401245,125.801964 537.172363,126.706772 
	C536.761353,128.331314 536.850708,130.082474 536.731018,131.780731 
	C536.236877,131.792603 535.742737,131.804474 535.248596,131.816360 
	C535.145142,129.494995 535.041687,127.173622 534.886353,124.423859 
	C539.545532,121.160446 541.414490,121.658821 543.256653,126.609581 
z"/>
<path fill="#8667E2" opacity="1.000000" stroke="none" 
	d="
M591.062622,125.089966 
	C590.900879,127.707222 590.738342,129.889130 590.575806,132.071014 
	C590.031067,132.039795 589.486328,132.008591 588.941589,131.977371 
	C588.941589,127.923485 588.941589,123.869606 588.941589,119.815727 
	C589.427063,119.773445 589.912537,119.731163 590.398071,119.688881 
	C590.619324,121.344116 590.840637,122.999352 591.062622,125.089966 
z"/>
<path fill="#B5ABD6" opacity="1.000000" stroke="none" 
	d="
M532.829163,123.648239 
	C532.275085,126.509735 531.673706,129.060913 530.934937,132.195312 
	C527.791687,131.140274 529.821167,127.013161 528.348450,124.244629 
	C528.538086,122.825043 529.016907,121.662407 529.720398,119.954247 
	C530.976318,121.342293 531.879089,122.340103 532.829163,123.648239 
z"/>
<path fill="#F1EBFD" opacity="1.000000" stroke="none" 
	d="
M660.181641,89.445938 
	C660.174500,86.180054 660.405396,83.354630 660.328674,80.537598 
	C660.239624,77.264038 662.761963,76.292564 664.393250,77.679779 
	C666.543152,79.507965 667.607056,78.704796 669.487610,77.828972 
	C674.069336,75.695068 678.826477,77.873955 679.958252,82.757164 
	C680.660034,85.784790 680.575562,88.994637 680.929688,92.561172 
	C680.872620,95.139343 680.729797,97.279030 680.555847,99.885406 
	C678.856323,99.885406 677.190369,99.885406 675.065125,99.885406 
	C675.065125,95.462318 675.071594,91.190933 675.062866,86.919594 
	C675.057068,84.079712 674.051270,81.997154 670.841919,81.946182 
	C667.503174,81.893150 666.078125,83.897545 666.025818,86.986786 
	C665.953552,91.252304 666.007690,95.519966 666.007690,100.058083 
	C664.094971,100.171600 662.664062,100.256531 660.283752,100.397804 
	C660.283752,96.678596 660.283752,93.284363 660.181641,89.445938 
z"/>
<path fill="#FCFAFE" opacity="1.000000" stroke="none" 
	d="
M620.751831,81.458191 
	C620.667297,77.553238 620.667297,74.110222 620.667297,70.311913 
	C622.498108,70.107468 623.875488,69.953651 625.677979,69.752357 
	C625.878113,72.938133 626.058594,75.810585 626.241577,78.723213 
	C636.324646,75.927315 639.714539,77.442871 641.200500,85.610901 
	C641.216980,88.321777 641.121582,90.647240 641.083984,92.973633 
	C641.049316,95.120979 641.076599,97.269333 641.076599,99.840584 
	C639.279114,99.840584 637.788696,99.840584 635.740601,99.840584 
	C635.740601,95.574600 635.794312,91.448509 635.722412,87.324615 
	C635.671692,84.416611 634.853394,81.936974 631.295654,81.894333 
	C627.667969,81.850861 626.301819,84.152481 626.215088,87.363297 
	C626.103760,91.484550 626.188049,95.611099 626.188049,99.991928 
	C624.239441,99.991928 622.847656,99.991928 620.836365,99.991928 
	C620.836365,93.818947 620.836365,87.869537 620.751831,81.458191 
z"/>
<path fill="#FAF7FE" opacity="1.000000" stroke="none" 
	d="
M694.837280,95.393158 
	C694.758423,89.394920 694.758423,83.793587 694.758423,76.988953 
	C697.344055,77.728867 699.117798,78.236450 700.891541,78.744041 
	C700.806030,78.580391 700.720581,78.416740 700.635071,78.253090 
	C704.162048,78.202332 708.014404,77.228577 711.135742,78.328751 
	C715.262390,79.783295 715.159180,84.258476 715.107971,88.147324 
	C715.064453,91.455605 715.127319,94.765289 715.222046,98.535881 
	C713.778992,99.567879 712.256897,100.138344 709.747559,101.078819 
	C709.747559,95.949341 709.791748,91.884773 709.732849,87.821709 
	C709.689575,84.838158 709.209412,81.982201 705.339600,81.908546 
	C701.328613,81.832207 700.423035,84.610756 700.367004,87.883820 
	C700.299500,91.825478 700.351013,95.769180 700.351013,100.017349 
	C698.520203,100.120178 697.112183,100.199257 695.322388,100.299782 
	C695.170410,98.612686 695.043274,97.201370 694.837280,95.393158 
z"/>
<path fill="#F6F2FD" opacity="1.000000" stroke="none" 
	d="
M646.376221,82.206665 
	C644.999146,81.200150 643.998108,80.408363 642.997009,79.616577 
	C643.795166,78.838799 644.755127,78.167732 645.354736,77.258957 
	C646.319031,75.797256 647.045410,74.178596 648.098267,72.202217 
	C648.941589,72.202217 650.365295,72.202217 651.789001,72.202217 
	C651.546082,72.514671 651.303162,72.827133 651.060242,73.139587 
	C652.708496,74.608368 654.626892,75.881683 655.890625,77.628609 
	C656.520569,78.499245 655.981506,81.413246 655.920898,81.414780 
	C651.576599,81.524666 652.640930,84.639015 652.744446,87.570190 
	C652.767639,91.361977 650.837708,95.423767 656.315552,96.661797 
	C656.731934,96.755898 657.186829,98.547112 656.911804,99.283638 
	C656.659363,99.959770 655.493164,100.556839 654.645386,100.704010 
	C650.598083,101.406677 647.304077,98.632507 647.062195,94.265495 
	C646.843750,90.323837 646.846802,86.369911 646.376221,82.206665 
z"/>
<path fill="#F0E9FC" opacity="1.000000" stroke="none" 
	d="
M684.880920,93.424362 
	C684.817749,88.045364 684.817749,83.094101 684.817749,78.074142 
	C688.851807,76.596352 690.815979,77.225830 690.618835,81.666321 
	C690.435425,85.797417 690.635864,89.945557 690.770386,94.544670 
	C690.565979,98.140030 690.755249,101.787109 684.944092,99.774155 
	C684.944092,97.990456 684.944092,95.921280 684.880920,93.424362 
z"/>
<path fill="#7635E6" opacity="1.000000" stroke="none" 
	d="
M732.033936,99.486946 
	C732.572510,100.345619 733.142456,101.555870 733.400818,102.982941 
	C732.747864,102.079346 732.406555,100.958931 732.033936,99.486946 
z"/>
<path fill="#FEFDFF" opacity="1.000000" stroke="none" 
	d="
M367.005341,89.999290 
	C366.943390,94.029213 366.881470,98.059143 366.911682,102.544548 
	C366.946014,108.692833 366.888184,114.385628 366.920349,120.538857 
	C368.168976,128.494858 364.188995,132.582962 357.816437,135.362106 
	C354.840057,136.660141 352.137329,138.585571 349.122955,140.513245 
	C338.037506,147.244995 327.139648,153.690109 316.071350,160.426971 
	C313.644897,160.124588 311.388916,159.530457 308.796600,158.855957 
	C297.165710,152.136902 285.774902,145.654556 274.621460,138.786789 
	C269.801239,135.818710 265.471222,132.054535 260.767822,128.325485 
	C260.651184,123.304565 260.685211,118.610176 260.629089,113.457260 
	C260.599335,108.636497 260.659698,104.274269 260.629425,99.454865 
	C260.600342,91.638084 260.661865,84.278488 260.632019,76.458000 
	C259.343079,68.691933 263.178192,64.717682 269.386505,61.911644 
	C272.995483,60.280449 276.262878,57.893494 279.894623,55.590279 
	C286.919464,51.373398 293.733673,47.412830 300.772583,43.190544 
	C302.030884,42.417881 303.276978,42.125904 304.064484,41.361462 
	C310.574493,35.041870 316.614624,36.946129 323.459167,41.343472 
	C335.336456,48.974106 347.703796,55.841961 360.417877,63.374649 
	C365.539459,65.679237 367.187347,69.060928 366.862488,74.047676 
	C366.517731,79.339325 366.925934,84.680016 367.005341,89.999290 
M304.378815,128.861832 
	C304.158081,130.414825 303.937317,131.967834 303.878662,132.380569 
	C313.162354,123.645332 322.851379,114.528694 333.744446,104.279152 
	C330.059784,101.132805 326.822876,97.999886 323.213959,95.379265 
	C318.574463,92.010315 318.151978,88.049866 319.714935,82.851120 
	C321.591125,76.610352 322.656067,70.125702 323.933228,64.373016 
	C314.272522,73.553436 304.534424,82.807388 294.352112,92.483482 
	C298.666412,96.642220 302.917023,100.376312 306.670013,104.557083 
	C307.958679,105.992622 308.774933,108.667488 308.473175,110.563919 
	C307.535675,116.455673 305.958130,122.245583 304.378815,128.861832 
z"/>
<path fill="#B8B1D5" opacity="1.000000" stroke="none" 
	d="
M431.319397,131.287170 
	C428.812653,131.567490 426.295197,131.449127 423.520142,131.130081 
	C423.646545,128.797714 424.030518,126.666031 424.650726,123.222702 
	C425.398773,123.145782 428.703491,122.213997 429.061157,122.875542 
	C430.348053,125.255798 430.640472,128.173721 431.319397,131.287170 
z"/>
<path fill="#B8B1D5" opacity="1.000000" stroke="none" 
	d="
M421.022186,130.719696 
	C417.459137,133.752731 414.579254,133.336502 412.752808,128.354446 
	C413.125275,126.613441 413.217834,124.802528 414.168427,123.961472 
	C415.217133,123.033638 417.168274,122.455322 418.509827,122.741081 
	C419.582733,122.969612 420.981659,124.687462 421.038300,125.805016 
	C421.093414,126.891350 419.624878,128.054932 418.660980,129.416901 
	C419.199890,129.670227 420.018829,130.055191 421.022186,130.719696 
z"/>
<path fill="#BFBAD3" opacity="1.000000" stroke="none" 
	d="
M508.994080,124.048355 
	C510.630341,123.721214 512.297546,123.073799 513.887329,123.227295 
	C514.508301,123.287239 515.174438,125.097977 515.423950,126.200890 
	C515.709351,127.461945 515.553894,128.822739 515.655762,130.565933 
	C514.401428,136.446854 512.868164,137.202362 508.142761,134.742081 
	C509.657715,134.419479 511.211945,134.088516 512.278564,133.861389 
	C509.925049,131.590668 507.931335,129.667130 505.864502,127.373436 
	C506.646210,125.960472 507.501068,124.917664 508.662415,124.284821 
	C508.757172,125.496605 508.170288,126.443626 508.412598,127.069672 
	C508.900940,128.331314 509.840546,129.418289 510.593994,130.577301 
	C511.595520,129.887772 513.406616,129.220993 513.426819,128.503922 
	C513.466370,127.094269 512.731506,125.495255 511.863098,124.306114 
	C511.489532,123.794609 509.984863,124.109116 508.994080,124.048355 
z"/>
<path fill="#B7AFD5" opacity="1.000000" stroke="none" 
	d="
M445.472229,122.546616 
	C446.848572,124.045685 447.884247,125.431076 449.468842,127.550720 
	C446.201630,127.977547 444.324066,128.222824 442.446503,128.468109 
	C442.399963,128.956451 442.353424,129.444794 442.306885,129.933136 
	C444.005463,130.155563 445.704041,130.377991 447.402618,130.600418 
	C447.476685,130.898010 447.550781,131.195587 447.624847,131.493164 
	C445.959137,131.755859 443.711426,132.803101 442.762726,132.099289 
	C441.301514,131.015244 440.020355,128.761322 439.941833,126.948280 
	C439.809204,123.886116 441.785889,122.091942 445.472229,122.546616 
z"/>
<path fill="#BCB6D4" opacity="1.000000" stroke="none" 
	d="
M403.764954,128.010162 
	C402.865143,129.453323 401.828125,132.038666 400.570648,132.150787 
	C398.664124,132.320786 396.358337,131.093002 394.705170,129.827866 
	C393.766418,129.109451 393.789673,127.134018 393.312012,125.368477 
	C393.987457,121.692375 395.484680,118.800179 399.351349,119.182335 
	C401.135559,119.358665 402.771515,121.034485 404.474701,122.030426 
	C404.235748,122.358360 403.996796,122.686295 403.757812,123.014236 
	C401.764832,122.415092 399.744720,121.329292 397.791138,121.438034 
	C396.916077,121.486748 396.174316,123.929604 395.420654,126.077103 
	C397.889008,131.908859 399.385742,132.153564 403.056335,128.108627 
	C403.056335,128.108627 403.529022,128.044952 403.764954,128.010162 
z"/>
<path fill="#B5ADD6" opacity="1.000000" stroke="none" 
	d="
M457.329712,119.509659 
	C457.710632,119.182709 458.031372,119.160057 458.590881,119.088486 
	C458.916351,121.870621 459.064362,124.673515 459.066681,127.476540 
	C459.068665,129.888733 459.577148,133.135895 455.762177,132.618042 
	C453.771606,132.347855 450.902710,130.842255 450.367828,129.245651 
	C449.414246,126.399117 450.345612,123.400597 454.065765,122.266853 
	C455.268921,121.900185 456.210358,120.674690 457.329712,119.509659 
M452.161926,128.201981 
	C453.315186,128.973587 454.468475,129.745193 455.621735,130.516785 
	C456.097412,129.383209 457.021149,128.207153 456.918823,127.128380 
	C456.822632,126.114220 455.643433,125.202766 454.940735,124.246140 
	C453.996643,125.311584 453.052551,126.377029 452.161926,128.201981 
z"/>
<path fill="#B5ADD6" opacity="1.000000" stroke="none" 
	d="
M466.899139,120.456741 
	C469.232971,120.984177 471.599792,121.970505 474.258972,123.073273 
	C474.585663,125.707123 474.620087,128.224548 474.203644,130.481506 
	C473.824158,129.406158 474.204285,128.444916 473.902008,127.807091 
	C473.289948,126.515556 472.307983,125.399315 471.478546,124.210785 
	C470.703583,124.917305 469.200531,125.744057 469.293549,126.307281 
	C469.547882,127.847641 470.277679,129.426773 471.229858,130.678055 
	C471.621429,131.192627 473.065094,130.906616 474.030182,130.984772 
	C472.190186,131.281860 470.302795,131.931488 468.534607,131.693985 
	C467.873077,131.605118 467.173584,129.481918 467.045959,128.229736 
	C466.799622,125.812943 466.947632,123.355949 466.899139,120.456741 
z"/>
<path fill="#B5ABD6" opacity="1.000000" stroke="none" 
	d="
M477.042664,123.368065 
	C478.487518,124.481461 479.996216,125.963799 481.502502,127.443748 
	C482.567474,126.366333 484.025604,124.891113 485.533417,123.650131 
	C484.434052,126.793571 483.447205,129.782669 482.069336,132.579132 
	C481.352509,134.034012 479.945526,135.148865 478.279022,136.048691 
	C482.799866,131.293732 477.511688,127.698120 477.042664,123.368065 
z"/>
<path fill="#BEB8D3" opacity="1.000000" stroke="none" 
	d="
M491.874695,125.436920 
	C492.226318,123.241417 492.627991,121.479729 493.029663,119.718033 
	C493.523438,119.747307 494.017181,119.776581 494.510925,119.805855 
	C494.642090,121.605324 494.773224,123.404785 494.968048,125.602493 
	C495.031708,127.432816 495.031708,128.864899 495.031708,130.463821 
	C496.953613,130.788696 498.504181,131.050781 500.054749,131.312881 
	C500.058075,131.766846 500.061371,132.220795 500.064697,132.674759 
	C497.891724,132.674759 494.889465,133.540848 493.755768,132.455399 
	C492.340973,131.100708 492.465088,128.138733 491.874695,125.436920 
z"/>
<path fill="#B5ABD6" opacity="1.000000" stroke="none" 
	d="
M437.742554,132.452820 
	C436.670654,132.248520 435.655853,131.649857 434.424042,130.831528 
	C434.207001,127.237747 434.207001,123.863632 434.207001,120.489517 
	C434.841644,120.447128 435.476288,120.404747 436.110931,120.362366 
	C436.673859,124.261063 437.236786,128.159760 437.742554,132.452820 
z"/>
<path fill="#674FEA" opacity="1.000000" stroke="none" 
	d="
M402.755005,127.881104 
	C399.385742,132.153564 397.889008,131.908859 395.459290,126.488922 
	C397.784088,126.624283 400.118896,127.138931 402.755005,127.881104 
z"/>
<path fill="#F7F4FE" opacity="1.000000" stroke="none" 
	d="
M568.983887,75.580093 
	C569.062988,82.305115 569.062988,88.612633 569.062988,95.504456 
	C573.224121,95.504456 577.282593,95.504456 581.341064,95.504456 
	C581.735291,95.996941 582.129517,96.489426 582.523682,96.981911 
	C581.492920,98.096870 580.519226,100.104874 579.421570,100.175117 
	C574.146667,100.512650 568.838196,100.326797 563.021790,100.326797 
	C563.021790,95.834442 563.021790,91.873344 562.941528,87.455223 
	C562.915405,81.971474 562.969604,76.944740 562.943115,71.456909 
	C564.620483,70.567276 566.378601,70.138748 568.574585,69.603470 
	C568.715149,71.970139 568.809937,73.566368 568.983887,75.580093 
z"/>
<path fill="#FBF9FE" opacity="1.000000" stroke="none" 
	d="
M591.191650,79.553696 
	C591.298950,86.457802 591.298950,92.923325 591.298950,99.946953 
	C589.330627,100.038879 587.836365,100.108658 585.747498,100.206207 
	C585.747498,92.769295 585.747498,85.825417 585.717834,78.409805 
	C587.486877,78.330414 589.285583,78.722763 591.191650,79.553696 
z"/>
<path fill="#EDE5FC" opacity="1.000000" stroke="none" 
	d="
M590.306641,73.201523 
	C587.352478,74.565773 585.316284,74.130981 585.349548,70.889793 
	C585.358582,70.005859 587.028687,68.390495 587.920044,68.401817 
	C590.812317,68.438538 592.090637,70.000496 590.306641,73.201523 
z"/>
<path fill="#6F42E8" opacity="1.000000" stroke="none" 
	d="
M367.426697,90.004196 
	C366.925934,84.680016 366.517731,79.339325 366.862488,74.047676 
	C367.187347,69.060928 365.539459,65.679237 360.745270,63.439171 
	C368.924225,64.251549 377.359253,65.155457 385.715729,66.535042 
	C388.830109,67.049217 391.761017,68.675003 395.099976,70.539871 
	C395.345367,78.859764 395.266296,86.433701 395.187256,94.007629 
	C386.074188,92.674782 376.961121,91.341942 367.426697,90.004196 
z"/>
<path fill="#F9F7FE" opacity="1.000000" stroke="none" 
	d="
M395.303406,94.415962 
	C395.266296,86.433701 395.345367,78.859764 395.321045,70.855278 
	C401.096741,70.618324 406.975769,70.811920 413.244629,71.093903 
	C417.334747,74.822800 419.104004,79.015236 416.881378,84.077461 
	C414.736725,88.962112 410.634430,90.340401 405.610718,90.085007 
	C403.508636,89.978119 400.582367,89.202797 401.179230,93.581131 
	C401.096771,95.914429 400.939911,97.832573 400.762634,100.000000 
	C399.145172,100.000000 397.752533,100.000000 395.829437,100.000000 
	C395.691284,98.255714 395.555420,96.540001 395.303406,94.415962 
M409.944611,75.444351 
	C407.123718,75.036041 404.302795,74.627731 401.392212,74.206444 
	C401.392212,78.500336 401.392212,81.753662 401.392212,86.307434 
	C405.064697,85.184059 408.566650,84.900894 410.833649,83.080170 
	C411.933655,82.196709 410.720642,78.433319 409.944611,75.444351 
z"/>
<path fill="#7B3BE7" opacity="1.000000" stroke="none" 
	d="
M733.265869,94.129990 
	C729.580994,96.804436 726.771545,96.265839 724.867798,92.518944 
	C723.102112,89.043755 724.281860,83.537300 727.146179,82.297707 
	C730.093384,81.022293 733.214050,81.541916 733.966187,84.884804 
	C734.599609,87.699768 733.738342,90.851044 733.265869,94.129990 
z"/>
<path fill="#7A44E8" opacity="1.000000" stroke="none" 
	d="
M610.185425,92.814514 
	C607.894470,93.905464 605.041870,95.832954 603.814270,95.086838 
	C601.987183,93.976318 600.402161,90.980766 600.393555,88.780800 
	C600.384827,86.560181 601.876038,83.483406 603.695984,82.307480 
	C606.348694,80.593414 609.415039,81.913643 610.262390,85.222923 
	C610.843506,87.492325 610.358948,90.034569 610.185425,92.814514 
z"/>
<path fill="#7547E9" opacity="1.000000" stroke="none" 
	d="
M481.429779,85.787750 
	C481.668793,86.652580 481.976379,87.224815 481.820038,87.607574 
	C480.661072,90.444832 479.696136,93.447090 477.962311,95.896370 
	C477.584869,96.429527 472.917847,95.277695 472.693573,94.322609 
	C471.918793,91.023026 471.273682,87.120193 472.368134,84.094017 
	C473.863983,79.958038 478.426544,80.801941 481.429779,85.787750 
z"/>
<path fill="#724CE7" opacity="1.000000" stroke="none" 
	d="
M562.026611,131.013123 
	C562.017029,130.228867 561.787598,129.348236 562.036255,128.634033 
	C562.565369,127.114204 563.342896,125.680847 564.018616,124.212051 
	C564.990845,125.073341 566.923767,126.404625 566.771545,126.715805 
	C566.051880,128.186905 564.782349,129.397446 563.650391,130.647949 
	C563.505859,130.807602 563.019043,130.657349 562.336304,130.820770 
	C561.981812,130.990891 562.023315,130.992142 562.026611,131.013123 
z"/>
<path fill="#6D4CE9" opacity="1.000000" stroke="none" 
	d="
M304.503845,128.468414 
	C305.958130,122.245583 307.535675,116.455673 308.473175,110.563919 
	C308.774933,108.667488 307.958679,105.992622 306.670013,104.557083 
	C302.917023,100.376312 298.666412,96.642220 294.352112,92.483482 
	C304.534424,82.807388 314.272522,73.553436 323.933228,64.373016 
	C322.656067,70.125702 321.591125,76.610352 319.714935,82.851120 
	C318.151978,88.049866 318.574463,92.010315 323.213959,95.379265 
	C326.822876,97.999886 330.059784,101.132805 333.744446,104.279152 
	C322.851379,114.528694 313.162354,123.645332 303.878662,132.380569 
	C303.937317,131.967834 304.158081,130.414825 304.503845,128.468414 
z"/>
<path fill="#7453E7" opacity="1.000000" stroke="none" 
	d="
M509.019104,124.043526 
	C509.984863,124.109116 511.489532,123.794609 511.863098,124.306114 
	C512.731506,125.495255 513.466370,127.094269 513.426819,128.503922 
	C513.406616,129.220993 511.595520,129.887772 510.593994,130.577301 
	C509.840546,129.418289 508.900940,128.331314 508.412598,127.069672 
	C508.170288,126.443626 508.757172,125.496605 509.014038,124.342300 
	C509.059204,123.989807 509.044159,124.038696 509.019104,124.043526 
z"/>
<path fill="#6D4CE9" opacity="1.000000" stroke="none" 
	d="
M452.135193,127.822235 
	C453.052551,126.377029 453.996643,125.311584 454.940735,124.246132 
	C455.643433,125.202766 456.822632,126.114220 456.918823,127.128380 
	C457.021149,128.207153 456.097412,129.383209 455.621735,130.516785 
	C454.468475,129.745193 453.315186,128.973587 452.135193,127.822235 
z"/>
<path fill="#6D4CE9" opacity="1.000000" stroke="none" 
	d="
M474.012054,130.990311 
	C473.065094,130.906616 471.621429,131.192627 471.229858,130.678055 
	C470.277679,129.426773 469.547882,127.847641 469.293549,126.307281 
	C469.200531,125.744057 470.703583,124.917305 471.478546,124.210785 
	C472.307983,125.399315 473.289948,126.515556 473.902008,127.807091 
	C474.204285,128.444916 473.824158,129.406158 473.867371,130.626495 
	C473.981964,131.031937 473.993927,130.995850 474.012054,130.990311 
z"/>
<path fill="#7649E9" opacity="1.000000" stroke="none" 
	d="
M410.249695,75.709045 
	C410.720642,78.433319 411.933655,82.196709 410.833649,83.080170 
	C408.566650,84.900894 405.064697,85.184059 401.392212,86.307434 
	C401.392212,81.753662 401.392212,78.500336 401.392212,74.206444 
	C404.302795,74.627731 407.123718,75.036041 410.249695,75.709045 
z"/>
</svg>