<svg version="1.1" id="Layer_1" xmlns="http://www.w3.org/2000/svg" xmlns:xlink="http://www.w3.org/1999/xlink" x="0px" y="0px"
	 width="100%" viewBox="0 0 512 512" enable-background="new 0 0 512 512" xml:space="preserve">
<path fill="#000000" opacity="1.000000" stroke="none" 
	d="
M259.000000,0.999998 
	C343.629639,1.000000 428.259277,1.000000 512.944458,1.000000 
	C512.944458,171.554977 512.944458,342.109985 512.944458,513.000000 
	C437.644989,513.000000 362.289459,513.000000 286.273926,512.612061 
	C286.287720,511.825653 286.929199,511.152405 287.640137,511.068634 
	C308.795807,508.575592 328.887451,502.196869 347.642975,492.459442 
	C360.748993,485.655029 373.295319,477.505310 385.227631,468.775543 
	C399.886414,458.051025 412.178162,444.625488 422.974457,430.017120 
	C432.410400,417.249359 440.354187,403.564667 446.628326,388.903290 
	C453.533447,372.767517 459.066010,356.186340 460.826721,338.741577 
	C462.335541,323.792877 462.862885,308.689545 462.802551,293.658722 
	C462.765961,284.533508 461.217682,275.338776 459.592529,266.311371 
	C456.279419,247.907318 449.201904,230.693665 441.897034,213.588776 
	C432.409149,191.372070 422.894745,169.166580 413.459534,146.927521 
	C403.446289,123.325974 393.446594,99.718071 383.617554,76.039658 
	C382.206604,72.640617 381.171051,72.471893 378.018341,74.281448 
	C366.278900,81.019524 354.302856,87.345390 342.017548,94.042999 
	C332.558136,83.385368 323.356750,72.803848 313.920624,62.435982 
	C298.784821,45.805660 283.443848,29.362076 268.306702,12.732981 
	C264.954071,9.049926 262.089355,4.922704 259.000000,0.999998 
z"/>
<path fill="#000000" opacity="1.000000" stroke="none" 
	d="
M228.000000,513.000000 
	C152.366425,513.000000 76.732841,513.000000 1.049629,513.000000 
	C1.049629,342.441071 1.049629,171.882095 1.049629,1.000000 
	C85.355072,1.000000 169.710556,1.000000 254.877914,1.208518 
	C227.694046,32.298229 199.698303,63.179424 171.804337,93.948341 
	C158.162735,86.504120 145.119156,79.386246 131.937958,72.193268 
	C125.336342,87.839302 119.190399,102.503807 112.964630,117.134331 
	C106.030449,133.429626 98.950203,149.663010 92.067101,165.979691 
	C83.545586,186.180328 75.356606,206.523254 66.662636,226.648605 
	C58.055798,246.572250 52.635384,267.413177 51.328262,288.881042 
	C50.338520,305.136353 51.723763,321.625580 53.143032,337.915680 
	C54.923096,358.346954 61.717358,377.563507 70.550552,395.935272 
	C81.834427,419.404022 96.979935,440.060852 116.173691,457.885956 
	C129.585892,470.341797 144.157776,481.016327 160.219772,489.533875 
	C180.883331,500.491608 202.814941,507.967163 226.117722,511.084290 
	C226.818039,511.177979 227.375778,512.337402 228.000000,513.000000 
z"/>
<path fill="#D63D52" opacity="1.000000" stroke="none" 
	d="
M258.666687,0.999998 
	C262.089355,4.922704 264.954071,9.049926 268.306702,12.732981 
	C283.443848,29.362076 298.784821,45.805660 313.920624,62.435982 
	C323.356750,72.803848 332.558136,83.385368 342.017548,94.042999 
	C354.302856,87.345390 366.278900,81.019524 378.018341,74.281448 
	C381.171051,72.471893 382.206604,72.640617 383.617554,76.039658 
	C393.446594,99.718071 403.446289,123.325974 413.459534,146.927521 
	C422.894745,169.166580 432.409149,191.372070 441.897034,213.588776 
	C449.201904,230.693665 456.279419,247.907318 459.592529,266.311371 
	C461.217682,275.338776 462.765961,284.533508 462.802551,293.658722 
	C462.862885,308.689545 462.335541,323.792877 460.826721,338.741577 
	C459.066010,356.186340 453.533447,372.767517 446.628326,388.903290 
	C440.354187,403.564667 432.410400,417.249359 422.974457,430.017120 
	C412.178162,444.625488 399.886414,458.051025 385.227631,468.775543 
	C373.295319,477.505310 360.748993,485.655029 347.642975,492.459442 
	C328.887451,502.196869 308.795807,508.575592 287.640137,511.068634 
	C286.929199,511.152405 286.287720,511.825653 285.806946,512.612061 
	C276.645782,513.000000 267.291534,513.000000 257.468628,512.531372 
	C257.011688,502.411255 257.023499,492.759857 257.492401,483.063232 
	C264.921143,482.550629 271.950653,482.501953 278.855042,481.548004 
	C324.325134,475.265839 362.686798,455.277618 391.697906,419.592621 
	C433.692413,367.937408 444.512665,309.525879 421.894897,247.017822 
	C406.332794,204.009262 386.768250,162.450256 369.069031,120.211365 
	C367.506927,116.483444 365.604309,116.000366 362.199768,117.983749 
	C354.863281,122.257790 347.325500,126.185242 339.961182,130.413193 
	C337.229889,131.981262 335.037689,132.043243 332.937317,129.510223 
	C331.770599,128.103134 330.405731,126.862373 329.174042,125.506805 
	C305.108795,99.021301 281.050018,72.529922 256.991821,45.568604 
	C256.995819,30.398306 256.997925,15.699153 257.000000,1.000000 
	C257.444458,1.000000 257.888885,1.000000 258.666687,0.999998 
z"/>
<path fill="#FF4154" opacity="1.000000" stroke="none" 
	d="
M256.666687,1.000000 
	C256.997925,15.699153 256.995819,30.398306 256.715515,45.749977 
	C256.053833,46.722412 255.625519,47.001663 255.293274,47.368034 
	C230.914688,74.251251 206.494598,101.097237 182.237762,128.089920 
	C179.382401,131.267303 177.051056,131.937546 173.319504,129.719879 
	C166.451736,125.638344 159.359467,121.933273 152.343750,118.102448 
	C147.087692,115.232460 146.809006,115.323196 144.412933,120.972076 
	C128.999313,157.310547 113.961906,193.814011 98.090286,229.951172 
	C84.460938,260.983063 78.069664,292.982788 81.973351,326.798370 
	C86.165962,363.116608 100.061249,395.352386 124.343689,422.615753 
	C159.565582,462.161621 203.908020,482.459229 257.035278,483.108429 
	C257.023499,492.759857 257.011688,502.411255 256.999939,512.531372 
	C247.645767,513.000000 238.291550,513.000000 228.468658,513.000000 
	C227.375778,512.337402 226.818039,511.177979 226.117722,511.084290 
	C202.814941,507.967163 180.883331,500.491608 160.219772,489.533875 
	C144.157776,481.016327 129.585892,470.341797 116.173691,457.885956 
	C96.979935,440.060852 81.834427,419.404022 70.550552,395.935272 
	C61.717358,377.563507 54.923096,358.346954 53.143032,337.915680 
	C51.723763,321.625580 50.338520,305.136353 51.328262,288.881042 
	C52.635384,267.413177 58.055798,246.572250 66.662636,226.648605 
	C75.356606,206.523254 83.545586,186.180328 92.067101,165.979691 
	C98.950203,149.663010 106.030449,133.429626 112.964630,117.134331 
	C119.190399,102.503807 125.336342,87.839302 131.937958,72.193268 
	C145.119156,79.386246 158.162735,86.504120 171.804337,93.948341 
	C199.698303,63.179424 227.694046,32.298229 255.344894,1.208518 
	C255.444443,1.000000 255.888901,1.000000 256.666687,1.000000 
z"/>
<path fill="#FF745A" opacity="1.000000" stroke="none" 
	d="
M257.492401,483.063232 
	C203.908020,482.459229 159.565582,462.161621 124.343689,422.615753 
	C100.061249,395.352386 86.165962,363.116608 81.973351,326.798370 
	C78.069664,292.982788 84.460938,260.983063 98.090286,229.951172 
	C113.961906,193.814011 128.999313,157.310547 144.412933,120.972076 
	C146.809006,115.323196 147.087692,115.232460 152.343750,118.102448 
	C159.359467,121.933273 166.451736,125.638344 173.319504,129.719879 
	C177.051056,131.937546 179.382401,131.267303 182.237762,128.089920 
	C206.494598,101.097237 230.914688,74.251251 255.293274,47.368034 
	C255.625519,47.001663 256.053833,46.722412 256.713593,46.221123 
	C281.050018,72.529922 305.108795,99.021301 329.174042,125.506805 
	C330.405731,126.862373 331.770599,128.103134 332.937317,129.510223 
	C335.037689,132.043243 337.229889,131.981262 339.961182,130.413193 
	C347.325500,126.185242 354.863281,122.257790 362.199768,117.983749 
	C365.604309,116.000366 367.506927,116.483444 369.069031,120.211365 
	C386.768250,162.450256 406.332794,204.009262 421.894897,247.017822 
	C444.512665,309.525879 433.692413,367.937408 391.697906,419.592621 
	C362.686798,455.277618 324.325134,475.265839 278.855042,481.548004 
	C271.950653,482.501953 264.921143,482.550629 257.492401,483.063232 
M257.818451,452.914612 
	C338.681732,451.757965 403.523621,387.772491 402.735199,305.538025 
	C401.954712,224.135391 336.996613,161.666687 255.993118,161.003265 
	C218.354034,161.406281 185.475815,174.311417 157.909760,199.755936 
	C93.140205,259.540741 95.610161,362.134888 163.108948,418.771149 
	C190.126999,441.441193 221.461868,452.994080 257.818451,452.914612 
z"/>
<path fill="#FFDA47" opacity="1.000000" stroke="none" 
	d="
M256.899109,452.900024 
	C221.461868,452.994080 190.126999,441.441193 163.108948,418.771149 
	C95.610161,362.134888 93.140205,259.540741 157.909760,199.755936 
	C185.475815,174.311417 218.354034,161.406281 256.469910,161.511993 
	C256.949097,181.615356 256.951538,201.209976 256.508789,220.859253 
	C252.585983,221.226837 249.092667,221.419479 245.633057,221.870514 
	C182.914047,230.047318 150.145386,301.729767 185.276306,354.294647 
	C202.248535,379.689453 226.699020,391.950287 256.965149,393.651428 
	C256.950500,413.705170 256.924805,433.302612 256.899109,452.900024 
z"/>
<path fill="#FFA356" opacity="1.000000" stroke="none" 
	d="
M256.953949,220.804611 
	C256.951538,201.209976 256.949097,181.615356 256.923096,161.560181 
	C336.996613,161.666687 401.954712,224.135391 402.735199,305.538025 
	C403.523621,387.772491 338.681732,451.757965 257.358765,452.907318 
	C256.924805,433.302612 256.950500,413.705170 256.986511,393.538879 
	C256.996796,392.969971 257.047821,392.746490 257.496033,392.806946 
	C270.184235,393.179260 281.777618,390.257294 292.734161,385.124786 
	C349.798553,358.393463 360.620239,283.908386 313.324341,242.088913 
	C297.443970,228.047348 278.511627,220.892197 257.022217,221.141296 
	C256.996704,221.029648 256.953949,220.804611 256.953949,220.804611 
z"/>
<path fill="#FF855C" opacity="1.000000" stroke="none" 
	d="
M256.975433,393.082550 
	C226.699020,391.950287 202.248535,379.689453 185.276306,354.294647 
	C150.145386,301.729767 182.914047,230.047318 245.633057,221.870514 
	C249.092667,221.419479 252.585983,221.226837 256.508789,220.859253 
	C256.953949,220.804611 256.996704,221.029648 257.012329,221.588348 
	C257.034576,279.013519 257.041199,335.880005 257.047821,392.746490 
	C257.047821,392.746490 256.996796,392.969971 256.975433,393.082550 
z"/>
<path fill="#FF6358" opacity="1.000000" stroke="none" 
	d="
M257.496033,392.806946 
	C257.041199,335.880005 257.034576,279.013519 257.037842,221.699982 
	C278.511627,220.892197 297.443970,228.047348 313.324341,242.088913 
	C360.620239,283.908386 349.798553,358.393463 292.734161,385.124786 
	C281.777618,390.257294 270.184235,393.179260 257.496033,392.806946 
z"/>
</svg>