<?xml version="1.0" encoding="UTF-8"?>
<svg id="Layer_1" xmlns="http://www.w3.org/2000/svg" version="1.1" viewBox="0 0 400 245">
  <!-- Generator: Adobe Illustrator 29.1.0, SVG Export Plug-In . SVG Version: 2.1.0 Build 142)  -->
  <defs>
    <style>
      .st0 {
        fill: #de3412;
      }
    </style>
  </defs>
  <g>
    <path class="st0" d="M65.523369,103.7488443l-3.9121578,3.9121578c6.4851598,6.4851598,6.4851598,16.9953236,0,23.4767237-6.4813944,6.4851598-16.9953293,6.4851598-23.4767237,0-6.4851569-6.4813944-6.4851569-16.9953236,0-23.4767237h-.0037596l10.3408945-10.3446541,1.3955904-1.3955904h.0037596v-7.8205589l-15.6524024,15.6523995c-8.6443676,8.6443676-8.6443676,22.6604372,0,31.3048047,8.6443676,8.6443733,22.6604372,8.6443733,31.3048047,0,8.6443676-8.6443676,8.6443676-22.6604372,0-31.3048047"/>
    <path class="st0" d="M59.7228399,101.8755231c1.1247481-1.1247481,1.1247481-2.9454058,0-4.0701482-1.1247481-1.1247481-2.9454058-1.1247481-4.0701539,0s-1.1247481,2.9454058,0,4.0701539,2.9454058,1.1247481,4.0701539,0"/>
  </g>
  <g>
    <path d="M111.5483398,104.5024414h-12.637207v-4.5615234h30.7612305v4.5615234h-12.6992188v36.9868164h-5.4248047v-36.9868164Z"/>
    <path d="M132.659668,127.5576172c.1235352,7.3359375,4.7470703,10.3564453,10.2333984,10.3564453,3.8837891,0,6.2880859-.6787109,8.2607422-1.5410156l.9863281,3.8828125c-1.9111328.8632812-5.2402344,1.9111328-9.9868164,1.9111328-9.1850586,0-14.6713867-6.1025391-14.6713867-15.1025391s5.3012695-16.027832,13.9931641-16.027832c9.8017578,0,12.3291016,8.5073242,12.3291016,13.9936523,0,1.109375-.0615234,1.9111328-.1845703,2.5273438h-20.9599609ZM148.5644531,123.6738281c.0615234-3.3901367-1.4179688-8.753418-7.5209961-8.753418-5.5478516,0-7.890625,4.9931641-8.3217773,8.753418h15.8427734Z"/>
    <path d="M160.4599609,119.7290039c0-3.144043-.0615234-5.6098633-.246582-8.0756836h4.8085938l.3081055,4.9316406h.1235352c1.4794922-2.7739258,4.9316406-5.5483398,9.8632812-5.5483398,4.1298828,0,10.5410156,2.4658203,10.5410156,12.6987305v17.7539062h-5.4248047v-17.1992188c0-4.8076172-1.7875977-8.8149414-6.9042969-8.8149414-3.5136719,0-6.2875977,2.527832-7.2739258,5.5483398-.246582.6782227-.3701172,1.6030273-.3701172,2.5273438v17.9384766h-5.4248047v-21.7602539Z"/>
    <path d="M193.1665039,136.0029297c1.6645508.9863281,4.5,2.0957031,7.2128906,2.0957031,3.8833008,0,5.7329102-1.9111328,5.7329102-4.4384766,0-2.5888672-1.5415039-3.9453125-5.4868164-5.4248047-5.4248047-1.9726562-7.9521484-4.8701172-7.9521484-8.4448242,0-4.8085938,3.9453125-8.7539062,10.2949219-8.7539062,3.0205078,0,5.6713867.8017578,7.2744141,1.8496094l-1.2949219,3.9453125c-1.1708984-.7397461-3.3286133-1.7875977-6.1025391-1.7875977-3.2060547,0-4.9316406,1.8491211-4.9316406,4.0683594,0,2.4658203,1.7255859,3.5756836,5.609375,5.1162109,5.1166992,1.9111328,7.8291016,4.5,7.8291016,8.9384766,0,5.3017578-4.1303711,9-11.0961914,9-3.2670898,0-6.2875977-.8623047-8.3837891-2.0957031l1.2944336-4.0683594Z"/>
    <path d="M245.3544922,126.3242188c0,11.0351562-7.7055664,15.8427734-14.8569336,15.8427734-8.0136719,0-14.3017578-5.9179688-14.3017578-15.3496094,0-9.9243164,6.5961914-15.7807617,14.7949219-15.7807617,8.5688477,0,14.3637695,6.2265625,14.3637695,15.2875977ZM221.7441406,126.6328125c0,6.5341797,3.6987305,11.4658203,9.0004883,11.4658203,5.1777344,0,9.0615234-4.8701172,9.0615234-11.5888672,0-5.0546875-2.5273438-11.4042969-8.9384766-11.4042969-6.3496094,0-9.1235352,5.9179688-9.1235352,11.5273438Z"/>
    <path d="M252.1821289,120.9619141c0-3.5141602-.0615234-6.534668-.246582-9.3085938h4.746582l.2470703,5.9179688h.1845703c1.3564453-4.0068359,4.6850586-6.534668,8.3222656-6.534668.5546875,0,.9863281.0620117,1.4794922.1235352v5.1166992c-.5546875-.1235352-1.109375-.1235352-1.8496094-.1235352-3.8217773,0-6.5341797,2.8359375-7.2739258,6.9042969-.1235352.7392578-.1850586,1.6640625-.1850586,2.5273438v15.9042969h-5.4248047v-20.5273438Z"/>
    <path d="M272.3017578,100.5571289c3.2670898-.5546875,7.1508789-.9248047,11.4042969-.9248047,7.7055664,0,13.1923828,1.8496094,16.8295898,5.1782227,3.7602539,3.390625,5.9179688,8.1987305,5.9179688,14.918457,0,6.7807617-2.1577148,12.3286133-5.9799805,16.1508789-3.9453125,3.8837891-10.3564453,5.9794922-18.4321289,5.9794922-3.8833008,0-7.0273438-.1855469-9.7397461-.4931641v-40.809082ZM277.6650391,137.296875c1.355957.1855469,3.3286133.2470703,5.4248047.2470703,11.527832,0,17.6918945-6.4111328,17.6918945-17.6303711.0620117-9.8012695-5.4863281-16.0273438-16.8291016-16.0273438-2.7739258,0-4.8701172.2460938-6.2875977.5546875v32.855957Z"/>
    <path d="M319.2788086,103.2695312c0,1.8491211-1.2949219,3.3286133-3.4521484,3.3286133-1.9726562,0-3.2675781-1.4794922-3.2675781-3.3286133s1.3564453-3.390625,3.390625-3.390625c1.9726562,0,3.3291016,1.4794922,3.3291016,3.390625ZM313.2373047,141.4892578v-29.8359375h5.4248047v29.8359375h-5.4248047Z"/>
    <path d="M348.6762695,140.4414062c-1.4174805.6777344-4.5615234,1.7255859-8.5683594,1.7255859-9.0004883,0-14.8564453-6.1025391-14.8564453-15.2255859,0-9.1850586,6.2875977-15.9047852,16.0273438-15.9047852,3.2060547,0,6.0415039.8017578,7.5209961,1.6030273l-1.2329102,4.1303711c-1.2944336-.6782227-3.3291016-1.4179688-6.2880859-1.4179688-6.8422852,0-10.5410156,5.1166992-10.5410156,11.2807617,0,6.9042969,4.4384766,11.1582031,10.3564453,11.1582031,3.0820312,0,5.1162109-.7402344,6.6577148-1.4179688l.9243164,4.0683594Z"/>
    <path d="M362.8964844,104.5024414v7.1508789h7.7670898v4.1303711h-7.7670898v16.0893555c0,3.6982422,1.0478516,5.7939453,4.0683594,5.7939453,1.4794922,0,2.3427734-.1230469,3.144043-.3701172l.246582,4.1308594c-1.0478516.3701172-2.7124023.7392578-4.8081055.7392578-2.527832,0-4.5620117-.8623047-5.8564453-2.2802734-1.4794922-1.6650391-2.0961914-4.3154297-2.0961914-7.8291016v-16.2739258h-4.6235352v-4.1303711h4.6235352v-5.5483398l5.3017578-1.6025391Z"/>
  </g>
</svg>