<?xml version="1.0" encoding="UTF-8"?>
<svg id="Layer_1" xmlns="http://www.w3.org/2000/svg" version="1.1" viewBox="0 0 400 245">
  <!-- Generator: Adobe Illustrator 29.1.0, SVG Export Plug-In . SVG Version: 2.1.0 Build 142)  -->
  <defs>
    <style>
      .st0 {
        fill: #de3412;
      }
    </style>
  </defs>
  <g>
    <path class="st0" d="M60.6318626,103.7484806l-3.9121578,3.9121578c6.4851598,6.4851598,6.4851598,16.9953236,0,23.4767237-6.4813944,6.4851598-16.9953293,6.4851598-23.4767237,0-6.4851569-6.4813944-6.4851569-16.9953236,0-23.4767237h-.0037596l10.3408945-10.3446541,1.3955904-1.3955904h.0037596v-7.8205589l-15.6524024,15.6523995c-8.6443676,8.6443676-8.6443676,22.6604372,0,31.3048047,8.6443676,8.6443733,22.6604372,8.6443733,31.3048047,0,8.6443676-8.6443676,8.6443676-22.6604372,0-31.3048047"/>
    <path class="st0" d="M54.8313336,101.8751594c1.1247481-1.1247481,1.1247481-2.9454058,0-4.0701482-1.1247481-1.1247481-2.9454058-1.1247481-4.0701539,0s-1.1247481,2.9454058,0,4.0701539,2.9454058,1.1247481,4.0701539,0"/>
  </g>
  <g>
    <path d="M106.6572266,104.5024414h-12.637207v-4.5615234h30.7607422v4.5615234h-12.6987305v36.9873047h-5.4248047v-36.9873047Z"/>
    <path d="M151.7490234,126.324707c0,11.034668-7.7055664,15.8432617-14.8569336,15.8432617-8.0136719,0-14.3017578-5.9179688-14.3017578-15.3500977,0-9.9248047,6.5961914-15.78125,14.7949219-15.78125,8.5688477,0,14.3637695,6.2265625,14.3637695,15.2880859ZM128.1386719,126.6333008c0,6.5341797,3.6987305,11.4658203,9.0004883,11.4658203,5.1777344,0,9.0615234-4.8701172,9.0615234-11.5893555,0-5.0546875-2.5273438-11.4042969-8.9384766-11.4042969-6.3496094,0-9.1235352,5.9179688-9.1235352,11.527832Z"/>
    <path d="M158.5771484,120.9619141c0-3.5141602-.0615234-6.534668-.246582-9.3085938h4.7470703l.2460938,5.9179688h.1850586c1.3564453-4.0068359,4.6850586-6.534668,8.3222656-6.534668.5546875,0,.9863281.0620117,1.4794922.1235352v5.1166992c-.5546875-.1235352-1.1098633-.1235352-1.8491211-.1235352-3.8222656,0-6.534668,2.8359375-7.2744141,6.9042969-.1230469.7397461-.1850586,1.6645508-.1850586,2.527832v15.9042969h-5.4248047v-20.527832Z"/>
    <path d="M199.434082,140.4418945c-1.4174805.6777344-4.5615234,1.7260742-8.5683594,1.7260742-9.0004883,0-14.8564453-6.1030273-14.8564453-15.2265625,0-9.1850586,6.2875977-15.9047852,16.0273438-15.9047852,3.2060547,0,6.0415039.8017578,7.5209961,1.6030273l-1.2329102,4.1303711c-1.2944336-.6782227-3.3291016-1.4179688-6.2880859-1.4179688-6.8422852,0-10.5410156,5.1166992-10.5410156,11.28125,0,6.9042969,4.4384766,11.1577148,10.3564453,11.1577148,3.0820312,0,5.1162109-.7397461,6.6577148-1.4179688l.9243164,4.0688477Z"/>
    <path d="M205.2827148,97.7211914h5.4248047v18.6787109h.1235352c.862793-1.5410156,2.2192383-2.9589844,3.8833008-3.8837891,1.6030273-.9243164,3.5141602-1.4794922,5.5483398-1.4794922,4.0068359,0,10.4179688,2.4658203,10.4179688,12.6992188v17.7539062h-5.4248047v-17.1376953c0-4.8081055-1.7875977-8.8149414-6.9042969-8.8149414-3.5136719,0-6.2260742,2.4658203-7.2739258,5.362793-.3085938.8017578-.3701172,1.6030273-.3701172,2.5893555v18.0004883h-5.4248047v-43.7685547Z"/>
    <path d="M238.1069336,134.9555664c2.4042969,1.5410156,5.8564453,2.7119141,9.5551758,2.7119141,5.4863281,0,8.6918945-2.8969727,8.6918945-7.0888672,0-3.8222656-2.2192383-6.1030273-7.8291016-8.1992188-6.7807617-2.4658203-10.9726562-6.0410156-10.9726562-11.8359375,0-6.4726562,5.3632812-11.2807617,13.4384766-11.2807617,4.1923828,0,7.3359375.9863281,9.1240234,2.0341797l-1.4794922,4.3769531c-1.2949219-.8012695-4.0688477-1.9726562-7.8291016-1.9726562-5.6713867,0-7.8291016,3.3901367-7.8291016,6.2260742,0,3.8837891,2.5273438,5.7949219,8.2607422,8.0136719,7.0273438,2.7128906,10.5410156,6.1030273,10.5410156,12.2060547,0,6.4111328-4.6850586,12.0209961-14.4863281,12.0209961-4.0073242,0-8.3837891-1.2329102-10.6035156-2.7124023l1.4179688-4.5Z"/>
    <path d="M272.090332,127.5581055c.1230469,7.3354492,4.746582,10.3564453,10.2329102,10.3564453,3.8837891,0,6.2875977-.6782227,8.2602539-1.5415039l.9863281,3.8837891c-1.9106445.862793-5.2397461,1.9111328-9.9863281,1.9111328-9.1850586,0-14.671875-6.1030273-14.671875-15.1030273,0-9.0004883,5.3017578-16.0283203,13.9936523-16.0283203,9.8017578,0,12.3291016,8.5073242,12.3291016,13.9936523,0,1.1098633-.0615234,1.9111328-.1850586,2.527832h-20.9589844ZM287.9946289,123.6743164c.0615234-3.390625-1.4179688-8.7539062-7.5205078-8.7539062-5.5483398,0-7.890625,4.9931641-8.3222656,8.7539062h15.8427734Z"/>
    <path d="M299.8896484,120.9619141c0-3.5141602-.0615234-6.534668-.246582-9.3085938h4.7470703l.2460938,5.9179688h.1850586c1.3564453-4.0068359,4.6850586-6.534668,8.3222656-6.534668.5546875,0,.9863281.0620117,1.4794922.1235352v5.1166992c-.5546875-.1235352-1.1098633-.1235352-1.8491211-.1235352-3.8222656,0-6.534668,2.8359375-7.2744141,6.9042969-.1230469.7397461-.1850586,1.6645508-.1850586,2.527832v15.9042969h-5.4248047v-20.527832Z"/>
    <path d="M324.0844727,111.6533203l5.8564453,16.7060547c.9863281,2.7739258,1.7875977,5.2397461,2.4038086,7.7055664h.1850586c.6782227-2.4658203,1.5410156-4.9316406,2.5273438-7.7055664l5.7949219-16.7060547h5.6713867l-11.7128906,29.8364258h-5.1782227l-11.3427734-29.8364258h5.7949219Z"/>
    <path d="M353.7954102,127.5581055c.1230469,7.3354492,4.746582,10.3564453,10.2329102,10.3564453,3.8837891,0,6.2875977-.6782227,8.2602539-1.5415039l.9863281,3.8837891c-1.9106445.862793-5.2397461,1.9111328-9.9863281,1.9111328-9.1850586,0-14.671875-6.1030273-14.671875-15.1030273,0-9.0004883,5.3017578-16.0283203,13.9936523-16.0283203,9.8017578,0,12.3291016,8.5073242,12.3291016,13.9936523,0,1.1098633-.0615234,1.9111328-.1850586,2.527832h-20.9589844ZM369.699707,123.6743164c.0615234-3.390625-1.4179688-8.7539062-7.5205078-8.7539062-5.5483398,0-7.890625,4.9931641-8.3222656,8.7539062h15.8427734Z"/>
  </g>
</svg>