<svg version="1.1" id="Layer_1" xmlns="http://www.w3.org/2000/svg" xmlns:xlink="http://www.w3.org/1999/xlink" x="0px" y="0px"
	 width="100%" viewBox="0 0 3340 652" enable-background="new 0 0 3340 652" xml:space="preserve">
<path fill="#FFFFFF" opacity="1.000000" stroke="none" 
	d="
M2403.000000,653.000000 
	C1602.000000,653.000000 801.500000,653.000000 1.000000,653.000000 
	C1.000000,435.666656 1.000000,218.333328 1.000000,1.000000 
	C1114.333374,1.000000 2227.666748,1.000000 3341.000000,1.000000 
	C3341.000000,218.333328 3341.000000,435.666656 3341.000000,653.000000 
	C3028.500000,653.000000 2716.000000,653.000000 2403.000000,653.000000 
M142.276352,228.710815 
	C115.076653,215.515289 87.876945,202.319763 60.300842,188.941635 
	C60.300842,322.595703 60.300842,455.510162 60.300842,589.162231 
	C196.543716,521.620911 332.326904,454.307434 468.681793,386.710571 
	C466.874023,385.681030 465.775909,384.968842 464.606903,384.403137 
	C451.272644,377.950409 437.915558,371.544800 424.588318,365.077698 
	C406.042786,356.078430 387.517395,347.037598 369.545349,337.590668 
	C430.061340,307.543732 490.577332,277.496765 551.979736,247.009720 
	C535.719299,239.143127 520.569092,231.910431 505.528961,224.455627 
	C502.531342,222.969818 500.248474,223.005814 497.213196,224.539505 
	C394.445190,276.467041 291.621948,328.285278 188.802536,380.111053 
	C187.371399,380.832428 185.886856,381.447906 184.102539,382.260712 
	C184.102539,293.551208 184.102539,205.414383 184.102539,116.783836 
	C185.962906,117.568352 187.318573,118.123291 188.661026,118.708572 
	C240.352646,141.244858 292.056152,163.754074 343.699127,186.401352 
	C346.608643,187.677277 348.780640,187.599838 351.551758,186.197021 
	C364.317566,179.734589 377.199036,173.500717 390.030884,167.168427 
	C391.400574,166.492508 392.717316,165.709213 394.714935,164.616837 
	C310.446411,126.015846 227.082565,87.829269 143.092148,49.355679 
	C143.092148,52.300308 143.092148,54.124138 143.092148,55.947971 
	C143.092148,95.772041 143.107803,135.596130 143.085022,175.420181 
	C143.074814,193.247162 142.987473,211.074112 142.276352,228.710815 
M2782.774414,504.424927 
	C2782.774414,394.033936 2782.774414,283.642944 2782.774414,172.570465 
	C2772.022217,174.840454 2762.046631,176.946457 2751.721680,179.126251 
	C2751.721680,217.347305 2751.721680,255.026596 2751.721680,293.061371 
	C2736.481934,286.901245 2721.339600,283.118378 2705.445801,281.533447 
	C2656.466309,276.649200 2609.171387,306.377197 2592.959717,352.714386 
	C2581.294678,386.056366 2581.690186,419.402832 2593.125488,452.580933 
	C2615.700684,518.079163 2692.501953,540.133179 2746.210938,496.730103 
	C2747.952881,495.322388 2749.662354,493.874481 2752.124512,491.834167 
	C2752.124512,499.362854 2752.124512,505.926666 2752.124512,512.583801 
	C2762.496094,512.583801 2772.391846,512.583801 2782.774170,512.583801 
	C2782.774170,509.982880 2782.774170,507.689026 2782.774414,504.424927 
M780.498413,403.675629 
	C802.957275,403.234039 825.497437,403.610992 847.498779,397.961304 
	C873.178955,391.366882 895.791504,379.816772 910.845581,356.929871 
	C923.795654,337.241760 927.672180,315.208832 926.134583,292.068329 
	C924.003174,259.990845 909.543640,235.402283 881.133179,219.641220 
	C862.107361,209.086426 841.336304,204.511963 819.864868,203.960480 
	C789.899841,203.190811 759.909485,203.407501 729.929810,203.225479 
	C729.318787,203.221756 728.706055,203.503708 728.175476,203.632629 
	C728.175476,306.737579 728.175476,409.619873 728.175476,512.656311 
	C738.665588,512.656311 748.904358,512.656311 759.630981,512.656311 
	C759.630981,476.380371 759.630981,440.334015 759.630981,403.689423 
	C766.572632,403.689423 773.035645,403.689423 780.498413,403.675629 
M2132.923584,415.500000 
	C2132.923584,447.906738 2132.923584,480.313507 2132.923584,512.746094 
	C2143.582031,512.746094 2153.509521,512.746094 2163.633301,512.746094 
	C2163.707275,511.875427 2163.807861,511.242401 2163.808105,510.609344 
	C2163.814453,458.284332 2163.980469,405.958435 2163.701416,353.634888 
	C2163.626465,339.579559 2160.897461,325.827484 2154.126953,313.220856 
	C2138.872803,284.818115 2110.498535,276.618225 2080.794922,280.570587 
	C2056.234863,283.838531 2035.729858,295.927002 2017.498657,312.220856 
	C2016.489380,313.122833 2015.411621,313.948273 2013.821777,315.257172 
	C2013.821777,267.304047 2013.821777,220.177902 2013.821777,172.629990 
	C2003.440063,174.807068 1993.383423,176.916016 1983.415283,179.006363 
	C1983.415283,290.383423 1983.415283,401.455933 1983.415283,512.672424 
	C1993.633545,512.672424 2003.554565,512.672424 2013.950684,512.672424 
	C2013.950684,510.689301 2013.950806,508.898407 2013.950806,507.107513 
	C2013.950806,453.282715 2013.931274,399.457886 2014.022949,345.633240 
	C2014.026611,343.500336 2014.394775,340.625824 2015.762329,339.348633 
	C2036.562866,319.922638 2060.341797,307.551117 2089.756348,309.013916 
	C2110.317871,310.036469 2124.796143,320.674683 2129.458496,339.362122 
	C2131.495117,347.524658 2132.527588,356.091797 2132.781250,364.512421 
	C2133.283203,381.161255 2132.925781,397.835968 2132.923584,415.500000 
M2239.492676,215.947952 
	C2237.943604,211.745956 2236.394287,207.543961 2234.905762,203.505920 
	C2224.142822,203.505920 2213.749756,203.505920 2202.938477,203.505920 
	C2203.615479,205.461731 2204.124512,207.008667 2204.683838,208.537262 
	C2218.457031,246.179031 2232.235596,283.818817 2246.013428,321.458923 
	C2268.766357,383.619690 2291.544922,445.771240 2314.208252,507.964661 
	C2315.513428,511.546356 2317.006836,513.225891 2321.220215,513.026306 
	C2330.198730,512.600952 2339.217773,512.700806 2348.207031,512.989563 
	C2351.967773,513.110352 2353.713379,511.946350 2355.038086,508.354950 
	C2391.812012,408.643219 2428.707764,308.976379 2465.571289,209.297821 
	C2466.237793,207.495193 2466.757568,205.638382 2467.546875,203.180984 
	C2458.122559,203.180984 2449.479980,203.409149 2440.858887,203.080109 
	C2436.836426,202.926575 2435.159424,204.229752 2433.783936,208.054565 
	C2403.560791,292.096924 2373.175293,376.080872 2342.810303,460.072144 
	C2340.539307,466.354218 2338.184082,472.605927 2335.480713,479.919312 
	C2303.311035,391.397797 2271.560791,304.030273 2239.492676,215.947952 
M1559.002686,457.535950 
	C1571.680542,428.916962 1574.181396,399.228210 1568.351318,368.661652 
	C1563.319092,342.277466 1551.527832,319.639465 1530.481689,302.563141 
	C1505.426025,282.233490 1476.241455,276.462769 1445.010620,280.983917 
	C1403.154541,287.043182 1374.579224,310.773560 1359.250610,349.803772 
	C1348.567505,377.005188 1347.593994,405.317413 1354.125488,433.756500 
	C1361.359131,465.253479 1377.816650,490.370392 1406.619263,506.148499 
	C1453.013184,531.563171 1526.533203,523.028137 1559.002686,457.535950 
M3234.246582,492.758057 
	C3247.350098,480.767914 3257.575195,466.726501 3263.816406,450.045258 
	C3273.811523,423.330566 3275.559570,395.925598 3269.954590,368.008148 
	C3264.885010,342.757690 3253.708984,320.832397 3233.866455,304.034882 
	C3208.452881,282.520966 3178.564209,276.290344 3146.379639,281.030914 
	C3104.934570,287.135529 3076.667969,310.726227 3061.126465,349.297058 
	C3052.050537,371.822479 3050.071045,395.499084 3053.176025,419.506012 
	C3056.570557,445.755066 3066.150391,469.240082 3084.837158,488.597107 
	C3122.604736,527.719421 3192.597656,529.539124 3234.246582,492.758057 
M2919.451416,280.919739 
	C2894.187500,284.935303 2872.859375,296.461517 2857.397217,316.747742 
	C2824.978271,359.281281 2820.617920,406.630951 2840.049561,455.077850 
	C2856.591797,496.321686 2889.766846,517.062927 2934.244873,519.029480 
	C2960.091064,520.172241 2984.515869,514.665588 3007.225586,502.138397 
	C3008.814209,501.262054 3011.003418,499.003876 3010.794678,497.738098 
	C3009.380371,489.171722 3007.395752,480.699493 3005.531738,471.895203 
	C2991.281738,480.158325 2976.834473,485.991516 2961.237549,488.509094 
	C2943.259033,491.411102 2925.343262,491.731171 2908.250244,484.191742 
	C2882.478271,472.824188 2868.800049,451.898285 2863.091553,425.195618 
	C2861.386963,417.221283 2860.963379,408.973083 2859.875488,400.227448 
	C2863.323242,400.227448 2865.296143,400.235657 2867.269043,400.226227 
	C2914.587402,400.000702 2961.906006,399.735535 3009.224609,399.620728 
	C3012.845703,399.611938 3014.390137,398.655182 3015.210205,394.927032 
	C3018.600342,379.516724 3020.253174,364.058136 3018.016113,348.337311 
	C3015.172852,328.354309 3007.306641,310.904633 2991.471924,297.855621 
	C2970.601074,280.656525 2946.190918,277.553467 2919.451416,280.919739 
M966.973389,330.590179 
	C990.108582,388.934387 1013.270508,447.268066 1036.273804,505.664185 
	C1037.125366,507.825714 1037.133789,510.851044 1036.341064,513.041748 
	C1031.426392,526.623047 1026.746948,540.338928 1020.857056,553.503479 
	C1015.460632,565.565308 1009.350769,577.445618 1002.238708,588.563782 
	C995.036133,599.823486 983.455261,603.916077 970.421570,601.503235 
	C960.556274,599.676941 950.953674,596.432129 940.789734,593.699097 
	C938.144348,601.604736 935.061096,610.818909 931.866577,620.365662 
	C944.839966,626.203979 958.004395,629.684998 971.972900,630.436096 
	C991.008606,631.459656 1007.302612,626.058350 1020.395996,611.681519 
	C1033.092041,597.740845 1040.851440,581.032593 1047.578857,563.819519 
	C1083.056885,473.043152 1118.349609,382.194458 1153.696899,291.367096 
	C1154.334106,289.730103 1154.852783,288.046997 1155.485718,286.214905 
	C1144.456909,286.214905 1133.989014,286.214905 1123.491577,286.214905 
	C1100.330322,348.311707 1077.230835,410.243011 1053.746338,473.206329 
	C1029.652588,409.951233 1006.037048,347.951447 982.490356,286.132446 
	C971.289307,286.132446 960.651855,286.132446 949.323486,286.132446 
	C955.220093,300.941925 960.976135,315.398560 966.973389,330.590179 
M1197.500000,233.000275 
	C1207.806274,233.000275 1218.112549,233.000275 1228.850342,233.000275 
	C1228.850342,326.514282 1228.850342,419.595215 1228.850342,512.520630 
	C1239.527100,512.520630 1249.762939,512.520630 1260.330688,512.520630 
	C1260.330688,419.225494 1260.330688,326.296173 1260.330688,232.915680 
	C1296.742920,232.915680 1332.814087,232.915680 1368.904053,232.915680 
	C1368.904053,222.865707 1368.904053,213.269730 1368.904053,203.506378 
	C1285.790039,203.506378 1202.902710,203.506378 1119.911743,203.506378 
	C1119.911743,213.407242 1119.911743,223.005676 1119.911743,233.000275 
	C1145.577637,233.000275 1171.038818,233.000275 1197.500000,233.000275 
M1787.015381,325.503845 
	C1782.824463,333.223724 1777.791016,340.611816 1774.597046,348.724213 
	C1764.007324,375.621613 1762.546143,403.412811 1768.249268,431.655334 
	C1772.596191,453.182281 1781.734497,472.355560 1797.025391,488.236359 
	C1815.425293,507.345825 1838.528809,516.745117 1864.591553,518.771179 
	C1892.093750,520.909119 1918.252563,515.718323 1942.440186,502.031982 
	C1943.896973,501.207642 1945.950317,499.135925 1945.737183,498.026855 
	C1944.064941,489.325623 1941.907104,480.717682 1939.867310,471.944550 
	C1920.742554,483.320892 1900.792969,489.624878 1878.954956,490.375885 
	C1844.315674,491.567047 1813.981812,471.080139 1803.116821,438.293610 
	C1795.206787,414.424164 1794.330933,390.188263 1801.208496,366.023560 
	C1809.427490,337.145721 1827.275269,317.195892 1857.333496,310.446869 
	C1877.457397,305.928375 1897.421875,308.124115 1916.666260,315.496155 
	C1924.462891,318.482941 1931.957153,322.259247 1939.693848,325.723267 
	C1941.852905,318.048859 1943.765625,310.296265 1946.280762,302.744293 
	C1947.400269,299.382996 1946.345093,298.116241 1943.625854,296.594574 
	C1924.539917,285.914368 1904.173218,280.210968 1882.254395,279.665192 
	C1842.913696,278.685638 1810.799805,292.572906 1787.015381,325.503845 
M1706.074829,309.091736 
	C1720.880493,307.534149 1734.583984,311.230988 1747.610962,318.421570 
	C1750.105347,309.532410 1752.550903,301.248138 1754.645996,292.876160 
	C1754.952637,291.650421 1753.994629,289.209778 1752.941162,288.677063 
	C1737.691895,280.966248 1721.542969,277.755371 1704.585083,280.612640 
	C1686.204712,283.709686 1672.290161,294.161194 1661.242310,308.663452 
	C1656.977417,314.261749 1653.356323,320.350433 1649.024414,326.841064 
	C1649.024414,310.798187 1649.024414,295.397766 1649.024414,279.552490 
	C1638.512939,281.761810 1628.459717,283.874786 1618.562500,285.954987 
	C1618.562500,361.752075 1618.562500,437.166962 1618.562500,512.641235 
	C1628.813599,512.641235 1638.733276,512.641235 1649.018677,512.641235 
	C1649.018677,510.603455 1649.018677,508.801422 1649.018677,506.999390 
	C1649.018677,467.502655 1649.922852,427.976105 1648.620361,388.522369 
	C1648.010010,370.036926 1653.219116,354.723755 1663.518066,340.295135 
	C1664.097900,339.482880 1664.595093,338.610870 1665.188477,337.809387 
	C1675.439819,323.963593 1687.515137,312.665039 1706.074829,309.091736 
M2534.885254,342.500000 
	C2534.885254,321.733765 2534.885254,300.967560 2534.885254,279.532776 
	C2524.204834,281.780029 2514.207520,283.883545 2504.400879,285.946930 
	C2504.400879,361.864746 2504.400879,437.206451 2504.400879,512.568481 
	C2514.661133,512.568481 2524.561035,512.568481 2534.885010,512.568481 
	C2534.885010,455.993744 2534.885010,399.746857 2534.885254,342.500000 
M2504.748535,196.229950 
	C2503.310791,198.255310 2501.619873,200.148254 2500.479248,202.329010 
	C2495.738281,211.394501 2499.097900,224.891342 2507.337158,230.480957 
	C2515.428467,235.970215 2527.677979,234.866089 2533.940430,228.083282 
	C2541.858154,219.507828 2542.083984,205.841888 2534.451904,197.122665 
	C2527.309082,188.962418 2515.228271,188.382324 2504.748535,196.229950 
M445.205353,205.717758 
	C443.828918,194.240479 434.620819,186.113022 423.500427,186.560089 
	C412.250458,187.012344 403.210114,196.079712 403.022919,207.098709 
	C402.824036,218.805267 412.196564,228.536789 423.929169,228.805740 
	C435.901306,229.080185 445.037781,219.563492 445.205353,205.717758 
z"/>
<path fill="#822EE5" opacity="1.000000" stroke="none" 
	d="
M142.935120,228.901077 
	C142.987473,211.074112 143.074814,193.247162 143.085022,175.420181 
	C143.107803,135.596130 143.092148,95.772041 143.092148,55.947971 
	C143.092148,54.124138 143.092148,52.300308 143.092148,49.355679 
	C227.082565,87.829269 310.446411,126.015846 394.714935,164.616837 
	C392.717316,165.709213 391.400574,166.492508 390.030884,167.168427 
	C377.199036,173.500717 364.317566,179.734589 351.551758,186.197021 
	C348.780640,187.599838 346.608643,187.677277 343.699127,186.401352 
	C292.056152,163.754074 240.352646,141.244858 188.661026,118.708572 
	C187.318573,118.123291 185.962906,117.568352 184.102539,116.783836 
	C184.102539,205.414383 184.102539,293.551208 184.102539,382.260712 
	C185.886856,381.447906 187.371399,380.832428 188.802536,380.111053 
	C291.621948,328.285278 394.445190,276.467041 497.213196,224.539505 
	C500.248474,223.005814 502.531342,222.969818 505.528961,224.455627 
	C520.569092,231.910431 535.719299,239.143127 551.979736,247.009720 
	C490.577332,277.496765 430.061340,307.543732 368.905151,337.832703 
	C357.131744,343.574738 345.972595,349.023102 334.878174,354.600220 
	C330.464539,356.818909 326.194122,359.322662 321.495239,361.758057 
	C319.461639,362.543457 317.755280,363.194794 316.126160,364.002045 
	C260.569092,391.531403 205.019913,419.076691 149.466064,446.612518 
	C147.596268,447.539307 145.689606,448.391693 143.093201,449.610657 
	C143.093201,446.930328 143.093201,445.149048 143.093201,443.367798 
	C143.093201,409.241241 143.111633,375.114716 143.086533,340.988159 
	C143.070618,319.349121 142.989853,297.710114 142.971466,275.598999 
	C142.981537,259.718262 142.958328,244.309677 142.935120,228.901077 
z"/>
<path fill="#CC35CC" opacity="1.000000" stroke="none" 
	d="
M142.605743,228.805939 
	C142.958328,244.309677 142.981537,259.718262 142.617294,275.543793 
	C128.650940,269.502380 115.072060,263.044006 100.958023,256.331146 
	C100.958023,345.360870 100.958023,433.379272 100.958023,522.170227 
	C191.304703,476.812683 281.134003,431.714905 371.961670,386.115906 
	C369.089996,384.719513 367.209473,383.807159 365.330688,382.891205 
	C350.839752,375.826721 336.349213,368.761566 321.858521,361.696625 
	C326.194122,359.322662 330.464539,356.818909 334.878174,354.600220 
	C345.972595,349.023102 357.131744,343.574738 368.624146,338.044678 
	C387.517395,347.037598 406.042786,356.078430 424.588318,365.077698 
	C437.915558,371.544800 451.272644,377.950409 464.606903,384.403137 
	C465.775909,384.968842 466.874023,385.681030 468.681793,386.710571 
	C332.326904,454.307434 196.543716,521.620911 60.300842,589.162231 
	C60.300842,455.510162 60.300842,322.595703 60.300842,188.941635 
	C87.876945,202.319763 115.076653,215.515289 142.605743,228.805939 
z"/>
<path fill="#822EE5" opacity="1.000000" stroke="none" 
	d="
M2782.774414,504.910065 
	C2782.774170,507.689026 2782.774170,509.982880 2782.774170,512.583801 
	C2772.391846,512.583801 2762.496094,512.583801 2752.124512,512.583801 
	C2752.124512,505.926666 2752.124512,499.362854 2752.124512,491.834167 
	C2749.662354,493.874481 2747.952881,495.322388 2746.210938,496.730103 
	C2692.501953,540.133179 2615.700684,518.079163 2593.125488,452.580933 
	C2581.690186,419.402832 2581.294678,386.056366 2592.959717,352.714386 
	C2609.171387,306.377197 2656.466309,276.649200 2705.445801,281.533447 
	C2721.339600,283.118378 2736.481934,286.901245 2751.721680,293.061371 
	C2751.721680,255.026596 2751.721680,217.347305 2751.721680,179.126251 
	C2762.046631,176.946457 2772.022217,174.840454 2782.774414,172.570465 
	C2782.774414,283.642944 2782.774414,394.033936 2782.774414,504.910065 
M2645.959961,326.430145 
	C2633.948975,337.111542 2625.805420,350.269684 2621.308594,365.631744 
	C2614.195068,389.932495 2614.142090,414.339447 2622.064453,438.381592 
	C2629.997559,462.456909 2644.864990,480.767120 2670.107178,487.778381 
	C2700.114258,496.113007 2726.599365,487.820709 2749.775391,467.849548 
	C2751.219238,466.605255 2751.981934,463.831665 2751.987793,461.766602 
	C2752.112061,417.959625 2752.031006,374.152039 2752.177490,330.345184 
	C2752.189453,326.802124 2750.919434,324.843201 2748.092773,323.184235 
	C2735.450928,315.764496 2722.030273,310.667084 2707.341553,309.328735 
	C2684.997559,307.292847 2664.201660,310.994232 2645.959961,326.430145 
z"/>
<path fill="#030303" opacity="1.000000" stroke="none" 
	d="
M779.998535,403.682526 
	C773.035645,403.689423 766.572632,403.689423 759.630981,403.689423 
	C759.630981,440.334015 759.630981,476.380371 759.630981,512.656311 
	C748.904358,512.656311 738.665588,512.656311 728.175476,512.656311 
	C728.175476,409.619873 728.175476,306.737579 728.175476,203.632629 
	C728.706055,203.503708 729.318787,203.221756 729.929810,203.225479 
	C759.909485,203.407501 789.899841,203.190811 819.864868,203.960480 
	C841.336304,204.511963 862.107361,209.086426 881.133179,219.641220 
	C909.543640,235.402283 924.003174,259.990845 926.134583,292.068329 
	C927.672180,315.208832 923.795654,337.241760 910.845581,356.929871 
	C895.791504,379.816772 873.178955,391.366882 847.498779,397.961304 
	C825.497437,403.610992 802.957275,403.234039 779.998535,403.682526 
M858.843018,362.488647 
	C882.329651,350.833588 892.652283,330.928894 893.734619,305.673981 
	C894.511841,287.537415 890.807251,270.586823 877.789368,256.802917 
	C864.129517,242.339249 846.537537,235.690231 827.478821,234.287521 
	C805.272766,232.653183 782.910889,233.134415 760.616089,232.727142 
	C760.374207,232.722733 760.125000,233.116013 760.004822,233.217545 
	C760.004822,280.385376 760.004822,327.441254 760.004822,374.755005 
	C777.501648,374.220123 794.641174,373.740143 811.777344,373.159607 
	C827.878967,372.614044 843.473022,369.694275 858.843018,362.488647 
z"/>
<path fill="#020202" opacity="1.000000" stroke="none" 
	d="
M2132.923584,415.000000 
	C2132.925781,397.835968 2133.283203,381.161255 2132.781250,364.512421 
	C2132.527588,356.091797 2131.495117,347.524658 2129.458496,339.362122 
	C2124.796143,320.674683 2110.317871,310.036469 2089.756348,309.013916 
	C2060.341797,307.551117 2036.562866,319.922638 2015.762329,339.348633 
	C2014.394775,340.625824 2014.026611,343.500336 2014.022949,345.633240 
	C2013.931274,399.457886 2013.950806,453.282715 2013.950806,507.107513 
	C2013.950806,508.898407 2013.950684,510.689301 2013.950684,512.672424 
	C2003.554565,512.672424 1993.633545,512.672424 1983.415283,512.672424 
	C1983.415283,401.455933 1983.415283,290.383423 1983.415283,179.006363 
	C1993.383423,176.916016 2003.440063,174.807068 2013.821777,172.629990 
	C2013.821777,220.177902 2013.821777,267.304047 2013.821777,315.257172 
	C2015.411621,313.948273 2016.489380,313.122833 2017.498657,312.220856 
	C2035.729858,295.927002 2056.234863,283.838531 2080.794922,280.570587 
	C2110.498535,276.618225 2138.872803,284.818115 2154.126953,313.220856 
	C2160.897461,325.827484 2163.626465,339.579559 2163.701416,353.634888 
	C2163.980469,405.958435 2163.814453,458.284332 2163.808105,510.609344 
	C2163.807861,511.242401 2163.707275,511.875427 2163.633301,512.746094 
	C2153.509521,512.746094 2143.582031,512.746094 2132.923584,512.746094 
	C2132.923584,480.313507 2132.923584,447.906738 2132.923584,415.000000 
z"/>
<path fill="#822EE5" opacity="1.000000" stroke="none" 
	d="
M2239.651611,216.305359 
	C2271.560791,304.030273 2303.311035,391.397797 2335.480713,479.919312 
	C2338.184082,472.605927 2340.539307,466.354218 2342.810303,460.072144 
	C2373.175293,376.080872 2403.560791,292.096924 2433.783936,208.054565 
	C2435.159424,204.229752 2436.836426,202.926575 2440.858887,203.080109 
	C2449.479980,203.409149 2458.122559,203.180984 2467.546875,203.180984 
	C2466.757568,205.638382 2466.237793,207.495193 2465.571289,209.297821 
	C2428.707764,308.976379 2391.812012,408.643219 2355.038086,508.354950 
	C2353.713379,511.946350 2351.967773,513.110352 2348.207031,512.989563 
	C2339.217773,512.700806 2330.198730,512.600952 2321.220215,513.026306 
	C2317.006836,513.225891 2315.513428,511.546356 2314.208252,507.964661 
	C2291.544922,445.771240 2268.766357,383.619690 2246.013428,321.458923 
	C2232.235596,283.818817 2218.457031,246.179031 2204.683838,208.537262 
	C2204.124512,207.008667 2203.615479,205.461731 2202.938477,203.505920 
	C2213.749756,203.505920 2224.142822,203.505920 2234.905762,203.505920 
	C2236.394287,207.543961 2237.943604,211.745956 2239.651611,216.305359 
z"/>
<path fill="#020202" opacity="1.000000" stroke="none" 
	d="
M1558.860596,457.883545 
	C1526.533203,523.028137 1453.013184,531.563171 1406.619263,506.148499 
	C1377.816650,490.370392 1361.359131,465.253479 1354.125488,433.756500 
	C1347.593994,405.317413 1348.567505,377.005188 1359.250610,349.803772 
	C1374.579224,310.773560 1403.154541,287.043182 1445.010620,280.983917 
	C1476.241455,276.462769 1505.426025,282.233490 1530.481689,302.563141 
	C1551.527832,319.639465 1563.319092,342.277466 1568.351318,368.661652 
	C1574.181396,399.228210 1571.680542,428.916962 1558.860596,457.883545 
M1381.314941,407.971283 
	C1382.926147,416.788116 1383.821899,425.809479 1386.273682,434.386017 
	C1396.403931,469.823242 1425.316772,491.570374 1461.393799,491.488708 
	C1497.273926,491.407501 1525.595215,469.721222 1536.080200,434.418915 
	C1542.287964,413.517273 1542.697266,392.462982 1537.885010,371.287445 
	C1529.172852,332.951538 1502.269043,309.096710 1464.547485,307.422058 
	C1438.200073,306.252380 1415.975952,315.504883 1399.807617,337.161774 
	C1384.278320,357.962677 1380.290771,381.853180 1381.314941,407.971283 
z"/>
<path fill="#822EE5" opacity="1.000000" stroke="none" 
	d="
M3233.966309,492.975220 
	C3192.597656,529.539124 3122.604736,527.719421 3084.837158,488.597107 
	C3066.150391,469.240082 3056.570557,445.755066 3053.176025,419.506012 
	C3050.071045,395.499084 3052.050537,371.822479 3061.126465,349.297058 
	C3076.667969,310.726227 3104.934570,287.135529 3146.379639,281.030914 
	C3178.564209,276.290344 3208.452881,282.520966 3233.866455,304.034882 
	C3253.708984,320.832397 3264.885010,342.757690 3269.954590,368.008148 
	C3275.559570,395.925598 3273.811523,423.330566 3263.816406,450.045258 
	C3257.575195,466.726501 3247.350098,480.767914 3233.966309,492.975220 
M3229.027344,344.526550 
	C3224.140137,338.447021 3219.889160,331.690521 3214.260742,326.399200 
	C3180.655762,294.806366 3110.257324,298.958069 3088.982666,360.561096 
	C3081.917236,381.019012 3081.111816,401.962067 3085.030029,423.148743 
	C3092.707275,464.661652 3121.307373,490.279358 3161.577881,491.274780 
	C3187.208252,491.908325 3209.211670,483.028381 3223.795654,461.611053 
	C3249.205566,424.295959 3248.633545,384.992279 3229.027344,344.526550 
z"/>
<path fill="#822EE5" opacity="1.000000" stroke="none" 
	d="
M2919.892578,280.874054 
	C2946.190918,277.553467 2970.601074,280.656525 2991.471924,297.855621 
	C3007.306641,310.904633 3015.172852,328.354309 3018.016113,348.337311 
	C3020.253174,364.058136 3018.600342,379.516724 3015.210205,394.927032 
	C3014.390137,398.655182 3012.845703,399.611938 3009.224609,399.620728 
	C2961.906006,399.735535 2914.587402,400.000702 2867.269043,400.226227 
	C2865.296143,400.235657 2863.323242,400.227448 2859.875488,400.227448 
	C2860.963379,408.973083 2861.386963,417.221283 2863.091553,425.195618 
	C2868.800049,451.898285 2882.478271,472.824188 2908.250244,484.191742 
	C2925.343262,491.731171 2943.259033,491.411102 2961.237549,488.509094 
	C2976.834473,485.991516 2991.281738,480.158325 3005.531738,471.895203 
	C3007.395752,480.699493 3009.380371,489.171722 3010.794678,497.738098 
	C3011.003418,499.003876 3008.814209,501.262054 3007.225586,502.138397 
	C2984.515869,514.665588 2960.091064,520.172241 2934.244873,519.029480 
	C2889.766846,517.062927 2856.591797,496.321686 2840.049561,455.077850 
	C2820.617920,406.630951 2824.978271,359.281281 2857.397217,316.747742 
	C2872.859375,296.461517 2894.187500,284.935303 2919.892578,280.874054 
M2882.953613,329.470428 
	C2871.230713,342.605103 2864.778320,357.982422 2862.610840,375.565735 
	C2904.767578,375.565735 2946.168457,375.565735 2987.978760,375.565735 
	C2987.978760,368.185944 2988.716553,361.030273 2987.834961,354.080048 
	C2985.566650,336.201202 2978.089111,321.378387 2961.064697,312.888214 
	C2938.940674,301.855011 2903.781250,305.779205 2882.953613,329.470428 
z"/>
<path fill="#020202" opacity="1.000000" stroke="none" 
	d="
M966.852783,330.222687 
	C960.976135,315.398560 955.220093,300.941925 949.323486,286.132446 
	C960.651855,286.132446 971.289307,286.132446 982.490356,286.132446 
	C1006.037048,347.951447 1029.652588,409.951233 1053.746338,473.206329 
	C1077.230835,410.243011 1100.330322,348.311707 1123.491577,286.214905 
	C1133.989014,286.214905 1144.456909,286.214905 1155.485718,286.214905 
	C1154.852783,288.046997 1154.334106,289.730103 1153.696899,291.367096 
	C1118.349609,382.194458 1083.056885,473.043152 1047.578857,563.819519 
	C1040.851440,581.032593 1033.092041,597.740845 1020.395996,611.681519 
	C1007.302612,626.058350 991.008606,631.459656 971.972900,630.436096 
	C958.004395,629.684998 944.839966,626.203979 931.866577,620.365662 
	C935.061096,610.818909 938.144348,601.604736 940.789734,593.699097 
	C950.953674,596.432129 960.556274,599.676941 970.421570,601.503235 
	C983.455261,603.916077 995.036133,599.823486 1002.238708,588.563782 
	C1009.350769,577.445618 1015.460632,565.565308 1020.857056,553.503479 
	C1026.746948,540.338928 1031.426392,526.623047 1036.341064,513.041748 
	C1037.133789,510.851044 1037.125366,507.825714 1036.273804,505.664185 
	C1013.270508,447.268066 990.108582,388.934387 966.852783,330.222687 
z"/>
<path fill="#010101" opacity="1.000000" stroke="none" 
	d="
M1197.000000,233.000275 
	C1171.038818,233.000275 1145.577637,233.000275 1119.911743,233.000275 
	C1119.911743,223.005676 1119.911743,213.407242 1119.911743,203.506378 
	C1202.902710,203.506378 1285.790039,203.506378 1368.904053,203.506378 
	C1368.904053,213.269730 1368.904053,222.865707 1368.904053,232.915680 
	C1332.814087,232.915680 1296.742920,232.915680 1260.330688,232.915680 
	C1260.330688,326.296173 1260.330688,419.225494 1260.330688,512.520630 
	C1249.762939,512.520630 1239.527100,512.520630 1228.850342,512.520630 
	C1228.850342,419.595215 1228.850342,326.514282 1228.850342,233.000275 
	C1218.112549,233.000275 1207.806274,233.000275 1197.000000,233.000275 
z"/>
<path fill="#020202" opacity="1.000000" stroke="none" 
	d="
M1787.224609,325.214722 
	C1810.799805,292.572906 1842.913696,278.685638 1882.254395,279.665192 
	C1904.173218,280.210968 1924.539917,285.914368 1943.625854,296.594574 
	C1946.345093,298.116241 1947.400269,299.382996 1946.280762,302.744293 
	C1943.765625,310.296265 1941.852905,318.048859 1939.693848,325.723267 
	C1931.957153,322.259247 1924.462891,318.482941 1916.666260,315.496155 
	C1897.421875,308.124115 1877.457397,305.928375 1857.333496,310.446869 
	C1827.275269,317.195892 1809.427490,337.145721 1801.208496,366.023560 
	C1794.330933,390.188263 1795.206787,414.424164 1803.116821,438.293610 
	C1813.981812,471.080139 1844.315674,491.567047 1878.954956,490.375885 
	C1900.792969,489.624878 1920.742554,483.320892 1939.867310,471.944550 
	C1941.907104,480.717682 1944.064941,489.325623 1945.737183,498.026855 
	C1945.950317,499.135925 1943.896973,501.207642 1942.440186,502.031982 
	C1918.252563,515.718323 1892.093750,520.909119 1864.591553,518.771179 
	C1838.528809,516.745117 1815.425293,507.345825 1797.025391,488.236359 
	C1781.734497,472.355560 1772.596191,453.182281 1768.249268,431.655334 
	C1762.546143,403.412811 1764.007324,375.621613 1774.597046,348.724213 
	C1777.791016,340.611816 1782.824463,333.223724 1787.224609,325.214722 
z"/>
<path fill="#030303" opacity="1.000000" stroke="none" 
	d="
M1705.636719,309.154755 
	C1687.515137,312.665039 1675.439819,323.963593 1665.188477,337.809387 
	C1664.595093,338.610870 1664.097900,339.482880 1663.518066,340.295135 
	C1653.219116,354.723755 1648.010010,370.036926 1648.620361,388.522369 
	C1649.922852,427.976105 1649.018677,467.502655 1649.018677,506.999390 
	C1649.018677,508.801422 1649.018677,510.603455 1649.018677,512.641235 
	C1638.733276,512.641235 1628.813599,512.641235 1618.562500,512.641235 
	C1618.562500,437.166962 1618.562500,361.752075 1618.562500,285.954987 
	C1628.459717,283.874786 1638.512939,281.761810 1649.024414,279.552490 
	C1649.024414,295.397766 1649.024414,310.798187 1649.024414,326.841064 
	C1653.356323,320.350433 1656.977417,314.261749 1661.242310,308.663452 
	C1672.290161,294.161194 1686.204712,283.709686 1704.585083,280.612640 
	C1721.542969,277.755371 1737.691895,280.966248 1752.941162,288.677063 
	C1753.994629,289.209778 1754.952637,291.650421 1754.645996,292.876160 
	C1752.550903,301.248138 1750.105347,309.532410 1747.610962,318.421570 
	C1734.583984,311.230988 1720.880493,307.534149 1705.636719,309.154755 
z"/>
<path fill="#822EE5" opacity="1.000000" stroke="none" 
	d="
M2534.885254,343.000000 
	C2534.885010,399.746857 2534.885010,455.993744 2534.885010,512.568481 
	C2524.561035,512.568481 2514.661133,512.568481 2504.400879,512.568481 
	C2504.400879,437.206451 2504.400879,361.864746 2504.400879,285.946930 
	C2514.207520,283.883545 2524.204834,281.780029 2534.885254,279.532776 
	C2534.885254,300.967560 2534.885254,321.733765 2534.885254,343.000000 
z"/>
<path fill="#832FE5" opacity="1.000000" stroke="none" 
	d="
M2505.005371,195.975555 
	C2515.228271,188.382324 2527.309082,188.962418 2534.451904,197.122665 
	C2542.083984,205.841888 2541.858154,219.507828 2533.940430,228.083282 
	C2527.677979,234.866089 2515.428467,235.970215 2507.337158,230.480957 
	C2499.097900,224.891342 2495.738281,211.394501 2500.479248,202.329010 
	C2501.619873,200.148254 2503.310791,198.255310 2505.005371,195.975555 
z"/>
<path fill="#822EE5" opacity="1.000000" stroke="none" 
	d="
M445.220673,206.164993 
	C445.037781,219.563492 435.901306,229.080185 423.929169,228.805740 
	C412.196564,228.536789 402.824036,218.805267 403.022919,207.098709 
	C403.210114,196.079712 412.250458,187.012344 423.500427,186.560089 
	C434.620819,186.113022 443.828918,194.240479 445.220673,206.164993 
z"/>
<path fill="#FFFEFF" opacity="1.000000" stroke="none" 
	d="
M321.495239,361.758057 
	C336.349213,368.761566 350.839752,375.826721 365.330688,382.891205 
	C367.209473,383.807159 369.089996,384.719513 371.961670,386.115906 
	C281.134003,431.714905 191.304703,476.812683 100.958023,522.170227 
	C100.958023,433.379272 100.958023,345.360870 100.958023,256.331146 
	C115.072060,263.044006 128.650940,269.502380 142.584015,276.015930 
	C142.989853,297.710114 143.070618,319.349121 143.086533,340.988159 
	C143.111633,375.114716 143.093201,409.241241 143.093201,443.367798 
	C143.093201,445.149048 143.093201,446.930328 143.093201,449.610657 
	C145.689606,448.391693 147.596268,447.539307 149.466064,446.612518 
	C205.019913,419.076691 260.569092,391.531403 316.126160,364.002045 
	C317.755280,363.194794 319.461639,362.543457 321.495239,361.758057 
z"/>
<path fill="#FFFFFF" opacity="1.000000" stroke="none" 
	d="
M2646.229980,326.199341 
	C2664.201660,310.994232 2684.997559,307.292847 2707.341553,309.328735 
	C2722.030273,310.667084 2735.450928,315.764496 2748.092773,323.184235 
	C2750.919434,324.843201 2752.189453,326.802124 2752.177490,330.345184 
	C2752.031006,374.152039 2752.112061,417.959625 2751.987793,461.766602 
	C2751.981934,463.831665 2751.219238,466.605255 2749.775391,467.849548 
	C2726.599365,487.820709 2700.114258,496.113007 2670.107178,487.778381 
	C2644.864990,480.767120 2629.997559,462.456909 2622.064453,438.381592 
	C2614.142090,414.339447 2614.195068,389.932495 2621.308594,365.631744 
	C2625.805420,350.269684 2633.948975,337.111542 2646.229980,326.199341 
z"/>
<path fill="#FEFEFE" opacity="1.000000" stroke="none" 
	d="
M858.515625,362.673950 
	C843.473022,369.694275 827.878967,372.614044 811.777344,373.159607 
	C794.641174,373.740143 777.501648,374.220123 760.004822,374.755005 
	C760.004822,327.441254 760.004822,280.385376 760.004822,233.217545 
	C760.125000,233.116013 760.374207,232.722733 760.616089,232.727142 
	C782.910889,233.134415 805.272766,232.653183 827.478821,234.287521 
	C846.537537,235.690231 864.129517,242.339249 877.789368,256.802917 
	C890.807251,270.586823 894.511841,287.537415 893.734619,305.673981 
	C892.652283,330.928894 882.329651,350.833588 858.515625,362.673950 
z"/>
<path fill="#FEFEFE" opacity="1.000000" stroke="none" 
	d="
M1381.279297,407.507965 
	C1380.290771,381.853180 1384.278320,357.962677 1399.807617,337.161774 
	C1415.975952,315.504883 1438.200073,306.252380 1464.547485,307.422058 
	C1502.269043,309.096710 1529.172852,332.951538 1537.885010,371.287445 
	C1542.697266,392.462982 1542.287964,413.517273 1536.080200,434.418915 
	C1525.595215,469.721222 1497.273926,491.407501 1461.393799,491.488708 
	C1425.316772,491.570374 1396.403931,469.823242 1386.273682,434.386017 
	C1383.821899,425.809479 1382.926147,416.788116 1381.279297,407.507965 
z"/>
<path fill="#FFFEFF" opacity="1.000000" stroke="none" 
	d="
M3229.217285,344.838654 
	C3248.633545,384.992279 3249.205566,424.295959 3223.795654,461.611053 
	C3209.211670,483.028381 3187.208252,491.908325 3161.577881,491.274780 
	C3121.307373,490.279358 3092.707275,464.661652 3085.030029,423.148743 
	C3081.111816,401.962067 3081.917236,381.019012 3088.982666,360.561096 
	C3110.257324,298.958069 3180.655762,294.806366 3214.260742,326.399200 
	C3219.889160,331.690521 3224.140137,338.447021 3229.217285,344.838654 
z"/>
<path fill="#FEFDFF" opacity="1.000000" stroke="none" 
	d="
M2883.187988,329.205750 
	C2903.781250,305.779205 2938.940674,301.855011 2961.064697,312.888214 
	C2978.089111,321.378387 2985.566650,336.201202 2987.834961,354.080048 
	C2988.716553,361.030273 2987.978760,368.185944 2987.978760,375.565735 
	C2946.168457,375.565735 2904.767578,375.565735 2862.610840,375.565735 
	C2864.778320,357.982422 2871.230713,342.605103 2883.187988,329.205750 
z"/>
</svg>