<?xml version="1.0" encoding="UTF-8"?>
<svg id="Layer_1" xmlns="http://www.w3.org/2000/svg" version="1.1" viewBox="0 0 400 245">
  <!-- Generator: Adobe Illustrator 29.1.0, SVG Export Plug-In . SVG Version: 2.1.0 Build 142)  -->
  <defs>
    <style>
      .st0 {
        fill: #de3412;
      }
    </style>
  </defs>
  <g>
    <path class="st0" d="M39.5039329,103.7488443l-3.9121578,3.9121578c6.4851598,6.4851598,6.4851598,16.9953236,0,23.4767237-6.4813944,6.4851598-16.9953293,6.4851598-23.4767237,0-6.4851569-6.4813944-6.4851569-16.9953236,0-23.4767237h-.0037596l10.3408945-10.3446541,1.3955904-1.3955904h.0037596v-7.8205589l-15.6524024,15.6523995c-8.6443676,8.6443676-8.6443676,22.6604372,0,31.3048047,8.6443676,8.6443733,22.6604372,8.6443733,31.3048047,0,8.6443676-8.6443676,8.6443676-22.6604372,0-31.3048047"/>
    <path class="st0" d="M33.7034039,101.8755231c1.1247481-1.1247481,1.1247481-2.9454058,0-4.0701482-1.1247481-1.1247481-2.9454058-1.1247481-4.0701539,0s-1.1247481,2.9454058,0,4.0701539,2.9454058,1.1247481,4.0701539,0"/>
  </g>
  <g>
    <path d="M77.6386719,100.434082c2.5893555-.4316406,5.9794922-.8017578,10.2949219-.8017578,5.3012695,0,9.1850586,1.2329102,11.6508789,3.4521484,2.2192383,1.9726562,3.637207,4.9931641,3.637207,8.6923828,0,3.7602539-1.1098633,6.7192383-3.2055664,8.8769531-2.8974609,3.0200195-7.4589844,4.5610352-12.6992188,4.5610352-1.6025391,0-3.0820312-.0615234-4.3149414-.3701172v16.6445312h-5.3632812v-41.0551758ZM83.0019531,120.46875c1.1713867.3081055,2.6508789.4311523,4.4384766.4311523,6.4726562,0,10.4179688-3.2050781,10.4179688-8.8149414,0-5.5483398-3.9453125-8.1987305-9.8017578-8.1987305-2.3422852,0-4.1303711.1845703-5.0546875.4311523v16.1513672Z"/>
    <path d="M113.3969727,111.6533203l6.4726562,17.6298828c.7402344,1.9726562,1.4794922,4.3154297,1.9726562,6.1035156h.1235352c.5546875-1.7880859,1.1713867-4.0693359,1.9111328-6.2265625l5.9179688-17.5068359h5.7329102l-8.137207,21.2675781c-3.8837891,10.2324219-6.534668,15.4111328-10.2329102,18.6787109-2.7128906,2.2802734-5.3017578,3.2050781-6.6582031,3.4511719l-1.355957-4.5c1.355957-.4316406,3.144043-1.2939453,4.746582-2.6503906,1.4794922-1.1708984,3.2675781-3.2675781,4.5620117-6.0410156.246582-.5546875.4311523-.9863281.4311523-1.2949219s-.1230469-.7392578-.4311523-1.4179688l-10.9731445-27.4931641h5.9179688Z"/>
    <path d="M144.3041992,104.5024414h-12.637207v-4.5615234h30.7612305v4.5615234h-12.6992188v36.9868164h-5.4248047v-36.9868164Z"/>
    <path d="M189.3964844,126.3242188c0,11.0351562-7.7055664,15.8427734-14.8569336,15.8427734-8.0136719,0-14.3017578-5.9179688-14.3017578-15.3496094,0-9.9243164,6.5961914-15.7807617,14.7949219-15.7807617,8.5688477,0,14.3637695,6.2265625,14.3637695,15.2875977ZM165.7861328,126.6328125c0,6.5341797,3.6987305,11.4658203,9.0004883,11.4658203,5.1777344,0,9.0615234-4.8701172,9.0615234-11.5888672,0-5.0546875-2.5273438-11.4042969-8.9384766-11.4042969-6.3496094,0-9.1235352,5.9179688-9.1235352,11.5273438Z"/>
    <path d="M196.2241211,120.9619141c0-3.5141602-.0615234-6.534668-.246582-9.3085938h4.746582l.2470703,5.9179688h.1845703c1.3564453-4.0068359,4.6850586-6.534668,8.3222656-6.534668.5546875,0,.9863281.0620117,1.4794922.1235352v5.1166992c-.5546875-.1235352-1.109375-.1235352-1.8496094-.1235352-3.8217773,0-6.5341797,2.8359375-7.2739258,6.9042969-.1235352.7392578-.1850586,1.6640625-.1850586,2.5273438v15.9042969h-5.4248047v-20.5273438Z"/>
    <path d="M237.081543,140.4414062c-1.4174805.6777344-4.5615234,1.7255859-8.5683594,1.7255859-9.0004883,0-14.8564453-6.1025391-14.8564453-15.2255859,0-9.1850586,6.2875977-15.9047852,16.0273438-15.9047852,3.2060547,0,6.0415039.8017578,7.5209961,1.6030273l-1.2329102,4.1303711c-1.2944336-.6782227-3.3291016-1.4179688-6.2880859-1.4179688-6.8422852,0-10.5410156,5.1166992-10.5410156,11.2807617,0,6.9042969,4.4384766,11.1582031,10.3564453,11.1582031,3.0820312,0,5.1162109-.7402344,6.6577148-1.4179688l.9243164,4.0683594Z"/>
    <path d="M242.9301758,97.7211914h5.4248047v18.6787109h.1235352c.862793-1.5410156,2.2192383-2.9589844,3.8833008-3.8837891,1.6030273-.9243164,3.5141602-1.4794922,5.5483398-1.4794922,4.0068359,0,10.4179688,2.4658203,10.4179688,12.6987305v17.7539062h-5.4248047v-17.1376953c0-4.8076172-1.7875977-8.8144531-6.9042969-8.8144531-3.5136719,0-6.2260742,2.4658203-7.2739258,5.362793-.3085938.8017578-.3701172,1.6030273-.3701172,2.5883789v18.0009766h-5.4248047v-43.7680664Z"/>
    <path d="M272.7519531,143.8935547l17.137207-44.6928711h4.2539062l-17.2607422,44.6928711h-4.1303711Z"/>
    <path d="M323.0029297,141.4892578l-5.362793-9.1855469c-2.1577148-3.5136719-3.4521484-5.7939453-4.7470703-8.1982422h-.1230469c-1.1713867,2.4042969-2.4042969,4.6230469-4.5,8.2597656l-4.9936523,9.1240234h-6.1645508l12.6992188-21.0205078-12.2060547-20.527832h6.2265625l5.4863281,9.7397461c1.5410156,2.7124023,2.7124023,4.8081055,3.8217773,7.027832h.1850586c1.1713867-2.4658203,2.2192383-4.3769531,3.7602539-7.027832l5.6098633-9.7397461h6.2260742l-12.637207,20.2197266,12.9453125,21.3286133h-6.2260742Z"/>
    <path d="M334.8374023,99.940918h5.4248047v37.0483398h17.7539062v4.5h-23.1787109v-41.5483398Z"/>
    <path d="M371.9633789,128.4199219l-4.3149414,13.0693359h-5.5483398l14.1787109-41.5483398h6.4111328l14.1782227,41.5483398h-5.7329102l-4.4384766-13.0693359h-14.7333984ZM385.6489258,124.2285156l-4.1303711-11.9584961c-.9248047-2.7128906-1.5410156-5.1787109-2.1577148-7.5825195h-.1230469c-.6166992,2.4038086-1.2329102,4.9931641-2.0961914,7.5205078l-4.0683594,12.0205078h12.5756836Z"/>
  </g>
</svg>