<svg version="1.1" id="Layer_1" xmlns="http://www.w3.org/2000/svg" xmlns:xlink="http://www.w3.org/1999/xlink" x="0px" y="0px"
	 width="100%" viewBox="0 0 262 84" enable-background="new 0 0 262 84" xml:space="preserve">
<path fill="none" opacity="1.000000" stroke="#000000" stroke-linecap="round" stroke-linejoin="round" stroke-width="5.000000"
	d="
M30.000000,46.500000 
	C31.333334,46.500000 32.666931,46.517197 33.999954,46.496910 
	C38.804810,46.423782 40.857567,44.512814 40.999996,40.000000 
	C41.125214,36.032719 39.050617,33.890293 34.497486,33.531918 
	C32.752632,33.394581 30.939793,33.201160 29.000000,34.234501 
	C29.000000,41.331440 29.000000,48.665718 29.000000,56.000000 
"/>
<path fill="none" opacity="1.000000" stroke="#000000" stroke-linecap="round" stroke-linejoin="round" stroke-width="5.000000"
	d="
M194.000000,34.000000 
	C194.000000,41.334282 194.000000,48.668560 194.000000,55.928013 
	C197.626022,56.999985 201.085632,56.286182 204.500000,56.500000 
"/>
<path fill="none" opacity="1.000000" stroke="#000000" stroke-linecap="round" stroke-linejoin="round" stroke-width="3.000000"
	d="
M165.500000,33.000000 
	C161.125900,37.863167 160.428696,44.465263 157.456802,49.976707 
	C155.402847,53.785820 155.582993,58.753441 151.500000,61.500000 
"/>
<path fill="none" opacity="1.000000" stroke="#000000" stroke-linecap="round" stroke-linejoin="round" stroke-width="4.000000"
	d="
M228.500000,56.500000 
	C224.763672,49.467892 223.887711,41.265633 219.704208,33.753540 
	C215.822876,37.861649 215.055344,42.724422 213.709763,47.065025 
	C212.766098,50.109158 211.010513,52.826527 210.419342,55.984901 
	C210.336502,56.427513 209.166672,56.666664 208.500000,56.999996 
"/>
<path fill="none" opacity="1.000000" stroke="#000000" stroke-linecap="round" stroke-linejoin="round" stroke-width="5.000000"
	d="
M147.000000,56.000000 
	C147.000000,53.166668 146.858551,50.324123 147.042236,47.502750 
	C147.205795,44.990498 146.931900,42.512192 144.455612,41.623722 
	C142.587891,40.953609 140.372162,41.353622 138.936447,43.456608 
	C138.516296,44.072021 137.333328,44.166668 136.500000,44.500000 
"/>
<path fill="none" opacity="1.000000" stroke="#000000" stroke-linecap="round" stroke-linejoin="round" stroke-width="5.000000"
	d="
M65.500000,33.500000 
	C66.833336,33.500000 68.171524,33.427185 69.498947,33.515804 
	C71.943367,33.678986 73.120003,34.815525 73.050499,37.501308 
	C72.891006,43.663849 73.000000,49.833332 73.000000,56.000000 
"/>
<path fill="none" opacity="1.000000" stroke="#000000" stroke-linecap="round" stroke-linejoin="round" stroke-width="4.000000"
	d="
M45.500000,41.000000 
	C49.665218,42.611916 48.710861,47.064877 50.473091,50.016068 
	C51.636677,51.964714 51.317417,54.730843 53.750000,56.000000 
"/>
<path fill="none" opacity="1.000000" stroke="#000000" stroke-linecap="round" stroke-linejoin="round" stroke-width="4.000000"
	d="
M128.000000,43.500000 
	C125.333336,39.119148 122.545197,41.906853 120.032524,43.549747 
	C117.253036,45.367092 116.337486,50.405460 118.000000,53.000000 
	C120.337097,56.647305 124.646645,57.293739 128.000000,54.500000 
"/>
<path fill="none" opacity="1.000000" stroke="#000000" stroke-linecap="round" stroke-linejoin="round" stroke-width="3.000000"
	d="
M60.500000,41.500000 
	C58.166668,47.166668 55.679974,52.776382 53.547901,58.517788 
	C51.802151,63.218876 49.947140,64.692505 45.500000,64.000000 
"/>
<path fill="none" opacity="1.000000" stroke="#000000" stroke-linecap="round" stroke-linejoin="round" stroke-width="4.000000"
	d="
M177.000000,46.000000 
	C174.829681,48.351887 173.437225,51.172497 171.912369,53.951923 
	C171.031036,55.558376 169.707947,57.243549 167.500000,57.500000 
"/>
<path fill="none" opacity="1.000000" stroke="#000000" stroke-linecap="round" stroke-linejoin="round" stroke-width="4.000000"
	d="
M135.500000,32.500000 
	C135.500000,40.500000 135.500000,48.500000 135.500000,56.500000 
"/>
<path fill="none" opacity="1.000000" stroke="#000000" stroke-linecap="round" stroke-linejoin="round" stroke-width="4.000000"
	d="
M105.500000,41.500000 
	C105.500000,46.500000 105.500000,51.500000 105.500000,56.500000 
"/>
<path fill="none" opacity="1.000000" stroke="#000000" stroke-linecap="round" stroke-linejoin="round" stroke-width="4.000000"
	d="
M170.500000,33.500000 
	C173.582458,36.433086 174.135864,40.931767 177.000000,44.000000 
"/>
<path fill="none" opacity="1.000000" stroke="#000000" stroke-linecap="round" stroke-linejoin="round" stroke-width="4.000000"
	d="
M185.500000,33.500000 
	C182.438049,36.251392 181.943069,40.671333 179.000000,43.500000 
"/>
<path fill="none" opacity="1.000000" stroke="#000000" stroke-linecap="round" stroke-linejoin="round" stroke-width="4.000000"
	d="
M179.000000,46.499996 
	C181.166672,49.833332 183.333344,53.166664 185.500000,56.499996 
"/>
<path fill="none" opacity="1.000000" stroke="#000000" stroke-linecap="round" stroke-linejoin="round" stroke-width="4.000000"
	d="
M214.000000,49.000000 
	C217.333328,49.792431 220.666672,49.792431 224.000000,49.000000 
"/>
<path fill="none" opacity="1.000000" stroke="#000000" stroke-linecap="round" stroke-linejoin="round" stroke-width="4.000000"
	d="
M80.500000,33.500000 
	C77.995956,33.802998 75.306473,32.715233 73.000000,34.500000 
"/>
<path fill="none" opacity="1.000000" stroke="#000000" stroke-linecap="round" stroke-linejoin="round" stroke-width="4.000000"
	d="
M88.500000,41.500000 
	C82.565132,44.988125 80.889496,51.118404 85.015297,54.481232 
	C87.194771,56.257656 89.569939,57.225311 92.514709,56.036438 
	C96.018913,54.621700 97.076981,52.024830 97.039444,48.499580 
	C97.007576,45.506542 96.375824,43.453316 93.066910,42.306889 
	C91.660477,41.819614 90.366318,41.701382 89.000000,41.500000 
"/>
</svg>