<svg version="1.1" id="Layer_1" xmlns="http://www.w3.org/2000/svg" xmlns:xlink="http://www.w3.org/1999/xlink" x="0px" y="0px"
	 width="100%" viewBox="0 0 4726 1478" enable-background="new 0 0 4726 1478" xml:space="preserve">
<path fill="#FFFFFF" opacity="1.000000" stroke="none" 
	d="
M3844.000000,1480.000000 
	C2859.930176,1480.000000 1875.860352,1480.000000 890.742676,1479.087891 
	C889.685669,1477.176514 889.668457,1476.177124 889.668457,1475.177734 
	C889.666992,987.108337 889.666077,499.038971 889.680176,10.969597 
	C889.680237,7.979729 889.888794,4.989866 890.000000,2.000000 
	C1874.069824,2.000000 2858.139648,2.000000 3842.952637,2.912152 
	C3843.686523,4.823776 3843.669434,5.823248 3843.669434,6.822719 
	C3843.667969,494.891907 3843.666992,982.961060 3843.681152,1471.030273 
	C3843.681152,1474.020142 3843.889160,1477.010132 3844.000000,1480.000000 
M2664.129639,962.147278 
	C2630.091064,912.621582 2596.052246,863.095886 2561.835938,813.311951 
	C2567.259033,811.263672 2572.511719,809.546021 2577.547607,807.334351 
	C2610.956543,792.661377 2635.470703,769.078491 2649.699219,735.167175 
	C2655.903320,720.380310 2658.388428,704.793335 2659.939941,689.022522 
	C2660.843994,679.834045 2661.395996,670.588379 2661.558594,661.358765 
	C2661.644775,656.477173 2660.454102,651.584229 2660.019531,646.680481 
	C2656.236328,604.011047 2637.467041,570.011963 2601.310303,546.437134 
	C2570.598877,526.412781 2536.008301,518.437256 2500.020996,517.902222 
	C2440.730225,517.020630 2381.416504,517.652710 2322.112549,517.699524 
	C2319.621582,517.701477 2317.131104,518.236389 2314.875977,518.495972 
	C2314.875977,667.804688 2314.875977,816.260559 2314.875977,965.038086 
	C2332.203857,965.038086 2348.977783,965.038086 2366.734375,965.038086 
	C2366.734375,917.936951 2366.734375,871.464783 2366.734375,824.337341 
	C2383.994873,824.337341 2400.272949,824.410706 2416.550049,824.321472 
	C2446.520752,824.157166 2476.493896,824.068176 2506.458984,823.534973 
	C2512.545898,823.426697 2516.065430,825.470886 2519.283936,830.490417 
	C2542.444580,866.612244 2565.845947,902.580017 2589.215576,938.567627 
	C2595.153076,947.710388 2601.250732,956.748962 2606.991455,965.407959 
	C2626.531006,965.407959 2645.176514,965.407959 2664.857422,965.722351 
	C2664.730713,964.972900 2664.604004,964.223450 2664.129639,962.147278 
M1615.608643,863.781128 
	C1633.443237,869.373108 1651.940918,870.367615 1669.990601,867.410400 
	C1716.761108,859.747803 1750.281860,834.026245 1769.168335,790.121277 
	C1771.623413,784.414124 1773.458496,778.440308 1775.509277,772.786865 
	C1806.360962,772.786865 1836.611572,772.786865 1866.442139,772.786865 
	C1871.171387,784.357239 1875.678223,795.383545 1879.561890,804.885193 
	C1824.373779,860.071777 1769.781250,914.662659 1714.956665,969.485718 
	C1642.701904,931.892395 1574.180664,964.848022 1544.233643,1011.910828 
	C1511.506836,1063.342163 1519.212280,1130.700073 1564.014160,1173.590698 
	C1606.241333,1214.016479 1674.686646,1219.656982 1723.254883,1186.218994 
	C1748.056030,1169.144287 1765.286743,1146.215454 1773.500977,1117.475342 
	C1783.502319,1082.482544 1779.765259,1048.403076 1762.700439,1018.099609 
	C1818.265259,962.539185 1873.085938,907.722839 1928.139893,852.673096 
	C1978.465454,880.825378 2044.288452,872.366699 2085.831543,826.735962 
	C2124.859131,783.867981 2129.173340,716.833679 2095.655029,668.825134 
	C2079.108643,645.125671 2056.873535,628.605286 2029.268921,620.054504 
	C1993.547241,608.989441 1959.115479,613.394592 1927.177368,630.682129 
	C1871.962158,575.442566 1817.345947,520.802368 1762.553711,465.986023 
	C1797.224854,399.643616 1772.682251,333.280090 1727.987305,300.144318 
	C1678.101929,263.160461 1610.568604,266.938232 1565.471069,308.110168 
	C1521.191040,348.535858 1510.720947,414.401947 1542.203125,467.709290 
	C1556.697754,492.252228 1577.659424,509.942780 1604.237793,520.400208 
	C1642.817261,535.579529 1680.330688,531.800049 1714.500366,513.197876 
	C1770.084351,568.783508 1824.687744,623.388489 1879.542847,678.245300 
	C1875.467163,688.117798 1870.944214,699.073486 1866.497192,709.845337 
	C1835.748047,709.845337 1805.496704,709.845337 1775.386597,709.845337 
	C1755.618042,643.726318 1704.083496,617.492249 1659.894287,614.347961 
	C1608.499756,610.691101 1548.121948,639.931335 1527.266724,709.959167 
	C1497.101318,709.959167 1466.833374,709.959167 1435.902954,709.959167 
	C1426.874878,677.533142 1408.557251,651.645081 1380.094727,633.644653 
	C1351.565796,615.602295 1320.238403,610.089111 1287.259033,616.619629 
	C1234.596069,627.047791 1186.580933,669.846497 1184.844360,739.973328 
	C1183.517456,793.561646 1215.253418,844.432983 1274.669312,863.192261 
	C1302.760986,872.061707 1331.322876,871.031006 1358.807617,860.055298 
	C1399.183105,843.931824 1424.116333,813.447510 1436.319702,772.611084 
	C1467.320068,772.611084 1497.278687,772.611084 1527.516968,772.611084 
	C1541.020630,817.590332 1569.048462,848.591064 1615.608643,863.781128 
M2796.792969,787.830505 
	C2770.394775,846.805725 2743.996582,905.781006 2717.335205,965.344116 
	C2736.833008,965.344116 2754.776367,965.344116 2772.894775,965.344116 
	C2789.598877,927.548218 2806.208740,889.965515 2822.693604,852.665527 
	C2904.290771,852.665527 2984.851562,852.665527 3065.839355,852.665527 
	C3082.509766,890.381958 3099.132568,927.990234 3115.615479,965.282593 
	C3134.733398,965.282593 3152.928223,965.282593 3172.523438,965.282593 
	C3105.512939,815.427551 3038.884766,666.427734 2972.546875,518.076477 
	C2953.452881,518.076477 2935.877686,518.076477 2917.827881,518.076477 
	C2877.687012,607.668762 2837.621338,697.093079 2796.792969,787.830505 
M3206.261475,608.695923 
	C3245.102783,674.964539 3283.915527,741.249756 3322.846436,807.465637 
	C3325.502441,811.983276 3326.394531,816.545532 3326.382324,821.681335 
	C3326.277344,866.010498 3326.313477,910.339966 3326.338379,954.669373 
	C3326.340332,958.186829 3326.571045,961.704102 3326.693359,965.156982 
	C3344.400146,965.156982 3360.935547,965.156982 3378.343018,965.156982 
	C3378.343018,961.050293 3378.343018,957.459656 3378.343018,953.869080 
	C3378.343018,909.206421 3378.424316,864.543335 3378.239990,819.881470 
	C3378.217041,814.328308 3379.438232,809.608032 3382.232910,804.853577 
	C3395.711914,781.921265 3408.968994,758.858521 3422.293457,735.835327 
	C3462.432129,666.480835 3502.567627,597.124573 3542.691650,527.761414 
	C3544.437744,524.742981 3546.054688,521.649597 3548.107910,517.905273 
	C3529.405273,517.905273 3512.104736,517.905273 3494.392334,517.905273 
	C3447.163818,594.808838 3399.931641,671.718506 3352.007324,749.755005 
	C3303.295166,671.452698 3255.545166,594.697266 3207.880127,518.078125 
	C3189.843994,518.078125 3172.328857,518.078125 3153.377441,518.078125 
	C3171.137451,548.476990 3188.352051,577.942078 3206.261475,608.695923 
z"/>
<path fill="#000000" opacity="1.000000" stroke="none" 
	d="
M889.077515,2.000000 
	C889.888794,4.989866 889.680237,7.979729 889.680176,10.969597 
	C889.666077,499.038971 889.666992,987.108337 889.668457,1475.177734 
	C889.668457,1476.177124 889.685669,1477.176514 889.847412,1479.087891 
	C594.076843,1480.000000 298.153748,1480.000000 2.115306,1480.000000 
	C2.115306,987.538147 2.115306,495.076294 2.115306,2.000000 
	C297.384705,2.000000 592.769836,2.000000 889.077515,2.000000 
z"/>
<path fill="#000000" opacity="1.000000" stroke="none" 
	d="
M3844.922363,1480.000000 
	C3843.889160,1477.010132 3843.681152,1474.020142 3843.681152,1471.030273 
	C3843.666992,982.961060 3843.667969,494.891907 3843.669434,6.822719 
	C3843.669434,5.823248 3843.686523,4.823776 3843.847656,2.912152 
	C4138.589844,2.000000 4433.179688,2.000000 4727.884766,2.000000 
	C4727.884766,494.461578 4727.884766,986.923157 4727.884766,1480.000000 
	C4433.948730,1480.000000 4139.896973,1480.000000 3844.922363,1480.000000 
z"/>
<path fill="#02A3E9" opacity="1.000000" stroke="none" 
	d="
M1614.850098,863.506836 
	C1569.048462,848.591064 1541.020630,817.590332 1527.516968,772.611084 
	C1497.278687,772.611084 1467.320068,772.611084 1436.319702,772.611084 
	C1424.116333,813.447510 1399.183105,843.931824 1358.807617,860.055298 
	C1331.322876,871.031006 1302.760986,872.061707 1274.669312,863.192261 
	C1215.253418,844.432983 1183.517456,793.561646 1184.844360,739.973328 
	C1186.580933,669.846497 1234.596069,627.047791 1287.259033,616.619629 
	C1320.238403,610.089111 1351.565796,615.602295 1380.094727,633.644653 
	C1408.557251,651.645081 1426.874878,677.533142 1435.902954,709.959167 
	C1466.833374,709.959167 1497.101318,709.959167 1527.266724,709.959167 
	C1548.121948,639.931335 1608.499756,610.691101 1659.894287,614.347961 
	C1704.083496,617.492249 1755.618042,643.726318 1775.386597,709.845337 
	C1805.496704,709.845337 1835.748047,709.845337 1866.497192,709.845337 
	C1870.944214,699.073486 1875.467163,688.117798 1879.542847,678.245300 
	C1824.687744,623.388489 1770.084351,568.783508 1714.500366,513.197876 
	C1680.330688,531.800049 1642.817261,535.579529 1604.237793,520.400208 
	C1577.659424,509.942780 1556.697754,492.252228 1542.203125,467.709290 
	C1510.720947,414.401947 1521.191040,348.535858 1565.471069,308.110168 
	C1610.568604,266.938232 1678.101929,263.160461 1727.987305,300.144318 
	C1772.682251,333.280090 1797.224854,399.643616 1762.553711,465.986023 
	C1817.345947,520.802368 1871.962158,575.442566 1927.177368,630.682129 
	C1959.115479,613.394592 1993.547241,608.989441 2029.268921,620.054504 
	C2056.873535,628.605286 2079.108643,645.125671 2095.655029,668.825134 
	C2129.173340,716.833679 2124.859131,783.867981 2085.831543,826.735962 
	C2044.288452,872.366699 1978.465454,880.825378 1928.139893,852.673096 
	C1873.085938,907.722839 1818.265259,962.539185 1762.700439,1018.099609 
	C1779.765259,1048.403076 1783.502319,1082.482544 1773.500977,1117.475342 
	C1765.286743,1146.215454 1748.056030,1169.144287 1723.254883,1186.218994 
	C1674.686646,1219.656982 1606.241333,1214.016479 1564.014160,1173.590698 
	C1519.212280,1130.700073 1511.506836,1063.342163 1544.233643,1011.910828 
	C1574.180664,964.848022 1642.701904,931.892395 1714.956665,969.485718 
	C1769.781250,914.662659 1824.373779,860.071777 1879.561890,804.885193 
	C1875.678223,795.383545 1871.171387,784.357239 1866.442139,772.786865 
	C1836.611572,772.786865 1806.360962,772.786865 1775.509277,772.786865 
	C1773.458496,778.440308 1771.623413,784.414124 1769.168335,790.121277 
	C1750.281860,834.026245 1716.761108,859.747803 1669.990601,867.410400 
	C1651.940918,870.367615 1633.443237,869.373108 1614.850098,863.506836 
M1928.014893,727.603455 
	C1924.592773,741.356934 1926.314209,754.656494 1932.079468,767.401306 
	C1944.537598,794.940979 1972.054688,809.415894 2000.260620,805.209656 
	C2035.472168,799.958740 2060.458984,766.427856 2054.220947,730.686218 
	C2048.223877,696.326660 2014.323486,669.312622 1974.561401,679.550720 
	C1950.246338,685.811401 1935.513306,702.325500 1928.014893,727.603455 
M1681.953979,1137.286743 
	C1687.277222,1133.350098 1693.258301,1130.052368 1697.810181,1125.366455 
	C1717.604248,1104.989990 1721.232788,1075.106812 1707.749390,1049.823608 
	C1695.348389,1026.569580 1666.319458,1012.030884 1639.536743,1017.632263 
	C1605.469482,1024.757202 1580.622925,1056.832031 1589.026123,1095.516113 
	C1597.308960,1133.645630 1642.144043,1158.251587 1681.953979,1137.286743 
M1316.452148,805.680481 
	C1339.202026,803.459900 1357.048096,792.986816 1368.142090,772.908081 
	C1393.919312,726.254089 1356.692383,676.504517 1311.273560,677.304810 
	C1276.381958,677.919617 1244.596680,709.438293 1248.134033,747.217651 
	C1251.162109,779.558044 1279.425903,807.325256 1316.452148,805.680481 
M1679.975708,344.725342 
	C1647.251831,327.698425 1608.229004,343.652222 1593.723022,374.196320 
	C1579.331543,404.499695 1589.436646,442.840240 1623.333862,459.871063 
	C1654.121094,475.339325 1691.640747,462.709656 1708.137573,432.493988 
	C1725.071777,401.477142 1712.564331,361.063416 1679.975708,344.725342 
M1613.181519,690.032776 
	C1596.488770,703.542603 1587.827148,720.456909 1587.411255,742.501160 
	C1586.900879,769.541504 1608.871216,801.813904 1645.163086,805.577576 
	C1674.927612,808.664307 1702.816040,790.239075 1712.452759,761.779785 
	C1721.900269,733.879944 1711.136841,702.633911 1685.575439,687.210999 
	C1661.759277,672.841064 1637.671631,673.803162 1613.181519,690.032776 
z"/>
<path fill="#342D2C" opacity="1.000000" stroke="none" 
	d="
M2663.822021,965.407959 
	C2645.176514,965.407959 2626.531006,965.407959 2606.991455,965.407959 
	C2601.250732,956.748962 2595.153076,947.710388 2589.215576,938.567627 
	C2565.845947,902.580017 2542.444580,866.612244 2519.283936,830.490417 
	C2516.065430,825.470886 2512.545898,823.426697 2506.458984,823.534973 
	C2476.493896,824.068176 2446.520752,824.157166 2416.550049,824.321472 
	C2400.272949,824.410706 2383.994873,824.337341 2366.734375,824.337341 
	C2366.734375,871.464783 2366.734375,917.936951 2366.734375,965.038086 
	C2348.977783,965.038086 2332.203857,965.038086 2314.875977,965.038086 
	C2314.875977,816.260559 2314.875977,667.804688 2314.875977,518.495972 
	C2317.131104,518.236389 2319.621582,517.701477 2322.112549,517.699524 
	C2381.416504,517.652710 2440.730225,517.020630 2500.020996,517.902222 
	C2536.008301,518.437256 2570.598877,526.412781 2601.310303,546.437134 
	C2637.467041,570.011963 2656.236328,604.011047 2660.019531,646.680481 
	C2660.454102,651.584229 2661.644775,656.477173 2661.558594,661.358765 
	C2661.395996,670.588379 2660.843994,679.834045 2659.939941,689.022522 
	C2658.388428,704.793335 2655.903320,720.380310 2649.699219,735.167175 
	C2635.470703,769.078491 2610.956543,792.661377 2577.547607,807.334351 
	C2572.511719,809.546021 2567.259033,811.263672 2561.835938,813.311951 
	C2596.052246,863.095886 2630.091064,912.621582 2664.026855,963.256348 
	C2663.889648,964.712952 2663.855713,965.060486 2663.822021,965.407959 
M2556.518311,580.238403 
	C2545.352783,576.025696 2533.897949,573.537415 2522.098877,571.303406 
	C2507.611572,568.560425 2493.341309,567.736267 2478.840088,567.700378 
	C2445.180664,567.617065 2411.520752,567.673767 2377.861084,567.673767 
	C2374.300537,567.673767 2370.739990,567.673828 2366.779297,567.673828 
	C2366.779297,636.933655 2366.779297,705.087158 2366.779297,773.807678 
	C2369.749023,773.997498 2372.318359,774.302734 2374.887939,774.304810 
	C2412.546875,774.335571 2450.205811,774.389343 2487.864502,774.296936 
	C2504.700684,774.255615 2521.350586,772.134338 2537.575684,767.710999 
	C2559.570557,761.714600 2579.300049,751.509277 2592.741211,732.383362 
	C2613.869873,702.318359 2615.471680,669.086792 2606.211426,634.804321 
	C2599.227051,608.947754 2581.423340,592.189087 2556.518311,580.238403 
z"/>
<path fill="#352E2D" opacity="1.000000" stroke="none" 
	d="
M2797.174316,787.173950 
	C2837.621338,697.093079 2877.687012,607.668762 2917.827881,518.076477 
	C2935.877686,518.076477 2953.452881,518.076477 2972.546875,518.076477 
	C3038.884766,666.427734 3105.512939,815.427551 3172.523438,965.282593 
	C3152.928223,965.282593 3134.733398,965.282593 3115.615479,965.282593 
	C3099.132568,927.990234 3082.509766,890.381958 3065.839355,852.665527 
	C2984.851562,852.665527 2904.290771,852.665527 2822.693604,852.665527 
	C2806.208740,889.965515 2789.598877,927.548218 2772.894775,965.344116 
	C2754.776367,965.344116 2736.833008,965.344116 2717.335205,965.344116 
	C2743.996582,905.781006 2770.394775,846.805725 2797.174316,787.173950 
M3031.127197,773.907227 
	C3002.517578,709.761047 2973.908203,645.614929 2945.171387,581.183655 
	C2943.097656,582.297058 2941.797363,582.538574 2941.495117,583.221924 
	C2909.396973,655.740417 2877.374268,728.292114 2844.993652,801.642090 
	C2911.587891,801.642090 2976.865723,801.642090 3041.954346,801.642090 
	C3042.228516,800.637512 3042.481201,800.247009 3042.379150,800.008728 
	C3038.844482,791.768127 3035.276367,783.541931 3031.127197,773.907227 
z"/>
<path fill="#352E2D" opacity="1.000000" stroke="none" 
	d="
M3205.914062,608.051514 
	C3188.352051,577.942078 3171.137451,548.476990 3153.377441,518.078125 
	C3172.328857,518.078125 3189.843994,518.078125 3207.880127,518.078125 
	C3255.545166,594.697266 3303.295166,671.452698 3352.007324,749.755005 
	C3399.931641,671.718506 3447.163818,594.808838 3494.392334,517.905273 
	C3512.104736,517.905273 3529.405273,517.905273 3548.107910,517.905273 
	C3546.054688,521.649597 3544.437744,524.742981 3542.691650,527.761414 
	C3502.567627,597.124573 3462.432129,666.480835 3422.293457,735.835327 
	C3408.968994,758.858521 3395.711914,781.921265 3382.232910,804.853577 
	C3379.438232,809.608032 3378.217041,814.328308 3378.239990,819.881470 
	C3378.424316,864.543335 3378.343018,909.206421 3378.343018,953.869080 
	C3378.343018,957.459656 3378.343018,961.050293 3378.343018,965.156982 
	C3360.935547,965.156982 3344.400146,965.156982 3326.693359,965.156982 
	C3326.571045,961.704102 3326.340332,958.186829 3326.338379,954.669373 
	C3326.313477,910.339966 3326.277344,866.010498 3326.382324,821.681335 
	C3326.394531,816.545532 3325.502441,811.983276 3322.846436,807.465637 
	C3283.915527,741.249756 3245.102783,674.964539 3205.914062,608.051514 
z"/>
<path fill="#696363" opacity="1.000000" stroke="none" 
	d="
M2664.339844,965.565186 
	C2663.855713,965.060486 2663.889648,964.712952 2664.200439,963.919678 
	C2664.604004,964.223450 2664.730713,964.972900 2664.339844,965.565186 
z"/>
<path fill="#FDFEFF" opacity="1.000000" stroke="none" 
	d="
M1928.148682,726.787964 
	C1935.513306,702.325500 1950.246338,685.811401 1974.561401,679.550720 
	C2014.323486,669.312622 2048.223877,696.326660 2054.220947,730.686218 
	C2060.458984,766.427856 2035.472168,799.958740 2000.260620,805.209656 
	C1972.054688,809.415894 1944.537598,794.940979 1932.079468,767.401306 
	C1926.314209,754.656494 1924.592773,741.356934 1928.148682,726.787964 
z"/>
<path fill="#FDFEFF" opacity="1.000000" stroke="none" 
	d="
M1681.276855,1137.612793 
	C1642.144043,1158.251587 1597.308960,1133.645630 1589.026123,1095.516113 
	C1580.622925,1056.832031 1605.469482,1024.757202 1639.536743,1017.632263 
	C1666.319458,1012.030884 1695.348389,1026.569580 1707.749390,1049.823608 
	C1721.232788,1075.106812 1717.604248,1104.989990 1697.810181,1125.366455 
	C1693.258301,1130.052368 1687.277222,1133.350098 1681.276855,1137.612793 
z"/>
<path fill="#FDFEFF" opacity="1.000000" stroke="none" 
	d="
M1315.564575,805.681274 
	C1279.425903,807.325256 1251.162109,779.558044 1248.134033,747.217651 
	C1244.596680,709.438293 1276.381958,677.919617 1311.273560,677.304810 
	C1356.692383,676.504517 1393.919312,726.254089 1368.142090,772.908081 
	C1357.048096,792.986816 1339.202026,803.459900 1315.564575,805.681274 
z"/>
<path fill="#FDFEFF" opacity="1.000000" stroke="none" 
	d="
M1680.625244,345.104340 
	C1712.564331,361.063416 1725.071777,401.477142 1708.137573,432.493988 
	C1691.640747,462.709656 1654.121094,475.339325 1623.333862,459.871063 
	C1589.436646,442.840240 1579.331543,404.499695 1593.723022,374.196320 
	C1608.229004,343.652222 1647.251831,327.698425 1680.625244,345.104340 
z"/>
<path fill="#FDFEFF" opacity="1.000000" stroke="none" 
	d="
M1613.745850,689.579834 
	C1637.671631,673.803162 1661.759277,672.841064 1685.575439,687.210999 
	C1711.136841,702.633911 1721.900269,733.879944 1712.452759,761.779785 
	C1702.816040,790.239075 1674.927612,808.664307 1645.163086,805.577576 
	C1608.871216,801.813904 1586.900879,769.541504 1587.411255,742.501160 
	C1587.827148,720.456909 1596.488770,703.542603 1613.745850,689.579834 
z"/>
<path fill="#FFFFFF" opacity="1.000000" stroke="none" 
	d="
M2557.227051,580.514404 
	C2581.423340,592.189087 2599.227051,608.947754 2606.211426,634.804321 
	C2615.471680,669.086792 2613.869873,702.318359 2592.741211,732.383362 
	C2579.300049,751.509277 2559.570557,761.714600 2537.575684,767.710999 
	C2521.350586,772.134338 2504.700684,774.255615 2487.864502,774.296936 
	C2450.205811,774.389343 2412.546875,774.335571 2374.887939,774.304810 
	C2372.318359,774.302734 2369.749023,773.997498 2366.779297,773.807678 
	C2366.779297,705.087158 2366.779297,636.933655 2366.779297,567.673828 
	C2370.739990,567.673828 2374.300537,567.673767 2377.861084,567.673767 
	C2411.520752,567.673767 2445.180664,567.617065 2478.840088,567.700378 
	C2493.341309,567.736267 2507.611572,568.560425 2522.098877,571.303406 
	C2533.897949,573.537415 2545.352783,576.025696 2557.227051,580.514404 
z"/>
<path fill="#FEFEFE" opacity="1.000000" stroke="none" 
	d="
M3031.420166,774.610474 
	C3035.276367,783.541931 3038.844482,791.768127 3042.379150,800.008728 
	C3042.481201,800.247009 3042.228516,800.637512 3041.954346,801.642090 
	C2976.865723,801.642090 2911.587891,801.642090 2844.993652,801.642090 
	C2877.374268,728.292114 2909.396973,655.740417 2941.495117,583.221924 
	C2941.797363,582.538574 2943.097656,582.297058 2945.171387,581.183655 
	C2973.908203,645.614929 3002.517578,709.761047 3031.420166,774.610474 
z"/>
</svg>