<svg version="1.1" id="Layer_1" xmlns="http://www.w3.org/2000/svg" xmlns:xlink="http://www.w3.org/1999/xlink" x="0px" y="0px"
	 width="100%" viewBox="0 0 293 79" enable-background="new 0 0 293 79" xml:space="preserve">
<path fill="#FEFEFE" opacity="1.000000" stroke="none" 
	d="
M284.070953,80.000000 
	C189.397156,80.000000 95.232895,80.000000 1.034321,80.000000 
	C1.034321,53.690258 1.034321,27.380463 1.034321,1.035333 
	C98.640594,1.035333 196.281204,1.035333 293.960907,1.035333 
	C293.960907,27.306553 293.960907,53.613174 293.960907,80.000000 
	C290.860382,80.000000 287.720459,80.000000 284.070953,80.000000 
M49.109886,60.263611 
	C49.206257,60.300869 49.302624,60.338123 49.398994,60.375381 
	C49.246387,60.268780 49.093777,60.162178 49.194553,59.256599 
	C48.791756,57.358879 48.388954,55.461159 47.955307,53.418095 
	C52.429558,52.898861 56.553707,52.420258 61.844952,51.806210 
	C57.143600,48.839897 53.578831,46.590706 49.764309,44.183933 
	C52.502628,41.141560 54.895161,38.483364 58.189247,34.823513 
	C52.787971,36.018185 48.824665,36.894802 44.642647,37.819794 
	C44.261444,35.353252 43.949657,33.335876 43.534904,30.652227 
	C41.518818,32.812881 39.982281,34.459602 38.169231,36.402660 
	C34.248528,33.546398 30.380468,30.728487 26.512409,27.910578 
	C26.288786,28.145926 26.065161,28.381273 25.841536,28.616623 
	C27.364639,32.908276 28.887743,37.199932 30.482199,41.692635 
	C27.715326,42.591526 25.380201,43.350155 22.425030,44.310219 
	C24.882631,45.478569 26.770130,46.375889 28.876211,47.377125 
	C26.439363,50.015446 24.135798,52.509464 21.136063,55.757214 
	C25.731689,54.885128 29.202110,54.226570 32.916817,53.521652 
	C34.220581,59.088360 35.424896,64.230431 36.910805,70.574829 
	C39.274101,65.050957 41.061764,60.872547 42.843918,56.707008 
	C45.287098,57.995239 47.153099,58.979134 49.109886,60.263611 
M180.693634,58.685043 
	C184.562195,64.824272 187.624161,65.460548 194.060822,62.043449 
	C196.356110,62.974091 198.130692,63.693607 200.297638,64.572212 
	C200.297638,53.097664 200.297638,42.681011 200.297638,31.918257 
	C198.622314,32.059547 197.257202,32.174675 195.537354,32.319717 
	C195.537354,36.326347 195.537354,39.934643 195.537354,43.652950 
	C186.461975,40.865894 181.447083,42.942635 180.191025,50.079361 
	C179.744156,52.618366 180.315506,55.336578 180.693634,58.685043 
M126.521194,43.850021 
	C122.130211,40.533447 118.166893,41.923847 115.363228,44.327438 
	C113.121681,43.261948 111.460869,42.472500 109.275162,41.433556 
	C109.275162,53.001568 109.275162,63.254028 109.275162,73.676071 
	C110.808647,73.676071 112.145828,73.676071 113.847092,73.676071 
	C113.847092,69.414398 113.847092,65.505424 113.847092,61.404659 
	C121.796349,65.891312 128.360886,63.568310 129.330811,55.599060 
	C129.768265,52.004761 127.902130,48.130093 126.521194,43.850021 
M99.721588,62.474472 
	C105.319183,57.937794 105.296822,52.715183 99.494484,48.713612 
	C97.325943,47.218082 94.663689,46.411865 92.585014,44.822517 
	C91.324615,43.858826 89.867920,41.824608 90.109955,40.586060 
	C90.366318,39.274193 92.422371,37.611084 93.886154,37.391167 
	C96.554596,36.990269 99.366089,37.541595 102.235176,37.702229 
	C103.368858,34.806408 101.934731,33.277191 99.109390,33.241478 
	C96.173431,33.204376 92.918999,33.069927 90.383446,34.237152 
	C88.145958,35.267162 85.485504,37.894745 85.241447,40.067375 
	C84.969421,42.488995 86.697746,45.669460 88.510941,47.640587 
	C90.315285,49.602070 93.502747,50.216988 95.703812,51.914883 
	C97.083618,52.979263 98.917091,55.478855 98.497154,56.400356 
	C97.786499,57.959778 95.512657,59.598137 93.787628,59.724560 
	C90.971634,59.930935 88.068535,58.948704 85.110458,58.452568 
	C84.187927,61.178616 84.814438,63.252754 88.276413,63.282036 
	C91.855698,63.312313 95.437836,63.006775 99.721588,62.474472 
M134.741287,58.324554 
	C138.040833,63.484695 142.185928,65.220879 147.807602,63.363674 
	C149.308929,62.867680 150.458817,61.307869 151.770050,60.236458 
	C151.479446,59.895462 151.188858,59.554466 150.898270,59.213470 
	C142.391785,61.339939 139.417587,60.133419 139.168137,53.944221 
	C143.757355,53.944221 148.327988,53.944221 152.936371,53.944221 
	C153.132614,48.824600 152.334229,44.759109 147.474564,42.743000 
	C143.443771,41.070759 139.880066,42.108978 136.945526,44.998474 
	C133.351898,48.536945 133.250061,52.972084 134.741287,58.324554 
M173.823410,59.104885 
	C171.899353,59.450413 169.983948,60.018791 168.049377,60.094093 
	C164.271561,60.241146 161.715866,58.854671 161.945221,53.940689 
	C166.790649,53.940689 171.343536,53.940689 175.871780,53.940689 
	C175.958466,45.892605 172.657761,41.775665 166.691925,41.979458 
	C161.037170,42.172630 156.889450,46.786720 156.815857,52.965977 
	C156.737305,59.561226 160.280273,63.960300 166.340134,63.892174 
	C169.357056,63.858261 173.794540,65.163109 173.823410,59.104885 
M248.786118,54.205669 
	C252.074875,54.205669 255.363632,54.205669 258.585602,54.205669 
	C259.286011,46.628452 256.286377,42.313633 250.498413,41.987423 
	C244.501816,41.649448 239.791260,46.600632 239.815170,53.216362 
	C239.840256,60.158348 244.024780,64.504890 250.640442,63.919785 
	C253.390289,63.676579 257.460876,64.155106 257.320404,59.764030 
	C253.799118,59.764030 250.793564,60.185001 248.012527,59.577721 
	C246.717438,59.294922 245.857834,57.017864 244.800827,55.644775 
	C245.821823,55.165188 246.842819,54.685596 248.786118,54.205669 
M209.831238,53.781181 
	C210.917206,54.196823 212.187119,54.386456 213.043869,55.083729 
	C214.185547,56.012878 215.005890,57.336857 215.964249,58.491238 
	C214.549149,59.137684 213.161636,60.228951 211.712006,60.318920 
	C209.865570,60.433521 207.968872,59.738003 205.833115,59.343563 
	C205.900574,60.533627 205.828583,62.312523 206.029053,62.343773 
	C209.167221,62.832966 212.505905,63.827236 215.448853,63.160995 
	C217.484039,62.700253 220.409424,59.834953 220.360733,58.117134 
	C220.300491,55.990730 217.725067,53.799911 215.954987,51.898823 
	C214.427078,50.257854 212.505341,48.983589 210.757721,47.547211 
	C213.292847,47.194347 215.827637,46.838902 218.363571,46.492004 
	C218.667526,46.450424 218.977814,46.455242 220.937408,46.348824 
	C219.129166,44.439976 218.221207,42.596252 216.972626,42.325970 
	C212.884399,41.440964 208.725418,41.955563 206.439301,45.945145 
	C204.667374,49.037411 206.107437,51.711937 209.831238,53.781181 
M236.715683,62.274212 
	C236.467743,61.555885 236.168137,60.197556 235.979401,60.212791 
	C231.205368,60.598160 231.632095,57.262470 231.613144,54.250370 
	C231.596710,51.634636 231.609726,49.018719 231.609726,46.490005 
	C236.434464,45.606598 236.434464,45.606598 236.215866,42.123100 
	C234.804016,41.997990 233.356354,41.869709 231.792740,41.731155 
	C231.666763,39.942848 231.552612,38.322571 231.438477,36.702297 
	C231.032562,36.393196 230.626648,36.084095 230.220749,35.774994 
	C227.953812,38.431129 225.645767,41.055321 223.505890,43.810143 
	C223.351486,44.008919 224.437561,45.149937 224.920715,45.870403 
	C225.606049,46.892323 226.728363,47.880562 226.846603,48.971760 
	C227.130829,51.594986 226.888947,54.270912 226.949966,56.923492 
	C227.097290,63.327293 230.136520,65.274216 236.715683,62.274212 
M267.954010,42.091827 
	C266.723145,42.146919 265.492279,42.202011 264.263489,42.257011 
	C264.263489,49.654953 264.263489,56.598648 264.263489,63.954712 
	C265.833435,63.885242 267.178131,63.825745 268.852692,63.751648 
	C268.852692,59.847229 268.694672,56.361691 268.897125,52.897221 
	C269.099304,49.438126 271.840698,45.952675 267.954010,42.091827 
z"/>
<path fill="#F83B37" opacity="1.000000" stroke="none" 
	d="
M49.019104,59.963032 
	C47.153099,58.979134 45.287098,57.995239 42.843918,56.707008 
	C41.061764,60.872547 39.274101,65.050957 36.910805,70.574829 
	C35.424896,64.230431 34.220581,59.088360 32.916817,53.521652 
	C29.202110,54.226570 25.731689,54.885128 21.136063,55.757214 
	C24.135798,52.509464 26.439363,50.015446 28.876211,47.377125 
	C26.770130,46.375889 24.882631,45.478569 22.425030,44.310219 
	C25.380201,43.350155 27.715326,42.591526 30.482199,41.692635 
	C28.887743,37.199932 27.364639,32.908276 25.841536,28.616623 
	C26.065161,28.381273 26.288786,28.145926 26.512409,27.910578 
	C30.380468,30.728487 34.248528,33.546398 38.169231,36.402660 
	C39.982281,34.459602 41.518818,32.812881 43.534904,30.652227 
	C43.949657,33.335876 44.261444,35.353252 44.642647,37.819794 
	C48.824665,36.894802 52.787971,36.018185 58.189247,34.823513 
	C54.895161,38.483364 52.502628,41.141560 49.764309,44.183933 
	C53.578831,46.590706 57.143600,48.839897 61.844952,51.806210 
	C56.553707,52.420258 52.429558,52.898861 47.955307,53.418095 
	C48.388954,55.461159 48.791756,57.358879 49.088627,59.634033 
	C48.982700,60.011467 49.019104,59.963032 49.019104,59.963032 
M44.920864,49.084904 
	C46.546947,48.989006 48.173031,48.893108 48.486549,48.874619 
	C46.065159,45.898438 43.391354,42.612011 41.091537,39.785267 
	C39.441608,39.979237 37.448971,40.213493 35.441879,40.449451 
	C31.707119,45.817997 35.811764,50.470997 38.343746,54.821274 
	C40.140022,53.184910 42.187000,51.320160 44.920864,49.084904 
z"/>
<path fill="#33373B" opacity="1.000000" stroke="none" 
	d="
M180.557861,58.329014 
	C180.315506,55.336578 179.744156,52.618366 180.191025,50.079361 
	C181.447083,42.942635 186.461975,40.865894 195.537354,43.652950 
	C195.537354,39.934643 195.537354,36.326347 195.537354,32.319717 
	C197.257202,32.174675 198.622314,32.059547 200.297638,31.918257 
	C200.297638,42.681011 200.297638,53.097664 200.297638,64.572212 
	C198.130692,63.693607 196.356110,62.974091 194.060822,62.043449 
	C187.624161,65.460548 184.562195,64.824272 180.557861,58.329014 
M184.551392,53.454391 
	C185.788376,55.586765 186.592834,58.332176 188.423172,59.623577 
	C189.536545,60.409122 193.600479,59.433174 193.960999,58.410301 
	C195.031311,55.373772 195.471085,51.837879 194.986633,48.676609 
	C194.810455,47.527004 191.307236,46.113331 189.364731,46.174622 
	C185.684296,46.290749 184.858902,49.445576 184.551392,53.454391 
z"/>
<path fill="#35393E" opacity="1.000000" stroke="none" 
	d="
M126.801170,44.116325 
	C127.902130,48.130093 129.768265,52.004761 129.330811,55.599060 
	C128.360886,63.568310 121.796349,65.891312 113.847092,61.404659 
	C113.847092,65.505424 113.847092,69.414398 113.847092,73.676071 
	C112.145828,73.676071 110.808647,73.676071 109.275162,73.676071 
	C109.275162,63.254028 109.275162,53.001568 109.275162,41.433556 
	C111.460869,42.472500 113.121681,43.261948 115.363228,44.327438 
	C118.166893,41.923847 122.130211,40.533447 126.801170,44.116325 
M125.059303,51.693508 
	C124.617302,47.498066 122.455734,45.303181 118.109917,46.103161 
	C114.667122,46.736912 112.995598,50.581245 113.821899,55.420883 
	C114.439514,59.038280 116.718163,60.570560 120.178001,60.018406 
	C124.388046,59.346527 124.852997,55.947063 125.059303,51.693508 
z"/>
<path fill="#2D3135" opacity="1.000000" stroke="none" 
	d="
M99.370155,62.661304 
	C95.437836,63.006775 91.855698,63.312313 88.276413,63.282036 
	C84.814438,63.252754 84.187927,61.178616 85.110458,58.452568 
	C88.068535,58.948704 90.971634,59.930935 93.787628,59.724560 
	C95.512657,59.598137 97.786499,57.959778 98.497154,56.400356 
	C98.917091,55.478855 97.083618,52.979263 95.703812,51.914883 
	C93.502747,50.216988 90.315285,49.602070 88.510941,47.640587 
	C86.697746,45.669460 84.969421,42.488995 85.241447,40.067375 
	C85.485504,37.894745 88.145958,35.267162 90.383446,34.237152 
	C92.918999,33.069927 96.173431,33.204376 99.109390,33.241478 
	C101.934731,33.277191 103.368858,34.806408 102.235176,37.702229 
	C99.366089,37.541595 96.554596,36.990269 93.886154,37.391167 
	C92.422371,37.611084 90.366318,39.274193 90.109955,40.586060 
	C89.867920,41.824608 91.324615,43.858826 92.585014,44.822517 
	C94.663689,46.411865 97.325943,47.218082 99.494484,48.713612 
	C105.296822,52.715183 105.319183,57.937794 99.370155,62.661304 
z"/>
<path fill="#2E3136" opacity="1.000000" stroke="none" 
	d="
M134.589386,57.946609 
	C133.250061,52.972084 133.351898,48.536945 136.945526,44.998474 
	C139.880066,42.108978 143.443771,41.070759 147.474564,42.743000 
	C152.334229,44.759109 153.132614,48.824600 152.936371,53.944221 
	C148.327988,53.944221 143.757355,53.944221 139.168137,53.944221 
	C139.417587,60.133419 142.391785,61.339939 150.898270,59.213470 
	C151.188858,59.554466 151.479446,59.895462 151.770050,60.236458 
	C150.458817,61.307869 149.308929,62.867680 147.807602,63.363674 
	C142.185928,65.220879 138.040833,63.484695 134.589386,57.946609 
M139.140701,50.769825 
	C142.221054,50.769825 145.301422,50.769825 148.381775,50.769825 
	C148.677475,50.379261 148.973175,49.988701 149.268875,49.598137 
	C147.643539,48.240589 145.812500,45.605156 144.441223,45.825893 
	C142.399719,46.154514 140.682892,48.500244 139.140701,50.769825 
z"/>
<path fill="#2E3136" opacity="1.000000" stroke="none" 
	d="
M174.035736,59.410988 
	C173.794540,65.163109 169.357056,63.858261 166.340134,63.892174 
	C160.280273,63.960300 156.737305,59.561226 156.815857,52.965977 
	C156.889450,46.786720 161.037170,42.172630 166.691925,41.979458 
	C172.657761,41.775665 175.958466,45.892605 175.871780,53.940689 
	C171.343536,53.940689 166.790649,53.940689 161.945221,53.940689 
	C161.715866,58.854671 164.271561,60.241146 168.049377,60.094093 
	C169.983948,60.018791 171.899353,59.450413 174.035736,59.410988 
M168.123032,50.999626 
	C169.224014,50.920387 170.325012,50.841145 171.425995,50.761906 
	C171.706924,50.336296 171.987854,49.910686 172.268784,49.485077 
	C170.610580,48.158150 169.088272,45.987675 167.263657,45.693733 
	C164.207291,45.201359 162.166153,47.166462 161.726028,50.999657 
	C163.776535,50.999657 165.521469,50.999657 168.123032,50.999626 
z"/>
<path fill="#2E3136" opacity="1.000000" stroke="none" 
	d="
M248.324966,54.205837 
	C246.842819,54.685596 245.821823,55.165188 244.800827,55.644775 
	C245.857834,57.017864 246.717438,59.294922 248.012527,59.577721 
	C250.793564,60.185001 253.799118,59.764030 257.320404,59.764030 
	C257.460876,64.155106 253.390289,63.676579 250.640442,63.919785 
	C244.024780,64.504890 239.840256,60.158348 239.815170,53.216362 
	C239.791260,46.600632 244.501816,41.649448 250.498413,41.987423 
	C256.286377,42.313633 259.286011,46.628452 258.585602,54.205669 
	C255.363632,54.205669 252.074875,54.205669 248.324966,54.205837 
M245.721634,47.724194 
	C245.427795,48.708141 245.133942,49.692085 244.821136,50.739517 
	C248.330002,50.739517 251.381699,50.739517 254.481812,50.739517 
	C253.210373,45.068333 251.414597,44.330135 245.721634,47.724194 
z"/>
<path fill="#32363B" opacity="1.000000" stroke="none" 
	d="
M209.520691,53.586464 
	C206.107437,51.711937 204.667374,49.037411 206.439301,45.945145 
	C208.725418,41.955563 212.884399,41.440964 216.972626,42.325970 
	C218.221207,42.596252 219.129166,44.439976 220.937408,46.348824 
	C218.977814,46.455242 218.667526,46.450424 218.363571,46.492004 
	C215.827637,46.838902 213.292847,47.194347 210.757721,47.547211 
	C212.505341,48.983589 214.427078,50.257854 215.954987,51.898823 
	C217.725067,53.799911 220.300491,55.990730 220.360733,58.117134 
	C220.409424,59.834953 217.484039,62.700253 215.448853,63.160995 
	C212.505905,63.827236 209.167221,62.832966 206.029053,62.343773 
	C205.828583,62.312523 205.900574,60.533627 205.833115,59.343563 
	C207.968872,59.738003 209.865570,60.433521 211.712006,60.318920 
	C213.161636,60.228951 214.549149,59.137684 215.964249,58.491234 
	C215.005890,57.336857 214.185547,56.012878 213.043869,55.083729 
	C212.187119,54.386456 210.917206,54.196823 209.520691,53.586464 
z"/>
<path fill="#3A3D42" opacity="1.000000" stroke="none" 
	d="
M236.540527,62.639603 
	C230.136520,65.274216 227.097290,63.327293 226.949966,56.923492 
	C226.888947,54.270912 227.130829,51.594986 226.846603,48.971760 
	C226.728363,47.880562 225.606049,46.892323 224.920715,45.870403 
	C224.437561,45.149937 223.351486,44.008919 223.505890,43.810143 
	C225.645767,41.055321 227.953812,38.431129 230.220749,35.774994 
	C230.626648,36.084095 231.032562,36.393196 231.438477,36.702297 
	C231.552612,38.322571 231.666763,39.942848 231.792740,41.731155 
	C233.356354,41.869709 234.804016,41.997990 236.215866,42.123100 
	C236.434464,45.606598 236.434464,45.606598 231.609726,46.490005 
	C231.609726,49.018719 231.596710,51.634636 231.613144,54.250370 
	C231.632095,57.262470 231.205368,60.598160 235.979401,60.212791 
	C236.168137,60.197556 236.467743,61.555885 236.540527,62.639603 
z"/>
<path fill="#3C4044" opacity="1.000000" stroke="none" 
	d="
M268.291046,42.338032 
	C271.840698,45.952675 269.099304,49.438126 268.897125,52.897221 
	C268.694672,56.361691 268.852692,59.847229 268.852692,63.751648 
	C267.178131,63.825745 265.833435,63.885242 264.263489,63.954712 
	C264.263489,56.598648 264.263489,49.654953 264.263489,42.257011 
	C265.492279,42.202011 266.723145,42.146919 268.291046,42.338032 
z"/>
<path fill="#F83B37" opacity="1.000000" stroke="none" 
	d="
M48.961933,60.033524 
	C49.093777,60.162178 49.246387,60.268780 49.398994,60.375381 
	C49.302624,60.338123 49.206257,60.300869 49.064495,60.113319 
	C49.019104,59.963032 48.982700,60.011467 48.961933,60.033524 
z"/>
<path fill="#FCCA3E" opacity="1.000000" stroke="none" 
	d="
M44.577419,49.270157 
	C42.187000,51.320160 40.140022,53.184910 38.343746,54.821274 
	C35.811764,50.470997 31.707119,45.817997 35.441879,40.449451 
	C37.448971,40.213493 39.441608,39.979237 41.091537,39.785267 
	C43.391354,42.612011 46.065159,45.898438 48.486549,48.874619 
	C48.173031,48.893108 46.546947,48.989006 44.577419,49.270157 
z"/>
<path fill="#F4F4F5" opacity="1.000000" stroke="none" 
	d="
M184.555939,53.021038 
	C184.858902,49.445576 185.684296,46.290749 189.364731,46.174622 
	C191.307236,46.113331 194.810455,47.527004 194.986633,48.676609 
	C195.471085,51.837879 195.031311,55.373772 193.960999,58.410301 
	C193.600479,59.433174 189.536545,60.409122 188.423172,59.623577 
	C186.592834,58.332176 185.788376,55.586765 184.555939,53.021038 
z"/>
<path fill="#F8F8F8" opacity="1.000000" stroke="none" 
	d="
M125.072113,52.108341 
	C124.852997,55.947063 124.388046,59.346527 120.178001,60.018406 
	C116.718163,60.570560 114.439514,59.038280 113.821899,55.420883 
	C112.995598,50.581245 114.667122,46.736912 118.109917,46.103161 
	C122.455734,45.303181 124.617302,47.498066 125.072113,52.108341 
z"/>
<path fill="#F1F1F1" opacity="1.000000" stroke="none" 
	d="
M138.984314,50.378723 
	C140.682892,48.500244 142.399719,46.154514 144.441223,45.825893 
	C145.812500,45.605156 147.643539,48.240589 149.268875,49.598137 
	C148.973175,49.988701 148.677475,50.379261 148.381775,50.769825 
	C145.301422,50.769825 142.221054,50.769825 138.984314,50.378723 
z"/>
<path fill="#F1F1F1" opacity="1.000000" stroke="none" 
	d="
M167.694702,50.999641 
	C165.521469,50.999657 163.776535,50.999657 161.726028,50.999657 
	C162.166153,47.166462 164.207291,45.201359 167.263657,45.693733 
	C169.088272,45.987675 170.610580,48.158150 172.268784,49.485077 
	C171.987854,49.910686 171.706924,50.336296 171.425995,50.761906 
	C170.325012,50.841145 169.224014,50.920387 167.694702,50.999641 
z"/>
<path fill="#F1F1F1" opacity="1.000000" stroke="none" 
	d="
M245.968689,47.414795 
	C251.414597,44.330135 253.210373,45.068333 254.481812,50.739517 
	C251.381699,50.739517 248.330002,50.739517 244.821136,50.739517 
	C245.133942,49.692085 245.427795,48.708141 245.968689,47.414795 
z"/>
</svg>