<svg version="1.1" id="Layer_1" xmlns="http://www.w3.org/2000/svg" xmlns:xlink="http://www.w3.org/1999/xlink" x="0px" y="0px"
	 width="100%" viewBox="0 0 616 537" enable-background="new 0 0 616 537" xml:space="preserve">
<path fill="none" opacity="1.000000" stroke="#000000" stroke-linecap="round" stroke-linejoin="round" stroke-width="2.000000"
	d="
M616.500000,1.500000 
	C411.500000,1.500000 206.500000,1.500000 1.500000,1.500000 
"/>
<path fill="none" opacity="1.000000" stroke="#000000" stroke-linecap="round" stroke-linejoin="round" stroke-width="3.000000"
	d="
M94.500000,218.500000 
	C112.243645,217.705536 129.696701,214.867249 146.998611,210.993790 
	C157.916229,208.549606 167.198273,202.414581 176.959229,197.420319 
	C181.883484,194.900772 185.392059,190.603180 188.529892,186.020477 
	C194.702972,177.004913 200.130234,167.712845 203.075195,157.020706 
	C206.481461,144.653732 206.253693,132.377075 201.871994,120.547409 
	C195.735138,103.979156 187.221100,88.519440 172.404053,78.136932 
	C157.048462,67.377068 140.009644,60.418968 121.011818,58.389374 
	C101.475876,56.302292 82.507179,58.270424 64.018539,64.554543 
	C43.742680,71.446129 26.803709,83.098488 16.182598,102.102051 
	C12.319368,109.014244 10.728616,117.129974 8.947988,124.988213 
	C5.305023,141.065262 7.983550,156.706116 12.671480,171.947250 
	C16.264322,183.628098 24.420084,192.592819 34.038242,199.950012 
	C43.600544,207.264465 53.972454,212.888474 65.963898,215.656403 
	C75.270988,217.804749 84.518280,218.884933 94.000000,218.500000 
"/>
<path fill="none" opacity="1.000000" stroke="#000000" stroke-linecap="round" stroke-linejoin="round" stroke-width="4.000000"
	d="
M306.500000,138.500000 
	C306.833344,138.500000 307.348907,138.358932 307.473785,138.520279 
	C313.057434,145.733887 320.447083,150.927765 327.488495,156.514481 
	C328.405670,157.242172 329.276764,158.082947 329.983643,159.012436 
	C342.516479,175.492538 353.903320,192.620743 360.536133,212.487930 
	C361.954865,216.737381 364.160614,220.736298 365.430817,225.020508 
	C367.957428,233.542511 370.787933,242.134201 366.532837,251.015732 
	C365.616852,252.927597 366.699127,254.702011 367.466644,256.514130 
	C372.448578,268.276459 374.142395,281.083435 378.649414,292.943237 
	C383.174774,304.851196 387.896729,316.724609 393.933319,328.035583 
	C401.180664,341.615143 402.727417,356.458405 401.382812,371.489532 
	C400.222198,384.463928 395.707764,396.166718 386.613708,406.104065 
	C380.062988,413.262329 375.491364,422.067963 368.556854,429.056396 
	C361.992432,435.671906 356.111816,442.741333 346.563568,445.704773 
	C341.477936,447.283173 337.380676,445.340576 333.022339,444.396881 
	C317.298889,440.992401 301.465057,437.842865 286.073425,433.253784 
	C276.388672,430.366272 266.650604,427.077209 257.497284,422.505432 
	C249.627243,418.574646 247.278152,411.022369 244.390839,403.542145 
	C241.003708,394.767090 239.013458,385.726654 239.689041,376.513855 
	C240.351562,367.479401 241.979156,358.459229 243.217041,349.461060 
	C245.158585,335.347992 248.856842,321.416595 248.536758,306.999176 
	C248.382721,300.060974 246.160217,295.430359 239.712738,291.177490 
	C228.816299,283.990051 218.441620,275.186249 213.690140,262.429169 
	C209.774628,251.916534 208.824310,240.867020 211.242767,229.445526 
	C212.434662,223.816696 212.659393,217.815613 213.437759,211.991684 
	C213.698822,210.038422 213.639648,208.166489 214.965652,206.473099 
	C216.546494,204.454300 216.457748,201.943985 216.510651,199.500229 
	C216.839874,184.291122 218.550339,169.364594 225.491501,155.495743 
	C228.807266,148.870621 234.388718,145.722046 241.504913,145.052170 
	C243.469116,144.867264 245.157959,144.478226 246.500000,143.000000 
"/>
<path fill="none" opacity="1.000000" stroke="#000000" stroke-linecap="round" stroke-linejoin="round" stroke-width="3.000000"
	d="
M399.000000,391.000000 
	C402.515015,398.088928 404.231842,405.579498 404.544708,413.498230 
	C404.980652,424.533936 405.311462,435.541962 403.504791,446.500793 
	C400.549927,464.423706 395.391510,481.440826 382.439270,494.941742 
	C378.151978,499.410614 373.229065,503.265533 367.006195,505.021942 
	C359.546936,507.127350 354.550323,503.654572 353.446014,496.007782 
	C351.480621,482.397980 352.129883,468.591827 350.084778,454.987244 
	C349.607910,451.815155 348.610657,448.922974 347.500000,446.000000 
"/>
<path fill="none" opacity="1.000000" stroke="#000000" stroke-linecap="round" stroke-linejoin="round" stroke-width="2.000000"
	d="
M487.500000,36.000000 
	C493.477631,36.971420 499.498932,36.423595 505.500183,36.480648 
	C513.666138,36.558281 521.840637,36.296585 529.996704,36.591251 
	C533.720886,36.725796 537.263611,34.633007 540.500000,35.654015 
	C540.500000,37.498463 540.437866,39.002201 540.509460,40.499550 
	C541.514526,61.521675 539.670959,82.497444 539.336548,103.497398 
	C539.148132,115.332092 539.063965,127.165390 539.004883,139.000031 
	C538.935730,152.849579 538.100708,166.670563 537.609497,180.503891 
	C537.112976,194.486252 537.867554,208.512894 537.377258,222.495697 
	C537.020447,232.670975 538.084534,242.814362 537.156372,253.014221 
	C536.510925,260.106995 537.600586,267.339233 537.442993,274.498749 
	C537.138306,288.336395 535.973450,302.173218 536.146118,315.998169 
	C536.323486,330.200592 535.416443,344.335083 535.070190,358.501709 
	C534.703674,373.495331 534.922363,388.500092 534.671814,403.502869 
	C534.502075,413.669220 535.033081,423.826538 534.094666,434.008728 
	C533.438232,441.130157 534.328064,448.320007 534.241577,455.502899 
	C534.085022,468.492645 532.520874,481.500000 534.000000,494.500000 
"/>
<path fill="none" opacity="1.000000" stroke="#000000" stroke-linecap="round" stroke-linejoin="round" stroke-width="8.000000"
	d="
M326.500000,301.500000 
	C325.697968,311.830231 318.162018,318.546356 312.936249,326.457886 
	C309.364288,331.865570 306.549530,337.651398 306.649078,343.997650 
	C306.842651,356.338654 313.580261,367.439636 327.002594,371.491394 
	C347.362823,377.637451 365.279358,361.227722 363.418945,341.507660 
	C362.896973,335.975006 360.996094,330.742554 357.036865,326.465881 
	C355.546112,324.855591 353.879944,323.105591 354.500000,320.500000 
"/>
<path fill="none" opacity="1.000000" stroke="#000000" stroke-linecap="round" stroke-linejoin="round" stroke-width="2.000000"
	d="
M532.000000,101.500000 
	C532.166687,111.166664 532.877808,120.861450 532.380432,130.493820 
	C531.494019,147.663452 532.180908,164.860718 531.305237,181.990036 
	C530.528992,197.174057 530.805359,212.332672 530.488281,227.499756 
	C530.042236,248.831558 529.039978,270.154266 529.500000,291.500000 
"/>
<path fill="none" opacity="1.000000" stroke="#000000" stroke-linecap="round" stroke-linejoin="round" stroke-width="2.000000"
	d="
M552.500000,84.500000 
	C552.500000,92.333336 553.218933,100.248337 552.340393,107.981865 
	C550.823181,121.336639 552.573120,134.723907 551.357544,147.986938 
	C549.721375,165.837845 551.077576,183.671234 550.500000,201.500000 
"/>
<path fill="none" opacity="1.000000" stroke="#000000" stroke-linecap="round" stroke-linejoin="round" stroke-width="2.000000"
	d="
M528.500000,328.500000 
	C528.500000,359.500000 528.500000,390.500000 528.500000,421.500000 
"/>
<path fill="none" opacity="1.000000" stroke="#000000" stroke-linecap="round" stroke-linejoin="round" stroke-width="3.000000"
	d="
M269.000000,234.000000 
	C272.299530,232.612228 274.228333,229.546143 276.944122,227.428345 
	C278.960785,225.855728 281.383545,225.804214 282.932739,226.626709 
	C294.632935,232.838440 306.173492,231.562820 318.038727,227.103043 
	C323.696960,224.976288 329.446075,223.445038 333.008942,218.005859 
	C337.227875,211.565094 338.529510,204.812973 335.511383,197.495300 
	C334.768280,195.693497 334.216187,193.813522 333.491608,192.003357 
	C329.974365,183.216354 322.514618,180.487946 314.014160,178.923050 
	C307.178894,177.664703 300.462036,178.289886 294.038330,180.133530 
	C284.270355,182.936996 277.005798,189.319778 272.535339,198.517166 
	C268.664459,206.481018 270.545197,214.083588 274.437012,221.532913 
	C275.308014,223.200119 277.121735,223.544937 278.000000,225.000000 
"/>
<path fill="none" opacity="1.000000" stroke="#000000" stroke-linecap="round" stroke-linejoin="round" stroke-width="3.000000"
	d="
M212.000000,228.500000 
	C224.201630,231.437546 230.558899,240.694839 235.376495,251.057419 
	C238.917374,258.673706 240.883484,266.802307 239.621140,275.517548 
	C239.000702,279.801056 236.362335,282.457611 234.000000,285.500000 
"/>
<path fill="none" opacity="1.000000" stroke="#000000" stroke-linecap="round" stroke-linejoin="round" stroke-width="3.000000"
	d="
M335.500000,446.000000 
	C334.247223,452.446228 334.493927,459.043182 333.101013,465.521729 
	C330.328644,478.415894 325.541779,490.389252 318.500732,501.500488 
	C316.495972,504.664093 314.661621,507.950562 312.466980,510.976044 
	C307.616058,517.663391 303.162231,518.235291 294.959351,515.106567 
	C285.178253,511.375885 281.107300,503.149170 278.168945,494.442993 
	C274.998840,485.050079 273.161957,475.207977 270.827789,465.541595 
	C268.248383,454.859528 264.370117,444.488098 260.978333,434.007019 
	C259.914917,430.720978 258.023468,427.660797 258.500000,424.000000 
"/>
<path fill="none" opacity="1.000000" stroke="#000000" stroke-linecap="round" stroke-linejoin="round" stroke-width="4.000000"
	d="
M261.000000,171.500000 
	C260.399841,172.033249 259.958771,172.546951 259.970612,173.500366 
	C260.117340,185.334045 259.392609,197.203934 260.585083,208.991394 
	C261.585052,218.876404 264.808960,228.258728 269.565094,236.964432 
	C273.713959,244.558533 277.284424,252.310471 277.948547,261.003937 
	C278.926849,273.809570 268.423950,292.133057 258.484406,294.944916 
	C254.914825,295.954773 251.166672,296.333344 247.500000,297.000000 
"/>
<path fill="none" opacity="1.000000" stroke="#000000" stroke-linecap="round" stroke-linejoin="round" stroke-width="2.000000"
	d="
M546.500000,432.500000 
	C546.500000,435.333344 546.457214,438.167419 546.507202,440.999878 
	C546.757324,455.180908 544.694336,469.311676 545.540588,483.497589 
	C545.773071,487.393951 542.752136,488.584869 540.500000,490.500000 
"/>
<path fill="none" opacity="1.000000" stroke="#000000" stroke-linecap="round" stroke-linejoin="round" stroke-width="2.000000"
	d="
M527.500000,443.500000 
	C527.500000,460.500000 527.500000,477.500000 527.500000,494.500000 
"/>
<path fill="none" opacity="1.000000" stroke="#000000" stroke-linecap="round" stroke-linejoin="round" stroke-width="3.000000"
	d="
M423.000000,34.000000 
	C424.371368,40.769573 423.904663,47.673641 424.005157,53.657803 
	C425.000671,55.330593 426.027710,55.227959 426.468384,54.949913 
	C432.653107,51.047832 439.626282,51.347767 446.497925,50.962761 
	C448.923553,50.826855 450.209930,51.931393 451.000916,53.999653 
	C451.830170,56.167881 453.077942,58.269344 453.426788,60.511391 
	C454.740662,68.956055 460.865540,71.252945 467.988708,72.561432 
	C468.617859,72.677010 469.028198,73.776924 470.045593,73.459251 
	C475.817780,68.181480 479.946808,61.455666 485.000000,55.500000 
"/>
<path fill="none" opacity="1.000000" stroke="#000000" stroke-linecap="round" stroke-linejoin="round" stroke-width="2.000000"
	d="
M549.500000,203.500000 
	C550.904358,219.811478 550.460999,236.160660 550.500000,252.500000 
"/>
<path fill="none" opacity="1.000000" stroke="#000000" stroke-linecap="round" stroke-linejoin="round" stroke-width="3.000000"
	d="
M286.000000,151.500000 
	C289.196716,150.976028 292.057739,149.161301 295.507629,149.379013 
	C296.793793,149.460175 298.476105,148.464355 299.450073,147.451950 
	C306.041351,140.600464 308.642365,132.198151 306.831116,123.033371 
	C305.668243,117.149216 303.961304,111.236237 300.545868,105.970245 
	C290.651245,90.714455 273.611115,85.715004 257.053711,90.679131 
	C249.236023,93.022987 244.004669,98.996788 242.502838,107.500504 
	C242.150223,109.497093 241.833344,111.500000 241.500015,113.500000 
"/>
<path fill="none" opacity="1.000000" stroke="#000000" stroke-linecap="round" stroke-linejoin="round" stroke-width="2.000000"
	d="
M381.500000,56.000000 
	C381.092743,60.723656 383.720886,64.541901 385.583649,68.460236 
	C390.219116,78.211060 394.627594,87.956032 395.061462,98.997581 
	C395.088409,99.682838 396.000000,100.333328 396.500000,101.000000 
"/>
<path fill="none" opacity="1.000000" stroke="#000000" stroke-linecap="round" stroke-linejoin="round" stroke-width="3.000000"
	d="
M401.500000,56.500000 
	C403.500000,65.166664 406.504333,73.749649 407.235321,82.522057 
	C408.071533,92.557480 411.277802,102.322220 410.500000,112.500000 
"/>
<path fill="none" opacity="1.000000" stroke="#000000" stroke-linecap="round" stroke-linejoin="round" stroke-width="3.000000"
	d="
M404.500000,35.000000 
	C397.487396,33.947777 392.083405,36.406525 389.952728,39.971752 
	C388.968628,41.618462 388.721008,43.336098 389.053345,44.989277 
	C390.599579,52.680157 392.181122,60.370457 394.039459,67.990379 
	C396.240051,77.013756 400.403748,85.415825 402.561157,94.485451 
	C404.000336,100.535789 406.722382,106.253044 407.500000,112.500000 
"/>
<path fill="none" opacity="1.000000" stroke="#000000" stroke-linecap="round" stroke-linejoin="round" stroke-width="2.000000"
	d="
M548.500000,290.500000 
	C548.500000,300.833344 548.558533,311.167175 548.464966,321.499695 
	C548.436340,324.663788 549.051636,327.879913 548.000000,331.000000 
"/>
<path fill="none" opacity="1.000000" stroke="#000000" stroke-linecap="round" stroke-linejoin="round" stroke-width="2.000000"
	d="
M55.500000,102.500000 
	C54.983013,113.272163 57.582767,123.787987 58.133160,134.493149 
	C58.700298,145.523972 60.333332,156.500000 61.500000,167.500000 
"/>
<path fill="none" opacity="1.000000" stroke="#000000" stroke-linecap="round" stroke-linejoin="round" stroke-width="4.000000"
	d="
M275.500000,90.500000 
	C275.451477,100.291145 269.821594,107.608673 264.391815,114.919655 
	C263.485901,116.139420 261.519257,117.284561 259.501648,116.988777 
	C255.916000,116.463112 252.722229,117.777809 249.500000,119.000000 
"/>
<path fill="none" opacity="1.000000" stroke="#000000" stroke-linecap="round" stroke-linejoin="round" stroke-width="2.000000"
	d="
M436.500000,53.000000 
	C435.000000,64.166664 433.513367,75.335167 431.985596,86.498032 
	C431.755585,88.178841 431.333344,89.833336 431.000031,91.500000 
"/>
<path fill="none" opacity="1.000000" stroke="#000000" stroke-linecap="round" stroke-linejoin="round" stroke-width="3.000000"
	d="
M332.000000,220.500000 
	C339.392609,223.716507 346.735718,226.918991 352.057068,233.453537 
	C354.413696,236.347504 356.935333,238.970337 358.612854,242.445511 
	C360.248535,245.834015 362.515381,249.035446 366.000000,251.000000 
"/>
<path fill="none" opacity="1.000000" stroke="#000000" stroke-linecap="round" stroke-linejoin="round" stroke-width="2.000000"
	d="
M138.500000,116.000000 
	C135.362488,119.161629 131.049103,117.597778 127.448608,118.184715 
	C118.745544,119.603447 110.503654,121.981026 102.486130,125.468109 
	C101.925514,125.711937 101.166664,125.500000 100.500000,125.500000 
"/>
<path fill="none" opacity="1.000000" stroke="#000000" stroke-linecap="round" stroke-linejoin="round" stroke-width="2.000000"
	d="
M139.500000,97.500000 
	C139.467697,110.203453 141.638382,122.765038 141.797043,135.496292 
	C141.866852,141.096680 142.178787,146.832626 142.500000,152.500000 
"/>
<path fill="none" opacity="1.000000" stroke="#000000" stroke-linecap="round" stroke-linejoin="round" stroke-width="4.000000"
	d="
M299.500000,105.500000 
	C296.360748,109.029884 295.830200,113.909309 292.662506,117.638054 
	C288.635315,122.378517 284.423248,126.790878 279.464355,130.451721 
	C276.401306,132.713013 273.277252,134.721817 273.000000,139.000000 
"/>
<path fill="none" opacity="1.000000" stroke="#000000" stroke-linecap="round" stroke-linejoin="round" stroke-width="2.000000"
	d="
M549.500000,254.500000 
	C549.500000,265.833344 549.500000,277.166656 549.500000,288.500000 
"/>
<path fill="none" opacity="1.000000" stroke="#000000" stroke-linecap="round" stroke-linejoin="round" stroke-width="3.000000"
	d="
M534.000000,55.500000 
	C534.312378,66.725121 533.772583,77.899361 532.439331,89.236397 
	C530.798950,88.534363 529.930786,87.735878 529.500000,86.500000 
"/>
<path fill="none" opacity="1.000000" stroke="#000000" stroke-linecap="round" stroke-linejoin="round" stroke-width="3.000000"
	d="
M425.500000,55.500000 
	C425.000000,65.166664 424.476715,74.832275 424.037079,84.501686 
	C423.994446,85.439735 423.600159,85.966751 423.000000,86.500000 
"/>
<path fill="none" opacity="1.000000" stroke="#000000" stroke-linecap="round" stroke-linejoin="round" stroke-width="2.000000"
	d="
M547.500000,398.500000 
	C547.500000,408.833344 547.500000,419.166656 547.500000,429.500000 
"/>
<path fill="none" opacity="1.000000" stroke="#000000" stroke-linecap="round" stroke-linejoin="round" stroke-width="2.000000"
	d="
M557.500000,489.500000 
	C557.890137,491.166656 555.146729,492.880035 557.508850,494.487030 
	C559.931580,496.135284 562.325195,494.291992 563.890991,493.323700 
	C567.987427,490.790253 571.757629,491.322876 576.032410,492.367401 
	C578.619751,492.999573 580.539978,493.748016 580.418152,496.496368 
	C580.314026,498.847534 578.628601,500.745636 576.469971,501.401184 
	C574.143250,502.107758 571.853210,500.898926 570.627258,498.921143 
	C570.096191,498.064423 568.950928,496.918793 569.500000,495.500000 
"/>
<path fill="none" opacity="1.000000" stroke="#000000" stroke-linecap="round" stroke-linejoin="round" stroke-width="2.000000"
	d="
M107.500000,177.500000 
	C95.073631,176.956451 82.861366,179.538345 70.502182,180.052383 
	C65.159103,180.274597 59.915188,181.873108 54.500000,181.500000 
"/>
<path fill="none" opacity="1.000000" stroke="#000000" stroke-linecap="round" stroke-linejoin="round" stroke-width="3.000000"
	d="
M484.500000,7.500000 
	C485.166656,16.833334 485.833313,26.166668 486.500000,35.500000 
"/>
<path fill="none" opacity="1.000000" stroke="#000000" stroke-linecap="round" stroke-linejoin="round" stroke-width="3.000000"
	d="
M239.500000,214.500000 
	C240.404587,215.904892 240.597778,217.632492 242.460464,218.577896 
	C245.430176,220.085175 247.003632,218.297852 248.455276,216.464584 
	C250.163513,214.307251 248.577499,212.258087 247.439682,210.539948 
	C246.021927,208.399078 243.854568,208.969864 242.024384,210.041641 
	C240.601776,210.874710 239.804596,212.336212 239.500000,214.000000 
"/>
<path fill="none" opacity="1.000000" stroke="#000000" stroke-linecap="round" stroke-linejoin="round" stroke-width="3.000000"
	d="
M407.500000,35.000000 
	C410.551849,40.259258 410.294189,46.449497 412.381378,52.044250 
	C416.041565,61.855492 414.812714,72.278618 415.015076,82.499702 
	C415.087708,86.168228 414.843445,89.954666 415.708740,93.448303 
	C416.135040,95.169525 414.759644,95.775192 415.000000,97.000000 
"/>
<path fill="none" opacity="1.000000" stroke="#000000" stroke-linecap="round" stroke-linejoin="round" stroke-width="8.000000"
	d="
M533.000000,54.000000 
	C533.189514,52.383812 532.351685,50.972591 532.102600,49.482841 
	C531.757690,47.419960 531.322998,45.604691 528.998901,45.564495 
	C526.458435,45.520561 523.251709,44.379375 522.044678,48.014832 
	C521.507446,49.632999 520.355347,50.310417 518.994690,50.446812 
	C516.431763,50.703724 517.062073,52.487862 517.000000,54.000000 
"/>
<path fill="none" opacity="1.000000" stroke="#000000" stroke-linecap="round" stroke-linejoin="round" stroke-width="3.000000"
	d="
M443.500000,7.500000 
	C443.333344,8.833334 442.966217,10.176857 443.033386,11.498302 
	C443.399719,18.704338 442.762573,25.870474 441.879700,32.985069 
	C441.571411,35.469318 442.402222,37.098698 443.463898,39.019955 
	C445.463043,42.637772 448.101715,46.039913 448.000000,50.500000 
"/>
<path fill="none" opacity="1.000000" stroke="#000000" stroke-linecap="round" stroke-linejoin="round" stroke-width="2.000000"
	d="
M323.000000,202.000000 
	C315.333344,203.500000 307.666656,205.000000 300.000000,206.500000 
"/>
<path fill="none" opacity="1.000000" stroke="#000000" stroke-linecap="round" stroke-linejoin="round" stroke-width="2.000000"
	d="
M131.500000,176.500000 
	C125.166664,176.500000 118.832443,176.447510 112.500938,176.555038 
	C111.519974,176.571701 109.938171,175.481186 109.500000,177.500000 
"/>
<path fill="none" opacity="1.000000" stroke="#000000" stroke-linecap="round" stroke-linejoin="round" stroke-width="3.000000"
	d="
M234.000000,120.000000 
	C234.093842,128.379166 233.465866,136.816071 236.000000,145.000000 
"/>
<path fill="none" opacity="1.000000" stroke="#000000" stroke-linecap="round" stroke-linejoin="round" stroke-width="2.000000"
	d="
M485.500000,36.000000 
	C478.715302,37.330036 471.789551,35.769032 464.963898,36.856472 
	C465.166534,37.666698 465.339874,38.331776 465.498688,39.000309 
	C465.933990,40.832760 463.747009,43.055420 465.576752,44.395199 
	C467.572357,45.856445 470.415131,47.688053 472.450317,47.262405 
	C477.271545,46.254059 481.833771,47.484776 486.499786,47.525173 
	C488.268524,47.540482 489.936127,47.404667 491.505219,46.509167 
	C492.931030,45.695435 494.578156,45.603474 495.445984,47.032795 
	C497.752594,50.831734 501.898621,53.188343 503.500000,57.500000 
"/>
<path fill="none" opacity="1.000000" stroke="#000000" stroke-linecap="round" stroke-linejoin="round" stroke-width="3.000000"
	d="
M439.500000,38.500000 
	C439.109558,35.571396 438.192963,34.757320 434.575134,34.091667 
	C427.809540,32.846848 421.161316,33.579247 414.498596,33.016644 
	C406.329895,32.326878 401.564606,36.550011 401.998932,45.000057 
	C402.007477,45.166283 402.041351,45.346237 401.993927,45.498108 
	C400.966339,48.790489 404.441040,52.793644 401.364990,55.336681 
	C398.961304,57.323837 394.999725,55.720280 391.828156,57.728630 
	C390.474060,58.586109 386.303162,57.322662 385.669769,54.462402 
	C385.164429,52.180508 382.989899,51.472733 382.500000,49.500000 
"/>
<path fill="none" opacity="1.000000" stroke="#000000" stroke-linecap="round" stroke-linejoin="round" stroke-width="3.000000"
	d="
M215.000000,196.000000 
	C211.513290,193.687210 208.261017,191.337128 203.929428,194.914551 
	C200.861053,197.448654 199.043625,201.228378 200.500015,204.500000 
	C202.421005,208.815338 205.117340,210.113190 209.509827,209.040237 
	C210.610809,208.771301 211.833328,209.000000 213.000000,209.000000 
"/>
<path fill="none" opacity="1.000000" stroke="#000000" stroke-linecap="round" stroke-linejoin="round" stroke-width="2.000000"
	d="
M94.500000,128.500000 
	C87.161674,130.908768 81.804459,136.454285 75.500000,140.500000 
"/>
<path fill="none" opacity="1.000000" stroke="#000000" stroke-linecap="round" stroke-linejoin="round" stroke-width="4.000000"
	d="
M229.000000,123.500000 
	C224.798813,127.926575 223.520615,133.195389 225.122650,138.965942 
	C225.494019,140.303635 225.228790,140.779099 224.500000,141.500000 
"/>
<path fill="none" opacity="1.000000" stroke="#000000" stroke-linecap="round" stroke-linejoin="round" stroke-width="2.000000"
	d="
M78.500000,127.500000 
	C75.666664,132.166672 72.815552,136.822693 70.013580,141.508118 
	C69.380836,142.566177 68.588882,143.679367 69.500000,145.000000 
"/>
<path fill="none" opacity="1.000000" stroke="#000000" stroke-linecap="round" stroke-linejoin="round" stroke-width="3.000000"
	d="
M520.500000,44.000000 
	C517.854431,42.070686 514.683472,42.681801 512.041138,43.207062 
	C509.541718,43.703926 506.960968,43.804871 504.598083,44.054039 
	C503.215393,49.633209 508.899597,51.116089 509.691498,55.001839 
	C517.166687,55.139194 524.333313,53.798100 531.500000,55.000000 
"/>
<path fill="none" opacity="1.000000" stroke="#000000" stroke-linecap="round" stroke-linejoin="round" stroke-width="2.000000"
	d="
M516.500000,77.499992 
	C520.166687,82.833328 523.833313,88.166664 527.500000,93.499992 
"/>
<path fill="none" opacity="1.000000" stroke="#000000" stroke-linecap="round" stroke-linejoin="round" stroke-width="2.000000"
	d="
M501.000000,54.000000 
	C493.852478,54.990276 486.630524,54.908676 479.518372,54.289104 
	C476.480530,54.024467 472.722076,52.440311 472.500000,48.000000 
"/>
<path fill="none" opacity="1.000000" stroke="#000000" stroke-linecap="round" stroke-linejoin="round" stroke-width="4.000000"
	d="
M422.500000,87.500000 
	C421.581604,97.166664 422.384094,106.833336 422.500000,116.500000 
"/>
<path fill="none" opacity="1.000000" stroke="#000000" stroke-linecap="round" stroke-linejoin="round" stroke-width="2.000000"
	d="
M429.500000,83.500000 
	C428.318817,88.214806 431.758423,92.764580 430.000000,97.500000 
"/>
<path fill="none" opacity="1.000000" stroke="#000000" stroke-linecap="round" stroke-linejoin="round" stroke-width="3.000000"
	d="
M372.000000,54.000000 
	C371.792450,56.306469 372.723999,58.093731 374.499573,59.500523 
	C377.200684,61.640560 379.290710,64.240295 380.500000,67.500000 
"/>
<path fill="none" opacity="1.000000" stroke="#000000" stroke-linecap="round" stroke-linejoin="round" stroke-width="3.000000"
	d="
M286.000000,166.000000 
	C289.840332,169.755371 291.435150,174.758255 293.500000,179.500000 
"/>
<path fill="none" opacity="1.000000" stroke="#000000" stroke-linecap="round" stroke-linejoin="round" stroke-width="3.000000"
	d="
M391.000000,37.500000 
	C388.854340,35.918812 386.773743,37.400829 385.042053,38.103638 
	C378.102203,40.920181 370.010895,41.807217 365.500000,49.000000 
"/>
<path fill="none" opacity="1.000000" stroke="#000000" stroke-linecap="round" stroke-linejoin="round" stroke-width="2.000000"
	d="
M73.500000,142.500000 
	C67.431549,146.065277 63.949280,151.632782 61.500000,158.000000 
"/>
<path fill="none" opacity="1.000000" stroke="#000000" stroke-linecap="round" stroke-linejoin="round" stroke-width="2.000000"
	d="
M417.500000,34.000000 
	C413.367889,38.593052 414.297516,44.609715 413.000000,50.000000 
"/>
<path fill="none" opacity="1.000000" stroke="#000000" stroke-linecap="round" stroke-linejoin="round" stroke-width="2.000000"
	d="
M139.500000,175.500000 
	C144.833328,175.500000 150.166672,175.500000 155.500000,175.500000 
"/>
<path fill="none" opacity="1.000000" stroke="#000000" stroke-linecap="round" stroke-linejoin="round" stroke-width="2.000000"
	d="
M538.500000,492.500000 
	C535.595032,494.904205 532.742188,497.438873 528.500000,496.500000 
"/>
<path fill="none" opacity="1.000000" stroke="#000000" stroke-linecap="round" stroke-linejoin="round" stroke-width="2.000000"
	d="
M224.000000,142.500000 
	C221.982880,146.231674 222.774704,149.371994 226.000000,152.000000 
"/>
<path fill="none" opacity="1.000000" stroke="#000000" stroke-linecap="round" stroke-linejoin="round" stroke-width="3.000000"
	d="
M416.000000,103.500000 
	C416.333344,106.500000 416.666656,109.500000 417.000000,112.500000 
"/>
<path fill="none" opacity="1.000000" stroke="#000000" stroke-linecap="round" stroke-linejoin="round" stroke-width="2.000000"
	d="
M421.500000,77.500000 
	C421.823639,80.491280 420.846313,83.554832 422.000000,86.500000 
"/>
<path fill="none" opacity="1.000000" stroke="#000000" stroke-linecap="round" stroke-linejoin="round" stroke-width="6.000000"
	d="
M377.500000,50.500000 
	C377.451935,52.154381 378.156128,53.880402 374.990051,53.622074 
	C370.262756,53.236366 363.184387,49.406818 361.500000,45.500000 
"/>
<path fill="none" opacity="1.000000" stroke="#000000" stroke-linecap="round" stroke-linejoin="round" stroke-width="3.000000"
	d="
M272.500000,128.499985 
	C269.833344,128.666656 267.166656,128.833328 264.500000,128.999985 
"/>
<path fill="none" opacity="1.000000" stroke="#000000" stroke-linecap="round" stroke-linejoin="round" stroke-width="2.000000"
	d="
M408.000000,55.000000 
	C407.833344,57.500000 407.666656,60.000000 407.500000,62.500000 
"/>
<path fill="none" opacity="1.000000" stroke="#000000" stroke-linecap="round" stroke-linejoin="round" stroke-width="5.000000"
	d="
M265.500000,122.500000 
	C266.013763,127.025513 263.511017,129.804626 260.000000,132.000000 
"/>
<path fill="none" opacity="1.000000" stroke="#000000" stroke-linecap="round" stroke-linejoin="round" stroke-width="2.000000"
	d="
M441.000000,30.500000 
	C438.987518,29.164419 436.709778,29.553152 434.500000,29.500000 
"/>
<path fill="none" opacity="1.000000" stroke="#000000" stroke-linecap="round" stroke-linejoin="round" stroke-width="2.000000"
	d="
M412.000000,62.500000 
	C410.950775,64.426453 411.733612,66.505577 411.500000,68.500000 
"/>
<path fill="none" opacity="1.000000" stroke="#000000" stroke-linecap="round" stroke-linejoin="round" stroke-width="2.000000"
	d="
M396.000000,105.500000 
	C394.950775,107.426453 395.733612,109.505577 395.500000,111.500000 
"/>
<path fill="none" opacity="1.000000" stroke="#000000" stroke-linecap="round" stroke-linejoin="round" stroke-width="2.000000"
	d="
M556.500000,494.500000 
	C554.838562,495.179779 553.484131,496.626953 551.500000,496.500000 
"/>
<path fill="none" opacity="1.000000" stroke="#000000" stroke-linecap="round" stroke-linejoin="round" stroke-width="2.000000"
	d="
M84.000000,125.500000 
	C83.637138,124.678360 83.274277,123.856712 82.900124,123.009506 
	C80.495193,123.818878 77.997597,124.659439 75.500000,125.499992 
"/>
<path fill="none" opacity="1.000000" stroke="#000000" stroke-linecap="round" stroke-linejoin="round" stroke-width="2.000000"
	d="
M144.500000,169.500000 
	C144.770111,171.156326 143.941299,172.922531 145.000000,174.500000 
"/>
<path fill="none" opacity="1.000000" stroke="#000000" stroke-linecap="round" stroke-linejoin="round" stroke-width="2.000000"
	d="
M447.500000,51.500000 
	C447.751984,52.979664 447.216522,54.262466 446.500000,55.500000 
"/>
<path fill="none" opacity="1.000000" stroke="#000000" stroke-linecap="round" stroke-linejoin="round" stroke-width="2.000000"
	d="
M378.000000,42.000008 
	C378.833313,43.166676 379.666656,44.333340 380.500000,45.500008 
"/>
<path fill="none" opacity="1.000000" stroke="#000000" stroke-linecap="round" stroke-linejoin="round" stroke-width="2.000000"
	d="
M315.000000,505.000000 
	C313.833344,504.833313 312.666656,504.666656 311.500000,504.500000 
"/>
<path fill="none" opacity="1.000000" stroke="#000000" stroke-linecap="round" stroke-linejoin="round" stroke-width="2.000000"
	d="
M395.500000,52.500000 
	C394.333344,52.666668 393.166656,52.833332 392.000000,53.000000 
"/>
<path fill="none" opacity="1.000000" stroke="#000000" stroke-linecap="round" stroke-linejoin="round" stroke-width="2.000000"
	d="
M269.500000,447.500000 
	C268.333344,447.666687 267.166656,447.833344 266.000000,448.000000 
"/>
</svg>