<svg version="1.1" id="Layer_1" xmlns="http://www.w3.org/2000/svg" xmlns:xlink="http://www.w3.org/1999/xlink" x="0px" y="0px"
	 width="100%" viewBox="0 0 1010 424" enable-background="new 0 0 1010 424" xml:space="preserve">
<path fill="#FEFEFE" opacity="1.000000" stroke="none" 
	d="
M628.000000,425.000000 
	C418.666656,425.000000 209.833328,425.000000 1.000000,425.000000 
	C1.000000,283.666656 1.000000,142.333328 1.000000,1.000000 
	C337.666656,1.000000 674.333313,1.000000 1011.000000,1.000000 
	C1011.000000,142.333328 1011.000000,283.666656 1011.000000,425.000000 
	C883.500000,425.000000 756.000000,425.000000 628.000000,425.000000 
M204.025955,246.261978 
	C197.357849,239.505875 190.689743,232.749771 183.790863,225.362061 
	C166.504898,205.889328 149.218948,186.416595 131.457031,166.407684 
	C127.781235,171.410324 124.072197,176.671234 120.126816,181.748474 
	C117.729813,184.833130 117.447174,187.265686 120.451180,190.286850 
	C123.834480,193.689407 126.528816,197.764664 129.742294,201.350647 
	C142.044037,215.078262 154.433899,228.726929 167.067825,242.986206 
	C173.303940,249.356369 179.540070,255.726517 186.056198,262.716675 
	C194.428040,270.797913 202.799881,278.879181 211.444901,287.552338 
	C224.630951,299.365417 237.816986,311.178497 251.323090,323.576233 
	C258.925049,330.057739 266.527008,336.539246 273.494934,343.326813 
	C234.605743,364.189270 195.672852,364.029419 157.191895,342.657166 
	C107.425507,315.016998 85.954521,249.262589 108.798019,197.259521 
	C116.617950,179.457535 128.650101,165.162308 142.238586,151.689972 
	C165.184433,128.940308 187.749542,105.806877 210.517075,82.876816 
	C213.014099,80.361961 214.072006,77.647530 214.013565,74.006332 
	C213.799713,60.681892 213.938629,47.351921 213.912430,34.024101 
	C213.910065,32.827789 213.675430,31.631941 213.489990,29.881937 
	C212.360672,30.939230 211.746414,31.482929 211.166870,32.061394 
	C176.281342,66.881081 141.233994,101.540604 106.557724,136.567490 
	C64.000412,179.555099 51.291206,244.225082 73.788696,298.855469 
	C100.119774,362.794891 167.323807,403.986603 238.958618,392.068146 
	C262.496704,388.151886 284.078278,379.620483 303.828735,365.117554 
	C305.539795,366.079102 307.274597,367.001038 308.958008,368.008759 
	C317.894409,373.358246 326.817963,378.729248 336.189117,384.648621 
	C337.364136,385.268616 338.513458,385.944305 339.718140,386.499908 
	C350.153687,391.312134 360.641449,396.023651 372.488800,395.768341 
	C384.437439,395.510925 393.621155,388.102875 395.140717,378.256714 
	C389.121490,377.686707 382.834625,377.966766 377.088531,376.338440 
	C368.838806,374.000641 360.983246,370.271851 352.489532,366.641083 
	C350.904663,365.752228 349.260986,364.953247 347.744141,363.960480 
	C333.512177,354.646210 319.301910,345.298767 304.776093,335.362030 
	C292.117645,325.257507 279.459198,315.153015 266.503235,304.471985 
	C264.999146,303.175720 263.473694,301.903320 261.994293,300.579468 
	C250.649277,290.427307 239.313217,280.265198 227.685242,269.498474 
	C219.898376,261.959167 212.111511,254.419876 204.025955,246.261978 
M365.104279,267.614716 
	C365.337494,266.644867 365.651184,265.686554 365.792236,264.703461 
	C370.866638,229.343674 364.704865,196.122818 346.531342,165.300095 
	C340.367920,154.846817 333.017151,145.248749 324.453430,137.117371 
	C316.049194,145.471924 307.943176,153.529999 300.031586,161.394821 
	C338.273834,206.991684 342.496857,255.685806 312.897949,307.813049 
	C321.855011,314.360138 330.814270,320.908844 340.122589,327.712677 
	C352.970093,309.440186 360.980560,289.798615 365.104279,267.614716 
M488.034393,244.361618 
	C474.371948,240.186111 461.296936,241.664734 449.306396,249.352875 
	C435.069061,258.481628 429.351776,272.312012 428.550232,288.768921 
	C427.144836,317.623199 448.462280,339.915466 476.136078,338.525085 
	C479.057404,338.378296 482.335876,339.249939 484.972443,340.587616 
	C495.924347,346.144012 506.693604,352.060333 517.971375,358.080231 
	C519.474487,355.231415 520.806641,352.706726 522.238708,349.992645 
	C512.041870,344.797516 502.445343,339.908234 492.294525,334.736572 
	C510.435455,325.373810 518.755127,310.693939 519.288208,291.275726 
	C519.901428,268.938141 508.366699,251.309189 488.034393,244.361618 
M871.367859,273.306122 
	C871.278259,271.553040 871.188660,269.799927 871.090210,267.874146 
	C866.720032,268.196106 865.032898,269.745544 865.089478,274.102783 
	C865.338074,293.257141 865.196899,312.416565 865.196960,331.574158 
	C865.196960,333.177612 865.196899,334.781036 865.196899,336.550720 
	C867.523254,336.550720 869.142883,336.550720 871.347412,336.550720 
	C871.347412,334.567688 871.347351,332.775604 871.347351,330.983521 
	C871.347351,316.823547 871.705444,302.650146 871.174377,288.510132 
	C870.956421,282.707764 873.222656,279.487946 877.865173,277.111145 
	C885.051025,273.432281 892.498108,270.918945 900.194641,275.202393 
	C907.442322,279.236023 907.424622,286.613007 907.479065,293.662109 
	C907.575623,306.155457 907.507935,318.650085 907.508850,331.144165 
	C907.508972,332.907196 907.508850,334.670227 907.508850,336.805634 
	C909.981384,336.674133 911.709045,336.582245 913.462036,336.489014 
	C913.462036,319.331482 913.379456,302.700623 913.572388,286.072998 
	C913.595093,284.114319 914.649109,281.646332 916.074463,280.344269 
	C918.360291,278.256287 921.201965,276.579742 924.077698,275.367706 
	C939.394897,268.911926 949.508728,275.496094 949.684998,292.028931 
	C949.823486,305.021301 949.717468,318.016296 949.719971,331.010132 
	C949.720337,332.796570 949.720093,334.583008 949.720093,336.450012 
	C952.051636,336.450012 953.797668,336.450012 955.780457,336.450012 
	C955.780457,319.524841 956.494507,302.863129 955.578552,286.291473 
	C954.672607,269.901825 940.130371,264.414551 927.981384,268.593842 
	C922.031311,270.640686 916.653625,274.351440 910.880188,277.380859 
	C908.090942,272.292114 903.448242,269.114288 897.113770,267.816254 
	C889.092712,266.172546 882.508179,269.253387 875.901978,272.961029 
	C874.605957,273.688385 872.948120,273.771149 871.367859,273.306122 
M79.052643,74.031548 
	C79.052643,70.223381 79.052643,66.415207 79.052643,62.582592 
	C70.404884,63.884323 62.677349,71.243843 62.241306,80.521240 
	C61.897640,87.833298 62.188141,95.883904 64.916481,102.481934 
	C70.356918,115.638725 77.590935,128.062393 84.254478,140.699036 
	C85.982788,143.976562 88.341064,146.921875 90.521568,150.186874 
	C96.272385,143.707855 101.538338,137.775101 106.812286,131.833328 
	C95.381866,113.746452 83.428810,96.190063 79.052643,74.031548 
M490.400269,85.325836 
	C468.670563,85.325836 446.940857,85.325836 425.172058,85.325836 
	C425.172058,88.658295 425.172058,91.095345 425.172058,94.111244 
	C435.973755,94.111244 446.548248,94.111244 457.602844,94.111244 
	C457.602844,122.291763 457.602844,149.893723 457.602844,177.449295 
	C461.013123,177.449295 463.907959,177.449295 467.250183,177.449295 
	C467.250183,149.490265 467.250183,121.906967 467.250183,93.927521 
	C478.126709,93.927521 488.551788,93.927521 499.060425,93.927521 
	C499.060425,90.936333 499.060425,88.352654 499.060425,85.326050 
	C496.287567,85.326050 493.824463,85.326050 490.400269,85.325836 
M705.535461,107.499817 
	C705.535461,130.784485 705.535461,154.069153 705.535461,177.572769 
	C707.756165,177.572769 709.493347,177.572769 711.781921,177.572769 
	C711.781921,175.520721 711.781921,173.731476 711.781982,171.942245 
	C711.782349,157.786591 711.718506,143.630264 711.863342,129.476089 
	C711.881714,127.682579 712.457458,125.230278 713.698364,124.238289 
	C717.431213,121.254242 721.323975,118.112885 725.685303,116.336838 
	C741.069092,110.072227 750.973389,116.935509 751.020630,133.461151 
	C751.057861,146.450958 751.029419,159.440933 751.030090,172.430832 
	C751.030212,174.170212 751.030090,175.909607 751.030090,177.917694 
	C753.471069,177.780121 755.066101,177.690231 757.037964,177.579117 
	C757.037964,161.623627 757.075562,145.999680 757.027710,130.376022 
	C756.977539,113.983902 744.821228,104.740013 729.189697,109.767174 
	C723.205505,111.691696 717.765930,115.309654 711.800293,118.295013 
	C711.800293,104.728996 711.800293,90.842461 711.800293,76.966858 
	C706.739868,76.457977 705.270325,78.523102 705.449097,83.021477 
	C705.759705,90.836388 705.535767,98.672546 705.535461,107.499817 
M525.605957,174.959335 
	C535.310120,180.176468 545.320618,180.857468 555.363953,176.304535 
	C572.744995,168.425217 580.243591,146.876404 572.338867,128.188126 
	C565.965088,113.119270 550.495911,105.382431 534.696472,109.493156 
	C520.383118,113.217255 512.293213,122.868294 509.978912,137.122452 
	C507.494659,152.423233 511.415100,165.535904 525.605957,174.959335 
M634.595825,267.878693 
	C625.244507,266.004761 616.873535,269.079468 608.802551,273.215607 
	C603.992859,275.680420 604.002075,276.221924 606.448364,280.359161 
	C612.270386,278.146576 617.819092,275.394562 623.689148,273.932068 
	C638.996582,270.118408 648.527771,280.084259 644.894287,295.922821 
	C642.023193,296.289795 638.972351,296.316437 636.137085,297.111786 
	C628.356140,299.294708 620.283630,300.990875 613.047180,304.406494 
	C605.833618,307.811340 602.864807,314.739777 604.121887,322.866699 
	C605.336853,330.720947 610.614685,335.009552 617.817993,337.077911 
	C624.120605,338.887665 630.398010,338.460297 636.189636,335.154877 
	C639.559631,333.231567 642.710388,330.924103 645.984070,328.773499 
	C648.561951,335.173157 652.778931,338.875977 656.515259,337.629333 
	C657.602051,337.266693 658.119385,335.197174 659.282898,333.273224 
	C652.764587,332.958832 651.699524,329.636292 651.761963,325.008179 
	C651.926086,312.853821 651.911316,300.694672 651.781982,288.539398 
	C651.658569,276.935699 646.439209,270.511475 634.595825,267.878693 
M289.030243,103.341499 
	C286.670532,92.537498 277.280304,85.726822 267.209747,87.515251 
	C257.060852,89.317596 250.058929,98.807755 251.349747,109.011337 
	C252.571625,118.670158 262.317871,126.403870 271.995850,125.394180 
	C282.693115,124.278152 289.888519,115.362221 289.030243,103.341499 
M831.754761,331.143677 
	C833.278809,329.982025 834.802917,328.820374 836.936768,327.193909 
	C837.184143,331.184418 837.380798,334.357147 837.574707,337.485535 
	C842.274658,337.633362 843.669006,335.740540 843.621643,331.465973 
	C843.409363,312.309387 843.535095,293.149109 843.518188,273.990173 
	C843.516785,272.396393 843.361755,270.802765 843.261658,268.896179 
	C841.050781,269.013885 839.323181,269.105896 837.274963,269.214935 
	C837.274963,283.660858 836.524109,297.688019 837.542297,311.585541 
	C838.207275,320.662048 833.932129,325.064850 827.052979,328.653290 
	C825.434204,329.497681 823.789368,330.327026 822.080933,330.959076 
	C808.539673,335.968994 798.589600,329.319122 798.400757,314.945496 
	C798.223511,301.453217 798.347473,287.956940 798.339172,274.462433 
	C798.338135,272.715820 798.339050,270.969177 798.339050,268.893646 
	C795.848816,269.016663 794.111084,269.102509 792.025269,269.205536 
	C792.025269,276.266876 791.954102,282.905670 792.041504,289.542328 
	C792.181641,300.193451 791.907227,310.886017 792.781006,321.480835 
	C793.573730,331.092987 800.935425,337.136292 810.583923,337.942413 
	C818.350586,338.591278 824.902771,335.675354 831.754761,331.143677 
M536.573608,284.505005 
	C536.575439,294.659180 536.479797,304.814545 536.599976,314.967316 
	C536.830200,334.423370 552.005188,343.695801 569.497070,334.981354 
	C573.702148,332.886414 577.529968,330.034424 582.199829,327.112274 
	C582.199829,330.978485 582.199829,334.311096 582.199829,337.570282 
	C586.978577,337.538513 588.247253,335.528259 588.195984,331.307037 
	C587.963562,312.166718 588.094299,293.022034 588.094299,273.878906 
	C588.094299,272.289856 588.094360,270.700775 588.094360,268.876373 
	C585.594971,269.010803 583.858765,269.104187 581.930908,269.207855 
	C581.930908,285.523743 582.040039,301.326935 581.801941,317.124908 
	C581.769775,319.259552 580.549255,322.098083 578.913879,323.342896 
	C574.993286,326.327423 570.757263,329.248779 566.186157,330.961182 
	C552.842224,335.960022 543.079346,329.215668 542.856873,315.077179 
	C542.644714,301.597076 542.796570,288.111176 542.788696,274.627838 
	C542.787659,272.847656 542.788513,271.067505 542.788513,269.266296 
	C540.416504,269.266296 538.672729,269.266296 536.574097,269.266296 
	C536.574097,274.222717 536.574097,278.865234 536.573608,284.505005 
M673.795044,336.507538 
	C675.390869,336.507538 676.986755,336.507538 678.982727,336.507538 
	C678.982727,322.164825 679.712646,308.150421 678.724426,294.258240 
	C678.072754,285.096069 682.255859,280.302032 689.354309,276.773132 
	C692.590149,275.164490 696.128723,273.838135 699.674377,273.241089 
	C710.294556,271.452789 717.813538,277.986511 717.960022,288.953705 
	C718.106812,299.947449 718.020325,310.944366 718.032288,321.939880 
	C718.037476,326.726105 718.033142,331.512299 718.033142,336.511780 
	C720.346375,336.511780 722.106812,336.511780 723.747314,336.511780 
	C724.038269,336.016998 724.352417,335.732605 724.350464,335.450348 
	C724.233826,318.472809 724.460999,301.481079 723.800049,284.524017 
	C723.452454,275.606171 717.133423,269.863495 708.397156,267.921936 
	C700.275085,266.116791 693.352600,268.924316 686.696167,272.943268 
	C684.123047,274.496887 681.801636,276.467499 678.821411,278.645844 
	C678.821411,274.611145 678.821411,271.324951 678.821411,268.038757 
	C678.416077,267.703796 678.010803,267.368835 677.605469,267.033875 
	C676.044739,268.665466 673.143616,270.282990 673.126343,271.930786 
	C672.902527,293.243683 673.089050,314.560944 673.795044,336.507538 
M672.124939,173.222488 
	C659.403503,174.222122 650.207581,169.382355 644.954651,158.923096 
	C639.377625,147.818253 641.140808,130.882751 649.352417,122.277176 
	C660.458374,110.638428 673.213135,113.216736 686.106323,119.016022 
	C688.561462,115.550240 687.921387,113.347153 683.998779,111.798569 
	C676.051697,108.661156 667.944031,107.416924 659.597412,109.598259 
	C645.171875,113.368279 636.499939,124.950592 635.624084,142.506531 
	C634.993042,155.157288 638.868042,166.397247 649.879089,173.702087 
	C660.733521,180.903046 672.291199,180.833450 684.072693,175.448105 
	C687.848755,173.722046 688.078979,171.681366 686.243164,168.695740 
	C681.739929,170.173218 677.371887,171.606293 672.124939,173.222488 
M745.327576,309.639343 
	C745.286865,313.467926 745.091919,317.302185 745.233459,321.124023 
	C745.711487,334.034882 753.032410,340.214142 765.830322,338.460449 
	C768.438477,338.103058 770.995117,337.232605 773.517395,336.418640 
	C777.310730,335.194458 778.128113,332.980957 775.599609,329.958313 
	C772.451172,330.923950 769.501404,332.122833 766.434509,332.714722 
	C756.793030,334.575500 752.245178,331.168671 751.200439,321.449066 
	C750.970581,319.310333 751.115356,317.124176 751.178223,314.962463 
	C751.458740,305.315216 751.736572,295.667603 752.092224,286.022949 
	C752.225037,282.419159 752.566956,278.823090 752.839355,274.846954 
	C759.666931,274.846954 765.967102,274.688782 772.254395,274.905396 
	C776.117676,275.038483 777.318726,273.519592 776.503906,269.614685 
	C768.762207,269.614685 761.133240,269.614685 752.979065,269.614685 
	C752.979065,264.052368 752.979065,258.805389 752.979065,253.474365 
	C750.731934,253.474365 749.019592,253.474365 746.895325,253.474365 
	C746.895325,258.907654 746.895325,264.011261 746.895325,269.006439 
	C737.972351,271.076843 737.972351,271.076843 737.809326,274.613495 
	C740.550781,274.817352 743.298767,275.021698 745.389465,275.177155 
	C745.389465,286.758667 745.389465,297.720886 745.327576,309.639343 
M609.206970,111.602882 
	C605.834412,115.097496 602.461792,118.592117 598.722656,122.466530 
	C598.722656,117.921989 598.722656,113.563271 598.722656,108.996117 
	C594.188721,109.185593 592.571472,110.803864 592.638855,115.139671 
	C592.892334,131.438461 592.740540,147.743561 592.740540,164.046295 
	C592.740540,168.509140 592.740540,172.972000 592.740540,177.506699 
	C594.953186,177.506699 596.683350,177.506699 598.823303,177.506699 
	C598.823303,175.537994 598.823242,173.903778 598.823303,172.269562 
	C598.823792,160.791107 598.750671,149.312012 598.847961,137.834381 
	C598.926208,128.603851 607.665833,116.330894 615.859070,114.850227 
	C619.898560,114.120239 624.261536,115.180290 628.776489,115.448044 
	C631.023254,111.415611 630.880798,110.908165 626.201660,109.520638 
	C620.532593,107.839584 615.040466,108.254494 609.206970,111.602882 
M383.539520,347.132202 
	C378.923553,337.299774 374.307587,327.467377 369.552979,317.339600 
	C361.932220,322.250763 355.531769,326.375519 348.816101,330.703400 
	C349.879089,332.234467 350.504791,334.148499 351.781219,334.813507 
	C361.756653,340.010529 371.848755,344.984894 381.968842,349.896088 
	C382.212280,350.014221 383.198700,348.601379 383.539520,347.132202 
M110.037186,83.499359 
	C113.978531,91.710632 117.904396,99.931648 123.940598,107.785271 
	C128.742783,100.160690 132.786652,93.740112 137.053406,86.965668 
	C127.206886,81.069519 117.742065,75.561775 105.772797,72.372375 
	C107.422157,76.679939 108.592331,79.736046 110.037186,83.499359 
z"/>
<path fill="#5A5A5A" opacity="1.000000" stroke="none" 
	d="
M303.140167,365.078461 
	C284.078278,379.620483 262.496704,388.151886 238.958618,392.068146 
	C167.323807,403.986603 100.119774,362.794891 73.788696,298.855469 
	C51.291206,244.225082 64.000412,179.555099 106.557724,136.567490 
	C141.233994,101.540604 176.281342,66.881081 211.166870,32.061394 
	C211.746414,31.482929 212.360672,30.939230 213.489990,29.881937 
	C213.675430,31.631941 213.910065,32.827789 213.912430,34.024101 
	C213.938629,47.351921 213.799713,60.681892 214.013565,74.006332 
	C214.072006,77.647530 213.014099,80.361961 210.517075,82.876816 
	C187.749542,105.806877 165.184433,128.940308 142.238586,151.689972 
	C128.650101,165.162308 116.617950,179.457535 108.798019,197.259521 
	C85.954521,249.262589 107.425507,315.016998 157.191895,342.657166 
	C195.672852,364.029419 234.605743,364.189270 274.149963,343.206787 
	C279.863281,346.734589 284.921509,350.382416 290.140320,354.326050 
	C294.580627,358.107422 298.860382,361.592926 303.140167,365.078461 
z"/>
<path fill="#5A5A5A" opacity="1.000000" stroke="none" 
	d="
M365.068024,268.042725 
	C360.980560,289.798615 352.970093,309.440186 340.122589,327.712677 
	C330.814270,320.908844 321.855011,314.360138 312.897949,307.813049 
	C342.496857,255.685806 338.273834,206.991684 300.031586,161.394821 
	C307.943176,153.529999 316.049194,145.471924 324.453430,137.117371 
	C333.017151,145.248749 340.367920,154.846817 346.531342,165.300095 
	C364.704865,196.122818 370.866638,229.343674 365.792236,264.703461 
	C365.651184,265.686554 365.337494,266.644867 365.068024,268.042725 
z"/>
<path fill="#5E5E5E" opacity="1.000000" stroke="none" 
	d="
M488.397461,244.530838 
	C508.366699,251.309189 519.901428,268.938141 519.288208,291.275726 
	C518.755127,310.693939 510.435455,325.373810 492.294525,334.736572 
	C502.445343,339.908234 512.041870,344.797516 522.238708,349.992645 
	C520.806641,352.706726 519.474487,355.231415 517.971375,358.080231 
	C506.693604,352.060333 495.924347,346.144012 484.972443,340.587616 
	C482.335876,339.249939 479.057404,338.378296 476.136078,338.525085 
	C448.462280,339.915466 427.144836,317.623199 428.550232,288.768921 
	C429.351776,272.312012 435.069061,258.481628 449.306396,249.352875 
	C461.296936,241.664734 474.371948,240.186111 488.397461,244.530838 
M501.510162,316.922424 
	C510.863861,303.585388 512.017517,289.032471 506.851868,274.075012 
	C502.585785,261.722321 493.717407,253.791321 480.597198,251.454651 
	C467.085236,249.048172 455.378174,252.672531 446.705475,263.559875 
	C438.655609,273.665314 436.867737,285.491302 438.885010,298.033356 
	C441.206390,312.466034 448.394714,323.379150 462.648438,327.993500 
	C477.449310,332.785004 490.576874,329.476776 501.510162,316.922424 
z"/>
<path fill="#5D5C5C" opacity="1.000000" stroke="none" 
	d="
M166.790863,242.405060 
	C154.433899,228.726929 142.044037,215.078262 129.742294,201.350647 
	C126.528816,197.764664 123.834480,193.689407 120.451180,190.286850 
	C117.447174,187.265686 117.729813,184.833130 120.126816,181.748474 
	C124.072197,176.671234 127.781235,171.410324 131.457031,166.407684 
	C149.218948,186.416595 166.504898,205.889328 183.560303,225.713898 
	C177.816772,231.512177 172.303818,236.958618 166.790863,242.405060 
z"/>
<path fill="#616161" opacity="1.000000" stroke="none" 
	d="
M871.412476,273.728699 
	C872.948120,273.771149 874.605957,273.688385 875.901978,272.961029 
	C882.508179,269.253387 889.092712,266.172546 897.113770,267.816254 
	C903.448242,269.114288 908.090942,272.292114 910.880188,277.380859 
	C916.653625,274.351440 922.031311,270.640686 927.981384,268.593842 
	C940.130371,264.414551 954.672607,269.901825 955.578552,286.291473 
	C956.494507,302.863129 955.780457,319.524841 955.780457,336.450012 
	C953.797668,336.450012 952.051636,336.450012 949.720093,336.450012 
	C949.720093,334.583008 949.720337,332.796570 949.719971,331.010132 
	C949.717468,318.016296 949.823486,305.021301 949.684998,292.028931 
	C949.508728,275.496094 939.394897,268.911926 924.077698,275.367706 
	C921.201965,276.579742 918.360291,278.256287 916.074463,280.344269 
	C914.649109,281.646332 913.595093,284.114319 913.572388,286.072998 
	C913.379456,302.700623 913.462036,319.331482 913.462036,336.489014 
	C911.709045,336.582245 909.981384,336.674133 907.508850,336.805634 
	C907.508850,334.670227 907.508972,332.907196 907.508850,331.144165 
	C907.507935,318.650085 907.575623,306.155457 907.479065,293.662109 
	C907.424622,286.613007 907.442322,279.236023 900.194641,275.202393 
	C892.498108,270.918945 885.051025,273.432281 877.865173,277.111145 
	C873.222656,279.487946 870.956421,282.707764 871.174377,288.510132 
	C871.705444,302.650146 871.347351,316.823547 871.347351,330.983521 
	C871.347351,332.775604 871.347412,334.567688 871.347412,336.550720 
	C869.142883,336.550720 867.523254,336.550720 865.196899,336.550720 
	C865.196899,334.781036 865.196960,333.177612 865.196960,331.574158 
	C865.196899,312.416565 865.338074,293.257141 865.089478,274.102783 
	C865.032898,269.745544 866.720032,268.196106 871.090210,267.874146 
	C871.188660,269.799927 871.278259,271.553040 871.412476,273.728699 
z"/>
<path fill="#5D5D5D" opacity="1.000000" stroke="none" 
	d="
M79.108139,74.474503 
	C83.428810,96.190063 95.381866,113.746452 106.812286,131.833328 
	C101.538338,137.775101 96.272385,143.707855 90.521568,150.186874 
	C88.341064,146.921875 85.982788,143.976562 84.254478,140.699036 
	C77.590935,128.062393 70.356918,115.638725 64.916481,102.481934 
	C62.188141,95.883904 61.897640,87.833298 62.241306,80.521240 
	C62.677349,71.243843 70.404884,63.884323 79.052643,62.582592 
	C79.052643,66.415207 79.052643,70.223381 79.108139,74.474503 
z"/>
<path fill="#5C5C5C" opacity="1.000000" stroke="none" 
	d="
M490.880798,85.325943 
	C493.824463,85.326050 496.287567,85.326050 499.060425,85.326050 
	C499.060425,88.352654 499.060425,90.936333 499.060425,93.927521 
	C488.551788,93.927521 478.126709,93.927521 467.250183,93.927521 
	C467.250183,121.906967 467.250183,149.490265 467.250183,177.449295 
	C463.907959,177.449295 461.013123,177.449295 457.602844,177.449295 
	C457.602844,149.893723 457.602844,122.291763 457.602844,94.111244 
	C446.548248,94.111244 435.973755,94.111244 425.172058,94.111244 
	C425.172058,91.095345 425.172058,88.658295 425.172058,85.325836 
	C446.940857,85.325836 468.670563,85.325836 490.880798,85.325943 
z"/>
<path fill="#833A44" opacity="1.000000" stroke="none" 
	d="
M303.484436,365.098022 
	C298.860382,361.592926 294.580627,358.107422 290.147797,353.936279 
	C290.608612,351.604462 290.789429,349.533447 291.913391,348.387726 
	C296.137421,344.081970 300.669006,340.077972 305.085388,335.960907 
	C319.301910,345.298767 333.512177,354.646210 347.744141,363.960480 
	C349.260986,364.953247 350.904663,365.752228 352.696442,367.224548 
	C347.990631,373.102173 343.105774,378.423004 338.117981,383.645508 
	C337.666382,384.118408 336.552368,383.958679 335.745972,384.092773 
	C326.817963,378.729248 317.894409,373.358246 308.958008,368.008759 
	C307.274597,367.001038 305.539795,366.079102 303.484436,365.098022 
z"/>
<path fill="#606060" opacity="1.000000" stroke="none" 
	d="
M705.535767,106.999802 
	C705.535767,98.672546 705.759705,90.836388 705.449097,83.021477 
	C705.270325,78.523102 706.739868,76.457977 711.800293,76.966858 
	C711.800293,90.842461 711.800293,104.728996 711.800293,118.295013 
	C717.765930,115.309654 723.205505,111.691696 729.189697,109.767174 
	C744.821228,104.740013 756.977539,113.983902 757.027710,130.376022 
	C757.075562,145.999680 757.037964,161.623627 757.037964,177.579117 
	C755.066101,177.690231 753.471069,177.780121 751.030090,177.917694 
	C751.030090,175.909607 751.030212,174.170212 751.030090,172.430832 
	C751.029419,159.440933 751.057861,146.450958 751.020630,133.461151 
	C750.973389,116.935509 741.069092,110.072227 725.685303,116.336838 
	C721.323975,118.112885 717.431213,121.254242 713.698364,124.238289 
	C712.457458,125.230278 711.881714,127.682579 711.863342,129.476089 
	C711.718506,143.630264 711.782349,157.786591 711.781982,171.942245 
	C711.781921,173.731476 711.781921,175.520721 711.781921,177.572769 
	C709.493347,177.572769 707.756165,177.572769 705.535461,177.572769 
	C705.535461,154.069153 705.535461,130.784485 705.535767,106.999802 
z"/>
<path fill="#6E4A4F" opacity="1.000000" stroke="none" 
	d="
M251.003021,322.991577 
	C237.816986,311.178497 224.630951,299.365417 211.642517,287.223938 
	C215.985809,282.981842 220.200699,279.137695 224.240448,275.117584 
	C225.701035,273.664093 226.741959,271.788940 227.974350,270.106171 
	C239.313217,280.265198 250.649277,290.427307 261.994293,300.579468 
	C263.473694,301.903320 264.999146,303.175720 266.300476,304.753876 
	C262.063507,308.525757 257.749847,311.753357 254.117615,315.620911 
	C252.405045,317.444458 252.000351,320.496307 251.003021,322.991577 
z"/>
<path fill="#616161" opacity="1.000000" stroke="none" 
	d="
M525.282837,174.786743 
	C511.415100,165.535904 507.494659,152.423233 509.978912,137.122452 
	C512.293213,122.868294 520.383118,113.217255 534.696472,109.493156 
	C550.495911,105.382431 565.965088,113.119270 572.338867,128.188126 
	C580.243591,146.876404 572.744995,168.425217 555.363953,176.304535 
	C545.320618,180.857468 535.310120,180.176468 525.282837,174.786743 
M517.574341,156.592957 
	C524.689941,173.659195 544.850403,179.275406 558.651001,167.798737 
	C567.631958,160.330139 569.997803,150.164658 568.898682,138.999908 
	C567.456177,124.346474 556.677063,114.174240 542.636902,114.019974 
	C529.009216,113.870247 517.576294,123.831505 516.132996,138.100449 
	C515.544983,143.913742 516.852051,149.918732 517.574341,156.592957 
z"/>
<path fill="#626262" opacity="1.000000" stroke="none" 
	d="
M635.013184,267.923584 
	C646.439209,270.511475 651.658569,276.935699 651.781982,288.539398 
	C651.911316,300.694672 651.926086,312.853821 651.761963,325.008179 
	C651.699524,329.636292 652.764587,332.958832 659.282898,333.273224 
	C658.119385,335.197174 657.602051,337.266693 656.515259,337.629333 
	C652.778931,338.875977 648.561951,335.173157 645.984070,328.773499 
	C642.710388,330.924103 639.559631,333.231567 636.189636,335.154877 
	C630.398010,338.460297 624.120605,338.887665 617.817993,337.077911 
	C610.614685,335.009552 605.336853,330.720947 604.121887,322.866699 
	C602.864807,314.739777 605.833618,307.811340 613.047180,304.406494 
	C620.283630,300.990875 628.356140,299.294708 636.137085,297.111786 
	C638.972351,296.316437 642.023193,296.289795 644.894287,295.922821 
	C648.527771,280.084259 638.996582,270.118408 623.689148,273.932068 
	C617.819092,275.394562 612.270386,278.146576 606.448364,280.359161 
	C604.002075,276.221924 603.992859,275.680420 608.802551,273.215607 
	C616.873535,269.079468 625.244507,266.004761 635.013184,267.923584 
M610.535522,323.513336 
	C612.432556,328.458771 616.191467,331.077911 621.225403,332.189880 
	C629.328918,333.979950 639.784241,329.984863 644.628906,323.147736 
	C645.092712,322.493286 645.641724,321.693176 645.650574,320.954681 
	C645.729980,314.362579 645.696838,307.769135 645.696838,299.522644 
	C636.105896,302.200348 627.246094,304.121277 618.810547,307.203522 
	C612.036316,309.678711 608.903992,315.249969 610.535522,323.513336 
z"/>
<path fill="#774149" opacity="1.000000" stroke="none" 
	d="
M251.163055,323.283905 
	C252.000351,320.496307 252.405045,317.444458 254.117615,315.620911 
	C257.749847,311.753357 262.063507,308.525757 266.449249,305.042114 
	C279.459198,315.153015 292.117645,325.257507 304.930725,335.661469 
	C300.669006,340.077972 296.137421,344.081970 291.913391,348.387726 
	C290.789429,349.533447 290.608612,351.604462 289.987244,353.640442 
	C284.921509,350.382416 279.863281,346.734589 274.466980,343.053772 
	C266.527008,336.539246 258.925049,330.057739 251.163055,323.283905 
z"/>
<path fill="#5B5B5B" opacity="1.000000" stroke="none" 
	d="
M289.098877,103.729019 
	C289.888519,115.362221 282.693115,124.278152 271.995850,125.394180 
	C262.317871,126.403870 252.571625,118.670158 251.349747,109.011337 
	C250.058929,98.807755 257.060852,89.317596 267.209747,87.515251 
	C277.280304,85.726822 286.670532,92.537498 289.098877,103.729019 
z"/>
<path fill="#626262" opacity="1.000000" stroke="none" 
	d="
M831.449219,331.361816 
	C824.902771,335.675354 818.350586,338.591278 810.583923,337.942413 
	C800.935425,337.136292 793.573730,331.092987 792.781006,321.480835 
	C791.907227,310.886017 792.181641,300.193451 792.041504,289.542328 
	C791.954102,282.905670 792.025269,276.266876 792.025269,269.205536 
	C794.111084,269.102509 795.848816,269.016663 798.339050,268.893646 
	C798.339050,270.969177 798.338135,272.715820 798.339172,274.462433 
	C798.347473,287.956940 798.223511,301.453217 798.400757,314.945496 
	C798.589600,329.319122 808.539673,335.968994 822.080933,330.959076 
	C823.789368,330.327026 825.434204,329.497681 827.052979,328.653290 
	C833.932129,325.064850 838.207275,320.662048 837.542297,311.585541 
	C836.524109,297.688019 837.274963,283.660858 837.274963,269.214935 
	C839.323181,269.105896 841.050781,269.013885 843.261658,268.896179 
	C843.361755,270.802765 843.516785,272.396393 843.518188,273.990173 
	C843.535095,293.149109 843.409363,312.309387 843.621643,331.465973 
	C843.669006,335.740540 842.274658,337.633362 837.574707,337.485535 
	C837.380798,334.357147 837.184143,331.184418 836.936768,327.193909 
	C834.802917,328.820374 833.278809,329.982025 831.449219,331.361816 
z"/>
<path fill="#5F5F5F" opacity="1.000000" stroke="none" 
	d="
M536.573853,284.006378 
	C536.574097,278.865234 536.574097,274.222717 536.574097,269.266296 
	C538.672729,269.266296 540.416504,269.266296 542.788513,269.266296 
	C542.788513,271.067505 542.787659,272.847656 542.788696,274.627838 
	C542.796570,288.111176 542.644714,301.597076 542.856873,315.077179 
	C543.079346,329.215668 552.842224,335.960022 566.186157,330.961182 
	C570.757263,329.248779 574.993286,326.327423 578.913879,323.342896 
	C580.549255,322.098083 581.769775,319.259552 581.801941,317.124908 
	C582.040039,301.326935 581.930908,285.523743 581.930908,269.207855 
	C583.858765,269.104187 585.594971,269.010803 588.094360,268.876373 
	C588.094360,270.700775 588.094299,272.289856 588.094299,273.878906 
	C588.094299,293.022034 587.963562,312.166718 588.195984,331.307037 
	C588.247253,335.528259 586.978577,337.538513 582.199829,337.570282 
	C582.199829,334.311096 582.199829,330.978485 582.199829,327.112274 
	C577.529968,330.034424 573.702148,332.886414 569.497070,334.981354 
	C552.005188,343.695801 536.830200,334.423370 536.599976,314.967316 
	C536.479797,304.814545 536.575439,294.659180 536.573853,284.006378 
z"/>
<path fill="#5F5F5F" opacity="1.000000" stroke="none" 
	d="
M673.483521,336.192322 
	C673.089050,314.560944 672.902527,293.243683 673.126343,271.930786 
	C673.143616,270.282990 676.044739,268.665466 677.605469,267.033875 
	C678.010803,267.368835 678.416077,267.703796 678.821411,268.038757 
	C678.821411,271.324951 678.821411,274.611145 678.821411,278.645844 
	C681.801636,276.467499 684.123047,274.496887 686.696167,272.943268 
	C693.352600,268.924316 700.275085,266.116791 708.397156,267.921936 
	C717.133423,269.863495 723.452454,275.606171 723.800049,284.524017 
	C724.460999,301.481079 724.233826,318.472809 724.350464,335.450348 
	C724.352417,335.732605 724.038269,336.016998 723.747314,336.511780 
	C722.106812,336.511780 720.346375,336.511780 718.033142,336.511780 
	C718.033142,331.512299 718.037476,326.726105 718.032288,321.939880 
	C718.020325,310.944366 718.106812,299.947449 717.960022,288.953705 
	C717.813538,277.986511 710.294556,271.452789 699.674377,273.241089 
	C696.128723,273.838135 692.590149,275.164490 689.354309,276.773132 
	C682.255859,280.302032 678.072754,285.096069 678.724426,294.258240 
	C679.712646,308.150421 678.982727,322.164825 678.982727,336.507538 
	C676.986755,336.507538 675.390869,336.507538 673.483521,336.192322 
z"/>
<path fill="#8E3540" opacity="1.000000" stroke="none" 
	d="
M335.967529,384.370667 
	C336.552368,383.958679 337.666382,384.118408 338.117981,383.645508 
	C343.105774,378.423004 347.990631,373.102173 352.931396,367.472412 
	C360.983246,370.271851 368.838806,374.000641 377.088531,376.338440 
	C382.834625,377.966766 389.121490,377.686707 395.140717,378.256714 
	C393.621155,388.102875 384.437439,395.510925 372.488800,395.768341 
	C360.641449,396.023651 350.153687,391.312134 339.718140,386.499908 
	C338.513458,385.944305 337.364136,385.268616 335.967529,384.370667 
z"/>
<path fill="#606060" opacity="1.000000" stroke="none" 
	d="
M672.564453,173.130936 
	C677.371887,171.606293 681.739929,170.173218 686.243164,168.695740 
	C688.078979,171.681366 687.848755,173.722046 684.072693,175.448105 
	C672.291199,180.833450 660.733521,180.903046 649.879089,173.702087 
	C638.868042,166.397247 634.993042,155.157288 635.624084,142.506531 
	C636.499939,124.950592 645.171875,113.368279 659.597412,109.598259 
	C667.944031,107.416924 676.051697,108.661156 683.998779,111.798569 
	C687.921387,113.347153 688.561462,115.550240 686.106323,119.016022 
	C673.213135,113.216736 660.458374,110.638428 649.352417,122.277176 
	C641.140808,130.882751 639.377625,147.818253 644.954651,158.923096 
	C650.207581,169.382355 659.403503,174.222122 672.564453,173.130936 
z"/>
<path fill="#665053" opacity="1.000000" stroke="none" 
	d="
M227.829803,269.802307 
	C226.741959,271.788940 225.701035,273.664093 224.240448,275.117584 
	C220.200699,279.137695 215.985809,282.981842 211.505920,286.927979 
	C202.799881,278.879181 194.428040,270.797913 186.234940,262.264709 
	C190.549393,257.768097 194.581772,253.608627 198.877609,249.741867 
	C200.354874,248.412140 202.490036,247.813293 204.324661,246.880569 
	C212.111511,254.419876 219.898376,261.959167 227.829803,269.802307 
z"/>
<path fill="#626262" opacity="1.000000" stroke="none" 
	d="
M745.358521,309.161194 
	C745.389465,297.720886 745.389465,286.758667 745.389465,275.177155 
	C743.298767,275.021698 740.550781,274.817352 737.809326,274.613495 
	C737.972351,271.076843 737.972351,271.076843 746.895325,269.006439 
	C746.895325,264.011261 746.895325,258.907654 746.895325,253.474365 
	C749.019592,253.474365 750.731934,253.474365 752.979065,253.474365 
	C752.979065,258.805389 752.979065,264.052368 752.979065,269.614685 
	C761.133240,269.614685 768.762207,269.614685 776.503906,269.614685 
	C777.318726,273.519592 776.117676,275.038483 772.254395,274.905396 
	C765.967102,274.688782 759.666931,274.846954 752.839355,274.846954 
	C752.566956,278.823090 752.225037,282.419159 752.092224,286.022949 
	C751.736572,295.667603 751.458740,305.315216 751.178223,314.962463 
	C751.115356,317.124176 750.970581,319.310333 751.200439,321.449066 
	C752.245178,331.168671 756.793030,334.575500 766.434509,332.714722 
	C769.501404,332.122833 772.451172,330.923950 775.599609,329.958313 
	C778.128113,332.980957 777.310730,335.194458 773.517395,336.418640 
	C770.995117,337.232605 768.438477,338.103058 765.830322,338.460449 
	C753.032410,340.214142 745.711487,334.034882 745.233459,321.124023 
	C745.091919,317.302185 745.286865,313.467926 745.358521,309.161194 
z"/>
<path fill="#616161" opacity="1.000000" stroke="none" 
	d="
M609.514771,111.394691 
	C615.040466,108.254494 620.532593,107.839584 626.201660,109.520638 
	C630.880798,110.908165 631.023254,111.415611 628.776489,115.448044 
	C624.261536,115.180290 619.898560,114.120239 615.859070,114.850227 
	C607.665833,116.330894 598.926208,128.603851 598.847961,137.834381 
	C598.750671,149.312012 598.823792,160.791107 598.823303,172.269562 
	C598.823242,173.903778 598.823303,175.537994 598.823303,177.506699 
	C596.683350,177.506699 594.953186,177.506699 592.740540,177.506699 
	C592.740540,172.972000 592.740540,168.509140 592.740540,164.046295 
	C592.740540,147.743561 592.892334,131.438461 592.638855,115.139671 
	C592.571472,110.803864 594.188721,109.185593 598.722656,108.996117 
	C598.722656,113.563271 598.722656,117.921989 598.722656,122.466530 
	C602.461792,118.592117 605.834412,115.097496 609.514771,111.394691 
z"/>
<path fill="#615657" opacity="1.000000" stroke="none" 
	d="
M204.175308,246.571274 
	C202.490036,247.813293 200.354874,248.412140 198.877609,249.741867 
	C194.581772,253.608627 190.549393,257.768097 186.094940,261.954712 
	C179.540070,255.726517 173.303940,249.356369 166.929352,242.695633 
	C172.303818,236.958618 177.816772,231.512177 183.675690,226.029694 
	C190.689743,232.749771 197.357849,239.505875 204.175308,246.571274 
z"/>
<path fill="#873B45" opacity="1.000000" stroke="none" 
	d="
M383.689056,347.517395 
	C383.198700,348.601379 382.212280,350.014221 381.968842,349.896088 
	C371.848755,344.984894 361.756653,340.010529 351.781219,334.813507 
	C350.504791,334.148499 349.879089,332.234467 348.816101,330.703400 
	C355.531769,326.375519 361.932220,322.250763 369.552979,317.339600 
	C374.307587,327.467377 378.923553,337.299774 383.689056,347.517395 
z"/>
<path fill="#5F5F5F" opacity="1.000000" stroke="none" 
	d="
M109.899841,83.145752 
	C108.592331,79.736046 107.422157,76.679939 105.772797,72.372375 
	C117.742065,75.561775 127.206886,81.069519 137.053406,86.965668 
	C132.786652,93.740112 128.742783,100.160690 123.940598,107.785271 
	C117.904396,99.931648 113.978531,91.710632 109.899841,83.145752 
z"/>
<path fill="#FEFEFE" opacity="1.000000" stroke="none" 
	d="
M501.283173,317.203064 
	C490.576874,329.476776 477.449310,332.785004 462.648438,327.993500 
	C448.394714,323.379150 441.206390,312.466034 438.885010,298.033356 
	C436.867737,285.491302 438.655609,273.665314 446.705475,263.559875 
	C455.378174,252.672531 467.085236,249.048172 480.597198,251.454651 
	C493.717407,253.791321 502.585785,261.722321 506.851868,274.075012 
	C512.017517,289.032471 510.863861,303.585388 501.283173,317.203064 
z"/>
<path fill="#FDFDFD" opacity="1.000000" stroke="none" 
	d="
M517.435669,156.214722 
	C516.852051,149.918732 515.544983,143.913742 516.132996,138.100449 
	C517.576294,123.831505 529.009216,113.870247 542.636902,114.019974 
	C556.677063,114.174240 567.456177,124.346474 568.898682,138.999908 
	C569.997803,150.164658 567.631958,160.330139 558.651001,167.798737 
	C544.850403,179.275406 524.689941,173.659195 517.435669,156.214722 
z"/>
<path fill="#FBFBFB" opacity="1.000000" stroke="none" 
	d="
M610.404236,323.131836 
	C608.903992,315.249969 612.036316,309.678711 618.810547,307.203522 
	C627.246094,304.121277 636.105896,302.200348 645.696838,299.522644 
	C645.696838,307.769135 645.729980,314.362579 645.650574,320.954681 
	C645.641724,321.693176 645.092712,322.493286 644.628906,323.147736 
	C639.784241,329.984863 629.328918,333.979950 621.225403,332.189880 
	C616.191467,331.077911 612.432556,328.458771 610.404236,323.131836 
z"/>
</svg>