<svg version="1.1" id="Layer_1" xmlns="http://www.w3.org/2000/svg" xmlns:xlink="http://www.w3.org/1999/xlink" x="0px" y="0px"
	 width="100%" viewBox="0 0 2154 540" enable-background="new 0 0 2154 540" xml:space="preserve">
<path fill="#E6E5E5" opacity="1.000000" stroke="none" 
	d="
M2155.000000,208.999985 
	C2155.000000,319.602600 2155.000000,430.205200 2155.000000,541.000000 
	C2024.306519,541.000000 1893.613037,541.000000 1762.507568,540.533447 
	C1762.095703,498.699860 1762.095703,457.332886 1762.095703,415.389526 
	C1763.397095,416.138428 1763.850464,416.330933 1764.224731,416.624359 
	C1790.515259,437.239441 1820.422485,443.638367 1853.045654,439.053223 
	C1885.506470,434.490875 1912.063843,419.213043 1932.656250,393.877502 
	C1951.696411,370.451782 1960.894653,342.986511 1964.303711,313.311127 
	C1967.976074,281.344604 1965.178589,250.147430 1952.791138,220.233109 
	C1933.707397,174.147659 1893.540161,143.718811 1844.199341,143.619766 
	C1811.317993,143.553757 1782.362061,153.191574 1758.578247,176.546295 
	C1758.096558,177.019180 1757.446289,177.320496 1756.564087,177.909042 
	C1755.979858,168.224319 1755.431885,159.142136 1754.875488,149.920776 
	C1733.766479,149.920776 1713.054321,149.920776 1692.230713,149.920776 
	C1692.230713,152.695831 1692.171021,155.167145 1692.239746,157.634872 
	C1693.056641,186.943588 1694.517212,216.249817 1694.609497,245.560471 
	C1694.913696,342.049561 1694.722412,438.540222 1694.735596,535.030273 
	C1694.735840,537.020203 1694.907959,539.010071 1695.000000,541.000000 
	C1132.306519,541.000000 569.612915,541.000000 6.459398,540.532166 
	C5.999366,400.615540 5.998636,261.166779 6.005812,121.717995 
	C6.005923,119.554420 6.103359,117.390854 6.604199,115.328232 
	C44.145588,115.429184 81.238152,115.429184 118.851936,115.429184 
	C118.851936,225.428253 118.851936,334.633972 118.851936,443.964111 
	C148.278656,443.964111 177.179535,443.964111 206.552551,443.964111 
	C206.552551,389.064270 206.552551,334.444641 206.552551,279.824982 
	C206.552551,225.235168 206.552551,170.645370 206.552551,115.420517 
	C244.544678,115.420517 281.914795,115.420517 319.243225,115.420517 
	C319.243225,88.562958 319.243225,62.344688 319.243225,35.833858 
	C317.209320,35.833858 315.556671,35.833855 313.903992,35.833855 
	C213.264801,35.833855 112.625618,35.833069 11.986429,35.840675 
	C10.323792,35.840801 8.661165,35.943111 6.802844,35.896889 
	C6.607155,35.796036 6.169316,35.749573 6.101724,35.302307 
	C6.034131,24.274899 6.034131,13.694751 6.034131,2.999325 
	C8.532491,2.999325 10.356787,2.999325 12.181083,2.999325 
	C497.216980,2.999325 982.252930,2.999169 1467.288818,3.004660 
	C1469.286743,3.004683 1471.284668,3.085605 1473.091309,3.415483 
	C1428.327148,48.643646 1382.782349,92.671944 1339.461914,138.789841 
	C1298.247925,182.665344 1283.902344,236.233185 1293.341309,295.412903 
	C1300.609619,340.982941 1322.988037,378.772888 1359.635986,406.906891 
	C1416.991455,450.937683 1480.587646,462.484253 1548.112915,435.153900 
	C1641.374146,397.407104 1686.337036,290.136536 1650.238037,196.240616 
	C1642.525269,176.179138 1631.688843,157.889832 1617.433228,141.771576 
	C1611.096313,134.606583 1606.261230,134.155441 1598.792725,140.054459 
	C1592.803345,144.785172 1587.115723,149.995651 1581.858032,155.528931 
	C1575.877075,161.823257 1575.802734,167.289856 1580.639038,174.453461 
	C1582.220337,176.795502 1584.050293,178.968033 1585.703979,181.263046 
	C1608.979248,213.563477 1618.902222,249.282883 1611.742188,288.771454 
	C1606.007690,320.397278 1590.083374,346.527679 1565.484741,367.155670 
	C1534.895142,392.807709 1499.584351,404.453003 1459.816040,399.781433 
	C1424.831299,395.671722 1395.462646,379.658630 1372.579102,352.906921 
	C1338.593384,313.176025 1328.982422,268.221680 1346.127075,218.319824 
	C1353.068115,198.116699 1365.222534,181.163910 1379.967529,165.872177 
	C1401.574951,143.463486 1421.920776,119.807259 1446.767456,100.682899 
	C1467.781494,84.508537 1477.591797,62.638538 1476.949951,36.353642 
	C1476.679199,25.259411 1474.771606,14.205149 1474.097900,3.072784 
	C1701.391724,3.008565 1928.195923,3.004282 2155.000000,3.000000 
	C2155.000000,52.026867 2155.000000,101.053734 2154.959229,149.983704 
	C2154.548828,149.844955 2154.178955,149.803116 2153.421631,149.700470 
	C2130.429199,149.639648 2107.824463,149.639648 2084.897949,149.639648 
	C2084.897949,123.015465 2084.897949,97.054893 2084.897949,70.409302 
	C2062.353516,76.426010 2040.284058,82.315933 2017.789795,88.319244 
	C2017.789795,108.820061 2017.789795,129.046555 2017.789795,149.802246 
	C2003.875610,149.802246 1990.482910,149.802246 1977.042603,149.802246 
	C1977.042603,168.758469 1977.042603,187.171967 1977.042603,206.194061 
	C1990.819214,206.194061 2004.357910,206.194061 2017.987671,206.194061 
	C2017.987671,251.623276 2017.673096,296.445831 2018.174683,341.259247 
	C2018.329956,355.151733 2019.618896,369.232483 2022.298340,382.851379 
	C2026.998779,406.743317 2040.636108,424.751617 2063.697998,433.507782 
	C2092.189209,444.325287 2120.851318,441.734283 2148.932617,430.909088 
	C2150.123535,430.449860 2151.252441,427.925507 2151.189941,426.413879 
	C2150.596436,412.104401 2149.751221,397.805237 2148.944336,383.505005 
	C2148.788330,380.737610 2148.482422,377.978699 2148.205322,374.746887 
	C2145.556885,375.456726 2143.540039,376.214355 2141.457031,376.519104 
	C2130.961914,378.054718 2120.485840,380.213776 2109.933105,380.733734 
	C2098.105713,381.316528 2090.555420,375.371185 2087.919189,363.812378 
	C2086.087646,355.781952 2085.116699,347.387451 2085.064209,339.147339 
	C2084.791504,296.327698 2084.937256,253.505417 2084.937256,210.684067 
	C2084.937256,209.242279 2084.937256,207.800491 2084.937256,206.000854 
	C2108.251709,206.000854 2131.042969,206.000854 2153.909668,206.388321 
	C2154.323730,207.517181 2154.661865,208.258575 2155.000000,208.999985 
M988.472717,156.841858 
	C980.518433,153.092148 972.800171,148.691422 964.568481,145.706833 
	C931.114014,133.577209 896.806519,130.963425 861.865601,137.922440 
	C824.060608,145.451874 792.478210,163.427414 768.921082,194.345993 
	C763.151550,201.918411 758.341797,210.222061 752.649902,218.858398 
	C752.649902,216.688187 752.649841,215.106979 752.649841,213.525757 
	C752.649841,192.695190 752.649841,171.864639 752.649841,151.034073 
	C752.649841,139.842163 752.641907,139.871918 741.858032,136.964813 
	C714.743591,129.655319 689.828613,134.529938 666.883301,150.419922 
	C665.310364,151.509186 663.724182,152.579239 661.161011,154.329636 
	C661.161011,148.906876 661.161011,144.519714 661.161011,140.213165 
	C633.230225,140.213165 606.016174,140.213165 578.871277,140.213165 
	C584.794800,241.308899 580.913879,342.136627 582.147705,442.908081 
	C582.151245,443.198669 582.409973,443.486084 582.632019,443.945831 
	C611.278137,443.945831 639.995422,443.945831 669.112976,443.945831 
	C669.112976,441.684113 669.112976,439.718964 669.112976,437.753815 
	C669.112976,387.260559 668.905579,336.765686 669.288818,286.275360 
	C669.364990,276.229614 670.690552,265.938171 673.214600,256.221039 
	C678.009583,237.761810 688.371094,223.480484 708.330994,219.330658 
	C722.811340,216.320099 736.415283,221.817978 750.329407,224.658661 
	C750.152527,225.694290 750.156494,226.206512 749.977356,226.643600 
	C738.230713,255.285889 734.722290,284.998199 737.969788,315.697845 
	C741.233154,346.547455 751.243225,374.678406 771.245056,398.691437 
	C795.920349,428.315063 828.191467,444.021790 866.074219,448.257782 
	C907.185852,452.854797 946.666321,447.302429 983.597595,427.485382 
	C987.008118,425.655334 987.506287,423.748230 986.727478,420.492188 
	C984.717468,412.088898 982.851379,403.651184 980.923279,395.228241 
	C977.562073,380.544525 974.197327,365.861633 970.791382,350.992279 
	C965.529297,353.308685 960.613159,355.333466 955.815918,357.608856 
	C935.856018,367.075897 915.166016,373.295685 892.764343,371.882446 
	C866.057495,370.197662 845.325989,358.500824 833.973755,333.809326 
	C820.945740,305.472687 821.690247,276.585968 834.929016,248.409149 
	C842.092346,233.163040 854.169678,222.265671 870.180542,217.045807 
	C896.806946,208.364960 922.956604,210.094269 947.924500,223.462433 
	C954.283630,226.867218 960.482666,230.570999 967.137329,234.354584 
	C972.549805,215.947891 977.812805,198.294571 982.912170,180.594116 
	C985.144409,172.845764 987.042053,165.001022 988.472717,156.841858 
M1024.500000,444.250854 
	C1046.098267,444.250854 1067.696533,444.250854 1089.742188,444.250854 
	C1089.742188,441.653625 1089.740967,439.689301 1089.742310,437.724945 
	C1089.780151,379.240295 1089.770630,320.755554 1089.884399,262.271057 
	C1089.920898,243.500168 1098.866455,229.443878 1114.417969,219.786392 
	C1139.934448,203.940781 1167.753174,214.236023 1175.937622,242.945343 
	C1178.720093,252.706161 1179.585449,263.286926 1179.650024,273.503601 
	C1179.996338,328.321106 1179.813477,383.141998 1179.813599,437.961700 
	C1179.813599,439.910614 1179.813721,441.859528 1179.813721,443.991455 
	C1209.243652,443.991455 1238.147217,443.991455 1267.548340,443.991455 
	C1267.548340,441.769470 1267.548340,439.802948 1267.548340,437.836456 
	C1267.548340,386.349243 1267.660400,334.861664 1267.474976,283.375122 
	C1267.424072,269.238647 1267.237915,255.027512 1265.789062,240.987350 
	C1263.017212,214.127457 1254.178467,189.448471 1235.952026,168.895508 
	C1203.454224,132.249588 1147.676514,123.100388 1101.881348,146.764771 
	C1097.970947,148.785446 1094.119263,150.920044 1089.613159,153.338287 
	C1089.613159,107.170578 1089.613159,61.747055 1089.613159,16.284567 
	C1060.168945,16.284567 1031.146973,16.284567 1002.277954,16.284567 
	C1002.277954,159.097595 1002.277954,301.493073 1002.277954,444.250854 
	C1009.556152,444.250854 1016.528137,444.250854 1024.500000,444.250854 
M262.766846,272.141815 
	C259.721558,297.597992 261.560822,322.704559 268.925110,347.255890 
	C279.948242,384.005432 301.080444,413.247528 335.016388,431.969696 
	C371.800751,452.263245 411.004700,455.432404 451.074249,444.466980 
	C496.894531,431.927734 529.983093,403.716492 547.774780,359.359314 
	C563.797119,319.413574 564.729004,278.252380 553.059387,236.996277 
	C544.831238,207.906769 529.260498,183.128067 505.224060,164.457962 
	C465.551208,133.642395 420.384552,127.210068 372.825195,138.684418 
	C304.438904,155.183548 268.920959,212.317505 262.766846,272.141815 
M1517.482666,103.032837 
	C1517.903564,119.195190 1534.772095,128.346970 1548.369141,124.698181 
	C1559.460205,121.721893 1566.302124,113.520630 1566.875366,101.671783 
	C1567.445435,89.887451 1562.137085,80.938782 1552.474243,77.394859 
	C1533.387695,70.394714 1517.183105,81.841408 1517.482666,103.032837 
z"/>
<path fill="#0101F5" opacity="1.000000" stroke="none" 
	d="
M1695.468628,541.000000 
	C1694.907959,539.010071 1694.735840,537.020203 1694.735596,535.030273 
	C1694.722412,438.540222 1694.913696,342.049561 1694.609497,245.560471 
	C1694.517212,216.249817 1693.056641,186.943588 1692.239746,157.634872 
	C1692.171021,155.167145 1692.230713,152.695831 1692.230713,149.920776 
	C1713.054321,149.920776 1733.766479,149.920776 1754.875488,149.920776 
	C1755.431885,159.142136 1755.979858,168.224319 1756.564087,177.909042 
	C1757.446289,177.320496 1758.096558,177.019180 1758.578247,176.546295 
	C1782.362061,153.191574 1811.317993,143.553757 1844.199341,143.619766 
	C1893.540161,143.718811 1933.707397,174.147659 1952.791138,220.233109 
	C1965.178589,250.147430 1967.976074,281.344604 1964.303711,313.311127 
	C1960.894653,342.986511 1951.696411,370.451782 1932.656250,393.877502 
	C1912.063843,419.213043 1885.506470,434.490875 1853.045654,439.053223 
	C1820.422485,443.638367 1790.515259,437.239441 1764.224731,416.624359 
	C1763.850464,416.330933 1763.397095,416.138428 1762.095703,415.389526 
	C1762.095703,457.332886 1762.095703,498.699860 1762.047852,540.533447 
	C1739.979126,541.000000 1717.958130,541.000000 1695.468628,541.000000 
M1762.110596,274.561493 
	C1762.111084,288.716553 1761.808716,302.880920 1762.241699,317.022705 
	C1762.453613,323.942078 1763.006348,331.162079 1765.172852,337.656128 
	C1774.032104,364.211884 1792.906738,379.822937 1820.587402,382.597412 
	C1847.969604,385.341980 1869.648560,374.396851 1883.773071,350.258820 
	C1895.060425,330.969299 1897.885498,309.636261 1897.580688,287.760406 
	C1897.332275,269.926514 1893.798706,252.781342 1885.426025,236.834167 
	C1867.557495,202.801071 1827.207520,191.047089 1795.751099,211.244812 
	C1773.254883,225.689331 1763.401978,247.447983 1762.110596,274.561493 
z"/>
<path fill="#0E0E0E" opacity="1.000000" stroke="none" 
	d="
M1473.282593,3.128745 
	C1471.284668,3.085605 1469.286743,3.004683 1467.288818,3.004660 
	C982.252930,2.999169 497.216980,2.999325 12.181083,2.999325 
	C10.356787,2.999325 8.532491,2.999325 6.034131,2.999325 
	C6.034131,13.694751 6.034131,24.274899 6.044578,35.787045 
	C6.084507,62.563564 6.113988,88.408089 6.099908,114.414703 
	C6.026519,114.803215 6.059530,115.020042 6.155375,115.227280 
	C6.103359,117.390854 6.005923,119.554420 6.005812,121.717995 
	C5.998636,261.166779 5.999366,400.615540 5.999694,540.532166 
	C4.333333,541.000000 2.666667,541.000000 1.000000,541.000000 
	C1.000000,361.000000 1.000000,181.000000 1.000000,1.000000 
	C717.500000,1.000000 1434.000000,0.999389 2150.500000,1.041160 
	C2152.000000,1.041248 2153.500000,1.666666 2155.000000,2.500000 
	C1928.195923,3.004282 1701.391724,3.008565 1474.018311,3.001865 
	C1473.449097,2.990882 1473.282593,3.128745 1473.282593,3.128745 
z"/>
<path fill="#0E0E0E" opacity="1.000000" stroke="none" 
	d="
M2153.809570,149.761276 
	C2154.178955,149.803116 2154.548828,149.844955 2154.959229,150.443390 
	C2155.000000,170.020889 2155.000000,189.041794 2155.000000,208.531326 
	C2154.661865,208.258575 2154.323730,207.517181 2153.977539,205.924469 
	C2153.916016,186.635849 2153.862793,168.198563 2153.809570,149.761276 
z"/>
<path fill="#E4553A" opacity="1.000000" stroke="none" 
	d="
M1473.091309,3.415483 
	C1473.282593,3.128745 1473.449097,2.990882 1473.528564,3.061801 
	C1474.771606,14.205149 1476.679199,25.259411 1476.949951,36.353642 
	C1477.591797,62.638538 1467.781494,84.508537 1446.767456,100.682899 
	C1421.920776,119.807259 1401.574951,143.463486 1379.967529,165.872177 
	C1365.222534,181.163910 1353.068115,198.116699 1346.127075,218.319824 
	C1328.982422,268.221680 1338.593384,313.176025 1372.579102,352.906921 
	C1395.462646,379.658630 1424.831299,395.671722 1459.816040,399.781433 
	C1499.584351,404.453003 1534.895142,392.807709 1565.484741,367.155670 
	C1590.083374,346.527679 1606.007690,320.397278 1611.742188,288.771454 
	C1618.902222,249.282883 1608.979248,213.563477 1585.703979,181.263046 
	C1584.050293,178.968033 1582.220337,176.795502 1580.639038,174.453461 
	C1575.802734,167.289856 1575.877075,161.823257 1581.858032,155.528931 
	C1587.115723,149.995651 1592.803345,144.785172 1598.792725,140.054459 
	C1606.261230,134.155441 1611.096313,134.606583 1617.433228,141.771576 
	C1631.688843,157.889832 1642.525269,176.179138 1650.238037,196.240616 
	C1686.337036,290.136536 1641.374146,397.407104 1548.112915,435.153900 
	C1480.587646,462.484253 1416.991455,450.937683 1359.635986,406.906891 
	C1322.988037,378.772888 1300.609619,340.982941 1293.341309,295.412903 
	C1283.902344,236.233185 1298.247925,182.665344 1339.461914,138.789841 
	C1382.782349,92.671944 1428.327148,48.643646 1473.091309,3.415483 
z"/>
<path fill="#0303F5" opacity="1.000000" stroke="none" 
	d="
M988.782166,157.020966 
	C987.042053,165.001022 985.144409,172.845764 982.912170,180.594116 
	C977.812805,198.294571 972.549805,215.947891 967.137329,234.354584 
	C960.482666,230.570999 954.283630,226.867218 947.924500,223.462433 
	C922.956604,210.094269 896.806946,208.364960 870.180542,217.045807 
	C854.169678,222.265671 842.092346,233.163040 834.929016,248.409149 
	C821.690247,276.585968 820.945740,305.472687 833.973755,333.809326 
	C845.325989,358.500824 866.057495,370.197662 892.764343,371.882446 
	C915.166016,373.295685 935.856018,367.075897 955.815918,357.608856 
	C960.613159,355.333466 965.529297,353.308685 970.791382,350.992279 
	C974.197327,365.861633 977.562073,380.544525 980.923279,395.228241 
	C982.851379,403.651184 984.717468,412.088898 986.727478,420.492188 
	C987.506287,423.748230 987.008118,425.655334 983.597595,427.485382 
	C946.666321,447.302429 907.185852,452.854797 866.074219,448.257782 
	C828.191467,444.021790 795.920349,428.315063 771.245056,398.691437 
	C751.243225,374.678406 741.233154,346.547455 737.969788,315.697845 
	C734.722290,284.998199 738.230713,255.285889 749.977356,226.643600 
	C750.156494,226.206512 750.152527,225.694290 750.329407,224.658661 
	C736.415283,221.817978 722.811340,216.320099 708.330994,219.330658 
	C688.371094,223.480484 678.009583,237.761810 673.214600,256.221039 
	C670.690552,265.938171 669.364990,276.229614 669.288818,286.275360 
	C668.905579,336.765686 669.112976,387.260559 669.112976,437.753815 
	C669.112976,439.718964 669.112976,441.684113 669.112976,443.945831 
	C639.995422,443.945831 611.278137,443.945831 582.632019,443.945831 
	C582.409973,443.486084 582.151245,443.198669 582.147705,442.908081 
	C580.913879,342.136627 584.794800,241.308899 578.871277,140.213165 
	C606.016174,140.213165 633.230225,140.213165 661.161011,140.213165 
	C661.161011,144.519714 661.161011,148.906876 661.161011,154.329636 
	C663.724182,152.579239 665.310364,151.509186 666.883301,150.419922 
	C689.828613,134.529938 714.743591,129.655319 741.858032,136.964813 
	C752.641907,139.871918 752.649841,139.842163 752.649841,151.034073 
	C752.649841,171.864639 752.649841,192.695190 752.649841,213.525757 
	C752.649841,215.106979 752.649902,216.688187 752.649902,218.858398 
	C758.341797,210.222061 763.151550,201.918411 768.921082,194.345993 
	C792.478210,163.427414 824.060608,145.451874 861.865601,137.922440 
	C896.806519,130.963425 931.114014,133.577209 964.568481,145.706833 
	C972.800171,148.691422 980.518433,153.092148 988.782166,157.020966 
M781.457397,211.015259 
	C779.750244,213.671982 777.895203,216.246109 776.358093,218.997803 
	C752.939880,260.920105 749.969238,305.003448 766.240234,349.453918 
	C784.041260,398.084351 821.213745,423.223999 872.032410,429.110168 
	C890.046875,431.196716 907.975098,429.948212 925.747925,426.869476 
	C939.308533,424.520416 952.616760,421.061371 965.029297,414.671051 
	C962.271606,402.614166 959.578918,390.841522 956.843506,378.882019 
	C955.543762,379.346008 954.590271,379.623810 953.687561,380.017822 
	C932.081116,389.449188 909.628052,393.507019 886.053223,391.081299 
	C864.345642,388.847656 845.628174,380.438446 830.752014,364.350220 
	C812.628479,344.750122 805.780884,320.807953 805.394226,294.751801 
	C804.997620,268.032013 810.911865,243.012207 829.053589,222.500626 
	C855.121704,193.027298 888.895386,188.259430 925.388672,194.689743 
	C935.529053,196.476532 945.289246,200.420944 955.583313,203.482391 
	C958.944092,192.058350 962.488708,180.009399 966.136841,167.608810 
	C963.771912,166.602386 961.697632,165.617508 959.553040,164.822449 
	C929.847900,153.809525 899.411865,151.119843 868.252930,156.921829 
	C832.537537,163.572250 803.336731,180.745499 781.457397,211.015259 
M649.515686,396.500244 
	C649.515747,359.350159 649.515442,322.200104 649.515869,285.050018 
	C649.516052,271.483887 651.272095,258.197296 655.718994,245.319504 
	C664.330688,220.380524 685.105103,196.636856 721.811279,199.043915 
	C725.380859,199.277985 728.943054,199.624619 732.552734,199.922623 
	C732.552734,184.756378 732.552734,170.007675 732.552734,155.360428 
	C723.230347,152.300400 710.428650,152.782272 699.330078,156.314728 
	C682.036011,161.819077 668.587769,172.444656 657.929504,186.922699 
	C653.374084,193.110779 648.631653,199.161148 643.974243,205.274109 
	C643.464783,205.113144 642.955261,204.952179 642.445801,204.791214 
	C642.445801,189.864777 642.445801,174.938324 642.445801,159.718506 
	C627.784241,159.718506 614.042053,159.718506 601.205078,159.718506 
	C601.205078,248.069260 601.205078,336.221985 601.205078,424.533386 
	C618.001221,424.533386 633.430176,424.533386 649.515442,424.533386 
	C649.515442,415.391998 649.515442,406.446136 649.515686,396.500244 
z"/>
<path fill="#0404F5" opacity="1.000000" stroke="none" 
	d="
M1024.000000,444.250854 
	C1016.528137,444.250854 1009.556152,444.250854 1002.277954,444.250854 
	C1002.277954,301.493073 1002.277954,159.097595 1002.277954,16.284567 
	C1031.146973,16.284567 1060.168945,16.284567 1089.613159,16.284567 
	C1089.613159,61.747055 1089.613159,107.170578 1089.613159,153.338287 
	C1094.119263,150.920044 1097.970947,148.785446 1101.881348,146.764771 
	C1147.676514,123.100388 1203.454224,132.249588 1235.952026,168.895508 
	C1254.178467,189.448471 1263.017212,214.127457 1265.789062,240.987350 
	C1267.237915,255.027512 1267.424072,269.238647 1267.474976,283.375122 
	C1267.660400,334.861664 1267.548340,386.349243 1267.548340,437.836456 
	C1267.548340,439.802948 1267.548340,441.769470 1267.548340,443.991455 
	C1238.147217,443.991455 1209.243652,443.991455 1179.813721,443.991455 
	C1179.813721,441.859528 1179.813599,439.910614 1179.813599,437.961700 
	C1179.813477,383.141998 1179.996338,328.321106 1179.650024,273.503601 
	C1179.585449,263.286926 1178.720093,252.706161 1175.937622,242.945343 
	C1167.753174,214.236023 1139.934448,203.940781 1114.417969,219.786392 
	C1098.866455,229.443878 1089.920898,243.500168 1089.884399,262.271057 
	C1089.770630,320.755554 1089.780151,379.240295 1089.742310,437.724945 
	C1089.740967,439.689301 1089.742188,441.653625 1089.742188,444.250854 
	C1067.696533,444.250854 1046.098267,444.250854 1024.000000,444.250854 
M1021.711121,157.499893 
	C1021.711121,246.427780 1021.711121,335.355682 1021.711121,424.372528 
	C1038.087158,424.372528 1053.811279,424.372528 1069.864136,424.372528 
	C1069.864136,422.032990 1069.863770,420.054871 1069.864380,418.076782 
	C1069.880737,365.580933 1069.838013,313.084900 1070.004395,260.589508 
	C1070.021118,255.321533 1070.515381,249.800400 1072.132690,244.834732 
	C1080.682983,218.583954 1097.406616,200.390182 1125.225708,194.765839 
	C1152.965088,189.157639 1181.167358,199.150986 1192.872192,230.335358 
	C1198.048096,244.125061 1199.549927,258.469177 1199.588989,272.987305 
	C1199.719604,321.483337 1199.638672,369.979919 1199.638672,418.476288 
	C1199.638672,420.411987 1199.638550,422.347656 1199.638550,424.414062 
	C1216.043213,424.414062 1231.778076,424.414062 1247.699707,424.414062 
	C1247.780518,422.966705 1247.899170,421.829132 1247.899414,420.691589 
	C1247.907959,368.528839 1248.090454,316.365082 1247.802612,264.203918 
	C1247.705933,246.685013 1245.358276,229.331528 1238.864990,212.855911 
	C1225.210449,178.209244 1200.384155,157.418137 1162.866943,153.961548 
	C1132.951416,151.205322 1107.412476,162.033218 1085.602173,182.207748 
	C1080.531738,186.897797 1075.634644,191.775253 1069.758301,197.432434 
	C1069.758301,142.849655 1069.758301,89.487961 1069.758301,36.199577 
	C1053.442261,36.199577 1037.696411,36.199577 1021.711060,36.199577 
	C1021.711060,76.534103 1021.711060,116.516991 1021.711121,157.499893 
z"/>
<path fill="#0101F5" opacity="1.000000" stroke="none" 
	d="
M2153.421875,149.700470 
	C2153.862793,168.198563 2153.916016,186.635849 2153.901855,205.536987 
	C2131.042969,206.000854 2108.251709,206.000854 2084.937256,206.000854 
	C2084.937256,207.800491 2084.937256,209.242279 2084.937256,210.684067 
	C2084.937256,253.505417 2084.791504,296.327698 2085.064209,339.147339 
	C2085.116699,347.387451 2086.087646,355.781952 2087.919189,363.812378 
	C2090.555420,375.371185 2098.105713,381.316528 2109.933105,380.733734 
	C2120.485840,380.213776 2130.961914,378.054718 2141.457031,376.519104 
	C2143.540039,376.214355 2145.556885,375.456726 2148.205322,374.746887 
	C2148.482422,377.978699 2148.788330,380.737610 2148.944336,383.505005 
	C2149.751221,397.805237 2150.596436,412.104401 2151.189941,426.413879 
	C2151.252441,427.925507 2150.123535,430.449860 2148.932617,430.909088 
	C2120.851318,441.734283 2092.189209,444.325287 2063.697998,433.507782 
	C2040.636108,424.751617 2026.998779,406.743317 2022.298340,382.851379 
	C2019.618896,369.232483 2018.329956,355.151733 2018.174683,341.259247 
	C2017.673096,296.445831 2017.987671,251.623276 2017.987671,206.194061 
	C2004.357910,206.194061 1990.819214,206.194061 1977.042603,206.194061 
	C1977.042603,187.171967 1977.042603,168.758469 1977.042603,149.802246 
	C1990.482910,149.802246 2003.875610,149.802246 2017.789795,149.802246 
	C2017.789795,129.046555 2017.789795,108.820061 2017.789795,88.319244 
	C2040.284058,82.315933 2062.353516,76.426010 2084.897949,70.409302 
	C2084.897949,97.054893 2084.897949,123.015465 2084.897949,149.639648 
	C2107.824463,149.639648 2130.429199,149.639648 2153.421875,149.700470 
z"/>
<path fill="#0202F5" opacity="1.000000" stroke="none" 
	d="
M6.604199,115.328232 
	C6.059530,115.020042 6.026519,114.803215 6.325475,114.038399 
	C6.692412,111.521805 6.871078,109.543816 6.875710,107.565407 
	C6.931565,83.709557 6.961697,59.853642 6.998533,35.997742 
	C8.661165,35.943111 10.323792,35.840801 11.986429,35.840675 
	C112.625618,35.833069 213.264801,35.833855 313.903992,35.833855 
	C315.556671,35.833855 317.209320,35.833858 319.243225,35.833858 
	C319.243225,62.344688 319.243225,88.562958 319.243225,115.420517 
	C281.914795,115.420517 244.544678,115.420517 206.552551,115.420517 
	C206.552551,170.645370 206.552551,225.235168 206.552551,279.824982 
	C206.552551,334.444641 206.552551,389.064270 206.552551,443.964111 
	C177.179535,443.964111 148.278656,443.964111 118.851936,443.964111 
	C118.851936,334.633972 118.851936,225.428253 118.851936,115.429184 
	C81.238152,115.429184 44.145588,115.429184 6.604199,115.328232 
M55.499992,95.921188 
	C83.066200,95.921188 110.632401,95.921188 138.697693,95.921188 
	C138.697693,205.974777 138.697693,315.211548 138.697693,424.381256 
	C154.948456,424.381256 170.689438,424.381256 186.897171,424.381256 
	C186.897171,314.789581 186.897171,205.565323 186.897171,95.769730 
	C224.744476,95.769730 262.122711,95.769730 299.578217,95.769730 
	C299.578217,82.111084 299.578217,69.026825 299.578217,55.784668 
	C208.301285,55.784668 117.290115,55.784668 26.325939,55.784668 
	C26.325939,69.292587 26.325939,82.386429 26.325939,95.921181 
	C35.912476,95.921181 45.206230,95.921181 55.499992,95.921188 
z"/>
<path fill="#0303F5" opacity="1.000000" stroke="none" 
	d="
M262.806061,271.689880 
	C268.920959,212.317505 304.438904,155.183548 372.825195,138.684418 
	C420.384552,127.210068 465.551208,133.642395 505.224060,164.457962 
	C529.260498,183.128067 544.831238,207.906769 553.059387,236.996277 
	C564.729004,278.252380 563.797119,319.413574 547.774780,359.359314 
	C529.983093,403.716492 496.894531,431.927734 451.074249,444.466980 
	C411.004700,455.432404 371.800751,452.263245 335.016388,431.969696 
	C301.080444,413.247528 279.948242,384.005432 268.925110,347.255890 
	C261.560822,322.704559 259.721558,297.597992 262.806061,271.689880 
M512.146912,381.632751 
	C515.055908,377.378571 518.253235,373.291290 520.827881,368.843597 
	C540.012939,335.701569 544.109619,299.883240 538.525574,262.700378 
	C533.748169,230.889099 520.221680,203.282028 495.272675,182.359756 
	C465.693909,157.554886 431.101410,149.809509 393.389587,154.948959 
	C347.593719,161.190094 314.664185,185.510040 295.178711,227.308426 
	C280.969421,257.788971 278.293671,289.977692 283.739349,322.959900 
	C288.781921,353.500916 301.678284,380.021851 325.193237,400.558624 
	C352.397888,424.317841 384.657318,433.054169 420.187378,429.989044 
	C457.214691,426.794708 488.115723,411.357452 512.146912,381.632751 
z"/>
<path fill="#E4563B" opacity="1.000000" stroke="none" 
	d="
M1517.431396,102.608795 
	C1517.183105,81.841408 1533.387695,70.394714 1552.474243,77.394859 
	C1562.137085,80.938782 1567.445435,89.887451 1566.875366,101.671783 
	C1566.302124,113.520630 1559.460205,121.721893 1548.369141,124.698181 
	C1534.772095,128.346970 1517.903564,119.195190 1517.431396,102.608795 
z"/>
<path fill="#5A59EF" opacity="1.000000" stroke="none" 
	d="
M6.802844,35.896889 
	C6.961697,59.853642 6.931565,83.709557 6.875710,107.565407 
	C6.871078,109.543816 6.692412,111.521805 6.369038,113.876297 
	C6.113988,88.408089 6.084507,62.563564 6.112171,36.234306 
	C6.169316,35.749573 6.607155,35.796036 6.802844,35.896889 
z"/>
<path fill="#E5E4E5" opacity="1.000000" stroke="none" 
	d="
M1762.110596,274.073181 
	C1763.401978,247.447983 1773.254883,225.689331 1795.751099,211.244812 
	C1827.207520,191.047089 1867.557495,202.801071 1885.426025,236.834167 
	C1893.798706,252.781342 1897.332275,269.926514 1897.580688,287.760406 
	C1897.885498,309.636261 1895.060425,330.969299 1883.773071,350.258820 
	C1869.648560,374.396851 1847.969604,385.341980 1820.587402,382.597412 
	C1792.906738,379.822937 1774.032104,364.211884 1765.172852,337.656128 
	C1763.006348,331.162079 1762.453613,323.942078 1762.241699,317.022705 
	C1761.808716,302.880920 1762.111084,288.716553 1762.110596,274.073181 
z"/>
<path fill="#E5E4E5" opacity="1.000000" stroke="none" 
	d="
M781.691833,210.741699 
	C803.336731,180.745499 832.537537,163.572250 868.252930,156.921829 
	C899.411865,151.119843 929.847900,153.809525 959.553040,164.822449 
	C961.697632,165.617508 963.771912,166.602386 966.136841,167.608810 
	C962.488708,180.009399 958.944092,192.058350 955.583313,203.482391 
	C945.289246,200.420944 935.529053,196.476532 925.388672,194.689743 
	C888.895386,188.259430 855.121704,193.027298 829.053589,222.500626 
	C810.911865,243.012207 804.997620,268.032013 805.394226,294.751801 
	C805.780884,320.807953 812.628479,344.750122 830.752014,364.350220 
	C845.628174,380.438446 864.345642,388.847656 886.053223,391.081299 
	C909.628052,393.507019 932.081116,389.449188 953.687561,380.017822 
	C954.590271,379.623810 955.543762,379.346008 956.843506,378.882019 
	C959.578918,390.841522 962.271606,402.614166 965.029297,414.671051 
	C952.616760,421.061371 939.308533,424.520416 925.747925,426.869476 
	C907.975098,429.948212 890.046875,431.196716 872.032410,429.110168 
	C821.213745,423.223999 784.041260,398.084351 766.240234,349.453918 
	C749.969238,305.003448 752.939880,260.920105 776.358093,218.997803 
	C777.895203,216.246109 779.750244,213.671982 781.691833,210.741699 
z"/>
<path fill="#E4E3E5" opacity="1.000000" stroke="none" 
	d="
M649.515564,397.000244 
	C649.515442,406.446136 649.515442,415.391998 649.515442,424.533386 
	C633.430176,424.533386 618.001221,424.533386 601.205078,424.533386 
	C601.205078,336.221985 601.205078,248.069260 601.205078,159.718506 
	C614.042053,159.718506 627.784241,159.718506 642.445801,159.718506 
	C642.445801,174.938324 642.445801,189.864777 642.445801,204.791214 
	C642.955261,204.952179 643.464783,205.113144 643.974243,205.274109 
	C648.631653,199.161148 653.374084,193.110779 657.929504,186.922699 
	C668.587769,172.444656 682.036011,161.819077 699.330078,156.314728 
	C710.428650,152.782272 723.230347,152.300400 732.552734,155.360428 
	C732.552734,170.007675 732.552734,184.756378 732.552734,199.922623 
	C728.943054,199.624619 725.380859,199.277985 721.811279,199.043915 
	C685.105103,196.636856 664.330688,220.380524 655.718994,245.319504 
	C651.272095,258.197296 649.516052,271.483887 649.515869,285.050018 
	C649.515442,322.200104 649.515747,359.350159 649.515564,397.000244 
z"/>
<path fill="#E5E4E5" opacity="1.000000" stroke="none" 
	d="
M1021.711060,156.999878 
	C1021.711060,116.516991 1021.711060,76.534103 1021.711060,36.199577 
	C1037.696411,36.199577 1053.442261,36.199577 1069.758301,36.199577 
	C1069.758301,89.487961 1069.758301,142.849655 1069.758301,197.432434 
	C1075.634644,191.775253 1080.531738,186.897797 1085.602173,182.207748 
	C1107.412476,162.033218 1132.951416,151.205322 1162.866943,153.961548 
	C1200.384155,157.418137 1225.210449,178.209244 1238.864990,212.855911 
	C1245.358276,229.331528 1247.705933,246.685013 1247.802612,264.203918 
	C1248.090454,316.365082 1247.907959,368.528839 1247.899414,420.691589 
	C1247.899170,421.829132 1247.780518,422.966705 1247.699707,424.414062 
	C1231.778076,424.414062 1216.043213,424.414062 1199.638550,424.414062 
	C1199.638550,422.347656 1199.638672,420.411987 1199.638672,418.476288 
	C1199.638672,369.979919 1199.719604,321.483337 1199.588989,272.987305 
	C1199.549927,258.469177 1198.048096,244.125061 1192.872192,230.335358 
	C1181.167358,199.150986 1152.965088,189.157639 1125.225708,194.765839 
	C1097.406616,200.390182 1080.682983,218.583954 1072.132690,244.834732 
	C1070.515381,249.800400 1070.021118,255.321533 1070.004395,260.589508 
	C1069.838013,313.084900 1069.880737,365.580933 1069.864380,418.076782 
	C1069.863770,420.054871 1069.864136,422.032990 1069.864136,424.372528 
	C1053.811279,424.372528 1038.087158,424.372528 1021.711121,424.372528 
	C1021.711121,335.355682 1021.711121,246.427780 1021.711060,156.999878 
z"/>
<path fill="#E2E1E5" opacity="1.000000" stroke="none" 
	d="
M54.999989,95.921188 
	C45.206230,95.921181 35.912476,95.921181 26.325939,95.921181 
	C26.325939,82.386429 26.325939,69.292587 26.325939,55.784668 
	C117.290115,55.784668 208.301285,55.784668 299.578217,55.784668 
	C299.578217,69.026825 299.578217,82.111084 299.578217,95.769730 
	C262.122711,95.769730 224.744476,95.769730 186.897171,95.769730 
	C186.897171,205.565323 186.897171,314.789581 186.897171,424.381256 
	C170.689438,424.381256 154.948456,424.381256 138.697693,424.381256 
	C138.697693,315.211548 138.697693,205.974777 138.697693,95.921188 
	C110.632401,95.921188 83.066200,95.921188 54.999989,95.921188 
z"/>
<path fill="#E4E4E5" opacity="1.000000" stroke="none" 
	d="
M511.934875,381.918121 
	C488.115723,411.357452 457.214691,426.794708 420.187378,429.989044 
	C384.657318,433.054169 352.397888,424.317841 325.193237,400.558624 
	C301.678284,380.021851 288.781921,353.500916 283.739349,322.959900 
	C278.293671,289.977692 280.969421,257.788971 295.178711,227.308426 
	C314.664185,185.510040 347.593719,161.190094 393.389587,154.948959 
	C431.101410,149.809509 465.693909,157.554886 495.272675,182.359756 
	C520.221680,203.282028 533.748169,230.889099 538.525574,262.700378 
	C544.109619,299.883240 540.012939,335.701569 520.827881,368.843597 
	C518.253235,373.291290 515.055908,377.378571 511.934875,381.918121 
M330.338135,304.080017 
	C332.131592,323.552460 337.078064,342.009766 347.747406,358.660919 
	C367.083344,388.837738 400.550842,401.613953 433.408691,390.836090 
	C454.361450,383.963287 468.902069,369.347656 478.352051,349.924194 
	C494.940582,315.828156 495.378082,280.657745 483.289490,245.145462 
	C476.857300,226.249893 466.513458,209.930161 448.981476,199.361389 
	C419.198334,181.407288 369.446930,185.702698 345.784729,227.946915 
	C332.650330,251.395737 328.937805,276.739502 330.338135,304.080017 
z"/>
<path fill="#0303F5" opacity="1.000000" stroke="none" 
	d="
M330.304871,303.614075 
	C328.937805,276.739502 332.650330,251.395737 345.784729,227.946915 
	C369.446930,185.702698 419.198334,181.407288 448.981476,199.361389 
	C466.513458,209.930161 476.857300,226.249893 483.289490,245.145462 
	C495.378082,280.657745 494.940582,315.828156 478.352051,349.924194 
	C468.902069,369.347656 454.361450,383.963287 433.408691,390.836090 
	C400.550842,401.613953 367.083344,388.837738 347.747406,358.660919 
	C337.078064,342.009766 332.131592,323.552460 330.304871,303.614075 
M455.888275,233.670120 
	C444.203339,216.013489 427.759277,207.642929 406.683228,209.445145 
	C385.428314,211.262680 370.604645,222.999329 361.180023,241.598572 
	C349.643127,264.366333 347.514404,288.597839 351.570831,313.499908 
	C354.041168,328.664948 359.513214,342.651642 369.433167,354.611053 
	C392.541809,382.470612 431.998077,381.412933 453.579376,352.368225 
	C465.281586,336.619049 470.297485,318.619476 471.335236,299.279266 
	C472.576141,276.152466 468.440308,254.289917 455.888275,233.670120 
z"/>
<path fill="#E5E4E5" opacity="1.000000" stroke="none" 
	d="
M456.088013,233.971588 
	C468.440308,254.289917 472.576141,276.152466 471.335236,299.279266 
	C470.297485,318.619476 465.281586,336.619049 453.579376,352.368225 
	C431.998077,381.412933 392.541809,382.470612 369.433167,354.611053 
	C359.513214,342.651642 354.041168,328.664948 351.570831,313.499908 
	C347.514404,288.597839 349.643127,264.366333 361.180023,241.598572 
	C370.604645,222.999329 385.428314,211.262680 406.683228,209.445145 
	C427.759277,207.642929 444.203339,216.013489 456.088013,233.971588 
z"/>
</svg>