<svg version="1.1" id="Layer_1" xmlns="http://www.w3.org/2000/svg" xmlns:xlink="http://www.w3.org/1999/xlink" x="0px" y="0px"
	 width="100%" viewBox="1 1 2120 826" enable-background="new 0 0 2120 826" xml:space="preserve">
<path fill="#E6E5E5" opacity="1.000000" stroke="none" 
	d="
M1295.000000,827.000000 
	C863.333313,827.000000 432.166656,827.000000 1.000000,827.000000 
	C1.000000,551.666687 1.000000,276.333344 1.000000,1.000000 
	C707.666687,1.000000 1414.333374,1.000000 2121.000000,1.000000 
	C2121.000000,276.333344 2121.000000,551.666687 2121.000000,827.000000 
	C1845.833374,827.000000 1570.666626,827.000000 1295.000000,827.000000 
M476.992432,108.567657 
	C482.865692,90.239655 488.776550,71.923569 494.593536,53.577713 
	C496.893616,46.323509 492.572876,40.608448 485.870544,42.113537 
	C481.313568,43.136875 480.210205,47.234520 478.982880,51.072750 
	C473.318695,68.786110 467.627289,86.490776 461.173645,104.105530 
	C454.885559,102.047379 448.548889,100.123276 442.331451,97.870148 
	C439.544891,96.860306 437.942230,97.301582 436.166748,99.793274 
	C430.977539,107.075699 425.471954,114.132660 419.318695,121.114418 
	C415.832214,120.013908 412.376251,118.802582 408.853607,117.833488 
	C397.864410,114.810295 386.452759,120.972366 382.951843,131.733719 
	C379.333435,142.856125 384.916168,154.613022 395.735992,158.628006 
	C397.865570,159.418243 400.015808,160.152756 402.552155,161.053482 
	C398.616760,173.398453 394.837341,185.247269 391.062256,197.097473 
	C377.387054,240.024643 363.738983,282.960571 349.922028,325.842041 
	C349.482819,327.205139 347.435272,328.692413 345.929871,328.961945 
	C338.083466,330.366760 330.043671,330.850006 322.299133,332.640137 
	C247.051773,350.033600 204.156921,430.476196 231.467072,502.689758 
	C255.349823,565.840637 322.825714,599.682434 387.737793,581.065674 
	C442.396332,565.389587 480.977997,514.395569 480.452332,457.452026 
	C480.097260,418.988953 465.309143,386.630310 436.494263,360.977112 
	C433.524109,358.332855 432.971375,356.239319 434.163879,352.561249 
	C444.113861,321.872467 453.956940,291.147858 463.568085,260.351624 
	C465.083099,255.497177 466.760864,251.435028 472.472839,249.846207 
	C472.842194,249.653885 473.211517,249.461578 474.409393,249.223373 
	C483.865540,245.763901 493.321655,242.304428 503.346832,239.324738 
	C506.993408,247.997482 507.320343,248.702805 515.982544,244.687790 
	C530.776123,237.830826 545.964478,237.046875 561.716797,239.114899 
	C575.333679,240.902573 588.990723,242.383835 602.629333,244.006363 
	C612.980591,245.237778 623.328613,246.496399 633.682007,247.709549 
	C643.219177,248.827087 652.758118,249.931610 662.302612,250.984299 
	C672.669739,252.127731 683.050903,253.144928 693.413574,254.325714 
	C706.567322,255.824509 719.707031,257.446167 732.855713,258.989655 
	C746.496399,260.590851 760.138184,262.182892 773.783875,263.740082 
	C786.449280,265.185394 799.118408,266.597717 811.789612,267.991058 
	C824.954529,269.438660 838.129883,270.793976 851.289734,272.285828 
	C864.607971,273.795654 877.912842,275.422760 891.223511,276.999237 
	C901.739197,278.244690 912.253662,279.501373 922.770813,280.734497 
	C932.143677,281.833405 941.514526,282.952576 950.895325,283.980652 
	C964.389587,285.459534 977.902344,286.774689 991.388367,288.323486 
	C1007.006714,290.117126 1022.593994,292.183167 1038.214844,293.953400 
	C1051.704102,295.482086 1065.232910,296.661530 1078.723389,298.180389 
	C1091.877441,299.661377 1104.994995,301.464233 1118.146851,302.966980 
	C1133.936890,304.771179 1149.766602,306.242859 1165.533447,308.223480 
	C1169.881592,308.769714 1174.619019,309.746613 1178.220459,312.033478 
	C1188.172119,318.352844 1191.806030,328.313141 1191.202881,339.988098 
	C1190.045166,341.209900 1188.115356,342.290588 1187.861694,343.677704 
	C1186.699951,350.031219 1186.007446,356.470520 1184.260132,362.880554 
	C1179.216919,363.605621 1174.173706,364.330658 1169.160156,365.051453 
	C1169.160156,374.257233 1169.160156,382.850891 1169.160156,392.015076 
	C1174.489380,392.015076 1179.566895,392.015076 1184.715576,392.015076 
	C1184.715576,400.613922 1184.715576,408.633057 1184.715576,415.557190 
	C1171.771606,415.019928 1159.133423,413.542603 1146.597900,414.158630 
	C1112.757202,415.821564 1084.565796,429.625122 1064.974976,457.628540 
	C1040.295532,492.905731 1037.267944,532.247375 1049.662964,572.234558 
	C1062.460083,613.518799 1094.137817,632.892944 1135.408569,637.984497 
	C1156.467651,640.582581 1177.599121,638.862183 1198.726318,637.051147 
	C1228.589844,634.491272 1244.526733,610.549988 1244.333252,587.149475 
	C1243.813843,524.324097 1244.157715,461.491669 1244.158691,398.662048 
	C1244.158691,396.562256 1244.158569,394.462494 1244.158569,391.870422 
	C1250.469971,391.870422 1256.062378,391.870422 1261.878540,391.870422 
	C1261.878540,382.771698 1261.878540,374.173431 1261.878540,364.974426 
	C1255.910034,364.190796 1250.021362,363.417633 1243.897339,361.894043 
	C1243.284424,357.008820 1242.339478,352.135986 1242.156738,347.234741 
	C1241.990723,342.781158 1240.802368,339.717957 1235.967407,338.297760 
	C1235.783447,320.934326 1230.252197,305.343353 1219.943604,291.505341 
	C1209.574097,277.585480 1195.709473,268.960419 1178.570312,266.052368 
	C1169.277466,264.475586 1159.880981,263.486115 1150.514526,262.372345 
	C1137.690674,260.847351 1124.852539,259.439850 1112.017212,258.011932 
	C1098.852661,256.547394 1085.680908,255.149567 1072.518555,253.666061 
	C1059.031494,252.145966 1045.554321,250.540024 1032.069092,249.003906 
	C1019.236877,247.542145 1006.397705,246.141144 993.565613,244.678314 
	C980.080200,243.140991 966.601868,241.542252 953.116211,240.007004 
	C940.284119,238.546112 927.443970,237.155426 914.612183,235.691925 
	C901.127625,234.153992 887.650513,232.551834 874.166992,231.005127 
	C864.296875,229.872940 854.419678,228.802170 844.549194,227.673279 
	C831.064880,226.131073 817.586060,224.540405 804.100830,223.006302 
	C791.268921,221.546539 778.425171,220.189468 765.598694,218.684204 
	C749.981812,216.851440 734.388367,214.816528 718.764771,213.045731 
	C705.273376,211.516647 691.741699,210.342987 678.250061,208.815887 
	C662.132996,206.991623 646.048340,204.882660 629.933594,203.037384 
	C614.141785,201.229050 598.322510,199.661423 582.528687,197.870255 
	C565.284363,195.914551 548.221985,192.378494 530.621582,194.865036 
	C516.610535,196.844498 504.126801,202.636963 491.611786,207.480331 
	C492.497772,211.341614 493.232117,214.542053 493.278839,218.045532 
	C487.558167,220.072266 481.837463,222.098999 475.970032,223.975266 
	C475.970032,223.975266 475.820801,223.827194 475.711273,223.042175 
	C479.391754,211.288254 483.072235,199.534332 486.790497,187.659744 
	C491.362183,189.100540 494.964508,190.331345 498.621246,191.370621 
	C510.283203,194.685028 521.649780,188.949463 525.571716,177.841202 
	C529.243164,167.442444 523.830078,155.299973 513.354248,151.139847 
	C508.754608,149.313248 503.879059,148.181320 499.008087,145.850342 
	C499.008087,136.383575 499.008087,126.916801 499.008087,117.022690 
	C492.108154,114.637512 484.470886,111.997459 476.992432,108.567657 
M908.555420,420.999451 
	C900.004761,427.658966 891.454163,434.318481 883.094788,440.829041 
	C883.094788,440.251587 883.094849,438.655579 883.094788,437.059570 
	C883.094788,402.394714 883.045349,367.729675 883.169739,333.065277 
	C883.182373,329.538605 882.408081,327.826599 878.598083,327.835510 
	C862.156067,327.874023 845.713257,327.823914 829.271851,327.682648 
	C824.836365,327.644531 823.970886,329.664948 823.976013,333.812531 
	C824.097717,432.307251 824.070618,530.802124 824.070618,629.296997 
	C824.070618,631.064209 824.070618,632.831482 824.070618,634.779968 
	C844.146545,637.554932 863.449036,637.747742 883.094177,634.639282 
	C883.094177,632.124451 883.094116,630.146790 883.094116,628.169128 
	C883.094177,593.170959 883.058472,558.172668 883.130615,523.174622 
	C883.142273,517.521240 883.201599,511.808472 883.980469,506.226562 
	C886.895935,485.332458 896.280640,466.622528 922.478149,465.443756 
	C937.066528,464.787323 948.198486,469.212769 952.259399,484.027985 
	C954.993958,494.004272 956.414612,504.623322 956.548828,514.979126 
	C957.038940,552.804138 956.742676,590.639343 956.742737,628.470703 
	C956.742737,630.423157 956.742676,632.375671 956.742676,634.716064 
	C976.790039,637.627991 996.225159,637.688232 1015.836548,634.720398 
	C1015.941589,632.904785 1016.083191,631.596680 1016.083435,630.288574 
	C1016.093262,584.290955 1016.184814,538.292969 1015.994080,492.296143 
	C1015.962463,484.675751 1015.183655,476.975677 1013.894226,469.459259 
	C1010.427124,449.247742 1002.194031,431.469177 982.923584,421.956238 
	C958.833984,410.064362 934.003418,409.163910 908.555420,420.999451 
M1405.480713,520.003540 
	C1410.385986,523.699158 1414.847412,528.349243 1420.293579,530.882202 
	C1430.186279,535.483154 1440.631958,538.914734 1450.907593,542.667542 
	C1461.649902,546.590881 1472.596680,549.989319 1483.192505,554.265320 
	C1488.726562,556.498718 1490.949829,561.731995 1491.218384,567.661438 
	C1491.705688,578.424866 1486.652710,585.528809 1474.635498,589.577881 
	C1455.730225,595.947998 1436.857300,593.484375 1418.144653,588.376343 
	C1412.120117,586.731812 1406.217285,584.642029 1400.119629,582.711853 
	C1393.510132,596.442566 1389.862671,610.537109 1388.202515,625.152222 
	C1388.079102,626.240234 1389.850098,628.213867 1391.142456,628.693909 
	C1421.195068,639.857056 1452.168579,642.425842 1483.457764,636.178528 
	C1494.493896,633.974976 1505.589966,629.533569 1515.323975,623.834229 
	C1541.833740,608.312622 1552.051758,584.234619 1548.493286,554.010193 
	C1546.099487,533.678345 1535.723755,518.963928 1517.200928,510.275848 
	C1511.199585,507.460938 1504.860596,505.316071 1498.568848,503.180603 
	C1486.619385,499.124878 1474.433594,495.714783 1462.651855,491.232697 
	C1454.312256,488.060089 1451.645630,482.798676 1452.151855,474.496826 
	C1452.587036,467.360504 1456.552368,462.630493 1464.517334,459.950104 
	C1475.583374,456.226074 1486.993042,456.769012 1498.119873,458.737610 
	C1508.836548,460.633606 1519.274536,464.105316 1530.296875,467.006378 
	C1536.715454,454.636688 1540.234009,441.062286 1541.866577,426.964783 
	C1541.981812,425.970551 1540.295654,424.120575 1539.094116,423.715576 
	C1507.770386,413.158478 1475.781616,408.358490 1443.404175,417.317474 
	C1402.601074,428.607849 1387.651611,458.185455 1394.171021,497.358765 
	C1395.550171,505.645721 1399.045288,513.256531 1405.480713,520.003540 
M671.975281,430.461365 
	C656.213928,441.469116 644.962708,456.086456 638.043091,473.911896 
	C626.718506,503.084503 625.728394,533.059448 633.019897,563.201233 
	C639.824158,591.329102 654.921204,613.683594 681.248596,627.367310 
	C695.059143,634.545471 709.804199,638.298401 725.294861,638.892639 
	C748.352722,639.777283 771.254333,639.052612 793.214172,630.668701 
	C795.773010,629.691772 797.993652,628.965576 797.827393,625.297668 
	C797.216187,611.808105 794.322144,598.987366 788.126221,586.904541 
	C786.555115,583.840637 784.975586,583.274353 781.876343,584.560974 
	C767.262817,590.627747 751.885864,592.221008 736.313599,590.946106 
	C716.672424,589.338074 701.379028,580.332581 694.584656,561.163757 
	C686.130249,537.311218 686.335938,513.023987 695.595703,489.353027 
	C701.469299,474.338226 712.961487,465.153839 728.949524,462.231812 
	C741.565613,459.926025 754.192505,461.083008 766.682251,463.414764 
	C772.679382,464.534454 778.541504,466.377655 784.841980,467.989746 
	C791.411072,454.742737 794.721619,440.814270 794.927856,426.179169 
	C794.945312,424.939178 792.838501,423.102295 791.333801,422.493378 
	C771.037842,414.280060 749.788696,412.286224 728.120972,413.034576 
	C708.059814,413.727478 689.354614,418.725128 671.975281,430.461365 
M1690.253906,587.852783 
	C1682.802490,588.275330 1675.333130,589.238159 1667.903931,588.991516 
	C1657.227783,588.637268 1649.298950,583.305176 1646.413574,572.777466 
	C1644.457886,565.641602 1643.168823,558.100098 1643.065552,550.719299 
	C1642.681274,523.232178 1642.905273,495.736420 1642.921265,468.243927 
	C1642.922119,466.650146 1643.103394,465.056488 1643.232056,462.950073 
	C1660.262451,462.950073 1676.837769,462.950073 1693.533325,462.950073 
	C1696.352661,447.762085 1696.673706,433.132935 1693.410156,417.845520 
	C1676.535522,417.845520 1659.825684,417.845520 1642.718262,417.845520 
	C1642.718262,396.570496 1642.718262,375.965729 1642.718262,355.095520 
	C1638.205688,355.226929 1634.125610,353.447144 1630.640747,357.946930 
	C1606.474365,389.150787 1582.192627,420.267242 1557.659912,451.183167 
	C1554.772095,454.822296 1555.095459,458.110931 1556.825317,461.074951 
	C1557.693848,462.563232 1561.228271,462.943176 1563.586182,463.029602 
	C1570.323242,463.276489 1577.075195,463.116425 1584.052124,463.116425 
	C1584.052124,472.970062 1583.972656,481.960297 1584.066895,490.948730 
	C1584.363647,519.257080 1583.819824,547.613037 1585.323853,575.858887 
	C1586.754150,602.722778 1599.669556,622.716064 1626.360596,631.487366 
	C1650.646729,639.468384 1675.267456,637.883667 1699.810913,632.615784 
	C1701.146606,632.329163 1702.739136,629.574524 1702.858154,627.874084 
	C1703.675049,616.195801 1703.002563,604.598877 1699.859741,593.233521 
	C1697.987793,586.464355 1698.028687,586.453064 1690.253906,587.852783 
M204.857391,441.477631 
	C204.379410,433.757050 203.901428,426.036499 203.397781,417.901306 
	C185.662750,417.901306 169.079468,417.901306 151.916504,417.901306 
	C151.916504,396.682159 151.916504,375.956177 151.916504,355.417450 
	C145.632202,353.886383 141.667786,355.409760 137.810532,360.430237 
	C114.880196,390.275513 91.631462,419.879028 68.200607,449.333801 
	C64.583847,453.880432 63.799774,457.837402 66.773766,463.247589 
	C75.230553,463.247589 83.990944,463.247589 92.869766,463.247589 
	C93.037262,464.714172 93.243576,465.682190 93.244377,466.650360 
	C93.263542,489.812408 93.056534,512.976929 93.334435,536.135681 
	C93.516060,551.271301 93.392365,566.518921 95.190338,581.502197 
	C98.079704,605.580566 110.782341,622.921631 134.356522,631.043518 
	C159.111206,639.572144 184.177582,637.852051 209.234085,632.618896 
	C210.426590,632.369873 211.835159,629.823853 211.947281,628.261658 
	C212.822021,616.073853 211.989761,604.024109 208.871674,592.119263 
	C207.764282,587.891235 206.123856,586.660645 201.641830,587.290161 
	C193.777161,588.394653 185.776154,589.146118 177.847183,589.029602 
	C166.062943,588.856323 158.490448,583.280884 155.361481,572.076111 
	C153.373016,564.955505 152.272507,557.371887 152.172974,549.977112 
	C151.807480,522.820801 152.022766,495.656525 152.036789,468.495270 
	C152.037628,466.877350 152.190125,465.259491 152.297852,463.131897 
	C169.196060,463.131897 185.779556,463.131897 203.230865,463.131897 
	C203.795807,455.939331 204.325348,449.197479 204.857391,441.477631 
M1895.175049,410.500000 
	C1895.175049,384.841187 1895.085815,359.181732 1895.268188,333.524231 
	C1895.296631,329.530243 1894.174194,328.179535 1890.162109,327.643433 
	C1874.042969,325.489594 1857.990479,325.641388 1841.863403,327.509003 
	C1837.241943,328.044159 1836.014160,329.735077 1836.023926,334.365753 
	C1836.184570,410.176117 1836.045166,485.987183 1836.262695,561.797241 
	C1836.288208,570.718262 1837.303101,579.782349 1839.106201,588.523010 
	C1843.304321,608.873291 1855.207031,623.253113 1874.696899,630.972961 
	C1895.314453,639.139404 1916.428467,637.712952 1937.641235,634.021362 
	C1941.766968,633.303345 1941.909058,629.909485 1941.681274,627.098083 
	C1940.729614,615.354980 1939.361938,603.646301 1938.236328,591.916382 
	C1937.866089,588.059509 1935.769897,587.567810 1932.393677,588.001953 
	C1927.630127,588.614441 1922.787842,589.098877 1918.000854,588.948792 
	C1906.274902,588.580933 1899.522095,583.209473 1897.472412,571.748840 
	C1896.016724,563.609131 1895.309814,555.233765 1895.272339,546.959106 
	C1895.068359,501.806854 1895.175171,456.653168 1895.175049,410.500000 
M1958.743042,582.698425 
	C1962.160278,603.949585 1972.287842,620.502441 1992.428833,629.626343 
	C2014.044067,639.417908 2036.523682,637.964905 2059.050537,633.743347 
	C2060.359619,633.497986 2062.179443,631.046387 2062.188477,629.611511 
	C2062.240967,621.312012 2062.159912,612.980103 2061.443604,604.718140 
	C2060.951172,599.039062 2059.355713,593.455750 2058.283203,587.983704 
	C2051.605957,588.377991 2045.817871,589.051636 2040.037354,588.992737 
	C2027.529419,588.865417 2020.993652,584.000854 2018.354248,571.869263 
	C2016.776001,564.614746 2016.222900,557.022705 2016.156860,549.573975 
	C2015.911377,521.920715 2016.059082,494.264069 2016.059082,466.608704 
	C2016.059082,422.293457 2016.014648,377.978119 2016.138428,333.663208 
	C2016.149048,329.862885 2015.446167,328.197266 2011.220825,327.650055 
	C1994.765503,325.519012 1978.400146,325.616516 1961.940430,327.640717 
	C1957.318970,328.209076 1956.891724,330.209595 1956.896362,334.048859 
	C1956.987671,409.517914 1956.921631,484.987183 1957.034668,560.456177 
	C1957.045288,567.586731 1958.034546,574.715881 1958.743042,582.698425 
M493.235535,593.500000 
	C493.235535,607.115173 493.235535,620.730408 493.235535,634.677246 
	C513.434998,637.653076 533.030579,637.728455 553.003113,634.669983 
	C553.003113,632.358093 553.003052,630.551392 553.003052,628.744690 
	C553.003174,595.930237 552.799255,563.113770 553.137695,530.302795 
	C553.229675,521.386475 554.157043,512.307251 556.109009,503.619110 
	C559.677429,487.735718 571.083679,471.067352 592.382568,469.721588 
	C600.670044,469.197906 608.995422,468.999817 617.297302,469.113434 
	C620.537842,469.157745 621.708862,468.232666 622.126404,465.137329 
	C624.113708,450.404144 625.049255,435.685394 623.047363,420.854401 
	C622.660095,417.985016 621.574890,416.708679 618.892944,416.348877 
	C607.730896,414.851349 596.627747,414.746887 585.777954,418.224579 
	C572.213013,422.572479 562.629395,432.277771 553.565796,442.616913 
	C552.117615,444.268860 550.759644,445.999847 549.030396,448.093231 
	C547.424438,439.915314 545.700806,432.657166 544.648499,425.302948 
	C543.792725,419.322784 540.234558,417.756744 534.909424,416.924347 
	C522.942627,415.053680 511.104218,415.127502 499.126221,416.848724 
	C494.576630,417.502502 493.115082,418.896606 493.128845,423.597656 
	C493.293945,479.898041 493.235657,536.199097 493.235535,593.500000 
M1316.500000,417.997589 
	C1301.214844,417.997589 1285.929565,417.997589 1270.537720,417.997589 
	C1266.956055,433.248352 1267.076660,447.974548 1270.548340,463.275513 
	C1279.841553,463.275513 1288.918823,463.275513 1298.454712,463.275513 
	C1298.454712,465.998810 1298.454712,468.139648 1298.454712,470.280518 
	C1298.454712,522.580383 1298.454712,574.880310 1298.455078,627.180176 
	C1298.455078,628.512634 1298.027466,630.063660 1298.565308,631.124329 
	C1299.296387,632.566040 1300.623047,634.511719 1301.941528,634.727051 
	C1318.303101,637.398682 1334.684937,637.500244 1351.151367,635.185242 
	C1355.552246,634.566528 1356.899292,633.380249 1356.889771,628.870667 
	C1356.744019,560.414795 1356.788452,491.958466 1356.788452,423.502228 
	C1356.788452,421.757507 1356.788574,420.012817 1356.788574,417.997589 
	C1343.130859,417.997589 1330.315430,417.997589 1316.500000,417.997589 
M1735.872070,515.500000 
	C1735.872192,553.497314 1735.916626,591.494812 1735.801514,629.491760 
	C1735.790405,633.164917 1736.565430,634.957703 1740.626099,635.023071 
	C1753.907349,635.237000 1767.182739,635.895569 1780.463379,636.000305 
	C1784.862305,636.035034 1789.270386,634.910095 1793.614258,634.323486 
	C1793.614258,561.996704 1793.614258,490.240509 1793.614258,417.998749 
	C1786.360718,417.998749 1779.400146,417.998718 1772.439697,417.998749 
	C1752.274414,417.998810 1732.108887,418.062225 1711.944336,417.934845 
	C1708.690186,417.914307 1706.963135,418.659363 1706.916992,422.210571 
	C1706.770874,433.472870 1705.958130,444.757202 1706.458130,455.986084 
	C1706.777100,463.152710 1707.614136,463.115570 1714.911255,463.115753 
	C1721.824463,463.115936 1728.737793,463.115814 1735.871948,463.115814 
	C1735.871948,480.851898 1735.871948,497.675934 1735.872070,515.500000 
M378.748779,786.274414 
	C417.253632,763.802856 417.798126,713.613159 391.537231,689.814331 
	C388.033051,693.271545 384.525085,696.732483 380.970215,700.239746 
	C382.375519,701.993652 383.653137,703.515991 384.853210,705.097107 
	C396.901154,720.971191 397.322845,742.739014 385.916626,759.231262 
	C374.673431,775.487793 353.667542,782.759644 334.722992,776.953491 
	C302.176544,766.978760 291.316956,726.625854 314.609497,701.501892 
	C323.323364,692.102905 332.097351,682.610718 341.878387,674.392090 
	C351.548981,666.266296 346.897827,656.567688 347.889221,648.336975 
	C332.088440,663.562988 315.187714,678.068665 300.469055,694.525818 
	C285.329803,711.453125 282.843262,732.336304 290.299286,753.610352 
	C302.833954,789.374939 344.257446,805.039978 378.748779,786.274414 
M1316.517822,383.847717 
	C1324.166992,383.598236 1331.846436,383.692474 1339.458740,383.023529 
	C1352.875366,381.844452 1351.155273,383.329803 1352.204956,370.888916 
	C1352.260986,370.225586 1352.397095,369.562836 1352.388794,368.901184 
	C1352.229736,356.268768 1352.194092,343.631592 1351.749756,331.008942 
	C1351.673340,328.836609 1352.179443,325.556366 1348.107544,324.989166 
	C1329.521851,322.400055 1310.958374,322.233154 1292.416870,325.166473 
	C1291.227783,325.354584 1289.541870,326.975708 1289.340454,328.145874 
	C1286.438843,345.004639 1286.360229,361.913147 1289.311768,378.772217 
	C1289.530884,380.023499 1291.412720,381.777496 1292.678223,381.921478 
	C1300.269043,382.785004 1307.905884,383.245514 1316.517822,383.847717 
M1732.343628,324.844574 
	C1729.819336,325.124084 1727.052368,324.481171 1726.439453,328.462433 
	C1723.862915,345.194580 1723.699219,361.905060 1726.599487,378.581970 
	C1726.833008,379.924896 1728.890503,381.757141 1730.306030,381.965546 
	C1748.338257,384.620300 1766.420410,384.687317 1784.452148,381.986450 
	C1786.024170,381.750977 1788.537354,379.676361 1788.556641,378.424408 
	C1788.811646,361.841461 1788.766968,345.251923 1788.535278,328.667725 
	C1788.518188,327.449646 1786.618652,325.376434 1785.371582,325.189850 
	C1768.022095,322.594086 1750.622681,322.023743 1732.343628,324.844574 
M371.060974,686.482788 
	C375.505127,685.409119 378.080719,682.708191 377.833191,678.018188 
	C377.610962,673.807983 375.042206,671.290161 370.999573,670.641479 
	C367.120850,670.019043 364.193390,671.824097 362.520294,675.325684 
	C360.036499,680.523743 363.333405,685.231628 371.060974,686.482788 
z"/>
<path fill="#3A73B7" opacity="1.000000" stroke="none" 
	d="
M499.128815,146.733948 
	C503.879059,148.181320 508.754608,149.313248 513.354248,151.139847 
	C523.830078,155.299973 529.243164,167.442444 525.571716,177.841202 
	C521.649780,188.949463 510.283203,194.685028 498.621246,191.370621 
	C494.964508,190.331345 491.362183,189.100540 486.790497,187.659744 
	C483.072235,199.534332 479.391754,211.288254 475.607697,223.508759 
	C475.708344,224.025482 475.912567,224.075607 476.116791,224.125732 
	C481.837463,222.098999 487.558167,220.072266 493.951050,218.057465 
	C497.341461,224.994568 500.059631,231.919769 502.777802,238.844971 
	C493.321655,242.304428 483.865540,245.763901 474.178101,248.869781 
	C474.602600,246.877731 476.164490,244.915710 475.719727,243.670212 
	C474.873016,241.298950 473.256287,238.179459 471.257568,237.529938 
	C469.250214,236.877609 465.380554,238.153442 464.181183,239.875595 
	C462.955444,241.635559 462.964355,245.843430 464.288666,247.376328 
	C465.830902,249.161423 469.386932,249.206680 472.069092,250.006958 
	C466.760864,251.435028 465.083099,255.497177 463.568085,260.351624 
	C453.956940,291.147858 444.113861,321.872467 434.163879,352.561249 
	C432.971375,356.239319 433.524109,358.332855 436.494263,360.977112 
	C465.309143,386.630310 480.097260,418.988953 480.452332,457.452026 
	C480.977997,514.395569 442.396332,565.389587 387.737793,581.065674 
	C322.825714,599.682434 255.349823,565.840637 231.467072,502.689758 
	C204.156921,430.476196 247.051773,350.033600 322.299133,332.640137 
	C330.043671,330.850006 338.083466,330.366760 345.929871,328.961945 
	C347.435272,328.692413 349.482819,327.205139 349.922028,325.842041 
	C363.738983,282.960571 377.387054,240.024643 391.062256,197.097473 
	C394.837341,185.247269 398.616760,173.398453 402.552155,161.053482 
	C400.015808,160.152756 397.865570,159.418243 395.735992,158.628006 
	C384.916168,154.613022 379.333435,142.856125 382.951843,131.733719 
	C386.452759,120.972366 397.864410,114.810295 408.853607,117.833488 
	C412.376251,118.802582 415.832214,120.013908 419.681335,121.557922 
	C418.279510,127.096527 416.515076,132.191635 414.625916,137.646851 
	C426.141754,141.298203 437.137421,144.784622 448.061890,148.622177 
	C447.061584,151.981567 446.132385,154.989822 445.040924,158.337677 
	C442.437988,166.252472 440.196259,173.901810 437.418945,181.351440 
	C436.711639,183.248779 434.565033,185.278442 432.633759,185.934601 
	C424.317871,188.760025 418.437012,196.233765 418.307892,204.959732 
	C418.183105,213.388397 423.726562,221.088928 431.923065,223.872940 
	C439.789246,226.544724 448.754852,223.807709 453.773773,217.202347 
	C459.193756,210.069107 459.575378,200.731674 454.031799,193.621841 
	C451.603882,190.507996 451.669678,187.974777 452.798492,184.570999 
	C455.246063,177.190628 457.292877,169.677338 459.680420,161.929596 
	C460.888031,158.745407 461.918793,155.850037 463.344177,152.943832 
	C473.657379,155.928146 483.575989,158.923279 493.696381,161.979340 
	C495.593933,156.654175 497.361389,151.694077 499.128815,146.733948 
M373.608765,303.277252 
	C391.681000,294.377899 401.814758,275.355133 397.658447,257.337311 
	C395.166687,246.535294 392.932892,235.907776 399.503326,225.076416 
	C386.769196,230.675980 382.276642,241.682709 385.347229,254.473282 
	C386.843781,260.707123 387.496765,268.011444 385.695557,273.974518 
	C382.663025,284.013977 377.369812,293.370575 372.612305,303.169617 
	C372.689911,303.332855 372.767517,303.496063 372.845093,303.659302 
	C372.870636,303.420105 372.896179,303.180878 373.608765,303.277252 
M455.772247,482.115173 
	C462.281952,451.832886 457.716248,423.471283 440.256775,397.714050 
	C435.027740,389.999878 428.363647,383.258484 421.768188,375.366943 
	C419.541412,380.590332 418.103271,384.294708 416.411621,387.879456 
	C402.837158,416.645325 379.309265,428.931335 348.435272,422.739838 
	C338.532440,420.753876 329.067291,416.615723 319.175995,414.536804 
	C273.783539,404.996307 239.248123,442.548767 248.568375,484.231232 
	C260.860229,539.203491 321.155853,575.508850 375.651123,561.430176 
	C417.195984,550.697205 443.765717,524.196716 455.772247,482.115173 
M424.312408,334.908875 
	C424.978882,328.252960 423.156067,322.292633 420.216034,317.615448 
	C418.404724,322.640839 417.050903,328.287201 414.381226,333.221649 
	C412.138367,337.367279 408.562286,340.875916 405.230835,344.333557 
	C391.489716,358.595123 389.848419,381.485565 402.058960,398.583435 
	C402.058960,393.993347 401.868652,390.085297 402.092682,386.201172 
	C402.954437,371.260620 405.882996,357.303894 418.269257,346.863037 
	C421.259186,344.342712 422.285034,339.492310 424.312408,334.908875 
M349.895050,381.328461 
	C353.236359,389.281250 360.141357,392.959076 367.273010,390.584503 
	C374.306213,388.242737 378.541565,380.771698 376.661743,374.022949 
	C374.554138,366.456421 367.429657,362.281281 359.599426,364.024078 
	C352.492218,365.605927 348.422607,372.425903 349.895050,381.328461 
M401.381409,337.118622 
	C402.954041,335.112244 405.265900,333.322418 405.931458,331.050293 
	C407.015350,327.350037 405.195404,324.226868 401.705261,322.358673 
	C398.116760,320.437805 394.812073,321.267578 392.132965,324.002319 
	C389.402557,326.789398 388.942291,330.253845 390.915375,333.652832 
	C393.084900,337.390228 396.379333,338.846039 401.381409,337.118622 
M431.870667,250.065857 
	C436.110291,250.607224 439.062836,248.955032 439.909637,244.695267 
	C440.613220,241.155853 438.875092,238.470062 435.549622,237.308304 
	C432.198975,236.137711 429.194885,237.223648 427.606689,240.471603 
	C425.575714,244.625061 427.123260,247.772980 431.870667,250.065857 
M400.423798,224.474182 
	C400.423798,224.474182 400.353973,224.466721 400.423798,224.474182 
z"/>
<path fill="#3973B7" opacity="1.000000" stroke="none" 
	d="
M1244.132568,362.644501 
	C1250.021362,363.417633 1255.910034,364.190796 1261.878540,364.974426 
	C1261.878540,374.173431 1261.878540,382.771698 1261.878540,391.870422 
	C1256.062378,391.870422 1250.469971,391.870422 1244.158569,391.870422 
	C1244.158569,394.462494 1244.158691,396.562256 1244.158691,398.662048 
	C1244.157715,461.491669 1243.813843,524.324097 1244.333252,587.149475 
	C1244.526733,610.549988 1228.589844,634.491272 1198.726318,637.051147 
	C1177.599121,638.862183 1156.467651,640.582581 1135.408569,637.984497 
	C1094.137817,632.892944 1062.460083,613.518799 1049.662964,572.234558 
	C1037.267944,532.247375 1040.295532,492.905731 1064.974976,457.628540 
	C1084.565796,429.625122 1112.757202,415.821564 1146.597900,414.158630 
	C1159.133423,413.542603 1171.771606,415.019928 1184.715576,415.557190 
	C1184.715576,408.633057 1184.715576,400.613922 1184.715576,392.015076 
	C1179.566895,392.015076 1174.489380,392.015076 1169.160156,392.015076 
	C1169.160156,382.850891 1169.160156,374.257233 1169.160156,365.051453 
	C1174.173706,364.330658 1179.216919,363.605621 1184.760742,363.350464 
	C1185.261353,367.055725 1185.261353,370.291077 1185.261353,373.468262 
	C1205.215332,373.468262 1224.491943,373.468262 1244.132568,373.468262 
	C1244.132568,369.573273 1244.132568,366.108887 1244.132568,362.644501 
M1153.499146,549.335693 
	C1141.437500,550.262390 1129.199829,550.221313 1117.360718,552.372620 
	C1104.015381,554.797607 1092.957764,561.900513 1086.208618,574.369324 
	C1084.575562,577.386475 1084.405518,579.862427 1087.205322,582.793457 
	C1126.838745,624.285400 1196.899658,609.673340 1216.342529,555.697144 
	C1219.236328,547.663513 1221.218384,539.378052 1220.811768,530.397400 
	C1216.263062,533.349365 1212.430298,536.292786 1208.210693,538.494995 
	C1191.383789,547.276794 1173.127563,549.303528 1153.499146,549.335693 
M1154.009766,507.696228 
	C1151.319946,515.024353 1152.842163,521.089478 1158.354736,525.007629 
	C1163.634521,528.760315 1170.620728,528.441284 1175.442261,524.291870 
	C1180.019531,520.352783 1181.019043,515.250000 1179.612549,509.780762 
	C1178.201050,504.292511 1174.153931,500.998138 1168.655762,500.121124 
	C1162.475464,499.135315 1157.635620,501.679108 1154.009766,507.696228 
M1138.458008,465.029388 
	C1135.113525,463.094330 1131.432617,462.762451 1128.757446,465.476807 
	C1127.015137,467.244690 1125.356323,470.745117 1125.967041,472.775879 
	C1126.781982,475.486633 1129.419556,478.468140 1132.029907,479.616425 
	C1135.418701,481.107239 1138.875244,479.339355 1140.869629,475.858093 
	C1143.123169,471.924591 1142.112915,468.522125 1138.458008,465.029388 
z"/>
<path fill="#3A73B7" opacity="1.000000" stroke="none" 
	d="
M908.898682,420.857330 
	C934.003418,409.163910 958.833984,410.064362 982.923584,421.956238 
	C1002.194031,431.469177 1010.427124,449.247742 1013.894226,469.459259 
	C1015.183655,476.975677 1015.962463,484.675751 1015.994080,492.296143 
	C1016.184814,538.292969 1016.093262,584.290955 1016.083435,630.288574 
	C1016.083191,631.596680 1015.941589,632.904785 1015.836548,634.720398 
	C996.225159,637.688232 976.790039,637.627991 956.742676,634.716064 
	C956.742676,632.375671 956.742737,630.423157 956.742737,628.470703 
	C956.742676,590.639343 957.038940,552.804138 956.548828,514.979126 
	C956.414612,504.623322 954.993958,494.004272 952.259399,484.027985 
	C948.198486,469.212769 937.066528,464.787323 922.478149,465.443756 
	C896.280640,466.622528 886.895935,485.332458 883.980469,506.226562 
	C883.201599,511.808472 883.142273,517.521240 883.130615,523.174622 
	C883.058472,558.172668 883.094177,593.170959 883.094116,628.169128 
	C883.094116,630.146790 883.094177,632.124451 883.094177,634.639282 
	C863.449036,637.747742 844.146545,637.554932 824.070618,634.779968 
	C824.070618,632.831482 824.070618,631.064209 824.070618,629.296997 
	C824.070618,530.802124 824.097717,432.307251 823.976013,333.812531 
	C823.970886,329.664948 824.836365,327.644531 829.271851,327.682648 
	C845.713257,327.823914 862.156067,327.874023 878.598083,327.835510 
	C882.408081,327.826599 883.182373,329.538605 883.169739,333.065277 
	C883.045349,367.729675 883.094788,402.394714 883.094788,437.059570 
	C883.094849,438.655579 883.094788,440.251587 883.094788,440.829041 
	C891.454163,434.318481 900.004761,427.658966 908.898682,420.857330 
z"/>
<path fill="#D0D2D3" opacity="1.000000" stroke="none" 
	d="
M503.062317,239.084854 
	C500.059631,231.919769 497.341461,224.994568 494.294861,217.905930 
	C493.232117,214.542053 492.497772,211.341614 491.611786,207.480331 
	C504.126801,202.636963 516.610535,196.844498 530.621582,194.865036 
	C548.221985,192.378494 565.284363,195.914551 582.528687,197.870255 
	C598.322510,199.661423 614.141785,201.229050 629.933594,203.037384 
	C646.048340,204.882660 662.132996,206.991623 678.250061,208.815887 
	C691.741699,210.342987 705.273376,211.516647 718.764771,213.045731 
	C734.388367,214.816528 749.981812,216.851440 765.598694,218.684204 
	C778.425171,220.189468 791.268921,221.546539 804.100830,223.006302 
	C817.586060,224.540405 831.064880,226.131073 844.549194,227.673279 
	C854.419678,228.802170 864.296875,229.872940 874.166992,231.005127 
	C887.650513,232.551834 901.127625,234.153992 914.612183,235.691925 
	C927.443970,237.155426 940.284119,238.546112 953.116211,240.007004 
	C966.601868,241.542252 980.080200,243.140991 993.565613,244.678314 
	C1006.397705,246.141144 1019.236877,247.542145 1032.069092,249.003906 
	C1045.554321,250.540024 1059.031494,252.145966 1072.518555,253.666061 
	C1085.680908,255.149567 1098.852661,256.547394 1112.017212,258.011932 
	C1124.852539,259.439850 1137.690674,260.847351 1150.514526,262.372345 
	C1159.880981,263.486115 1169.277466,264.475586 1178.570312,266.052368 
	C1195.709473,268.960419 1209.574097,277.585480 1219.943604,291.505341 
	C1230.252197,305.343353 1235.783447,320.934326 1235.477661,338.768860 
	C1220.649902,339.410858 1206.311890,339.581787 1191.973877,339.752686 
	C1191.806030,328.313141 1188.172119,318.352844 1178.220459,312.033478 
	C1174.619019,309.746613 1169.881592,308.769714 1165.533447,308.223480 
	C1149.766602,306.242859 1133.936890,304.771179 1118.146851,302.966980 
	C1104.994995,301.464233 1091.877441,299.661377 1078.723389,298.180389 
	C1065.232910,296.661530 1051.704102,295.482086 1038.214844,293.953400 
	C1022.593994,292.183167 1007.006714,290.117126 991.388367,288.323486 
	C977.902344,286.774689 964.389587,285.459534 950.895325,283.980652 
	C941.514526,282.952576 932.143677,281.833405 922.770813,280.734497 
	C912.253662,279.501373 901.739197,278.244690 891.223511,276.999237 
	C877.912842,275.422760 864.607971,273.795654 851.289734,272.285828 
	C838.129883,270.793976 824.954529,269.438660 811.789612,267.991058 
	C799.118408,266.597717 786.449280,265.185394 773.783875,263.740082 
	C760.138184,262.182892 746.496399,260.590851 732.855713,258.989655 
	C719.707031,257.446167 706.567322,255.824509 693.413574,254.325714 
	C683.050903,253.144928 672.669739,252.127731 662.302612,250.984299 
	C652.758118,249.931610 643.219177,248.827087 633.682007,247.709549 
	C623.328613,246.496399 612.980591,245.237778 602.629333,244.006363 
	C588.990723,242.383835 575.333679,240.902573 561.716797,239.114899 
	C545.964478,237.046875 530.776123,237.830826 515.982544,244.687790 
	C507.320343,248.702805 506.993408,247.997482 503.062317,239.084854 
M1160.592163,287.907043 
	C1165.311401,292.575592 1169.812866,297.494873 1174.815186,301.837280 
	C1179.203979,305.646912 1184.386963,305.262848 1189.206787,302.425415 
	C1194.543091,299.283905 1197.075073,294.303558 1196.581299,288.204407 
	C1196.081055,282.022675 1192.305542,277.302887 1186.869141,276.283020 
	C1175.125122,274.080048 1163.746948,277.503021 1152.204224,278.447784 
	C1152.004272,278.887970 1151.804321,279.328186 1151.604248,279.768372 
	C1154.431763,282.316406 1157.259155,284.864410 1160.592163,287.907043 
M1015.728027,279.831024 
	C1020.171753,282.555634 1024.601807,285.228943 1030.143555,282.862244 
	C1037.234009,279.834167 1040.883423,272.406403 1038.921021,264.843781 
	C1036.994995,257.421356 1030.510376,253.179749 1021.826782,255.162689 
	C1012.188599,257.363586 1002.831482,260.795166 992.487061,263.955109 
	C1000.648132,269.522583 1007.890320,274.463165 1015.728027,279.831024 
M565.481934,231.268051 
	C572.133911,226.464188 574.231750,220.716156 571.907410,213.662018 
	C569.933167,207.670303 564.910339,203.312500 558.740356,204.521744 
	C547.890930,206.648117 537.289917,210.041351 526.584839,212.904037 
	C534.970520,219.848938 543.002258,225.401489 551.166504,230.751801 
	C555.451843,233.560120 560.096741,234.172195 565.481934,231.268051 
M676.436279,234.998978 
	C681.813110,238.618484 687.046204,242.479446 692.607422,245.789139 
	C698.094360,249.054626 703.688538,248.223511 708.217346,244.173035 
	C712.751709,240.117554 714.390869,233.433350 712.249268,227.731979 
	C710.043945,221.861069 705.587402,218.044022 699.205505,219.219788 
	C688.313232,221.226517 677.668274,224.576035 666.919434,227.361511 
	C666.996216,227.851349 667.072937,228.341187 667.149658,228.831039 
	C670.035767,230.769775 672.921875,232.708511 676.436279,234.998978 
M854.225952,234.098969 
	C843.144836,236.879547 832.063721,239.660141 820.982605,242.440735 
	C829.469116,249.452667 837.614014,255.199387 846.028992,260.518860 
	C851.979553,264.280426 857.337769,263.684906 862.119324,259.477631 
	C866.665405,255.477417 868.307312,250.344772 866.901489,244.594788 
	C865.430359,238.577667 861.565491,234.739288 854.225952,234.098969 
z"/>
<path fill="#3A74B7" opacity="1.000000" stroke="none" 
	d="
M1405.239502,519.743896 
	C1399.045288,513.256531 1395.550171,505.645721 1394.171021,497.358765 
	C1387.651611,458.185455 1402.601074,428.607849 1443.404175,417.317474 
	C1475.781616,408.358490 1507.770386,413.158478 1539.094116,423.715576 
	C1540.295654,424.120575 1541.981812,425.970551 1541.866577,426.964783 
	C1540.234009,441.062286 1536.715454,454.636688 1530.296875,467.006378 
	C1519.274536,464.105316 1508.836548,460.633606 1498.119873,458.737610 
	C1486.993042,456.769012 1475.583374,456.226074 1464.517334,459.950104 
	C1456.552368,462.630493 1452.587036,467.360504 1452.151855,474.496826 
	C1451.645630,482.798676 1454.312256,488.060089 1462.651855,491.232697 
	C1474.433594,495.714783 1486.619385,499.124878 1498.568848,503.180603 
	C1504.860596,505.316071 1511.199585,507.460938 1517.200928,510.275848 
	C1535.723755,518.963928 1546.099487,533.678345 1548.493286,554.010193 
	C1552.051758,584.234619 1541.833740,608.312622 1515.323975,623.834229 
	C1505.589966,629.533569 1494.493896,633.974976 1483.457764,636.178528 
	C1452.168579,642.425842 1421.195068,639.857056 1391.142456,628.693909 
	C1389.850098,628.213867 1388.079102,626.240234 1388.202515,625.152222 
	C1389.862671,610.537109 1393.510132,596.442566 1400.119629,582.711853 
	C1406.217285,584.642029 1412.120117,586.731812 1418.144653,588.376343 
	C1436.857300,593.484375 1455.730225,595.947998 1474.635498,589.577881 
	C1486.652710,585.528809 1491.705688,578.424866 1491.218384,567.661438 
	C1490.949829,561.731995 1488.726562,556.498718 1483.192505,554.265320 
	C1472.596680,549.989319 1461.649902,546.590881 1450.907593,542.667542 
	C1440.631958,538.914734 1430.186279,535.483154 1420.293579,530.882202 
	C1414.847412,528.349243 1410.385986,523.699158 1405.239502,519.743896 
z"/>
<path fill="#3A74B7" opacity="1.000000" stroke="none" 
	d="
M672.274902,430.262085 
	C689.354614,418.725128 708.059814,413.727478 728.120972,413.034576 
	C749.788696,412.286224 771.037842,414.280060 791.333801,422.493378 
	C792.838501,423.102295 794.945312,424.939178 794.927856,426.179169 
	C794.721619,440.814270 791.411072,454.742737 784.841980,467.989746 
	C778.541504,466.377655 772.679382,464.534454 766.682251,463.414764 
	C754.192505,461.083008 741.565613,459.926025 728.949524,462.231812 
	C712.961487,465.153839 701.469299,474.338226 695.595703,489.353027 
	C686.335938,513.023987 686.130249,537.311218 694.584656,561.163757 
	C701.379028,580.332581 716.672424,589.338074 736.313599,590.946106 
	C751.885864,592.221008 767.262817,590.627747 781.876343,584.560974 
	C784.975586,583.274353 786.555115,583.840637 788.126221,586.904541 
	C794.322144,598.987366 797.216187,611.808105 797.827393,625.297668 
	C797.993652,628.965576 795.773010,629.691772 793.214172,630.668701 
	C771.254333,639.052612 748.352722,639.777283 725.294861,638.892639 
	C709.804199,638.298401 695.059143,634.545471 681.248596,627.367310 
	C654.921204,613.683594 639.824158,591.329102 633.019897,563.201233 
	C625.728394,533.059448 626.718506,503.084503 638.043091,473.911896 
	C644.962708,456.086456 656.213928,441.469116 672.274902,430.262085 
z"/>
<path fill="#3A74B7" opacity="1.000000" stroke="none" 
	d="
M1690.684204,587.794678 
	C1698.028687,586.453064 1697.987793,586.464355 1699.859741,593.233521 
	C1703.002563,604.598877 1703.675049,616.195801 1702.858154,627.874084 
	C1702.739136,629.574524 1701.146606,632.329163 1699.810913,632.615784 
	C1675.267456,637.883667 1650.646729,639.468384 1626.360596,631.487366 
	C1599.669556,622.716064 1586.754150,602.722778 1585.323853,575.858887 
	C1583.819824,547.613037 1584.363647,519.257080 1584.066895,490.948730 
	C1583.972656,481.960297 1584.052124,472.970062 1584.052124,463.116425 
	C1577.075195,463.116425 1570.323242,463.276489 1563.586182,463.029602 
	C1561.228271,462.943176 1557.693848,462.563232 1556.825317,461.074951 
	C1555.095459,458.110931 1554.772095,454.822296 1557.659912,451.183167 
	C1582.192627,420.267242 1606.474365,389.150787 1630.640747,357.946930 
	C1634.125610,353.447144 1638.205688,355.226929 1642.718262,355.095520 
	C1642.718262,375.965729 1642.718262,396.570496 1642.718262,417.845520 
	C1659.825684,417.845520 1676.535522,417.845520 1693.410156,417.845520 
	C1696.673706,433.132935 1696.352661,447.762085 1693.533325,462.950073 
	C1676.837769,462.950073 1660.262451,462.950073 1643.232056,462.950073 
	C1643.103394,465.056488 1642.922119,466.650146 1642.921265,468.243927 
	C1642.905273,495.736420 1642.681274,523.232178 1643.065552,550.719299 
	C1643.168823,558.100098 1644.457886,565.641602 1646.413574,572.777466 
	C1649.298950,583.305176 1657.227783,588.637268 1667.903931,588.991516 
	C1675.333130,589.238159 1682.802490,588.275330 1690.684204,587.794678 
z"/>
<path fill="#3A74B7" opacity="1.000000" stroke="none" 
	d="
M204.856140,441.966614 
	C204.325348,449.197479 203.795807,455.939331 203.230865,463.131897 
	C185.779556,463.131897 169.196060,463.131897 152.297852,463.131897 
	C152.190125,465.259491 152.037628,466.877350 152.036789,468.495270 
	C152.022766,495.656525 151.807480,522.820801 152.172974,549.977112 
	C152.272507,557.371887 153.373016,564.955505 155.361481,572.076111 
	C158.490448,583.280884 166.062943,588.856323 177.847183,589.029602 
	C185.776154,589.146118 193.777161,588.394653 201.641830,587.290161 
	C206.123856,586.660645 207.764282,587.891235 208.871674,592.119263 
	C211.989761,604.024109 212.822021,616.073853 211.947281,628.261658 
	C211.835159,629.823853 210.426590,632.369873 209.234085,632.618896 
	C184.177582,637.852051 159.111206,639.572144 134.356522,631.043518 
	C110.782341,622.921631 98.079704,605.580566 95.190338,581.502197 
	C93.392365,566.518921 93.516060,551.271301 93.334435,536.135681 
	C93.056534,512.976929 93.263542,489.812408 93.244377,466.650360 
	C93.243576,465.682190 93.037262,464.714172 92.869766,463.247589 
	C83.990944,463.247589 75.230553,463.247589 66.773766,463.247589 
	C63.799774,457.837402 64.583847,453.880432 68.200607,449.333801 
	C91.631462,419.879028 114.880196,390.275513 137.810532,360.430237 
	C141.667786,355.409760 145.632202,353.886383 151.916504,355.417450 
	C151.916504,375.956177 151.916504,396.682159 151.916504,417.901306 
	C169.079468,417.901306 185.662750,417.901306 203.397781,417.901306 
	C203.901428,426.036499 204.379410,433.757050 204.856140,441.966614 
z"/>
<path fill="#3A74B7" opacity="1.000000" stroke="none" 
	d="
M1895.175049,411.000000 
	C1895.175171,456.653168 1895.068359,501.806854 1895.272339,546.959106 
	C1895.309814,555.233765 1896.016724,563.609131 1897.472412,571.748840 
	C1899.522095,583.209473 1906.274902,588.580933 1918.000854,588.948792 
	C1922.787842,589.098877 1927.630127,588.614441 1932.393677,588.001953 
	C1935.769897,587.567810 1937.866089,588.059509 1938.236328,591.916382 
	C1939.361938,603.646301 1940.729614,615.354980 1941.681274,627.098083 
	C1941.909058,629.909485 1941.766968,633.303345 1937.641235,634.021362 
	C1916.428467,637.712952 1895.314453,639.139404 1874.696899,630.972961 
	C1855.207031,623.253113 1843.304321,608.873291 1839.106201,588.523010 
	C1837.303101,579.782349 1836.288208,570.718262 1836.262695,561.797241 
	C1836.045166,485.987183 1836.184570,410.176117 1836.023926,334.365753 
	C1836.014160,329.735077 1837.241943,328.044159 1841.863403,327.509003 
	C1857.990479,325.641388 1874.042969,325.489594 1890.162109,327.643433 
	C1894.174194,328.179535 1895.296631,329.530243 1895.268188,333.524231 
	C1895.085815,359.181732 1895.175049,384.841187 1895.175049,411.000000 
z"/>
<path fill="#3973B7" opacity="1.000000" stroke="none" 
	d="
M1958.656250,582.272034 
	C1958.034546,574.715881 1957.045288,567.586731 1957.034668,560.456177 
	C1956.921631,484.987183 1956.987671,409.517914 1956.896362,334.048859 
	C1956.891724,330.209595 1957.318970,328.209076 1961.940430,327.640717 
	C1978.400146,325.616516 1994.765503,325.519012 2011.220825,327.650055 
	C2015.446167,328.197266 2016.149048,329.862885 2016.138428,333.663208 
	C2016.014648,377.978119 2016.059082,422.293457 2016.059082,466.608704 
	C2016.059082,494.264069 2015.911377,521.920715 2016.156860,549.573975 
	C2016.222900,557.022705 2016.776001,564.614746 2018.354248,571.869263 
	C2020.993652,584.000854 2027.529419,588.865417 2040.037354,588.992737 
	C2045.817871,589.051636 2051.605957,588.377991 2058.283203,587.983704 
	C2059.355713,593.455750 2060.951172,599.039062 2061.443604,604.718140 
	C2062.159912,612.980103 2062.240967,621.312012 2062.188477,629.611511 
	C2062.179443,631.046387 2060.359619,633.497986 2059.050537,633.743347 
	C2036.523682,637.964905 2014.044067,639.417908 1992.428833,629.626343 
	C1972.287842,620.502441 1962.160278,603.949585 1958.656250,582.272034 
z"/>
<path fill="#3A74B7" opacity="1.000000" stroke="none" 
	d="
M493.235657,593.000000 
	C493.235657,536.199097 493.293945,479.898041 493.128845,423.597656 
	C493.115082,418.896606 494.576630,417.502502 499.126221,416.848724 
	C511.104218,415.127502 522.942627,415.053680 534.909424,416.924347 
	C540.234558,417.756744 543.792725,419.322784 544.648499,425.302948 
	C545.700806,432.657166 547.424438,439.915314 549.030396,448.093231 
	C550.759644,445.999847 552.117615,444.268860 553.565796,442.616913 
	C562.629395,432.277771 572.213013,422.572479 585.777954,418.224579 
	C596.627747,414.746887 607.730896,414.851349 618.892944,416.348877 
	C621.574890,416.708679 622.660095,417.985016 623.047363,420.854401 
	C625.049255,435.685394 624.113708,450.404144 622.126404,465.137329 
	C621.708862,468.232666 620.537842,469.157745 617.297302,469.113434 
	C608.995422,468.999817 600.670044,469.197906 592.382568,469.721588 
	C571.083679,471.067352 559.677429,487.735718 556.109009,503.619110 
	C554.157043,512.307251 553.229675,521.386475 553.137695,530.302795 
	C552.799255,563.113770 553.003174,595.930237 553.003052,628.744690 
	C553.003052,630.551392 553.003113,632.358093 553.003113,634.669983 
	C533.030579,637.728455 513.434998,637.653076 493.235535,634.677246 
	C493.235535,620.730408 493.235535,607.115173 493.235657,593.000000 
z"/>
<path fill="#3A74B7" opacity="1.000000" stroke="none" 
	d="
M1317.000000,417.997589 
	C1330.315430,417.997589 1343.130859,417.997589 1356.788574,417.997589 
	C1356.788574,420.012817 1356.788452,421.757507 1356.788452,423.502228 
	C1356.788452,491.958466 1356.744019,560.414795 1356.889771,628.870667 
	C1356.899292,633.380249 1355.552246,634.566528 1351.151367,635.185242 
	C1334.684937,637.500244 1318.303101,637.398682 1301.941528,634.727051 
	C1300.623047,634.511719 1299.296387,632.566040 1298.565308,631.124329 
	C1298.027466,630.063660 1298.455078,628.512634 1298.455078,627.180176 
	C1298.454712,574.880310 1298.454712,522.580383 1298.454712,470.280518 
	C1298.454712,468.139648 1298.454712,465.998810 1298.454712,463.275513 
	C1288.918823,463.275513 1279.841553,463.275513 1270.548340,463.275513 
	C1267.076660,447.974548 1266.956055,433.248352 1270.537720,417.997589 
	C1285.929565,417.997589 1301.214844,417.997589 1317.000000,417.997589 
z"/>
<path fill="#3A73B7" opacity="1.000000" stroke="none" 
	d="
M1735.872070,515.000000 
	C1735.871948,497.675934 1735.871948,480.851898 1735.871948,463.115814 
	C1728.737793,463.115814 1721.824463,463.115936 1714.911255,463.115753 
	C1707.614136,463.115570 1706.777100,463.152710 1706.458130,455.986084 
	C1705.958130,444.757202 1706.770874,433.472870 1706.916992,422.210571 
	C1706.963135,418.659363 1708.690186,417.914307 1711.944336,417.934845 
	C1732.108887,418.062225 1752.274414,417.998810 1772.439697,417.998749 
	C1779.400146,417.998718 1786.360718,417.998749 1793.614258,417.998749 
	C1793.614258,490.240509 1793.614258,561.996704 1793.614258,634.323486 
	C1789.270386,634.910095 1784.862305,636.035034 1780.463379,636.000305 
	C1767.182739,635.895569 1753.907349,635.237000 1740.626099,635.023071 
	C1736.565430,634.957703 1735.790405,633.164917 1735.801514,629.491760 
	C1735.916626,591.494812 1735.872192,553.497314 1735.872070,515.000000 
z"/>
<path fill="#BD5036" opacity="1.000000" stroke="none" 
	d="
M378.447327,786.484985 
	C344.257446,805.039978 302.833954,789.374939 290.299286,753.610352 
	C282.843262,732.336304 285.329803,711.453125 300.469055,694.525818 
	C315.187714,678.068665 332.088440,663.562988 347.889221,648.336975 
	C346.897827,656.567688 351.548981,666.266296 341.878387,674.392090 
	C332.097351,682.610718 323.323364,692.102905 314.609497,701.501892 
	C291.316956,726.625854 302.176544,766.978760 334.722992,776.953491 
	C353.667542,782.759644 374.673431,775.487793 385.916626,759.231262 
	C397.322845,742.739014 396.901154,720.971191 384.853210,705.097107 
	C383.653137,703.515991 382.375519,701.993652 380.970215,700.239746 
	C384.525085,696.732483 388.033051,693.271545 391.537231,689.814331 
	C417.798126,713.613159 417.253632,763.802856 378.447327,786.484985 
z"/>
<path fill="#3B74B7" opacity="1.000000" stroke="none" 
	d="
M1316.022461,383.844421 
	C1307.905884,383.245514 1300.269043,382.785004 1292.678223,381.921478 
	C1291.412720,381.777496 1289.530884,380.023499 1289.311768,378.772217 
	C1286.360229,361.913147 1286.438843,345.004639 1289.340454,328.145874 
	C1289.541870,326.975708 1291.227783,325.354584 1292.416870,325.166473 
	C1310.958374,322.233154 1329.521851,322.400055 1348.107544,324.989166 
	C1352.179443,325.556366 1351.673340,328.836609 1351.749756,331.008942 
	C1352.194092,343.631592 1352.229736,356.268768 1352.388794,368.901184 
	C1352.397095,369.562836 1352.260986,370.225586 1352.204956,370.888916 
	C1351.155273,383.329803 1352.875366,381.844452 1339.458740,383.023529 
	C1331.846436,383.692474 1324.166992,383.598236 1316.022461,383.844421 
z"/>
<path fill="#3A74B7" opacity="1.000000" stroke="none" 
	d="
M1732.777832,324.788330 
	C1750.622681,322.023743 1768.022095,322.594086 1785.371582,325.189850 
	C1786.618652,325.376434 1788.518188,327.449646 1788.535278,328.667725 
	C1788.766968,345.251923 1788.811646,361.841461 1788.556641,378.424408 
	C1788.537354,379.676361 1786.024170,381.750977 1784.452148,381.986450 
	C1766.420410,384.687317 1748.338257,384.620300 1730.306030,381.965546 
	C1728.890503,381.757141 1726.833008,379.924896 1726.599487,378.581970 
	C1723.699219,361.905060 1723.862915,345.194580 1726.439453,328.462433 
	C1727.052368,324.481171 1729.819336,325.124084 1732.777832,324.788330 
z"/>
<path fill="#232022" opacity="1.000000" stroke="none" 
	d="
M499.068451,146.292145 
	C497.361389,151.694077 495.593933,156.654175 493.696381,161.979340 
	C483.575989,158.923279 473.657379,155.928146 463.067413,152.717728 
	C457.641724,151.091980 452.887390,149.681503 448.133057,148.271027 
	C437.137421,144.784622 426.141754,141.298203 414.625916,137.646851 
	C416.515076,132.191635 418.279510,127.096527 420.067169,121.639709 
	C425.471954,114.132660 430.977539,107.075699 436.166748,99.793274 
	C437.942230,97.301582 439.544891,96.860306 442.331451,97.870148 
	C448.548889,100.123276 454.885559,102.047379 461.790894,104.429169 
	C467.216644,106.287674 472.025146,107.822540 476.833618,109.357407 
	C484.470886,111.997459 492.108154,114.637512 499.008087,117.022690 
	C499.008087,126.916801 499.008087,136.383575 499.068451,146.292145 
z"/>
<path fill="#232022" opacity="1.000000" stroke="none" 
	d="
M1191.588379,339.870392 
	C1206.311890,339.581787 1220.649902,339.410858 1235.449463,339.235107 
	C1240.802368,339.717957 1241.990723,342.781158 1242.156738,347.234741 
	C1242.339478,352.135986 1243.284424,357.008820 1244.014893,362.269287 
	C1244.132568,366.108887 1244.132568,369.573273 1244.132568,373.468262 
	C1224.491943,373.468262 1205.215332,373.468262 1185.261353,373.468262 
	C1185.261353,370.291077 1185.261353,367.055725 1185.203857,363.349701 
	C1186.007446,356.470520 1186.699951,350.031219 1187.861694,343.677704 
	C1188.115356,342.290588 1190.045166,341.209900 1191.588379,339.870392 
z"/>
<path fill="#D0D2D3" opacity="1.000000" stroke="none" 
	d="
M476.913025,108.962532 
	C472.025146,107.822540 467.216644,106.287674 462.176910,104.475677 
	C467.627289,86.490776 473.318695,68.786110 478.982880,51.072750 
	C480.210205,47.234520 481.313568,43.136875 485.870544,42.113537 
	C492.572876,40.608448 496.893616,46.323509 494.593536,53.577713 
	C488.776550,71.923569 482.865692,90.239655 476.913025,108.962532 
z"/>
<path fill="#BD5036" opacity="1.000000" stroke="none" 
	d="
M370.694519,686.571899 
	C363.333405,685.231628 360.036499,680.523743 362.520294,675.325684 
	C364.193390,671.824097 367.120850,670.019043 370.999573,670.641479 
	C375.042206,671.290161 377.610962,673.807983 377.833191,678.018188 
	C378.080719,682.708191 375.505127,685.409119 370.694519,686.571899 
z"/>
<path fill="#040404" opacity="1.000000" stroke="none" 
	d="
M472.270966,249.926575 
	C469.386932,249.206680 465.830902,249.161423 464.288666,247.376328 
	C462.964355,245.843430 462.955444,241.635559 464.181183,239.875595 
	C465.380554,238.153442 469.250214,236.877609 471.257568,237.529938 
	C473.256287,238.179459 474.873016,241.298950 475.719727,243.670212 
	C476.164490,244.915710 474.602600,246.877731 473.763855,248.892731 
	C473.211517,249.461578 472.842194,249.653885 472.270966,249.926575 
z"/>
<path fill="#000001" opacity="1.000000" stroke="none" 
	d="
M455.668091,482.518616 
	C443.765717,524.196716 417.195984,550.697205 375.651123,561.430176 
	C321.155853,575.508850 260.860229,539.203491 248.568375,484.231232 
	C239.248123,442.548767 273.783539,404.996307 319.175995,414.536804 
	C329.067291,416.615723 338.532440,420.753876 348.435272,422.739838 
	C379.309265,428.931335 402.837158,416.645325 416.411621,387.879456 
	C418.103271,384.294708 419.541412,380.590332 421.768188,375.366943 
	C428.363647,383.258484 435.027740,389.999878 440.256775,397.714050 
	C457.716248,423.471283 462.281952,451.832886 455.668091,482.518616 
z"/>
<path fill="#D83934" opacity="1.000000" stroke="none" 
	d="
M459.503571,162.218384 
	C457.292877,169.677338 455.246063,177.190628 452.798492,184.570999 
	C451.669678,187.974777 451.603882,190.507996 454.031799,193.621841 
	C459.575378,200.731674 459.193756,210.069107 453.773773,217.202347 
	C448.754852,223.807709 439.789246,226.544724 431.923065,223.872940 
	C423.726562,221.088928 418.183105,213.388397 418.307892,204.959732 
	C418.437012,196.233765 424.317871,188.760025 432.633759,185.934601 
	C434.565033,185.278442 436.711639,183.248779 437.418945,181.351440 
	C440.196259,173.901810 442.437988,166.252472 445.398315,158.399216 
	C450.446503,159.486877 454.975037,160.852631 459.503571,162.218384 
z"/>
<path fill="#F8FAFC" opacity="1.000000" stroke="none" 
	d="
M373.027527,303.014404 
	C377.369812,293.370575 382.663025,284.013977 385.695557,273.974518 
	C387.496765,268.011444 386.843781,260.707123 385.347229,254.473282 
	C382.276642,241.682709 386.769196,230.675980 399.503326,225.076416 
	C392.932892,235.907776 395.166687,246.535294 397.658447,257.337311 
	C401.814758,275.355133 391.681000,294.377899 373.291809,303.127441 
	C372.974884,302.977661 373.027527,303.014404 373.027527,303.014404 
z"/>
<path fill="#F8FAFC" opacity="1.000000" stroke="none" 
	d="
M424.263245,335.311157 
	C422.285034,339.492310 421.259186,344.342712 418.269257,346.863037 
	C405.882996,357.303894 402.954437,371.260620 402.092682,386.201172 
	C401.868652,390.085297 402.058960,393.993347 402.058960,398.583435 
	C389.848419,381.485565 391.489716,358.595123 405.230835,344.333557 
	C408.562286,340.875916 412.138367,337.367279 414.381226,333.221649 
	C417.050903,328.287201 418.404724,322.640839 420.216034,317.615448 
	C423.156067,322.292633 424.978882,328.252960 424.263245,335.311157 
z"/>
<path fill="#000102" opacity="1.000000" stroke="none" 
	d="
M349.815552,380.940948 
	C348.422607,372.425903 352.492218,365.605927 359.599426,364.024078 
	C367.429657,362.281281 374.554138,366.456421 376.661743,374.022949 
	C378.541565,380.771698 374.306213,388.242737 367.273010,390.584503 
	C360.141357,392.959076 353.236359,389.281250 349.815552,380.940948 
z"/>
<path fill="#040404" opacity="1.000000" stroke="none" 
	d="
M401.023499,337.277191 
	C396.379333,338.846039 393.084900,337.390228 390.915375,333.652832 
	C388.942291,330.253845 389.402557,326.789398 392.132965,324.002319 
	C394.812073,321.267578 398.116760,320.437805 401.705261,322.358673 
	C405.195404,324.226868 407.015350,327.350037 405.931458,331.050293 
	C405.265900,333.322418 402.954041,335.112244 401.023499,337.277191 
z"/>
<path fill="#D0D2D3" opacity="1.000000" stroke="none" 
	d="
M459.680420,161.929596 
	C454.975037,160.852631 450.446503,159.486877 445.560608,158.059601 
	C446.132385,154.989822 447.061584,151.981567 448.061890,148.622177 
	C452.887390,149.681503 457.641724,151.091980 462.672791,152.728546 
	C461.918793,155.850037 460.888031,158.745407 459.680420,161.929596 
z"/>
<path fill="#040404" opacity="1.000000" stroke="none" 
	d="
M431.475677,249.970963 
	C427.123260,247.772980 425.575714,244.625061 427.606689,240.471603 
	C429.194885,237.223648 432.198975,236.137711 435.549622,237.308304 
	C438.875092,238.470062 440.613220,241.155853 439.909637,244.695267 
	C439.062836,248.955032 436.110291,250.607224 431.475677,249.970963 
z"/>
<path fill="#E6E5E5" opacity="1.000000" stroke="none" 
	d="
M476.043396,224.050507 
	C475.912567,224.075607 475.708344,224.025482 475.662476,223.901276 
	C475.820801,223.827194 475.970032,223.975266 476.043396,224.050507 
z"/>
<path fill="#F8FAFC" opacity="1.000000" stroke="none" 
	d="
M400.388885,224.470459 
	C400.353973,224.466721 400.423798,224.474182 400.388885,224.470459 
z"/>
<path fill="#F8FAFC" opacity="1.000000" stroke="none" 
	d="
M372.948303,302.959656 
	C372.896179,303.180878 372.870636,303.420105 372.845093,303.659302 
	C372.767517,303.496063 372.689911,303.332855 372.819916,303.092010 
	C373.027527,303.014404 372.974884,302.977661 372.948303,302.959656 
z"/>
<path fill="#000102" opacity="1.000000" stroke="none" 
	d="
M1153.999023,549.335938 
	C1173.127563,549.303528 1191.383789,547.276794 1208.210693,538.494995 
	C1212.430298,536.292786 1216.263062,533.349365 1220.811768,530.397400 
	C1221.218384,539.378052 1219.236328,547.663513 1216.342529,555.697144 
	C1196.899658,609.673340 1126.838745,624.285400 1087.205322,582.793457 
	C1084.405518,579.862427 1084.575562,577.386475 1086.208618,574.369324 
	C1092.957764,561.900513 1104.015381,554.797607 1117.360718,552.372620 
	C1129.199829,550.221313 1141.437500,550.262390 1153.999023,549.335938 
z"/>
<path fill="#000102" opacity="1.000000" stroke="none" 
	d="
M1154.158691,507.352295 
	C1157.635620,501.679108 1162.475464,499.135315 1168.655762,500.121124 
	C1174.153931,500.998138 1178.201050,504.292511 1179.612549,509.780762 
	C1181.019043,515.250000 1180.019531,520.352783 1175.442261,524.291870 
	C1170.620728,528.441284 1163.634521,528.760315 1158.354736,525.007629 
	C1152.842163,521.089478 1151.319946,515.024353 1154.158691,507.352295 
z"/>
<path fill="#040404" opacity="1.000000" stroke="none" 
	d="
M1138.746338,465.269531 
	C1142.112915,468.522125 1143.123169,471.924591 1140.869629,475.858093 
	C1138.875244,479.339355 1135.418701,481.107239 1132.029907,479.616425 
	C1129.419556,478.468140 1126.781982,475.486633 1125.967041,472.775879 
	C1125.356323,470.745117 1127.015137,467.244690 1128.757446,465.476807 
	C1131.432617,462.762451 1135.113525,463.094330 1138.746338,465.269531 
z"/>
<path fill="#040404" opacity="1.000000" stroke="none" 
	d="
M1160.339355,287.659729 
	C1157.259155,284.864410 1154.431763,282.316406 1151.604248,279.768372 
	C1151.804321,279.328186 1152.004272,278.887970 1152.204224,278.447784 
	C1163.746948,277.503021 1175.125122,274.080048 1186.869141,276.283020 
	C1192.305542,277.302887 1196.081055,282.022675 1196.581299,288.204407 
	C1197.075073,294.303558 1194.543091,299.283905 1189.206787,302.425415 
	C1184.386963,305.262848 1179.203979,305.646912 1174.815186,301.837280 
	C1169.812866,297.494873 1165.311401,292.575592 1160.339355,287.659729 
z"/>
<path fill="#040404" opacity="1.000000" stroke="none" 
	d="
M1015.430298,279.617401 
	C1007.890320,274.463165 1000.648132,269.522583 992.487061,263.955109 
	C1002.831482,260.795166 1012.188599,257.363586 1021.826782,255.162689 
	C1030.510376,253.179749 1036.994995,257.421356 1038.921021,264.843781 
	C1040.883423,272.406403 1037.234009,279.834167 1030.143555,282.862244 
	C1024.601807,285.228943 1020.171753,282.555634 1015.430298,279.617401 
z"/>
<path fill="#040404" opacity="1.000000" stroke="none" 
	d="
M565.170288,231.500961 
	C560.096741,234.172195 555.451843,233.560120 551.166504,230.751801 
	C543.002258,225.401489 534.970520,219.848938 526.584839,212.904037 
	C537.289917,210.041351 547.890930,206.648117 558.740356,204.521744 
	C564.910339,203.312500 569.933167,207.670303 571.907410,213.662018 
	C574.231750,220.716156 572.133911,226.464188 565.170288,231.500961 
z"/>
<path fill="#040404" opacity="1.000000" stroke="none" 
	d="
M676.122131,234.823120 
	C672.921875,232.708511 670.035767,230.769775 667.149658,228.831039 
	C667.072937,228.341187 666.996216,227.851349 666.919434,227.361511 
	C677.668274,224.576035 688.313232,221.226517 699.205505,219.219788 
	C705.587402,218.044022 710.043945,221.861069 712.249268,227.731979 
	C714.390869,233.433350 712.751709,240.117554 708.217346,244.173035 
	C703.688538,248.223511 698.094360,249.054626 692.607422,245.789139 
	C687.046204,242.479446 681.813110,238.618484 676.122131,234.823120 
z"/>
<path fill="#040404" opacity="1.000000" stroke="none" 
	d="
M854.651550,234.114212 
	C861.565491,234.739288 865.430359,238.577667 866.901489,244.594788 
	C868.307312,250.344772 866.665405,255.477417 862.119324,259.477631 
	C857.337769,263.684906 851.979553,264.280426 846.028992,260.518860 
	C837.614014,255.199387 829.469116,249.452667 820.982605,242.440735 
	C832.063721,239.660141 843.144836,236.879547 854.651550,234.114212 
z"/>
</svg>