<svg version="1.1" id="Layer_1" xmlns="http://www.w3.org/2000/svg" xmlns:xlink="http://www.w3.org/1999/xlink" x="0px" y="0px"
	 width="100%" viewBox="1.000028 1.000038 1323.9999 317.99997" enable-background="new 0 0 1324 318" xml:space="preserve">
<path fill="#FFFFFF" opacity="1.000000" stroke="none" 
	d="
M953.000000,319.000000 
	C635.333374,319.000000 318.166748,319.000000 1.000085,319.000000 
	C1.000057,213.000046 1.000057,107.000099 1.000028,1.000114 
	C442.333221,1.000076 883.666443,1.000076 1324.999756,1.000038 
	C1324.999756,106.999886 1324.999756,212.999771 1324.999878,318.999817 
	C1201.166626,319.000000 1077.333374,319.000000 953.000000,319.000000 
M1066.757935,142.228378 
	C1062.233643,147.057648 1056.797974,151.316864 1053.354492,156.822159 
	C1042.686157,173.878433 1042.076538,192.503586 1048.031006,211.168762 
	C1058.581177,244.239899 1095.347168,252.844086 1118.787598,233.897964 
	C1119.631958,233.215546 1120.584717,232.667343 1121.947876,231.744553 
	C1122.101440,235.120605 1122.224731,237.832489 1122.347778,240.536224 
	C1127.331177,240.536224 1131.747559,240.536224 1136.262451,240.536224 
	C1136.262451,187.886612 1136.262451,135.541214 1136.262451,82.881454 
	C1132.744019,83.592445 1129.699951,84.441521 1126.600586,84.772141 
	C1123.071533,85.148605 1121.988281,86.689613 1122.042480,90.274849 
	C1122.258789,104.604446 1122.140747,118.939247 1122.118530,133.272079 
	C1122.116089,134.828476 1121.932983,136.384598 1121.808472,138.334183 
	C1102.759155,131.050323 1084.627808,130.498993 1066.757935,142.228378 
M819.115540,196.504395 
	C813.597595,211.029358 808.079651,225.554321 802.274780,240.834549 
	C806.108032,240.834549 809.098755,240.525711 811.998474,240.907654 
	C816.247620,241.467300 818.106506,239.661362 819.434265,235.767593 
	C823.078186,225.081757 827.235596,214.571899 830.958984,203.911789 
	C832.059631,200.760742 833.595093,199.589417 837.049622,199.623154 
	C855.867249,199.807007 874.687927,199.773697 893.506470,199.645142 
	C896.469788,199.624893 897.871277,200.488464 898.880310,203.370773 
	C902.884705,214.809250 907.124146,226.167740 911.474182,237.479874 
	C911.995117,238.834564 913.638611,240.541092 914.911926,240.676895 
	C918.829529,241.094696 922.820007,240.829132 927.432983,240.829132 
	C926.854309,238.879608 926.525818,237.476257 926.027039,236.136276 
	C910.270203,193.801819 894.506897,151.469757 878.719666,109.146629 
	C874.128967,96.839722 874.094788,96.945747 860.741821,96.991417 
	C857.796204,97.001503 856.356934,97.832123 855.286560,100.686211 
	C843.388672,132.408249 831.342102,164.074478 819.115540,196.504395 
M752.954468,147.032791 
	C759.697021,149.159836 764.052917,153.730362 765.726624,160.488541 
	C766.635132,164.156998 766.964294,168.049454 766.984863,171.843964 
	C767.099548,192.999527 767.039978,214.156036 767.040039,235.312225 
	C767.040039,237.063431 767.040039,238.814621 767.040039,240.435913 
	C772.334045,240.435913 776.893616,240.435913 781.621094,240.435913 
	C781.621094,214.753448 782.014343,189.445007 781.451172,164.157867 
	C781.179443,151.960800 776.353271,141.299637 764.491455,135.680115 
	C755.204834,131.280579 745.221985,131.000793 735.834839,134.720352 
	C727.664001,137.957947 720.139221,142.825989 712.233643,147.024170 
	C712.233643,126.272316 712.233643,104.739105 712.233643,82.839462 
	C707.172180,83.886612 702.684509,84.815033 698.261475,85.730095 
	C698.261475,137.604874 698.261475,189.004929 698.261475,240.557129 
	C702.929871,240.557129 707.334961,240.557129 712.178650,240.557129 
	C712.178650,238.503616 712.178711,236.708572 712.178711,234.913528 
	C712.178711,211.591751 712.141052,188.269791 712.252869,164.948532 
	C712.261475,163.156311 712.779846,160.776794 713.981934,159.672226 
	C724.755981,149.772400 737.067993,144.114594 752.954468,147.032791 
M417.477600,144.962479 
	C415.652954,146.897583 413.667297,148.706009 412.029602,150.788132 
	C400.452881,165.506653 398.057434,182.375076 400.822968,200.320129 
	C407.489563,243.578583 453.164185,253.757538 480.401123,234.406219 
	C504.061890,217.595764 509.820953,177.630508 492.242462,152.631622 
	C475.743866,129.168488 441.948212,125.464378 417.477600,144.962479 
M1210.058838,161.645157 
	C1204.409546,174.713150 1203.120850,188.235062 1205.970825,202.147156 
	C1209.823486,220.952896 1219.856079,234.945526 1238.580200,240.904663 
	C1258.310059,247.183975 1276.617310,243.873398 1291.555420,228.944702 
	C1305.573486,214.935287 1308.834839,197.211411 1306.506104,178.203049 
	C1304.458984,161.494995 1297.276855,147.634796 1282.289429,138.988251 
	C1260.187378,126.237061 1225.009277,130.845184 1210.058838,161.645157 
M983.294739,242.933090 
	C994.094604,240.814011 1002.959534,234.910416 1012.103943,227.089722 
	C1012.103943,233.342789 1012.103943,238.213577 1012.103943,243.569824 
	C1017.073242,242.547653 1021.417175,241.654129 1025.849731,240.742355 
	C1025.849731,205.556961 1025.849731,170.670120 1025.849731,135.581940 
	C1021.158081,135.581940 1016.754333,135.581940 1011.869141,135.581940 
	C1011.869141,137.671875 1011.869080,139.465775 1011.869080,141.259689 
	C1011.869080,162.242828 1011.189819,183.257568 1012.164246,204.195358 
	C1012.630737,214.216721 1008.612244,219.725555 1000.614258,223.821426 
	C998.544250,224.881516 996.547852,226.245483 994.347229,226.856934 
	C989.893738,228.094330 985.356018,229.555725 980.795776,229.785172 
	C965.730530,230.543121 957.241089,222.563660 957.081604,207.415863 
	C956.848450,185.269455 957.008667,163.118912 957.001343,140.970123 
	C957.000793,139.211197 957.001282,137.452271 957.001282,135.622406 
	C951.733582,135.622406 947.166931,135.622406 942.181580,135.622406 
	C942.181580,137.592209 942.181580,139.224838 942.181580,140.857483 
	C942.181702,162.173691 942.139465,183.490051 942.221375,204.805939 
	C942.236023,208.619812 942.486633,212.477432 943.105835,216.236191 
	C945.217896,229.057877 951.574646,238.828384 964.719543,242.099045 
	C970.354492,243.501083 976.519592,242.772919 983.294739,242.933090 
M334.495850,110.934937 
	C339.251617,110.934937 344.007355,110.934937 349.107727,110.934937 
	C349.107727,154.512894 349.107727,197.439865 349.107727,240.476379 
	C354.187073,240.476379 358.899902,240.476379 363.993774,240.476379 
	C363.993774,197.210327 363.993774,154.286392 363.993774,110.786400 
	C380.914948,110.786400 397.457977,110.786400 413.908234,110.786400 
	C413.908234,105.941269 413.908234,101.678970 413.908234,97.376633 
	C375.403625,97.376633 337.192505,97.376633 298.875214,97.376633 
	C298.875214,101.968010 298.875214,106.248436 298.875214,110.934937 
	C310.572205,110.934937 322.034515,110.934937 334.495850,110.934937 
M636.632324,230.001740 
	C622.030151,229.745926 611.457092,222.788162 605.359070,209.817200 
	C599.385010,197.109863 599.062927,183.632843 603.542297,170.400238 
	C609.080750,154.038956 621.534851,145.821808 638.913330,145.989029 
	C648.888916,146.085022 657.994324,149.142731 666.801636,154.249573 
	C667.981934,150.391296 669.239319,147.119278 669.876221,143.730667 
	C670.090088,142.592789 669.073853,140.545914 668.029175,139.949966 
	C649.419250,129.333603 617.907776,127.885368 599.732422,148.874435 
	C589.022217,161.242676 585.219727,175.911942 585.960754,191.934464 
	C587.207153,218.885178 602.805725,242.489731 635.594727,243.672195 
	C647.899841,244.115936 659.562500,241.320999 670.179565,234.598434 
	C669.088257,230.107254 668.087952,225.990494 667.015381,221.576538 
	C657.508850,227.111298 648.034851,230.389557 636.632324,230.001740 
M139.568161,240.828262 
	C143.507767,240.828262 147.447372,240.828262 151.605408,240.828262 
	C151.605408,202.186035 151.605408,164.158752 151.605408,125.791618 
	C145.043518,125.791618 138.651138,125.791618 132.288712,125.791618 
	C132.288712,164.203247 132.288712,202.362244 132.288712,240.828186 
	C134.649429,240.828186 136.623840,240.828186 139.568161,240.828262 
M538.060425,149.892151 
	C537.397278,150.703079 536.734070,151.514008 535.240784,153.340057 
	C535.240784,145.729385 535.240784,139.346756 535.240784,132.477814 
	C530.133911,133.537247 525.661804,134.465027 521.282959,135.373428 
	C521.282959,170.698807 521.282959,205.573669 521.282959,240.553314 
	C525.981934,240.553314 530.391113,240.553314 535.253601,240.553314 
	C535.253601,238.507126 535.253601,236.710831 535.253601,234.914536 
	C535.253601,217.769943 535.841980,200.598404 535.058228,183.489716 
	C534.482788,170.929428 540.260986,161.843475 548.186523,153.541946 
	C554.656738,146.764771 562.862427,144.672073 571.978455,147.010880 
	C574.954529,147.774429 577.780457,149.123428 581.022705,150.334534 
	C581.893616,147.383133 582.605103,144.508286 583.595642,141.733047 
	C584.829285,138.276794 583.950623,136.428192 580.334656,135.048965 
	C563.642151,128.682053 549.737122,133.283401 538.060425,149.892151 
M65.613731,221.035812 
	C52.229115,227.724243 38.850166,234.424072 25.454559,241.090424 
	C23.090963,242.266693 21.850132,243.663818 21.899429,246.713913 
	C22.128153,260.864807 22.118484,275.023163 21.914804,289.174835 
	C21.866013,292.564850 23.279461,294.197021 26.040854,295.566864 
	C40.311546,302.646301 54.489296,309.915039 68.822853,316.863190 
	C70.540558,317.695862 73.357880,317.705414 75.071754,316.873383 
	C89.547668,309.845917 103.858017,302.478363 118.289047,295.356659 
	C121.001221,294.018219 122.090263,292.340851 122.060059,289.280975 
	C121.921989,275.294281 121.870087,261.303375 122.094475,247.318909 
	C122.147568,244.009842 121.101212,242.365219 118.198418,240.956818 
	C104.449089,234.285660 90.696938,227.602570 77.185120,220.470352 
	C73.083191,218.305130 69.865021,218.081848 65.613731,221.035812 
M1166.730347,158.499985 
	C1166.730347,185.758591 1166.730347,213.017212 1166.730347,240.421265 
	C1171.816162,240.421265 1176.340698,240.421265 1180.734131,240.421265 
	C1180.734131,204.333115 1180.734131,168.646896 1180.734131,132.493011 
	C1175.808350,133.560547 1171.337769,134.529449 1166.730103,135.528046 
	C1166.730103,143.197693 1166.730103,150.348846 1166.730347,158.499985 
M105.015633,209.338028 
	C105.769691,210.329773 106.488441,212.147156 107.283463,212.181152 
	C113.039375,212.427322 118.810699,212.313293 124.624100,212.313293 
	C124.624100,189.598022 124.624100,167.422775 124.624100,145.317886 
	C117.984055,145.317886 111.725632,145.317886 105.012947,145.317886 
	C105.012947,166.511780 105.012947,187.436478 105.015633,209.338028 
M78.230362,185.500214 
	C78.230362,194.281906 78.230362,203.063599 78.230362,212.083511 
	C85.064751,212.083511 91.416687,212.083511 97.643776,212.083511 
	C97.643776,196.140549 97.643776,180.581512 97.643776,165.221832 
	C91.039886,165.221832 84.806122,165.221832 78.230492,165.221832 
	C78.230492,171.902084 78.230492,178.201279 78.230362,185.500214 
M178.932312,192.503601 
	C178.932312,187.409195 178.932312,182.314789 178.932312,177.374481 
	C171.930145,177.374481 165.693008,177.374481 159.456116,177.374481 
	C159.456116,189.162582 159.456116,200.567947 159.456116,212.189850 
	C166.026138,212.189850 172.284607,212.189850 178.932281,212.189850 
	C178.932281,205.777206 178.932281,199.639389 178.932312,192.503601 
M70.824921,191.945816 
	C64.493156,191.616959 58.161385,191.288116 51.553486,190.944931 
	C51.553486,198.513306 51.553486,205.206848 51.553486,212.095703 
	C58.177032,212.095703 64.507690,212.095703 71.076012,212.095703 
	C71.076012,205.423447 71.076012,199.137070 70.824921,191.945816 
M192.636368,212.472198 
	C196.907852,212.472198 201.179337,212.472198 205.478668,212.472198 
	C205.478668,205.678436 205.478668,199.498444 205.478668,193.382263 
	C198.842377,193.382263 192.610825,193.382263 186.171387,193.382263 
	C186.171387,199.756363 186.171387,205.830688 186.171387,212.471634 
	C188.117310,212.471634 189.905365,212.471634 192.636368,212.472198 
M1183.675171,99.813873 
	C1182.131714,92.744774 1178.051392,89.647484 1171.854492,90.841080 
	C1166.237183,91.923050 1163.174194,97.145828 1164.431152,103.499374 
	C1165.573975,109.277023 1170.251343,112.322495 1176.371704,111.036781 
	C1181.955688,109.863739 1183.469360,105.628853 1183.675171,99.813873 
M169.409607,146.067703 
	C160.787415,147.054947 156.416824,154.456665 160.629349,161.077759 
	C163.238434,165.178619 167.081802,166.655121 171.789871,165.484314 
	C176.096970,164.413254 178.950409,160.455124 178.930283,155.891205 
	C178.907837,150.800476 176.169861,147.728302 169.409607,146.067703 
M137.103653,115.658691 
	C141.805145,117.916611 146.218948,117.589951 149.752991,113.586426 
	C152.647919,110.306946 153.002167,106.360687 150.981995,102.470604 
	C149.049713,98.749733 145.749344,96.939629 141.583878,97.227524 
	C137.418808,97.515396 134.380630,99.722488 133.027328,103.725021 
	C131.486755,108.281395 132.575073,112.191536 137.103653,115.658691 
M89.240662,154.065506 
	C95.852287,152.397476 98.899437,148.295517 97.906494,142.399933 
	C97.101799,137.621979 92.220192,133.795990 87.520653,134.259964 
	C82.265648,134.778763 78.250000,139.080200 78.235085,144.206345 
	C78.218773,149.813492 82.020454,153.496445 89.240662,154.065506 
z"/>
<path fill="#EF5231" opacity="1.000000" stroke="none" 
	d="
M1067.065186,142.041290 
	C1084.627808,130.498993 1102.759155,131.050323 1121.808472,138.334183 
	C1121.932983,136.384598 1122.116089,134.828476 1122.118530,133.272079 
	C1122.140747,118.939247 1122.258789,104.604446 1122.042480,90.274849 
	C1121.988281,86.689613 1123.071533,85.148605 1126.600586,84.772141 
	C1129.699951,84.441521 1132.744019,83.592445 1136.262451,82.881454 
	C1136.262451,135.541214 1136.262451,187.886612 1136.262451,240.536224 
	C1131.747559,240.536224 1127.331177,240.536224 1122.347778,240.536224 
	C1122.224731,237.832489 1122.101440,235.120605 1121.947876,231.744553 
	C1120.584717,232.667343 1119.631958,233.215546 1118.787598,233.897964 
	C1095.347168,252.844086 1058.581177,244.239899 1048.031006,211.168762 
	C1042.076538,192.503586 1042.686157,173.878433 1053.354492,156.822159 
	C1056.797974,151.316864 1062.233643,147.057648 1067.065186,142.041290 
M1122.134033,185.500000 
	C1122.133789,176.183823 1122.221069,166.866043 1122.048950,157.553055 
	C1122.019531,155.961517 1121.347046,153.697571 1120.184204,152.916168 
	C1107.500854,144.393341 1082.287598,141.297119 1068.736816,159.071533 
	C1059.666138,170.969421 1057.956055,184.646088 1060.400269,198.871368 
	C1066.166626,232.433441 1097.802124,237.582138 1118.367676,221.792221 
	C1120.259521,220.339767 1121.863892,217.308731 1121.965820,214.940308 
	C1122.373169,205.475327 1122.134033,195.982513 1122.134033,185.500000 
z"/>
<path fill="#EE502F" opacity="1.000000" stroke="none" 
	d="
M819.225647,196.130096 
	C831.342102,164.074478 843.388672,132.408249 855.286560,100.686211 
	C856.356934,97.832123 857.796204,97.001503 860.741821,96.991417 
	C874.094788,96.945747 874.128967,96.839722 878.719666,109.146629 
	C894.506897,151.469757 910.270203,193.801819 926.027039,236.136276 
	C926.525818,237.476257 926.854309,238.879608 927.432983,240.829132 
	C922.820007,240.829132 918.829529,241.094696 914.911926,240.676895 
	C913.638611,240.541092 911.995117,238.834564 911.474182,237.479874 
	C907.124146,226.167740 902.884705,214.809250 898.880310,203.370773 
	C897.871277,200.488464 896.469788,199.624893 893.506470,199.645142 
	C874.687927,199.773697 855.867249,199.807007 837.049622,199.623154 
	C833.595093,199.589417 832.059631,200.760742 830.958984,203.911789 
	C827.235596,214.571899 823.078186,225.081757 819.434265,235.767593 
	C818.106506,239.661362 816.247620,241.467300 811.998474,240.907654 
	C809.098755,240.525711 806.108032,240.834549 802.274780,240.834549 
	C808.079651,225.554321 813.597595,211.029358 819.225647,196.130096 
M871.499756,186.064224 
	C878.224915,186.064224 884.950073,186.064224 892.285095,186.064224 
	C883.215027,161.308990 874.428955,137.328857 865.140930,111.978752 
	C855.737549,137.455017 846.864990,161.493240 837.795715,186.064255 
	C849.214355,186.064255 859.857117,186.064255 871.499756,186.064224 
z"/>
<path fill="#292929" opacity="1.000000" stroke="none" 
	d="
M752.547729,146.968567 
	C737.067993,144.114594 724.755981,149.772400 713.981934,159.672226 
	C712.779846,160.776794 712.261475,163.156311 712.252869,164.948532 
	C712.141052,188.269791 712.178711,211.591751 712.178711,234.913528 
	C712.178711,236.708572 712.178650,238.503616 712.178650,240.557129 
	C707.334961,240.557129 702.929871,240.557129 698.261475,240.557129 
	C698.261475,189.004929 698.261475,137.604874 698.261475,85.730095 
	C702.684509,84.815033 707.172180,83.886612 712.233643,82.839462 
	C712.233643,104.739105 712.233643,126.272316 712.233643,147.024170 
	C720.139221,142.825989 727.664001,137.957947 735.834839,134.720352 
	C745.221985,131.000793 755.204834,131.280579 764.491455,135.680115 
	C776.353271,141.299637 781.179443,151.960800 781.451172,164.157867 
	C782.014343,189.445007 781.621094,214.753448 781.621094,240.435913 
	C776.893616,240.435913 772.334045,240.435913 767.040039,240.435913 
	C767.040039,238.814621 767.040039,237.063431 767.040039,235.312225 
	C767.039978,214.156036 767.099548,192.999527 766.984863,171.843964 
	C766.964294,168.049454 766.635132,164.156998 765.726624,160.488541 
	C764.052917,153.730362 759.697021,149.159836 752.547729,146.968567 
z"/>
<path fill="#2A2A2A" opacity="1.000000" stroke="none" 
	d="
M417.746948,144.729370 
	C441.948212,125.464378 475.743866,129.168488 492.242462,152.631622 
	C509.820953,177.630508 504.061890,217.595764 480.401123,234.406219 
	C453.164185,253.757538 407.489563,243.578583 400.822968,200.320129 
	C398.057434,182.375076 400.452881,165.506653 412.029602,150.788132 
	C413.667297,148.706009 415.652954,146.897583 417.746948,144.729370 
M479.451508,216.877060 
	C489.944763,201.214783 490.659241,184.505219 483.961792,167.426849 
	C478.252777,152.869080 466.636078,145.602631 451.390350,145.414963 
	C436.764648,145.234940 425.507263,152.056335 419.026184,165.530838 
	C413.399414,177.229156 412.666199,189.493210 415.924713,201.992722 
	C419.488800,215.664352 427.329773,225.734451 441.402435,229.312500 
	C456.135742,233.058517 469.036133,229.520569 479.451508,216.877060 
z"/>
<path fill="#EE502E" opacity="1.000000" stroke="none" 
	d="
M1210.214233,161.302094 
	C1225.009277,130.845184 1260.187378,126.237061 1282.289429,138.988251 
	C1297.276855,147.634796 1304.458984,161.494995 1306.506104,178.203049 
	C1308.834839,197.211411 1305.573486,214.935287 1291.555420,228.944702 
	C1276.617310,243.873398 1258.310059,247.183975 1238.580200,240.904663 
	C1219.856079,234.945526 1209.823486,220.952896 1205.970825,202.147156 
	C1203.120850,188.235062 1204.409546,174.713150 1210.214233,161.302094 
M1238.447876,226.197845 
	C1258.783691,236.717972 1281.016968,228.622971 1289.427124,207.489975 
	C1294.431763,194.914490 1294.305786,182.109070 1289.775757,169.477097 
	C1283.639648,152.366547 1268.652710,143.522446 1250.599243,145.930710 
	C1235.465210,147.949524 1225.036621,157.939453 1220.644531,174.625351 
	C1215.230469,195.194641 1221.992920,215.445114 1238.447876,226.197845 
z"/>
<path fill="#EE502E" opacity="1.000000" stroke="none" 
	d="
M982.869263,242.972855 
	C976.519592,242.772919 970.354492,243.501083 964.719543,242.099045 
	C951.574646,238.828384 945.217896,229.057877 943.105835,216.236191 
	C942.486633,212.477432 942.236023,208.619812 942.221375,204.805939 
	C942.139465,183.490051 942.181702,162.173691 942.181580,140.857483 
	C942.181580,139.224838 942.181580,137.592209 942.181580,135.622406 
	C947.166931,135.622406 951.733582,135.622406 957.001282,135.622406 
	C957.001282,137.452271 957.000793,139.211197 957.001343,140.970123 
	C957.008667,163.118912 956.848450,185.269455 957.081604,207.415863 
	C957.241089,222.563660 965.730530,230.543121 980.795776,229.785172 
	C985.356018,229.555725 989.893738,228.094330 994.347229,226.856934 
	C996.547852,226.245483 998.544250,224.881516 1000.614258,223.821426 
	C1008.612244,219.725555 1012.630737,214.216721 1012.164246,204.195358 
	C1011.189819,183.257568 1011.869080,162.242828 1011.869080,141.259689 
	C1011.869080,139.465775 1011.869141,137.671875 1011.869141,135.581940 
	C1016.754333,135.581940 1021.158081,135.581940 1025.849731,135.581940 
	C1025.849731,170.670120 1025.849731,205.556961 1025.849731,240.742355 
	C1021.417175,241.654129 1017.073242,242.547653 1012.103943,243.569824 
	C1012.103943,238.213577 1012.103943,233.342789 1012.103943,227.089722 
	C1002.959534,234.910416 994.094604,240.814011 982.869263,242.972855 
z"/>
<path fill="#2A2A2A" opacity="1.000000" stroke="none" 
	d="
M333.996338,110.934937 
	C322.034515,110.934937 310.572205,110.934937 298.875214,110.934937 
	C298.875214,106.248436 298.875214,101.968010 298.875214,97.376633 
	C337.192505,97.376633 375.403625,97.376633 413.908234,97.376633 
	C413.908234,101.678970 413.908234,105.941269 413.908234,110.786400 
	C397.457977,110.786400 380.914948,110.786400 363.993774,110.786400 
	C363.993774,154.286392 363.993774,197.210327 363.993774,240.476379 
	C358.899902,240.476379 354.187073,240.476379 349.107727,240.476379 
	C349.107727,197.439865 349.107727,154.512894 349.107727,110.934937 
	C344.007355,110.934937 339.251617,110.934937 333.996338,110.934937 
z"/>
<path fill="#2A2A2A" opacity="1.000000" stroke="none" 
	d="
M637.091492,230.002151 
	C648.034851,230.389557 657.508850,227.111298 667.015381,221.576538 
	C668.087952,225.990494 669.088257,230.107254 670.179565,234.598434 
	C659.562500,241.320999 647.899841,244.115936 635.594727,243.672195 
	C602.805725,242.489731 587.207153,218.885178 585.960754,191.934464 
	C585.219727,175.911942 589.022217,161.242676 599.732422,148.874435 
	C617.907776,127.885368 649.419250,129.333603 668.029175,139.949966 
	C669.073853,140.545914 670.090088,142.592789 669.876221,143.730667 
	C669.239319,147.119278 667.981934,150.391296 666.801636,154.249573 
	C657.994324,149.142731 648.888916,146.085022 638.913330,145.989029 
	C621.534851,145.821808 609.080750,154.038956 603.542297,170.400238 
	C599.062927,183.632843 599.385010,197.109863 605.359070,209.817200 
	C611.457092,222.788162 622.030151,229.745926 637.091492,230.002151 
z"/>
<path fill="#EE4F2D" opacity="1.000000" stroke="none" 
	d="
M139.083221,240.828217 
	C136.623840,240.828186 134.649429,240.828186 132.288712,240.828186 
	C132.288712,202.362244 132.288712,164.203247 132.288712,125.791618 
	C138.651138,125.791618 145.043518,125.791618 151.605408,125.791618 
	C151.605408,164.158752 151.605408,202.186035 151.605408,240.828262 
	C147.447372,240.828262 143.507767,240.828262 139.083221,240.828217 
z"/>
<path fill="#282828" opacity="1.000000" stroke="none" 
	d="
M538.257080,149.562653 
	C549.737122,133.283401 563.642151,128.682053 580.334656,135.048965 
	C583.950623,136.428192 584.829285,138.276794 583.595642,141.733047 
	C582.605103,144.508286 581.893616,147.383133 581.022705,150.334534 
	C577.780457,149.123428 574.954529,147.774429 571.978455,147.010880 
	C562.862427,144.672073 554.656738,146.764771 548.186523,153.541946 
	C540.260986,161.843475 534.482788,170.929428 535.058228,183.489716 
	C535.841980,200.598404 535.253601,217.769943 535.253601,234.914536 
	C535.253601,236.710831 535.253601,238.507126 535.253601,240.553314 
	C530.391113,240.553314 525.981934,240.553314 521.282959,240.553314 
	C521.282959,205.573669 521.282959,170.698807 521.282959,135.373428 
	C525.661804,134.465027 530.133911,133.537247 535.240784,132.477814 
	C535.240784,139.346756 535.240784,145.729385 535.240784,153.340057 
	C536.734070,151.514008 537.397278,150.703079 538.257080,149.562653 
z"/>
<path fill="#000000" opacity="1.000000" stroke="none" 
	d="
M65.997391,221.000732 
	C69.865021,218.081848 73.083191,218.305130 77.185120,220.470352 
	C90.696938,227.602570 104.449089,234.285660 118.198418,240.956818 
	C121.101212,242.365219 122.147568,244.009842 122.094475,247.318909 
	C121.870087,261.303375 121.921989,275.294281 122.060059,289.280975 
	C122.090263,292.340851 121.001221,294.018219 118.289047,295.356659 
	C103.858017,302.478363 89.547668,309.845917 75.071754,316.873383 
	C73.357880,317.705414 70.540558,317.695862 68.822853,316.863190 
	C54.489296,309.915039 40.311546,302.646301 26.040854,295.566864 
	C23.279461,294.197021 21.866013,292.564850 21.914804,289.174835 
	C22.118484,275.023163 22.128153,260.864807 21.899429,246.713913 
	C21.850132,243.663818 23.090963,242.266693 25.454559,241.090424 
	C38.850166,234.424072 52.229115,227.724243 65.997391,221.000732 
M36.374519,295.051544 
	C47.514229,300.692993 58.620457,306.402985 69.839684,311.881561 
	C71.118050,312.505768 73.278709,312.337280 74.610306,311.682434 
	C88.718491,304.744324 102.741524,297.633057 117.002007,290.461884 
	C117.002007,276.587006 117.077606,262.595673 116.879723,248.608200 
	C116.860878,247.276703 115.426674,245.397751 114.150803,244.739151 
	C101.187538,238.047531 88.159508,231.476517 75.032372,225.113617 
	C73.433723,224.338745 70.820854,224.311310 69.228935,225.079346 
	C55.944271,231.488617 42.765228,238.119598 29.634737,244.840790 
	C28.464863,245.439636 27.125999,247.140381 27.111038,248.344864 
	C26.935553,262.472137 26.998449,276.602417 26.998449,290.423096 
	C30.139227,292.074127 32.875523,293.512543 36.374519,295.051544 
z"/>
<path fill="#EE4D2B" opacity="1.000000" stroke="none" 
	d="
M1166.730225,158.000000 
	C1166.730103,150.348846 1166.730103,143.197693 1166.730103,135.528046 
	C1171.337769,134.529449 1175.808350,133.560547 1180.734131,132.493011 
	C1180.734131,168.646896 1180.734131,204.333115 1180.734131,240.421265 
	C1176.340698,240.421265 1171.816162,240.421265 1166.730347,240.421265 
	C1166.730347,213.017212 1166.730347,185.758591 1166.730225,158.000000 
z"/>
<path fill="#EE4D2B" opacity="1.000000" stroke="none" 
	d="
M105.014290,208.849609 
	C105.012947,187.436478 105.012947,166.511780 105.012947,145.317886 
	C111.725632,145.317886 117.984055,145.317886 124.624100,145.317886 
	C124.624100,167.422775 124.624100,189.598022 124.624100,212.313293 
	C118.810699,212.313293 113.039375,212.427322 107.283463,212.181152 
	C106.488441,212.147156 105.769691,210.329773 105.014290,208.849609 
z"/>
<path fill="#EE4F2E" opacity="1.000000" stroke="none" 
	d="
M78.230423,185.000336 
	C78.230492,178.201279 78.230492,171.902084 78.230492,165.221832 
	C84.806122,165.221832 91.039886,165.221832 97.643776,165.221832 
	C97.643776,180.581512 97.643776,196.140549 97.643776,212.083511 
	C91.416687,212.083511 85.064751,212.083511 78.230362,212.083511 
	C78.230362,203.063599 78.230362,194.281906 78.230423,185.000336 
z"/>
<path fill="#EE502F" opacity="1.000000" stroke="none" 
	d="
M178.932297,193.002594 
	C178.932281,199.639389 178.932281,205.777206 178.932281,212.189850 
	C172.284607,212.189850 166.026138,212.189850 159.456116,212.189850 
	C159.456116,200.567947 159.456116,189.162582 159.456116,177.374481 
	C165.693008,177.374481 171.930145,177.374481 178.932312,177.374481 
	C178.932312,182.314789 178.932312,187.409195 178.932297,193.002594 
z"/>
<path fill="#EF5231" opacity="1.000000" stroke="none" 
	d="
M70.950470,192.398254 
	C71.076012,199.137070 71.076012,205.423447 71.076012,212.095703 
	C64.507690,212.095703 58.177032,212.095703 51.553486,212.095703 
	C51.553486,205.206848 51.553486,198.513306 51.553486,190.944931 
	C58.161385,191.288116 64.493156,191.616959 70.950470,192.398254 
z"/>
<path fill="#EE502F" opacity="1.000000" stroke="none" 
	d="
M192.164886,212.471924 
	C189.905365,212.471634 188.117310,212.471634 186.171387,212.471634 
	C186.171387,205.830688 186.171387,199.756363 186.171387,193.382263 
	C192.610825,193.382263 198.842377,193.382263 205.478668,193.382263 
	C205.478668,199.498444 205.478668,205.678436 205.478668,212.472198 
	C201.179337,212.472198 196.907852,212.472198 192.164886,212.471924 
z"/>
<path fill="#EE502F" opacity="1.000000" stroke="none" 
	d="
M1183.700195,100.207291 
	C1183.469360,105.628853 1181.955688,109.863739 1176.371704,111.036781 
	C1170.251343,112.322495 1165.573975,109.277023 1164.431152,103.499374 
	C1163.174194,97.145828 1166.237183,91.923050 1171.854492,90.841080 
	C1178.051392,89.647484 1182.131714,92.744774 1183.700195,100.207291 
z"/>
<path fill="#EF5231" opacity="1.000000" stroke="none" 
	d="
M169.808624,146.085815 
	C176.169861,147.728302 178.907837,150.800476 178.930283,155.891205 
	C178.950409,160.455124 176.096970,164.413254 171.789871,165.484314 
	C167.081802,166.655121 163.238434,165.178619 160.629349,161.077759 
	C156.416824,154.456665 160.787415,147.054947 169.808624,146.085815 
z"/>
<path fill="#EF5231" opacity="1.000000" stroke="none" 
	d="
M136.818741,115.398849 
	C132.575073,112.191536 131.486755,108.281395 133.027328,103.725021 
	C134.380630,99.722488 137.418808,97.515396 141.583878,97.227524 
	C145.749344,96.939629 149.049713,98.749733 150.981995,102.470604 
	C153.002167,106.360687 152.647919,110.306946 149.752991,113.586426 
	C146.218948,117.589951 141.805145,117.916611 136.818741,115.398849 
z"/>
<path fill="#EF5131" opacity="1.000000" stroke="none" 
	d="
M88.832481,154.071442 
	C82.020454,153.496445 78.218773,149.813492 78.235085,144.206345 
	C78.250000,139.080200 82.265648,134.778763 87.520653,134.259964 
	C92.220192,133.795990 97.101799,137.621979 97.906494,142.399933 
	C98.899437,148.295517 95.852287,152.397476 88.832481,154.071442 
z"/>
<path fill="#FFFEFE" opacity="1.000000" stroke="none" 
	d="
M1122.134033,186.000000 
	C1122.134033,195.982513 1122.373169,205.475327 1121.965820,214.940308 
	C1121.863892,217.308731 1120.259521,220.339767 1118.367676,221.792221 
	C1097.802124,237.582138 1066.166626,232.433441 1060.400269,198.871368 
	C1057.956055,184.646088 1059.666138,170.969421 1068.736816,159.071533 
	C1082.287598,141.297119 1107.500854,144.393341 1120.184204,152.916168 
	C1121.347046,153.697571 1122.019531,155.961517 1122.048950,157.553055 
	C1122.221069,166.866043 1122.133789,176.183823 1122.134033,186.000000 
z"/>
<path fill="#FFFDFC" opacity="1.000000" stroke="none" 
	d="
M870.999817,186.064240 
	C859.857117,186.064255 849.214355,186.064255 837.795715,186.064255 
	C846.864990,161.493240 855.737549,137.455017 865.140930,111.978752 
	C874.428955,137.328857 883.215027,161.308990 892.285095,186.064224 
	C884.950073,186.064224 878.224915,186.064224 870.999817,186.064240 
z"/>
<path fill="#FEFEFE" opacity="1.000000" stroke="none" 
	d="
M479.230499,217.161957 
	C469.036133,229.520569 456.135742,233.058517 441.402435,229.312500 
	C427.329773,225.734451 419.488800,215.664352 415.924713,201.992722 
	C412.666199,189.493210 413.399414,177.229156 419.026184,165.530838 
	C425.507263,152.056335 436.764648,145.234940 451.390350,145.414963 
	C466.636078,145.602631 478.252777,152.869080 483.961792,167.426849 
	C490.659241,184.505219 489.944763,201.214783 479.230499,217.161957 
z"/>
<path fill="#FFFEFD" opacity="1.000000" stroke="none" 
	d="
M1238.107910,226.050018 
	C1221.992920,215.445114 1215.230469,195.194641 1220.644531,174.625351 
	C1225.036621,157.939453 1235.465210,147.949524 1250.599243,145.930710 
	C1268.652710,143.522446 1283.639648,152.366547 1289.775757,169.477097 
	C1294.305786,182.109070 1294.431763,194.914490 1289.427124,207.489975 
	C1281.016968,228.622971 1258.783691,236.717972 1238.107910,226.050018 
z"/>
<path fill="#FEF100" opacity="1.000000" stroke="none" 
	d="
M35.993172,295.001251 
	C32.875523,293.512543 30.139227,292.074127 26.998449,290.423096 
	C26.998449,276.602417 26.935553,262.472137 27.111038,248.344864 
	C27.125999,247.140381 28.464863,245.439636 29.634737,244.840790 
	C42.765228,238.119598 55.944271,231.488617 69.228935,225.079346 
	C70.820854,224.311310 73.433723,224.338745 75.032372,225.113617 
	C88.159508,231.476517 101.187538,238.047531 114.150803,244.739151 
	C115.426674,245.397751 116.860878,247.276703 116.879723,248.608200 
	C117.077606,262.595673 117.002007,276.587006 117.002007,290.461884 
	C102.741524,297.633057 88.718491,304.744324 74.610306,311.682434 
	C73.278709,312.337280 71.118050,312.505768 69.839684,311.881561 
	C58.620457,306.402985 47.514229,300.692993 35.993172,295.001251 
M74.503616,262.417511 
	C70.684433,261.624542 67.245567,262.101349 66.277679,266.495911 
	C65.570610,269.706207 66.654648,272.460205 70.858482,273.509766 
	C71.894463,273.522980 72.930443,273.536163 74.604080,273.168182 
	C79.770096,269.782715 79.916382,266.053345 74.503616,262.417511 
M87.078705,262.025269 
	C84.700424,262.397003 82.322144,262.768738 79.955292,264.010498 
	C79.955292,266.501160 79.955292,268.991791 79.955292,270.997528 
	C82.541092,270.997528 84.246811,270.997528 86.066986,271.466248 
	C86.066986,271.466248 86.092888,271.948059 85.440414,271.973267 
	C84.848557,272.137939 84.256706,272.302643 83.664856,272.467346 
	C83.909790,272.842316 84.154724,273.217285 84.399658,273.592255 
	C84.951424,273.028778 85.503189,272.465302 86.821129,272.080627 
	C91.414948,275.666962 101.309959,274.685394 101.888496,271.080963 
	C100.384964,271.214935 98.790314,271.357056 97.195671,271.499176 
	C97.514061,270.431335 97.832443,269.363495 98.101311,268.461761 
	C96.569962,266.823181 95.017555,265.162079 93.112083,263.123169 
	C92.964737,266.468323 92.841789,269.259735 92.718842,272.051117 
	C92.248878,272.167755 91.778915,272.284393 91.308960,272.401062 
	C90.512215,271.320038 89.715477,270.239044 89.032753,268.443573 
	C89.928047,266.090149 92.837212,263.395905 87.078705,262.025269 
M57.171120,270.192780 
	C57.285122,267.855194 57.399124,265.517609 57.533314,262.766022 
	C54.075821,264.635468 52.887272,267.090393 54.436142,270.465515 
	C54.658974,270.951080 56.187298,270.837585 57.171120,270.192780 
M79.373642,273.472534 
	C79.373642,273.472534 79.551689,273.573761 79.551689,273.573761 
	C79.551689,273.573761 79.525543,273.367645 79.373642,273.472534 
z"/>
<path fill="#868000" opacity="1.000000" stroke="none" 
	d="
M86.092888,271.948059 
	C86.092888,271.948059 86.066986,271.466248 86.104111,270.897369 
	C87.067078,269.938354 87.992912,269.548218 88.918732,269.158051 
	C89.715477,270.239044 90.512215,271.320038 91.308960,272.401062 
	C91.778915,272.284393 92.248878,272.167755 92.718842,272.051117 
	C92.841789,269.259735 92.964737,266.468323 93.112083,263.123169 
	C95.017555,265.162079 96.569962,266.823181 98.101311,268.461761 
	C97.832443,269.363495 97.514061,270.431335 97.195671,271.499176 
	C98.790314,271.357056 100.384964,271.214935 101.888496,271.080963 
	C101.309959,274.685394 91.414948,275.666962 86.411095,272.033081 
	C86.001060,271.985565 86.092888,271.948059 86.092888,271.948059 
z"/>
<path fill="#EDE100" opacity="1.000000" stroke="none" 
	d="
M88.975746,268.800812 
	C87.992912,269.548218 87.067078,269.938354 86.046890,270.663025 
	C84.246811,270.997528 82.541092,270.997528 79.955292,270.997528 
	C79.955292,268.991791 79.955292,266.501160 80.299805,263.616852 
	C81.381989,263.957947 82.087105,264.730316 82.872612,265.409729 
	C83.207817,265.699677 83.710846,265.795563 84.427597,265.950195 
	C85.128639,265.173035 85.539711,264.425293 86.304779,263.627075 
	C87.087830,263.058319 87.516869,262.540070 87.945915,262.021820 
	C92.837212,263.395905 89.928047,266.090149 88.975746,268.800812 
z"/>
<path fill="#E2D700" opacity="1.000000" stroke="none" 
	d="
M73.966423,273.549377 
	C72.930443,273.536163 71.894463,273.522980 70.687607,272.878723 
	C70.222351,270.161072 69.430931,267.995148 69.748383,266.006226 
	C70.242508,262.910492 72.021767,261.552490 74.907623,264.696838 
	C74.638870,267.927887 74.302643,270.738617 73.966423,273.549377 
z"/>
<path fill="#423F00" opacity="1.000000" stroke="none" 
	d="
M74.840157,264.276581 
	C72.021767,261.552490 70.242508,262.910492 69.748383,266.006226 
	C69.430931,267.995148 70.222351,270.161072 70.521149,272.650452 
	C66.654648,272.460205 65.570610,269.706207 66.277679,266.495911 
	C67.245567,262.101349 70.684433,261.624542 74.721176,263.025970 
	C74.905869,263.848480 74.873016,264.062531 74.840157,264.276581 
z"/>
<path fill="#2E2C00" opacity="1.000000" stroke="none" 
	d="
M74.907623,264.696838 
	C74.873016,264.062531 74.905869,263.848480 74.971069,263.311218 
	C79.916382,266.053345 79.770096,269.782715 74.285248,273.358765 
	C74.302643,270.738617 74.638870,267.927887 74.907623,264.696838 
z"/>
<path fill="#252400" opacity="1.000000" stroke="none" 
	d="
M57.141289,270.597046 
	C56.187298,270.837585 54.658974,270.951080 54.436142,270.465515 
	C52.887272,267.090393 54.075821,264.635468 57.533314,262.766022 
	C57.399124,265.517609 57.285122,267.855194 57.141289,270.597046 
z"/>
<path fill="#625D00" opacity="1.000000" stroke="none" 
	d="
M87.512314,262.023560 
	C87.516869,262.540070 87.087830,263.058319 86.016953,263.378296 
	C84.962624,264.113251 84.550117,265.046448 84.137619,265.979645 
	C83.710846,265.795563 83.207817,265.699677 82.872612,265.409729 
	C82.087105,264.730316 81.381989,263.957947 80.294098,263.181824 
	C82.322144,262.768738 84.700424,262.397003 87.512314,262.023560 
z"/>
<path fill="#EDE100" opacity="1.000000" stroke="none" 
	d="
M86.028015,271.943695 
	C85.503189,272.465302 84.951424,273.028778 84.399658,273.592255 
	C84.154724,273.217285 83.909790,272.842316 83.664856,272.467346 
	C84.256706,272.302643 84.848557,272.137939 85.766647,271.960663 
	C86.092888,271.948059 86.001060,271.985565 86.028015,271.943695 
z"/>
<path fill="#EDE100" opacity="1.000000" stroke="none" 
	d="
M79.449593,273.420105 
	C79.525543,273.367645 79.551689,273.573761 79.551689,273.573761 
	C79.551689,273.573761 79.373642,273.472534 79.449593,273.420105 
z"/>
<path fill="#FEF100" opacity="1.000000" stroke="none" 
	d="
M84.427597,265.950195 
	C84.550117,265.046448 84.962624,264.113251 85.662949,263.428833 
	C85.539711,264.425293 85.128639,265.173035 84.427597,265.950195 
z"/>
</svg>