<svg version="1.1" id="Layer_1" xmlns="http://www.w3.org/2000/svg" xmlns:xlink="http://www.w3.org/1999/xlink" x="0px" y="0px"
	 width="100%" viewBox="1.000009 1.000012 390.99997 100.999985" enable-background="new 0 0 391 101" xml:space="preserve">
<path fill="#FEFEFE" opacity="1.000000" stroke="none" 
	d="
M288.000000,102.000000 
	C192.000015,102.000000 96.500023,102.000000 1.000026,102.000000 
	C1.000017,68.333351 1.000017,34.666698 1.000009,1.000035 
	C131.333298,1.000023 261.666595,1.000023 391.999939,1.000012 
	C391.999939,34.666630 391.999939,68.333260 391.999969,101.999947 
	C357.500000,102.000000 323.000000,102.000000 288.000000,102.000000 
M90.713089,64.637695 
	C91.055511,60.002312 91.422852,55.368221 91.664467,50.727589 
	C91.676155,50.503071 90.582298,50.220993 90.021355,49.049892 
	C91.149605,32.719879 85.389336,28.889284 70.492027,29.922585 
	C70.492027,29.922585 69.999588,29.956497 69.122574,29.964294 
	C66.788437,29.960083 64.454308,29.955873 61.920918,29.182135 
	C60.953564,28.782457 59.978230,28.023851 59.020241,28.045162 
	C54.848030,28.137989 50.679375,28.437565 46.515736,28.746977 
	C46.275692,28.764816 46.091431,29.533411 44.995289,29.963860 
	C42.325138,29.959667 39.654987,29.955477 36.492035,29.922665 
	C36.492035,29.922665 35.999565,29.956570 35.095722,29.964493 
	C33.933369,29.967382 32.771008,29.967850 31.608667,29.973545 
	C22.353197,30.018887 18.402615,33.823856 18.019411,43.122646 
	C17.937431,45.111977 18.003117,47.107395 17.195671,49.221058 
	C16.997925,54.292728 16.788624,59.364105 16.661760,64.437546 
	C16.658190,64.580414 17.534639,64.745293 18.003412,65.812042 
	C18.006874,77.639526 20.476326,81.960205 28.602755,83.656418 
	C30.985077,84.153671 33.531174,83.866280 36.937531,83.998863 
	C47.958736,83.976143 58.979939,83.953415 70.914764,83.999641 
	C86.130394,84.815475 91.297180,80.465576 90.713089,64.637695 
M132.287857,71.882019 
	C138.878479,66.958427 140.660675,60.184196 139.556107,52.435589 
	C138.428848,44.527641 133.763718,39.046410 126.167747,37.452675 
	C119.329056,36.017830 112.140854,36.248867 105.155144,35.748600 
	C105.155144,49.738712 105.155144,62.628983 105.155144,75.476997 
	C117.697021,76.775635 125.769157,75.780960 132.287857,71.882019 
M369.525696,62.010521 
	C371.257996,60.449486 373.128265,59.014748 374.695465,57.302601 
	C378.639313,52.993916 379.274536,45.657471 376.264404,41.046040 
	C373.041626,36.108818 366.008118,34.046585 359.750244,36.204029 
	C354.377350,38.056362 351.493134,43.018375 351.985504,49.883961 
	C353.882080,49.883961 355.803223,49.883961 357.931458,49.883961 
	C358.164276,48.921398 358.380737,47.975513 358.622375,47.036098 
	C359.761963,42.605022 363.008911,40.782093 367.284393,42.165966 
	C370.702606,43.272369 372.152039,46.955643 370.290955,50.834034 
	C369.308105,52.882168 367.769958,54.757530 366.158478,56.391270 
	C362.533112,60.066624 358.820374,63.674976 354.921021,67.054245 
	C352.233398,69.383415 350.992828,71.878922 352.356018,75.605072 
	C361.011719,75.605072 369.760468,75.605072 378.675537,75.605072 
	C378.675537,73.491165 378.675537,71.618492 378.675537,69.221458 
	C373.140808,69.221458 367.928741,69.221458 361.590393,69.221458 
	C364.650269,66.435692 366.823212,64.457390 369.525696,62.010521 
M198.299759,63.215698 
	C205.071960,63.215698 211.844177,63.215698 218.569611,63.215698 
	C219.376328,53.446541 214.739319,47.377689 206.085648,46.342495 
	C198.212082,45.400620 191.480453,50.675480 190.202499,58.788441 
	C188.885925,67.146584 193.785095,74.684486 201.447037,76.089417 
	C209.268692,77.523628 216.063599,73.709770 217.839340,65.574226 
	C214.521667,67.053261 211.881104,67.913139 209.578568,69.324509 
	C205.100922,72.069153 196.783905,70.378082 198.299759,63.215698 
M163.099792,74.768822 
	C165.537872,72.537735 167.975937,70.306648 170.414017,68.075569 
	C169.976288,67.390968 169.538544,66.706375 169.100815,66.021782 
	C166.579483,67.028915 163.783493,67.633270 161.593643,69.126511 
	C156.949799,72.293121 148.821182,70.271210 149.080994,63.102024 
	C156.246796,63.102024 163.453430,63.102024 170.644333,63.102024 
	C170.431442,51.505821 163.975693,45.042484 154.507401,46.417702 
	C148.766266,47.251572 144.561829,50.159775 142.781998,55.835991 
	C140.928055,61.748482 141.346436,67.529480 145.843216,72.116714 
	C150.506561,76.873878 156.278229,77.487648 163.099792,74.768822 
M317.884766,58.103561 
	C317.497681,57.008923 317.204071,55.869820 316.707947,54.827061 
	C314.041016,49.221821 308.263489,45.849590 302.135773,46.258461 
	C295.823761,46.679623 290.651764,50.405384 288.815521,55.853992 
	C286.581421,62.483063 288.191589,68.764496 293.205811,72.981041 
	C297.654388,76.721939 304.907928,77.658340 310.048553,74.809158 
	C316.228821,71.383751 318.796417,65.963295 317.884766,58.103561 
M331.382690,52.680843 
	C337.882355,51.398411 339.883362,52.986626 339.964142,59.645149 
	C340.028076,64.916603 339.977020,70.189453 339.977020,75.530167 
	C342.556580,75.530167 344.590057,75.530167 346.862610,75.530167 
	C346.862610,69.899811 346.869934,64.598953 346.856110,59.298157 
	C346.853485,58.302814 346.819580,57.301762 346.709503,56.313438 
	C346.023621,50.154522 343.026398,46.710289 336.895691,46.478825 
	C333.666077,46.356895 330.374786,47.866894 328.628296,48.280655 
	C325.487274,47.614025 323.435059,47.178474 321.166199,46.696941 
	C321.166199,56.861328 321.166199,66.227631 321.166199,75.555382 
	C323.438019,75.555382 325.334625,75.555382 327.587128,75.555382 
	C327.587128,72.784187 327.586182,70.316261 327.587372,67.848343 
	C327.588684,65.188972 327.197601,62.450687 327.709351,59.893242 
	C328.186035,57.510948 329.624542,55.321106 331.382690,52.680843 
M247.473724,52.286324 
	C242.220718,45.779957 235.016663,44.331814 228.011047,48.373981 
	C222.080856,51.795643 219.488724,59.640144 221.942352,66.739471 
	C224.364487,73.747688 231.332199,77.511833 239.161087,76.041466 
	C244.724304,74.996620 248.648895,70.577133 248.604599,63.694355 
	C245.618988,65.461792 243.089172,66.480530 241.187042,68.195457 
	C238.184067,70.902840 233.864868,71.340652 230.862534,68.671318 
	C227.140625,65.362190 226.869049,58.392429 230.316956,54.670151 
	C233.342911,51.403404 238.296677,50.916088 240.787827,54.439171 
	C243.194534,57.842812 245.827423,57.345497 249.310410,56.804733 
	C248.800995,55.352119 248.372604,54.130550 247.473724,52.286324 
M171.134857,49.415142 
	C172.447571,50.814190 173.760284,52.213242 175.976608,54.575329 
	C175.570129,53.370781 175.666855,53.525509 175.668396,53.681183 
	C175.709518,57.833817 175.697922,61.987427 175.782959,66.139076 
	C175.950729,74.329399 179.270126,76.936066 187.696716,75.400497 
	C187.696716,73.827682 187.696716,72.223839 187.696716,72.064865 
	C185.476456,69.768059 183.042557,68.432358 182.857285,66.835732 
	C182.313507,62.149399 182.663574,57.359348 182.663574,52.532627 
	C184.738556,52.318619 186.193741,52.168533 187.713730,52.011765 
	C187.713730,50.321365 187.713730,48.767151 187.713730,47.262897 
	C185.846268,46.994408 184.289124,46.770535 182.790878,46.555130 
	C182.622543,43.919083 182.477448,41.646893 182.330200,39.341103 
	C180.029037,39.341103 178.080719,39.341103 175.953629,39.341103 
	C175.840515,41.846775 175.736450,44.152088 175.651871,46.025776 
	C173.983261,46.961792 172.569443,47.754879 171.134857,49.415142 
M257.650482,39.132236 
	C251.993301,39.562893 256.248688,44.211155 254.069061,46.625366 
	C251.336700,46.719833 249.164536,47.862041 250.809631,51.750694 
	C252.081696,52.157604 253.393524,52.577232 254.783371,53.021816 
	C254.783371,57.837650 254.907410,62.324577 254.753113,66.801910 
	C254.543045,72.897903 259.369904,77.928963 266.835663,75.261833 
	C266.835663,73.661957 266.835663,72.044441 266.835663,70.426926 
	C264.499756,69.699226 262.078247,68.386841 261.899017,66.818230 
	C261.363525,62.132290 261.706604,57.345955 261.706604,52.513126 
	C263.753906,52.307228 265.206879,52.161106 266.702515,52.010689 
	C266.702515,50.300770 266.702515,48.748383 266.702515,47.246658 
	C264.827393,46.982040 263.273865,46.762806 262.538513,46.659035 
	C260.053009,44.113892 264.521057,39.169708 257.650482,39.132236 
M271.769073,55.599289 
	C271.769073,62.220345 271.769073,68.841400 271.769073,75.542358 
	C274.183746,75.542358 276.232208,75.542358 278.598328,75.542358 
	C278.598328,71.424225 278.581421,67.627197 278.601746,63.830372 
	C278.648315,55.124027 279.254913,54.325775 287.168213,52.288570 
	C287.168213,50.372253 287.168213,48.524487 287.168213,45.828831 
	C283.699646,47.171314 280.895325,48.256706 278.091003,49.342098 
	C278.228973,48.945133 278.366943,48.548172 278.504883,48.151211 
	C276.398224,47.698486 274.291534,47.245762 271.769318,46.703735 
	C271.769318,50.005032 271.769318,52.321770 271.769073,55.599289 
z"/>
<path fill="#D1D5D7" opacity="1.000000" stroke="none" 
	d="
M18.000774,49.100006 
	C18.003117,47.107395 17.937431,45.111977 18.019411,43.122646 
	C18.402615,33.823856 22.353197,30.018887 31.608667,29.973545 
	C32.771008,29.967850 33.933369,29.967382 35.547729,30.398869 
	C36.664558,33.224667 37.329384,35.616093 38.050621,38.144241 
	C38.193157,38.329357 38.279285,38.377750 38.365410,38.426140 
	C38.246162,38.282104 38.126919,38.138069 38.005424,37.573486 
	C37.663731,34.752388 37.324284,32.351837 36.984833,29.951284 
	C39.654987,29.955477 42.325138,29.959667 45.917480,29.975143 
	C51.933174,29.974836 57.026672,29.963249 62.120171,29.951664 
	C64.454308,29.955873 66.788437,29.960083 69.561134,30.403528 
	C69.999695,33.276661 69.999695,35.710560 69.999695,38.144459 
	C70.688934,38.084206 71.378181,38.023956 72.067421,37.963703 
	C71.706551,35.292866 71.345673,32.622028 70.984802,29.951191 
	C85.389336,28.889284 91.149605,32.719879 90.016891,49.939766 
	C89.994537,52.551888 89.976639,54.274132 89.673279,55.996170 
	C89.007202,55.994816 88.626579,55.993671 88.150940,55.640381 
	C87.037216,53.469326 86.018532,51.650406 84.935577,49.499245 
	C83.608688,48.151531 82.141449,47.308525 81.116646,46.092613 
	C74.443558,38.175110 59.196800,41.346470 56.007042,53.459118 
	C55.761028,54.393326 54.854366,55.153557 54.156631,55.642914 
	C53.038948,53.471279 52.019405,51.651382 50.935585,49.499245 
	C49.720570,48.268917 48.562103,47.380554 47.420319,46.471233 
	C37.113922,38.263130 26.796053,41.188057 21.929050,53.507202 
	C21.473080,54.661331 19.411631,55.181168 18.064720,55.563137 
	C18.022820,53.120518 18.011797,51.110260 18.000774,49.100006 
M85.620827,36.860687 
	C84.370644,34.069305 82.081474,33.085300 79.609680,34.607075 
	C78.451836,35.319908 77.430107,37.828075 77.822769,39.047127 
	C78.224098,40.293072 80.798508,41.986969 81.768463,41.642986 
	C83.375740,41.072990 84.459671,39.027229 85.620827,36.860687 
M63.058525,40.728016 
	C63.034184,40.385845 63.009842,40.043678 62.985500,39.701508 
	C62.745140,39.773212 62.504784,39.844921 62.264420,39.916626 
	C62.383602,40.166130 62.502785,40.415634 63.058525,40.728016 
M66.002396,38.717125 
	C65.840012,38.981838 65.677635,39.246555 65.515251,39.511269 
	C65.779091,39.346428 66.042931,39.181587 66.002396,38.717125 
M51.412827,44.482944 
	C51.412827,44.482944 51.522911,44.417442 51.412827,44.482944 
M28.412941,39.483040 
	C28.412941,39.483040 28.522959,39.417583 28.412941,39.483040 
M60.483047,40.587059 
	C60.483047,40.587059 60.417587,40.477043 60.483047,40.587059 
M49.517033,43.412884 
	C49.517033,43.412884 49.582535,43.522953 49.517033,43.412884 
z"/>
<path fill="#494E5C" opacity="1.000000" stroke="none" 
	d="
M131.978577,72.085510 
	C125.769157,75.780960 117.697021,76.775635 105.155144,75.476997 
	C105.155144,62.628983 105.155144,49.738712 105.155144,35.748600 
	C112.140854,36.248867 119.329056,36.017830 126.167747,37.452675 
	C133.763718,39.046410 138.428848,44.527641 139.556107,52.435589 
	C140.660675,60.184196 138.878479,66.958427 131.978577,72.085510 
M111.862122,59.480682 
	C111.862122,62.724373 111.862122,65.968063 111.862122,69.384270 
	C119.395088,69.248505 126.707657,70.706940 130.815323,63.196133 
	C133.673508,57.969975 133.501480,52.430992 130.048904,47.602180 
	C125.558945,41.322475 118.704033,42.830093 111.862091,42.680531 
	C111.862091,48.241241 111.862091,53.364986 111.862122,59.480682 
z"/>
<path fill="#6A52F4" opacity="1.000000" stroke="none" 
	d="
M369.260925,62.244804 
	C366.823212,64.457390 364.650269,66.435692 361.590393,69.221458 
	C367.928741,69.221458 373.140808,69.221458 378.675537,69.221458 
	C378.675537,71.618492 378.675537,73.491165 378.675537,75.605072 
	C369.760468,75.605072 361.011719,75.605072 352.356018,75.605072 
	C350.992828,71.878922 352.233398,69.383415 354.921021,67.054245 
	C358.820374,63.674976 362.533112,60.066624 366.158478,56.391270 
	C367.769958,54.757530 369.308105,52.882168 370.290955,50.834034 
	C372.152039,46.955643 370.702606,43.272369 367.284393,42.165966 
	C363.008911,40.782093 359.761963,42.605022 358.622375,47.036098 
	C358.380737,47.975513 358.164276,48.921398 357.931458,49.883961 
	C355.803223,49.883961 353.882080,49.883961 351.985504,49.883961 
	C351.493134,43.018375 354.377350,38.056362 359.750244,36.204029 
	C366.008118,34.046585 373.041626,36.108818 376.264404,41.046040 
	C379.274536,45.657471 378.639313,52.993916 374.695465,57.302601 
	C373.128265,59.014748 371.257996,60.449486 369.260925,62.244804 
z"/>
<path fill="#484E5B" opacity="1.000000" stroke="none" 
	d="
M197.888214,63.294220 
	C196.783905,70.378082 205.100922,72.069153 209.578568,69.324509 
	C211.881104,67.913139 214.521667,67.053261 217.839340,65.574226 
	C216.063599,73.709770 209.268692,77.523628 201.447037,76.089417 
	C193.785095,74.684486 188.885925,67.146584 190.202499,58.788441 
	C191.480453,50.675480 198.212082,45.400620 206.085648,46.342495 
	C214.739319,47.377689 219.376328,53.446541 218.569611,63.215698 
	C211.844177,63.215698 205.071960,63.215698 197.888214,63.294220 
M209.109634,53.088570 
	C202.858521,50.320530 199.146179,51.800644 197.411636,57.758865 
	C202.204041,57.758865 206.996445,57.758865 212.736740,57.758865 
	C211.390854,55.890732 210.565781,54.745502 209.109634,53.088570 
z"/>
<path fill="#474D5A" opacity="1.000000" stroke="none" 
	d="
M162.753952,74.915970 
	C156.278229,77.487648 150.506561,76.873878 145.843216,72.116714 
	C141.346436,67.529480 140.928055,61.748482 142.781998,55.835991 
	C144.561829,50.159775 148.766266,47.251572 154.507401,46.417702 
	C163.975693,45.042484 170.431442,51.505821 170.644333,63.102024 
	C163.453430,63.102024 156.246796,63.102024 149.080994,63.102024 
	C148.821182,70.271210 156.949799,72.293121 161.593643,69.126511 
	C163.783493,67.633270 166.579483,67.028915 169.100815,66.021782 
	C169.538544,66.706375 169.976288,67.390968 170.414017,68.075569 
	C167.975937,70.306648 165.537872,72.537735 162.753952,74.915970 
M161.780441,58.146587 
	C162.160110,57.160946 162.960007,55.361519 162.857910,55.308800 
	C160.366165,54.022072 157.816956,52.117977 155.198151,51.992561 
	C152.008896,51.839825 149.380325,53.860989 148.933365,58.153526 
	C153.085617,58.153526 157.003937,58.153526 161.780441,58.146587 
z"/>
<path fill="#474C5A" opacity="1.000000" stroke="none" 
	d="
M317.929718,58.523773 
	C318.796417,65.963295 316.228821,71.383751 310.048553,74.809158 
	C304.907928,77.658340 297.654388,76.721939 293.205811,72.981041 
	C288.191589,68.764496 286.581421,62.483063 288.815521,55.853992 
	C290.651764,50.405384 295.823761,46.679623 302.135773,46.258461 
	C308.263489,45.849590 314.041016,49.221821 316.707947,54.827061 
	C317.204071,55.869820 317.497681,57.008923 317.929718,58.523773 
M305.533905,70.101364 
	C312.244049,67.960747 312.475433,58.421215 309.168488,55.107586 
	C306.126343,52.059311 302.681702,51.143513 298.784515,53.263271 
	C295.255371,55.182838 293.514465,60.257553 295.095398,64.700867 
	C296.685272,69.169395 299.954712,71.236046 305.533905,70.101364 
z"/>
<path fill="#494E5C" opacity="1.000000" stroke="none" 
	d="
M331.011169,52.863693 
	C329.624542,55.321106 328.186035,57.510948 327.709351,59.893242 
	C327.197601,62.450687 327.588684,65.188972 327.587372,67.848343 
	C327.586182,70.316261 327.587128,72.784187 327.587128,75.555382 
	C325.334625,75.555382 323.438019,75.555382 321.166199,75.555382 
	C321.166199,66.227631 321.166199,56.861328 321.166199,46.696941 
	C323.435059,47.178474 325.487274,47.614025 328.628296,48.280655 
	C330.374786,47.866894 333.666077,46.356895 336.895691,46.478825 
	C343.026398,46.710289 346.023621,50.154522 346.709503,56.313438 
	C346.819580,57.301762 346.853485,58.302814 346.856110,59.298157 
	C346.869934,64.598953 346.862610,69.899811 346.862610,75.530167 
	C344.590057,75.530167 342.556580,75.530167 339.977020,75.530167 
	C339.977020,70.189453 340.028076,64.916603 339.964142,59.645149 
	C339.883362,52.986626 337.882355,51.398411 331.011169,52.863693 
z"/>
<path fill="#484E5B" opacity="1.000000" stroke="none" 
	d="
M247.708969,52.597652 
	C248.372604,54.130550 248.800995,55.352119 249.310410,56.804733 
	C245.827423,57.345497 243.194534,57.842812 240.787827,54.439171 
	C238.296677,50.916088 233.342911,51.403404 230.316956,54.670151 
	C226.869049,58.392429 227.140625,65.362190 230.862534,68.671318 
	C233.864868,71.340652 238.184067,70.902840 241.187042,68.195457 
	C243.089172,66.480530 245.618988,65.461792 248.604599,63.694355 
	C248.648895,70.577133 244.724304,74.996620 239.161087,76.041466 
	C231.332199,77.511833 224.364487,73.747688 221.942352,66.739471 
	C219.488724,59.640144 222.080856,51.795643 228.011047,48.373981 
	C235.016663,44.331814 242.220718,45.779957 247.708969,52.597652 
z"/>
<path fill="#D0D4D6" opacity="1.000000" stroke="none" 
	d="
M70.001144,83.930695 
	C58.979939,83.953415 47.958736,83.976143 36.468834,83.520370 
	C36.011738,80.317940 36.023335,77.594002 36.437519,74.900497 
	C45.020519,74.469131 51.124088,71.005280 54.423958,63.036804 
	C56.198669,64.059441 57.635387,65.045403 59.143463,66.270920 
	C59.487679,66.683624 59.760540,66.856766 60.017406,67.014252 
	C60.001411,66.998596 59.970196,66.966507 60.046558,67.226715 
	C60.421661,67.663605 60.720398,67.840286 61.010307,68.008270 
	C61.001480,67.999580 60.987617,67.979027 60.966721,68.291878 
	C61.301609,69.078018 61.657398,69.551308 62.005791,70.013458 
	C61.998398,70.002319 61.976509,69.986977 62.144585,70.288971 
	C64.874084,71.822281 67.435509,73.053581 69.997734,74.720154 
	C69.999405,78.080513 70.000275,81.005608 70.001144,83.930695 
M49.086296,76.049828 
	C49.086296,76.049828 49.202759,76.117554 49.120945,76.439980 
	C49.120945,76.439980 49.075569,76.770386 49.077583,77.492485 
	C49.093620,77.732651 49.109661,77.972824 49.730331,78.693024 
	C52.786102,78.788383 55.841877,78.883751 59.500450,78.526527 
	C59.268559,76.703468 59.036671,74.880417 57.962894,73.047058 
	C55.314995,73.363373 52.667095,73.679680 49.505318,73.999382 
	C49.334023,74.000137 49.162727,74.000900 48.540131,74.286499 
	C48.683109,74.852142 48.826088,75.417778 49.086296,76.049828 
z"/>
<path fill="#4A505D" opacity="1.000000" stroke="none" 
	d="
M171.145233,48.981552 
	C172.569443,47.754879 173.983261,46.961792 175.651871,46.025776 
	C175.736450,44.152088 175.840515,41.846775 175.953629,39.341103 
	C178.080719,39.341103 180.029037,39.341103 182.330200,39.341103 
	C182.477448,41.646893 182.622543,43.919083 182.790878,46.555130 
	C184.289124,46.770535 185.846268,46.994408 187.713730,47.262897 
	C187.713730,48.767151 187.713730,50.321365 187.713730,52.011765 
	C186.193741,52.168533 184.738556,52.318619 182.663574,52.532627 
	C182.663574,57.359348 182.313507,62.149399 182.857285,66.835732 
	C183.042557,68.432358 185.476456,69.768059 187.696716,72.064865 
	C187.696716,72.223839 187.696716,73.827682 187.696716,75.400497 
	C179.270126,76.936066 175.950729,74.329399 175.782959,66.139076 
	C175.697922,61.987427 175.709518,57.833817 175.668396,53.681183 
	C175.666855,53.525509 175.570129,53.370781 175.976608,54.575329 
	C173.760284,52.213242 172.447571,50.814190 171.145233,48.981552 
z"/>
<path fill="#4A505D" opacity="1.000000" stroke="none" 
	d="
M258.070679,39.132248 
	C264.521057,39.169708 260.053009,44.113892 262.538513,46.659035 
	C263.273865,46.762806 264.827393,46.982040 266.702515,47.246658 
	C266.702515,48.748383 266.702515,50.300770 266.702515,52.010689 
	C265.206879,52.161106 263.753906,52.307228 261.706604,52.513126 
	C261.706604,57.345955 261.363525,62.132290 261.899017,66.818230 
	C262.078247,68.386841 264.499756,69.699226 266.835663,70.426926 
	C266.835663,72.044441 266.835663,73.661957 266.835663,75.261833 
	C259.369904,77.928963 254.543045,72.897903 254.753113,66.801910 
	C254.907410,62.324577 254.783371,57.837650 254.783371,53.021816 
	C253.393524,52.577232 252.081696,52.157604 250.809631,51.750694 
	C249.164536,47.862041 251.336700,46.719833 254.069061,46.625366 
	C256.248688,44.211155 251.993301,39.562893 258.070679,39.132248 
z"/>
<path fill="#4B505E" opacity="1.000000" stroke="none" 
	d="
M271.769196,55.118900 
	C271.769318,52.321770 271.769318,50.005032 271.769318,46.703735 
	C274.291534,47.245762 276.398224,47.698486 278.504883,48.151211 
	C278.366943,48.548172 278.228973,48.945133 278.091003,49.342098 
	C280.895325,48.256706 283.699646,47.171314 287.168213,45.828831 
	C287.168213,48.524487 287.168213,50.372253 287.168213,52.288570 
	C279.254913,54.325775 278.648315,55.124027 278.601746,63.830372 
	C278.581421,67.627197 278.598328,71.424225 278.598328,75.542358 
	C276.232208,75.542358 274.183746,75.542358 271.769073,75.542358 
	C271.769073,68.841400 271.769073,62.220345 271.769196,55.118900 
z"/>
<path fill="#D1D5D7" opacity="1.000000" stroke="none" 
	d="
M36.034935,74.870071 
	C36.023335,77.594002 36.011738,80.317940 36.001175,83.490189 
	C33.531174,83.866280 30.985077,84.153671 28.602755,83.656418 
	C20.476326,81.960205 18.006874,77.639526 17.994217,64.928757 
	C18.013985,62.031464 18.042946,60.017452 18.456726,58.003811 
	C20.053497,58.984165 21.510220,59.781010 22.415232,60.990635 
	C23.537863,62.491138 24.203686,64.333412 25.138050,66.269211 
	C25.483692,66.683754 25.758116,66.857155 26.017639,67.013916 
	C26.002737,66.997284 25.969549,66.967384 26.043997,67.228897 
	C26.418344,67.666122 26.718245,67.841827 27.010723,68.007744 
	C27.003300,67.997955 26.986607,67.979927 26.963600,68.293076 
	C27.297670,69.079178 27.654747,69.552132 28.005978,70.012856 
	C28.000134,70.000626 27.975973,69.988304 28.141676,70.288849 
	C30.883230,72.016289 33.459084,73.443176 36.034935,74.870071 
z"/>
<path fill="#CFD4D5" opacity="1.000000" stroke="none" 
	d="
M70.457954,83.965164 
	C70.000275,81.005608 69.999405,78.080513 70.436356,74.667130 
	C76.618637,74.493553 82.184158,73.487480 85.036987,68.095505 
	C86.938606,64.501358 87.232513,60.056591 88.245964,55.992523 
	C88.626579,55.993671 89.007202,55.994816 89.685318,56.446926 
	C89.989410,59.606426 89.995995,62.314957 90.002579,65.023491 
	C91.297180,80.465576 86.130394,84.815475 70.457954,83.965164 
z"/>
<path fill="#AAB4BD" opacity="1.000000" stroke="none" 
	d="
M18.071907,58.003437 
	C18.042946,60.017452 18.013985,62.031464 17.992882,64.472687 
	C17.534639,64.745293 16.658190,64.580414 16.661760,64.437546 
	C16.788624,59.364105 16.997925,54.292728 17.598223,49.160530 
	C18.011797,51.110260 18.022820,53.120518 18.042099,55.897507 
	C18.057539,57.110641 18.064722,57.557041 18.071907,58.003437 
z"/>
<path fill="#B4BCC3" opacity="1.000000" stroke="none" 
	d="
M90.357834,64.830597 
	C89.995995,62.314957 89.989410,59.606426 89.970779,56.447136 
	C89.976639,54.274132 89.994537,52.551888 90.007851,50.397682 
	C90.582298,50.220993 91.676155,50.503071 91.664467,50.727589 
	C91.422852,55.368221 91.055511,60.002312 90.357834,64.830597 
z"/>
<path fill="#D0D5D6" opacity="1.000000" stroke="none" 
	d="
M62.020546,29.566898 
	C57.026672,29.963249 51.933174,29.974836 46.360443,29.969519 
	C46.091431,29.533411 46.275692,28.764816 46.515736,28.746977 
	C50.679375,28.437565 54.848030,28.137989 59.020241,28.045162 
	C59.978230,28.023851 60.953564,28.782457 62.020546,29.566898 
z"/>
<path fill="#D1D5D7" opacity="1.000000" stroke="none" 
	d="
M70.738411,29.936888 
	C71.345673,32.622028 71.706551,35.292866 72.067421,37.963703 
	C71.378181,38.023956 70.688934,38.084206 69.999695,38.144459 
	C69.999695,35.710560 69.999695,33.276661 69.999641,30.399630 
	C69.999588,29.956497 70.492027,29.922585 70.738411,29.936888 
z"/>
<path fill="#D1D5D7" opacity="1.000000" stroke="none" 
	d="
M36.738434,29.936974 
	C37.324284,32.351837 37.663731,34.752388 38.001606,37.576469 
	C38.000034,38.000000 37.994209,38.007519 37.994209,38.007519 
	C37.329384,35.616093 36.664558,33.224667 35.999649,30.394905 
	C35.999565,29.956570 36.492035,29.922665 36.738434,29.936974 
z"/>
<path fill="#CFD3D7" opacity="1.000000" stroke="none" 
	d="
M59.072105,66.031364 
	C57.635387,65.045403 56.198669,64.059441 54.410629,62.599060 
	C54.124470,60.081306 54.189625,58.037979 54.254776,55.994652 
	C54.854366,55.153557 55.761028,54.393326 56.007042,53.459118 
	C59.196800,41.346470 74.443558,38.175110 81.116646,46.092613 
	C82.141449,47.308525 83.608688,48.151531 84.733566,49.757889 
	C89.473885,60.358967 81.422165,73.056908 68.745728,71.051155 
	C66.489677,70.694191 64.232933,70.341591 61.976509,69.986977 
	C61.976509,69.986977 61.998398,70.002319 62.049656,69.697586 
	C61.729816,68.921570 61.358715,68.450302 60.987617,67.979027 
	C60.987617,67.979027 61.001480,67.999580 60.912231,67.768143 
	C60.538719,67.346642 60.254456,67.156578 59.970196,66.966507 
	C59.970196,66.966507 60.001411,66.998596 59.914829,66.795242 
	C59.657738,66.295029 59.405689,66.108185 59.072105,66.031364 
M75.913315,46.211403 
	C73.490601,45.935230 70.969711,45.094536 68.664726,45.495369 
	C63.135822,46.456848 59.032051,51.749416 59.286449,56.802067 
	C59.582550,62.682972 63.776646,67.228783 69.805840,68.203613 
	C74.407921,68.947701 79.773506,65.674469 81.713524,61.042191 
	C83.587921,56.566566 82.139053,48.638954 75.913315,46.211403 
z"/>
<path fill="#CFD3D7" opacity="1.000000" stroke="none" 
	d="
M18.456724,58.003811 
	C18.064722,57.557041 18.057539,57.110641 18.072977,56.329872 
	C19.411631,55.181168 21.473080,54.661331 21.929050,53.507202 
	C26.796053,41.188057 37.113922,38.263130 47.420319,46.471233 
	C48.562103,47.380554 49.720570,48.268917 50.733574,49.757885 
	C55.471058,60.360844 47.424152,73.056206 34.745213,71.051147 
	C32.489193,70.694382 30.232405,70.342468 27.975973,69.988304 
	C27.975973,69.988304 28.000134,70.000626 28.050262,69.696976 
	C27.729130,68.922188 27.357868,68.451057 26.986607,67.979927 
	C26.986607,67.979927 27.003300,67.997955 26.912903,67.767532 
	C26.538187,67.347191 26.253868,67.157288 25.969551,66.967384 
	C25.969549,66.967384 26.002737,66.997284 25.914742,66.793976 
	C25.655003,66.292923 25.401697,66.105392 25.066830,66.028053 
	C24.203686,64.333412 23.537863,62.491138 22.415232,60.990635 
	C21.510220,59.781010 20.053497,58.984165 18.456724,58.003811 
M47.039639,50.924973 
	C43.227474,45.695560 38.010792,43.844433 32.883625,45.901749 
	C27.960154,47.877331 24.855162,52.773346 25.466663,57.596954 
	C26.341270,64.495949 32.415970,69.373260 38.579380,68.124992 
	C46.690266,66.482323 49.995171,60.308151 47.039639,50.924973 
z"/>
<path fill="#999DA5" opacity="1.000000" stroke="none" 
	d="
M28.141676,70.288849 
	C30.232405,70.342468 32.489193,70.694382 34.745213,71.051147 
	C47.424152,73.056206 55.471058,60.360844 50.797855,50.090126 
	C52.019405,51.651382 53.038948,53.471279 54.156631,55.642914 
	C54.189625,58.037979 54.124470,60.081306 54.072639,62.562382 
	C51.124088,71.005280 45.020519,74.469131 36.437519,74.900497 
	C33.459084,73.443176 30.883230,72.016289 28.141676,70.288849 
z"/>
<path fill="#999DA5" opacity="1.000000" stroke="none" 
	d="
M62.144585,70.288971 
	C64.232933,70.341591 66.489677,70.694191 68.745728,71.051155 
	C81.422165,73.056908 89.473885,60.358967 84.797836,50.090130 
	C86.018532,51.650406 87.037216,53.469326 88.150940,55.640385 
	C87.232513,60.056591 86.938606,64.501358 85.036987,68.095505 
	C82.184158,73.487480 76.618637,74.493553 70.435562,74.231857 
	C67.435509,73.053581 64.874084,71.822281 62.144585,70.288971 
z"/>
<path fill="#6D57F1" opacity="1.000000" stroke="none" 
	d="
M85.692451,37.231941 
	C84.459671,39.027229 83.375740,41.072990 81.768463,41.642986 
	C80.798508,41.986969 78.224098,40.293072 77.822769,39.047127 
	C77.430107,37.828075 78.451836,35.319908 79.609680,34.607075 
	C82.081474,33.085300 84.370644,34.069305 85.692451,37.231941 
z"/>
<path fill="#D1D5D7" opacity="1.000000" stroke="none" 
	d="
M62.840244,40.696575 
	C62.502785,40.415634 62.383602,40.166130 62.264420,39.916626 
	C62.504784,39.844921 62.745140,39.773212 62.985500,39.701508 
	C63.009842,40.043678 63.034184,40.385845 62.840244,40.696575 
z"/>
<path fill="#D1D5D7" opacity="1.000000" stroke="none" 
	d="
M66.154587,38.866936 
	C66.042931,39.181587 65.779091,39.346428 65.515251,39.511269 
	C65.677635,39.246555 65.840012,38.981838 66.154587,38.866936 
z"/>
<path fill="#D1D5D7" opacity="1.000000" stroke="none" 
	d="
M51.467869,44.450195 
	C51.522911,44.417442 51.412827,44.482944 51.467869,44.450195 
z"/>
<path fill="#D1D5D7" opacity="1.000000" stroke="none" 
	d="
M38.003853,37.997017 
	C38.126919,38.138069 38.246162,38.282104 38.365410,38.426140 
	C38.279285,38.377750 38.193157,38.329357 38.050621,38.144241 
	C37.994209,38.007519 38.000034,38.000000 38.003853,37.997017 
z"/>
<path fill="#D1D5D7" opacity="1.000000" stroke="none" 
	d="
M28.467949,39.450310 
	C28.522959,39.417583 28.412941,39.483040 28.467949,39.450310 
z"/>
<path fill="#D1D5D7" opacity="1.000000" stroke="none" 
	d="
M60.450317,40.532051 
	C60.417587,40.477043 60.483047,40.587059 60.450317,40.532051 
z"/>
<path fill="#D1D5D7" opacity="1.000000" stroke="none" 
	d="
M49.549782,43.467918 
	C49.582535,43.522953 49.517033,43.412884 49.549782,43.467918 
z"/>
<path fill="#FDFDFE" opacity="1.000000" stroke="none" 
	d="
M111.862106,58.984707 
	C111.862091,53.364986 111.862091,48.241241 111.862091,42.680531 
	C118.704033,42.830093 125.558945,41.322475 130.048904,47.602180 
	C133.501480,52.430992 133.673508,57.969975 130.815323,63.196133 
	C126.707657,70.706940 119.395088,69.248505 111.862122,69.384270 
	C111.862122,65.968063 111.862122,62.724373 111.862106,58.984707 
z"/>
<path fill="#F5F6F6" opacity="1.000000" stroke="none" 
	d="
M209.425171,53.344421 
	C210.565781,54.745502 211.390854,55.890732 212.736740,57.758865 
	C206.996445,57.758865 202.204041,57.758865 197.406860,57.757614 
	C199.146179,51.800644 202.858521,50.320530 209.425171,53.344421 
z"/>
<path fill="#FAFAFB" opacity="1.000000" stroke="none" 
	d="
M161.351349,58.150055 
	C157.003937,58.153526 153.085617,58.153526 148.933365,58.153526 
	C149.380325,53.860989 152.008896,51.839825 155.198151,51.992561 
	C157.816956,52.117977 160.366165,54.022072 162.857910,55.308800 
	C162.960007,55.361519 162.160110,57.160946 161.351349,58.150055 
z"/>
<path fill="#FAFAFB" opacity="1.000000" stroke="none" 
	d="
M305.172058,70.189163 
	C299.954712,71.236046 296.685272,69.169395 295.095398,64.700867 
	C293.514465,60.257553 295.255371,55.182838 298.784515,53.263271 
	C302.681702,51.143513 306.126343,52.059311 309.168488,55.107586 
	C312.475433,58.421215 312.244049,67.960747 305.172058,70.189163 
z"/>
<path fill="#C2C7CE" opacity="1.000000" stroke="none" 
	d="
M48.991432,74.001663 
	C49.162727,74.000900 49.334023,74.000137 50.206985,73.994202 
	C53.549953,73.935547 56.191246,73.882072 58.870087,74.210091 
	C58.895481,75.102142 58.883331,75.612709 58.432774,76.083725 
	C55.063831,76.068634 52.133297,76.093094 49.202759,76.117554 
	C49.202759,76.117554 49.086296,76.049828 49.041962,75.686760 
	C48.995564,74.883018 48.993496,74.442337 48.991432,74.001663 
z"/>
<path fill="#DAE0E4" opacity="1.000000" stroke="none" 
	d="
M58.871178,76.123268 
	C58.883331,75.612709 58.895481,75.102142 58.882874,74.017136 
	C58.858112,73.442688 58.804783,73.057358 58.804783,73.057358 
	C59.036671,74.880417 59.268559,76.703468 58.957706,78.432159 
	C55.318542,78.296188 52.222126,78.254593 49.125706,78.212990 
	C49.109661,77.972824 49.093620,77.732651 49.508858,77.210800 
	C52.917149,76.660507 55.894161,76.391891 58.871178,76.123268 
z"/>
<path fill="#999DA5" opacity="1.000000" stroke="none" 
	d="
M49.428017,78.453003 
	C52.222126,78.254593 55.318542,78.296188 58.656303,78.658447 
	C55.841877,78.883751 52.786102,78.788383 49.428017,78.453003 
z"/>
<path fill="#999DA5" opacity="1.000000" stroke="none" 
	d="
M58.432774,76.083725 
	C55.894161,76.391891 52.917149,76.660507 49.507851,76.849754 
	C49.075569,76.770386 49.120945,76.439980 49.161850,76.278763 
	C52.133297,76.093094 55.063831,76.068634 58.432774,76.083725 
z"/>
<path fill="#999DA5" opacity="1.000000" stroke="none" 
	d="
M58.383839,73.052208 
	C58.804783,73.057358 58.858112,73.442688 58.845329,73.635643 
	C56.191246,73.882072 53.549953,73.935547 50.463928,73.992508 
	C52.667095,73.679680 55.314995,73.363373 58.383839,73.052208 
z"/>
<path fill="#DAE0E4" opacity="1.000000" stroke="none" 
	d="
M48.765778,74.144081 
	C48.993496,74.442337 48.995564,74.883018 48.983349,75.653557 
	C48.826088,75.417778 48.683109,74.852142 48.765778,74.144081 
z"/>
<path fill="#999DA5" opacity="1.000000" stroke="none" 
	d="
M60.966721,68.291878 
	C61.358715,68.450302 61.729816,68.921570 62.057053,69.708725 
	C61.657398,69.551308 61.301609,69.078018 60.966721,68.291878 
z"/>
<path fill="#999DA5" opacity="1.000000" stroke="none" 
	d="
M60.046558,67.226715 
	C60.254456,67.156578 60.538719,67.346642 60.921059,67.776840 
	C60.720398,67.840286 60.421661,67.663605 60.046558,67.226715 
z"/>
<path fill="#999DA5" opacity="1.000000" stroke="none" 
	d="
M59.143463,66.270920 
	C59.405689,66.108185 59.657738,66.295029 59.930824,66.810898 
	C59.760540,66.856766 59.487679,66.683624 59.143463,66.270920 
z"/>
<path fill="#999DA5" opacity="1.000000" stroke="none" 
	d="
M26.963600,68.293076 
	C27.357868,68.451057 27.729130,68.922188 28.056107,69.709198 
	C27.654747,69.552132 27.297670,69.079178 26.963600,68.293076 
z"/>
<path fill="#999DA5" opacity="1.000000" stroke="none" 
	d="
M26.043999,67.228897 
	C26.253868,67.157288 26.538187,67.347191 26.920326,67.777313 
	C26.718245,67.841827 26.418344,67.666122 26.043999,67.228897 
z"/>
<path fill="#999DA5" opacity="1.000000" stroke="none" 
	d="
M25.138050,66.269211 
	C25.401697,66.105392 25.655003,66.292923 25.929642,66.810608 
	C25.758116,66.857155 25.483692,66.683754 25.138050,66.269211 
z"/>
<path fill="#211D2C" opacity="1.000000" stroke="none" 
	d="
M76.213898,46.461075 
	C82.139053,48.638954 83.587921,56.566566 81.713524,61.042191 
	C79.773506,65.674469 74.407921,68.947701 69.805840,68.203613 
	C63.776646,67.228783 59.582550,62.682972 59.286449,56.802067 
	C59.032051,51.749416 63.135822,46.456848 68.664726,45.495369 
	C70.969711,45.094536 73.490601,45.935230 76.213898,46.461075 
M66.102348,55.057056 
	C65.573853,58.144760 66.028816,61.130581 69.571831,61.534809 
	C71.480217,61.752541 74.961327,60.598011 75.340149,59.341351 
	C76.254883,56.306934 75.763390,52.848610 75.838882,49.561199 
	C73.111656,50.642612 70.364082,51.677162 67.674263,52.844772 
	C67.132919,53.079762 66.810799,53.819786 66.102348,55.057056 
z"/>
<path fill="#201D2C" opacity="1.000000" stroke="none" 
	d="
M47.212189,51.299980 
	C49.995171,60.308151 46.690266,66.482323 38.579380,68.124992 
	C32.415970,69.373260 26.341270,64.495949 25.466663,57.596954 
	C24.855162,52.773346 27.960154,47.877331 32.883625,45.901749 
	C38.010792,43.844433 43.227474,45.695560 47.212189,51.299980 
M41.975018,58.194424 
	C42.051586,56.103168 41.828274,53.945168 42.275375,51.936382 
	C42.937401,48.961922 41.335213,48.845058 39.373573,49.345745 
	C38.142399,49.659992 36.738811,50.296757 35.977299,51.243198 
	C34.439320,53.154648 32.813808,55.247150 32.192680,57.528599 
	C31.921041,58.526348 34.098030,61.346249 35.041023,61.290066 
	C37.341034,61.153027 39.569790,59.819973 41.975018,58.194424 
z"/>
<path fill="#444956" opacity="1.000000" stroke="none" 
	d="
M66.244972,54.692009 
	C66.810799,53.819786 67.132919,53.079762 67.674263,52.844772 
	C70.364082,51.677162 73.111656,50.642612 75.838882,49.561203 
	C75.763390,52.848610 76.254883,56.306934 75.340149,59.341351 
	C74.961327,60.598011 71.480217,61.752541 69.571831,61.534809 
	C66.028816,61.130581 65.573853,58.144760 66.244972,54.692009 
z"/>
<path fill="#444956" opacity="1.000000" stroke="none" 
	d="
M41.901123,58.581451 
	C39.569790,59.819973 37.341034,61.153027 35.041023,61.290066 
	C34.098030,61.346249 31.921041,58.526348 32.192680,57.528599 
	C32.813808,55.247150 34.439320,53.154648 35.977299,51.243198 
	C36.738811,50.296757 38.142399,49.659992 39.373573,49.345745 
	C41.335213,48.845058 42.937401,48.961922 42.275375,51.936382 
	C41.828274,53.945168 42.051586,56.103168 41.901123,58.581451 
z"/>
</svg>