<svg version="1.1" id="Layer_1" xmlns="http://www.w3.org/2000/svg" xmlns:xlink="http://www.w3.org/1999/xlink" x="0px" y="0px"
	 width="100%" viewBox="1 1 574 208" enable-background="new 0 0 574 208" xml:space="preserve">
<path fill="#FEFEFE" opacity="1.000000" stroke="none" 
	d="
M361.000000,209.000000 
	C240.666672,209.000000 120.833336,209.000000 1.000000,209.000000 
	C1.000000,139.666672 1.000000,70.333336 1.000000,1.000000 
	C192.333328,1.000000 383.666656,1.000000 575.000000,1.000000 
	C575.000000,70.333336 575.000000,139.666672 575.000000,209.000000 
	C503.833344,209.000000 432.666656,209.000000 361.000000,209.000000 
M25.887114,107.608368 
	C25.983301,112.600494 25.685682,117.636543 26.236725,122.577950 
	C31.617270,170.827301 74.736275,203.973648 124.155167,197.984100 
	C169.793900,192.452698 203.073242,148.533691 197.067520,101.761101 
	C191.412674,57.721245 153.531616,25.842342 108.294167,27.053644 
	C65.169899,28.208361 28.974907,63.186016 25.887114,107.608368 
M312.005890,106.287331 
	C317.905670,83.255234 306.898682,69.003464 283.142700,68.941856 
	C273.483521,68.916801 263.824219,68.937309 254.164993,68.937119 
	C251.236832,68.937057 248.308670,68.937103 245.450424,68.937103 
	C245.450424,98.362900 245.450424,127.081543 245.450424,155.889404 
	C250.538589,155.889404 255.304520,155.889404 260.494904,155.889404 
	C260.494904,144.917709 260.494904,134.160675 260.494904,122.839470 
	C269.537903,122.839470 278.172852,123.115402 286.782990,122.770828 
	C297.990356,122.322334 307.245239,118.331078 312.005890,106.287331 
M469.630554,124.979095 
	C465.716400,135.188873 461.802277,145.398666 457.694214,156.114243 
	C462.517639,156.114243 466.687073,156.345169 470.803772,155.980850 
	C472.128510,155.863602 473.945343,154.431641 474.454895,153.165619 
	C476.687286,147.618759 478.651398,141.952576 480.444763,136.245422 
	C481.272003,133.612854 482.497498,132.598480 485.372498,132.661179 
	C494.527802,132.860840 503.693512,132.873077 512.848083,132.657669 
	C515.944885,132.584824 517.225769,133.749969 518.091614,136.548813 
	C519.812195,142.110947 521.764832,147.610367 523.883118,153.033524 
	C524.366882,154.272034 525.855286,155.889587 526.980103,155.971252 
	C531.572693,156.304688 536.203491,156.110229 541.383545,156.110229 
	C530.048523,126.746040 518.926270,97.932968 507.824799,69.173782 
	C502.083405,69.173782 496.650238,69.173782 491.146545,69.173782 
	C484.025726,87.658279 476.975189,105.960304 469.630554,124.979095 
M333.064636,96.520676 
	C327.682587,100.530167 324.711578,105.779961 324.648926,112.824783 
	C329.240570,112.824783 333.691559,112.824783 338.128571,112.824783 
	C341.357056,103.704178 347.634796,100.499565 357.737762,102.777336 
	C363.041687,103.973137 365.494995,106.643982 365.406769,111.079102 
	C365.307983,116.044739 361.881165,117.430748 357.837982,118.116478 
	C350.627167,119.339439 343.318085,120.137344 336.217834,121.820465 
	C326.501465,124.123734 322.015167,130.208511 322.098602,139.686920 
	C322.175415,148.413773 327.322357,154.834518 336.430725,157.072174 
	C346.900269,159.644226 356.528656,157.309082 365.551361,151.302429 
	C366.076233,152.225632 366.486603,153.110596 367.040344,153.894226 
	C369.995850,158.076859 377.410828,159.654877 383.520386,157.012527 
	C387.798492,155.162292 384.876953,151.201035 385.465912,148.248810 
	C385.513397,148.010910 385.159393,147.692932 384.872284,147.211517 
	C379.488037,148.165405 378.672546,145.097366 378.785736,140.487869 
	C379.026978,130.664642 378.941040,120.830391 378.831543,111.002419 
	C378.732910,102.150131 374.862122,96.327927 366.529755,93.603188 
	C355.337555,89.943283 344.234161,90.209740 333.064636,96.520676 
M565.116638,69.159508 
	C560.338013,69.159508 555.559387,69.159508 550.635132,69.159508 
	C550.635132,98.197403 550.635132,127.035393 550.635132,155.887604 
	C555.759705,155.887604 560.529724,155.887604 565.695679,155.887604 
	C565.695679,127.066727 565.695679,98.484749 565.116638,69.159508 
M407.456024,129.551056 
	C407.617279,126.565941 407.485291,123.530006 407.992310,120.604813 
	C409.846222,109.908501 416.965240,104.505684 427.737305,105.342995 
	C428.519196,105.403763 429.309906,105.350960 430.155396,105.350960 
	C430.155396,100.648186 430.155396,96.115509 430.155396,90.504585 
	C425.403900,91.557289 420.915710,91.761475 417.230682,93.586922 
	C413.429596,95.469864 410.410095,98.930588 406.848541,101.865944 
	C406.690582,98.848923 406.531311,95.806259 406.363403,92.599197 
	C401.950714,92.599197 397.887146,92.599197 393.628937,92.599197 
	C393.628937,113.875313 393.628937,134.873505 393.628937,155.777557 
	C398.378387,155.777557 402.772980,155.777557 407.455933,155.777557 
	C407.455933,147.132401 407.455933,138.834183 407.456024,129.551056 
M436.919922,115.499985 
	C436.919922,128.917847 436.919922,142.335709 436.919922,155.835388 
	C441.776154,155.835388 446.167328,155.835388 450.590698,155.835388 
	C450.590698,126.751648 450.590698,97.942642 450.590698,69.284798 
	C445.829773,69.284798 441.432343,69.284798 436.919922,69.284798 
	C436.919922,84.585289 436.919922,99.542633 436.919922,115.499985 
z"/>
<path fill="#D92152" opacity="1.000000" stroke="none" 
	d="
M25.908962,107.127625 
	C28.974907,63.186016 65.169899,28.208361 108.294167,27.053644 
	C153.531616,25.842342 191.412674,57.721245 197.067520,101.761101 
	C203.073242,148.533691 169.793900,192.452698 124.155167,197.984100 
	C74.736275,203.973648 31.617270,170.827301 26.236725,122.577950 
	C25.685682,117.636543 25.983301,112.600494 25.908962,107.127625 
M93.429291,94.373581 
	C92.922714,95.141563 92.416130,95.909538 91.911057,96.675682 
	C91.911057,96.675682 91.882027,96.643791 91.275650,96.983345 
	C89.085999,99.618454 86.896339,102.253571 84.172394,105.160980 
	C83.455627,106.110214 82.738869,107.059441 81.514168,108.279427 
	C80.950294,109.041573 80.386429,109.803719 79.262009,110.903427 
	C78.479820,111.923622 77.697632,112.943817 76.286743,114.391449 
	C75.487129,116.410942 71.547997,117.243919 73.943260,120.884521 
	C73.803162,121.254929 73.663071,121.625336 73.738785,120.968513 
	C72.538155,121.160866 70.867989,120.917870 70.217056,121.619904 
	C67.177399,124.898270 64.419006,128.437424 61.027767,132.168655 
	C60.022358,133.447327 59.016949,134.725998 57.421677,136.337891 
	C56.226749,137.813934 55.031822,139.289978 52.736530,142.125244 
	C60.468483,142.760712 66.707489,143.273483 73.228363,143.809418 
	C72.148758,146.562363 71.148590,149.112717 70.043381,151.930969 
	C79.579849,153.425552 87.382332,149.476593 96.060196,144.984390 
	C96.060196,157.197113 96.060196,168.171799 96.060196,179.146500 
	C96.524925,179.445648 96.989647,179.744812 97.454376,180.043961 
	C100.779388,177.509399 104.104401,174.974823 107.511948,172.269012 
	C107.758926,172.069809 107.932999,171.822174 108.485786,170.932251 
	C109.672523,168.463226 110.859261,165.994202 112.206322,163.188110 
	C112.251671,162.927063 112.194969,162.690491 112.670723,161.978439 
	C112.748688,157.930115 114.736839,155.915237 118.860596,156.002304 
	C119.605530,156.018051 120.361000,155.535522 121.855682,155.322876 
	C125.568352,153.532135 129.281021,151.741394 133.631561,149.767441 
	C135.554596,147.851257 137.477615,145.935074 139.983459,143.566071 
	C150.069107,130.959915 150.910828,114.947685 142.156326,101.486023 
	C140.810349,99.416351 138.804657,97.455299 142.615829,95.196091 
	C143.934265,93.566315 145.252716,91.936546 147.153061,89.825302 
	C149.182587,89.054695 152.253662,88.868881 153.069046,87.416588 
	C157.642471,79.270912 155.408630,65.611862 148.850342,58.206772 
	C148.161758,57.487930 147.473160,56.769093 146.532211,55.472187 
	C145.714172,54.810020 144.896118,54.147850 143.766174,52.922390 
	C141.870468,51.877846 139.974777,50.833302 137.888031,49.585213 
	C137.888031,49.585213 137.609055,49.594471 137.139526,49.045399 
	C134.769562,48.483185 132.399612,47.920975 129.293564,47.105598 
	C128.521118,47.102074 127.748665,47.098549 126.563522,46.747139 
	C125.717407,46.862041 124.871284,46.976944 123.224846,46.987358 
	C122.177452,47.185547 121.130051,47.383732 119.499702,47.376114 
	C118.771881,47.701244 118.044060,48.026371 116.680748,48.353817 
	C115.702904,48.738327 114.725067,49.122837 113.030182,49.617374 
	C103.572372,54.145519 97.718262,61.346367 96.169907,72.862877 
	C96.021896,79.224564 95.873886,85.586258 95.219337,92.178703 
	C94.819336,92.788391 94.419327,93.398079 93.429291,94.373581 
z"/>
<path fill="#060606" opacity="1.000000" stroke="none" 
	d="
M311.872986,106.656960 
	C307.245239,118.331078 297.990356,122.322334 286.782990,122.770828 
	C278.172852,123.115402 269.537903,122.839470 260.494904,122.839470 
	C260.494904,134.160675 260.494904,144.917709 260.494904,155.889404 
	C255.304520,155.889404 250.538589,155.889404 245.450424,155.889404 
	C245.450424,127.081543 245.450424,98.362900 245.450424,68.937103 
	C248.308670,68.937103 251.236832,68.937057 254.164993,68.937119 
	C263.824219,68.937309 273.483521,68.916801 283.142700,68.941856 
	C306.898682,69.003464 317.905670,83.255234 311.872986,106.656960 
M267.599823,81.764740 
	C265.343628,81.764740 263.087433,81.764740 260.718414,81.764740 
	C260.718414,91.537636 260.718414,100.616684 260.718414,109.970955 
	C268.610413,109.970955 276.242859,109.993797 283.874878,109.946350 
	C285.020508,109.939232 286.182495,109.679070 287.305664,109.407021 
	C295.338409,107.461380 298.943573,102.117371 298.088745,93.482819 
	C297.362976,86.151886 293.050720,82.176918 285.041870,81.853142 
	C279.560059,81.631516 274.063232,81.781097 267.599823,81.764740 
z"/>
<path fill="#070707" opacity="1.000000" stroke="none" 
	d="
M469.777588,124.620712 
	C476.975189,105.960304 484.025726,87.658279 491.146545,69.173782 
	C496.650238,69.173782 502.083405,69.173782 507.824799,69.173782 
	C518.926270,97.932968 530.048523,126.746040 541.383545,156.110229 
	C536.203491,156.110229 531.572693,156.304688 526.980103,155.971252 
	C525.855286,155.889587 524.366882,154.272034 523.883118,153.033524 
	C521.764832,147.610367 519.812195,142.110947 518.091614,136.548813 
	C517.225769,133.749969 515.944885,132.584824 512.848083,132.657669 
	C503.693512,132.873077 494.527802,132.860840 485.372498,132.661179 
	C482.497498,132.598480 481.272003,133.612854 480.444763,136.245422 
	C478.651398,141.952576 476.687286,147.618759 474.454895,153.165619 
	C473.945343,154.431641 472.128510,155.863602 470.803772,155.980850 
	C466.687073,156.345169 462.517639,156.114243 457.694214,156.114243 
	C461.802277,145.398666 465.716400,135.188873 469.777588,124.620712 
M510.355988,114.215744 
	C506.854431,104.203049 503.352875,94.190353 499.398926,82.884018 
	C494.637604,96.358925 490.362396,108.458092 486.086456,120.559273 
	C495.034943,120.559273 503.530487,120.559273 512.383667,120.559273 
	C511.712463,118.412514 511.175354,116.694672 510.355988,114.215744 
z"/>
<path fill="#090909" opacity="1.000000" stroke="none" 
	d="
M333.365356,96.312943 
	C344.234161,90.209740 355.337555,89.943283 366.529755,93.603188 
	C374.862122,96.327927 378.732910,102.150131 378.831543,111.002419 
	C378.941040,120.830391 379.026978,130.664642 378.785736,140.487869 
	C378.672546,145.097366 379.488037,148.165405 384.872284,147.211517 
	C385.159393,147.692932 385.513397,148.010910 385.465912,148.248810 
	C384.876953,151.201035 387.798492,155.162292 383.520386,157.012527 
	C377.410828,159.654877 369.995850,158.076859 367.040344,153.894226 
	C366.486603,153.110596 366.076233,152.225632 365.551361,151.302429 
	C356.528656,157.309082 346.900269,159.644226 336.430725,157.072174 
	C327.322357,154.834518 322.175415,148.413773 322.098602,139.686920 
	C322.015167,130.208511 326.501465,124.123734 336.217834,121.820465 
	C343.318085,120.137344 350.627167,119.339439 357.837982,118.116478 
	C361.881165,117.430748 365.307983,116.044739 365.406769,111.079102 
	C365.494995,106.643982 363.041687,103.973137 357.737762,102.777336 
	C347.634796,100.499565 341.357056,103.704178 338.128571,112.824783 
	C333.691559,112.824783 329.240570,112.824783 324.648926,112.824783 
	C324.711578,105.779961 327.682587,100.530167 333.365356,96.312943 
M337.981110,143.489944 
	C344.153473,148.074509 353.223145,148.395630 359.461823,144.302292 
	C366.631714,139.597961 364.456177,132.595139 364.592499,125.888390 
	C357.203918,127.250114 350.292908,128.133698 343.601898,129.866806 
	C336.921600,131.597122 334.924652,136.479507 337.981110,143.489944 
z"/>
<path fill="#0D0D0D" opacity="1.000000" stroke="none" 
	d="
M565.406128,69.531143 
	C565.695679,98.484749 565.695679,127.066727 565.695679,155.887604 
	C560.529724,155.887604 555.759705,155.887604 550.635132,155.887604 
	C550.635132,127.035393 550.635132,98.197403 550.635132,69.159508 
	C555.559387,69.159508 560.338013,69.159508 565.406128,69.531143 
z"/>
<path fill="#0C0C0C" opacity="1.000000" stroke="none" 
	d="
M407.455994,130.043518 
	C407.455933,138.834183 407.455933,147.132401 407.455933,155.777557 
	C402.772980,155.777557 398.378387,155.777557 393.628937,155.777557 
	C393.628937,134.873505 393.628937,113.875313 393.628937,92.599197 
	C397.887146,92.599197 401.950714,92.599197 406.363403,92.599197 
	C406.531311,95.806259 406.690582,98.848923 406.848541,101.865944 
	C410.410095,98.930588 413.429596,95.469864 417.230682,93.586922 
	C420.915710,91.761475 425.403900,91.557289 430.155396,90.504585 
	C430.155396,96.115509 430.155396,100.648186 430.155396,105.350960 
	C429.309906,105.350960 428.519196,105.403763 427.737305,105.342995 
	C416.965240,104.505684 409.846222,109.908501 407.992310,120.604813 
	C407.485291,123.530006 407.617279,126.565941 407.455994,130.043518 
z"/>
<path fill="#040404" opacity="1.000000" stroke="none" 
	d="
M436.919922,114.999977 
	C436.919922,99.542633 436.919922,84.585289 436.919922,69.284798 
	C441.432343,69.284798 445.829773,69.284798 450.590698,69.284798 
	C450.590698,97.942642 450.590698,126.751648 450.590698,155.835388 
	C446.167328,155.835388 441.776154,155.835388 436.919922,155.835388 
	C436.919922,142.335709 436.919922,128.917847 436.919922,114.999977 
z"/>
<path fill="#D92454" opacity="1.000000" stroke="none" 
	d="
M73.522964,121.995743 
	C73.663071,121.625336 73.803162,121.254929 74.330643,120.744034 
	C76.219307,118.868752 77.720589,117.133957 79.431274,115.294144 
	C79.880821,114.805061 80.120972,114.421005 80.653137,113.827667 
	C82.445648,111.784798 83.946129,109.951195 85.635712,108.044357 
	C86.021217,107.632019 86.217628,107.292923 86.698837,106.733261 
	C88.838013,104.002029 90.692383,101.491348 92.532990,98.989624 
	C92.519234,98.998573 92.512840,98.975815 92.889008,99.008774 
	C93.722702,98.460449 94.180229,97.879150 94.867371,97.189346 
	C95.481125,96.539757 95.865273,95.998665 96.536179,95.278381 
	C97.406921,94.168648 97.990906,93.238106 98.725082,91.907303 
	C98.907440,88.746170 98.704048,85.955429 99.049141,83.234238 
	C99.307693,81.195343 100.272369,79.246002 101.203339,77.379364 
	C102.217171,77.212349 102.950325,76.922737 103.848419,76.675690 
	C104.013344,76.718239 104.316650,76.563141 104.621063,76.575729 
	C105.657036,76.258240 106.388588,75.928162 107.487686,75.472900 
	C109.896667,75.192329 111.970757,74.727142 113.973579,74.938187 
	C120.644112,75.641075 125.189636,69.760323 123.470161,63.377769 
	C122.343666,59.196281 122.592560,54.644268 122.163605,49.519474 
	C126.822502,50.024757 130.002502,50.369644 133.920303,50.794556 
	C133.036285,52.956211 132.498535,54.271145 131.963379,55.764454 
	C131.968369,56.451336 131.970795,56.959843 131.715652,57.707512 
	C131.428329,58.400890 131.398560,58.855106 131.329926,59.353374 
	C131.291046,59.397427 131.175537,59.418968 130.892487,59.688362 
	C129.992813,61.662769 129.376190,63.367786 128.539429,65.511368 
	C128.871094,66.466766 129.422882,66.983589 129.963577,67.799133 
	C129.808716,69.064880 129.664963,70.031914 129.586151,70.775711 
	C129.651093,70.552467 129.539795,70.100822 129.688232,69.612518 
	C129.426559,68.624954 129.016464,68.125679 128.606369,67.626404 
	C128.125229,68.313438 127.644096,69.000473 126.942444,69.843056 
	C126.548813,70.495697 126.375702,70.992798 126.018539,71.779037 
	C125.128914,74.017242 124.423332,75.966316 123.469315,78.168556 
	C121.806717,82.278717 120.392548,86.135712 118.781487,90.194824 
	C118.425148,90.930145 118.265686,91.463356 117.909653,92.245667 
	C117.553856,93.092583 117.394630,93.690392 117.072952,94.574356 
	C116.579178,95.897903 116.247849,96.935287 115.722923,98.161995 
	C115.915894,99.113289 116.302452,99.875267 116.747452,100.949158 
	C117.718124,102.914909 118.630363,104.568748 119.553360,106.481476 
	C119.801819,107.193604 120.039505,107.646843 120.342010,108.458435 
	C123.764732,118.058403 123.615265,127.431633 121.276962,137.135162 
	C120.898773,138.201187 120.703613,139.012207 120.351257,140.023895 
	C120.061569,140.711304 119.929085,141.198013 119.540268,141.932571 
	C117.893806,144.895721 116.503685,147.611038 114.856010,150.512817 
	C111.341675,154.107361 108.084892,157.515427 104.646164,161.031433 
	C104.258308,161.412109 104.266655,161.678589 104.471786,161.914566 
	C104.454300,161.890335 104.396065,161.876877 103.977287,161.746002 
	C102.245590,162.110107 100.932671,162.605103 99.040733,163.318405 
	C99.040733,157.856567 99.668571,152.947083 98.879059,148.277206 
	C97.929214,142.659042 102.035019,139.640396 104.183136,136.080917 
	C101.775146,134.718201 99.922165,133.015900 97.848259,132.680756 
	C95.795975,132.349091 93.534332,133.499588 91.336845,133.791840 
	C90.403122,133.916000 88.717987,133.777695 88.531631,133.303696 
	C86.589340,128.363297 82.160767,130.008591 78.479713,129.025345 
	C77.305099,126.651344 77.096832,123.752434 73.675415,124.136711 
	C73.624596,123.423058 73.573784,122.709396 73.522964,121.995743 
z"/>
<path fill="#FAE5E9" opacity="1.000000" stroke="none" 
	d="
M78.617523,129.347031 
	C82.160767,130.008591 86.589340,128.363297 88.531631,133.303696 
	C88.717987,133.777695 90.403122,133.916000 91.336845,133.791840 
	C93.534332,133.499588 95.795975,132.349091 97.848259,132.680756 
	C99.922165,133.015900 101.775146,134.718201 104.183136,136.080917 
	C102.035019,139.640396 97.929214,142.659042 98.879059,148.277206 
	C99.668571,152.947083 99.040733,157.856567 99.040733,163.318405 
	C100.932671,162.605103 102.245590,162.110107 104.321152,162.072083 
	C104.188087,163.602081 103.505112,165.144302 102.358597,165.664108 
	C98.160179,167.567551 98.458458,170.546494 99.335236,173.372391 
	C102.350296,173.025177 104.889854,172.732727 107.429413,172.440277 
	C104.104401,174.974823 100.779388,177.509399 97.454376,180.043961 
	C96.989647,179.744812 96.524925,179.445648 96.060196,179.146500 
	C96.060196,168.171799 96.060196,157.197113 96.060196,144.984390 
	C87.382332,149.476593 79.579849,153.425552 70.043381,151.930969 
	C71.148590,149.112717 72.148758,146.562363 73.228363,143.809418 
	C66.707489,143.273483 60.468483,142.760712 52.736530,142.125244 
	C55.031822,139.289978 56.226749,137.813934 58.070999,136.225235 
	C59.226784,136.571991 59.733250,137.031403 60.116924,137.771637 
	C61.079384,138.753479 62.172333,140.064819 63.248569,140.051239 
	C68.236290,139.988342 73.219368,139.557724 78.724579,139.227600 
	C77.494736,142.443573 76.340843,145.460938 75.163177,148.540466 
	C84.314568,148.999451 95.736526,143.139450 98.279228,135.970932 
	C89.719254,139.311646 83.867744,133.239319 77.337387,130.696228 
	C78.051872,129.949814 78.334702,129.648422 78.617523,129.347031 
z"/>
<path fill="#FEF9F9" opacity="1.000000" stroke="none" 
	d="
M131.960800,55.586079 
	C132.498535,54.271145 133.036285,52.956211 133.920303,50.794556 
	C130.002502,50.369644 126.822502,50.024757 122.163605,49.519474 
	C122.592560,54.644268 122.343666,59.196281 123.470161,63.377769 
	C125.189636,69.760323 120.644112,75.641075 113.973579,74.938187 
	C111.970757,74.727142 109.896667,75.192329 107.308914,74.850136 
	C106.625542,73.943298 106.488487,73.534050 106.641861,72.924576 
	C107.069954,71.541786 107.233093,70.361526 107.339828,69.176178 
	C107.543251,66.916855 106.849030,63.735889 108.075340,62.580704 
	C110.812645,60.002136 114.501633,58.433834 117.802902,56.453945 
	C118.217026,56.880444 118.631157,57.306942 119.045280,57.733437 
	C119.269989,55.533386 119.494698,53.333336 119.783669,50.504101 
	C117.375000,51.197895 115.664330,51.690636 113.944336,51.736008 
	C113.872421,50.694870 113.809822,50.101109 113.747223,49.507347 
	C114.725067,49.122837 115.702904,48.738327 117.307190,48.524757 
	C118.649971,48.324440 119.366310,47.953178 120.082657,47.581917 
	C121.130051,47.383732 122.177452,47.185547 123.804825,47.278091 
	C125.248604,47.410896 126.112404,47.252964 126.976212,47.095032 
	C127.748665,47.098549 128.521118,47.102074 129.906723,47.471069 
	C132.882935,48.422512 135.246002,49.008492 137.609055,49.594471 
	C137.609055,49.594471 137.888031,49.585213 137.962524,50.050751 
	C138.012802,51.242249 137.988571,51.968208 137.615601,52.784557 
	C136.511520,54.037773 135.793823,55.227238 134.993011,56.357830 
	C133.351990,58.674652 132.535355,57.561375 131.960800,55.586079 
z"/>
<path fill="#FAE5E9" opacity="1.000000" stroke="none" 
	d="
M142.071579,95.365707 
	C138.804657,97.455299 140.810349,99.416351 142.156326,101.486023 
	C150.910828,114.947685 150.069107,130.959915 139.510239,143.364716 
	C138.593384,142.750153 138.149734,142.336960 137.853821,141.606308 
	C146.620041,129.344589 147.327423,115.747002 140.141647,104.097275 
	C138.184402,100.924156 136.366608,99.364952 132.197876,100.737160 
	C128.704468,101.887077 124.700874,101.487137 120.938187,101.358109 
	C121.009422,100.113625 121.065651,99.284462 121.554657,98.451256 
	C127.524399,97.219818 133.061356,95.992416 139.176254,94.861282 
	C140.526657,95.093597 141.299118,95.229652 142.071579,95.365707 
z"/>
<path fill="#FAE5E9" opacity="1.000000" stroke="none" 
	d="
M148.896683,58.758274 
	C155.408630,65.611862 157.642471,79.270912 153.069046,87.416588 
	C152.253662,88.868881 149.182587,89.054695 146.550613,89.936127 
	C145.380096,89.694931 144.812027,89.342911 144.248932,88.614685 
	C142.078995,86.673576 139.904099,85.108681 137.887756,82.889999 
	C138.139435,81.797516 138.232559,81.358803 138.700409,81.013741 
	C142.692596,82.699013 146.310059,84.290642 150.392639,86.086914 
	C153.804153,76.682014 152.271194,68.447037 147.724304,60.162231 
	C148.401138,59.404476 148.648911,59.081375 148.896683,58.758274 
z"/>
<path fill="#F7D8E0" opacity="1.000000" stroke="none" 
	d="
M113.388702,49.562363 
	C113.809822,50.101109 113.872421,50.694870 113.712265,51.954998 
	C105.993172,56.786686 101.516586,63.269989 98.768036,71.299545 
	C97.767441,71.487297 97.114609,71.722191 96.461777,71.957085 
	C97.718262,61.346367 103.572372,54.145519 113.388702,49.562363 
z"/>
<path fill="#DD3D67" opacity="1.000000" stroke="none" 
	d="
M107.470680,172.354645 
	C104.889854,172.732727 102.350296,173.025177 99.335236,173.372391 
	C98.458458,170.546494 98.160179,167.567551 102.358597,165.664108 
	C103.505112,165.144302 104.188087,163.602081 104.739929,162.202972 
	C104.396065,161.876877 104.454300,161.890335 104.397720,162.348175 
	C105.680313,162.260376 107.019478,161.714752 108.634415,161.000732 
	C109.952209,161.381027 110.994217,161.929703 112.036217,162.478394 
	C112.194969,162.690491 112.251671,162.927063 111.781067,163.024017 
	C109.636047,165.230515 107.897804,167.588837 106.280685,170.027496 
	C106.229118,170.105255 107.421616,171.007965 108.034157,171.526108 
	C107.932999,171.822174 107.758926,172.069809 107.470680,172.354645 
z"/>
<path fill="#FAE5E9" opacity="1.000000" stroke="none" 
	d="
M73.630875,121.482132 
	C73.573784,122.709396 73.624596,123.423058 73.675415,124.136711 
	C77.096832,123.752434 77.305099,126.651344 78.479706,129.025345 
	C78.334702,129.648422 78.051872,129.949814 77.040100,130.478516 
	C72.569397,126.262756 70.348404,126.513435 64.533577,131.990967 
	C63.259445,131.957611 62.409756,131.920502 61.560059,131.883362 
	C64.419006,128.437424 67.177399,124.898270 70.217056,121.619904 
	C70.867989,120.917870 72.538155,121.160866 73.630875,121.482132 
z"/>
<path fill="#FEF9F9" opacity="1.000000" stroke="none" 
	d="
M96.315842,72.409981 
	C97.114609,71.722191 97.767441,71.487297 98.724564,71.598381 
	C98.926636,76.918739 102.353760,73.283615 104.023621,74.416267 
	C104.134567,75.420250 104.225609,75.991692 104.316650,76.563141 
	C104.316650,76.563141 104.013344,76.718239 103.550797,76.503578 
	C102.366386,76.611534 101.644524,76.934158 100.922653,77.256783 
	C100.272369,79.246002 99.307693,81.195343 99.049141,83.234238 
	C98.704048,85.955429 98.907440,88.746170 98.252647,91.821869 
	C96.995308,92.073776 96.360596,92.010857 95.725876,91.947937 
	C95.873886,85.586258 96.021896,79.224564 96.315842,72.409981 
z"/>
<path fill="#FEF9F9" opacity="1.000000" stroke="none" 
	d="
M112.353470,162.228424 
	C110.994217,161.929703 109.952209,161.381027 108.050102,160.935272 
	C106.402702,160.999969 105.615410,160.961731 104.828110,160.923492 
	C108.084892,157.515427 111.341675,154.107361 115.456146,150.753937 
	C116.727661,150.920715 117.141487,151.032867 117.471725,151.485260 
	C118.255630,152.245987 119.123116,152.666489 120.124405,153.364929 
	C120.542679,154.189590 120.827141,154.736313 121.111603,155.283035 
	C120.361000,155.535522 119.605530,156.018051 118.860596,156.002304 
	C114.736839,155.915237 112.748688,157.930115 112.353470,162.228424 
z"/>
<path fill="#FAE5E9" opacity="1.000000" stroke="none" 
	d="
M121.483643,155.302948 
	C120.827141,154.736313 120.542679,154.189590 120.448517,153.177567 
	C124.771683,150.652939 128.904556,148.593613 133.030960,146.961426 
	C133.014236,148.242599 133.003967,149.096634 132.993683,149.950653 
	C129.281021,151.741394 125.568352,153.532135 121.483643,155.302948 
z"/>
<path fill="#FAE5E9" opacity="1.000000" stroke="none" 
	d="
M92.546753,98.980667 
	C90.692383,101.491348 88.838013,104.002029 86.507538,106.314644 
	C85.589859,105.707283 85.148270,105.297981 84.706688,104.888680 
	C86.896339,102.253571 89.085999,99.618454 91.726593,97.395859 
	C92.268478,98.197060 92.359428,98.585739 92.475449,98.960464 
	C92.500511,98.946503 92.546753,98.980667 92.546753,98.980667 
z"/>
<path fill="#F7D4DD" opacity="1.000000" stroke="none" 
	d="
M133.312622,149.859039 
	C133.003967,149.096634 133.014236,148.242599 133.192291,146.723907 
	C134.808762,144.680756 136.257431,143.302261 137.706100,141.923767 
	C138.149734,142.336960 138.593384,142.750153 139.218826,143.591110 
	C137.477615,145.935074 135.554596,147.851257 133.312622,149.859039 
z"/>
<path fill="#F7D4DD" opacity="1.000000" stroke="none" 
	d="
M144.243958,88.990891 
	C144.812027,89.342911 145.380096,89.694931 146.259659,90.176865 
	C145.252716,91.936546 143.934265,93.566315 142.343704,95.280899 
	C141.299118,95.229652 140.526657,95.093597 139.371185,94.586884 
	C140.740097,92.474457 142.492020,90.732674 144.243958,88.990891 
z"/>
<path fill="#FAE5E9" opacity="1.000000" stroke="none" 
	d="
M79.221878,115.399170 
	C77.720589,117.133957 76.219307,118.868752 74.350731,120.544785 
	C71.547997,117.243919 75.487129,116.410942 76.960526,114.225624 
	C78.163498,114.506256 78.692688,114.952713 79.221878,115.399170 
z"/>
<path fill="#F7D4DD" opacity="1.000000" stroke="none" 
	d="
M137.964355,52.694168 
	C137.988571,51.968208 138.012802,51.242249 138.058044,50.152523 
	C139.974777,50.833302 141.870468,51.877846 143.903015,53.621704 
	C144.046234,54.875706 144.052628,55.430397 143.914734,56.098373 
	C143.770432,56.211655 143.467102,56.418076 143.169312,56.291996 
	C141.235794,55.008667 139.600082,53.851418 137.964355,52.694168 
z"/>
<path fill="#FAE5E9" opacity="1.000000" stroke="none" 
	d="
M108.259972,171.229187 
	C107.421616,171.007965 106.229118,170.105255 106.280685,170.027496 
	C107.897804,167.588837 109.636047,165.230515 111.700905,163.192551 
	C110.859261,165.994202 109.672523,168.463226 108.259972,171.229187 
z"/>
<path fill="#FAE5E9" opacity="1.000000" stroke="none" 
	d="
M85.446617,108.117599 
	C83.946129,109.951195 82.445648,111.784798 80.543259,113.250488 
	C80.035080,112.110344 79.928818,111.338104 79.822556,110.565857 
	C80.386429,109.803719 80.950294,109.041573 82.195877,108.141632 
	C83.733932,108.041763 84.590271,108.079681 85.446617,108.117599 
z"/>
<path fill="#F7D8E0" opacity="1.000000" stroke="none" 
	d="
M61.293915,132.026016 
	C62.409756,131.920502 63.259445,131.957611 64.418549,132.300751 
	C63.231876,134.234787 61.735798,135.862808 60.239716,137.490814 
	C59.733250,137.031403 59.226784,136.571991 58.365929,136.058624 
	C59.016949,134.725998 60.022358,133.447327 61.293915,132.026016 
z"/>
<path fill="#FAE5E9" opacity="1.000000" stroke="none" 
	d="
M146.784576,56.050255 
	C147.473160,56.769093 148.161758,57.487930 148.873505,58.482521 
	C148.648911,59.081375 148.401138,59.404476 147.491226,59.954132 
	C145.708420,58.926487 144.587769,57.672279 143.467102,56.418076 
	C143.467102,56.418076 143.770432,56.211655 144.254578,56.104034 
	C145.420670,56.014362 146.102631,56.032310 146.784576,56.050255 
z"/>
<path fill="#F7D4DD" opacity="1.000000" stroke="none" 
	d="
M137.374298,49.319935 
	C135.246002,49.008492 132.882935,48.422512 130.274765,47.597649 
	C132.399612,47.920975 134.769562,48.483185 137.374298,49.319935 
z"/>
<path fill="#FAE5E9" opacity="1.000000" stroke="none" 
	d="
M96.249420,95.457581 
	C95.865273,95.998665 95.481125,96.539757 94.184540,97.034515 
	C92.817917,96.884636 92.363731,96.781082 91.909554,96.677521 
	C92.416130,95.909538 92.922714,95.141563 94.077003,94.237167 
	C95.232948,94.553032 95.741188,95.005310 96.249420,95.457581 
z"/>
<path fill="#F7D8E0" opacity="1.000000" stroke="none" 
	d="
M85.635712,108.044357 
	C84.590271,108.079681 83.733932,108.041763 82.449844,108.006256 
	C82.738869,107.059441 83.455627,106.110214 84.439545,105.024826 
	C85.148270,105.297981 85.589859,105.707283 86.222733,106.535202 
	C86.217628,107.292923 86.021217,107.632019 85.635712,108.044357 
z"/>
<path fill="#F7D8E0" opacity="1.000000" stroke="none" 
	d="
M96.536179,95.278381 
	C95.741188,95.005310 95.232948,94.553032 94.372017,94.054268 
	C94.419327,93.398079 94.819336,92.788391 95.472610,92.063324 
	C96.360596,92.010857 96.995308,92.073776 98.102463,92.222137 
	C97.990906,93.238106 97.406921,94.168648 96.536179,95.278381 
z"/>
<path fill="#F7D8E0" opacity="1.000000" stroke="none" 
	d="
M79.542282,110.734642 
	C79.928818,111.338104 80.035080,112.110344 80.251236,113.459763 
	C80.120972,114.421005 79.880821,114.805061 79.431274,115.294144 
	C78.692688,114.952713 78.163498,114.506256 77.274872,114.011902 
	C77.697632,112.943817 78.479820,111.923622 79.542282,110.734642 
z"/>
<path fill="#F7D4DD" opacity="1.000000" stroke="none" 
	d="
M126.769867,46.921085 
	C126.112404,47.252964 125.248604,47.410896 124.204987,47.330338 
	C124.871284,46.976944 125.717407,46.862041 126.769867,46.921085 
z"/>
<path fill="#FEF9F9" opacity="1.000000" stroke="none" 
	d="
M146.658386,55.761223 
	C146.102631,56.032310 145.420670,56.014362 144.398880,55.990753 
	C144.052628,55.430397 144.046234,54.875706 144.058960,53.903347 
	C144.896118,54.147850 145.714172,54.810020 146.658386,55.761223 
z"/>
<path fill="#F7D4DD" opacity="1.000000" stroke="none" 
	d="
M119.791183,47.479015 
	C119.366310,47.953178 118.649971,48.324440 117.624939,48.523602 
	C118.044060,48.026371 118.771881,47.701244 119.791183,47.479015 
z"/>
<path fill="#F7D8E0" opacity="1.000000" stroke="none" 
	d="
M91.910309,96.676605 
	C92.363731,96.781082 92.817917,96.884636 93.954926,97.143021 
	C94.180229,97.879150 93.722702,98.460449 92.868683,98.972916 
	C92.472198,98.904083 92.450371,98.974419 92.450378,98.974419 
	C92.359428,98.585739 92.268478,98.197060 92.029785,97.226089 
	C91.882027,96.643791 91.911057,96.675682 91.910309,96.676605 
z"/>
<path fill="#F9F9F9" opacity="1.000000" stroke="none" 
	d="
M268.086487,81.764740 
	C274.063232,81.781097 279.560059,81.631516 285.041870,81.853142 
	C293.050720,82.176918 297.362976,86.151886 298.088745,93.482819 
	C298.943573,102.117371 295.338409,107.461380 287.305664,109.407021 
	C286.182495,109.679070 285.020508,109.939232 283.874878,109.946350 
	C276.242859,109.993797 268.610413,109.970955 260.718414,109.970955 
	C260.718414,100.616684 260.718414,91.537636 260.718414,81.764740 
	C263.087433,81.764740 265.343628,81.764740 268.086487,81.764740 
z"/>
<path fill="#F5F5F5" opacity="1.000000" stroke="none" 
	d="
M510.497131,114.596283 
	C511.175354,116.694672 511.712463,118.412514 512.383667,120.559273 
	C503.530487,120.559273 495.034943,120.559273 486.086456,120.559273 
	C490.362396,108.458092 494.637604,96.358925 499.398926,82.884018 
	C503.352875,94.190353 506.854431,104.203049 510.497131,114.596283 
z"/>
<path fill="#F6F6F6" opacity="1.000000" stroke="none" 
	d="
M337.724854,143.202118 
	C334.924652,136.479507 336.921600,131.597122 343.601898,129.866806 
	C350.292908,128.133698 357.203918,127.250114 364.592499,125.888390 
	C364.456177,132.595139 366.631714,139.597961 359.461823,144.302292 
	C353.223145,148.395630 344.153473,148.074509 337.724854,143.202118 
z"/>
<path fill="#D92857" opacity="1.000000" stroke="none" 
	d="
M143.169312,56.291996 
	C144.587769,57.672279 145.708420,58.926487 147.062164,60.388786 
	C152.271194,68.447037 153.804153,76.682014 150.392639,86.086914 
	C146.310059,84.290642 142.692596,82.699013 138.551422,80.803467 
	C137.371338,80.278458 136.714935,80.057373 135.806427,79.605026 
	C133.403091,78.515762 131.251846,77.657761 128.922516,76.582565 
	C128.750671,74.958168 128.756927,73.550964 128.934525,71.987053 
	C129.265244,71.563652 129.403702,71.286522 129.521210,70.998947 
	C129.664963,70.031914 129.808716,69.064880 130.300781,67.763824 
	C130.786926,67.013344 130.924774,66.596901 131.270920,65.911613 
	C131.812866,64.562469 132.146515,63.482170 132.734924,62.021332 
	C133.090714,60.142822 135.591721,58.060154 131.973206,57.468349 
	C131.970795,56.959843 131.968369,56.451336 131.963379,55.764454 
	C132.535355,57.561375 133.351990,58.674652 134.993011,56.357830 
	C135.793823,55.227238 136.511520,54.037773 137.615601,52.784561 
	C139.600082,53.851418 141.235794,55.008667 143.169312,56.291996 
z"/>
<path fill="#FEF9F9" opacity="1.000000" stroke="none" 
	d="
M121.459999,136.880142 
	C123.615265,127.431633 123.764732,118.058403 120.799194,108.434784 
	C121.800369,108.034309 122.409180,108.015839 123.215714,108.334511 
	C126.578583,118.232521 127.250526,127.840187 123.333832,137.351807 
	C122.295097,137.080902 121.877548,136.980515 121.459999,136.880142 
z"/>
<path fill="#FAE5E9" opacity="1.000000" stroke="none" 
	d="
M118.978378,89.992706 
	C120.392548,86.135712 121.806717,82.278717 124.027176,78.251801 
	C125.559120,78.274132 126.284775,78.466393 126.750420,78.910179 
	C124.899055,82.832680 123.307693,86.503662 121.261124,90.128891 
	C120.196739,90.052994 119.587563,90.022850 118.978378,89.992706 
z"/>
<path fill="#FEF9F9" opacity="1.000000" stroke="none" 
	d="
M121.121887,98.455299 
	C121.065651,99.284462 121.009422,100.113625 121.018066,101.748047 
	C121.409187,103.554527 121.735428,104.555763 121.432655,105.726273 
	C120.383293,106.004562 119.962944,106.113571 119.542595,106.222580 
	C118.630363,104.568748 117.718124,102.914909 116.823868,100.574097 
	C116.533401,99.248978 116.224960,98.610825 115.916512,97.972679 
	C116.247849,96.935287 116.579178,95.897903 117.706451,94.817802 
	C118.938644,94.887047 119.374901,94.999001 119.751633,95.417603 
	C120.168701,96.634605 120.645294,97.544952 121.121887,98.455299 
z"/>
<path fill="#FAE5E9" opacity="1.000000" stroke="none" 
	d="
M117.555313,151.145020 
	C117.141487,151.032867 116.727661,150.920715 115.713699,150.567459 
	C116.503685,147.611038 117.893806,144.895721 119.725372,142.221405 
	C120.781120,142.508728 121.395424,142.755066 122.002945,143.349915 
	C120.515884,146.180634 119.035599,148.662827 117.555313,151.145020 
z"/>
<path fill="#FEF9F9" opacity="1.000000" stroke="none" 
	d="
M127.010422,78.658653 
	C126.284775,78.466393 125.559120,78.274132 124.275604,77.998634 
	C124.423332,75.966316 125.128914,74.017242 126.652763,71.969238 
	C127.901749,71.961456 128.332458,72.052612 128.763184,72.143768 
	C128.756927,73.550964 128.750671,74.958168 128.696167,76.935074 
	C128.213745,77.862129 127.779556,78.219475 127.271103,78.579269 
	C127.196838,78.581718 127.010422,78.658653 127.010422,78.658653 
z"/>
<path fill="#FEF9F9" opacity="1.000000" stroke="none" 
	d="
M132.480164,62.401871 
	C132.146515,63.482170 131.812866,64.562469 131.091492,65.620377 
	C130.055695,65.422928 129.407623,65.247864 128.759552,65.072800 
	C129.376190,63.367786 129.992813,61.662769 130.826172,60.063347 
	C131.360367,60.776867 131.677872,61.384792 132.114105,62.097912 
	C132.232864,62.203102 132.480164,62.401875 132.480164,62.401871 
z"/>
<path fill="#FEF9F9" opacity="1.000000" stroke="none" 
	d="
M118.781494,90.194824 
	C119.587563,90.022850 120.196739,90.052994 121.204071,90.455887 
	C121.261406,91.642952 120.920593,92.457260 120.254074,93.146347 
	C119.320984,92.679596 118.713608,92.338081 118.106224,91.996559 
	C118.265686,91.463356 118.425148,90.930145 118.781494,90.194824 
z"/>
<path fill="#F7D8E0" opacity="1.000000" stroke="none" 
	d="
M104.621063,76.575729 
	C104.225609,75.991692 104.134567,75.420250 104.289383,74.243660 
	C105.140625,73.467278 105.746025,73.296036 106.351433,73.124802 
	C106.488487,73.534050 106.625542,73.943298 106.941368,74.975311 
	C106.388588,75.928162 105.657036,76.258240 104.621063,76.575729 
z"/>
<path fill="#FAE5E9" opacity="1.000000" stroke="none" 
	d="
M119.553360,106.481476 
	C119.962944,106.113571 120.383293,106.004562 121.637482,105.908325 
	C122.653534,106.613182 122.835770,107.305275 123.018005,107.997360 
	C122.409180,108.015839 121.800369,108.034309 120.734375,108.076431 
	C120.039505,107.646843 119.801819,107.193604 119.553360,106.481476 
z"/>
<path fill="#FEF9F9" opacity="1.000000" stroke="none" 
	d="
M122.009735,143.001389 
	C121.395424,142.755066 120.781120,142.508728 119.981705,141.973572 
	C119.929085,141.198013 120.061569,140.711304 120.792847,140.074310 
	C121.979874,139.941376 122.568115,139.958725 123.126343,140.303192 
	C122.734131,141.420685 122.371933,142.211044 122.009735,143.001389 
z"/>
<path fill="#FAE5E9" opacity="1.000000" stroke="none" 
	d="
M123.156349,139.976059 
	C122.568115,139.958725 121.979874,139.941376 120.950050,139.873627 
	C120.703613,139.012207 120.898773,138.201187 121.276962,137.135162 
	C121.877548,136.980515 122.295097,137.080902 123.319641,137.681305 
	C123.669868,138.779572 123.413109,139.377823 123.156349,139.976059 
z"/>
<path fill="#F7D4DD" opacity="1.000000" stroke="none" 
	d="
M117.909653,92.245667 
	C118.713608,92.338081 119.320984,92.679596 120.233215,93.400963 
	C120.295769,94.224190 120.053467,94.667572 119.811157,95.110954 
	C119.374901,94.999001 118.938644,94.887047 117.868896,94.531647 
	C117.394630,93.690392 117.553856,93.092583 117.909653,92.245667 
z"/>
<path fill="#FAE5E9" opacity="1.000000" stroke="none" 
	d="
M104.646164,161.031433 
	C105.615410,160.961731 106.402702,160.999969 107.774323,161.103668 
	C107.019478,161.714752 105.680313,162.260376 104.415207,162.372406 
	C104.266655,161.678589 104.258308,161.412109 104.646164,161.031433 
z"/>
<path fill="#F7D8E0" opacity="1.000000" stroke="none" 
	d="
M101.203331,77.379364 
	C101.644524,76.934158 102.366386,76.611534 103.385872,76.461029 
	C102.950325,76.922737 102.217171,77.212349 101.203331,77.379364 
z"/>
<path fill="#FAE5E9" opacity="1.000000" stroke="none" 
	d="
M128.934525,71.987053 
	C128.332458,72.052612 127.901749,71.961456 126.836807,71.680099 
	C126.375702,70.992798 126.548813,70.495697 127.533890,69.973938 
	C128.743851,69.999786 129.141815,70.050308 129.539795,70.100822 
	C129.539795,70.100822 129.651093,70.552467 129.586151,70.775711 
	C129.403702,71.286522 129.265244,71.563652 128.934525,71.987053 
z"/>
<path fill="#F7D4DD" opacity="1.000000" stroke="none" 
	d="
M128.539429,65.511368 
	C129.407623,65.247864 130.055695,65.422928 130.883194,65.889221 
	C130.924774,66.596901 130.786926,67.013344 130.311890,67.465096 
	C129.422882,66.983589 128.871094,66.466766 128.539429,65.511368 
z"/>
<path fill="#FEF9F9" opacity="1.000000" stroke="none" 
	d="
M131.715652,57.707512 
	C135.591721,58.060154 133.090714,60.142822 132.734940,62.021332 
	C132.480164,62.401875 132.232864,62.203102 132.082672,61.636040 
	C131.744598,60.482422 131.556686,59.895874 131.368790,59.309322 
	C131.398560,58.855106 131.428329,58.400890 131.715652,57.707512 
z"/>
<path fill="#FAE5E9" opacity="1.000000" stroke="none" 
	d="
M115.722923,98.161995 
	C116.224960,98.610825 116.533401,99.248978 116.765427,100.262192 
	C116.302452,99.875267 115.915894,99.113289 115.722923,98.161995 
z"/>
<path fill="#FEF9F9" opacity="1.000000" stroke="none" 
	d="
M129.688232,69.612518 
	C129.141815,70.050308 128.743851,69.999786 127.754417,69.818390 
	C127.644096,69.000473 128.125229,68.313438 128.606369,67.626404 
	C129.016464,68.125679 129.426559,68.624954 129.688232,69.612518 
z"/>
<path fill="#FAE5E9" opacity="1.000000" stroke="none" 
	d="
M131.329926,59.353374 
	C131.556686,59.895874 131.744598,60.482422 131.963928,61.530846 
	C131.677872,61.384792 131.360367,60.776867 131.109207,59.793953 
	C131.175537,59.418968 131.291046,59.397427 131.329926,59.353374 
z"/>
<path fill="#D92152" opacity="1.000000" stroke="none" 
	d="
M92.475441,98.960464 
	C92.450371,98.974419 92.472198,98.904083 92.492523,98.939949 
	C92.512840,98.975815 92.519234,98.998573 92.532990,98.989624 
	C92.546753,98.980667 92.500511,98.946503 92.475441,98.960464 
z"/>
<path fill="#DA2B59" opacity="1.000000" stroke="none" 
	d="
M60.116924,137.771637 
	C61.735798,135.862808 63.231876,134.234787 64.842987,132.296997 
	C70.348404,126.513435 72.569397,126.262756 76.608444,130.923523 
	C83.867744,133.239319 89.719254,139.311646 98.279228,135.970932 
	C95.736526,143.139450 84.314568,148.999451 75.163177,148.540466 
	C76.340843,145.460938 77.494736,142.443573 78.724579,139.227600 
	C73.219368,139.557724 68.236290,139.988342 63.248569,140.051239 
	C62.172333,140.064819 61.079384,138.753479 60.116924,137.771637 
z"/>
<path fill="#DB3661" opacity="1.000000" stroke="none" 
	d="
M106.641861,72.924576 
	C105.746025,73.296036 105.140625,73.467278 104.269470,73.811127 
	C102.353760,73.283615 98.926636,76.918739 99.072327,71.645523 
	C101.516586,63.269989 105.993172,56.786686 113.721581,52.402374 
	C115.664330,51.690636 117.375000,51.197895 119.783669,50.504101 
	C119.494698,53.333336 119.269989,55.533386 119.045280,57.733437 
	C118.631157,57.306942 118.217026,56.880444 117.802902,56.453945 
	C114.501633,58.433834 110.812645,60.002136 108.075340,62.580704 
	C106.849030,63.735889 107.543251,66.916855 107.339828,69.176178 
	C107.233093,70.361526 107.069954,71.541786 106.641861,72.924576 
z"/>
<path fill="#D92655" opacity="1.000000" stroke="none" 
	d="
M123.126343,140.303192 
	C123.413109,139.377823 123.669868,138.779572 123.940826,137.851837 
	C127.250526,127.840187 126.578583,118.232521 123.215721,108.334518 
	C122.835770,107.305275 122.653534,106.613182 122.266479,105.739044 
	C121.735428,104.555763 121.409187,103.554527 121.003067,102.163361 
	C124.700874,101.487137 128.704468,101.887077 132.197876,100.737160 
	C136.366608,99.364952 138.184402,100.924156 140.141647,104.097275 
	C147.327423,115.747002 146.620041,129.344589 137.853821,141.606308 
	C136.257431,143.302261 134.808762,144.680756 133.198746,146.296753 
	C128.904556,148.593613 124.771683,150.652939 120.314697,152.899628 
	C119.123116,152.666489 118.255630,152.245987 117.471725,151.485260 
	C119.035599,148.662827 120.515884,146.180634 122.002945,143.349915 
	C122.371933,142.211044 122.734131,141.420685 123.126343,140.303192 
z"/>
<path fill="#DA2A58" opacity="1.000000" stroke="none" 
	d="
M119.751633,95.417603 
	C120.053467,94.667572 120.295769,94.224190 120.558929,93.526192 
	C120.920593,92.457260 121.261406,91.642952 121.659271,90.501648 
	C123.307693,86.503662 124.899055,82.832680 126.750420,78.910179 
	C127.010422,78.658653 127.196838,78.581718 127.517319,78.826973 
	C130.509232,80.267426 133.180649,81.462624 136.036926,82.854706 
	C136.724258,83.215637 137.226730,83.379707 137.729187,83.543777 
	C139.904099,85.108681 142.078995,86.673576 144.248932,88.614685 
	C142.492020,90.732674 140.740097,92.474457 138.793243,94.490631 
	C133.061356,95.992416 127.524399,97.219818 121.554657,98.451256 
	C120.645294,97.544952 120.168701,96.634605 119.751633,95.417603 
z"/>
<path fill="#F7D4DD" opacity="1.000000" stroke="none" 
	d="
M137.887756,82.889999 
	C137.226730,83.379707 136.724258,83.215637 136.087036,82.384094 
	C135.987686,81.089836 136.023117,80.463066 136.058548,79.836288 
	C136.714935,80.057373 137.371338,80.278458 138.176697,80.709824 
	C138.232559,81.358803 138.139435,81.797516 137.887756,82.889999 
z"/>
<path fill="#FAE5E9" opacity="1.000000" stroke="none" 
	d="
M135.806427,79.605026 
	C136.023117,80.463066 135.987686,81.089836 135.902161,82.187225 
	C133.180649,81.462624 130.509232,80.267426 127.591591,78.824524 
	C127.779556,78.219475 128.213745,77.862129 128.874268,77.152267 
	C131.251846,77.657761 133.403091,78.515762 135.806427,79.605026 
z"/>
</svg>