<svg version="1.1" id="Layer_1" xmlns="http://www.w3.org/2000/svg" xmlns:xlink="http://www.w3.org/1999/xlink" x="0px" y="0px"
	 width="100%" viewBox="1 1 945 311" enable-background="new 0 0 945 311" xml:space="preserve">
<path fill="#FEFEFE" opacity="1.000000" stroke="none" 
	d="
M611.000000,312.000000 
	C407.333344,312.000000 204.166672,312.000000 1.000000,312.000000 
	C1.000000,208.333328 1.000000,104.666664 1.000000,1.000000 
	C316.000000,1.000000 631.000000,1.000000 946.000000,1.000000 
	C946.000000,104.666664 946.000000,208.333328 946.000000,312.000000 
	C834.500000,312.000000 723.000000,312.000000 611.000000,312.000000 
M141.229477,198.741806 
	C168.088455,144.957199 194.957001,91.177345 221.764755,37.367214 
	C222.658051,35.574150 222.935928,33.474503 223.647049,31.010597 
	C153.544052,31.010597 84.336739,31.010597 14.123322,31.010597 
	C14.941020,33.683247 15.318335,35.913620 16.270565,37.863182 
	C21.511953,48.594234 26.896717,59.255230 32.227100,69.942848 
	C58.203136,122.025749 84.167503,174.114487 110.174683,226.181824 
	C111.932503,229.701019 113.439384,233.233200 118.659958,233.318649 
	C124.090919,233.407532 125.773872,229.812820 127.646355,226.122208 
	C132.143539,217.258392 136.528625,208.337708 141.229477,198.741806 
M469.869476,235.557297 
	C466.211273,245.935684 468.530762,255.172073 475.511200,263.631683 
	C473.313171,264.511658 471.293671,265.201080 469.376404,266.106873 
	C455.939880,272.454742 454.305359,286.136841 466.242035,295.019806 
	C470.285278,298.028717 475.122101,300.284454 479.927307,301.899567 
	C496.695068,307.535553 514.071960,306.454834 531.326782,305.461670 
	C540.969910,304.906647 550.371277,302.665802 558.908875,297.826569 
	C569.644348,291.741547 573.020569,282.460052 569.085083,270.789581 
	C564.976501,258.605743 555.426147,252.568756 543.772461,251.139877 
	C529.130127,249.344559 514.249451,249.502838 499.473297,248.783081 
	C495.988770,248.613342 492.433838,248.678452 489.046356,247.980240 
	C482.007538,246.529404 478.507599,238.479019 481.894623,232.254395 
	C498.068390,238.366577 514.411072,238.675522 530.652649,232.974304 
	C545.867859,227.633362 553.641235,214.397888 549.893738,200.451859 
	C548.777832,196.299240 546.182983,192.544037 544.187683,188.446320 
	C545.787476,187.978607 547.354126,187.476715 548.944763,187.068115 
	C550.479065,186.673996 552.038025,186.376205 553.935059,185.959457 
	C553.935059,187.508499 553.889526,188.655975 553.942749,189.798859 
	C554.211853,195.580826 558.614563,199.885284 564.173950,199.831100 
	C569.745361,199.776794 574.048767,195.262817 574.041565,189.480682 
	C574.032288,182.078934 568.161316,176.352463 560.174438,176.068451 
	C552.478271,175.794785 545.539001,178.319153 538.777100,181.745285 
	C537.295959,182.495728 534.951050,182.651398 533.426758,182.035202 
	C517.973450,175.788101 502.131317,175.297974 486.535614,180.292160 
	C460.066315,188.768402 458.318512,214.367310 473.669403,227.008209 
	C473.871857,227.174911 473.879578,227.578079 473.930267,227.728607 
	C472.612305,230.155319 471.349152,232.481064 469.869476,235.557297 
M332.685364,234.499634 
	C332.685364,241.283356 332.685364,248.067062 332.685364,255.357391 
	C327.867554,255.357391 323.618408,255.357391 319.429016,255.357391 
	C319.429016,259.462982 319.429016,263.042542 319.429016,266.342285 
	C336.697845,266.342285 353.632446,266.342285 370.812592,266.342285 
	C370.812592,262.820038 370.812592,259.127502 370.812592,255.026947 
	C366.398499,255.026947 362.314789,255.026947 357.966064,255.026947 
	C357.966064,252.980103 357.967285,251.341537 357.965851,249.702988 
	C357.952667,234.539078 358.109528,219.372543 357.875977,204.212021 
	C357.656647,189.972565 350.609436,180.790619 336.846893,178.688934 
	C328.632843,177.434555 319.942291,177.823715 311.654358,178.910782 
	C301.688019,180.217987 293.914124,186.312729 286.783569,194.800827 
	C286.783569,172.242981 286.783569,150.853607 286.783569,128.933334 
	C274.017517,129.490662 261.696228,130.028564 249.437698,130.563721 
	C249.437698,134.747711 249.437698,138.193558 249.437698,141.846603 
	C250.958801,141.914673 252.260132,141.995804 253.562637,142.027435 
	C261.565674,142.221848 262.310150,142.961441 262.498260,150.975952 
	C262.517792,151.808716 262.505432,152.642258 262.505463,153.475449 
	C262.505768,185.636490 262.505829,217.797531 262.505890,249.958572 
	C262.505890,251.563858 262.505890,253.169144 262.505890,255.216797 
	C257.916473,255.216797 253.818649,255.216797 249.473297,255.216797 
	C249.473297,259.233826 249.473297,262.800720 249.473297,266.332794 
	C266.740936,266.332794 283.776642,266.332794 300.879944,266.332794 
	C300.879944,262.686523 300.879944,259.108398 300.879944,255.109131 
	C296.534302,255.109131 292.448242,255.109131 288.020111,255.109131 
	C288.020111,242.721649 288.004272,230.759552 288.023895,218.797501 
	C288.051453,201.986893 297.639008,190.389282 314.050415,187.272720 
	C326.082428,184.987808 331.255341,188.371140 332.142792,200.536728 
	C332.940979,211.479355 332.551178,222.508636 332.685364,234.499634 
M604.910339,247.434204 
	C604.910339,249.884064 604.910339,252.333908 604.910339,255.229156 
	C600.339172,255.229156 596.251709,255.229156 592.163330,255.229156 
	C592.163330,259.380951 592.163330,263.061768 592.163330,266.330627 
	C609.416382,266.330627 626.214783,266.330627 643.242065,266.330627 
	C643.242065,262.818268 643.242065,259.101105 643.242065,254.964493 
	C638.783936,254.964493 634.691101,254.964493 630.460083,254.964493 
	C630.460083,241.582062 629.824585,228.581512 630.623962,215.669785 
	C631.583984,200.163620 640.793091,190.597672 656.053223,187.357620 
	C668.893494,184.631363 674.592834,189.167572 674.854431,203.077744 
	C675.151978,218.900406 674.951660,234.732544 674.948853,250.560562 
	C674.948608,252.007355 674.812378,253.454102 674.718201,255.317688 
	C670.323975,255.317688 666.235107,255.317688 662.154480,255.317688 
	C662.154480,259.346741 662.154480,262.935364 662.154480,266.323669 
	C679.362915,266.323669 696.274353,266.323669 713.393372,266.323669 
	C713.393372,262.686737 713.393372,259.010529 713.393372,254.966431 
	C708.875549,254.966431 704.767944,254.966431 700.282471,254.966431 
	C700.282471,252.808243 700.286865,251.005096 700.281860,249.201981 
	C700.238770,233.707825 700.416626,218.208786 700.077209,202.721100 
	C699.818604,190.917496 693.502930,182.081635 682.640869,179.472397 
	C675.646484,177.792267 668.139099,177.295425 660.932434,177.661530 
	C648.158264,178.310455 637.639343,184.253616 628.872437,195.223923 
	C628.872437,172.382050 628.872437,150.817123 628.872437,128.944946 
	C616.377991,129.479462 604.301270,129.996109 591.974854,130.523438 
	C591.974854,134.443695 591.974854,138.015182 591.974854,141.886185 
	C592.865662,141.933670 593.659912,141.994797 594.455139,142.015579 
	C604.515137,142.278625 604.908081,142.664749 604.909058,152.482712 
	C604.911987,183.805771 604.910278,215.128815 604.910339,247.434204 
M777.758240,256.009155 
	C763.519958,252.208786 755.193604,239.949173 757.365662,225.606827 
	C777.937073,225.606827 798.556519,225.613647 819.175903,225.596680 
	C821.337036,225.594894 823.733521,226.005829 825.591125,225.215469 
	C827.350952,224.466705 829.720642,222.453888 829.805908,220.887268 
	C830.588745,206.499756 825.403931,186.338058 803.792847,179.716629 
	C789.721863,175.405396 775.574280,175.668152 761.540039,179.740829 
	C742.878052,185.156464 730.006165,200.442963 728.906311,216.997009 
	C727.185852,242.892563 742.195618,256.956726 758.036865,263.007965 
	C771.847717,268.283600 786.197327,269.407593 800.671875,266.597931 
	C812.071045,264.385254 822.171936,259.604248 828.270752,248.952164 
	C829.899109,246.107986 831.887817,242.777252 827.949646,240.194214 
	C824.459229,237.904816 819.194153,239.312927 817.199524,243.041504 
	C813.777283,249.438812 808.565613,254.172028 801.702515,255.333115 
	C794.161560,256.608887 786.301819,256.000336 777.758240,256.009155 
M886.491821,231.501129 
	C886.492249,229.835495 886.468567,228.169434 886.496948,226.504272 
	C886.686768,215.363052 888.415771,204.637283 895.600586,195.594284 
	C899.498352,190.688354 904.436829,187.491058 911.189575,187.072968 
	C910.647888,188.718735 910.299255,189.824112 909.921082,190.919250 
	C907.952332,196.619812 909.482422,201.535156 913.840027,205.346512 
	C918.411743,209.345230 923.834412,209.668396 929.242188,207.173828 
	C934.534668,204.732483 936.455566,200.166077 936.386719,194.536270 
	C936.311523,188.389603 933.003784,184.229324 928.090576,181.202011 
	C917.561523,174.714508 902.867432,176.088654 893.857727,184.717163 
	C890.253601,188.168747 887.433533,192.438995 883.890869,196.785385 
	C883.890869,190.110977 883.890869,183.753052 883.890869,177.169739 
	C872.009216,177.774963 860.648010,178.353668 849.367310,178.928284 
	C849.367310,182.992294 849.367310,186.424683 849.367310,189.947891 
	C851.612732,190.068192 853.597595,190.175232 855.582642,190.280701 
	C860.121033,190.521851 862.490234,192.458954 862.226318,197.458801 
	C861.910706,203.438095 862.178162,209.447769 862.180359,215.444290 
	C862.185120,228.552872 862.181885,241.661453 862.181885,255.227325 
	C857.662231,255.227325 853.577942,255.227325 849.375366,255.227325 
	C849.375366,259.263702 849.375366,262.834320 849.375366,266.347961 
	C867.345703,266.347961 885.039551,266.347961 902.669922,266.347961 
	C902.669922,262.593018 902.669922,259.016785 902.669922,254.967804 
	C897.115051,254.967804 891.868469,254.967804 886.491760,254.967804 
	C886.491760,247.152710 886.491760,239.826706 886.491821,231.501129 
M409.467560,178.077606 
	C404.033417,178.370255 398.599243,178.662918 393.209778,178.953156 
	C393.209778,182.905289 393.209778,186.462494 393.209778,189.999039 
	C405.502289,190.472595 405.503632,190.472595 405.504639,202.700943 
	C405.505981,218.529205 405.512207,234.357498 405.493683,250.185730 
	C405.491852,251.765564 405.333252,253.345215 405.226105,255.316711 
	C400.721252,255.316711 396.624237,255.316711 392.464905,255.316711 
	C392.464905,259.314545 392.464905,262.882568 392.464905,266.336365 
	C408.987976,266.336365 425.199188,266.336365 441.503265,266.336365 
	C441.503265,262.597290 441.503265,259.039917 441.503265,255.025406 
	C437.430328,255.025406 433.677704,255.025406 429.418304,255.025406 
	C429.418304,228.845673 429.418304,203.126846 429.418304,177.216797 
	C422.735229,177.510315 416.588501,177.780289 409.467560,178.077606 
M400.030853,152.012909 
	C400.851318,153.256607 401.555328,154.598969 402.511627,155.727600 
	C407.713196,161.866531 417.516083,163.085312 424.165436,158.484680 
	C430.881897,153.837616 433.114929,144.262604 429.125671,137.215851 
	C424.911224,129.771347 415.861725,126.760674 408.066772,130.209839 
	C400.325806,133.635117 396.955078,142.233215 400.030853,152.012909 
z"/>
<path fill="#020202" opacity="1.000000" stroke="none" 
	d="
M141.094208,199.090881 
	C136.528625,208.337708 132.143539,217.258392 127.646355,226.122208 
	C125.773872,229.812820 124.090919,233.407532 118.659958,233.318649 
	C113.439384,233.233200 111.932503,229.701019 110.174683,226.181824 
	C84.167503,174.114487 58.203136,122.025749 32.227100,69.942848 
	C26.896717,59.255230 21.511953,48.594234 16.270565,37.863182 
	C15.318335,35.913620 14.941020,33.683247 14.123322,31.010597 
	C84.336739,31.010597 153.544052,31.010597 223.647049,31.010597 
	C222.935928,33.474503 222.658051,35.574150 221.764755,37.367214 
	C194.957001,91.177345 168.088455,144.957199 141.094208,199.090881 
M114.737457,180.714462 
	C118.874260,189.007690 123.011063,197.300903 127.378983,206.057480 
	C153.161285,154.253113 178.693558,102.951157 204.373734,51.351986 
	C152.554565,51.351986 101.664124,51.351986 50.083443,51.351986 
	C71.640762,94.548912 92.984451,137.317764 114.737457,180.714462 
z"/>
<path fill="#040404" opacity="1.000000" stroke="none" 
	d="
M469.977722,235.182068 
	C471.349152,232.481064 472.612305,230.155319 473.930267,227.728607 
	C473.879578,227.578079 473.871857,227.174911 473.669403,227.008209 
	C458.318512,214.367310 460.066315,188.768402 486.535614,180.292160 
	C502.131317,175.297974 517.973450,175.788101 533.426758,182.035202 
	C534.951050,182.651398 537.295959,182.495728 538.777100,181.745285 
	C545.539001,178.319153 552.478271,175.794785 560.174438,176.068451 
	C568.161316,176.352463 574.032288,182.078934 574.041565,189.480682 
	C574.048767,195.262817 569.745361,199.776794 564.173950,199.831100 
	C558.614563,199.885284 554.211853,195.580826 553.942749,189.798859 
	C553.889526,188.655975 553.935059,187.508499 553.935059,185.959457 
	C552.038025,186.376205 550.479065,186.673996 548.944763,187.068115 
	C547.354126,187.476715 545.787476,187.978607 544.187683,188.446320 
	C546.182983,192.544037 548.777832,196.299240 549.893738,200.451859 
	C553.641235,214.397888 545.867859,227.633362 530.652649,232.974304 
	C514.411072,238.675522 498.068390,238.366577 481.894623,232.254395 
	C478.507599,238.479019 482.007538,246.529404 489.046356,247.980240 
	C492.433838,248.678452 495.988770,248.613342 499.473297,248.783081 
	C514.249451,249.502838 529.130127,249.344559 543.772461,251.139877 
	C555.426147,252.568756 564.976501,258.605743 569.085083,270.789581 
	C573.020569,282.460052 569.644348,291.741547 558.908875,297.826569 
	C550.371277,302.665802 540.969910,304.906647 531.326782,305.461670 
	C514.071960,306.454834 496.695068,307.535553 479.927307,301.899567 
	C475.122101,300.284454 470.285278,298.028717 466.242035,295.019806 
	C454.305359,286.136841 455.939880,272.454742 469.376404,266.106873 
	C471.293671,265.201080 473.313171,264.511658 475.511200,263.631683 
	C468.530762,255.172073 466.211273,245.935684 469.977722,235.182068 
M550.969299,281.383820 
	C549.999390,273.750763 543.578552,272.463593 538.131409,272.130615 
	C522.068909,271.148651 505.947357,271.069733 489.846008,270.855377 
	C487.643066,270.826050 485.257538,271.709595 483.243835,272.734772 
	C477.796326,275.508026 476.161621,280.810455 479.943512,285.535461 
	C482.409637,288.616608 485.969360,291.508820 489.635437,292.825104 
	C506.103851,298.737976 522.815674,298.629303 539.387634,292.982971 
	C544.747375,291.156799 549.075378,287.915222 550.969299,281.383820 
M502.067932,187.102966 
	C496.324432,188.038712 490.857697,190.362289 489.575745,196.256927 
	C488.272278,202.250610 488.349640,208.694504 488.778534,214.874893 
	C489.254578,221.734589 494.215485,225.494019 500.520325,226.595108 
	C505.021362,227.381195 509.859039,227.298599 514.388489,226.591400 
	C519.868469,225.735779 524.729919,222.734955 525.829590,216.894150 
	C529.536316,197.206177 525.891846,185.078369 503.453674,187.034134 
	C503.288147,187.048569 503.121338,187.048386 502.067932,187.102966 
z"/>
<path fill="#030303" opacity="1.000000" stroke="none" 
	d="
M332.685364,233.999664 
	C332.551178,222.508636 332.940979,211.479355 332.142792,200.536728 
	C331.255341,188.371140 326.082428,184.987808 314.050415,187.272720 
	C297.639008,190.389282 288.051453,201.986893 288.023895,218.797501 
	C288.004272,230.759552 288.020111,242.721649 288.020111,255.109131 
	C292.448242,255.109131 296.534302,255.109131 300.879944,255.109131 
	C300.879944,259.108398 300.879944,262.686523 300.879944,266.332794 
	C283.776642,266.332794 266.740936,266.332794 249.473297,266.332794 
	C249.473297,262.800720 249.473297,259.233826 249.473297,255.216797 
	C253.818649,255.216797 257.916473,255.216797 262.505890,255.216797 
	C262.505890,253.169144 262.505890,251.563858 262.505890,249.958572 
	C262.505829,217.797531 262.505768,185.636490 262.505463,153.475449 
	C262.505432,152.642258 262.517792,151.808716 262.498260,150.975952 
	C262.310150,142.961441 261.565674,142.221848 253.562637,142.027435 
	C252.260132,141.995804 250.958801,141.914673 249.437698,141.846603 
	C249.437698,138.193558 249.437698,134.747711 249.437698,130.563721 
	C261.696228,130.028564 274.017517,129.490662 286.783569,128.933334 
	C286.783569,150.853607 286.783569,172.242981 286.783569,194.800827 
	C293.914124,186.312729 301.688019,180.217987 311.654358,178.910782 
	C319.942291,177.823715 328.632843,177.434555 336.846893,178.688934 
	C350.609436,180.790619 357.656647,189.972565 357.875977,204.212021 
	C358.109528,219.372543 357.952667,234.539078 357.965851,249.702988 
	C357.967285,251.341537 357.966064,252.980103 357.966064,255.026947 
	C362.314789,255.026947 366.398499,255.026947 370.812592,255.026947 
	C370.812592,259.127502 370.812592,262.820038 370.812592,266.342285 
	C353.632446,266.342285 336.697845,266.342285 319.429016,266.342285 
	C319.429016,263.042542 319.429016,259.462982 319.429016,255.357391 
	C323.618408,255.357391 327.867554,255.357391 332.685364,255.357391 
	C332.685364,248.067062 332.685364,241.283356 332.685364,233.999664 
z"/>
<path fill="#020202" opacity="1.000000" stroke="none" 
	d="
M604.910339,246.943039 
	C604.910278,215.128815 604.911987,183.805771 604.909058,152.482712 
	C604.908081,142.664749 604.515137,142.278625 594.455139,142.015579 
	C593.659912,141.994797 592.865662,141.933670 591.974854,141.886185 
	C591.974854,138.015182 591.974854,134.443695 591.974854,130.523438 
	C604.301270,129.996109 616.377991,129.479462 628.872437,128.944946 
	C628.872437,150.817123 628.872437,172.382050 628.872437,195.223923 
	C637.639343,184.253616 648.158264,178.310455 660.932434,177.661530 
	C668.139099,177.295425 675.646484,177.792267 682.640869,179.472397 
	C693.502930,182.081635 699.818604,190.917496 700.077209,202.721100 
	C700.416626,218.208786 700.238770,233.707825 700.281860,249.201981 
	C700.286865,251.005096 700.282471,252.808243 700.282471,254.966431 
	C704.767944,254.966431 708.875549,254.966431 713.393372,254.966431 
	C713.393372,259.010529 713.393372,262.686737 713.393372,266.323669 
	C696.274353,266.323669 679.362915,266.323669 662.154480,266.323669 
	C662.154480,262.935364 662.154480,259.346741 662.154480,255.317688 
	C666.235107,255.317688 670.323975,255.317688 674.718201,255.317688 
	C674.812378,253.454102 674.948608,252.007355 674.948853,250.560562 
	C674.951660,234.732544 675.151978,218.900406 674.854431,203.077744 
	C674.592834,189.167572 668.893494,184.631363 656.053223,187.357620 
	C640.793091,190.597672 631.583984,200.163620 630.623962,215.669785 
	C629.824585,228.581512 630.460083,241.582062 630.460083,254.964493 
	C634.691101,254.964493 638.783936,254.964493 643.242065,254.964493 
	C643.242065,259.101105 643.242065,262.818268 643.242065,266.330627 
	C626.214783,266.330627 609.416382,266.330627 592.163330,266.330627 
	C592.163330,263.061768 592.163330,259.380951 592.163330,255.229156 
	C596.251709,255.229156 600.339172,255.229156 604.910339,255.229156 
	C604.910339,252.333908 604.910339,249.884064 604.910339,246.943039 
z"/>
<path fill="#050505" opacity="1.000000" stroke="none" 
	d="
M778.169556,256.110962 
	C786.301819,256.000336 794.161560,256.608887 801.702515,255.333115 
	C808.565613,254.172028 813.777283,249.438812 817.199524,243.041504 
	C819.194153,239.312927 824.459229,237.904816 827.949646,240.194214 
	C831.887817,242.777252 829.899109,246.107986 828.270752,248.952164 
	C822.171936,259.604248 812.071045,264.385254 800.671875,266.597931 
	C786.197327,269.407593 771.847717,268.283600 758.036865,263.007965 
	C742.195618,256.956726 727.185852,242.892563 728.906311,216.997009 
	C730.006165,200.442963 742.878052,185.156464 761.540039,179.740829 
	C775.574280,175.668152 789.721863,175.405396 803.792847,179.716629 
	C825.403931,186.338058 830.588745,206.499756 829.805908,220.887268 
	C829.720642,222.453888 827.350952,224.466705 825.591125,225.215469 
	C823.733521,226.005829 821.337036,225.594894 819.175903,225.596680 
	C798.556519,225.613647 777.937073,225.606827 757.365662,225.606827 
	C755.193604,239.949173 763.519958,252.208786 778.169556,256.110962 
M780.795166,186.070175 
	C763.962769,188.838425 756.025574,199.028625 756.982239,216.805817 
	C774.536438,216.805817 792.098633,216.805817 809.645386,216.805817 
	C811.096497,197.985092 800.190613,186.079834 780.795166,186.070175 
z"/>
<path fill="#050505" opacity="1.000000" stroke="none" 
	d="
M886.491821,232.000916 
	C886.491760,239.826706 886.491760,247.152710 886.491760,254.967804 
	C891.868469,254.967804 897.115051,254.967804 902.669922,254.967804 
	C902.669922,259.016785 902.669922,262.593018 902.669922,266.347961 
	C885.039551,266.347961 867.345703,266.347961 849.375366,266.347961 
	C849.375366,262.834320 849.375366,259.263702 849.375366,255.227325 
	C853.577942,255.227325 857.662231,255.227325 862.181885,255.227325 
	C862.181885,241.661453 862.185120,228.552872 862.180359,215.444290 
	C862.178162,209.447769 861.910706,203.438095 862.226318,197.458801 
	C862.490234,192.458954 860.121033,190.521851 855.582642,190.280701 
	C853.597595,190.175232 851.612732,190.068192 849.367310,189.947891 
	C849.367310,186.424683 849.367310,182.992294 849.367310,178.928284 
	C860.648010,178.353668 872.009216,177.774963 883.890869,177.169739 
	C883.890869,183.753052 883.890869,190.110977 883.890869,196.785385 
	C887.433533,192.438995 890.253601,188.168747 893.857727,184.717163 
	C902.867432,176.088654 917.561523,174.714508 928.090576,181.202011 
	C933.003784,184.229324 936.311523,188.389603 936.386719,194.536270 
	C936.455566,200.166077 934.534668,204.732483 929.242188,207.173828 
	C923.834412,209.668396 918.411743,209.345230 913.840027,205.346512 
	C909.482422,201.535156 907.952332,196.619812 909.921082,190.919250 
	C910.299255,189.824112 910.647888,188.718735 911.189575,187.072968 
	C904.436829,187.491058 899.498352,190.688354 895.600586,195.594284 
	C888.415771,204.637283 886.686768,215.363052 886.496948,226.504272 
	C886.468567,228.169434 886.492249,229.835495 886.491821,232.000916 
z"/>
<path fill="#050505" opacity="1.000000" stroke="none" 
	d="
M409.954651,178.063934 
	C416.588501,177.780289 422.735229,177.510315 429.418304,177.216797 
	C429.418304,203.126846 429.418304,228.845673 429.418304,255.025406 
	C433.677704,255.025406 437.430328,255.025406 441.503265,255.025406 
	C441.503265,259.039917 441.503265,262.597290 441.503265,266.336365 
	C425.199188,266.336365 408.987976,266.336365 392.464905,266.336365 
	C392.464905,262.882568 392.464905,259.314545 392.464905,255.316711 
	C396.624237,255.316711 400.721252,255.316711 405.226105,255.316711 
	C405.333252,253.345215 405.491852,251.765564 405.493683,250.185730 
	C405.512207,234.357498 405.505981,218.529205 405.504639,202.700943 
	C405.503632,190.472595 405.502289,190.472595 393.209778,189.999039 
	C393.209778,186.462494 393.209778,182.905289 393.209778,178.953156 
	C398.599243,178.662918 404.033417,178.370255 409.954651,178.063934 
z"/>
<path fill="#030303" opacity="1.000000" stroke="none" 
	d="
M399.927429,151.624298 
	C396.955078,142.233215 400.325806,133.635117 408.066772,130.209839 
	C415.861725,126.760674 424.911224,129.771347 429.125671,137.215851 
	C433.114929,144.262604 430.881897,153.837616 424.165436,158.484680 
	C417.516083,163.085312 407.713196,161.866531 402.511627,155.727600 
	C401.555328,154.598969 400.851318,153.256607 399.927429,151.624298 
z"/>
<path fill="#FEFEFE" opacity="1.000000" stroke="none" 
	d="
M114.532791,180.400543 
	C92.984451,137.317764 71.640762,94.548912 50.083443,51.351986 
	C101.664124,51.351986 152.554565,51.351986 204.373734,51.351986 
	C178.693558,102.951157 153.161285,154.253113 127.378983,206.057480 
	C123.011063,197.300903 118.874260,189.007690 114.532791,180.400543 
z"/>
<path fill="#FAFAFA" opacity="1.000000" stroke="none" 
	d="
M550.909424,281.761780 
	C549.075378,287.915222 544.747375,291.156799 539.387634,292.982971 
	C522.815674,298.629303 506.103851,298.737976 489.635437,292.825104 
	C485.969360,291.508820 482.409637,288.616608 479.943512,285.535461 
	C476.161621,280.810455 477.796326,275.508026 483.243835,272.734772 
	C485.257538,271.709595 487.643066,270.826050 489.846008,270.855377 
	C505.947357,271.069733 522.068909,271.148651 538.131409,272.130615 
	C543.578552,272.463593 549.999390,273.750763 550.909424,281.761780 
z"/>
<path fill="#FCFCFC" opacity="1.000000" stroke="none" 
	d="
M502.511536,187.079010 
	C503.121338,187.048386 503.288147,187.048569 503.453674,187.034134 
	C525.891846,185.078369 529.536316,197.206177 525.829590,216.894150 
	C524.729919,222.734955 519.868469,225.735779 514.388489,226.591400 
	C509.859039,227.298599 505.021362,227.381195 500.520325,226.595108 
	C494.215485,225.494019 489.254578,221.734589 488.778534,214.874893 
	C488.349640,208.694504 488.272278,202.250610 489.575745,196.256927 
	C490.857697,190.362289 496.324432,188.038712 502.511536,187.079010 
z"/>
<path fill="#FDFDFD" opacity="1.000000" stroke="none" 
	d="
M781.237305,186.067444 
	C800.190613,186.079834 811.096497,197.985092 809.645386,216.805817 
	C792.098633,216.805817 774.536438,216.805817 756.982239,216.805817 
	C756.025574,199.028625 763.962769,188.838425 781.237305,186.067444 
z"/>
</svg>