<svg version="1.1" id="Layer_1" xmlns="http://www.w3.org/2000/svg" xmlns:xlink="http://www.w3.org/1999/xlink" x="0px" y="0px"
	 width="100%" viewBox="1 1 1000 210" enable-background="new 0 0 1000 210" xml:space="preserve">
<path fill="#FFFFFF" opacity="1.000000" stroke="none" 
	d="
M1001.000000,153.000000 
	C1001.000000,172.324478 1001.000000,191.648956 1001.000000,211.000000 
	C708.975952,211.000000 416.951843,211.000000 124.468552,210.756165 
	C124.009338,210.512314 124.117317,210.036652 124.520775,210.020264 
	C126.652695,209.684906 128.381165,209.365906 130.526611,209.027008 
	C138.308243,206.711426 145.672867,204.415756 153.405762,202.062317 
	C170.526077,194.688950 184.951660,184.114609 195.777878,169.428009 
	C202.036423,160.937775 206.677795,151.255402 212.382843,141.932831 
	C212.881989,140.957062 212.920273,140.106216 213.226868,139.366592 
	C221.262390,119.981659 223.666260,99.995628 220.032394,79.262474 
	C215.617935,54.075417 202.884384,34.174862 182.012146,19.615284 
	C169.672455,11.007634 156.071014,5.095816 140.826935,2.601223 
	C138.751633,1.845752 136.875824,1.422876 135.000000,1.000000 
	C423.666656,1.000000 712.333313,1.000000 1001.000000,1.000000 
	C1001.000000,28.096592 1001.000000,55.084415 1000.688538,82.350784 
	C999.350220,80.034370 998.673645,77.225128 997.238892,74.879669 
	C988.875977,61.208714 974.696228,59.484325 960.471985,61.553989 
	C955.219482,62.318233 949.826599,65.128815 945.460266,68.322159 
	C937.328979,74.269142 935.323486,83.656136 935.119324,93.024780 
	C934.716614,111.500885 934.992859,129.991959 935.015869,148.476807 
	C935.017639,149.900650 935.235413,151.324234 935.344604,152.648148 
	C941.425842,152.648148 947.004700,152.648148 953.069702,152.648148 
	C953.069702,143.387711 953.069702,134.472733 953.069702,125.391357 
	C963.596985,125.391357 973.622925,125.391357 984.141235,125.391357 
	C984.141235,134.689926 984.141235,143.606155 984.141235,153.000000 
	C990.087280,153.000000 995.543640,153.000000 1001.000000,153.000000 
M849.245667,120.101807 
	C846.787720,115.608543 844.306091,111.128014 841.876160,106.619652 
	C834.344727,92.646492 826.864380,78.645561 819.254761,64.715187 
	C818.637878,63.585968 817.224609,62.203487 816.119263,62.146641 
	C810.873413,61.876839 805.605957,62.026058 800.302002,62.026058 
	C800.302002,92.667221 800.302002,122.569542 800.302002,152.586731 
	C805.976562,152.586731 811.339905,152.586731 817.345703,152.586731 
	C816.747559,132.057190 816.161987,111.959984 815.549805,90.949013 
	C822.113220,103.432114 828.296997,115.265556 834.550781,127.061897 
	C838.729248,134.943558 842.980103,142.787354 847.277161,150.604919 
	C847.782532,151.524353 848.765137,152.812393 849.563110,152.839172 
	C855.298767,153.031540 861.043945,152.942108 866.629395,152.942108 
	C866.629395,122.189163 866.629395,92.288277 866.629395,62.305714 
	C861.006714,62.305714 855.761597,62.305714 849.922546,62.305714 
	C849.922546,81.717766 849.922546,100.828247 849.245667,120.101807 
M295.018280,129.128845 
	C296.992004,138.220474 300.758545,146.536743 309.805115,150.089142 
	C315.929077,152.493896 322.881012,153.767563 329.475403,153.816177 
	C350.506866,153.971222 360.858704,142.286514 361.817047,122.998611 
	C362.441193,110.437462 361.703888,97.766129 360.879486,85.189857 
	C360.287140,76.154060 354.998657,69.589821 347.247803,65.090813 
	C338.753479,60.160278 329.314972,60.174252 320.135803,61.276443 
	C310.982544,62.375534 302.490295,66.550591 298.635956,75.359787 
	C295.875824,81.668304 294.574463,88.975021 294.260345,95.910568 
	C293.773682,106.657104 294.683685,117.466896 295.018280,129.128845 
M494.000305,93.535492 
	C493.851135,90.393250 494.117432,87.164177 493.481964,84.123566 
	C490.466217,69.693314 478.755981,62.605484 464.920227,62.079754 
	C454.275208,61.675262 443.602386,61.984852 432.942108,62.020863 
	C431.689789,62.025093 430.438416,62.308369 429.365723,62.440258 
	C429.365723,92.802269 429.365723,122.703667 429.365723,152.699585 
	C435.315857,152.699585 440.893890,152.699585 447.145081,152.699585 
	C447.145081,144.371658 447.145081,136.326843 447.145081,127.998901 
	C453.467987,127.998901 459.127441,128.235001 464.760498,127.949677 
	C476.426331,127.358803 486.963135,124.084709 491.321808,111.924492 
	C493.267029,106.497513 493.170319,100.338600 494.000305,93.535492 
M710.154419,131.577057 
	C705.104614,137.666290 697.716492,137.644333 690.288513,135.591461 
	C685.582886,134.290970 682.027527,128.155807 682.014282,122.025887 
	C681.975037,103.865730 682.007141,85.705429 681.990417,67.545204 
	C681.988770,65.788948 681.842346,64.032814 681.766296,62.348351 
	C675.588379,62.348351 670.007996,62.348351 664.447449,62.348351 
	C664.257996,63.151791 664.050232,63.623089 664.049561,64.094673 
	C664.022583,84.087379 663.705566,104.087105 664.158813,124.069298 
	C664.334229,131.802994 666.639160,139.259689 672.549866,145.121979 
	C679.946838,152.458359 688.980774,154.112137 698.922180,154.074142 
	C717.914246,154.001541 731.320557,141.970642 731.051880,122.039871 
	C730.807068,103.882935 731.006470,85.720085 730.989807,67.559860 
	C730.988159,65.802330 730.843384,64.044930 730.767822,62.349655 
	C724.599548,62.349655 719.021790,62.349655 712.991577,62.349655 
	C712.991577,64.493721 712.991394,66.292107 712.991638,68.090492 
	C712.994263,86.084122 713.104858,104.079025 712.892517,122.070107 
	C712.857483,125.038322 711.407104,127.989830 710.154419,131.577057 
M567.000000,91.512482 
	C567.000000,111.916672 567.000000,132.320862 567.000000,152.621521 
	C573.429077,152.621521 579.005798,152.621521 585.078857,152.621521 
	C585.078857,128.006195 585.078857,103.766762 585.078857,78.854141 
	C593.283997,78.854141 600.997498,78.854141 608.642700,78.854141 
	C608.642700,72.920898 608.642700,67.677101 608.642700,62.277130 
	C586.719910,62.277130 565.147400,62.277130 543.387512,62.277130 
	C543.387512,67.925163 543.387512,73.288483 543.387512,79.146225 
	C551.353210,79.146225 558.941956,79.146225 567.000000,79.146225 
	C567.000000,83.263062 567.000000,86.891342 567.000000,91.512482 
z"/>
<path fill="#AAABAB" opacity="1.000000" stroke="none" 
	d="
M1001.000000,152.531342 
	C995.543640,153.000000 990.087280,153.000000 984.141235,153.000000 
	C984.141235,143.606155 984.141235,134.689926 984.141235,125.391357 
	C973.622925,125.391357 963.596985,125.391357 953.069702,125.391357 
	C953.069702,134.472733 953.069702,143.387711 953.069702,152.648148 
	C947.004700,152.648148 941.425842,152.648148 935.344604,152.648148 
	C935.235413,151.324234 935.017639,149.900650 935.015869,148.476807 
	C934.992859,129.991959 934.716614,111.500885 935.119324,93.024780 
	C935.323486,83.656136 937.328979,74.269142 945.460266,68.322159 
	C949.826599,65.128815 955.219482,62.318233 960.471985,61.553989 
	C974.696228,59.484325 988.875977,61.208714 997.238892,74.879669 
	C998.673645,77.225128 999.350220,80.034370 1000.688538,82.814667 
	C1001.000000,106.020897 1001.000000,129.041794 1001.000000,152.531342 
M983.999146,96.618004 
	C983.997009,95.288597 984.072571,93.953751 983.980103,92.630661 
	C983.363831,83.817802 978.951416,78.634514 971.581543,78.009399 
	C960.755920,77.091156 955.097961,80.211594 953.471130,89.510010 
	C952.441895,95.392754 953.278931,101.602028 953.278931,107.702362 
	C963.677612,107.702362 973.570862,107.702362 983.999023,107.702362 
	C983.999023,104.140022 983.999023,100.858566 983.999146,96.618004 
z"/>
<path fill="#FFFFFF" opacity="1.000000" stroke="none" 
	d="
M1.000000,96.000000 
	C1.000000,64.403801 1.000000,32.807610 1.000000,1.000000 
	C34.687267,1.000000 68.374977,1.000000 102.377167,1.376738 
	C100.795746,1.912119 98.899841,2.070761 96.622101,2.311192 
	C92.661194,3.262338 89.033417,3.969586 85.511032,5.027679 
	C64.505379,11.337603 45.881428,21.635763 30.583811,38.077084 
	C19.398449,49.640888 11.255970,62.795506 6.061901,77.671616 
	C3.977200,83.642319 2.664227,89.882484 1.000000,96.000000 
z"/>
<path fill="#FFFFFF" opacity="1.000000" stroke="none" 
	d="
M93.000000,211.000000 
	C62.408882,211.000000 31.817766,211.000000 1.000000,211.000000 
	C1.000000,182.646179 1.000000,154.291748 1.379384,125.624695 
	C1.966045,127.104118 1.984104,128.942459 2.409425,130.681183 
	C7.517912,151.564728 17.326544,169.571655 34.028503,183.632309 
	C45.215343,193.050034 57.420521,200.511200 71.323868,204.997940 
	C78.452499,207.298416 85.768616,209.017929 93.000000,211.000000 
z"/>
<path fill="#00498C" opacity="1.000000" stroke="none" 
	d="
M93.468658,211.000000 
	C85.768616,209.017929 78.452499,207.298416 71.323868,204.997940 
	C57.420521,200.511200 45.215343,193.050034 34.028503,183.632309 
	C17.326544,169.571655 7.517912,151.564728 2.409425,130.681183 
	C1.984104,128.942459 1.966045,127.104118 1.379384,125.156036 
	C1.000000,115.645775 1.000000,106.291542 1.000000,96.468658 
	C2.664227,89.882484 3.977200,83.642319 6.061901,77.671616 
	C11.255970,62.795506 19.398449,49.640888 30.861137,38.279381 
	C30.953773,39.761013 30.765238,41.395351 29.918108,42.543953 
	C11.476020,67.549156 3.791518,95.225571 10.107322,125.948723 
	C17.206545,160.482819 37.397896,185.167374 68.975121,200.351822 
	C85.487175,208.291946 103.342422,209.812683 121.451790,209.006866 
	C124.331444,208.878723 127.223366,209.026627 130.109619,209.046906 
	C128.381165,209.365906 126.652695,209.684906 124.280045,210.109436 
	C123.423904,210.476654 123.211952,210.738327 123.000000,211.000000 
	C113.312439,211.000000 103.624878,211.000000 93.468658,211.000000 
z"/>
<path fill="#00498D" opacity="1.000000" stroke="none" 
	d="
M97.003937,2.229405 
	C98.899841,2.070761 100.795746,1.912119 102.845825,1.376738 
	C113.354225,1.000000 123.708458,1.000000 134.531342,1.000000 
	C136.875824,1.422876 138.751633,1.845752 140.872772,2.956764 
	C141.883514,4.180063 142.580460,4.885246 143.424500,5.225372 
	C161.612961,12.554820 178.082687,22.141850 191.105850,37.407963 
	C207.514877,56.643044 215.773880,78.820740 216.876465,103.721191 
	C217.404358,115.643135 215.609589,127.461205 211.665222,138.856155 
	C211.343628,139.785263 211.899078,141.017944 212.046997,142.109573 
	C206.677795,151.255402 202.036423,160.937775 195.777878,169.428009 
	C184.951660,184.114609 170.526077,194.688950 153.431152,201.694016 
	C153.684525,200.645203 154.130951,199.630920 154.901047,199.212921 
	C160.395447,196.230560 166.633743,194.192398 171.355743,190.301071 
	C181.535385,181.912201 191.042007,172.875244 198.265518,161.413696 
	C219.627441,127.518623 219.560349,83.970497 197.724228,50.240307 
	C185.239548,30.955299 167.957596,17.335903 146.439987,9.339125 
	C131.968384,3.960915 116.882187,2.740649 101.539322,3.832025 
	C100.072952,3.936333 98.517845,2.793349 97.003937,2.229405 
z"/>
<path fill="#004C8E" opacity="1.000000" stroke="none" 
	d="
M123.250000,211.000000 
	C123.211952,210.738327 123.423904,210.476654 123.876587,210.125824 
	C124.117317,210.036652 124.009338,210.512314 124.004669,210.756165 
	C124.000000,211.000000 123.500000,211.000000 123.250000,211.000000 
z"/>
<path fill="#AAABAB" opacity="1.000000" stroke="none" 
	d="
M849.584106,120.020271 
	C849.922546,100.828247 849.922546,81.717766 849.922546,62.305714 
	C855.761597,62.305714 861.006714,62.305714 866.629395,62.305714 
	C866.629395,92.288277 866.629395,122.189163 866.629395,152.942108 
	C861.043945,152.942108 855.298767,153.031540 849.563110,152.839172 
	C848.765137,152.812393 847.782532,151.524353 847.277161,150.604919 
	C842.980103,142.787354 838.729248,134.943558 834.550781,127.061897 
	C828.296997,115.265556 822.113220,103.432114 815.549805,90.949013 
	C816.161987,111.959984 816.747559,132.057190 817.345703,152.586731 
	C811.339905,152.586731 805.976562,152.586731 800.302002,152.586731 
	C800.302002,122.569542 800.302002,92.667221 800.302002,62.026058 
	C805.605957,62.026058 810.873413,61.876839 816.119263,62.146641 
	C817.224609,62.203487 818.637878,63.585968 819.254761,64.715187 
	C826.864380,78.645561 834.344727,92.646492 841.876160,106.619652 
	C844.306091,111.128014 846.787720,115.608543 849.584106,120.020271 
z"/>
<path fill="#AAABAB" opacity="1.000000" stroke="none" 
	d="
M295.009888,128.689362 
	C294.683685,117.466896 293.773682,106.657104 294.260345,95.910568 
	C294.574463,88.975021 295.875824,81.668304 298.635956,75.359787 
	C302.490295,66.550591 310.982544,62.375534 320.135803,61.276443 
	C329.314972,60.174252 338.753479,60.160278 347.247803,65.090813 
	C354.998657,69.589821 360.287140,76.154060 360.879486,85.189857 
	C361.703888,97.766129 362.441193,110.437462 361.817047,122.998611 
	C360.858704,142.286514 350.506866,153.971222 329.475403,153.816177 
	C322.881012,153.767563 315.929077,152.493896 309.805115,150.089142 
	C300.758545,146.536743 296.992004,138.220474 295.009888,128.689362 
M338.924072,133.577667 
	C342.695923,130.305984 344.052063,126.079704 344.017456,121.203125 
	C343.952637,112.062607 344.017242,102.921249 343.993744,93.780334 
	C343.968262,83.858475 338.280487,78.148659 328.327789,78.001259 
	C318.294464,77.852669 312.268097,83.290382 312.049133,93.154144 
	C311.835236,102.788963 311.793488,112.438553 312.082825,122.069435 
	C312.252441,127.714371 314.054962,133.083191 319.908173,135.303513 
	C326.092621,137.649506 332.420654,137.682327 338.924072,133.577667 
z"/>
<path fill="#AAABAB" opacity="1.000000" stroke="none" 
	d="
M494.000305,94.023682 
	C493.170319,100.338600 493.267029,106.497513 491.321808,111.924492 
	C486.963135,124.084709 476.426331,127.358803 464.760498,127.949677 
	C459.127441,128.235001 453.467987,127.998901 447.145081,127.998901 
	C447.145081,136.326843 447.145081,144.371658 447.145081,152.699585 
	C440.893890,152.699585 435.315857,152.699585 429.365723,152.699585 
	C429.365723,122.703667 429.365723,92.802269 429.365723,62.440258 
	C430.438416,62.308369 431.689789,62.025093 432.942108,62.020863 
	C443.602386,61.984852 454.275208,61.675262 464.920227,62.079754 
	C478.755981,62.605484 490.466217,69.693314 493.481964,84.123566 
	C494.117432,87.164177 493.851135,90.393250 494.000305,94.023682 
M447.001740,90.519196 
	C447.001740,96.933327 447.001740,103.347458 447.001740,109.994247 
	C453.682861,109.994247 459.509033,110.165253 465.320618,109.947952 
	C471.598785,109.713211 475.946747,104.923721 475.995636,98.615791 
	C476.017578,95.784256 476.079559,92.949677 475.982483,90.121315 
	C475.804443,84.934662 472.799774,80.808968 467.589874,80.083298 
	C460.962433,79.160187 454.216583,79.087379 447.001740,78.613853 
	C447.001740,82.939964 447.001740,86.233513 447.001740,90.519196 
z"/>
<path fill="#AAABAB" opacity="1.000000" stroke="none" 
	d="
M710.382629,131.263062 
	C711.407104,127.989830 712.857483,125.038322 712.892517,122.070107 
	C713.104858,104.079025 712.994263,86.084122 712.991638,68.090492 
	C712.991394,66.292107 712.991577,64.493721 712.991577,62.349655 
	C719.021790,62.349655 724.599548,62.349655 730.767822,62.349655 
	C730.843384,64.044930 730.988159,65.802330 730.989807,67.559860 
	C731.006470,85.720085 730.807068,103.882935 731.051880,122.039871 
	C731.320557,141.970642 717.914246,154.001541 698.922180,154.074142 
	C688.980774,154.112137 679.946838,152.458359 672.549866,145.121979 
	C666.639160,139.259689 664.334229,131.802994 664.158813,124.069298 
	C663.705566,104.087105 664.022583,84.087379 664.049561,64.094673 
	C664.050232,63.623089 664.257996,63.151791 664.447449,62.348351 
	C670.007996,62.348351 675.588379,62.348351 681.766296,62.348351 
	C681.842346,64.032814 681.988770,65.788948 681.990417,67.545204 
	C682.007141,85.705429 681.975037,103.865730 682.014282,122.025887 
	C682.027527,128.155807 685.582886,134.290970 690.288513,135.591461 
	C697.716492,137.644333 705.104614,137.666290 710.382629,131.263062 
z"/>
<path fill="#004C8E" opacity="1.000000" stroke="none" 
	d="
M96.622101,2.311192 
	C98.517845,2.793349 100.072952,3.936333 101.539322,3.832025 
	C116.882187,2.740649 131.968384,3.960915 146.439987,9.339125 
	C167.957596,17.335903 185.239548,30.955299 197.724228,50.240307 
	C219.560349,83.970497 219.627441,127.518623 198.265518,161.413696 
	C191.042007,172.875244 181.535385,181.912201 171.355743,190.301071 
	C166.633743,194.192398 160.395447,196.230560 154.901047,199.212921 
	C154.130951,199.630920 153.684525,200.645203 153.062897,201.751770 
	C145.672867,204.415756 138.308243,206.711426 130.526611,209.027008 
	C127.223366,209.026627 124.331444,208.878723 121.451790,209.006866 
	C103.342422,209.812683 85.487175,208.291946 68.975121,200.351822 
	C37.397896,185.167374 17.206545,160.482819 10.107322,125.948723 
	C3.791518,95.225571 11.476020,67.549156 29.918108,42.543953 
	C30.765238,41.395351 30.953773,39.761013 31.171726,38.150608 
	C45.881428,21.635763 64.505379,11.337603 85.511032,5.027679 
	C89.033417,3.969586 92.661194,3.262338 96.622101,2.311192 
M185.000000,42.999542 
	C185.000000,42.999542 184.979858,43.023949 184.984970,42.267403 
	C184.728241,39.089611 182.816879,37.904861 179.326645,37.827316 
	C178.882980,37.271652 178.439331,36.715988 177.989120,35.414913 
	C177.703552,34.673473 177.626053,33.704983 177.101517,33.224339 
	C167.847885,24.745064 157.585434,17.892248 145.626160,13.756030 
	C120.966454,5.227255 96.601677,5.442803 72.408241,15.709572 
	C47.980206,26.075895 31.220589,44.056248 20.314205,67.812256 
	C19.077995,70.504936 19.475101,73.947464 19.010672,77.790047 
	C18.617546,79.198036 18.224421,80.606018 17.445419,82.281975 
	C17.215450,82.513275 17.080351,82.790771 16.982634,83.567009 
	C16.982634,83.567009 16.832693,83.997849 16.197054,84.115997 
	C16.169443,85.091415 16.141832,86.066826 16.010292,87.896675 
	C15.320855,96.249870 12.528868,104.504524 14.067106,113.028625 
	C13.404322,113.780495 12.151665,114.557091 12.181973,115.279892 
	C12.305988,118.237404 12.578571,121.233498 13.231310,124.116959 
	C18.549463,147.609787 29.202757,167.882828 48.508827,183.085236 
	C74.038231,203.188141 102.717964,210.638031 134.270432,202.796951 
	C172.407059,193.319687 196.810379,168.897964 207.394989,130.969055 
	C207.987839,128.844574 207.089981,126.304115 206.988052,123.120697 
	C207.020370,122.292610 206.886063,121.416260 207.109863,120.643639 
	C210.778351,107.979683 210.273087,95.349632 207.365967,82.597595 
	C203.954056,67.631142 196.400543,55.084641 185.782135,43.603352 
	C185.512619,43.408108 185.243118,43.212864 185.000000,42.999542 
z"/>
<path fill="#AAABAB" opacity="1.000000" stroke="none" 
	d="
M567.000000,91.016052 
	C567.000000,86.891342 567.000000,83.263062 567.000000,79.146225 
	C558.941956,79.146225 551.353210,79.146225 543.387512,79.146225 
	C543.387512,73.288483 543.387512,67.925163 543.387512,62.277130 
	C565.147400,62.277130 586.719910,62.277130 608.642700,62.277130 
	C608.642700,67.677101 608.642700,72.920898 608.642700,78.854141 
	C600.997498,78.854141 593.283997,78.854141 585.078857,78.854141 
	C585.078857,103.766762 585.078857,128.006195 585.078857,152.621521 
	C579.005798,152.621521 573.429077,152.621521 567.000000,152.621521 
	C567.000000,132.320862 567.000000,111.916672 567.000000,91.016052 
z"/>
<path fill="#00488C" opacity="1.000000" stroke="none" 
	d="
M212.382843,141.932831 
	C211.899078,141.017944 211.343628,139.785263 211.665222,138.856155 
	C215.609589,127.461205 217.404358,115.643135 216.876465,103.721191 
	C215.773880,78.820740 207.514877,56.643044 191.105850,37.407963 
	C178.082687,22.141850 161.612961,12.554820 143.424500,5.225372 
	C142.580460,4.885246 141.883514,4.180063 141.072235,3.289358 
	C156.071014,5.095816 169.672455,11.007634 182.012146,19.615284 
	C202.884384,34.174862 215.617935,54.075417 220.032394,79.262474 
	C223.666260,99.995628 221.262390,119.981659 213.226868,139.366592 
	C212.920273,140.106216 212.881989,140.957062 212.382843,141.932831 
z"/>
<path fill="#FFFFFF" opacity="1.000000" stroke="none" 
	d="
M983.999084,97.097549 
	C983.999023,100.858566 983.999023,104.140022 983.999023,107.702362 
	C973.570862,107.702362 963.677612,107.702362 953.278931,107.702362 
	C953.278931,101.602028 952.441895,95.392754 953.471130,89.510010 
	C955.097961,80.211594 960.755920,77.091156 971.581543,78.009399 
	C978.951416,78.634514 983.363831,83.817802 983.980103,92.630661 
	C984.072571,93.953751 983.997009,95.288597 983.999084,97.097549 
z"/>
<path fill="#FFFFFF" opacity="1.000000" stroke="none" 
	d="
M338.642944,133.836441 
	C332.420654,137.682327 326.092621,137.649506 319.908173,135.303513 
	C314.054962,133.083191 312.252441,127.714371 312.082825,122.069435 
	C311.793488,112.438553 311.835236,102.788963 312.049133,93.154144 
	C312.268097,83.290382 318.294464,77.852669 328.327789,78.001259 
	C338.280487,78.148659 343.968262,83.858475 343.993744,93.780334 
	C344.017242,102.921249 343.952637,112.062607 344.017456,121.203125 
	C344.052063,126.079704 342.695923,130.305984 338.642944,133.836441 
z"/>
<path fill="#FFFFFF" opacity="1.000000" stroke="none" 
	d="
M447.001740,90.023125 
	C447.001740,86.233513 447.001740,82.939964 447.001740,78.613853 
	C454.216583,79.087379 460.962433,79.160187 467.589874,80.083298 
	C472.799774,80.808968 475.804443,84.934662 475.982483,90.121315 
	C476.079559,92.949677 476.017578,95.784256 475.995636,98.615791 
	C475.946747,104.923721 471.598785,109.713211 465.320618,109.947952 
	C459.509033,110.165253 453.682861,109.994247 447.001740,109.994247 
	C447.001740,103.347458 447.001740,96.933327 447.001740,90.023125 
z"/>
<path fill="#FFFFFF" opacity="1.000000" stroke="none" 
	d="
M16.832693,83.997849 
	C16.832693,83.997849 16.982634,83.567009 17.263107,83.251587 
	C17.639482,82.628777 17.735388,82.321388 17.831291,82.014008 
	C18.224421,80.606018 18.617546,79.198036 19.389217,77.246414 
	C26.068501,58.982170 37.469883,45.199963 53.072853,35.058441 
	C75.007660,20.801386 98.986862,14.431851 125.321915,16.883154 
	C140.620590,18.307177 154.934677,22.218479 168.154099,30.032099 
	C171.480057,31.997972 174.717529,34.113548 177.995667,36.160324 
	C178.439331,36.715988 178.882980,37.271652 179.722229,38.217926 
	C181.738510,40.080341 183.359177,41.552147 184.979858,43.023949 
	C184.979858,43.023949 185.000000,42.999542 185.060104,43.258896 
	C185.405304,43.703270 185.690414,43.888290 185.975525,44.073303 
	C196.400543,55.084641 203.954056,67.631142 207.365967,82.597595 
	C210.273087,95.349632 210.778351,107.979683 207.109863,120.643639 
	C206.886063,121.416260 207.020370,122.292610 206.604111,123.718384 
	C203.532059,135.169739 198.362045,144.826965 191.716278,153.982269 
	C191.372849,154.375122 191.276154,154.677444 191.099121,155.200348 
	C191.018814,155.420929 190.957108,155.886353 190.640167,156.023666 
	C179.028885,170.315063 165.278458,181.069412 148.503815,188.295837 
	C129.823166,196.343384 110.442307,198.154694 90.883385,194.719086 
	C69.822792,191.019684 52.230263,180.165543 37.964577,163.628815 
	C35.590679,160.685822 33.133934,158.225586 31.170681,155.420013 
	C22.230995,142.644836 16.871973,128.451080 14.833817,112.998070 
	C12.528868,104.504524 15.320855,96.249870 16.376385,87.316910 
	C16.772551,85.824051 16.802622,84.910950 16.832693,83.997849 
M150.938843,35.441273 
	C150.632263,35.346039 150.325668,35.250809 149.558167,35.013786 
	C149.558167,35.013786 149.077484,34.975327 148.887314,34.515266 
	C148.689697,34.159664 148.403427,34.060844 147.412674,34.024555 
	C146.982727,34.002914 146.552795,33.981274 145.941437,33.458157 
	C145.634399,33.357815 145.327347,33.257477 144.398453,33.011620 
	C143.973053,32.994362 143.547638,32.977104 142.940308,32.459888 
	C142.634064,32.359985 142.327835,32.260082 141.398773,32.013657 
	C140.972626,31.995892 140.546478,31.978127 139.937424,31.463192 
	C139.632507,31.363157 139.327606,31.263123 138.179642,31.013317 
	C131.599091,30.008522 124.971069,27.944847 118.448692,28.237276 
	C107.589996,28.724123 96.532875,29.677467 86.047928,32.350777 
	C73.368263,35.583664 61.730606,41.776733 51.327271,51.159847 
	C49.555901,52.598984 47.617416,53.876369 46.041435,55.504623 
	C38.277317,63.526241 31.688377,72.396507 27.615469,82.881584 
	C22.902979,95.013168 21.671711,107.393448 24.567478,120.274315 
	C27.271023,132.300156 32.718964,142.889771 40.729012,151.958572 
	C45.442074,157.294586 51.503124,161.440002 57.143196,166.663620 
	C57.734764,167.117661 58.326336,167.571701 59.112770,168.484085 
	C59.112770,168.484085 59.476177,168.824768 59.476177,168.824768 
	C59.476177,168.824768 59.972385,168.781006 60.614601,169.117035 
	C61.559803,169.727188 62.484840,170.371567 63.453239,170.942383 
	C77.473495,179.206497 92.347923,184.867935 108.842178,184.933945 
	C115.899185,184.962204 122.959251,184.225723 130.547821,183.902313 
	C130.739639,183.614380 130.931442,183.326447 131.850418,183.007339 
	C132.573090,182.949951 133.295746,182.892578 134.546814,182.898865 
	C134.738037,182.611816 134.929260,182.324783 135.871109,182.006775 
	C137.254745,181.617874 138.638367,181.228973 140.652954,180.980698 
	C141.142242,180.668259 141.631531,180.355820 142.815750,179.998337 
	C144.211273,179.276978 145.606781,178.555618 147.738129,177.969269 
	C160.184113,172.533218 170.794495,164.818314 179.454727,154.168610 
	C194.487473,135.682449 201.259949,114.940262 196.922028,91.347458 
	C191.988617,64.515968 175.614319,46.718525 151.025146,35.972851 
	C151.025146,35.972851 151.108292,35.945244 150.938843,35.441273 
z"/>
<path fill="#005192" opacity="1.000000" stroke="none" 
	d="
M177.992401,35.787621 
	C174.717529,34.113548 171.480057,31.997972 168.154099,30.032099 
	C154.934677,22.218479 140.620590,18.307177 125.321915,16.883154 
	C98.986862,14.431851 75.007660,20.801386 53.072853,35.058441 
	C37.469883,45.199963 26.068501,58.982170 19.441301,76.872536 
	C19.475101,73.947464 19.077995,70.504936 20.314205,67.812256 
	C31.220589,44.056248 47.980206,26.075895 72.408241,15.709572 
	C96.601677,5.442803 120.966454,5.227255 145.626160,13.756030 
	C157.585434,17.892248 167.847885,24.745064 177.101517,33.224339 
	C177.626053,33.704983 177.703552,34.673473 177.992401,35.787621 
z"/>
<path fill="#004F91" opacity="1.000000" stroke="none" 
	d="
M191.962997,153.891739 
	C198.362045,144.826965 203.532059,135.169739 206.553070,124.136673 
	C207.089981,126.304115 207.987839,128.844574 207.394989,130.969055 
	C196.810379,168.897964 172.407059,193.319687 134.270432,202.796951 
	C102.717964,210.638031 74.038231,203.188141 48.508827,183.085236 
	C29.202757,167.882828 18.549463,147.609787 13.231310,124.116959 
	C12.578571,121.233498 12.305988,118.237404 12.181973,115.279892 
	C12.151665,114.557091 13.404322,113.780495 14.450461,113.013351 
	C16.871973,128.451080 22.230995,142.644836 31.170681,155.420013 
	C33.133934,158.225586 35.590679,160.685822 37.686180,163.829926 
	C37.820793,165.519028 37.726791,167.005219 38.423203,167.789734 
	C40.927708,170.611130 43.651283,173.245422 46.377098,175.861832 
	C69.057053,197.631546 96.356796,205.353867 126.913376,200.676071 
	C151.891052,196.852295 172.146759,184.097733 187.464615,163.896454 
	C189.175095,161.640671 189.818741,158.575943 190.957108,155.886353 
	C190.957108,155.886353 191.018814,155.420929 191.290482,155.068390 
	C191.788879,154.486450 191.922501,154.211746 191.962997,153.891739 
z"/>
<path fill="#005192" opacity="1.000000" stroke="none" 
	d="
M184.982422,42.645676 
	C183.359177,41.552147 181.738510,40.080341 179.980774,38.303810 
	C182.816879,37.904861 184.728241,39.089611 184.982422,42.645676 
z"/>
<path fill="#005192" opacity="1.000000" stroke="none" 
	d="
M16.514874,84.056923 
	C16.802622,84.910950 16.772551,85.824051 16.428350,86.889694 
	C16.141832,86.066826 16.169443,85.091415 16.514874,84.056923 
z"/>
<path fill="#005192" opacity="1.000000" stroke="none" 
	d="
M17.638355,82.147995 
	C17.735388,82.321388 17.639482,82.628777 17.291849,83.025314 
	C17.080351,82.790771 17.215450,82.513275 17.638355,82.147995 
z"/>
<path fill="#005192" opacity="1.000000" stroke="none" 
	d="
M185.878830,43.838329 
	C185.690414,43.888290 185.405304,43.703270 185.046906,43.267937 
	C185.243118,43.212864 185.512619,43.408108 185.878830,43.838329 
z"/>
<path fill="#00629C" opacity="1.000000" stroke="none" 
	d="
M140.022003,180.840073 
	C138.638367,181.228973 137.254745,181.617874 135.270477,182.091003 
	C134.374908,182.318420 134.157761,182.538422 134.018417,182.835205 
	C133.295746,182.892578 132.573090,182.949951 131.260788,183.091354 
	C130.375153,183.318512 130.157410,183.538956 130.017929,183.836716 
	C122.959251,184.225723 115.899185,184.962204 108.842178,184.933945 
	C92.347923,184.867935 77.473495,179.206497 63.453239,170.942383 
	C62.484840,170.371567 61.559803,169.727188 60.162823,168.767303 
	C59.486649,168.206024 59.222271,168.075409 58.917908,168.025742 
	C58.326336,167.571701 57.734764,167.117661 57.033226,166.038818 
	C55.830669,163.991196 54.837715,162.477036 53.630123,161.159607 
	C41.119610,147.511215 33.651878,131.456726 32.113785,113.071495 
	C30.294249,91.322151 36.521820,71.824524 50.502674,54.894928 
	C51.356491,53.861034 51.488865,52.231358 51.956917,50.878883 
	C61.730606,41.776733 73.368263,35.583664 86.047928,32.350777 
	C96.532875,29.677467 107.589996,28.724123 118.448692,28.237276 
	C124.971069,27.944847 131.599091,30.008522 138.733459,31.282513 
	C139.520523,31.778515 139.798203,31.914732 140.120331,31.960360 
	C140.546478,31.978127 140.972626,31.995892 141.842621,32.282036 
	C142.520325,32.778198 142.798920,32.914673 143.122238,32.959846 
	C143.547638,32.977104 143.973053,32.994362 144.841888,33.280167 
	C145.519470,33.777424 145.798660,33.914394 146.122849,33.959629 
	C146.552795,33.981274 146.982727,34.002914 147.850159,34.303455 
	C148.510529,34.794510 148.773804,34.925499 149.077484,34.975327 
	C149.077484,34.975327 149.558167,35.013786 149.917908,35.279564 
	C150.508438,35.774364 150.785309,35.907665 151.108292,35.945244 
	C151.108292,35.945244 151.025146,35.972851 151.056931,36.289810 
	C151.870468,37.631897 152.446045,38.977669 153.465469,39.633125 
	C165.152832,47.147682 174.082428,57.076546 180.870056,69.215103 
	C189.057846,83.857643 191.904602,99.686340 189.630905,115.849495 
	C186.040283,141.374252 173.045258,161.323807 150.348450,174.435318 
	C149.021423,175.201920 148.108124,176.684723 147.002304,177.834244 
	C145.606781,178.555618 144.211273,179.276978 142.170990,180.021194 
	C141.024826,180.309387 140.523407,180.574738 140.022003,180.840073 
M159.484558,50.984573 
	C148.249496,40.532497 134.666367,34.540081 119.710106,33.224625 
	C92.815155,30.859118 69.857407,39.586411 53.163765,61.495617 
	C39.211437,79.807060 34.586555,100.543785 39.901382,123.107605 
	C44.767456,143.766266 56.804924,159.261612 75.015427,169.967377 
	C86.740051,176.860153 99.635895,180.346313 113.088593,179.797287 
	C125.893402,179.274704 138.137985,175.932129 149.353699,168.954208 
	C172.267136,154.698517 183.895828,133.775635 184.768295,107.429733 
	C185.502319,85.264359 176.721756,66.381996 159.484558,50.984573 
z"/>
<path fill="#005D9A" opacity="1.000000" stroke="none" 
	d="
M147.370209,177.901764 
	C148.108124,176.684723 149.021423,175.201920 150.348450,174.435318 
	C173.045258,161.323807 186.040283,141.374252 189.630905,115.849495 
	C191.904602,99.686340 189.057846,83.857643 180.870056,69.215103 
	C174.082428,57.076546 165.152832,47.147682 153.465469,39.633125 
	C152.446045,38.977669 151.870468,37.631897 151.075882,36.250320 
	C175.614319,46.718525 191.988617,64.515968 196.922028,91.347458 
	C201.259949,114.940262 194.487473,135.682449 179.454727,154.168610 
	C170.794495,164.818314 160.184113,172.533218 147.370209,177.901764 
z"/>
<path fill="#005393" opacity="1.000000" stroke="none" 
	d="
M190.640167,156.023666 
	C189.818741,158.575943 189.175095,161.640671 187.464615,163.896454 
	C172.146759,184.097733 151.891052,196.852295 126.913376,200.676071 
	C96.356796,205.353867 69.057053,197.631546 46.377098,175.861832 
	C43.651283,173.245422 40.927708,170.611130 38.423203,167.789734 
	C37.726791,167.005219 37.820793,165.519028 37.830582,164.153641 
	C52.230263,180.165543 69.822792,191.019684 90.883385,194.719086 
	C110.442307,198.154694 129.823166,196.343384 148.503815,188.295837 
	C165.278458,181.069412 179.028885,170.315063 190.640167,156.023666 
z"/>
<path fill="#005C99" opacity="1.000000" stroke="none" 
	d="
M51.642094,51.019363 
	C51.488865,52.231358 51.356491,53.861034 50.502674,54.894928 
	C36.521820,71.824524 30.294249,91.322151 32.113785,113.071495 
	C33.651878,131.456726 41.119610,147.511215 53.630123,161.159607 
	C54.837715,162.477036 55.830669,163.991196 56.940575,165.767471 
	C51.503124,161.440002 45.442074,157.294586 40.729012,151.958572 
	C32.718964,142.889771 27.271023,132.300156 24.567478,120.274315 
	C21.671711,107.393448 22.902979,95.013168 27.615469,82.881584 
	C31.688377,72.396507 38.277317,63.526241 46.041435,55.504623 
	C47.617416,53.876369 49.555901,52.598984 51.642094,51.019363 
z"/>
<path fill="#005D9A" opacity="1.000000" stroke="none" 
	d="
M140.337479,180.910385 
	C140.523407,180.574738 141.024826,180.309387 141.823517,180.043716 
	C141.631531,180.355820 141.142242,180.668259 140.337479,180.910385 
z"/>
<path fill="#005393" opacity="1.000000" stroke="none" 
	d="
M191.716278,153.982269 
	C191.922501,154.211746 191.788879,154.486450 191.370789,154.847809 
	C191.276154,154.677444 191.372849,154.375122 191.716278,153.982269 
z"/>
<path fill="#005C99" opacity="1.000000" stroke="none" 
	d="
M59.015339,168.254913 
	C59.222271,168.075409 59.486649,168.206024 59.841713,168.599274 
	C59.972385,168.781006 59.476177,168.824768 59.476177,168.824768 
	C59.476177,168.824768 59.112770,168.484085 59.015339,168.254913 
z"/>
<path fill="#005D9A" opacity="1.000000" stroke="none" 
	d="
M130.282867,183.869507 
	C130.157410,183.538956 130.375153,183.318512 130.897217,183.106934 
	C130.931442,183.326447 130.739639,183.614380 130.282867,183.869507 
z"/>
<path fill="#005D9A" opacity="1.000000" stroke="none" 
	d="
M134.282623,182.867035 
	C134.157761,182.538422 134.374908,182.318420 134.895157,182.106476 
	C134.929260,182.324783 134.738037,182.611816 134.282623,182.867035 
z"/>
<path fill="#005D9A" opacity="1.000000" stroke="none" 
	d="
M151.023560,35.693260 
	C150.785309,35.907665 150.508438,35.774364 150.148376,35.350456 
	C150.325668,35.250809 150.632263,35.346039 151.023560,35.693260 
z"/>
<path fill="#005D9A" opacity="1.000000" stroke="none" 
	d="
M148.982391,34.745296 
	C148.773804,34.925499 148.510529,34.794510 148.158081,34.400581 
	C148.403427,34.060844 148.689697,34.159664 148.982391,34.745296 
z"/>
<path fill="#005D9A" opacity="1.000000" stroke="none" 
	d="
M146.032135,33.708893 
	C145.798660,33.914394 145.519470,33.777424 145.152802,33.352928 
	C145.327347,33.257477 145.634399,33.357815 146.032135,33.708893 
z"/>
<path fill="#005D9A" opacity="1.000000" stroke="none" 
	d="
M143.031281,32.709866 
	C142.798920,32.914673 142.520325,32.778198 142.154022,32.355297 
	C142.327835,32.260082 142.634064,32.359985 143.031281,32.709866 
z"/>
<path fill="#005D9A" opacity="1.000000" stroke="none" 
	d="
M140.028870,31.711777 
	C139.798203,31.914732 139.520523,31.778515 139.154999,31.357399 
	C139.327606,31.263123 139.632507,31.363157 140.028870,31.711777 
z"/>
<path fill="#0067A0" opacity="1.000000" stroke="none" 
	d="
M159.735229,51.235222 
	C176.721756,66.381996 185.502319,85.264359 184.768295,107.429733 
	C183.895828,133.775635 172.267136,154.698517 149.353699,168.954208 
	C138.137985,175.932129 125.893402,179.274704 113.088593,179.797287 
	C99.635895,180.346313 86.740051,176.860153 75.015427,169.967377 
	C56.804924,159.261612 44.767456,143.766266 39.901382,123.107605 
	C34.586555,100.543785 39.211437,79.807060 53.163765,61.495617 
	C69.857407,39.586411 92.815155,30.859118 119.710106,33.224625 
	C134.666367,34.540081 148.249496,40.532497 159.735229,51.235222 
M172.076981,136.592239 
	C177.589844,127.120483 180.603912,116.778191 180.884109,105.955673 
	C181.423416,85.126587 173.807556,67.722343 157.187317,54.706078 
	C140.368790,41.534527 121.537277,37.091461 100.566811,41.750011 
	C80.298820,46.252510 65.323227,58.118599 53.692753,74.807732 
	C43.894329,88.867966 40.501774,104.823051 43.414017,121.204613 
	C46.979317,141.259689 59.923439,155.475250 77.641113,164.707001 
	C90.461006,171.386749 104.371117,173.198395 119.021919,171.154404 
	C142.045395,167.942291 160.131287,157.729233 172.076981,136.592239 
z"/>
<path fill="#FFFFFF" opacity="1.000000" stroke="none" 
	d="
M172.014542,136.965256 
	C160.131287,157.729233 142.045395,167.942291 119.021919,171.154404 
	C104.371117,173.198395 90.461006,171.386749 77.641113,164.707001 
	C59.923439,155.475250 46.979317,141.259689 43.414017,121.204613 
	C40.501774,104.823051 43.894329,88.867966 53.692753,74.807732 
	C65.323227,58.118599 80.298820,46.252510 100.566811,41.750011 
	C121.537277,37.091461 140.368790,41.534527 157.187317,54.706078 
	C173.807556,67.722343 181.423416,85.126587 180.884109,105.955673 
	C180.603912,116.778191 177.589844,127.120483 172.014542,136.965256 
M141.929764,63.462784 
	C141.629227,63.359661 141.328705,63.256535 140.366043,62.842293 
	C117.425072,49.446419 86.537476,56.249424 68.321213,74.147095 
	C67.250114,75.562401 66.274376,77.063255 65.093292,78.379898 
	C52.187386,92.767044 49.822102,112.659981 61.072838,129.424393 
	C64.777023,134.943924 70.280167,139.256149 75.142639,144.655457 
	C75.720306,145.115845 76.297974,145.576218 77.067764,146.519669 
	C77.367416,146.624802 77.667076,146.729935 78.618782,147.141068 
	C79.448822,147.644913 80.267624,148.168442 81.110573,148.649689 
	C99.701920,159.263748 118.638046,160.954758 138.548615,150.878464 
	C138.741104,150.597748 138.933578,150.317032 139.585327,149.991974 
	C139.585327,149.991974 140.023956,149.848801 140.547226,149.899216 
	C140.735916,149.615967 140.924606,149.332733 141.030807,149.034622 
	C141.030807,149.034622 141.063583,149.111771 141.777512,149.021606 
	C158.115189,137.731155 168.216949,122.991783 166.965317,102.308167 
	C165.912277,84.906334 157.558060,72.032768 142.026337,63.970234 
	C142.026337,63.970234 142.107651,63.951981 141.929764,63.462784 
z"/>
<path fill="#1C7DAC" opacity="1.000000" stroke="none" 
	d="
M140.023956,149.848801 
	C140.023956,149.848801 139.585327,149.991974 139.130981,150.084457 
	C138.379501,150.317215 138.162857,150.536911 138.026733,150.835999 
	C118.638046,160.954758 99.701920,159.263748 81.110573,148.649689 
	C80.267624,148.168442 79.448822,147.644913 78.162186,146.793793 
	C77.470375,146.225998 77.193726,146.089355 76.875641,146.036606 
	C76.297974,145.576218 75.720306,145.115845 75.032806,144.030975 
	C74.417542,142.571609 74.008530,141.656815 73.392494,140.913620 
	C59.620804,124.298935 56.122326,105.984879 64.200111,85.735977 
	C65.781944,81.770752 67.363472,77.805405 68.945145,73.840111 
	C86.537476,56.249424 117.425072,49.446419 140.823837,63.193577 
	C141.512177,63.771420 141.787506,63.907124 142.107651,63.951981 
	C142.107651,63.951981 142.026337,63.970234 142.054459,64.284966 
	C144.463318,67.307991 146.725449,70.132378 149.243988,72.705803 
	C165.892685,89.717316 166.297287,121.005325 150.116135,138.430878 
	C146.943665,141.847290 144.073288,145.544220 141.063583,149.111771 
	C141.063583,149.111771 141.030807,149.034622 140.846466,149.108917 
	C140.365250,149.324371 140.152512,149.546234 140.023956,149.848801 
M156.006775,94.597672 
	C151.964294,75.796944 132.719147,60.398705 113.704605,59.895645 
	C98.087387,59.482464 85.618874,65.284805 75.631165,76.909630 
	C67.047226,86.900597 63.476665,98.738235 65.222893,111.614899 
	C68.688339,137.169220 90.877090,154.674469 116.906006,152.125381 
	C142.316666,149.636826 164.005753,121.476562 156.006775,94.597672 
z"/>
<path fill="#1279AA" opacity="1.000000" stroke="none" 
	d="
M141.420547,149.066681 
	C144.073288,145.544220 146.943665,141.847290 150.116135,138.430878 
	C166.297287,121.005325 165.892685,89.717316 149.243988,72.705803 
	C146.725449,70.132378 144.463318,67.307991 142.071060,64.246750 
	C157.558060,72.032768 165.912277,84.906334 166.965317,102.308167 
	C168.216949,122.991783 158.115189,137.731155 141.420547,149.066681 
z"/>
<path fill="#0F77A9" opacity="1.000000" stroke="none" 
	d="
M68.633179,73.993607 
	C67.363472,77.805405 65.781944,81.770752 64.200111,85.735977 
	C56.122326,105.984879 59.620804,124.298935 73.392494,140.913620 
	C74.008530,141.656815 74.417542,142.571609 74.941849,143.763458 
	C70.280167,139.256149 64.777023,134.943924 61.072838,129.424393 
	C49.822102,112.659981 52.187386,92.767044 65.093292,78.379898 
	C66.274376,77.063255 67.250114,75.562401 68.633179,73.993607 
z"/>
<path fill="#1279AA" opacity="1.000000" stroke="none" 
	d="
M138.287674,150.857239 
	C138.162857,150.536911 138.379501,150.317215 138.901337,150.106628 
	C138.933578,150.317032 138.741104,150.597748 138.287674,150.857239 
z"/>
<path fill="#1279AA" opacity="1.000000" stroke="none" 
	d="
M140.285583,149.874008 
	C140.152512,149.546234 140.365250,149.324371 140.887726,149.116333 
	C140.924606,149.332733 140.735916,149.615967 140.285583,149.874008 
z"/>
<path fill="#0F77A9" opacity="1.000000" stroke="none" 
	d="
M76.971703,146.278137 
	C77.193726,146.089355 77.470375,146.225998 77.836159,146.640808 
	C77.667076,146.729935 77.367416,146.624802 76.971703,146.278137 
z"/>
<path fill="#1279AA" opacity="1.000000" stroke="none" 
	d="
M142.018707,63.707382 
	C141.787506,63.907124 141.512177,63.771420 141.154907,63.349136 
	C141.328705,63.256535 141.629227,63.359661 142.018707,63.707382 
z"/>
<path fill="#2582AF" opacity="1.000000" stroke="none" 
	d="
M156.034164,95.014969 
	C164.005753,121.476562 142.316666,149.636826 116.906006,152.125381 
	C90.877090,154.674469 68.688339,137.169220 65.222893,111.614899 
	C63.476665,98.738235 67.047226,86.900597 75.631165,76.909630 
	C85.618874,65.284805 98.087387,59.482464 113.704605,59.895645 
	C132.719147,60.398705 151.964294,75.796944 156.034164,95.014969 
M69.000008,107.452942 
	C69.100319,109.774040 68.906082,112.152657 69.346313,114.407387 
	C73.974731,138.112839 97.828735,152.571289 119.121758,148.043335 
	C134.848618,144.699036 145.614212,135.660065 151.253830,120.571404 
	C157.189255,104.691414 153.626465,90.331345 143.146835,77.842850 
	C131.412903,63.859596 112.524498,60.658348 96.732170,66.281685 
	C79.556183,72.397705 68.254089,88.566986 69.000008,107.452942 
z"/>
<path fill="#2B85B0" opacity="1.000000" stroke="none" 
	d="
M69.000000,106.976471 
	C68.254089,88.566986 79.556183,72.397705 96.732170,66.281685 
	C112.524498,60.658348 131.412903,63.859596 143.146835,77.842850 
	C153.626465,90.331345 157.189255,104.691414 151.253830,120.571404 
	C145.614212,135.660065 134.848618,144.699036 119.121758,148.043335 
	C97.828735,152.571289 73.974731,138.112839 69.346313,114.407387 
	C68.906082,112.152657 69.100319,109.774040 69.000000,106.976471 
M140.982086,81.334099 
	C139.364334,79.128967 138.150452,76.395264 136.065201,74.801979 
	C118.725945,61.553490 94.737518,63.848656 80.795090,80.533318 
	C67.367043,96.602440 68.275574,117.907082 81.511276,132.775513 
	C92.505135,145.125549 106.981979,149.130661 122.776398,144.395508 
	C139.285767,139.446014 147.803818,128.224640 150.883606,112.078331 
	C151.124496,110.815376 150.262680,109.342079 149.990189,107.070793 
	C150.610947,97.430557 147.302383,89.208321 140.982086,81.334099 
z"/>
<path fill="#FFFFFF" opacity="1.000000" stroke="none" 
	d="
M140.970581,82.077103 
	C147.302383,89.208321 150.610947,97.430557 149.627365,107.731888 
	C148.975464,109.999786 148.841354,111.653244 148.373764,113.206299 
	C142.663773,132.170853 121.171074,144.889465 100.932999,139.854721 
	C84.803665,135.842148 72.283081,122.157585 74.126877,106.672806 
	C74.678772,102.037811 76.739632,97.582481 78.418358,92.905434 
	C82.443573,88.850891 85.666580,84.251083 89.970253,81.152008 
	C101.779472,72.648170 115.047623,71.128632 129.325317,74.991142 
	C133.422836,77.459068 137.196716,79.768082 140.970581,82.077103 
M131.603622,114.941147 
	C133.026215,112.039337 135.045868,109.272964 135.741547,106.206253 
	C137.014099,100.596573 135.471313,95.175056 131.004837,91.529869 
	C118.620728,81.422897 96.851723,87.929337 91.348717,103.123734 
	C89.153221,109.185738 91.878937,116.681389 96.563293,120.382881 
	C106.546059,128.271042 121.920990,125.515968 131.603622,114.941147 
z"/>
<path fill="#2F88B2" opacity="1.000000" stroke="none" 
	d="
M78.109177,93.044846 
	C76.739632,97.582481 74.678772,102.037811 74.126877,106.672806 
	C72.283081,122.157585 84.803665,135.842148 100.932999,139.854721 
	C121.171074,144.889465 142.663773,132.170853 148.373764,113.206299 
	C148.841354,111.653244 148.975464,109.999786 149.588943,108.179764 
	C150.262680,109.342079 151.124496,110.815376 150.883606,112.078331 
	C147.803818,128.224640 139.285767,139.446014 122.776398,144.395508 
	C106.981979,149.130661 92.505135,145.125549 81.511276,132.775513 
	C68.275574,117.907082 67.367043,96.602440 80.795090,80.533318 
	C94.737518,63.848656 118.725945,61.553490 136.065201,74.801979 
	C138.150452,76.395264 139.364334,79.128967 140.976334,81.705597 
	C137.196716,79.768082 133.422836,77.459068 129.254730,74.652634 
	C115.923683,64.060570 92.652367,68.882927 82.815521,81.997520 
	C80.490211,85.097641 76.295959,87.957489 78.109177,93.044846 
z"/>
<path fill="#489ABA" opacity="1.000000" stroke="none" 
	d="
M131.332870,115.194305 
	C121.920990,125.515968 106.546059,128.271042 96.563293,120.382881 
	C91.878937,116.681389 89.153221,109.185738 91.348717,103.123734 
	C96.851723,87.929337 118.620728,81.422897 131.004837,91.529869 
	C135.471313,95.175056 137.014099,100.596573 135.741547,106.206253 
	C135.045868,109.272964 133.026215,112.039337 131.332870,115.194305 
M119.990387,105.255409 
	C120.184929,101.438004 118.483406,98.592033 114.730080,98.166649 
	C110.635948,97.702644 107.563377,100.512199 106.719513,104.090302 
	C106.159241,106.465904 107.263550,109.894112 108.853439,111.851540 
	C109.709175,112.905098 113.541176,112.548698 115.333572,111.562355 
	C117.287354,110.487206 118.434837,107.946823 119.990387,105.255409 
z"/>
<path fill="#338AB3" opacity="1.000000" stroke="none" 
	d="
M78.418358,92.905434 
	C76.295959,87.957489 80.490211,85.097641 82.815521,81.997520 
	C92.652367,68.882927 115.923683,64.060570 128.931091,74.493729 
	C115.047623,71.128632 101.779472,72.648170 89.970253,81.152008 
	C85.666580,84.251083 82.443573,88.850891 78.418358,92.905434 
z"/>
<path fill="#FFFFFF" opacity="1.000000" stroke="none" 
	d="
M119.962097,105.650299 
	C118.434837,107.946823 117.287354,110.487206 115.333572,111.562355 
	C113.541176,112.548698 109.709175,112.905098 108.853439,111.851540 
	C107.263550,109.894112 106.159241,106.465904 106.719513,104.090302 
	C107.563377,100.512199 110.635948,97.702644 114.730080,98.166649 
	C118.483406,98.592033 120.184929,101.438004 119.962097,105.650299 
z"/>
</svg>