<svg version="1.1" id="Layer_1" xmlns="http://www.w3.org/2000/svg" xmlns:xlink="http://www.w3.org/1999/xlink" x="0px" y="0px"
	 width="100%" viewBox="44.5 34 158.57289 23.607952" enable-background="new 0 0 262 84" xml:space="preserve">
<path fill="none" opacity="1.000000" stroke="#000000" stroke-linecap="round" stroke-linejoin="round" stroke-width="4.000000"
	d="
M62.500000,50.500000 
	C63.391964,55.702061 66.207626,58.165771 70.500000,57.500000 
	C74.629700,56.859463 77.428169,52.476959 76.488426,48.002430 
	C75.784752,44.651878 72.630646,41.867287 68.498093,42.487270 
	C64.143593,43.140560 63.007980,46.495804 62.000000,50.000000 
"/>
<path fill="none" opacity="1.000000" stroke="#000000" stroke-linecap="round" stroke-linejoin="round" stroke-width="4.000000"
	d="
M108.000000,44.500000 
	C104.572014,41.644085 102.194633,41.776165 99.000008,45.000004 
	C96.479874,47.543167 96.215721,53.090343 98.499992,55.500004 
	C101.052361,58.192455 104.768219,58.192455 108.000000,55.500000 
"/>
<path fill="none" opacity="1.000000" stroke="#000000" stroke-linecap="round" stroke-linejoin="round" stroke-width="5.000000"
	d="
M127.000000,57.000000 
	C127.000000,54.666668 126.923363,52.330166 127.019562,50.000809 
	C127.137299,47.149830 126.746613,44.499195 123.983215,43.031597 
	C121.293999,41.603397 119.325180,43.167007 117.476982,44.976486 
	C117.138374,45.307999 116.500000,45.333328 116.000000,45.499996 
"/>
<path fill="none" opacity="1.000000" stroke="#000000" stroke-linecap="round" stroke-linejoin="round" stroke-width="5.000000"
	d="
M60.500000,34.500000 
	C59.333332,34.500000 58.161839,34.568764 57.000896,34.487232 
	C53.375748,34.232647 51.773342,35.653652 51.935822,39.502708 
	C52.181622,45.325665 52.000000,51.166668 52.000000,57.000000 
"/>
<path fill="none" opacity="1.000000" stroke="#000000" stroke-linecap="round" stroke-linejoin="round" stroke-width="4.000000"
	d="
M181.500000,38.500000 
	C181.500000,43.166668 181.412521,47.835430 181.524445,52.499413 
	C181.637817,57.223560 182.599838,57.878223 187.500000,57.000000 
"/>
<path fill="none" opacity="1.000000" stroke="#000000" stroke-linecap="round" stroke-linejoin="round" stroke-width="5.000000"
	d="
M202.500000,56.000000 
	C203.773300,52.722000 202.458710,49.334499 202.917007,45.988632 
	C203.207169,43.870319 201.069702,42.762470 199.489136,42.623756 
	C196.863098,42.393291 193.567307,41.545956 192.500000,45.500000 
"/>
<path fill="none" opacity="1.000000" stroke="#000000" stroke-linecap="round" stroke-linejoin="round" stroke-width="4.000000"
	d="
M170.500000,49.500000 
	C167.572296,49.465191 164.628937,49.631290 162.022537,51.041645 
	C159.683243,52.307472 159.767715,54.937630 162.000000,56.500008 
	C164.244995,58.071281 168.959763,57.023552 171.000000,54.499996 
	C172.290527,52.903751 171.185486,44.800095 169.500000,43.499996 
	C166.838470,41.447021 163.325516,42.227684 160.500000,45.500000 
"/>
<path fill="none" opacity="1.000000" stroke="#000000" stroke-linecap="round" stroke-linejoin="round" stroke-width="3.000000"
	d="
M202.000000,49.500000 
	C200.000000,49.666664 198.002716,49.913033 195.999359,49.981270 
	C193.014130,50.082951 191.870514,52.320812 192.156357,54.479294 
	C192.501419,57.084991 194.939835,57.997578 197.491577,57.460007 
	C199.329453,57.072823 200.931305,54.577641 203.000000,57.000000 
"/>
<path fill="none" opacity="1.000000" stroke="#000000" stroke-linecap="round" stroke-linejoin="round" stroke-width="5.000000"
	d="
M115.000000,34.000000 
	C115.000000,41.666668 115.000000,49.333332 115.000000,57.000000 
"/>
<path fill="none" opacity="1.000000" stroke="#000000" stroke-linecap="round" stroke-linejoin="round" stroke-width="5.000000"
	d="
M85.000000,43.000000 
	C85.000000,47.666668 85.000000,52.333332 85.000000,57.000000 
"/>
<path fill="none" opacity="1.000000" stroke="#000000" stroke-linecap="round" stroke-linejoin="round" stroke-width="4.000000"
	d="
M52.500000,35.500000 
	C49.984997,33.953350 47.190418,34.643307 44.500000,34.500000 
"/>
<path fill="none" opacity="1.000000" stroke="#000000" stroke-linecap="round" stroke-linejoin="round" stroke-width="3.000000"
	d="
M91.500000,42.500000 
	C89.582626,43.345932 88.434082,45.601379 86.000000,45.500000 
"/>
<path fill="none" opacity="1.000000" stroke="#000000" stroke-linecap="round" stroke-linejoin="round" stroke-width="4.000000"
	d="
M186.500000,42.500000 
	C183.833328,42.500000 181.166672,42.500000 178.500000,42.500000 
"/>
<path fill="none" opacity="1.000000" stroke="#000000" stroke-linecap="round" stroke-linejoin="round" stroke-width="4.000000"
	d="
M139.000000,34.500000 
	C136.919266,34.775669 136.460724,36.134888 136.480301,38.000206 
	C136.536270,43.332951 136.560257,48.667648 136.473648,53.999573 
	C136.432541,56.529846 137.489365,57.403889 139.996933,57.551849 
	C149.318039,58.101852 156.300308,49.582279 152.891724,41.043221 
	C150.587006,35.269501 145.125229,34.329662 139.500000,34.500000 
"/>
</svg>