<svg version="1.1" id="Layer_1" xmlns="http://www.w3.org/2000/svg" xmlns:xlink="http://www.w3.org/1999/xlink" x="0px" y="0px"
	 width="100%" viewBox="1.000026 1.000043 709.9999 281.99997" enable-background="new 0 0 710 282" xml:space="preserve">
<path fill="#FEFEFF" opacity="1.000000" stroke="none" 
	d="
M446.000000,283.000000 
	C297.333374,283.000000 149.166733,283.000000 1.000079,283.000000 
	C1.000053,189.000061 1.000053,95.000114 1.000026,1.000130 
	C237.666550,1.000087 474.333099,1.000087 710.999756,1.000043 
	C710.999817,94.999870 710.999817,188.999741 710.999878,282.999817 
	C622.833313,283.000000 534.666687,283.000000 446.000000,283.000000 
M252.315201,36.811077 
	C256.916901,38.754341 259.582428,42.362083 261.007874,47.790283 
	C262.830414,54.883503 264.652954,61.976723 266.447052,69.814423 
	C268.039185,75.877693 269.631287,81.940964 271.161682,88.786522 
	C279.048492,120.386429 286.935272,151.986343 294.822052,183.586243 
	C295.176727,183.549728 295.531372,183.513214 295.886047,183.476685 
	C299.437775,168.024536 302.989532,152.572388 306.862549,136.477325 
	C307.277222,133.995728 307.691925,131.514114 308.524597,128.507446 
	C308.756775,127.184288 308.988953,125.861122 309.753845,123.925682 
	C310.328003,120.986885 310.902161,118.048088 311.847961,114.498444 
	C312.240997,112.335236 312.634033,110.172028 313.492767,107.430428 
	C313.993286,104.955078 314.493805,102.479721 315.384521,99.532539 
	C315.683197,97.691811 315.981873,95.851082 316.705811,93.427505 
	C317.139038,91.286156 317.572266,89.144814 318.458435,86.410194 
	C320.522339,77.239159 322.586212,68.068115 325.449005,58.515793 
	C334.815613,61.164101 344.197906,63.758438 353.544617,66.475189 
	C363.827515,69.464066 363.813263,69.513130 364.843384,80.929443 
	C364.905518,91.286171 364.967621,101.642906 364.848480,112.922340 
	C364.910004,122.948631 364.971527,132.974930 364.849976,143.923172 
	C364.911682,154.616669 364.973389,165.310165 364.848602,176.924561 
	C364.909576,185.949356 364.970520,194.974152 364.836761,204.919067 
	C364.836761,214.278214 364.836761,223.637360 364.836761,233.327377 
	C368.480164,231.637512 369.211609,222.626282 368.142090,203.079620 
	C368.076538,194.054642 368.010986,185.029648 368.141418,175.084366 
	C368.076385,164.390503 368.011353,153.696625 368.136444,142.081512 
	C368.073364,132.054382 368.010254,122.027245 368.133575,111.078598 
	C368.079956,100.388840 368.026337,89.699081 368.158905,78.148514 
	C368.230682,69.903648 366.287750,66.508011 360.102692,64.636971 
	C350.601532,61.762764 341.115387,58.802162 331.495758,56.383728 
	C329.236176,55.815662 326.468597,57.268314 323.231598,57.923611 
	C317.436371,61.440224 311.641174,64.956841 305.175903,68.697624 
	C303.447815,69.792252 301.719727,70.886879 299.391632,72.091209 
	C298.574646,72.660660 297.757660,73.230110 296.277924,73.898827 
	C294.826752,74.849098 293.375580,75.799370 291.253754,76.911736 
	C289.726166,77.884735 288.198578,78.857735 286.055878,79.953415 
	C285.038849,80.647766 284.021851,81.342110 282.344086,82.112572 
	C280.896118,83.075668 279.448151,84.038757 277.243866,85.154587 
	C276.354584,85.511116 275.465302,85.867653 274.217865,86.367790 
	C272.634796,80.418999 271.123901,74.741386 269.713501,68.297386 
	C267.800232,61.197849 265.886963,54.098312 264.015656,46.220169 
	C263.172913,38.928532 258.745331,34.935577 251.332062,32.739540 
	C246.223373,31.508923 241.114700,30.278305 235.277695,28.913385 
	C233.805115,28.234715 232.388794,27.368109 230.850845,26.907869 
	C220.837784,23.911398 210.837708,20.853811 200.734924,18.189550 
	C198.665497,17.643808 195.794998,18.016964 193.944275,19.089300 
	C175.988739,29.493015 158.244156,40.261257 140.273621,50.638439 
	C134.517319,53.962460 131.711258,58.659142 130.636871,65.664375 
	C129.878036,69.374847 129.119217,73.085312 128.053177,77.460281 
	C127.168808,81.556053 126.284431,85.651825 125.050438,90.396866 
	C124.059685,94.932068 123.068932,99.467270 121.680077,104.655746 
	C120.805023,108.771301 119.929962,112.886864 118.619865,117.639381 
	C117.776878,121.760185 116.933884,125.880997 115.659447,130.647430 
	C114.727692,135.081528 113.795944,139.515640 112.454216,144.566803 
	C111.268227,150.043106 110.082230,155.519394 108.520859,161.659531 
	C107.391014,166.773880 106.261169,171.888245 104.768196,177.608353 
	C104.126755,178.695969 103.485313,179.783600 102.605225,181.275879 
	C101.575752,177.630737 100.780785,174.815933 100.063019,171.187851 
	C98.598656,165.406509 97.134285,159.625153 95.702156,153.000336 
	C94.410698,148.002319 93.119232,143.004288 91.904831,137.217758 
	C90.635117,132.467270 89.365402,127.716789 88.163307,122.138496 
	C86.785492,116.758774 85.407677,111.379044 84.101486,105.169533 
	C82.659561,99.129112 81.217644,93.088692 79.656761,86.549919 
	C74.516449,89.567085 69.972000,91.978523 65.720291,94.826897 
	C63.202919,96.513374 61.147865,98.889931 58.314419,101.470818 
	C57.929928,106.314507 57.545441,111.158203 57.020927,116.927582 
	C57.067963,122.286377 57.114998,127.645172 57.025757,133.931946 
	C57.071457,140.622116 57.117153,147.312302 57.023357,154.930023 
	C57.070602,161.955811 57.117851,168.981613 57.028133,176.934387 
	C57.074089,183.291122 57.120045,189.647858 57.023144,196.931564 
	C57.023144,204.222763 57.023144,211.513947 57.023144,218.875946 
	C61.760162,220.388077 66.151215,221.789780 70.926842,223.314255 
	C70.926842,214.872986 70.926842,206.937683 71.159729,198.089539 
	C71.082230,191.394730 71.004730,184.699936 71.164520,177.093079 
	C71.086967,170.395462 71.009415,163.697861 71.159279,156.086624 
	C71.084450,149.391617 71.009621,142.696609 71.167427,135.389633 
	C71.123253,134.961319 71.079079,134.533020 71.533218,133.917816 
	C71.709244,133.895706 71.885269,133.873611 72.016022,133.924835 
	C72.016022,133.924835 72.094818,133.959747 72.003265,134.750687 
	C73.378891,140.167130 74.754517,145.583588 76.045906,151.809174 
	C77.392181,157.529877 78.738449,163.250595 80.011528,169.778564 
	C81.300919,175.199142 82.590309,180.619736 83.807663,186.863434 
	C84.963684,191.909546 86.119698,196.955643 87.246658,202.791977 
	C88.467621,207.871704 89.688583,212.951447 90.864174,218.867676 
	C91.238029,221.314438 91.377220,223.829514 92.063232,226.185379 
	C92.571938,227.932327 93.420868,230.417038 94.757828,230.940948 
	C100.517296,233.197906 106.512764,234.852600 112.799110,236.846069 
	C114.112183,231.851883 115.277649,227.419098 116.857346,222.303024 
	C117.937447,218.213089 119.017548,214.123138 120.564186,209.460419 
	C121.740051,204.986969 122.915916,200.513504 124.567642,195.455246 
	C125.739319,190.979401 126.910995,186.503571 128.559662,181.458786 
	C129.939148,176.307465 131.318619,171.156158 133.066818,165.315079 
	C134.351135,160.534698 135.635437,155.754303 137.356705,150.375931 
	C138.538727,145.907501 139.720764,141.439087 141.338104,136.371170 
	C142.524307,131.915146 143.710510,127.459137 145.313751,122.359825 
	C146.446411,118.240219 147.579071,114.120605 149.011169,109.364510 
	C149.447647,108.204926 149.884125,107.045341 150.734467,104.786308 
	C150.956375,108.043465 151.091293,110.023674 151.043350,112.920197 
	C151.105377,117.614128 151.167404,122.308052 151.043030,127.914978 
	C151.104263,132.277878 151.165497,136.640793 151.038925,141.918625 
	C151.101593,146.614914 151.164261,151.311188 151.042068,156.925385 
	C151.104797,162.284866 151.167526,167.644333 151.043106,173.922165 
	C151.105240,179.282547 151.167374,184.642914 151.040833,190.918625 
	C151.104034,195.613556 151.167221,200.308472 151.040405,205.918472 
	C151.103546,210.613419 151.166687,215.308365 151.039230,220.918106 
	C151.100754,225.613373 151.162277,230.308624 151.031616,235.915298 
	C151.018173,239.070145 151.232040,242.247116 150.927505,245.373611 
	C150.621552,248.514603 151.963760,249.668808 154.813095,250.518906 
	C163.229050,253.029846 171.544022,255.878677 179.903580,258.579529 
	C185.483200,260.382202 191.071503,262.157928 196.868912,264.013885 
	C196.868912,257.596588 196.868912,251.799225 197.029694,245.084305 
	C196.974930,240.723511 196.920166,236.362717 197.027878,231.081863 
	C196.973343,226.388840 196.918808,221.695816 197.026459,216.081085 
	C196.972198,211.055069 196.917953,206.029053 197.025360,200.081207 
	C196.971771,195.054779 196.918182,190.028366 197.025803,184.078033 
	C196.972534,178.386871 196.919250,172.695724 197.026611,166.083618 
	C196.972900,161.389847 196.919205,156.696091 197.021805,151.083969 
	C196.969208,146.723053 196.916595,142.362137 197.021713,137.080536 
	C196.970169,132.388123 196.918610,127.695702 197.025146,122.082306 
	C196.972534,117.388847 196.919922,112.695381 197.021500,107.080330 
	C196.969269,102.387390 196.917023,97.694450 197.019165,92.091019 
	C196.968414,88.394974 196.917648,84.698929 197.022675,80.076607 
	C197.022675,60.440456 197.022675,40.804306 197.022675,20.783390 
	C210.588272,24.619183 223.305191,28.215002 236.633759,32.209595 
	C241.683853,33.609997 246.733932,35.010399 252.315201,36.811077 
M337.941406,141.104645 
	C337.941406,132.898788 337.941406,124.692917 337.941406,116.487053 
	C337.484558,116.467934 337.027710,116.448814 336.570862,116.429695 
	C334.776062,124.625885 332.981262,132.822067 330.917389,141.747482 
	C329.821106,146.451691 328.724854,151.155899 327.112335,156.414490 
	C326.368774,160.261688 325.625214,164.108902 324.466980,168.578705 
	C323.712219,172.054733 322.957489,175.530762 321.916870,179.737015 
	C321.222015,183.152634 320.527161,186.568253 319.391602,190.580795 
	C318.613068,194.059479 317.834564,197.538177 316.644196,201.649796 
	C315.923798,205.036163 315.203369,208.422531 314.149719,212.469635 
	C312.843842,218.321503 311.537964,224.173386 310.013824,230.655090 
	C309.952545,231.095474 309.891235,231.535858 309.283722,232.456482 
	C307.848206,239.576767 307.729095,240.452881 314.424133,241.363007 
	C320.541229,242.194550 326.954041,240.850250 333.722595,240.458389 
	C334.141541,240.258575 334.560486,240.058746 335.829224,240.021088 
	C336.532318,239.012619 337.783783,238.033371 337.839355,236.990433 
	C338.033478,233.345535 337.814636,229.678650 337.928101,225.109955 
	C337.868713,221.406754 337.809357,217.703552 337.912750,213.086746 
	C337.855560,209.062698 337.798340,205.038651 337.914185,200.097382 
	C337.857727,195.736771 337.801270,191.376160 337.604828,186.198837 
	C337.350494,182.134506 337.096161,178.070190 336.987213,173.113892 
	C337.236755,168.671417 337.486298,164.228928 337.906281,159.028488 
	C337.861450,153.363586 337.816589,147.698669 337.941406,141.104645 
M239.162170,152.901123 
	C239.219223,155.939163 239.276291,158.977188 239.164520,162.928558 
	C239.210403,167.284912 239.256287,171.641251 239.125122,176.885544 
	C239.186661,179.602402 239.248199,182.319275 239.161713,185.943130 
	C239.220551,189.632416 239.279373,193.321701 239.168289,197.912872 
	C239.224792,201.280762 239.281296,204.648636 239.164108,208.916733 
	C239.220642,212.282928 239.277176,215.649109 239.158630,219.934631 
	C239.243042,225.933365 239.327438,231.932098 239.210846,238.626404 
	C239.241196,239.349869 239.271530,240.073334 239.067917,241.664001 
	C239.429047,244.906647 237.750092,248.863464 242.198257,250.680252 
	C252.094940,254.722397 262.033508,254.342072 272.741211,250.889618 
	C274.166626,250.547623 275.592041,250.205627 277.840179,249.949554 
	C280.169006,250.007004 281.775879,249.518539 280.918182,246.563522 
	C277.286072,234.049881 273.712250,221.519287 270.191864,208.203506 
	C269.176239,205.118286 268.160614,202.033066 267.268097,198.160339 
	C266.503204,195.440414 265.738312,192.720474 265.018951,189.221069 
	C263.917786,185.492477 262.816650,181.763885 261.802124,177.296509 
	C260.836273,174.867065 259.870392,172.437637 259.096161,169.204300 
	C258.112488,165.450012 257.128845,161.695724 256.130676,157.167007 
	C255.200241,154.102051 254.269806,151.037109 253.379593,147.156464 
	C252.506500,144.112518 251.633392,141.068573 250.719620,137.258163 
	C247.198303,124.406502 243.676971,111.554840 240.155655,98.703186 
	C239.875198,98.765289 239.594757,98.827393 239.314316,98.889496 
	C239.314316,112.935684 239.314316,126.981873 239.164291,141.930038 
	C239.221405,145.289200 239.278519,148.648361 239.162170,152.901123 
M484.589539,182.947372 
	C485.493774,196.848297 491.803955,207.687851 504.286316,213.794678 
	C516.755310,219.894989 529.029846,218.316620 540.104187,208.957001 
	C540.530396,220.406357 537.830200,225.720871 529.954834,227.767639 
	C521.329407,230.009338 512.775330,230.170105 505.393250,223.801575 
	C504.676697,223.183411 503.707611,222.488022 502.843140,222.470993 
	C496.929657,222.354614 491.012756,222.409943 485.096985,222.409943 
	C484.699463,222.901917 484.301910,223.393906 483.904388,223.885880 
	C486.972473,228.226089 489.454224,233.177292 493.219788,236.790619 
	C504.012695,247.147247 517.610229,247.354446 531.224915,245.288803 
	C546.950500,242.902908 556.442932,232.606125 557.931885,216.829620 
	C558.695496,208.739029 558.833740,200.572235 558.903381,192.436874 
	C559.044128,175.976730 558.945374,159.514542 558.945374,142.805298 
	C552.715881,142.805298 546.845825,142.805298 540.961121,142.805298 
	C540.652527,145.155746 540.390015,147.155075 540.044434,149.787430 
	C538.493408,148.657776 537.569153,148.004852 536.666077,147.323883 
	C523.789368,137.613953 507.307617,138.522690 495.667572,149.671295 
	C486.413940,158.534256 483.827728,169.752319 484.589539,182.947372 
M469.178406,154.515442 
	C469.178406,150.703690 469.178406,146.891922 469.178406,142.765839 
	C463.031891,142.765839 457.290924,142.765839 451.461090,142.765839 
	C451.227539,145.217911 451.021057,147.385620 450.782715,149.887711 
	C431.401001,133.092133 408.307251,141.024536 399.128510,159.569809 
	C392.723846,172.510147 392.707672,185.968964 398.836853,199.145523 
	C404.870239,212.116226 417.796844,220.449493 431.344177,218.711945 
	C438.090363,217.846725 444.467743,214.105667 451.040375,211.654892 
	C451.089813,212.525726 451.205750,214.567520 451.329437,216.745636 
	C457.371368,216.745636 463.098480,216.745636 469.178497,216.745636 
	C469.178497,196.118546 469.178497,175.814941 469.178406,154.515442 
M666.179993,214.813309 
	C670.652832,211.351349 675.125671,207.889404 680.144226,204.005066 
	C674.416748,199.947205 669.970642,196.797226 665.625977,193.719101 
	C651.545959,204.229553 638.250244,204.567734 629.541992,194.867584 
	C622.498047,187.021301 622.717651,173.035904 630.009705,165.076126 
	C638.786133,155.496033 651.738831,155.735779 665.582153,165.930756 
	C670.273682,163.223709 675.078125,160.451523 679.902954,157.667587 
	C671.871948,145.190170 658.240723,139.438660 641.254944,140.987915 
	C624.822205,142.486755 611.009216,154.533676 607.048218,170.821075 
	C603.133911,186.916321 609.820923,204.566711 623.781250,212.987686 
	C637.128601,221.038971 651.248230,220.942902 666.179993,214.813309 
M587.478088,142.565048 
	C583.519104,142.565048 579.560120,142.565048 575.390015,142.565048 
	C575.390015,167.634995 575.390015,192.188156 575.390015,216.759552 
	C581.463196,216.759552 587.215576,216.759552 593.057739,216.759552 
	C593.057739,192.028076 593.057739,167.605896 593.057739,142.850952 
	C591.381592,142.746414 589.928406,142.655792 587.478088,142.565048 
M576.057556,115.541473 
	C571.220093,121.835114 571.536621,128.489151 576.899597,133.241577 
	C581.417603,137.245270 587.854431,137.068527 592.205078,132.821350 
	C596.792725,128.342651 597.115051,121.073677 592.943787,116.159172 
	C588.614746,111.058769 582.819580,110.656425 576.057556,115.541473 
z"/>
<path fill="#0482CD" opacity="1.000000" stroke="none" 
	d="
M484.531067,182.504883 
	C483.827728,169.752319 486.413940,158.534256 495.667572,149.671295 
	C507.307617,138.522690 523.789368,137.613953 536.666077,147.323883 
	C537.569153,148.004852 538.493408,148.657776 540.044434,149.787430 
	C540.390015,147.155075 540.652527,145.155746 540.961121,142.805298 
	C546.845825,142.805298 552.715881,142.805298 558.945374,142.805298 
	C558.945374,159.514542 559.044128,175.976730 558.903381,192.436874 
	C558.833740,200.572235 558.695496,208.739029 557.931885,216.829620 
	C556.442932,232.606125 546.950500,242.902908 531.224915,245.288803 
	C517.610229,247.354446 504.012695,247.147247 493.219788,236.790619 
	C489.454224,233.177292 486.972473,228.226089 483.904388,223.885880 
	C484.301910,223.393906 484.699463,222.901917 485.096985,222.409943 
	C491.012756,222.409943 496.929657,222.354614 502.843140,222.470993 
	C503.707611,222.488022 504.676697,223.183411 505.393250,223.801575 
	C512.775330,230.170105 521.329407,230.009338 529.954834,227.767639 
	C537.830200,225.720871 540.530396,220.406357 540.104187,208.957001 
	C529.029846,218.316620 516.755310,219.894989 504.286316,213.794678 
	C491.803955,207.687851 485.493774,196.848297 484.531067,182.504883 
M502.274292,178.580627 
	C502.503998,188.670715 507.472046,196.349304 515.434387,198.920807 
	C523.713562,201.594635 532.127686,199.321381 537.169373,193.048615 
	C542.440918,186.489883 543.073059,174.458923 538.530884,167.137894 
	C534.284363,160.293427 525.743591,156.818481 517.708191,158.666031 
	C508.755005,160.724579 503.335815,167.420242 502.274292,178.580627 
z"/>
<path fill="#0482CD" opacity="1.000000" stroke="none" 
	d="
M469.178467,155.013397 
	C469.178497,175.814941 469.178497,196.118546 469.178497,216.745636 
	C463.098480,216.745636 457.371368,216.745636 451.329437,216.745636 
	C451.205750,214.567520 451.089813,212.525726 451.040375,211.654892 
	C444.467743,214.105667 438.090363,217.846725 431.344177,218.711945 
	C417.796844,220.449493 404.870239,212.116226 398.836853,199.145523 
	C392.707672,185.968964 392.723846,172.510147 399.128510,159.569809 
	C408.307251,141.024536 431.401001,133.092133 450.782715,149.887711 
	C451.021057,147.385620 451.227539,145.217911 451.461090,142.765839 
	C457.290924,142.765839 463.031891,142.765839 469.178406,142.765839 
	C469.178406,146.891922 469.178406,150.703690 469.178467,155.013397 
M438.328094,158.765366 
	C428.627869,156.412933 420.673676,158.997406 416.181000,166.710632 
	C411.098297,175.436920 411.152649,184.543869 416.450043,193.184586 
	C420.786591,200.258041 429.095428,203.309799 436.751465,201.296402 
	C445.335632,199.038925 451.021149,192.177399 451.898285,183.016602 
	C453.001099,171.498505 448.962250,163.921539 438.328094,158.765366 
z"/>
<path fill="#0583CD" opacity="1.000000" stroke="none" 
	d="
M665.831909,214.961304 
	C651.248230,220.942902 637.128601,221.038971 623.781250,212.987686 
	C609.820923,204.566711 603.133911,186.916321 607.048218,170.821075 
	C611.009216,154.533676 624.822205,142.486755 641.254944,140.987915 
	C658.240723,139.438660 671.871948,145.190170 679.902954,157.667587 
	C675.078125,160.451523 670.273682,163.223709 665.582153,165.930756 
	C651.738831,155.735779 638.786133,155.496033 630.009705,165.076126 
	C622.717651,173.035904 622.498047,187.021301 629.541992,194.867584 
	C638.250244,204.567734 651.545959,204.229553 665.625977,193.719101 
	C669.970642,196.797226 674.416748,199.947205 680.144226,204.005066 
	C675.125671,207.889404 670.652832,211.351349 665.831909,214.961304 
z"/>
<path fill="#03A1E9" opacity="1.000000" stroke="none" 
	d="
M131.074249,65.003082 
	C131.711258,58.659142 134.517319,53.962460 140.273621,50.638439 
	C158.244156,40.261257 175.988739,29.493015 193.944275,19.089300 
	C195.794998,18.016964 198.665497,17.643808 200.734924,18.189550 
	C210.837708,20.853811 220.837784,23.911398 230.850845,26.907869 
	C232.388794,27.368109 233.805115,28.234715 235.643570,29.325974 
	C236.013657,30.429312 236.017883,31.120066 236.022095,31.810818 
	C223.305191,28.215002 210.588272,24.619183 197.022675,20.783390 
	C197.022675,40.804306 197.022675,60.440456 196.543091,80.537659 
	C183.727356,77.839508 171.410110,74.603859 159.048874,71.546143 
	C149.753281,69.246765 140.401184,67.175751 131.074249,65.003082 
z"/>
<path fill="#0281CC" opacity="1.000000" stroke="none" 
	d="
M587.976685,142.565094 
	C589.928406,142.655792 591.381592,142.746414 593.057739,142.850952 
	C593.057739,167.605896 593.057739,192.028076 593.057739,216.759552 
	C587.215576,216.759552 581.463196,216.759552 575.390015,216.759552 
	C575.390015,192.188156 575.390015,167.634995 575.390015,142.565048 
	C579.560120,142.565048 583.519104,142.565048 587.976685,142.565094 
z"/>
<path fill="#06468F" opacity="1.000000" stroke="none" 
	d="
M306.541260,137.120224 
	C302.989532,152.572388 299.437775,168.024536 295.886047,183.476685 
	C295.531372,183.513214 295.176727,183.549728 294.822052,183.586243 
	C286.935272,151.986343 279.048492,120.386429 271.544373,88.406937 
	C272.699829,88.536865 273.747833,88.869827 274.204742,89.582001 
	C282.948090,103.210381 291.549866,116.930199 300.375641,130.504517 
	C301.994110,132.993729 304.464233,134.929169 306.541260,137.120224 
z"/>
<path fill="#04448E" opacity="1.000000" stroke="none" 
	d="
M270.117126,208.994904 
	C273.712250,221.519287 277.286072,234.049881 280.918182,246.563522 
	C281.775879,249.518539 280.169006,250.007004 277.378235,249.555084 
	C272.994354,247.633102 269.161835,245.792099 265.132019,244.643051 
	C256.613251,242.214050 247.991409,240.146591 239.411850,237.930832 
	C239.327438,231.932098 239.243042,225.933365 239.638474,219.472931 
	C242.662537,218.377563 245.272720,217.933350 247.738678,217.074875 
	C255.228088,214.467529 262.661743,211.700027 270.117126,208.994904 
z"/>
<path fill="#0291D6" opacity="1.000000" stroke="none" 
	d="
M151.226212,112.003891 
	C151.091293,110.023674 150.956375,108.043465 150.734467,104.786308 
	C149.884125,107.045341 149.447647,108.204926 148.473938,109.681946 
	C146.341751,109.635612 144.745483,109.277466 143.152054,108.907082 
	C136.126984,107.274132 129.102722,105.637665 122.078171,104.002472 
	C123.068932,99.467270 124.059685,94.932068 125.623657,90.232018 
	C141.230865,94.055763 156.242706,98.130508 171.307449,101.999306 
	C179.782318,104.175743 188.344482,106.012260 196.867310,108.001923 
	C196.919922,112.695381 196.972534,117.388847 196.560333,122.533417 
	C189.443405,121.176773 182.826538,119.223892 176.130234,117.598206 
	C167.863403,115.591255 159.530548,113.856346 151.226212,112.003891 
z"/>
<path fill="#0197DE" opacity="1.000000" stroke="none" 
	d="
M196.944397,107.541122 
	C188.344482,106.012260 179.782318,104.175743 171.307449,101.999306 
	C156.242706,98.130508 141.230865,94.055763 125.798477,89.907379 
	C126.284431,85.651825 127.168808,81.556053 128.672577,77.181976 
	C131.084885,77.188980 132.911743,77.339569 134.665222,77.781410 
	C146.227325,80.694756 157.753906,83.750923 169.331390,86.600830 
	C178.480042,88.852859 187.684891,90.876465 196.864792,93.001511 
	C196.917023,97.694450 196.969269,102.387390 196.944397,107.541122 
z"/>
<path fill="#009CE4" opacity="1.000000" stroke="none" 
	d="
M196.941986,92.546265 
	C187.684891,90.876465 178.480042,88.852859 169.331390,86.600830 
	C157.753906,83.750923 146.227325,80.694756 134.665222,77.781410 
	C132.911743,77.339569 131.084885,77.188980 128.826172,76.849731 
	C129.119217,73.085312 129.878036,69.374847 130.855560,65.333725 
	C140.401184,67.175751 149.753281,69.246765 159.048874,71.546143 
	C171.410110,74.603859 183.727356,77.839508 196.465179,81.000793 
	C196.917648,84.698929 196.968414,88.394974 196.941986,92.546265 
z"/>
<path fill="#0075B9" opacity="1.000000" stroke="none" 
	d="
M196.865967,167.004547 
	C196.919250,172.695724 196.972534,178.386871 196.580215,184.491821 
	C191.722763,183.551682 187.354279,182.029785 182.890366,180.877426 
	C172.361176,178.159256 161.786514,175.617142 151.230255,173.003815 
	C151.167526,167.644333 151.104797,162.284866 151.550171,156.465759 
	C153.857071,156.229431 155.705826,156.258636 157.446686,156.706879 
	C170.598373,160.093140 183.728867,163.561691 196.865967,167.004547 
z"/>
<path fill="#006CB0" opacity="1.000000" stroke="none" 
	d="
M151.136688,173.462982 
	C161.786514,175.617142 172.361176,178.159256 182.890366,180.877426 
	C187.354279,182.029785 191.722763,183.551682 196.499603,184.953781 
	C196.918182,190.028366 196.971771,195.054779 196.546722,200.540222 
	C192.699173,200.161194 189.332932,199.312134 185.960846,198.487045 
	C174.384857,195.654587 162.806793,192.830551 151.229507,190.003296 
	C151.167374,184.642914 151.105240,179.282547 151.136688,173.462982 
z"/>
<path fill="#034F96" opacity="1.000000" stroke="none" 
	d="
M196.868912,246.001877 
	C196.868912,251.799225 196.868912,257.596588 196.868912,264.013885 
	C191.071503,262.157928 185.483200,260.382202 179.903580,258.579529 
	C171.544022,255.878677 163.229050,253.029846 154.813095,250.518906 
	C151.963760,249.668808 150.621552,248.514603 150.927505,245.373611 
	C151.232040,242.247116 151.018173,239.070145 151.525879,235.460693 
	C152.997986,235.163040 153.993683,235.248383 154.950943,235.487610 
	C168.926605,238.980301 182.897156,242.493546 196.868912,246.001877 
z"/>
<path fill="#0065A9" opacity="1.000000" stroke="none" 
	d="
M151.135162,190.460953 
	C162.806793,192.830551 174.384857,195.654587 185.960846,198.487045 
	C189.332932,199.312134 192.699173,200.161194 196.465897,201.001144 
	C196.917953,206.029053 196.972198,211.055069 196.564789,216.533493 
	C181.145554,212.991730 166.187988,208.997574 151.230408,205.003403 
	C151.167221,200.308472 151.104034,195.613556 151.135162,190.460953 
z"/>
<path fill="#008ACF" opacity="1.000000" stroke="none" 
	d="
M151.134781,112.462044 
	C159.530548,113.856346 167.863403,115.591255 176.130234,117.598206 
	C182.826538,119.223892 189.443405,121.176773 196.481277,122.993904 
	C196.918610,127.695702 196.970169,132.388123 196.566162,137.488617 
	C188.980774,135.965927 181.888016,133.881882 174.711060,132.145813 
	C166.924698,130.262314 159.059982,128.702789 151.229431,127.001984 
	C151.167404,122.308052 151.105377,117.614128 151.134781,112.462044 
z"/>
<path fill="#0367AA" opacity="1.000000" stroke="none" 
	d="
M83.879707,186.040314 
	C82.590309,180.619736 81.300919,175.199142 80.370361,169.235962 
	C81.825836,168.750992 82.945442,168.686279 84.015266,168.886917 
	C89.345970,169.886673 94.663597,170.956177 99.985825,172.001129 
	C100.780785,174.815933 101.575752,177.630737 102.605225,181.275879 
	C103.485313,179.783600 104.126755,178.695969 105.379044,177.305649 
	C113.354156,178.677872 120.718414,180.352798 128.082672,182.027725 
	C126.910995,186.503571 125.739319,190.979401 123.980637,195.597351 
	C115.505669,193.528076 107.656784,191.161621 99.715866,189.160309 
	C94.505959,187.847290 89.163048,187.061966 83.879707,186.040314 
z"/>
<path fill="#005DA2" opacity="1.000000" stroke="none" 
	d="
M151.135406,205.460938 
	C166.187988,208.997574 181.145554,212.991730 196.483704,216.994354 
	C196.918808,221.695816 196.973343,226.388840 196.581421,231.493744 
	C191.075455,230.431473 186.046936,228.838577 180.949814,227.508484 
	C171.063538,224.928665 161.138687,222.496613 151.229828,220.003311 
	C151.166687,215.308365 151.103546,210.613419 151.135406,205.460938 
z"/>
<path fill="#027DC1" opacity="1.000000" stroke="none" 
	d="
M196.946289,166.544083 
	C183.728867,163.561691 170.598373,160.093140 157.446686,156.706879 
	C155.705826,156.258636 153.857071,156.229431 151.642609,156.006805 
	C151.164261,151.311188 151.101593,146.614914 151.535370,141.460739 
	C156.970474,142.149124 161.923767,143.236252 166.844727,144.454071 
	C176.860886,146.932831 186.859589,149.482101 196.865509,152.002319 
	C196.919205,156.696091 196.972900,161.389847 196.946289,166.544083 
z"/>
<path fill="#01569B" opacity="1.000000" stroke="none" 
	d="
M151.134521,220.460709 
	C161.138687,222.496613 171.063538,224.928665 180.949814,227.508484 
	C186.046936,228.838577 191.075455,230.431473 196.500183,231.953766 
	C196.920166,236.362717 196.974930,240.723511 196.949310,245.543091 
	C182.897156,242.493546 168.926605,238.980301 154.950943,235.487610 
	C153.993683,235.248383 152.997986,235.163040 151.621979,235.005005 
	C151.162277,230.308624 151.100754,225.613373 151.134521,220.460709 
z"/>
<path fill="#0083C8" opacity="1.000000" stroke="none" 
	d="
M196.943649,151.543152 
	C186.859589,149.482101 176.860886,146.932831 166.844727,144.454071 
	C161.923767,143.236252 156.970474,142.149124 151.629272,141.003265 
	C151.165497,136.640793 151.104263,132.277878 151.136230,127.458481 
	C159.059982,128.702789 166.924698,130.262314 174.711060,132.145813 
	C181.888016,133.881882 188.980774,135.965927 196.487305,137.948975 
	C196.916595,142.362137 196.969208,146.723053 196.943649,151.543152 
z"/>
<path fill="#025FA3" opacity="1.000000" stroke="none" 
	d="
M83.843689,186.451874 
	C89.163048,187.061966 94.505959,187.847290 99.715866,189.160309 
	C107.656784,191.161621 115.505669,193.528076 123.742706,195.889755 
	C122.915916,200.513504 121.740051,204.986969 119.932365,209.731567 
	C108.625603,207.335709 97.950661,204.668732 87.275719,202.001755 
	C86.119698,196.955643 84.963684,191.909546 83.843689,186.451874 
z"/>
<path fill="#037FC2" opacity="1.000000" stroke="none" 
	d="
M57.162033,133.003967 
	C57.114998,127.645172 57.067963,122.286377 57.487171,116.465103 
	C59.709198,116.398109 61.467140,116.784279 63.220394,117.190681 
	C71.512863,119.112862 79.804047,121.040565 88.095688,122.966301 
	C89.365402,127.716789 90.635117,132.467270 91.457321,137.611176 
	C84.704811,136.656326 78.399811,135.308029 72.094818,133.959747 
	C72.094818,133.959747 72.016022,133.924835 72.009361,133.596802 
	C71.875778,132.795959 71.748856,132.323166 71.621925,131.850372 
	C71.426247,131.877350 71.230576,131.904327 71.034897,131.931320 
	C71.034897,132.655777 71.034897,133.380249 71.034897,134.104706 
	C71.079079,134.533020 71.123253,134.961319 70.649788,135.695557 
	C65.808777,135.002319 61.485401,134.003143 57.162033,133.003967 
z"/>
<path fill="#0284C8" opacity="1.000000" stroke="none" 
	d="
M88.129501,122.552399 
	C79.804047,121.040565 71.512863,119.112862 63.220394,117.190681 
	C61.467140,116.784279 59.709198,116.398109 57.557182,116.002258 
	C57.545441,111.158203 57.929928,106.314507 59.015434,101.227585 
	C61.462399,101.362259 63.204933,101.756836 64.954903,102.115067 
	C71.311874,103.416412 77.671333,104.705566 84.029854,105.999321 
	C85.407677,111.379044 86.785492,116.758774 88.129501,122.552399 
z"/>
<path fill="#0583CD" opacity="1.000000" stroke="none" 
	d="
M576.325989,115.282784 
	C582.819580,110.656425 588.614746,111.058769 592.943787,116.159172 
	C597.115051,121.073677 596.792725,128.342651 592.205078,132.821350 
	C587.854431,137.068527 581.417603,137.245270 576.899597,133.241577 
	C571.536621,128.489151 571.220093,121.835114 576.325989,115.282784 
z"/>
<path fill="#04448E" opacity="1.000000" stroke="none" 
	d="
M310.232056,230.025253 
	C311.537964,224.173386 312.843842,218.321503 314.717346,212.191223 
	C318.011108,213.594589 320.749939,215.256210 323.460602,216.962631 
	C328.233734,219.967377 332.989624,222.999481 337.752716,226.020111 
	C337.814636,229.678650 338.033478,233.345535 337.839355,236.990433 
	C337.783783,238.033371 336.532318,239.012619 335.345886,239.591309 
	C333.073029,238.523132 331.283508,237.884735 329.118774,237.283493 
	C327.502869,237.150085 326.262177,236.979523 324.947571,236.473358 
	C319.993134,234.100235 315.112579,232.062744 310.232056,230.025253 
z"/>
<path fill="#03579C" opacity="1.000000" stroke="none" 
	d="
M87.261185,202.396866 
	C97.950661,204.668732 108.625603,207.335709 119.699097,210.017944 
	C119.017548,214.123138 117.937447,218.213089 116.272690,222.647263 
	C107.428543,221.338058 99.169044,219.684616 90.909546,218.031174 
	C89.688583,212.951447 88.467621,207.871704 87.261185,202.396866 
z"/>
<path fill="#0377BA" opacity="1.000000" stroke="none" 
	d="
M108.896225,160.995697 
	C110.082230,155.519394 111.268227,150.043106 113.054993,144.311569 
	C121.410423,146.362198 129.165085,148.668060 136.919739,150.973923 
	C135.635437,155.754303 134.351135,160.534698 132.472473,165.660538 
	C130.098434,165.777069 128.284302,165.696350 126.545326,165.292221 
	C120.647957,163.921753 114.777168,162.436859 108.896225,160.995697 
z"/>
<path fill="#055499" opacity="1.000000" stroke="none" 
	d="
M306.701904,136.798767 
	C304.464233,134.929169 301.994110,132.993729 300.375641,130.504517 
	C291.549866,116.930199 282.948090,103.210381 274.204742,89.582001 
	C273.747833,88.869827 272.699829,88.536865 271.575226,88.015793 
	C269.631287,81.940964 268.039185,75.877693 266.775391,69.436050 
	C267.940155,69.059715 268.776581,69.061752 269.613007,69.063774 
	C271.123901,74.741386 272.634796,80.418999 274.217865,86.367790 
	C275.465302,85.867653 276.354584,85.511116 277.771790,85.384682 
	C286.699554,98.742264 295.049072,111.902565 303.562378,124.956047 
	C304.636169,126.602463 306.570801,127.687408 308.106628,129.032501 
	C307.691925,131.514114 307.277222,133.995728 306.701904,136.798767 
z"/>
<path fill="#036EB1" opacity="1.000000" stroke="none" 
	d="
M108.708542,161.327606 
	C114.777168,162.436859 120.647957,163.921753 126.545326,165.292221 
	C128.284302,165.696350 130.098434,165.777069 132.288116,166.005417 
	C131.318619,171.156158 129.939148,176.307465 128.321167,181.743256 
	C120.718414,180.352798 113.354156,178.677872 105.560608,177.002777 
	C106.261169,171.888245 107.391014,166.773880 108.708542,161.327606 
z"/>
<path fill="#037FC2" opacity="1.000000" stroke="none" 
	d="
M137.138214,150.674927 
	C129.165085,148.668060 121.410423,146.362198 113.259979,144.003036 
	C113.795944,139.515640 114.727692,135.081528 116.269562,130.332886 
	C124.887375,132.335770 132.895096,134.653214 140.902802,136.970657 
	C139.720764,141.439087 138.538727,145.907501 137.138214,150.674927 
z"/>
<path fill="#038BCF" opacity="1.000000" stroke="none" 
	d="
M121.879120,104.329109 
	C129.102722,105.637665 136.126984,107.274132 143.152054,108.907082 
	C144.745483,109.277466 146.341751,109.635612 148.324234,110.000198 
	C147.579071,114.120605 146.446411,118.240219 144.699402,122.680115 
	C135.741653,121.001068 127.398277,119.001747 119.054901,117.002419 
	C119.929962,112.886864 120.805023,108.771301 121.879120,104.329109 
z"/>
<path fill="#0284C8" opacity="1.000000" stroke="none" 
	d="
M118.837387,117.320900 
	C127.398277,119.001747 135.741653,121.001068 144.490875,123.001755 
	C143.710510,127.459137 142.524307,131.915146 141.120453,136.670914 
	C132.895096,134.653214 124.887375,132.335770 116.485275,130.010071 
	C116.933884,125.880997 117.776878,121.760185 118.837387,117.320900 
z"/>
<path fill="#0570B3" opacity="1.000000" stroke="none" 
	d="
M100.024422,171.594482 
	C94.663597,170.956177 89.345970,169.886673 84.015266,168.886917 
	C82.945442,168.686279 81.825836,168.750992 80.406952,168.832321 
	C78.738449,163.250595 77.392181,157.529877 76.509628,151.405273 
	C78.897034,151.263077 80.825211,151.495682 82.743469,151.792374 
	C87.054901,152.459290 91.361412,153.158035 95.669922,153.843811 
	C97.134285,159.625153 98.598656,165.406509 100.024422,171.594482 
z"/>
<path fill="#034F96" opacity="1.000000" stroke="none" 
	d="
M270.154480,208.599213 
	C262.661743,211.700027 255.228088,214.467529 247.738678,217.074875 
	C245.272720,217.933350 242.662537,218.377563 239.726013,219.013275 
	C239.277176,215.649109 239.220642,212.282928 239.642944,208.464630 
	C242.504883,207.456131 244.963104,207.112595 247.256927,206.303192 
	C253.921585,203.951492 260.520355,201.413025 267.144989,198.947845 
	C268.160614,202.033066 269.176239,205.118286 270.154480,208.599213 
z"/>
<path fill="#03559A" opacity="1.000000" stroke="none" 
	d="
M70.926842,199.002396 
	C70.926842,206.937683 70.926842,214.872986 70.926842,223.314255 
	C66.151215,221.789780 61.760162,220.388077 57.023144,218.875946 
	C57.023144,211.513947 57.023144,204.222763 57.481911,196.476105 
	C62.269398,197.014557 66.598122,198.008469 70.926842,199.002396 
z"/>
<path fill="#055499" opacity="1.000000" stroke="none" 
	d="
M90.886856,218.449432 
	C99.169044,219.684616 107.428543,221.338058 116.065575,222.988922 
	C115.277649,227.419098 114.112183,231.851883 112.799110,236.846069 
	C106.512764,234.852600 100.517296,233.197906 94.757828,230.940948 
	C93.420868,230.417038 92.571938,227.932327 92.063232,226.185379 
	C91.377220,223.829514 91.238029,221.314438 90.886856,218.449432 
z"/>
<path fill="#0377BA" opacity="1.000000" stroke="none" 
	d="
M95.686035,153.422073 
	C91.361412,153.158035 87.054901,152.459290 82.743469,151.792374 
	C80.825211,151.495682 78.897034,151.263077 76.551750,151.000702 
	C74.754517,145.583588 73.378891,140.167130 72.049042,134.355225 
	C78.399811,135.308029 84.704811,136.656326 91.418785,138.005432 
	C93.119232,143.004288 94.410698,148.002319 95.686035,153.422073 
z"/>
<path fill="#036AAD" opacity="1.000000" stroke="none" 
	d="
M239.338211,197.010986 
	C239.279373,193.321701 239.220551,189.632416 239.599823,185.474976 
	C247.263779,182.682983 254.489639,180.359146 261.715485,178.035294 
	C262.816650,181.763885 263.917786,185.492477 264.587036,189.611542 
	C262.264374,190.414337 260.341461,190.716614 258.488739,191.258881 
	C252.092026,193.131104 245.719772,195.086975 239.338211,197.010986 
z"/>
<path fill="#036AAD" opacity="1.000000" stroke="none" 
	d="
M57.165092,176.007416 
	C57.117851,168.981613 57.070602,161.955811 57.480648,154.474335 
	C62.269245,155.012527 66.600555,156.006378 70.931862,157.000244 
	C71.009415,163.697861 71.086967,170.395462 70.620895,177.549927 
	C65.773209,177.340317 61.469151,176.673859 57.165092,176.007416 
z"/>
<path fill="#005DA2" opacity="1.000000" stroke="none" 
	d="
M239.253250,197.461929 
	C245.719772,195.086975 252.092026,193.131104 258.488739,191.258881 
	C260.341461,190.716614 262.264374,190.414337 264.564270,190.001282 
	C265.738312,192.720474 266.503204,195.440414 267.206543,198.554092 
	C260.520355,201.413025 253.921585,203.951492 247.256927,206.303192 
	C244.963104,207.112595 242.504883,207.456131 239.729782,208.014526 
	C239.281296,204.648636 239.224792,201.280762 239.253250,197.461929 
z"/>
<path fill="#0075B9" opacity="1.000000" stroke="none" 
	d="
M71.045570,156.543427 
	C66.600555,156.006378 62.269245,155.012527 57.550396,154.010559 
	C57.117153,147.312302 57.071457,140.622116 57.093895,133.467957 
	C61.485401,134.003143 65.808777,135.002319 70.533470,136.001556 
	C71.009621,142.696609 71.084450,149.391617 71.045570,156.543427 
z"/>
<path fill="#005DA2" opacity="1.000000" stroke="none" 
	d="
M57.096611,176.470901 
	C61.469151,176.673859 65.773209,177.340317 70.502258,178.005951 
	C71.004730,184.699936 71.082230,191.394730 71.043289,198.545959 
	C66.598122,198.008469 62.269398,197.014557 57.553337,196.012604 
	C57.120045,189.647858 57.074089,183.291122 57.096611,176.470901 
z"/>
<path fill="#03A1E9" opacity="1.000000" stroke="none" 
	d="
M324.650085,58.897072 
	C322.586212,68.068115 320.522339,77.239159 317.927399,86.558220 
	C313.546234,80.628647 309.696106,74.551048 305.845947,68.473457 
	C311.641174,64.956841 317.436371,61.440224 323.640350,58.078693 
	C324.164459,58.531898 324.364777,58.752998 324.650085,58.897072 
z"/>
<path fill="#12A4E8" opacity="1.000000" stroke="none" 
	d="
M239.314316,141.028061 
	C239.314316,126.981873 239.314316,112.935684 239.314316,98.889496 
	C239.594757,98.827393 239.875198,98.765289 240.155655,98.703186 
	C243.676971,111.554840 247.198303,124.406502 250.368500,137.645874 
	C246.449677,139.031738 242.882004,140.029892 239.314316,141.028061 
z"/>
<path fill="#078DD0" opacity="1.000000" stroke="none" 
	d="
M84.065674,105.584427 
	C77.671333,104.705566 71.311874,103.416412 64.954903,102.115067 
	C63.204933,101.756836 61.462399,101.362259 59.300690,100.970268 
	C61.147865,98.889931 63.202919,96.513374 65.720291,94.826897 
	C69.972000,91.978523 74.516449,89.567085 79.656761,86.549919 
	C81.217644,93.088692 82.659561,99.129112 84.065674,105.584427 
z"/>
<path fill="#005DA2" opacity="1.000000" stroke="none" 
	d="
M317.056030,201.016861 
	C317.834564,197.538177 318.613068,194.059479 319.973083,190.315292 
	C321.385651,190.547852 322.230774,191.024063 323.045563,191.547546 
	C327.947937,194.697220 332.843384,197.857727 337.741150,201.014603 
	C337.798340,205.038651 337.855560,209.062698 337.462677,213.542786 
	C335.558563,213.389038 333.948914,213.005295 332.677643,212.130035 
	C327.414764,208.506531 322.254181,204.734406 317.056030,201.016861 
z"/>
<path fill="#025FA3" opacity="1.000000" stroke="none" 
	d="
M308.315613,128.769974 
	C306.570801,127.687408 304.636169,126.602463 303.562378,124.956047 
	C295.049072,111.902565 286.699554,98.742264 278.149933,85.308319 
	C279.448151,84.038757 280.896118,83.075668 282.708313,82.430161 
	C283.842010,84.386917 284.439362,86.136444 285.408173,87.647842 
	C293.306580,99.969704 301.274414,112.247070 309.221130,124.537964 
	C308.988953,125.861122 308.756775,127.184288 308.315613,128.769974 
z"/>
<path fill="#09549A" opacity="1.000000" stroke="none" 
	d="
M316.850098,201.333328 
	C322.254181,204.734406 327.414764,208.506531 332.677643,212.130035 
	C333.948914,213.005295 335.558563,213.389038 337.381287,213.999573 
	C337.809357,217.703552 337.868713,221.406754 337.840393,225.565033 
	C332.989624,222.999481 328.233734,219.967377 323.460602,216.962631 
	C320.749939,215.256210 318.011108,213.594589 314.883972,211.860840 
	C315.203369,208.422531 315.923798,205.036163 316.850098,201.333328 
z"/>
<path fill="#036AAD" opacity="1.000000" stroke="none" 
	d="
M309.487488,124.231827 
	C301.274414,112.247070 293.306580,99.969704 285.408173,87.647842 
	C284.439362,86.136444 283.842010,84.386917 283.038666,82.392105 
	C284.021851,81.342110 285.038849,80.647766 286.674469,80.079781 
	C294.100494,90.937355 300.861908,101.698433 307.778961,112.358513 
	C308.562805,113.566536 310.222687,114.206123 311.476349,115.109299 
	C310.902161,118.048088 310.328003,120.986885 309.487488,124.231827 
z"/>
<path fill="#0284C8" opacity="1.000000" stroke="none" 
	d="
M239.302170,175.997604 
	C239.256287,171.641251 239.210403,167.284912 239.640869,162.469147 
	C241.872086,161.682678 243.655289,161.462418 245.375992,161.006409 
	C248.983139,160.050491 252.557404,158.970490 256.145172,157.941437 
	C257.128845,161.695724 258.112488,165.450012 258.633301,169.654175 
	C251.881042,172.068558 245.591599,174.033081 239.302170,175.997604 
z"/>
<path fill="#8DB8DC" opacity="1.000000" stroke="none" 
	d="
M271.997223,250.942703 
	C262.033508,254.342072 252.094940,254.722397 242.198257,250.680252 
	C237.750092,248.863464 239.429047,244.906647 239.556931,241.300476 
	C250.696365,244.272202 261.346802,247.607452 271.997223,250.942703 
z"/>
<path fill="#036AAD" opacity="1.000000" stroke="none" 
	d="
M337.827667,200.556000 
	C332.843384,197.857727 327.947937,194.697220 323.045563,191.547546 
	C322.230774,191.024063 321.385651,190.547852 320.193420,190.016830 
	C320.527161,186.568253 321.222015,183.152634 322.415436,179.377365 
	C325.013031,180.243805 327.077911,181.533691 329.219543,182.680161 
	C332.029633,184.184448 334.900208,185.575684 337.744812,187.015549 
	C337.801270,191.376160 337.857727,195.736771 337.827667,200.556000 
z"/>
<path fill="#0377BA" opacity="1.000000" stroke="none" 
	d="
M311.662170,114.803871 
	C310.222687,114.206123 308.562805,113.566536 307.778961,112.358513 
	C300.861908,101.698433 294.100494,90.937355 286.982025,80.018433 
	C288.198578,78.857735 289.726166,77.884735 291.635681,77.198807 
	C297.721832,86.543541 303.372406,95.635933 309.186981,104.622192 
	C310.079590,106.001732 311.728119,106.892181 313.027039,108.008820 
	C312.634033,110.172028 312.240997,112.335236 311.662170,114.803871 
z"/>
<path fill="#12A4E8" opacity="1.000000" stroke="none" 
	d="
M325.049561,58.706432 
	C324.364777,58.752998 324.164459,58.531898 323.991913,58.012550 
	C326.468597,57.268314 329.236176,55.815662 331.495758,56.383728 
	C341.115387,58.802162 350.601532,61.762764 360.102692,64.636971 
	C366.287750,66.508011 368.230682,69.903648 367.748749,78.598190 
	C366.559052,79.366539 365.779541,79.685204 365.000000,80.003876 
	C363.813263,69.513130 363.827515,69.464066 353.544617,66.475189 
	C344.197906,63.758438 334.815613,61.164101 325.049561,58.706432 
z"/>
<path fill="#0284C8" opacity="1.000000" stroke="none" 
	d="
M313.259888,107.719620 
	C311.728119,106.892181 310.079590,106.001732 309.186981,104.622192 
	C303.372406,95.635933 297.721832,86.543541 291.971008,77.117752 
	C293.375580,75.799370 294.826752,74.849098 296.628418,74.232849 
	C302.065460,82.788208 307.117706,91.031372 312.308990,99.186043 
	C312.690674,99.785652 314.075714,99.746536 314.994293,100.004372 
	C314.493805,102.479721 313.993286,104.955078 313.259888,107.719620 
z"/>
<path fill="#1A77B8" opacity="1.000000" stroke="none" 
	d="
M239.213654,176.441574 
	C245.591599,174.033081 251.881042,172.068558 258.537506,170.056122 
	C259.870392,172.437637 260.836273,174.867065 261.758789,177.665894 
	C254.489639,180.359146 247.263779,182.682983 239.673828,185.021484 
	C239.248199,182.319275 239.186661,179.602402 239.213654,176.441574 
z"/>
<path fill="#0377BA" opacity="1.000000" stroke="none" 
	d="
M337.674805,186.607193 
	C334.900208,185.575684 332.029633,184.184448 329.219543,182.680161 
	C327.077911,181.533691 325.013031,180.243805 322.558380,179.012268 
	C322.957489,175.530762 323.712219,172.054733 325.036255,168.310333 
	C329.350952,170.029938 333.096405,172.017899 336.841858,174.005859 
	C337.096161,178.070190 337.350494,182.134506 337.674805,186.607193 
z"/>
<path fill="#0291D6" opacity="1.000000" stroke="none" 
	d="
M256.137939,157.554230 
	C252.557404,158.970490 248.983139,160.050491 245.375992,161.006409 
	C243.655289,161.462418 241.872086,161.682678 239.725281,162.012482 
	C239.276291,158.977188 239.219223,155.939163 239.628174,152.451233 
	C244.509247,150.658295 248.924301,149.315216 253.339371,147.972137 
	C254.269806,151.037109 255.200241,154.102051 256.137939,157.554230 
z"/>
<path fill="#70A2D0" opacity="1.000000" stroke="none" 
	d="
M325.021484,236.808960 
	C326.262177,236.979523 327.502869,237.150085 329.255798,237.587601 
	C330.924225,238.724655 332.080383,239.594772 333.236542,240.464874 
	C326.954041,240.850250 320.541229,242.194550 314.424133,241.363007 
	C307.729095,240.452881 307.848206,239.576767 309.889893,232.398178 
	C315.337891,233.829575 320.179688,235.319275 325.021484,236.808960 
z"/>
<path fill="#037FC2" opacity="1.000000" stroke="none" 
	d="
M336.914551,173.559875 
	C333.096405,172.017899 329.350952,170.029938 325.243591,167.999039 
	C325.625214,164.108902 326.368774,160.261688 327.767517,156.177704 
	C331.527069,157.222763 334.631439,158.504608 337.735840,159.786453 
	C337.486298,164.228928 337.236755,168.671417 336.914551,173.559875 
z"/>
<path fill="#038BCF" opacity="1.000000" stroke="none" 
	d="
M315.189392,99.768456 
	C314.075714,99.746536 312.690674,99.785652 312.308990,99.186043 
	C307.117706,91.031372 302.065460,82.788208 296.959808,74.183212 
	C297.757660,73.230110 298.574646,72.660660 299.838806,72.341461 
	C302.072540,75.152626 303.782837,77.771080 305.662170,80.261978 
	C309.149536,84.884094 312.735596,89.431717 316.280579,94.010361 
	C315.981873,95.851082 315.683197,97.691811 315.189392,99.768456 
z"/>
<path fill="#0197DE" opacity="1.000000" stroke="none" 
	d="
M316.493195,93.718933 
	C312.735596,89.431717 309.149536,84.884094 305.662170,80.261978 
	C303.782837,77.771080 302.072540,75.152626 300.138794,72.286621 
	C301.719727,70.886879 303.447815,69.792252 305.510925,68.585541 
	C309.696106,74.551048 313.546234,80.628647 317.700928,86.854858 
	C317.572266,89.144814 317.139038,91.286156 316.493195,93.718933 
z"/>
<path fill="#078DD0" opacity="1.000000" stroke="none" 
	d="
M337.821045,159.407471 
	C334.631439,158.504608 331.527069,157.222763 328.025635,155.900513 
	C328.724854,151.155899 329.821106,146.451691 331.428680,141.377838 
	C333.883911,141.350067 335.827820,141.691910 337.771759,142.033768 
	C337.816589,147.698669 337.861450,153.363586 337.821045,159.407471 
z"/>
<path fill="#0197DE" opacity="1.000000" stroke="none" 
	d="
M253.359482,147.564301 
	C248.924301,149.315216 244.509247,150.658295 239.714905,152.004440 
	C239.278519,148.648361 239.221405,145.289200 239.239304,141.479050 
	C242.882004,140.029892 246.449677,139.031738 250.388824,138.029114 
	C251.633392,141.068573 252.506500,144.112518 253.359482,147.564301 
z"/>
<path fill="#1A77B8" opacity="1.000000" stroke="none" 
	d="
M272.369202,250.916168 
	C261.346802,247.607452 250.696365,244.272202 239.673904,240.866867 
	C239.271530,240.073334 239.241196,239.349869 239.311340,238.278625 
	C247.991409,240.146591 256.613251,242.214050 265.132019,244.643051 
	C269.161835,245.792099 272.994354,247.633102 276.966858,249.512131 
	C275.592041,250.205627 274.166626,250.547623 272.369202,250.916168 
z"/>
<path fill="#12A4E8" opacity="1.000000" stroke="none" 
	d="
M337.856567,141.569214 
	C335.827820,141.691910 333.883911,141.350067 331.563232,141.013245 
	C332.981262,132.822067 334.776062,124.625885 336.570862,116.429695 
	C337.027710,116.448814 337.484558,116.467934 337.941406,116.487053 
	C337.941406,124.692917 337.941406,132.898788 337.856567,141.569214 
z"/>
<path fill="#036EB1" opacity="1.000000" stroke="none" 
	d="
M365.035126,176.003662 
	C364.973389,165.310165 364.911682,154.616669 365.305664,143.462173 
	C366.489685,143.001709 367.218018,143.002243 367.946350,143.002762 
	C368.011353,153.696625 368.076385,164.390503 367.679626,175.543274 
	C366.490295,176.002655 365.762695,176.003159 365.035126,176.003662 
z"/>
<path fill="#0291D6" opacity="1.000000" stroke="none" 
	d="
M364.921692,80.466660 
	C365.779541,79.685204 366.559052,79.366539 367.655640,79.028595 
	C368.026337,89.699081 368.079956,100.388840 367.675720,111.538986 
	C366.488464,111.999458 365.759125,111.999550 365.029755,111.999634 
	C364.967621,101.642906 364.905518,91.286171 364.921692,80.466660 
z"/>
<path fill="#0083C8" opacity="1.000000" stroke="none" 
	d="
M364.939117,112.460983 
	C365.759125,111.999550 366.488464,111.999458 367.582489,111.999741 
	C368.010254,122.027245 368.073364,132.054382 368.041382,142.542145 
	C367.218018,143.002243 366.489685,143.001709 365.397186,143.001190 
	C364.971527,132.974930 364.910004,122.948631 364.939117,112.460983 
z"/>
<path fill="#034F96" opacity="1.000000" stroke="none" 
	d="
M367.949860,203.999847 
	C369.211609,222.626282 368.480164,231.637512 364.836761,233.327377 
	C364.836761,223.637360 364.836761,214.278214 365.298920,204.459320 
	C366.490662,203.999664 367.220276,203.999756 367.949860,203.999847 
z"/>
<path fill="#005DA2" opacity="1.000000" stroke="none" 
	d="
M368.045959,203.539734 
	C367.220276,203.999756 366.490662,203.999664 365.396301,203.999268 
	C364.970520,194.974152 364.909576,185.949356 364.941864,176.464111 
	C365.762695,176.003159 366.490295,176.002655 367.581665,176.003418 
	C368.010986,185.029648 368.076538,194.054642 368.045959,203.539734 
z"/>
<path fill="#1A77B8" opacity="1.000000" stroke="none" 
	d="
M269.663269,68.680588 
	C268.776581,69.061752 267.940155,69.059715 266.789612,69.063812 
	C264.652954,61.976723 262.830414,54.883503 261.399597,47.391533 
	C262.518799,46.994785 263.246216,46.996784 263.973663,46.998779 
	C265.886963,54.098312 267.800232,61.197849 269.663269,68.680588 
z"/>
<path fill="#078DD0" opacity="1.000000" stroke="none" 
	d="
M263.994659,46.609474 
	C263.246216,46.996784 262.518799,46.994785 261.427582,46.990292 
	C259.582428,42.362083 256.916901,38.754341 252.100250,36.200886 
	C251.909119,34.765514 251.932922,33.940338 251.956741,33.115158 
	C258.745331,34.935577 263.172913,38.928532 263.994659,46.609474 
z"/>
<path fill="#12A4E8" opacity="1.000000" stroke="none" 
	d="
M251.644409,32.927349 
	C251.932922,33.940338 251.909119,34.765514 251.834656,36.000748 
	C246.733932,35.010399 241.683853,33.609997 236.327927,32.010208 
	C236.017883,31.120066 236.013657,30.429312 236.007721,29.393124 
	C241.114700,30.278305 246.223373,31.508923 251.644409,32.927349 
z"/>
<path fill="#09549A" opacity="1.000000" stroke="none" 
	d="
M324.947571,236.473358 
	C320.179688,235.319275 315.337891,233.829575 310.163025,232.158051 
	C309.891235,231.535858 309.952545,231.095474 310.122925,230.340179 
	C315.112579,232.062744 319.993134,234.100235 324.947571,236.473358 
z"/>
<path fill="#09549A" opacity="1.000000" stroke="none" 
	d="
M333.479553,240.461639 
	C332.080383,239.594772 330.924225,238.724655 329.631042,237.550446 
	C331.283508,237.884735 333.073029,238.523132 334.920990,239.510223 
	C334.560486,240.058746 334.141541,240.258575 333.479553,240.461639 
z"/>
<path fill="#0377BA" opacity="1.000000" stroke="none" 
	d="
M71.284058,134.011261 
	C71.034897,133.380249 71.034897,132.655777 71.034897,131.931320 
	C71.230576,131.904327 71.426247,131.877350 71.621925,131.850372 
	C71.748856,132.323166 71.875778,132.795959 72.031998,133.560120 
	C71.885269,133.873611 71.709244,133.895706 71.284058,134.011261 
z"/>
<path fill="#FBFDFE" opacity="1.000000" stroke="none" 
	d="
M502.276550,178.155182 
	C503.335815,167.420242 508.755005,160.724579 517.708191,158.666031 
	C525.743591,156.818481 534.284363,160.293427 538.530884,167.137894 
	C543.073059,174.458923 542.440918,186.489883 537.169373,193.048615 
	C532.127686,199.321381 523.713562,201.594635 515.434387,198.920807 
	C507.472046,196.349304 502.503998,188.670715 502.276550,178.155182 
z"/>
<path fill="#FBFDFE" opacity="1.000000" stroke="none" 
	d="
M438.713226,158.884583 
	C448.962250,163.921539 453.001099,171.498505 451.898285,183.016602 
	C451.021149,192.177399 445.335632,199.038925 436.751465,201.296402 
	C429.095428,203.309799 420.786591,200.258041 416.450043,193.184586 
	C411.152649,184.543869 411.098297,175.436920 416.181000,166.710632 
	C420.673676,158.997406 428.627869,156.412933 438.713226,158.884583 
z"/>
</svg>