<svg version="1.1" id="Layer_1" xmlns="http://www.w3.org/2000/svg" xmlns:xlink="http://www.w3.org/1999/xlink" x="0px" y="0px"
	 width="100%" viewBox="0.999996 0.999999 471.964 561.88403" enable-background="new 0 0 472 562" xml:space="preserve">
<path fill="#FFFEFF" opacity="1.000000" stroke="none" 
	d="
M239.000000,0.999999 
	C316.975983,1.000000 394.951965,1.000000 472.963989,1.000000 
	C472.963989,188.251617 472.963989,375.503265 472.963989,562.877441 
	C315.666718,562.877441 158.333374,562.877441 1.000016,562.884033 
	C1.000000,515.571716 1.000000,468.252838 1.295681,420.626312 
	C5.001442,423.604645 7.950628,427.645508 11.896191,430.054474 
	C38.095802,446.050629 64.508781,461.697296 91.107590,477.671600 
	C95.901299,480.557770 100.447014,483.217804 104.976990,485.904419 
	C122.250443,496.148834 139.518814,506.401825 157.004303,516.894836 
	C179.193085,530.355347 201.109695,543.669067 223.185577,556.713196 
	C227.918900,559.510010 232.949097,562.737854 239.374207,559.983459 
	C250.851501,553.724365 261.955231,547.426331 273.409302,541.075684 
	C281.505768,536.294250 289.251892,531.565430 297.328094,526.756165 
	C307.165894,520.926270 316.673645,515.176880 326.510803,509.289795 
	C337.940277,502.461639 349.040314,495.771118 360.472321,488.990875 
	C370.919037,482.759399 381.033783,476.617676 391.486511,470.345032 
	C401.893188,464.147003 411.961914,458.079865 422.371185,451.941986 
	C429.150116,447.919006 435.588470,443.966705 442.367981,439.944092 
	C447.821289,436.618835 452.933502,433.363953 458.363892,429.958984 
	C467.421936,425.160156 471.901703,417.987396 471.701935,407.528931 
	C471.732239,394.713928 471.671173,382.357910 471.701843,369.541290 
	C471.732391,358.049835 471.671234,347.018982 471.701691,335.529144 
	C471.810669,274.434998 471.860168,213.799835 471.810760,153.164764 
	C471.803314,144.048309 468.016602,136.862518 459.902802,132.172104 
	C454.179962,128.863861 448.571625,125.357956 442.901825,121.957489 
	C416.920258,106.374931 390.944397,90.782753 364.948547,75.224030 
	C336.984039,58.487049 309.048004,41.701572 281.003143,25.100122 
	C267.113770,16.878151 253.007919,9.021782 239.000000,0.999999 
z"/>
<path fill="#792EE5" opacity="1.000000" stroke="none" 
	d="
M238.562500,0.999999 
	C253.007919,9.021782 267.113770,16.878151 281.003143,25.100122 
	C309.048004,41.701572 336.984039,58.487049 364.948547,75.224030 
	C390.944397,90.782753 416.920258,106.374931 442.901825,121.957489 
	C448.571625,125.357956 454.179962,128.863861 459.902802,132.172104 
	C468.016602,136.862518 471.803314,144.048309 471.810760,153.164764 
	C471.860168,213.799835 471.810669,274.434998 471.346100,335.531006 
	C468.626984,334.513062 465.983276,333.390015 464.158630,331.483246 
	C460.039978,327.179260 456.408173,322.414490 452.432373,317.967682 
	C440.496887,304.618317 428.478912,291.342743 416.516449,278.017456 
	C402.107666,261.967041 387.759399,245.862122 373.317749,229.841400 
	C357.325287,212.100266 341.237823,194.444809 325.227783,176.719467 
	C313.448181,163.677811 301.788788,150.526886 289.931488,137.556610 
	C287.275452,134.651245 284.016815,132.296722 281.038055,129.298981 
	C280.435608,126.571777 280.201141,124.016891 279.026031,122.013802 
	C278.611603,121.307358 275.813904,121.649132 274.259613,122.076736 
	C273.105042,122.394379 272.200958,123.622604 271.046692,124.095757 
	C270.050171,122.547516 269.306641,121.243423 268.315613,120.167236 
	C262.258301,113.589569 256.054626,107.144913 250.068100,100.504143 
	C235.884232,84.770164 221.729706,69.008652 207.693146,53.143417 
	C200.257401,44.738941 193.092850,36.094536 186.047577,27.332333 
	C187.980438,26.086565 189.649826,25.028608 191.366196,24.053341 
	C204.905731,16.359993 218.454254,8.682419 232.000000,0.999999 
	C234.041672,1.000000 236.083328,1.000000 238.562500,0.999999 
z"/>
<path fill="#FFFFFF" opacity="1.000000" stroke="none" 
	d="
M231.531342,0.999999 
	C218.454254,8.682419 204.905731,16.359993 191.366196,24.053341 
	C189.649826,25.028608 187.980438,26.086565 185.717987,27.472702 
	C176.379272,33.201080 167.611877,38.562969 158.499298,43.962021 
	C149.772659,49.072147 141.391190,54.145103 132.677979,59.273643 
	C127.528008,62.235455 122.689919,65.109360 117.896011,68.055168 
	C109.901497,72.967720 101.935272,77.926308 93.604248,82.913528 
	C79.102386,91.500748 64.953415,100.039932 50.464775,108.690971 
	C38.752781,115.608437 27.380445,122.414055 15.684353,129.299011 
	C10.573731,133.585556 5.786865,137.792786 1.000000,142.000000 
	C1.000000,95.055328 1.000000,48.110657 1.000000,1.000000 
	C77.687485,1.000000 154.375076,1.000000 231.531342,0.999999 
z"/>
<path fill="#6C5DEB" opacity="1.000000" stroke="none" 
	d="
M273.058929,541.128296 
	C261.955231,547.426331 250.851501,553.724365 239.369476,559.621094 
	C238.648132,558.313232 238.531403,557.204651 237.928986,556.529480 
	C223.363022,540.203857 208.800293,523.874634 194.111038,507.660034 
	C187.786591,500.678864 181.014709,494.100769 174.743683,487.073975 
	C166.585236,477.932281 158.897095,468.369232 150.692917,459.270355 
	C138.057983,445.257538 125.045959,431.584839 112.400116,417.581665 
	C100.321983,404.207214 88.601471,390.510223 76.553917,377.107666 
	C60.147564,358.856079 43.560257,340.767273 27.093960,322.569366 
	C22.315697,317.288666 17.816437,311.751190 12.946333,306.559265 
	C9.159888,302.522644 4.996082,298.839996 1.000001,295.000000 
	C1.000000,277.312439 1.000000,259.624878 1.355169,241.503784 
	C3.016701,241.769836 4.639771,242.181091 5.580021,243.213959 
	C14.164313,252.643677 22.617579,262.192505 31.132685,271.685425 
	C45.642162,287.861023 60.155704,304.033051 74.693176,320.183502 
	C82.771965,329.158630 90.944496,338.049622 99.000191,347.045288 
	C111.170952,360.636200 123.225655,374.331268 135.428345,387.893280 
	C143.201035,396.531860 151.231064,404.938843 159.005890,413.575531 
	C172.876266,428.983368 186.615219,444.509399 200.459930,459.940430 
	C207.763794,468.081238 215.221619,476.083893 222.526215,484.224030 
	C232.936920,495.825623 243.281464,507.486725 253.633499,519.140869 
	C260.128296,526.452515 266.585083,533.797974 273.058929,541.128296 
z"/>
<path fill="#6D59EB" opacity="1.000000" stroke="none" 
	d="
M273.409302,541.075684 
	C266.585083,533.797974 260.128296,526.452515 253.633499,519.140869 
	C243.281464,507.486725 232.936920,495.825623 222.526215,484.224030 
	C215.221619,476.083893 207.763794,468.081238 200.459930,459.940430 
	C186.615219,444.509399 172.876266,428.983368 159.005890,413.575531 
	C151.231064,404.938843 143.201035,396.531860 135.428345,387.893280 
	C123.225655,374.331268 111.170952,360.636200 99.000191,347.045288 
	C90.944496,338.049622 82.771965,329.158630 74.693176,320.183502 
	C60.155704,304.033051 45.642162,287.861023 31.132685,271.685425 
	C22.617579,262.192505 14.164313,252.643677 5.580021,243.213959 
	C4.639771,242.181091 3.016701,241.769836 1.355169,241.035126 
	C1.000000,227.645767 1.000000,214.291550 1.346796,200.503525 
	C4.587072,202.940750 7.625926,205.680893 10.348788,208.705521 
	C21.941303,221.582687 33.398361,234.581787 44.984722,247.464554 
	C57.560230,261.447144 70.264984,275.313477 82.837486,289.298737 
	C93.889328,301.592377 104.812225,314.001831 115.836220,326.320648 
	C127.525589,339.383026 139.242691,352.420807 150.992249,365.429077 
	C163.954590,379.779999 176.928894,394.120819 190.023071,408.350922 
	C191.228195,409.660553 193.338684,410.137085 195.042603,411.401611 
	C193.459457,418.912292 191.592789,425.978027 190.426895,433.157593 
	C190.068695,435.363434 191.627502,437.880585 192.308487,440.255188 
	C194.597733,439.462067 197.312378,439.197266 199.088684,437.767029 
	C202.924698,434.678314 206.279236,430.991638 209.891296,427.923004 
	C212.822327,431.885345 215.512711,435.638214 218.599777,439.030029 
	C225.588440,446.708466 232.905655,454.089233 239.849289,461.806946 
	C253.659424,477.156555 267.343353,492.620331 281.005402,508.102234 
	C286.437378,514.257812 291.673035,520.586670 296.998047,526.836609 
	C289.251892,531.565430 281.505768,536.294250 273.409302,541.075684 
z"/>
<path fill="#6A62EC" opacity="1.000000" stroke="none" 
	d="
M1.000001,295.468658 
	C4.996082,298.839996 9.159888,302.522644 12.946333,306.559265 
	C17.816437,311.751190 22.315697,317.288666 27.093960,322.569366 
	C43.560257,340.767273 60.147564,358.856079 76.553917,377.107666 
	C88.601471,390.510223 100.321983,404.207214 112.400116,417.581665 
	C125.045959,431.584839 138.057983,445.257538 150.692917,459.270355 
	C158.897095,468.369232 166.585236,477.932281 174.743683,487.073975 
	C181.014709,494.100769 187.786591,500.678864 194.111038,507.660034 
	C208.800293,523.874634 223.363022,540.203857 237.928986,556.529480 
	C238.531403,557.204651 238.648132,558.313232 238.995895,559.582153 
	C232.949097,562.737854 227.918900,559.510010 223.185577,556.713196 
	C201.109695,543.669067 179.193085,530.355347 157.046143,516.499146 
	C156.589600,515.102661 156.492355,514.183716 155.995743,513.611328 
	C146.656601,502.847839 137.371155,492.034973 127.867035,481.418121 
	C116.827644,469.086273 105.527252,456.988434 94.449074,444.690857 
	C77.929031,426.352509 61.521366,407.913025 45.033600,389.545532 
	C32.124817,375.165009 19.201221,360.797272 6.180501,346.518433 
	C4.812571,345.018341 2.743671,344.157471 0.999997,343.000000 
	C1.000000,327.312439 1.000000,311.624878 1.000001,295.468658 
z"/>
<path fill="#7053EA" opacity="1.000000" stroke="none" 
	d="
M1.000000,142.468414 
	C5.786865,137.792786 10.573731,133.585556 15.728067,129.630005 
	C22.174383,136.865128 28.178530,143.915405 34.351604,150.814560 
	C41.536316,158.844315 48.919720,166.696060 56.126560,174.706329 
	C70.274620,190.431671 84.348175,206.224014 98.476898,221.966782 
	C104.994431,229.228897 111.609604,236.403549 118.110222,243.680649 
	C134.317337,261.823608 150.461395,280.022949 166.674789,298.160278 
	C178.465012,311.349548 190.261749,324.534363 202.210693,337.579102 
	C204.485962,340.063019 207.486923,341.882263 210.189636,344.419922 
	C207.376022,357.293884 204.525864,369.756042 201.316772,382.091553 
	C199.302429,380.140961 197.647430,378.316650 195.991547,376.493164 
	C183.078003,362.272614 170.119156,348.092865 157.264236,333.819550 
	C146.064163,321.383667 135.032822,308.795868 123.833015,296.359741 
	C111.089706,282.209686 98.209366,268.183167 85.448479,254.048889 
	C70.232056,237.194778 55.073059,220.288757 39.902206,203.393539 
	C34.700550,197.600647 29.559309,191.753479 24.352568,185.965195 
	C17.713259,178.584320 11.066953,171.209015 4.334019,163.914032 
	C3.504823,163.015625 2.124777,162.625610 0.999999,162.000000 
	C1.000000,155.645599 1.000000,149.291214 1.000000,142.468414 
z"/>
<path fill="#6F57EA" opacity="1.000000" stroke="none" 
	d="
M0.999999,162.468658 
	C2.124777,162.625610 3.504823,163.015625 4.334019,163.914032 
	C11.066953,171.209015 17.713259,178.584320 24.352568,185.965195 
	C29.559309,191.753479 34.700550,197.600647 39.902206,203.393539 
	C55.073059,220.288757 70.232056,237.194778 85.448479,254.048889 
	C98.209366,268.183167 111.089706,282.209686 123.833015,296.359741 
	C135.032822,308.795868 146.064163,321.383667 157.264236,333.819550 
	C170.119156,348.092865 183.078003,362.272614 195.991547,376.493164 
	C197.647430,378.316650 199.302429,380.140961 201.249176,382.500488 
	C199.369919,392.357544 197.199326,401.679016 195.028748,411.000458 
	C193.338684,410.137085 191.228195,409.660553 190.023071,408.350922 
	C176.928894,394.120819 163.954590,379.779999 150.992249,365.429077 
	C139.242691,352.420807 127.525589,339.383026 115.836220,326.320648 
	C104.812225,314.001831 93.889328,301.592377 82.837486,289.298737 
	C70.264984,275.313477 57.560230,261.447144 44.984722,247.464554 
	C33.398361,234.581787 21.941303,221.582687 10.348788,208.705521 
	C7.625926,205.680893 4.587072,202.940750 1.346796,200.034866 
	C1.000000,187.645767 1.000000,175.291550 0.999999,162.468658 
z"/>
<path fill="#6865EC" opacity="1.000000" stroke="none" 
	d="
M0.999997,343.468658 
	C2.743671,344.157471 4.812571,345.018341 6.180501,346.518433 
	C19.201221,360.797272 32.124817,375.165009 45.033600,389.545532 
	C61.521366,407.913025 77.929031,426.352509 94.449074,444.690857 
	C105.527252,456.988434 116.827644,469.086273 127.867035,481.418121 
	C137.371155,492.034973 146.656601,502.847839 155.995743,513.611328 
	C156.492355,514.183716 156.589600,515.102661 156.830933,516.255920 
	C139.518814,506.401825 122.250443,496.148834 104.976990,485.904419 
	C100.447014,483.217804 95.901299,480.557770 91.128540,477.287720 
	C89.115265,474.148743 87.578201,471.389923 85.518929,469.100952 
	C69.365265,451.145172 53.107410,433.283173 36.890282,415.384460 
	C27.451336,404.966827 18.096233,394.471924 8.546655,384.156891 
	C6.362579,381.797729 3.532678,380.036438 0.999996,378.000000 
	C1.000000,366.645782 1.000000,355.291534 0.999997,343.468658 
z"/>
<path fill="#6768ED" opacity="1.000000" stroke="none" 
	d="
M0.999996,378.468658 
	C3.532678,380.036438 6.362579,381.797729 8.546655,384.156891 
	C18.096233,394.471924 27.451336,404.966827 36.890282,415.384460 
	C53.107410,433.283173 69.365265,451.145172 85.518929,469.100952 
	C87.578201,471.389923 89.115265,474.148743 90.873306,477.073792 
	C64.508781,461.697296 38.095802,446.050629 11.896191,430.054474 
	C7.950628,427.645508 5.001442,423.604645 1.295681,420.159332 
	C1.000000,406.312439 1.000000,392.624878 0.999996,378.468658 
z"/>
<path fill="#7737E6" opacity="1.000000" stroke="none" 
	d="
M471.610107,370.001923 
	C471.671173,382.357910 471.732239,394.713928 471.362488,407.523865 
	C468.114532,405.314087 465.100891,402.827545 462.512817,399.957275 
	C448.423401,384.331818 434.456085,368.596313 420.412933,352.929016 
	C408.468597,339.603241 396.480621,326.316559 384.507965,313.016174 
	C369.430969,296.267120 354.407867,279.469025 339.253937,262.789886 
	C324.537415,246.592163 309.654755,230.545532 294.911865,214.371643 
	C290.900330,209.970749 287.296204,205.192749 283.205963,200.870895 
	C278.362549,195.753189 273.195465,190.941803 268.103333,185.596115 
	C270.318481,175.451706 272.598999,165.708832 275.232910,156.004425 
	C277.219330,157.402908 279.040497,158.593246 280.449341,160.155472 
	C284.327850,164.456207 287.954956,168.983261 291.822083,173.294708 
	C304.763489,187.723007 317.766266,202.096283 330.745605,216.490555 
	C345.286469,232.616608 359.811066,248.757370 374.375244,264.862335 
	C381.605255,272.857239 388.962982,280.736969 396.166107,288.755768 
	C410.009338,304.166656 423.785950,319.637421 437.585724,335.087341 
	C445.642883,344.107941 453.560699,353.258331 461.815674,362.093903 
	C464.652252,365.130035 468.321350,367.388306 471.610107,370.001923 
z"/>
<path fill="#763CE6" opacity="1.000000" stroke="none" 
	d="
M268.168671,185.997650 
	C273.195465,190.941803 278.362549,195.753189 283.205963,200.870895 
	C287.296204,205.192749 290.900330,209.970749 294.911865,214.371643 
	C309.654755,230.545532 324.537415,246.592163 339.253937,262.789886 
	C354.407867,279.469025 369.430969,296.267120 384.507965,313.016174 
	C396.480621,326.316559 408.468597,339.603241 420.412933,352.929016 
	C434.456085,368.596313 448.423401,384.331818 462.512817,399.957275 
	C465.100891,402.827545 468.114532,405.314087 471.271118,407.982880 
	C471.901703,417.987396 467.421936,425.160156 458.221069,429.649567 
	C452.107269,423.403656 446.335907,417.422363 440.824799,411.210144 
	C426.299652,394.837189 411.961945,378.297638 397.404907,361.953308 
	C387.250824,350.552551 376.800476,339.416168 366.585480,328.068939 
	C352.489960,312.411011 338.602753,296.564514 324.424133,280.982758 
	C305.426971,260.105621 286.250183,239.391800 267.104034,218.650757 
	C265.495911,216.908707 263.535980,215.491455 261.818390,213.526352 
	C263.987762,204.085480 266.078217,195.041565 268.168671,185.997650 
z"/>
<path fill="#7833E5" opacity="1.000000" stroke="none" 
	d="
M471.701843,369.541290 
	C468.321350,367.388306 464.652252,365.130035 461.815674,362.093903 
	C453.560699,353.258331 445.642883,344.107941 437.585724,335.087341 
	C423.785950,319.637421 410.009338,304.166656 396.166107,288.755768 
	C388.962982,280.736969 381.605255,272.857239 374.375244,264.862335 
	C359.811066,248.757370 345.286469,232.616608 330.745605,216.490555 
	C317.766266,202.096283 304.763489,187.723007 291.822083,173.294708 
	C287.954956,168.983261 284.327850,164.456207 280.449341,160.155472 
	C279.040497,158.593246 277.219330,157.402908 275.316559,155.624115 
	C277.043091,146.699768 279.039337,138.194183 281.035614,129.688614 
	C284.016815,132.296722 287.275452,134.651245 289.931488,137.556610 
	C301.788788,150.526886 313.448181,163.677811 325.227783,176.719467 
	C341.237823,194.444809 357.325287,212.100266 373.317749,229.841400 
	C387.759399,245.862122 402.107666,261.967041 416.516449,278.017456 
	C428.478912,291.342743 440.496887,304.618317 452.432373,317.967682 
	C456.408173,322.414490 460.039978,327.179260 464.158630,331.483246 
	C465.983276,333.390015 468.626984,334.513062 471.254456,335.990021 
	C471.671234,347.018982 471.732391,358.049835 471.701843,369.541290 
z"/>
<path fill="#724CE9" opacity="1.000000" stroke="none" 
	d="
M391.148529,470.475952 
	C381.033783,476.617676 370.919037,482.759399 360.184052,488.803833 
	C351.214142,479.478333 342.866211,470.248474 334.514404,461.022156 
	C315.369080,439.872040 296.190155,418.752197 277.093628,397.558136 
	C270.883087,390.665375 264.885986,383.580383 258.857483,376.264496 
	C267.123657,367.576965 275.323547,359.208252 283.898193,350.897217 
	C284.985870,351.340607 285.876526,351.567169 286.385406,352.135559 
	C296.653503,363.604706 306.828613,375.157349 317.127197,386.598907 
	C324.640198,394.945801 332.363159,403.103668 339.888550,411.439636 
	C354.523499,427.651001 369.136932,443.882660 383.632996,460.217957 
	C386.434235,463.374573 388.658264,467.043396 391.148529,470.475952 
z"/>
<path fill="#7151E9" opacity="1.000000" stroke="none" 
	d="
M258.791199,376.583313 
	C264.885986,383.580383 270.883087,390.665375 277.093628,397.558136 
	C296.190155,418.752197 315.369080,439.872040 334.514404,461.022156 
	C342.866211,470.248474 351.214142,479.478333 359.852081,488.893616 
	C349.040314,495.771118 337.940277,502.461639 326.368164,508.948792 
	C318.697174,500.999908 311.373932,493.365570 304.327545,485.483734 
	C292.748962,472.532288 281.414673,459.362610 269.855072,446.393951 
	C260.157928,435.514679 250.311920,424.767517 240.475800,414.013062 
	C237.595840,410.864227 234.524277,407.890594 231.726196,404.541199 
	C240.871643,395.024933 249.831421,385.804108 258.791199,376.583313 
z"/>
<path fill="#7446E8" opacity="1.000000" stroke="none" 
	d="
M391.486511,470.345032 
	C388.658264,467.043396 386.434235,463.374573 383.632996,460.217957 
	C369.136932,443.882660 354.523499,427.651001 339.888550,411.439636 
	C332.363159,403.103668 324.640198,394.945801 317.127197,386.598907 
	C306.828613,375.157349 296.653503,363.604706 286.385406,352.135559 
	C285.876526,351.567169 284.985870,351.340607 284.030884,350.569031 
	C291.829865,342.039215 299.870850,333.895233 308.054138,326.073975 
	C316.773346,335.851898 325.372406,345.287292 333.922058,354.767181 
	C346.359070,368.557312 358.767395,382.373291 371.174896,396.190002 
	C381.131622,407.277588 391.013550,418.432922 401.033966,429.462524 
	C407.939758,437.063843 415.025360,444.501770 422.030609,452.012695 
	C411.961914,458.079865 401.893188,464.147003 391.486511,470.345032 
z"/>
<path fill="#763FE7" opacity="1.000000" stroke="none" 
	d="
M261.739502,213.923309 
	C263.535980,215.491455 265.495911,216.908707 267.104034,218.650757 
	C286.250183,239.391800 305.426971,260.105621 324.424133,280.982758 
	C338.602753,296.564514 352.489960,312.411011 366.585480,328.068939 
	C376.800476,339.416168 387.250824,350.552551 397.404907,361.953308 
	C411.961945,378.297638 426.299652,394.837189 440.824799,411.210144 
	C446.335907,417.422363 452.107269,423.403656 457.902863,429.799622 
	C452.933502,433.363953 447.821289,436.618835 442.095062,439.754517 
	C434.488342,431.438721 427.639832,423.113403 420.465332,415.079224 
	C412.090912,405.701263 403.346191,396.654907 394.915314,387.326233 
	C380.676605,371.571320 366.581696,355.686432 352.381348,339.896698 
	C342.614319,329.036530 332.763428,318.251831 322.963898,307.420837 
	C307.376404,290.192657 291.780548,272.971985 276.233551,255.707352 
	C272.242096,251.274933 268.555328,246.562347 264.465942,242.226196 
	C262.254028,239.880844 259.487549,238.058502 256.957550,235.596863 
	C258.542389,228.103439 260.140930,221.013367 261.739502,213.923309 
z"/>
<path fill="#7542E7" opacity="1.000000" stroke="none" 
	d="
M256.971252,236.000214 
	C259.487549,238.058502 262.254028,239.880844 264.465942,242.226196 
	C268.555328,246.562347 272.242096,251.274933 276.233551,255.707352 
	C291.780548,272.971985 307.376404,290.192657 322.963898,307.420837 
	C332.763428,318.251831 342.614319,329.036530 352.381348,339.896698 
	C366.581696,355.686432 380.676605,371.571320 394.915314,387.326233 
	C403.346191,396.654907 412.090912,405.701263 420.465332,415.079224 
	C427.639832,423.113403 434.488342,431.438721 441.753906,439.824829 
	C435.588470,443.966705 429.150116,447.919006 422.371185,451.941986 
	C415.025360,444.501770 407.939758,437.063843 401.033966,429.462524 
	C391.013550,418.432922 381.131622,407.277588 371.174896,396.190002 
	C358.767395,382.373291 346.359070,368.557312 333.922058,354.767181 
	C325.372406,345.287292 316.773346,335.851898 308.195007,325.781555 
	C311.086426,322.177002 313.961060,319.169678 316.876251,316.202209 
	C321.277344,311.722168 321.285309,310.039032 316.776367,305.468384 
	C297.720032,286.151184 278.729980,266.767487 259.530548,247.593521 
	C255.945984,244.013702 254.951782,240.501831 256.971252,236.000214 
z"/>
<path fill="#6F56EA" opacity="1.000000" stroke="none" 
	d="
M231.540527,404.836639 
	C234.524277,407.890594 237.595840,410.864227 240.475800,414.013062 
	C250.311920,424.767517 260.157928,435.514679 269.855072,446.393951 
	C281.414673,459.362610 292.748962,472.532288 304.327545,485.483734 
	C311.373932,493.365570 318.697174,500.999908 326.038696,509.086426 
	C316.673645,515.176880 307.165894,520.926270 297.328094,526.756165 
	C291.673035,520.586670 286.437378,514.257812 281.005402,508.102234 
	C267.343353,492.620331 253.659424,477.156555 239.849289,461.806946 
	C232.905655,454.089233 225.588440,446.708466 218.599777,439.030029 
	C215.512711,435.638214 212.822327,431.885345 210.043076,427.647400 
	C217.269730,419.611145 224.405121,412.223877 231.540527,404.836639 
z"/>
<path fill="#FEFEFF" opacity="1.000000" stroke="none" 
	d="
M231.726196,404.541199 
	C224.405121,412.223877 217.269730,419.611145 209.982544,427.273987 
	C206.279236,430.991638 202.924698,434.678314 199.088684,437.767029 
	C197.312378,439.197266 194.597733,439.462067 192.308487,440.255188 
	C191.627502,437.880585 190.068695,435.363434 190.426895,433.157593 
	C191.592789,425.978027 193.459457,418.912292 195.042587,411.401611 
	C197.199326,401.679016 199.369919,392.357544 201.608093,382.627136 
	C204.525864,369.756042 207.376022,357.293884 210.381592,344.090668 
	C211.992203,337.224976 213.397324,331.087891 214.920242,324.980133 
	C215.936859,320.902863 214.927902,317.855804 211.821609,314.754639 
	C192.433273,295.398285 173.256927,275.829529 154.017181,256.324402 
	C149.746460,251.994781 149.754852,250.406921 153.745407,245.908859 
	C156.899033,242.354202 159.951096,238.709442 163.351639,234.959824 
	C175.243835,222.942566 186.832672,211.070175 198.700729,199.040604 
	C209.046249,188.402847 219.112564,177.922287 229.476944,167.263596 
	C236.922607,159.762207 244.070206,152.438934 251.519516,144.969330 
	C258.275909,138.030411 264.730591,131.237823 271.185303,124.445236 
	C272.200958,123.622604 273.105042,122.394379 274.259613,122.076736 
	C275.813904,121.649132 278.611603,121.307358 279.026031,122.013802 
	C280.201141,124.016891 280.435608,126.571777 281.038055,129.298981 
	C279.039337,138.194183 277.043091,146.699768 274.963196,155.585663 
	C272.598999,165.708832 270.318481,175.451706 268.103333,185.596115 
	C266.078217,195.041565 263.987762,204.085480 261.818390,213.526352 
	C260.140930,221.013367 258.542389,228.103439 256.957550,235.596863 
	C254.951782,240.501831 255.945984,244.013702 259.530548,247.593521 
	C278.729980,266.767487 297.720032,286.151184 316.776367,305.468384 
	C321.285309,310.039032 321.277344,311.722168 316.876251,316.202209 
	C313.961060,319.169678 311.086426,322.177002 308.052734,325.458862 
	C299.870850,333.895233 291.829865,342.039215 283.656128,350.511353 
	C275.323547,359.208252 267.123657,367.576965 258.857483,376.264465 
	C249.831421,385.804108 240.871643,395.024933 231.726196,404.541199 
z"/>
<path fill="#7835E6" opacity="1.000000" stroke="none" 
	d="
M271.046692,124.095757 
	C264.730591,131.237823 258.275909,138.030411 251.224457,144.786987 
	C247.446960,141.353195 244.208389,138.007553 241.095459,134.548798 
	C226.555603,118.393837 212.024384,102.230957 197.543961,86.022766 
	C190.363480,77.985558 183.415619,69.738121 176.144669,61.784943 
	C170.554459,55.670197 164.623764,49.866734 158.844467,43.924850 
	C167.611877,38.562969 176.379272,33.201080 185.476257,27.698822 
	C193.092850,36.094536 200.257401,44.738941 207.693146,53.143417 
	C221.729706,69.008652 235.884232,84.770164 250.068100,100.504143 
	C256.054626,107.144913 262.258301,113.589569 268.315613,120.167236 
	C269.306641,121.243423 270.050171,122.547516 271.046692,124.095757 
z"/>
<path fill="#724EE9" opacity="1.000000" stroke="none" 
	d="
M163.048279,235.104691 
	C159.951096,238.709442 156.899033,242.354202 153.745407,245.908859 
	C149.754852,250.406921 149.746460,251.994781 154.017181,256.324402 
	C173.256927,275.829529 192.433273,295.398285 211.821609,314.754639 
	C214.927902,317.855804 215.936859,320.902863 214.920242,324.980133 
	C213.397324,331.087891 211.992203,337.224976 210.345032,343.678894 
	C207.486923,341.882263 204.485962,340.063019 202.210693,337.579102 
	C190.261749,324.534363 178.465012,311.349548 166.674789,298.160278 
	C150.461395,280.022949 134.317337,261.823608 118.110222,243.680649 
	C111.609604,236.403549 104.994431,229.228897 98.476898,221.966782 
	C84.348175,206.224014 70.274620,190.431671 56.126560,174.706329 
	C48.919720,166.696060 41.536316,158.844315 34.351604,150.814560 
	C28.178530,143.915405 22.174383,136.865128 16.051823,129.550659 
	C27.380445,122.414055 38.752781,115.608437 50.613495,109.031082 
	C56.317963,115.254921 61.469212,121.308441 66.763344,127.234314 
	C78.573921,140.454239 90.402603,153.658783 102.322380,166.780151 
	C116.698776,182.605774 131.271179,198.254196 145.567032,214.151703 
	C151.644882,220.910522 157.235977,228.107071 163.048279,235.104691 
z"/>
<path fill="#7448E8" opacity="1.000000" stroke="none" 
	d="
M163.351639,234.959824 
	C157.235977,228.107071 151.644882,220.910522 145.567032,214.151703 
	C131.271179,198.254196 116.698776,182.605774 102.322380,166.780151 
	C90.402603,153.658783 78.573921,140.454239 66.763344,127.234314 
	C61.469212,121.308441 56.317963,115.254921 50.953156,108.919220 
	C64.953415,100.039932 79.102386,91.500748 93.645714,83.270477 
	C96.486122,86.678993 98.769432,89.925453 101.408913,92.850510 
	C109.170349,101.451660 117.131371,109.872520 124.908180,118.460022 
	C140.032516,135.160980 155.106415,151.907822 170.151855,168.679932 
	C174.115051,173.097961 177.754211,177.811707 181.798553,182.150665 
	C187.208740,187.954971 192.868774,193.526382 198.421524,199.197800 
	C186.832672,211.070175 175.243835,222.942566 163.351639,234.959824 
z"/>
<path fill="#7640E7" opacity="1.000000" stroke="none" 
	d="
M198.700729,199.040604 
	C192.868774,193.526382 187.208740,187.954971 181.798553,182.150665 
	C177.754211,177.811707 174.115051,173.097961 170.151855,168.679932 
	C155.106415,151.907822 140.032516,135.160980 124.908180,118.460022 
	C117.131371,109.872520 109.170349,101.451660 101.408913,92.850510 
	C98.769432,89.925453 96.486122,86.678993 93.998596,83.222450 
	C101.935272,77.926308 109.901497,72.967720 117.896011,68.055168 
	C122.689919,65.109360 127.528008,62.235455 132.722031,59.606209 
	C133.662460,60.685707 134.151398,61.556324 134.803116,62.280460 
	C144.194489,72.715584 153.627426,83.113312 163.011169,93.555267 
	C177.393234,109.559196 191.750778,125.585167 206.107361,141.611984 
	C213.810135,150.210892 221.489151,158.831116 229.178879,167.441711 
	C219.112564,177.922287 209.046249,188.402847 198.700729,199.040604 
z"/>
<path fill="#7739E6" opacity="1.000000" stroke="none" 
	d="
M229.476944,167.263596 
	C221.489151,158.831116 213.810135,150.210892 206.107361,141.611984 
	C191.750778,125.585167 177.393234,109.559196 163.011169,93.555267 
	C153.627426,83.113312 144.194489,72.715584 134.803116,62.280460 
	C134.151398,61.556324 133.662460,60.685707 133.053772,59.550629 
	C141.391190,54.145103 149.772659,49.072147 158.499298,43.962021 
	C164.623764,49.866734 170.554459,55.670197 176.144669,61.784943 
	C183.415619,69.738121 190.363480,77.985558 197.543961,86.022766 
	C212.024384,102.230957 226.555603,118.393837 241.095459,134.548798 
	C244.208389,138.007553 247.446960,141.353195 250.922729,144.933289 
	C244.070206,152.438934 236.922607,159.762207 229.476944,167.263596 
z"/>
</svg>