<svg version="1.1" id="Layer_1" xmlns="http://www.w3.org/2000/svg" xmlns:xlink="http://www.w3.org/1999/xlink" x="0px" y="0px"
	 width="100%" viewBox="1.074636 1.099106 861.8995 209.9009" enable-background="new 0 0 862 210" xml:space="preserve">
<path fill="#FEFEFE" opacity="1.000000" stroke="none" 
	d="
M642.000000,211.000000 
	C428.049744,211.000000 214.599518,211.000000 1.074636,211.000000 
	C1.074636,141.066147 1.074636,71.132179 1.074636,1.099106 
	C288.333313,1.099106 575.666626,1.099106 862.974121,1.099106 
	C862.974121,71.067192 862.974121,141.033600 862.974121,211.000000 
	C789.465454,211.000000 715.982727,211.000000 642.000000,211.000000 
M68.265999,138.757706 
	C62.304871,156.683182 56.343739,174.608658 50.240376,192.961823 
	C58.317020,192.961823 65.649040,193.168274 72.954552,192.819519 
	C74.826805,192.730133 77.194969,191.321732 78.349762,189.780762 
	C86.830933,178.463257 94.836327,166.784927 103.451553,155.573730 
	C109.069695,148.262695 115.459160,141.544403 122.178673,133.779953 
	C128.806366,154.330780 135.042770,173.668320 141.216034,192.810074 
	C150.222092,192.810074 158.530640,192.810074 167.445236,192.810074 
	C166.803482,190.646103 166.310852,188.763916 165.689957,186.925018 
	C158.188583,164.708160 150.774551,142.460648 143.055374,120.319572 
	C141.657837,116.311005 142.400528,113.963844 145.651474,111.472229 
	C151.593185,106.918343 156.799484,101.252617 163.135666,97.406822 
	C170.022903,93.226562 168.902740,87.737572 168.314789,80.860924 
	C157.532227,87.727768 147.414108,94.171463 136.886932,100.875671 
	C131.936981,86.359978 126.979301,72.426682 122.513824,58.337391 
	C121.264648,54.396061 119.519356,53.098877 115.527260,53.415367 
	C110.892265,53.782825 106.192169,53.718826 101.546227,53.428173 
	C98.176888,53.217388 96.631134,54.250225 95.523071,57.608212 
	C86.664169,84.455231 77.570053,111.224640 68.265999,138.757706 
M306.514832,190.066269 
	C337.203888,201.592194 364.950256,185.160095 370.623840,167.461472 
	C367.256592,166.539291 363.886017,165.650330 360.536194,164.689148 
	C357.218750,163.737228 353.922180,162.712448 350.755463,161.761368 
	C343.307861,173.029526 332.047302,177.529617 320.501709,174.139557 
	C309.803314,170.998245 302.722961,161.933990 302.527802,150.461182 
	C327.237244,150.461182 351.945526,150.461182 377.009308,150.461182 
	C377.009308,145.477234 377.253906,141.156540 376.967773,136.871262 
	C375.594879,116.310852 361.840363,98.998375 342.335175,93.053970 
	C322.407440,86.980804 299.655151,93.811615 287.157501,109.369118 
	C269.411407,131.460052 271.288422,174.854294 306.514832,190.066269 
M403.383484,92.321083 
	C398.295715,92.321083 393.207916,92.321083 388.097137,92.321083 
	C388.097137,125.845917 388.097137,158.585907 388.097137,191.492706 
	C396.373474,191.492706 404.380310,191.492706 412.705933,191.492706 
	C412.705933,174.275192 412.705963,157.476837 412.705902,140.678482 
	C412.705841,127.916885 420.176880,117.771011 432.400513,113.932976 
	C440.925842,111.256134 448.358307,114.799240 450.875641,123.396027 
	C452.117279,127.636253 452.519928,132.241028 452.572296,136.689423 
	C452.766296,153.171783 452.656555,169.657715 452.660858,186.142303 
	C452.661316,187.909454 452.660919,189.676605 452.660919,191.610947 
	C461.211517,191.610947 469.096558,191.610947 477.185211,191.610947 
	C477.290253,190.358780 477.443054,189.383713 477.443390,188.408600 
	C477.450378,168.094284 477.537964,147.779114 477.363159,127.466232 
	C477.320435,122.502724 476.879517,117.440811 475.797180,112.608803 
	C473.369019,101.768295 467.463531,93.586143 455.893616,91.452827 
	C447.625641,89.928345 439.348999,90.711891 431.303345,93.587357 
	C422.791779,96.629326 416.117126,102.011963 410.142029,110.376137 
	C410.142029,103.600494 410.142029,98.205200 410.142029,92.321136 
	C407.926392,92.321136 406.135315,92.321136 403.383484,92.321083 
M252.978226,57.697273 
	C252.873489,56.268829 252.768753,54.840385 252.664688,53.421028 
	C244.323898,53.421028 236.415131,53.421028 228.079391,53.421028 
	C228.079391,55.345619 228.079391,56.974083 228.079391,58.602551 
	C228.079391,74.754570 228.077423,90.906586 228.079910,107.058601 
	C228.083099,127.873039 228.029053,148.687759 228.123215,169.501801 
	C228.164413,178.610535 231.220673,186.581924 239.999496,190.361176 
	C252.291183,195.652740 264.270416,192.408005 276.272583,187.982132 
	C275.070740,181.209671 274.003540,175.195953 272.921478,169.098511 
	C272.118378,169.218430 271.632751,169.223587 271.191833,169.366562 
	C257.733398,173.730698 252.982056,170.271515 252.979919,156.072174 
	C252.975052,123.601624 252.978256,91.131081 252.978226,57.697273 
M174.531876,104.499794 
	C174.531906,120.158295 174.493286,135.816925 174.548996,151.475235 
	C174.575058,158.800034 174.429489,166.151749 174.996780,173.441833 
	C175.740814,183.002930 181.757568,189.916367 190.610077,191.939026 
	C200.523132,194.203979 210.144577,192.460510 219.496567,189.033737 
	C220.654678,188.609390 222.166946,186.711426 222.050720,185.657883 
	C221.439148,180.114517 220.357101,174.623047 219.399460,168.880127 
	C216.925598,169.653290 215.082886,170.363632 213.177551,170.801315 
	C205.164581,172.642014 200.106323,169.024277 199.312622,160.900421 
	C199.151245,159.248840 199.233826,157.571716 199.233643,155.906357 
	C199.230072,123.589958 199.230896,91.273552 199.230835,58.957153 
	C199.230835,57.171013 199.230850,55.384872 199.230850,53.385574 
	C190.829544,53.385574 182.921555,53.385574 174.531769,53.385574 
	C174.531769,70.258499 174.531769,86.879143 174.531876,104.499794 
M575.235474,137.239883 
	C555.755676,112.098396 536.287292,86.948021 516.778992,61.828686 
	C514.745789,59.210720 513.082458,55.542225 508.512726,57.714550 
	C508.512726,102.349945 508.512726,146.919708 508.512726,191.626373 
	C510.703217,191.626373 512.592163,191.626373 515.054199,191.626373 
	C515.054199,151.318771 515.054199,111.335678 515.054199,70.365143 
	C516.293396,71.838219 516.824341,72.428879 517.311157,73.053917 
	C547.188599,111.415253 577.106873,149.745071 606.857910,188.204178 
	C609.420166,191.516388 611.939514,192.477386 615.733032,191.178665 
	C615.733032,146.461960 615.733032,101.888992 615.733032,57.174431 
	C613.563416,57.174431 611.647827,57.174431 608.976929,57.174431 
	C608.976929,98.133179 608.976929,138.856628 608.976929,180.785538 
	C597.302490,165.700806 586.500854,151.743759 575.235474,137.239883 
M764.646973,57.158539 
	C762.871216,57.158539 761.095459,57.158539 759.192627,57.158539 
	C759.192627,102.316345 759.192627,146.882477 759.192627,191.589035 
	C761.322998,191.589035 763.192139,191.589035 765.554504,191.589035 
	C765.554504,174.343719 765.554504,157.429947 765.554504,140.053497 
	C767.669250,140.053497 769.302429,140.053726 770.935608,140.053452 
	C785.094299,140.051147 799.253296,139.987610 813.411499,140.071320 
	C820.890930,140.115524 827.444275,137.684021 833.309204,133.211090 
	C842.837158,125.944397 847.854126,116.082031 849.565002,104.415047 
	C852.746399,82.720879 836.328186,55.957413 809.584045,57.051693 
	C794.950195,57.650459 780.271667,57.158600 764.646973,57.158539 
M646.134949,84.499985 
	C646.134949,120.226357 646.134949,155.952728 646.134949,191.689880 
	C675.365295,191.689880 703.777954,191.689880 732.429993,191.689880 
	C732.429993,189.676010 732.429993,187.950104 732.429993,185.828979 
	C705.864746,185.828979 679.599670,185.828979 652.648438,185.828979 
	C652.648438,142.754883 652.648438,100.070709 652.648438,57.385815 
	C650.188293,57.385815 648.420715,57.385815 646.134949,57.385815 
	C646.134949,66.260422 646.134949,74.880196 646.134949,84.499985 
z"/>
<path fill="#23323C" opacity="1.000000" stroke="none" 
	d="
M68.406982,138.387756 
	C77.570053,111.224640 86.664169,84.455231 95.523071,57.608212 
	C96.631134,54.250225 98.176888,53.217388 101.546227,53.428173 
	C106.192169,53.718826 110.892265,53.782825 115.527260,53.415367 
	C119.519356,53.098877 121.264648,54.396061 122.513824,58.337391 
	C126.979301,72.426682 131.936981,86.359978 136.886932,100.875671 
	C147.414108,94.171463 157.532227,87.727768 168.314789,80.860924 
	C168.902740,87.737572 170.022903,93.226562 163.135666,97.406822 
	C156.799484,101.252617 151.593185,106.918343 145.651474,111.472229 
	C142.400528,113.963844 141.657837,116.311005 143.055374,120.319572 
	C150.774551,142.460648 158.188583,164.708160 165.689957,186.925018 
	C166.310852,188.763916 166.803482,190.646103 167.445236,192.810074 
	C158.530640,192.810074 150.222092,192.810074 141.216034,192.810074 
	C135.042770,173.668320 128.806366,154.330780 122.178673,133.779953 
	C115.459160,141.544403 109.069695,148.262695 103.451553,155.573730 
	C94.836327,166.784927 86.830933,178.463257 78.349762,189.780762 
	C77.194969,191.321732 74.826805,192.730133 72.954552,192.819519 
	C65.649040,193.168274 58.317020,192.961823 50.240376,192.961823 
	C56.343739,174.608658 62.304871,156.683182 68.406982,138.387756 
M101.874695,113.266251 
	C99.449852,120.782242 97.025017,128.298248 94.143120,137.230911 
	C102.199013,130.015930 109.203987,123.775566 116.140205,117.459717 
	C116.637093,117.007271 116.995964,115.888573 116.803406,115.271873 
	C114.410660,107.608650 111.903725,99.981079 108.964241,90.920525 
	C106.347023,99.110596 104.209061,105.800919 101.874695,113.266251 
z"/>
<path fill="#23323C" opacity="1.000000" stroke="none" 
	d="
M306.154846,189.936356 
	C271.288422,174.854294 269.411407,131.460052 287.157501,109.369118 
	C299.655151,93.811615 322.407440,86.980804 342.335175,93.053970 
	C361.840363,98.998375 375.594879,116.310852 376.967773,136.871262 
	C377.253906,141.156540 377.009308,145.477234 377.009308,150.461182 
	C351.945526,150.461182 327.237244,150.461182 302.527802,150.461182 
	C302.722961,161.933990 309.803314,170.998245 320.501709,174.139557 
	C332.047302,177.529617 343.307861,173.029526 350.755463,161.761368 
	C353.922180,162.712448 357.218750,163.737228 360.536194,164.689148 
	C363.886017,165.650330 367.256592,166.539291 370.623840,167.461472 
	C364.950256,185.160095 337.203888,201.592194 306.154846,189.936356 
M314.672150,111.988068 
	C306.640167,116.799133 302.456879,123.858994 301.891785,133.516785 
	C318.667267,133.516785 335.082855,133.516785 351.494324,133.516785 
	C351.858124,116.637070 333.147888,102.983223 314.672150,111.988068 
z"/>
<path fill="#23323C" opacity="1.000000" stroke="none" 
	d="
M403.863892,92.321106 
	C406.135315,92.321136 407.926392,92.321136 410.142029,92.321136 
	C410.142029,98.205200 410.142029,103.600494 410.142029,110.376137 
	C416.117126,102.011963 422.791779,96.629326 431.303345,93.587357 
	C439.348999,90.711891 447.625641,89.928345 455.893616,91.452827 
	C467.463531,93.586143 473.369019,101.768295 475.797180,112.608803 
	C476.879517,117.440811 477.320435,122.502724 477.363159,127.466232 
	C477.537964,147.779114 477.450378,168.094284 477.443390,188.408600 
	C477.443054,189.383713 477.290253,190.358780 477.185211,191.610947 
	C469.096558,191.610947 461.211517,191.610947 452.660919,191.610947 
	C452.660919,189.676605 452.661316,187.909454 452.660858,186.142303 
	C452.656555,169.657715 452.766296,153.171783 452.572296,136.689423 
	C452.519928,132.241028 452.117279,127.636253 450.875641,123.396027 
	C448.358307,114.799240 440.925842,111.256134 432.400513,113.932976 
	C420.176880,117.771011 412.705841,127.916885 412.705902,140.678482 
	C412.705963,157.476837 412.705933,174.275192 412.705933,191.492706 
	C404.380310,191.492706 396.373474,191.492706 388.097137,191.492706 
	C388.097137,158.585907 388.097137,125.845917 388.097137,92.321083 
	C393.207916,92.321083 398.295715,92.321083 403.863892,92.321106 
z"/>
<path fill="#24333D" opacity="1.000000" stroke="none" 
	d="
M252.978210,58.178902 
	C252.978256,91.131081 252.975052,123.601624 252.979919,156.072174 
	C252.982056,170.271515 257.733398,173.730698 271.191833,169.366562 
	C271.632751,169.223587 272.118378,169.218430 272.921478,169.098511 
	C274.003540,175.195953 275.070740,181.209671 276.272583,187.982132 
	C264.270416,192.408005 252.291183,195.652740 239.999496,190.361176 
	C231.220673,186.581924 228.164413,178.610535 228.123215,169.501801 
	C228.029053,148.687759 228.083099,127.873039 228.079910,107.058601 
	C228.077423,90.906586 228.079391,74.754570 228.079391,58.602551 
	C228.079391,56.974083 228.079391,55.345619 228.079391,53.421028 
	C236.415131,53.421028 244.323898,53.421028 252.664688,53.421028 
	C252.768753,54.840385 252.873489,56.268829 252.978210,58.178902 
z"/>
<path fill="#21303A" opacity="1.000000" stroke="none" 
	d="
M174.531830,103.999786 
	C174.531769,86.879143 174.531769,70.258499 174.531769,53.385574 
	C182.921555,53.385574 190.829544,53.385574 199.230850,53.385574 
	C199.230850,55.384872 199.230835,57.171013 199.230835,58.957153 
	C199.230896,91.273552 199.230072,123.589958 199.233643,155.906357 
	C199.233826,157.571716 199.151245,159.248840 199.312622,160.900421 
	C200.106323,169.024277 205.164581,172.642014 213.177551,170.801315 
	C215.082886,170.363632 216.925598,169.653290 219.399460,168.880127 
	C220.357101,174.623047 221.439148,180.114517 222.050720,185.657883 
	C222.166946,186.711426 220.654678,188.609390 219.496567,189.033737 
	C210.144577,192.460510 200.523132,194.203979 190.610077,191.939026 
	C181.757568,189.916367 175.740814,183.002930 174.996780,173.441833 
	C174.429489,166.151749 174.575058,158.800034 174.548996,151.475235 
	C174.493286,135.816925 174.531906,120.158295 174.531830,103.999786 
z"/>
<path fill="#2F3D46" opacity="1.000000" stroke="none" 
	d="
M575.467285,137.513306 
	C586.500854,151.743759 597.302490,165.700806 608.976929,180.785538 
	C608.976929,138.856628 608.976929,98.133179 608.976929,57.174431 
	C611.647827,57.174431 613.563416,57.174431 615.733032,57.174431 
	C615.733032,101.888992 615.733032,146.461960 615.733032,191.178665 
	C611.939514,192.477386 609.420166,191.516388 606.857910,188.204178 
	C577.106873,149.745071 547.188599,111.415253 517.311157,73.053917 
	C516.824341,72.428879 516.293396,71.838219 515.054199,70.365143 
	C515.054199,111.335678 515.054199,151.318771 515.054199,191.626373 
	C512.592163,191.626373 510.703217,191.626373 508.512726,191.626373 
	C508.512726,146.919708 508.512726,102.349945 508.512726,57.714550 
	C513.082458,55.542225 514.745789,59.210720 516.778992,61.828686 
	C536.287292,86.948021 555.755676,112.098396 575.467285,137.513306 
z"/>
<path fill="#283640" opacity="1.000000" stroke="none" 
	d="
M765.130127,57.158546 
	C780.271667,57.158600 794.950195,57.650459 809.584045,57.051693 
	C836.328186,55.957413 852.746399,82.720879 849.565002,104.415047 
	C847.854126,116.082031 842.837158,125.944397 833.309204,133.211090 
	C827.444275,137.684021 820.890930,140.115524 813.411499,140.071320 
	C799.253296,139.987610 785.094299,140.051147 770.935608,140.053452 
	C769.302429,140.053726 767.669250,140.053497 765.554504,140.053497 
	C765.554504,157.429947 765.554504,174.343719 765.554504,191.589035 
	C763.192139,191.589035 761.322998,191.589035 759.192627,191.589035 
	C759.192627,146.882477 759.192627,102.316345 759.192627,57.158539 
	C761.095459,57.158539 762.871216,57.158539 765.130127,57.158546 
M796.499451,63.072918 
	C786.245361,63.072918 775.991272,63.072918 765.805420,63.072918 
	C765.805420,86.919228 765.805420,110.128159 765.805420,133.764221 
	C780.427185,133.764221 794.703857,133.767288 808.980591,133.763458 
	C827.972595,133.758377 839.324402,124.096771 842.635620,105.255707 
	C846.766724,81.749237 828.280334,60.661377 807.475159,63.020756 
	C804.190063,63.393291 800.826355,63.072922 796.499451,63.072918 
z"/>
<path fill="#34424B" opacity="1.000000" stroke="none" 
	d="
M646.134949,83.999985 
	C646.134949,74.880196 646.134949,66.260422 646.134949,57.385815 
	C648.420715,57.385815 650.188293,57.385815 652.648438,57.385815 
	C652.648438,100.070709 652.648438,142.754883 652.648438,185.828979 
	C679.599670,185.828979 705.864746,185.828979 732.429993,185.828979 
	C732.429993,187.950104 732.429993,189.676010 732.429993,191.689880 
	C703.777954,191.689880 675.365295,191.689880 646.134949,191.689880 
	C646.134949,155.952728 646.134949,120.226357 646.134949,83.999985 
z"/>
<path fill="#F5F6F6" opacity="1.000000" stroke="none" 
	d="
M101.972900,112.878754 
	C104.209061,105.800919 106.347023,99.110596 108.964241,90.920525 
	C111.903725,99.981079 114.410660,107.608650 116.803406,115.271873 
	C116.995964,115.888573 116.637093,117.007271 116.140205,117.459717 
	C109.203987,123.775566 102.199013,130.015930 94.143120,137.230911 
	C97.025017,128.298248 99.449852,120.782242 101.972900,112.878754 
z"/>
<path fill="#F8F9F9" opacity="1.000000" stroke="none" 
	d="
M315.011169,111.825409 
	C333.147888,102.983223 351.858124,116.637070 351.494324,133.516785 
	C335.082855,133.516785 318.667267,133.516785 301.891785,133.516785 
	C302.456879,123.858994 306.640167,116.799133 315.011169,111.825409 
z"/>
<path fill="#FCFCFC" opacity="1.000000" stroke="none" 
	d="
M796.999268,63.072922 
	C800.826355,63.072922 804.190063,63.393291 807.475159,63.020756 
	C828.280334,60.661377 846.766724,81.749237 842.635620,105.255707 
	C839.324402,124.096771 827.972595,133.758377 808.980591,133.763458 
	C794.703857,133.767288 780.427185,133.764221 765.805420,133.764221 
	C765.805420,110.128159 765.805420,86.919228 765.805420,63.072918 
	C775.991272,63.072918 786.245361,63.072918 796.999268,63.072922 
z"/>
</svg>