<svg version="1.1" id="Layer_1" xmlns="http://www.w3.org/2000/svg" xmlns:xlink="http://www.w3.org/1999/xlink" x="0px" y="0px"
	 width="100%" viewBox="1 1 2232 581" enable-background="new 0 0 2232 581" xml:space="preserve">
<path fill="#FFFFFF" opacity="1.000000" stroke="none" 
	d="
M1.000000,346.000000 
	C1.000000,231.030945 1.000000,116.061897 1.000000,1.000000 
	C401.028046,1.000000 801.056091,1.000000 1201.441406,1.337974 
	C1181.655396,13.537683 1161.487305,25.357088 1141.375732,37.272259 
	C1118.037231,51.099216 1094.915649,65.302643 1071.360962,78.749107 
	C1061.087036,84.614120 1053.013550,91.753555 1050.064575,103.470695 
	C1047.854248,112.252914 1046.115479,121.153816 1044.086792,130.395264 
	C1042.779541,135.617722 1041.443726,140.422302 1040.347046,145.280823 
	C1037.822388,156.464935 1035.414062,167.675278 1032.612793,179.081223 
	C1030.665649,186.544327 1029.055542,193.799301 1027.464844,201.058517 
	C1025.286255,211.000641 1023.122498,220.945984 1020.611084,231.093628 
	C1019.032715,236.832581 1017.770630,242.362396 1016.564697,247.904404 
	C1014.744995,256.266663 1012.964355,264.637360 1010.989441,273.357666 
	C1008.263916,284.153595 1005.716187,294.596344 1003.094604,305.440857 
	C1002.166321,309.590820 1001.298950,313.336121 1000.459778,317.087708 
	C997.933899,328.380066 995.419067,339.674896 992.564697,351.175751 
	C989.306885,364.263824 986.384338,377.144897 983.461792,390.026001 
	C981.859436,387.823181 981.510254,385.652283 980.987183,383.524109 
	C979.303833,376.675018 977.556335,369.841644 975.906067,362.593201 
	C973.355774,351.773865 970.733032,341.363556 968.064453,330.532593 
	C967.812378,328.669952 967.716919,327.201691 967.382507,325.790009 
	C964.555908,313.856781 961.685730,301.933868 958.770142,289.625610 
	C955.751770,277.497284 952.791748,265.751221 949.895935,253.609924 
	C949.305603,250.731400 948.624084,248.254883 948.001160,245.763718 
	C945.008911,233.797653 942.032593,221.827621 939.031006,209.497650 
	C938.953186,208.417419 938.895020,207.698563 938.862061,206.716888 
	C938.604126,206.260971 938.320923,206.067886 938.024170,205.511261 
	C937.953003,204.425156 937.895325,203.702560 937.862793,202.717316 
	C937.604309,202.263000 937.320679,202.071350 937.021973,201.474884 
	C934.088928,188.650711 931.171021,176.231339 928.189514,163.541122 
	C923.624207,166.118423 920.059692,168.000473 916.624207,170.094223 
	C905.716125,176.742081 894.856262,183.468887 883.715210,190.138901 
	C883.259155,190.395355 883.065613,190.678085 882.607727,191.053467 
	C881.878906,191.715240 881.414429,192.284348 880.692444,192.947906 
	C880.335388,193.360367 880.235840,193.678360 880.072021,194.213806 
	C880.007629,194.431259 879.958069,194.882126 879.634460,195.035156 
	C877.541321,199.314560 874.591553,203.344788 874.245850,207.587219 
	C873.505859,216.668243 874.112122,225.858963 874.095764,235.468262 
	C874.071899,247.621887 874.119324,259.312012 874.096436,271.465973 
	C874.072998,284.954529 874.119995,297.979187 874.096436,311.467529 
	C874.072205,324.621582 874.118469,337.311951 874.094299,350.466187 
	C874.071289,362.954437 874.118713,374.978790 874.094971,387.466858 
	C874.071594,398.288818 874.119385,408.647064 874.095947,419.468781 
	C874.072266,429.288879 874.119873,438.645477 874.094849,448.465668 
	C874.014343,456.895630 873.913025,464.864136 874.094727,472.826202 
	C874.123596,474.092468 875.156799,476.109314 876.178528,476.460052 
	C886.643921,480.052795 897.202881,483.372955 907.832214,486.800385 
	C907.832214,476.235626 907.832214,466.118896 907.906616,455.538666 
	C907.931702,445.718506 907.882324,436.361847 907.908386,426.541565 
	C907.933838,415.719574 907.883850,405.361206 907.908569,394.539307 
	C907.933350,382.051727 907.883423,370.027679 907.907654,357.539948 
	C907.932251,344.385315 907.882629,331.694366 907.907349,318.539703 
	C907.932190,304.718292 907.882568,291.360565 907.906006,277.595337 
	C907.979004,275.635590 907.979004,274.083344 907.979004,272.531067 
	C908.205078,272.515320 908.431091,272.499542 908.657166,272.483765 
	C909.160339,274.656738 909.663452,276.829712 910.105469,279.400085 
	C910.697693,282.446991 911.382996,285.089081 911.998962,287.747192 
	C914.647461,299.177032 917.275574,310.611603 919.951782,322.461578 
	C920.327698,324.774139 920.573853,326.690521 921.014038,328.561218 
	C922.697754,335.715912 924.443848,342.855835 926.094971,350.413574 
	C926.348633,352.574982 926.611145,354.338531 927.009399,356.070862 
	C929.310730,366.083008 931.644104,376.087769 933.982727,386.510803 
	C934.335205,388.837189 934.590210,390.766296 935.021240,392.655243 
	C937.638672,404.124756 940.296143,415.585114 942.969055,427.466339 
	C943.667664,431.340118 944.243835,434.817413 945.024902,438.248016 
	C947.288635,448.191223 949.634705,458.115662 951.970825,468.464752 
	C954.315735,479.612213 956.565063,490.359436 959.056396,501.050293 
	C959.358032,502.344910 960.758789,503.964661 961.998108,504.370209 
	C975.488525,508.784485 989.091125,512.857971 1002.558289,517.339661 
	C1005.798767,518.418091 1006.334839,517.544434 1007.104614,514.614136 
	C1009.799683,504.353699 1012.892395,494.197693 1015.915955,483.610870 
	C1019.609741,470.148041 1023.221619,457.076355 1027.000610,443.651062 
	C1029.468384,435.116211 1031.851685,426.956879 1034.027954,418.742676 
	C1034.870972,415.560577 1035.245239,412.254364 1035.998535,408.668152 
	C1036.715820,407.727875 1037.575195,407.210938 1037.773926,406.507416 
	C1041.575806,393.050964 1045.300049,379.572632 1049.379639,365.900970 
	C1051.511841,359.010590 1053.288452,352.313568 1055.102417,345.626648 
	C1057.330200,337.413849 1059.588989,329.209503 1062.005859,320.654907 
	C1065.395752,309.206451 1068.614380,298.104614 1071.914429,286.616577 
	C1073.988037,279.822632 1076.142822,273.459747 1077.927246,266.994659 
	C1079.752075,260.383148 1081.213867,253.671371 1083.005981,246.660004 
	C1086.984619,233.731171 1090.791870,221.145859 1094.599121,208.560532 
	C1094.788696,208.580963 1094.978149,208.601379 1095.167725,208.621811 
	C1095.167725,217.748749 1095.167725,226.875687 1095.094360,236.465637 
	C1095.069336,242.953842 1095.117676,248.979019 1095.095459,255.467834 
	C1095.072021,264.955872 1095.119141,273.980286 1095.095947,283.468323 
	C1095.071533,296.288788 1095.117554,308.645630 1095.093994,321.466370 
	C1095.071289,338.955597 1095.118408,355.980927 1095.095947,373.469910 
	C1095.071167,390.622559 1095.115967,407.311584 1095.091309,424.464783 
	C1095.070190,439.286682 1095.118652,453.644409 1095.095703,468.465698 
	C1095.071777,475.620453 1095.119141,482.311554 1095.094482,489.466278 
	C1095.071533,500.621002 1095.120728,511.312164 1095.097290,522.466736 
	C1095.015137,529.427124 1095.270142,535.939331 1094.896606,542.415283 
	C1094.672363,546.300598 1096.205444,547.905090 1099.679810,548.993774 
	C1120.694702,555.579224 1141.685547,562.244385 1162.631592,569.045349 
	C1175.469727,573.213745 1188.213745,577.671936 1201.000000,582.000000 
	C801.118835,582.000000 401.237671,582.000000 1.000000,582.000000 
	C1.000000,515.305725 1.000000,448.610809 1.377329,381.634033 
	C2.166008,384.098114 2.494080,386.859497 3.001621,389.587494 
	C7.910405,415.971588 19.196110,438.728516 39.914337,456.522278 
	C59.539474,473.377258 82.634819,481.153076 107.848091,482.809326 
	C122.110222,483.746216 136.442108,483.330292 150.675659,480.142853 
	C178.299606,473.956757 200.907761,460.298676 216.938187,436.871216 
	C229.263443,418.858643 236.053848,398.763977 238.189468,376.856567 
	C239.725662,361.097809 239.285202,345.572296 235.553482,330.350067 
	C229.789688,306.838654 219.109497,285.815338 200.254852,269.921539 
	C193.319687,264.075439 185.963409,258.388336 177.972092,254.211044 
	C164.061203,246.939407 149.008881,243.323105 133.199554,241.748688 
	C116.561386,240.091736 100.273926,241.273758 84.408821,245.452805 
	C63.587502,250.937393 45.595589,261.624268 31.191753,278.164551 
	C18.408726,292.843658 9.830371,309.516754 5.022534,328.239166 
	C3.513334,334.116211 2.331613,340.077362 1.000000,346.000000 
M423.036774,449.444397 
	C431.657013,436.998199 436.500641,422.981903 437.793152,408.138367 
	C439.192322,392.070129 438.381561,375.885040 431.848511,360.727509 
	C424.198975,342.979553 412.512573,328.813538 394.864075,319.905304 
	C380.714722,312.763214 365.916534,310.235962 350.167450,310.844086 
	C340.088928,311.233215 330.712341,313.554321 322.224152,318.537384 
	C315.098724,322.720520 308.687775,328.120819 301.736511,333.144104 
	C301.602264,332.699982 301.128571,331.722748 301.031616,330.709442 
	C300.624969,326.458801 300.580200,322.154541 299.860260,317.963135 
	C299.609833,316.505127 297.818085,314.203186 296.685516,314.176331 
	C284.920105,313.897552 273.145599,314.004730 261.263733,314.004730 
	C261.263733,391.557434 261.263733,468.588776 261.263733,545.700684 
	C274.917450,545.700684 288.305603,545.700684 302.216675,545.700684 
	C302.216675,517.437927 302.216675,489.470581 302.216675,460.855225 
	C324.820862,489.089386 393.347992,492.484039 423.036774,449.444397 
M489.989075,468.508606 
	C502.493042,476.876984 516.661743,480.862762 531.310547,481.724762 
	C543.078369,482.417267 555.203613,481.837830 566.788391,479.727112 
	C584.624390,476.477386 601.017395,469.287354 613.700073,455.807770 
	C604.841797,446.928375 596.057861,438.123566 587.342712,429.387665 
	C574.633911,440.924866 558.753906,444.515167 542.245544,444.693726 
	C534.513428,444.777283 526.317078,442.687164 519.090759,439.727417 
	C506.652985,434.633057 498.681122,425.006287 495.846344,410.815643 
	C538.455383,410.815643 580.663940,410.815643 622.743164,410.815643 
	C623.208557,406.988007 623.844238,403.741760 623.957275,400.477478 
	C624.385559,388.110413 623.307861,375.857513 619.966553,363.919403 
	C613.352356,340.287506 599.291931,323.220306 575.691040,314.950470 
	C560.498840,309.627014 544.987305,308.219452 528.837036,309.798553 
	C508.534302,311.783691 490.914642,319.226593 476.480255,333.262665 
	C467.829437,341.674713 461.552002,352.117859 457.966675,363.881561 
	C452.974701,380.260590 451.771149,396.758820 454.872345,413.769653 
	C459.053253,436.702667 469.267853,455.441437 489.989075,468.508606 
M646.000000,327.508362 
	C646.000000,377.587189 646.000000,427.666016 646.000000,477.637054 
	C660.043640,477.637054 673.435547,477.637054 687.000000,477.637054 
	C687.000000,448.792206 687.059204,420.309967 686.981995,391.828094 
	C686.915405,367.280731 708.003052,344.776245 735.414856,349.921936 
	C743.424072,351.425415 750.462708,354.788361 755.728271,360.621887 
	C763.200012,368.899475 766.148315,379.096252 766.065430,390.361908 
	C765.864319,417.686218 766.000000,445.013031 766.000000,472.338837 
	C766.000000,474.112488 766.000000,475.886139 766.000000,477.682800 
	C780.283936,477.682800 794.007935,477.682800 807.999756,477.682800 
	C807.999756,453.895325 807.949890,430.424133 808.018982,406.953278 
	C808.058777,393.428314 808.238342,379.915588 805.012695,366.631927 
	C800.681641,348.795898 792.504639,333.412048 776.812012,323.003693 
	C763.676880,314.291626 749.310303,310.562592 733.386169,311.822571 
	C724.748474,312.506042 716.447876,313.993225 709.027771,318.142120 
	C700.702637,322.797089 692.959900,328.493835 685.026489,333.696198 
	C684.272705,327.788422 683.416443,321.077881 682.551453,314.299194 
	C670.425781,314.299194 658.365540,314.299194 646.000000,314.299194 
	C646.000000,318.565552 646.000000,322.538635 646.000000,327.508362 
z"/>
<path fill="#FFFFFF" opacity="1.000000" stroke="none" 
	d="
M2233.000000,411.000000 
	C2233.000000,467.980072 2233.000000,524.960144 2233.000000,582.000000 
	C1890.639771,582.000000 1548.279663,582.000000 1205.461792,581.531372 
	C1204.946411,570.042969 1204.888794,559.023254 1204.906494,547.539917 
	C1204.932373,537.051697 1204.882935,527.026978 1204.908081,516.538940 
	C1204.932739,509.384277 1204.882812,502.693024 1204.907837,495.538330 
	C1204.933350,481.384064 1204.883911,467.693207 1204.908691,453.538818 
	C1204.932739,437.052216 1204.882690,421.029175 1204.907715,404.542297 
	C1204.932861,387.720276 1204.882812,371.362091 1204.906738,354.540100 
	C1204.931641,342.052094 1204.882446,330.027893 1204.906250,317.539795 
	C1204.930664,306.385040 1204.881836,295.694214 1204.905396,284.539459 
	C1204.929565,277.050995 1204.881592,270.026428 1204.905884,262.538086 
	C1204.930054,250.050888 1204.881958,238.027420 1204.906982,225.540146 
	C1204.931030,207.051651 1204.882080,189.026962 1204.905396,170.538483 
	C1204.977661,117.192619 1204.977661,64.310585 1204.977661,11.100763 
	C1206.302612,11.100763 1207.319336,10.878003 1208.196655,11.133935 
	C1222.950317,15.438359 1237.678833,19.828568 1252.429077,24.144964 
	C1263.908569,27.504208 1275.409912,30.788029 1287.097900,34.447350 
	C1288.696899,35.129448 1290.109619,35.433376 1291.500854,35.815578 
	C1300.317017,38.237778 1309.128418,40.677299 1318.140381,43.443840 
	C1325.855713,46.200176 1333.372314,48.623783 1341.034424,51.363544 
	C1347.006470,55.791283 1350.450928,61.610077 1352.976562,68.506821 
	C1354.631226,74.954384 1356.261108,81.000092 1357.940918,87.457535 
	C1359.624023,94.260666 1361.257080,100.652054 1362.941040,107.455223 
	C1364.716919,114.579369 1366.441895,121.291718 1368.106689,128.254883 
	C1368.089722,128.672104 1368.132935,128.838516 1368.113037,129.250793 
	C1368.091064,129.660797 1368.132202,129.824951 1368.224609,130.374237 
	C1370.239380,138.166443 1372.202881,145.573532 1374.099609,153.376968 
	C1375.409790,158.850082 1376.787109,163.926834 1378.099609,169.398987 
	C1380.810791,181.104095 1383.542480,192.424850 1386.370483,203.721512 
	C1396.563354,244.438477 1406.798828,285.144745 1416.997559,325.860199 
	C1422.688721,348.580750 1428.325073,371.315033 1434.062012,394.023895 
	C1434.274902,394.866455 1435.288696,395.506683 1436.795044,397.234222 
	C1436.920654,394.542633 1436.796265,393.367493 1437.052368,392.282196 
	C1442.936768,367.353302 1448.923218,342.448364 1454.749390,317.505920 
	C1456.958740,308.047485 1458.816284,298.506866 1461.005127,288.651489 
	C1461.793335,285.561798 1462.410767,282.824310 1463.267334,279.990631 
	C1463.600220,279.596802 1463.693970,279.299103 1463.876221,278.674744 
	C1463.918945,277.901733 1463.873169,277.455414 1464.007080,276.649841 
	C1465.403564,270.527954 1466.620483,264.765350 1468.017334,258.649597 
	C1469.741943,251.533279 1471.286621,244.770157 1473.006470,237.652130 
	C1474.489380,231.545074 1475.797241,225.792908 1477.444580,219.837021 
	C1478.897217,214.100769 1480.010376,208.568222 1481.460815,202.831253 
	C1482.812866,197.748093 1483.827637,192.869370 1484.923096,187.593842 
	C1486.284912,182.125809 1487.565918,177.054535 1488.914307,171.575745 
	C1489.306030,170.086197 1489.693848,169.018723 1489.945435,167.920013 
	C1494.973022,145.958450 1500.048950,124.007492 1504.925781,102.012444 
	C1505.600342,98.970749 1507.179565,98.572960 1509.523804,99.268288 
	C1515.573120,101.062622 1521.545166,103.120773 1527.607178,104.868088 
	C1545.342896,109.980202 1563.112061,114.975769 1580.858643,120.050560 
	C1589.285767,122.460335 1597.030762,125.662361 1598.098877,136.468414 
	C1598.077148,148.958817 1598.125488,160.985657 1598.104492,173.468185 
	C1598.082275,177.622116 1598.129395,181.320343 1598.102539,185.462860 
	C1598.074097,188.606094 1598.119629,191.305023 1598.092041,194.467255 
	C1598.067993,214.621475 1598.116943,234.312378 1598.096924,254.467194 
	C1598.074219,261.960266 1598.120605,268.989441 1598.094971,276.346588 
	C1598.069214,277.117249 1598.115723,277.559967 1598.091797,278.440643 
	C1598.067017,281.241180 1598.112671,283.603760 1598.085327,286.408081 
	C1598.061768,289.233429 1598.111328,291.617035 1598.091797,294.464691 
	C1598.069824,312.620667 1598.116821,330.312531 1598.091187,348.467773 
	C1598.068237,368.622437 1598.118042,388.313782 1598.097900,408.467773 
	C1598.075806,414.292755 1598.124023,419.655090 1598.095703,425.428436 
	C1598.067261,427.227844 1598.115234,428.616241 1598.090332,430.462158 
	C1598.063721,434.936493 1598.109985,438.953278 1598.081299,443.421082 
	C1598.057251,446.915039 1598.108032,449.957977 1598.089355,453.464905 
	C1598.019653,472.521637 1598.019653,491.114410 1598.019653,510.309204 
	C1601.310547,509.716583 1604.083862,509.217163 1606.835571,508.721649 
	C1606.835571,490.229980 1606.835571,472.117126 1606.911377,453.540833 
	C1606.935913,437.053223 1606.884644,421.029083 1606.909424,404.541443 
	C1606.934814,385.387604 1606.884399,366.697205 1606.910156,347.543213 
	C1606.935425,330.054443 1606.884766,313.029297 1606.908203,295.540405 
	C1606.932983,280.718750 1606.883545,266.360870 1606.907959,251.539337 
	C1606.931763,237.718140 1606.881836,224.360565 1606.904297,210.539047 
	C1606.927490,196.387039 1606.878418,182.698990 1606.902710,168.546356 
	C1606.928101,157.055496 1606.880127,146.029221 1606.903809,134.591461 
	C1606.484619,127.391960 1604.341187,121.110611 1598.163574,117.798706 
	C1592.129395,114.563629 1585.593506,112.078979 1579.037109,110.038300 
	C1559.124512,103.840424 1539.129761,97.897247 1519.077515,92.167992 
	C1515.842407,91.243652 1511.403564,90.595802 1508.789185,92.069580 
	C1491.007690,102.093864 1473.566040,112.721016 1455.666992,123.180344 
	C1452.215210,125.190887 1449.111084,127.174568 1445.658936,129.187424 
	C1442.206543,131.199173 1439.102051,133.181747 1435.648071,135.200500 
	C1432.187500,137.102936 1429.076416,138.969208 1425.647461,140.999207 
	C1421.873901,143.403702 1418.418213,145.644470 1414.599365,147.947479 
	C1409.810791,150.625214 1405.385254,153.240707 1400.602295,155.927383 
	C1396.460205,158.315247 1392.675659,160.631943 1388.539062,162.979492 
	C1385.470215,164.414932 1385.469116,162.078781 1385.036743,160.611374 
	C1383.902832,156.762131 1382.893921,152.876083 1381.909912,148.603455 
	C1379.933228,140.464081 1377.881836,132.725952 1375.906372,124.587097 
	C1373.932373,116.792984 1371.882446,109.399597 1369.906982,101.595596 
	C1368.598022,95.458260 1367.214722,89.731537 1365.893433,83.610245 
	C1364.247437,76.481155 1362.539307,69.746628 1360.785400,62.643265 
	C1358.367188,54.898804 1355.235596,48.046398 1347.938232,43.626228 
	C1339.184448,40.588329 1330.600342,37.872715 1321.669678,34.991867 
	C1311.215698,31.940208 1301.108521,29.053787 1290.655518,25.991985 
	C1288.930786,25.412115 1287.548950,25.016556 1286.172852,24.601761 
	C1273.339722,20.733330 1260.506470,16.864408 1247.675049,12.990082 
	C1234.448975,8.996618 1221.224976,4.996949 1208.000000,1.000001 
	C1549.564575,1.000000 1891.129028,1.000000 2233.000000,1.000000 
	C2233.000000,127.026703 2233.000000,253.053650 2232.625977,379.369507 
	C2228.445557,349.456604 2213.829590,326.869080 2184.662598,316.189270 
	C2152.477783,304.404480 2122.662598,308.268158 2096.911133,333.415009 
	C2096.911133,304.368317 2096.911133,275.346771 2096.911133,246.325012 
	C2083.032227,246.325012 2069.641846,246.325012 2056.339844,246.325012 
	C2056.339844,323.691772 2056.339844,400.732880 2056.339844,478.000122 
	C2067.658203,478.000122 2078.641357,477.846924 2089.616699,478.079956 
	C2093.668945,478.166016 2095.161865,477.097626 2095.143555,472.783630 
	C2095.123291,467.977234 2096.211914,463.166107 2096.715820,459.166779 
	C2103.369873,464.303802 2109.182129,469.958191 2116.011230,473.810059 
	C2128.679199,480.955475 2142.526855,482.514954 2157.117676,481.220093 
	C2170.348145,480.045898 2182.625244,476.855103 2194.167969,470.405792 
	C2209.955322,461.585144 2220.912598,448.640381 2226.997559,431.704254 
	C2229.422363,424.955170 2231.023926,417.910248 2233.000000,411.000000 
M1494.964600,531.995667 
	C1498.308350,531.603638 1501.652100,531.211548 1505.786255,530.703308 
	C1509.860718,529.744873 1513.935303,528.786499 1518.860107,527.967346 
	C1524.273926,526.994507 1529.687622,526.021729 1535.839478,524.586670 
	C1535.836548,515.060608 1535.833740,505.534515 1535.983521,495.080811 
	C1535.933960,486.388916 1535.884399,477.696991 1535.984253,468.077759 
	C1535.934814,458.053040 1535.885498,448.028320 1535.984131,437.076355 
	C1535.933838,427.052734 1535.883545,417.029144 1535.983398,406.078064 
	C1535.933594,395.053833 1535.883789,384.029633 1535.982788,372.077728 
	C1535.933716,361.386597 1535.884644,350.695465 1535.981689,339.254944 
	C1535.933350,338.496216 1535.884888,337.737457 1535.951660,336.504669 
	C1535.951660,336.504669 1535.830444,336.032196 1535.974365,335.100708 
	C1535.927490,327.069092 1535.880615,319.037506 1535.980591,310.077911 
	C1535.932007,300.386108 1535.883423,290.694336 1535.978638,280.074707 
	C1535.978638,261.885132 1535.978638,243.695557 1535.978638,225.505997 
	C1534.787109,226.106369 1534.238770,226.854355 1534.034668,227.686783 
	C1532.762939,232.870773 1531.525269,238.063995 1530.357300,243.272308 
	C1527.840820,254.494232 1525.373169,265.727112 1522.221191,277.368103 
	C1520.534424,284.919922 1518.847778,292.471771 1516.998779,300.810516 
	C1515.054443,309.208710 1513.110107,317.606903 1511.008545,326.790833 
	C1509.060059,334.541718 1507.111450,342.292603 1505.016968,350.846436 
	C1502.997314,359.854034 1500.977539,368.861603 1498.252930,378.276611 
	C1497.907715,380.014862 1497.584106,381.757751 1497.213745,383.490631 
	C1495.537842,391.330505 1493.848755,399.167542 1491.811401,407.719116 
	C1489.926636,415.488861 1488.041748,423.258606 1486.016479,431.833984 
	C1484.066162,440.558044 1482.115967,449.282074 1479.812988,458.720398 
	C1476.263062,473.814209 1472.713257,488.908051 1469.006226,504.768066 
	C1468.727173,506.509766 1468.448120,508.251495 1467.830444,510.676636 
	C1467.276611,512.781006 1466.722778,514.885376 1466.017090,517.761475 
	C1465.732788,519.508484 1465.448608,521.255493 1464.777100,523.720886 
	C1464.434082,525.590515 1464.090942,527.460144 1463.766846,529.226868 
	C1473.865234,533.537842 1483.705811,535.989929 1494.964600,531.995667 
M1303.023438,540.935913 
	C1302.933472,553.464478 1303.028320,553.192200 1313.060913,556.688538 
	C1323.665039,560.383972 1334.168335,561.929626 1345.811646,557.968628 
	C1351.865967,556.924866 1357.920288,555.881104 1364.802368,554.989441 
	C1371.218384,553.678406 1377.634277,552.367371 1384.536743,550.978638 
	C1384.536743,550.978638 1385.005005,550.825256 1385.492065,550.955688 
	C1385.655396,550.915833 1385.818604,550.875916 1386.821533,550.983337 
	C1392.138672,549.906860 1397.455811,548.830383 1403.592407,547.269897 
	C1397.583984,525.267090 1391.619873,503.251984 1385.547729,481.266754 
	C1382.753296,471.149445 1379.746582,461.090729 1376.987427,450.212616 
	C1374.938599,443.141998 1372.889893,436.071381 1370.971436,428.213776 
	C1368.685425,420.455322 1366.399414,412.696869 1364.019043,404.128601 
	C1363.799438,403.027863 1363.647217,401.908508 1363.349121,400.829407 
	C1361.525635,394.229401 1359.669189,387.638519 1357.725952,380.272858 
	C1355.521729,373.167206 1353.317505,366.061554 1351.020142,358.123199 
	C1348.694458,349.366943 1346.368652,340.610687 1344.008789,331.056732 
	C1342.283691,325.039520 1340.558594,319.022278 1338.955933,312.216125 
	C1337.005859,305.444763 1335.055664,298.673401 1333.016724,291.103851 
	C1328.346191,274.112427 1323.751465,257.099670 1318.983521,240.135590 
	C1314.269653,223.363800 1310.432495,206.310760 1304.685547,189.860382 
	C1304.180298,190.000992 1303.675171,190.141602 1303.169922,190.282211 
	C1303.169922,227.524002 1303.169922,264.765808 1303.031860,302.800812 
	C1303.078125,303.870758 1303.124390,304.940704 1303.049805,306.492554 
	C1303.049805,306.492554 1303.164185,306.976074 1303.021118,307.905243 
	C1303.069824,313.605042 1303.118408,319.304840 1303.028320,325.932098 
	C1303.074341,333.290558 1303.120361,340.649048 1303.028564,348.934814 
	C1303.075073,358.292023 1303.121582,367.649231 1303.027344,377.933411 
	C1303.073608,385.624390 1303.119873,393.315399 1303.026733,401.933563 
	C1303.072998,409.624390 1303.119263,417.315186 1303.026611,425.933350 
	C1303.073486,434.624603 1303.120361,443.315857 1303.026855,452.934143 
	C1303.072754,460.957916 1303.118530,468.981659 1303.022583,477.932465 
	C1303.073242,492.607880 1303.124023,507.283264 1303.025391,522.809143 
	C1303.072144,524.529724 1303.118896,526.250366 1303.029541,528.855835 
	C1303.072632,531.238831 1303.115723,533.621826 1303.020020,536.800720 
	C1303.068970,537.874390 1303.117920,538.947998 1303.023438,540.935913 
M1887.984741,468.502167 
	C1904.421387,480.356659 1923.255737,484.201447 1942.843140,482.765930 
	C1962.599487,481.318024 1980.086182,474.010162 1991.863770,455.959137 
	C1992.274536,462.623474 1992.774658,468.524780 1992.945312,474.435608 
	C1993.031128,477.407990 1994.441895,478.073700 1997.034668,478.029449 
	C2002.697876,477.932800 2008.363892,478.000000 2014.028687,478.000092 
	C2020.287354,478.000183 2026.546143,478.000122 2032.631836,478.000122 
	C2032.631836,422.929932 2032.631836,368.549377 2032.631836,314.222656 
	C2019.317017,314.222656 2006.371582,314.222656 1993.121826,314.222656 
	C1992.605713,321.051758 1992.104736,327.681732 1991.577759,334.656677 
	C1985.760132,326.263916 1978.212036,320.128418 1969.253784,316.185699 
	C1949.453613,307.471161 1929.048340,308.278198 1908.926025,314.657776 
	C1874.408936,325.601105 1857.412231,353.728241 1855.219482,386.712189 
	C1854.493652,397.629578 1855.267578,408.912384 1857.233887,419.685303 
	C1860.855347,439.526917 1869.955444,456.544891 1887.984741,468.502167 
M1706.500000,478.000153 
	C1749.914429,478.000153 1793.328979,478.000153 1836.638062,478.000153 
	C1836.638062,463.958527 1836.638062,450.566803 1836.638062,436.698517 
	C1796.890259,436.698517 1757.502930,436.698517 1717.821045,436.698517 
	C1717.821045,372.951233 1717.821045,309.688354 1717.821045,246.277359 
	C1702.795532,246.277359 1688.072388,246.277359 1673.296997,246.277359 
	C1673.296997,323.599640 1673.296997,400.643951 1673.296997,478.000153 
	C1684.227539,478.000153 1694.863770,478.000153 1706.500000,478.000153 
z"/>
<path fill="#0080CC" opacity="1.000000" stroke="none" 
	d="
M1.000000,346.468658 
	C2.331613,340.077362 3.513334,334.116211 5.022534,328.239166 
	C9.830371,309.516754 18.408726,292.843658 31.191753,278.164551 
	C45.595589,261.624268 63.587502,250.937393 84.408821,245.452805 
	C100.273926,241.273758 116.561386,240.091736 133.199554,241.748688 
	C149.008881,243.323105 164.061203,246.939407 177.972092,254.211044 
	C185.963409,258.388336 193.319687,264.075439 200.254852,269.921539 
	C219.109497,285.815338 229.789688,306.838654 235.553482,330.350067 
	C239.285202,345.572296 239.725662,361.097809 238.189468,376.856567 
	C236.053848,398.763977 229.263443,418.858643 216.938187,436.871216 
	C200.907761,460.298676 178.299606,473.956757 150.675659,480.142853 
	C136.442108,483.330292 122.110222,483.746216 107.848091,482.809326 
	C82.634819,481.153076 59.539474,473.377258 39.914337,456.522278 
	C19.196110,438.728516 7.910405,415.971588 3.001621,389.587494 
	C2.494080,386.859497 2.166008,384.098114 1.377329,381.176086 
	C1.000000,369.645782 1.000000,358.291534 1.000000,346.468658 
M59.968258,413.589691 
	C65.296082,419.057220 69.871635,425.656952 76.087997,429.787201 
	C97.674133,444.129395 121.572372,445.379272 145.768906,438.442657 
	C165.656601,432.741272 179.485870,419.506531 187.432373,400.183624 
	C194.254074,383.595795 196.513550,366.575531 194.066162,348.776031 
	C191.674957,331.385101 185.614120,315.623352 173.329742,302.974640 
	C153.541870,282.599945 128.596252,278.422058 102.098541,283.659790 
	C74.522118,289.110748 57.307831,307.018066 48.865101,333.525940 
	C44.288956,347.893829 43.400753,362.493439 45.881264,377.448303 
	C48.014179,390.307556 51.728149,402.390839 59.968258,413.589691 
z"/>
<path fill="#0080CC" opacity="1.000000" stroke="none" 
	d="
M2233.000000,410.531372 
	C2231.023926,417.910248 2229.422363,424.955170 2226.997559,431.704254 
	C2220.912598,448.640381 2209.955322,461.585144 2194.167969,470.405792 
	C2182.625244,476.855103 2170.348145,480.045898 2157.117676,481.220093 
	C2142.526855,482.514954 2128.679199,480.955475 2116.011230,473.810059 
	C2109.182129,469.958191 2103.369873,464.303802 2096.715820,459.166779 
	C2096.211914,463.166107 2095.123291,467.977234 2095.143555,472.783630 
	C2095.161865,477.097626 2093.668945,478.166016 2089.616699,478.079956 
	C2078.641357,477.846924 2067.658203,478.000122 2056.339844,478.000122 
	C2056.339844,400.732880 2056.339844,323.691772 2056.339844,246.325012 
	C2069.641846,246.325012 2083.032227,246.325012 2096.911133,246.325012 
	C2096.911133,275.346771 2096.911133,304.368317 2096.911133,333.415009 
	C2122.662598,308.268158 2152.477783,304.404480 2184.662598,316.189270 
	C2213.829590,326.869080 2228.445557,349.456604 2232.625977,379.829193 
	C2233.000000,390.020905 2233.000000,400.041779 2233.000000,410.531372 
M2106.457764,420.984222 
	C2118.513428,441.917938 2145.093994,448.653687 2166.338867,438.843872 
	C2196.415771,424.955780 2201.179443,379.303406 2175.580322,358.962158 
	C2157.646240,344.711487 2131.420166,345.838654 2114.544922,361.055664 
	C2098.212646,375.783264 2095.428955,401.721375 2106.457764,420.984222 
z"/>
<path fill="#009FE8" opacity="1.000000" stroke="none" 
	d="
M1286.901611,34.105381 
	C1275.409912,30.788029 1263.908569,27.504208 1252.429077,24.144964 
	C1237.678833,19.828568 1222.950317,15.438359 1208.196655,11.133935 
	C1207.319336,10.878003 1206.302612,11.100763 1204.977661,11.100763 
	C1204.977661,64.310585 1204.977661,117.192619 1204.561523,170.492477 
	C1201.875000,169.617279 1199.751343,167.793854 1197.310181,167.119003 
	C1183.453125,163.288330 1169.519043,159.736282 1155.613159,156.082001 
	C1122.844971,147.471085 1090.104858,138.750092 1057.276489,130.375717 
	C1053.143677,129.321472 1048.547852,130.082092 1044.166748,130.001862 
	C1046.115479,121.153816 1047.854248,112.252914 1050.064575,103.470695 
	C1053.013550,91.753555 1061.087036,84.614120 1071.360962,78.749107 
	C1094.915649,65.302643 1118.037231,51.099216 1141.375732,37.272259 
	C1161.487305,25.357088 1181.655396,13.537683 1201.899292,1.337974 
	C1203.714355,1.000000 1205.428711,1.000000 1207.571533,1.000001 
	C1221.224976,4.996949 1234.448975,8.996618 1247.675049,12.990082 
	C1260.506470,16.864408 1273.339722,20.733330 1286.172852,24.601761 
	C1287.548950,25.016556 1288.930786,25.412115 1290.584351,26.329430 
	C1288.181274,28.523174 1284.692383,29.762047 1286.901611,34.105381 
z"/>
<path fill="#004D94" opacity="1.000000" stroke="none" 
	d="
M1204.831177,548.003540 
	C1204.888794,559.023254 1204.946411,570.042969 1205.002075,581.531372 
	C1203.933350,582.000000 1202.866577,582.000000 1201.399902,582.000000 
	C1188.213745,577.671936 1175.469727,573.213745 1162.631592,569.045349 
	C1141.685547,562.244385 1120.694702,555.579224 1099.679810,548.993774 
	C1096.205444,547.905090 1094.672363,546.300598 1094.896606,542.415283 
	C1095.270142,535.939331 1095.015137,529.427124 1095.441895,522.394897 
	C1097.915894,519.201721 1100.265869,518.731140 1103.651611,519.649719 
	C1123.799194,525.116333 1144.078979,530.099365 1164.200684,535.656128 
	C1177.840576,539.422913 1191.294189,543.864014 1204.831177,548.003540 
z"/>
<path fill="#0080CC" opacity="1.000000" stroke="none" 
	d="
M422.783875,449.711151 
	C393.347992,492.484039 324.820862,489.089386 302.216675,460.855225 
	C302.216675,489.470581 302.216675,517.437927 302.216675,545.700684 
	C288.305603,545.700684 274.917450,545.700684 261.263733,545.700684 
	C261.263733,468.588776 261.263733,391.557434 261.263733,314.004730 
	C273.145599,314.004730 284.920105,313.897552 296.685516,314.176331 
	C297.818085,314.203186 299.609833,316.505127 299.860260,317.963135 
	C300.580200,322.154541 300.624969,326.458801 301.031616,330.709442 
	C301.128571,331.722748 301.602264,332.699982 301.736511,333.144104 
	C308.687775,328.120819 315.098724,322.720520 322.224152,318.537384 
	C330.712341,313.554321 340.088928,311.233215 350.167450,310.844086 
	C365.916534,310.235962 380.714722,312.763214 394.864075,319.905304 
	C412.512573,328.813538 424.198975,342.979553 431.848511,360.727509 
	C438.381561,375.885040 439.192322,392.070129 437.793152,408.138367 
	C436.500641,422.981903 431.657013,436.998199 422.783875,449.711151 
M355.208710,441.999146 
	C365.067261,440.737335 374.253143,437.656067 381.628265,430.787811 
	C394.949615,418.381958 399.481598,402.912933 395.874359,385.270233 
	C393.610443,374.197479 387.747711,365.194214 378.255615,358.613953 
	C368.423645,351.798065 357.658722,349.807037 345.945160,350.952942 
	C331.590729,352.357147 320.426727,358.618866 312.493195,370.883392 
	C305.849091,381.154572 304.987061,392.514160 306.180664,403.974487 
	C307.255127,414.291107 312.457489,423.336426 320.017212,430.249054 
	C329.531250,438.948730 341.301331,442.623871 355.208710,441.999146 
z"/>
<path fill="#0080CC" opacity="1.000000" stroke="none" 
	d="
M489.688538,468.288116 
	C469.267853,455.441437 459.053253,436.702667 454.872345,413.769653 
	C451.771149,396.758820 452.974701,380.260590 457.966675,363.881561 
	C461.552002,352.117859 467.829437,341.674713 476.480255,333.262665 
	C490.914642,319.226593 508.534302,311.783691 528.837036,309.798553 
	C544.987305,308.219452 560.498840,309.627014 575.691040,314.950470 
	C599.291931,323.220306 613.352356,340.287506 619.966553,363.919403 
	C623.307861,375.857513 624.385559,388.110413 623.957275,400.477478 
	C623.844238,403.741760 623.208557,406.988007 622.743164,410.815643 
	C580.663940,410.815643 538.455383,410.815643 495.846344,410.815643 
	C498.681122,425.006287 506.652985,434.633057 519.090759,439.727417 
	C526.317078,442.687164 534.513428,444.777283 542.245544,444.693726 
	C558.753906,444.515167 574.633911,440.924866 587.342712,429.387665 
	C596.057861,438.123566 604.841797,446.928375 613.700073,455.807770 
	C601.017395,469.287354 584.624390,476.477386 566.788391,479.727112 
	C555.203613,481.837830 543.078369,482.417267 531.310547,481.724762 
	C516.661743,480.862762 502.493042,476.876984 489.688538,468.288116 
M517.746765,351.044769 
	C507.305237,356.695435 500.337891,365.113922 496.818298,376.676575 
	C525.831421,376.676575 554.338867,376.676575 583.185364,376.676575 
	C581.500366,365.673889 576.573242,357.161102 566.971741,352.055206 
	C551.095459,343.612579 534.840210,343.861816 517.746765,351.044769 
z"/>
<path fill="#0080CC" opacity="1.000000" stroke="none" 
	d="
M646.000000,327.010040 
	C646.000000,322.538635 646.000000,318.565552 646.000000,314.299194 
	C658.365540,314.299194 670.425781,314.299194 682.551453,314.299194 
	C683.416443,321.077881 684.272705,327.788422 685.026489,333.696198 
	C692.959900,328.493835 700.702637,322.797089 709.027771,318.142120 
	C716.447876,313.993225 724.748474,312.506042 733.386169,311.822571 
	C749.310303,310.562592 763.676880,314.291626 776.812012,323.003693 
	C792.504639,333.412048 800.681641,348.795898 805.012695,366.631927 
	C808.238342,379.915588 808.058777,393.428314 808.018982,406.953278 
	C807.949890,430.424133 807.999756,453.895325 807.999756,477.682800 
	C794.007935,477.682800 780.283936,477.682800 766.000000,477.682800 
	C766.000000,475.886139 766.000000,474.112488 766.000000,472.338837 
	C766.000000,445.013031 765.864319,417.686218 766.065430,390.361908 
	C766.148315,379.096252 763.200012,368.899475 755.728271,360.621887 
	C750.462708,354.788361 743.424072,351.425415 735.414856,349.921936 
	C708.003052,344.776245 686.915405,367.280731 686.981995,391.828094 
	C687.059204,420.309967 687.000000,448.792206 687.000000,477.637054 
	C673.435547,477.637054 660.043640,477.637054 646.000000,477.637054 
	C646.000000,427.666016 646.000000,377.587189 646.000000,327.010040 
z"/>
<path fill="#0096DE" opacity="1.000000" stroke="none" 
	d="
M1044.086670,130.395264 
	C1048.547852,130.082092 1053.143677,129.321472 1057.276489,130.375717 
	C1090.104858,138.750092 1122.844971,147.471085 1155.613159,156.082001 
	C1169.519043,159.736282 1183.453125,163.288330 1197.310181,167.119003 
	C1199.751343,167.793854 1201.875000,169.617279 1204.489258,170.956299 
	C1204.882080,189.026962 1204.931030,207.051651 1204.557007,225.590302 
	C1201.545898,229.271515 1198.381470,228.802994 1194.906738,227.862518 
	C1176.395020,222.852005 1157.858765,217.931686 1139.315430,213.039078 
	C1106.707031,204.435440 1074.124512,195.728134 1041.433960,187.447647 
	C1036.305908,186.148697 1033.542603,183.960709 1032.958496,178.874985 
	C1035.414062,167.675278 1037.822388,156.464935 1040.347046,145.280823 
	C1041.443726,140.422302 1042.779541,135.617722 1044.086670,130.395264 
z"/>
<path fill="#008CD2" opacity="1.000000" stroke="none" 
	d="
M1032.612793,179.081223 
	C1033.542603,183.960709 1036.305908,186.148697 1041.433960,187.447647 
	C1074.124512,195.728134 1106.707031,204.435440 1139.315430,213.039078 
	C1157.858765,217.931686 1176.395020,222.852005 1194.906738,227.862518 
	C1198.381470,228.802994 1201.545898,229.271515 1204.483887,226.054108 
	C1204.881958,238.027420 1204.930054,250.050888 1204.556152,262.588928 
	C1201.552490,266.271545 1198.395386,265.811890 1194.920654,264.867218 
	C1176.759155,259.929779 1158.458740,255.473297 1140.412231,250.152100 
	C1125.262207,245.684967 1108.962524,244.801270 1095.167725,236.002625 
	C1095.167725,226.875687 1095.167725,217.748749 1095.167725,208.621811 
	C1094.978149,208.601379 1094.788696,208.580963 1094.599121,208.560532 
	C1090.791870,221.145859 1086.984619,233.731171 1082.633301,246.711487 
	C1080.486328,247.275223 1078.765747,247.910431 1077.299072,247.540222 
	C1063.317871,244.011337 1049.335083,240.471207 1035.453003,236.577072 
	C1030.479126,235.181839 1025.778076,232.813934 1020.952393,230.889954 
	C1023.122498,220.945984 1025.286255,211.000641 1027.464844,201.058517 
	C1029.055542,193.799301 1030.665649,186.544327 1032.612793,179.081223 
z"/>
<path fill="#006AAE" opacity="1.000000" stroke="none" 
	d="
M1204.832642,405.006134 
	C1204.882690,421.029175 1204.932739,437.052216 1204.540039,453.487091 
	C1183.013794,448.260284 1161.906250,442.710144 1140.854980,436.953400 
	C1125.584961,432.777527 1110.389526,428.328033 1095.160889,424.000580 
	C1095.115967,407.311584 1095.071167,390.622559 1095.464111,373.518799 
	C1120.704956,379.747742 1145.580444,386.136505 1170.279541,393.146576 
	C1181.978149,396.466888 1194.793091,396.783417 1204.832642,405.006134 
z"/>
<path fill="#0075B9" opacity="1.000000" stroke="none" 
	d="
M1204.907715,404.542297 
	C1194.793091,396.783417 1181.978149,396.466888 1170.279541,393.146576 
	C1145.580444,386.136505 1120.704956,379.747742 1095.533691,373.055176 
	C1095.118408,355.980927 1095.071289,338.955597 1095.439331,321.514160 
	C1097.962280,322.464050 1099.896240,324.467224 1102.204956,325.097229 
	C1124.697510,331.235291 1147.332886,336.861450 1169.757446,343.232391 
	C1181.604858,346.598297 1194.496826,347.076447 1204.832764,355.003876 
	C1204.882812,371.362091 1204.932861,387.720276 1204.907715,404.542297 
z"/>
<path fill="#0060A4" opacity="1.000000" stroke="none" 
	d="
M1095.091309,424.464783 
	C1110.389526,428.328033 1125.584961,432.777527 1140.854980,436.953400 
	C1161.906250,442.710144 1183.013794,448.260284 1204.465820,453.950653 
	C1204.883911,467.693207 1204.933350,481.384064 1204.574829,495.474884 
	C1201.651001,493.702240 1199.461426,490.326874 1196.569092,489.542450 
	C1166.731689,481.450378 1136.762573,473.846100 1106.881470,465.912170 
	C1102.428101,464.729736 1098.446411,463.738586 1095.167114,468.002106 
	C1095.118652,453.644409 1095.070190,439.286682 1095.091309,424.464783 
z"/>
<path fill="#0069AD" opacity="1.000000" stroke="none" 
	d="
M1049.040405,366.098816 
	C1045.300049,379.572632 1041.575806,393.050964 1037.773926,406.507416 
	C1037.575195,407.210938 1036.715820,407.727875 1035.610840,408.657501 
	C1017.918701,404.443817 1000.788757,399.869873 983.638062,395.375305 
	C968.891113,391.510681 954.113403,387.763123 939.366943,383.896667 
	C936.894043,383.248230 934.724121,382.787964 933.966675,386.095032 
	C931.644104,376.087769 929.310730,366.083008 927.009399,356.070862 
	C926.611145,354.338531 926.348633,352.574982 926.463745,350.464294 
	C943.213928,354.402527 959.523743,358.702362 975.833557,363.002228 
	C977.556335,369.841644 979.303833,376.675018 980.987183,383.524109 
	C981.510254,385.652283 981.859436,387.823181 983.461792,390.026001 
	C986.384338,377.144897 989.306885,364.263824 992.978149,351.185181 
	C1004.772522,353.807495 1015.848633,356.514679 1026.853149,359.486603 
	C1034.301025,361.497955 1041.648193,363.881683 1049.040405,366.098816 
z"/>
<path fill="#007DC2" opacity="1.000000" stroke="none" 
	d="
M1204.906738,354.540100 
	C1194.496826,347.076447 1181.604858,346.598297 1169.757446,343.232391 
	C1147.332886,336.861450 1124.697510,331.235291 1102.204956,325.097229 
	C1099.896240,324.467224 1097.962280,322.464050 1095.509033,321.050293 
	C1095.117554,308.645630 1095.071533,296.288788 1095.430176,283.530640 
	C1098.874634,285.136230 1101.657471,288.055084 1104.997437,288.996185 
	C1121.742065,293.714325 1138.803833,297.356598 1155.423462,302.454712 
	C1171.924316,307.516357 1189.724365,308.541321 1204.833130,318.003662 
	C1204.882446,330.027893 1204.931641,342.052094 1204.906738,354.540100 
z"/>
<path fill="#0061A5" opacity="1.000000" stroke="none" 
	d="
M933.982788,386.510803 
	C934.724121,382.787964 936.894043,383.248230 939.366943,383.896667 
	C954.113403,387.763123 968.891113,391.510681 983.638062,395.375305 
	C1000.788757,399.869873 1017.918701,404.443817 1035.445312,408.994019 
	C1035.245239,412.254364 1034.870972,415.560577 1034.027954,418.742676 
	C1031.851685,426.956879 1029.468384,435.116211 1026.638184,443.702545 
	C1023.952698,444.654388 1021.568726,446.094543 1019.675903,445.611298 
	C998.187378,440.125366 976.794739,434.264893 955.321899,428.715790 
	C951.318481,427.681213 947.073669,427.580353 942.940308,427.048523 
	C940.296143,415.585114 937.638672,404.124756 935.021240,392.655243 
	C934.590210,390.766296 934.335205,388.837189 933.982788,386.510803 
z"/>
<path fill="#00599E" opacity="1.000000" stroke="none" 
	d="
M1095.095703,468.465698 
	C1098.446411,463.738586 1102.428101,464.729736 1106.881470,465.912170 
	C1136.762573,473.846100 1166.731689,481.450378 1196.569092,489.542450 
	C1199.461426,490.326874 1201.651001,493.702240 1204.499878,495.938293 
	C1204.882812,502.693024 1204.932739,509.384277 1204.544678,516.591431 
	C1201.491699,517.477234 1198.663940,518.689026 1196.294434,518.089355 
	C1167.172974,510.719330 1138.129517,503.041290 1109.036133,495.558563 
	C1103.943970,494.248840 1098.904663,493.067535 1095.166504,489.002686 
	C1095.119141,482.311554 1095.071777,475.620453 1095.095703,468.465698 
z"/>
<path fill="#00579D" opacity="1.000000" stroke="none" 
	d="
M942.969116,427.466339 
	C947.073669,427.580353 951.318481,427.681213 955.321899,428.715790 
	C976.794739,434.264893 998.187378,440.125366 1019.675903,445.611298 
	C1021.568726,446.094543 1023.952698,444.654388 1026.470947,444.056152 
	C1023.221619,457.076355 1019.609741,470.148041 1015.534424,483.554657 
	C1008.375732,482.215240 1001.679077,480.546295 994.985413,478.865387 
	C980.638977,475.262665 966.294006,471.653809 951.948486,468.047455 
	C949.634705,458.115662 947.288635,448.191223 945.024902,438.248016 
	C944.243835,434.817413 943.667664,431.340118 942.969116,427.466339 
z"/>
<path fill="#0083C8" opacity="1.000000" stroke="none" 
	d="
M1204.906250,317.539795 
	C1189.724365,308.541321 1171.924316,307.516357 1155.423462,302.454712 
	C1138.803833,297.356598 1121.742065,293.714325 1104.997437,288.996185 
	C1101.657471,288.055084 1098.874634,285.136230 1095.500732,283.067017 
	C1095.119141,273.980286 1095.072021,264.955872 1095.433716,255.534180 
	C1098.281860,257.703125 1099.128174,261.166443 1103.739868,262.324432 
	C1133.424438,269.778351 1162.961548,277.820557 1192.532471,285.724701 
	C1196.760132,286.854706 1200.882324,287.829468 1204.833130,285.003357 
	C1204.881836,295.694214 1204.930664,306.385040 1204.906250,317.539795 
z"/>
<path fill="#007CC1" opacity="1.000000" stroke="none" 
	d="
M874.166809,271.002106 
	C874.119324,259.312012 874.071899,247.621887 874.528320,235.466797 
	C879.082458,235.674698 883.217957,236.026245 887.168823,237.074188 
	C908.082092,242.621338 928.948914,248.343582 949.831787,254.005157 
	C952.791748,265.751221 955.751770,277.497284 958.330200,289.623322 
	C953.863708,289.462433 949.687378,289.291870 945.710876,288.311127 
	C933.820801,285.378479 922.008972,282.128662 910.166565,279.002686 
	C909.663452,276.829712 909.160339,274.656738 908.657166,272.483765 
	C908.431091,272.499542 908.205078,272.515320 907.979004,272.531067 
	C907.979004,274.083344 907.979004,275.635590 907.528015,277.586700 
	C898.499695,275.627380 889.954590,273.139313 881.323120,270.999481 
	C879.075989,270.442444 876.559570,270.971741 874.166809,271.002106 
z"/>
<path fill="#00539A" opacity="1.000000" stroke="none" 
	d="
M1095.094482,489.466278 
	C1098.904663,493.067535 1103.943970,494.248840 1109.036133,495.558563 
	C1138.129517,503.041290 1167.172974,510.719330 1196.294434,518.089355 
	C1198.663940,518.689026 1201.491699,517.477234 1204.469971,517.054810 
	C1204.882935,527.026978 1204.932373,537.051697 1204.906494,547.539917 
	C1191.294189,543.864014 1177.840576,539.422913 1164.200684,535.656128 
	C1144.078979,530.099365 1123.799194,525.116333 1103.651611,519.649719 
	C1100.265869,518.731140 1097.915894,519.201721 1095.514404,521.931396 
	C1095.120728,511.312164 1095.071533,500.621002 1095.094482,489.466278 
z"/>
<path fill="#0073B7" opacity="1.000000" stroke="none" 
	d="
M1049.379639,365.900970 
	C1041.648193,363.881683 1034.301025,361.497955 1026.853149,359.486603 
	C1015.848633,356.514679 1004.772522,353.807495 993.313477,350.978149 
	C995.419067,339.674896 997.933899,328.380066 1000.459778,317.087708 
	C1001.298950,313.336121 1002.166321,309.590820 1003.392883,305.610809 
	C1005.462158,306.294342 1007.062195,307.552399 1008.873352,308.066132 
	C1016.991516,310.368805 1025.134521,312.605042 1033.335571,314.588745 
	C1042.798462,316.877777 1052.331665,318.876648 1061.834473,321.001526 
	C1059.588989,329.209503 1057.330200,337.413849 1055.102417,345.626648 
	C1053.288452,352.313568 1051.511841,359.010590 1049.379639,365.900970 
z"/>
<path fill="#0083C8" opacity="1.000000" stroke="none" 
	d="
M949.895935,253.609924 
	C928.948914,248.343582 908.082092,242.621338 887.168823,237.074188 
	C883.217957,236.026245 879.082458,235.674698 874.599609,235.003296 
	C874.112122,225.858963 873.505859,216.668243 874.245850,207.587219 
	C874.591553,203.344788 877.541321,199.314560 879.696655,195.399994 
	C881.416870,196.459595 882.644714,197.695099 884.102051,198.095856 
	C900.988647,202.739777 917.895325,207.314240 934.854065,211.684555 
	C936.018738,211.984711 937.641052,210.508865 939.050598,209.858978 
	C942.032593,221.827621 945.008911,233.797653 948.001160,245.763718 
	C948.624084,248.254883 949.305603,250.731400 949.895935,253.609924 
z"/>
<path fill="#0083C8" opacity="1.000000" stroke="none" 
	d="
M1020.611084,231.093628 
	C1025.778076,232.813934 1030.479126,235.181839 1035.453003,236.577072 
	C1049.335083,240.471207 1063.317871,244.011337 1077.299072,247.540222 
	C1078.765747,247.910431 1080.486328,247.275223 1082.461914,247.054993 
	C1081.213867,253.671371 1079.752075,260.383148 1077.927246,266.994659 
	C1076.142822,273.459747 1073.988037,279.822632 1071.552734,286.566895 
	C1069.571411,286.287231 1068.077148,285.509460 1066.488525,285.080139 
	C1051.619507,281.061707 1036.772095,276.950439 1021.824829,273.243530 
	C1018.459473,272.408936 1014.729309,273.045258 1011.167114,273.004456 
	C1012.964355,264.637360 1014.744995,256.266663 1016.564697,247.904404 
	C1017.770630,242.362396 1019.032715,236.832581 1020.611084,231.093628 
z"/>
<path fill="#0088CE" opacity="1.000000" stroke="none" 
	d="
M1204.905396,284.539459 
	C1200.882324,287.829468 1196.760132,286.854706 1192.532471,285.724701 
	C1162.961548,277.820557 1133.424438,269.778351 1103.739868,262.324432 
	C1099.128174,261.166443 1098.281860,257.703125 1095.504395,255.070526 
	C1095.117676,248.979019 1095.069336,242.953842 1095.094360,236.465637 
	C1108.962524,244.801270 1125.262207,245.684967 1140.412231,250.152100 
	C1158.458740,255.473297 1176.759155,259.929779 1194.920654,264.867218 
	C1198.395386,265.811890 1201.552490,266.271545 1204.483765,263.052673 
	C1204.881592,270.026428 1204.929565,277.050995 1204.905396,284.539459 
z"/>
<path fill="#007CC1" opacity="1.000000" stroke="none" 
	d="
M1010.989380,273.357666 
	C1014.729309,273.045258 1018.459473,272.408936 1021.824829,273.243530 
	C1036.772095,276.950439 1051.619507,281.061707 1066.488525,285.080139 
	C1068.077148,285.509460 1069.571411,286.287231 1071.471191,286.953064 
	C1068.614380,298.104614 1065.395752,309.206451 1062.005737,320.654907 
	C1052.331665,318.876648 1042.798462,316.877777 1033.335571,314.588745 
	C1025.134521,312.605042 1016.991516,310.368805 1008.873352,308.066132 
	C1007.062195,307.552399 1005.462158,306.294342 1003.466675,305.209015 
	C1005.716187,294.596344 1008.263916,284.153595 1010.989380,273.357666 
z"/>
<path fill="#004F96" opacity="1.000000" stroke="none" 
	d="
M951.970825,468.464752 
	C966.294006,471.653809 980.638977,475.262665 994.985413,478.865387 
	C1001.679077,480.546295 1008.375732,482.215240 1015.452515,483.945801 
	C1012.892395,494.197693 1009.799683,504.353699 1007.104614,514.614136 
	C1006.334839,517.544434 1005.798767,518.418091 1002.558289,517.339661 
	C989.091125,512.857971 975.488525,508.784485 961.998108,504.370209 
	C960.758789,503.964661 959.358032,502.344910 959.056396,501.050293 
	C956.565063,490.359436 954.315735,479.612213 951.970825,468.464752 
z"/>
<path fill="#0075B9" opacity="1.000000" stroke="none" 
	d="
M910.105469,279.400085 
	C922.008972,282.128662 933.820801,285.378479 945.710876,288.311127 
	C949.687378,289.291870 953.863708,289.462433 958.388672,290.005585 
	C961.685730,301.933868 964.555908,313.856781 967.382507,325.790009 
	C967.716919,327.201691 967.812378,328.669952 967.743286,330.683777 
	C965.995605,331.554413 964.430664,332.329010 963.067810,332.064209 
	C958.715088,331.218384 954.453064,329.919098 950.127502,328.917847 
	C940.064209,326.588470 929.984253,324.331024 919.911072,322.044434 
	C917.275574,310.611603 914.647461,299.177032 911.998962,287.747192 
	C911.382996,285.089081 910.697693,282.446991 910.105469,279.400085 
z"/>
<path fill="#008AD0" opacity="1.000000" stroke="none" 
	d="
M939.031006,209.497620 
	C937.641052,210.508865 936.018738,211.984711 934.854065,211.684555 
	C917.895325,207.314240 900.988647,202.739777 884.102051,198.095856 
	C882.644714,197.695099 881.416870,196.459595 880.020264,195.246979 
	C879.958069,194.882126 880.007629,194.431259 880.275757,194.078644 
	C880.781982,193.482941 880.917297,193.192078 880.949951,192.853455 
	C881.414429,192.284348 881.878906,191.715240 882.833984,190.985931 
	C883.621277,190.683670 883.838989,190.463486 883.977722,190.165192 
	C894.856262,183.468887 905.716125,176.742081 916.624207,170.094223 
	C920.059692,168.000473 923.624207,166.118423 928.189514,163.541122 
	C931.171021,176.231339 934.088928,188.650711 937.091064,201.700226 
	C937.318848,202.625687 937.539612,202.842224 937.837646,202.979980 
	C937.895325,203.702560 937.953003,204.425156 938.092651,205.737396 
	C938.317566,206.623489 938.538269,206.841034 938.836792,206.979691 
	C938.895020,207.698563 938.953186,208.417419 939.031006,209.497620 
z"/>
<path fill="#006CB1" opacity="1.000000" stroke="none" 
	d="
M907.833008,319.003387 
	C907.882629,331.694366 907.932251,344.385315 907.496826,357.538696 
	C905.562012,357.790863 904.079834,357.708527 902.667786,357.349731 
	C893.158447,354.933350 883.664062,352.458344 874.164795,350.002319 
	C874.118469,337.311951 874.072205,324.621582 874.450195,311.416809 
	C876.199463,310.314606 877.795105,308.923004 878.807434,309.263855 
	C888.478699,312.520142 899.245361,312.561066 907.833008,319.003387 
z"/>
<path fill="#006CB1" opacity="1.000000" stroke="none" 
	d="
M919.951782,322.461578 
	C929.984253,324.331024 940.064209,326.588470 950.127502,328.917847 
	C954.453064,329.919098 958.715088,331.218384 963.067810,332.064209 
	C964.430664,332.329010 965.995605,331.554413 967.789185,331.104401 
	C970.733032,341.363556 973.355774,351.773865 975.906067,362.593201 
	C959.523743,358.702362 943.213928,354.402527 926.535400,350.052002 
	C924.443848,342.855835 922.697754,335.715912 921.014038,328.561218 
	C920.573853,326.690521 920.327698,324.774139 919.951782,322.461578 
z"/>
<path fill="#0075B9" opacity="1.000000" stroke="none" 
	d="
M907.907349,318.539703 
	C899.245361,312.561066 888.478699,312.520142 878.807434,309.263855 
	C877.795105,308.923004 876.199463,310.314606 874.520752,310.953156 
	C874.119995,297.979187 874.072998,284.954529 874.096436,271.465973 
	C876.559570,270.971741 879.075989,270.442444 881.323120,270.999481 
	C889.954590,273.139313 898.499695,275.627380 907.454956,277.994202 
	C907.882568,291.360565 907.932190,304.718292 907.907349,318.539703 
z"/>
<path fill="#0063A8" opacity="1.000000" stroke="none" 
	d="
M874.094360,350.466187 
	C883.664062,352.458344 893.158447,354.933350 902.667786,357.349731 
	C904.079834,357.708527 905.562012,357.790863 907.422607,358.002380 
	C907.883423,370.027679 907.933350,382.051727 907.519165,394.547791 
	C905.281738,395.274597 903.327637,396.143341 901.764648,395.683319 
	C892.514832,392.960999 883.355713,389.930206 874.166138,387.003174 
	C874.118713,374.978790 874.071289,362.954437 874.094360,350.466187 
z"/>
<path fill="#00539A" opacity="1.000000" stroke="none" 
	d="
M874.167480,448.002136 
	C874.119873,438.645477 874.072266,429.288879 874.442993,419.513824 
	C878.143921,420.525238 881.342407,422.212585 884.730286,423.320801 
	C889.127869,424.759308 893.626465,426.023315 898.176880,426.814362 
	C901.311829,427.359375 904.608521,426.974487 907.832886,427.005219 
	C907.882324,436.361847 907.931702,445.718506 907.548096,455.593719 
	C906.028259,457.617096 904.941467,459.121857 903.485413,461.137970 
	C897.065308,459.469513 890.248169,457.711090 883.438904,455.922577 
	C880.196899,455.071014 876.339172,454.961395 876.677429,449.894806 
	C876.715637,449.322296 875.045471,448.635773 874.167480,448.002136 
z"/>
<path fill="#005CA1" opacity="1.000000" stroke="none" 
	d="
M907.908325,426.541565 
	C904.608521,426.974487 901.311829,427.359375 898.176880,426.814362 
	C893.626465,426.023315 889.127869,424.759308 884.730286,423.320801 
	C881.342407,422.212585 878.143921,420.525238 874.514221,419.050354 
	C874.119385,408.647064 874.071594,398.288818 874.094971,387.466858 
	C883.355713,389.930206 892.514832,392.960999 901.764648,395.683319 
	C903.327637,396.143341 905.281738,395.274597 907.444458,395.011292 
	C907.883850,405.361206 907.933838,415.719574 907.908325,426.541565 
z"/>
<path fill="#004F96" opacity="1.000000" stroke="none" 
	d="
M874.094788,448.465698 
	C875.045471,448.635773 876.715637,449.322296 876.677429,449.894806 
	C876.339172,454.961395 880.196899,455.071014 883.438904,455.922577 
	C890.248169,457.711090 897.065308,459.469513 903.485413,461.137970 
	C904.941467,459.121857 906.028259,457.617096 907.473633,456.057251 
	C907.832214,466.118896 907.832214,476.235626 907.832214,486.800385 
	C897.202881,483.372955 886.643921,480.052795 876.178528,476.460052 
	C875.156799,476.109314 874.123596,474.092468 874.094727,472.826202 
	C873.913025,464.864136 874.014343,456.895630 874.094788,448.465698 
z"/>
<path fill="#0083C8" opacity="1.000000" stroke="none" 
	d="
M883.715210,190.138916 
	C883.838989,190.463486 883.621277,190.683670 883.098267,190.893280 
	C883.065613,190.678085 883.259155,190.395355 883.715210,190.138916 
z"/>
<path fill="#0083C8" opacity="1.000000" stroke="none" 
	d="
M880.692444,192.947906 
	C880.917297,193.192078 880.781982,193.482941 880.340149,193.861206 
	C880.235840,193.678360 880.335388,193.360367 880.692444,192.947906 
z"/>
<path fill="#0083C8" opacity="1.000000" stroke="none" 
	d="
M937.862793,202.717316 
	C937.539612,202.842224 937.318848,202.625687 937.106201,202.105042 
	C937.320679,202.071350 937.604309,202.263000 937.862793,202.717316 
z"/>
<path fill="#0083C8" opacity="1.000000" stroke="none" 
	d="
M938.862061,206.716888 
	C938.538269,206.841034 938.317566,206.623489 938.106201,206.100922 
	C938.320923,206.067886 938.604126,206.260971 938.862061,206.716888 
z"/>
<path fill="#0080CC" opacity="1.000000" stroke="none" 
	d="
M1887.686523,468.284332 
	C1869.955444,456.544891 1860.855347,439.526917 1857.233887,419.685303 
	C1855.267578,408.912384 1854.493652,397.629578 1855.219482,386.712189 
	C1857.412231,353.728241 1874.408936,325.601105 1908.926025,314.657776 
	C1929.048340,308.278198 1949.453613,307.471161 1969.253784,316.185699 
	C1978.212036,320.128418 1985.760132,326.263916 1991.577759,334.656677 
	C1992.104736,327.681732 1992.605713,321.051758 1993.121826,314.222656 
	C2006.371582,314.222656 2019.317017,314.222656 2032.631836,314.222656 
	C2032.631836,368.549377 2032.631836,422.929932 2032.631836,478.000122 
	C2026.546143,478.000122 2020.287354,478.000183 2014.028687,478.000092 
	C2008.363892,478.000000 2002.697876,477.932800 1997.034668,478.029449 
	C1994.441895,478.073700 1993.031128,477.407990 1992.945312,474.435608 
	C1992.774658,468.524780 1992.274536,462.623474 1991.863770,455.959137 
	C1980.086182,474.010162 1962.599487,481.318024 1942.843140,482.765930 
	C1923.255737,484.201447 1904.421387,480.356659 1887.686523,468.284332 
M1932.108521,348.395325 
	C1930.708862,348.781555 1929.294312,349.121338 1927.911621,349.560944 
	C1901.531372,357.947296 1891.722656,385.695984 1897.772461,409.333344 
	C1902.428955,427.527588 1913.763428,439.250610 1932.159302,443.519348 
	C1949.042969,447.437256 1964.374512,444.227142 1976.806519,431.598511 
	C1989.779663,418.420227 1993.455933,402.203217 1989.661499,384.552795 
	C1985.725464,366.244385 1974.902710,353.273438 1956.215454,348.949860 
	C1948.775391,347.228485 1940.695923,348.270172 1932.108521,348.395325 
z"/>
<path fill="#0080CC" opacity="1.000000" stroke="none" 
	d="
M1706.000000,478.000153 
	C1694.863770,478.000153 1684.227539,478.000153 1673.296997,478.000153 
	C1673.296997,400.643951 1673.296997,323.599640 1673.296997,246.277359 
	C1688.072388,246.277359 1702.795532,246.277359 1717.821045,246.277359 
	C1717.821045,309.688354 1717.821045,372.951233 1717.821045,436.698517 
	C1757.502930,436.698517 1796.890259,436.698517 1836.638062,436.698517 
	C1836.638062,450.566803 1836.638062,463.958527 1836.638062,478.000153 
	C1793.328979,478.000153 1749.914429,478.000153 1706.000000,478.000153 
z"/>
<path fill="#02438D" opacity="1.000000" stroke="none" 
	d="
M1460.834229,289.003723 
	C1458.816284,298.506866 1456.958740,308.047485 1454.749390,317.505920 
	C1448.923218,342.448364 1442.936768,367.353302 1437.052368,392.282196 
	C1436.796265,393.367493 1436.920654,394.542633 1436.795044,397.234222 
	C1435.288696,395.506683 1434.274902,394.866455 1434.062012,394.023895 
	C1428.325073,371.315033 1422.688721,348.580750 1416.997559,325.860199 
	C1406.798828,285.144745 1396.563354,244.438477 1386.370483,203.721512 
	C1383.542480,192.424850 1380.810791,181.104095 1378.459473,169.403992 
	C1380.009277,169.836502 1381.487793,170.427124 1382.205566,171.518143 
	C1389.587524,182.739410 1396.867676,194.027832 1404.135132,205.324081 
	C1421.451172,232.240005 1438.714111,259.190430 1456.135742,286.037842 
	C1457.051270,287.448669 1459.238892,288.034058 1460.834229,289.003723 
z"/>
<path fill="#02438D" opacity="1.000000" stroke="none" 
	d="
M1303.174805,521.958679 
	C1303.124023,507.283264 1303.073242,492.607880 1303.460449,477.473907 
	C1307.674316,476.281891 1311.645508,476.066498 1315.194214,474.729553 
	C1335.796631,466.967712 1356.299561,458.941986 1376.836182,451.005463 
	C1379.746582,461.090729 1382.753296,471.149445 1385.547729,481.266754 
	C1391.619873,503.251984 1397.583984,525.267090 1402.773193,547.282471 
	C1369.512329,536.919495 1337.070923,526.543823 1304.648804,516.174377 
	C1304.048706,518.529236 1303.611694,520.243958 1303.174805,521.958679 
z"/>
<path fill="#009EE7" opacity="1.000000" stroke="none" 
	d="
M1598.169067,136.004837 
	C1597.030762,125.662361 1589.285767,122.460335 1580.858643,120.050560 
	C1563.112061,114.975769 1545.342896,109.980202 1527.607178,104.868088 
	C1521.545166,103.120773 1515.573120,101.062622 1509.523804,99.268288 
	C1507.179565,98.572960 1505.600342,98.970749 1504.925781,102.012444 
	C1500.048950,124.007492 1494.973022,145.958450 1489.945435,167.920013 
	C1489.693848,169.018723 1489.306030,170.086197 1488.574585,171.536606 
	C1487.266846,171.205658 1486.095215,170.682526 1485.507568,169.779404 
	C1479.983887,161.290787 1474.527588,152.757751 1469.117188,144.196152 
	C1464.703369,137.211227 1460.378784,130.169815 1456.014648,123.153473 
	C1473.566040,112.721016 1491.007690,102.093864 1508.789185,92.069580 
	C1511.403564,90.595802 1515.842407,91.243652 1519.077515,92.167992 
	C1539.129761,97.897247 1559.124512,103.840424 1579.037109,110.038300 
	C1585.593506,112.078979 1592.129395,114.563629 1598.163574,117.798706 
	C1604.341187,121.110611 1606.484619,127.391960 1606.568115,134.544662 
	C1604.788940,133.687897 1603.417236,132.466492 1602.497925,131.647964 
	C1600.863281,133.293182 1599.516235,134.649002 1598.169067,136.004837 
z"/>
<path fill="#01448D" opacity="1.000000" stroke="none" 
	d="
M1469.163330,504.001862 
	C1472.713257,488.908051 1476.263062,473.814209 1480.364990,458.361938 
	C1483.112061,459.013733 1485.570801,459.672577 1487.460449,461.090118 
	C1501.727173,471.793121 1515.854126,482.682556 1530.110474,493.399475 
	C1531.746460,494.629303 1533.911255,495.155792 1535.830811,496.008423 
	C1535.833740,505.534515 1535.836548,515.060608 1535.126221,524.668823 
	C1517.268921,519.123352 1500.138306,513.454529 1482.972168,507.895966 
	C1478.425537,506.423737 1473.769287,505.290649 1469.163330,504.001862 
z"/>
<path fill="#0067AB" opacity="1.000000" stroke="none" 
	d="
M1472.831299,238.007034 
	C1471.286621,244.770157 1469.741943,251.533279 1467.679688,258.605042 
	C1464.052368,254.706268 1460.713745,250.647278 1457.870483,246.266785 
	C1441.980713,221.786499 1426.152100,197.265808 1410.445068,172.667908 
	C1406.987427,167.252960 1404.106323,161.469833 1400.959717,155.856232 
	C1405.385254,153.240707 1409.810791,150.625214 1414.613525,148.328735 
	C1418.004639,153.945297 1420.805542,159.377808 1424.068481,164.517014 
	C1438.124146,186.655457 1452.273315,208.735016 1466.511841,230.756256 
	C1468.234741,233.421082 1470.706543,235.601898 1472.831299,238.007034 
z"/>
<path fill="#004F96" opacity="1.000000" stroke="none" 
	d="
M1376.911865,450.609070 
	C1356.299561,458.941986 1335.796631,466.967712 1315.194214,474.729553 
	C1311.645508,476.066498 1307.674316,476.281891 1303.531250,477.010376 
	C1303.118530,468.981659 1303.072754,460.957916 1303.511230,452.468628 
	C1305.942993,451.727600 1308.005615,451.773010 1309.819092,451.123291 
	C1319.935547,447.498627 1329.973389,443.655457 1340.073486,439.984314 
	C1350.307983,436.264282 1360.583496,432.657288 1370.841064,429.000793 
	C1372.889893,436.071381 1374.938599,443.141998 1376.911865,450.609070 
z"/>
<path fill="#009FE8" opacity="1.000000" stroke="none" 
	d="
M1303.169922,302.007568 
	C1303.169922,264.765808 1303.169922,227.524002 1303.169922,190.282211 
	C1303.675171,190.141602 1304.180298,190.000992 1304.685547,189.860382 
	C1310.432495,206.310760 1314.269653,223.363800 1318.983521,240.135590 
	C1323.751465,257.099670 1328.346191,274.112427 1332.695190,291.502502 
	C1330.479980,292.003510 1328.402222,291.633972 1326.723999,292.288605 
	C1318.812622,295.374512 1311.010864,298.741089 1303.169922,302.007568 
z"/>
<path fill="#00589D" opacity="1.000000" stroke="none" 
	d="
M1400.602295,155.927399 
	C1404.106323,161.469833 1406.987427,167.252960 1410.445068,172.667908 
	C1426.152100,197.265808 1441.980713,221.786499 1457.870483,246.266785 
	C1460.713745,250.647278 1464.052368,254.706268 1467.499756,258.958221 
	C1466.620483,264.765350 1465.403564,270.527954 1463.670166,276.603455 
	C1461.922241,275.637115 1460.444702,274.517334 1459.497070,273.054321 
	C1447.594116,254.679306 1435.741211,236.271774 1423.929199,217.838074 
	C1412.218140,199.561966 1400.567993,181.246735 1388.891113,162.948654 
	C1392.675659,160.631943 1396.460205,158.315247 1400.602295,155.927399 
z"/>
<path fill="#005CA1" opacity="1.000000" stroke="none" 
	d="
M1370.906250,428.607300 
	C1360.583496,432.657288 1350.307983,436.264282 1340.073486,439.984314 
	C1329.973389,443.655457 1319.935547,447.498627 1309.819092,451.123291 
	C1308.005615,451.773010 1305.942993,451.727600 1303.581299,452.005096 
	C1303.120361,443.315857 1303.073486,434.624603 1303.468018,425.520294 
	C1306.297974,425.023499 1308.905518,425.540314 1311.040405,424.761414 
	C1328.780762,418.289124 1346.433838,411.577637 1364.113281,404.938446 
	C1366.399414,412.696869 1368.685425,420.455322 1370.906250,428.607300 
z"/>
<path fill="#004D94" opacity="1.000000" stroke="none" 
	d="
M1388.538940,162.979523 
	C1400.567993,181.246735 1412.218140,199.561966 1423.929199,217.838074 
	C1435.741211,236.271774 1447.594116,254.679306 1459.497070,273.054321 
	C1460.444702,274.517334 1461.922241,275.637115 1463.490601,276.962769 
	C1463.873169,277.455414 1463.918945,277.901733 1463.686035,278.805481 
	C1463.180664,279.491394 1463.054321,279.766022 1463.028320,280.086792 
	C1462.410767,282.824310 1461.793335,285.561798 1461.005127,288.651489 
	C1459.238892,288.034058 1457.051270,287.448669 1456.135742,286.037842 
	C1438.714111,259.190430 1421.451172,232.240005 1404.135132,205.324081 
	C1396.867676,194.027832 1389.587524,182.739410 1382.205566,171.518143 
	C1381.487793,170.427124 1380.009277,169.836502 1378.524170,169.008575 
	C1376.787109,163.926834 1375.409790,158.850082 1374.395142,153.226883 
	C1377.116943,151.455200 1379.476074,150.229935 1381.835205,149.004684 
	C1382.893921,152.876083 1383.902832,156.762131 1385.036743,160.611374 
	C1385.469116,162.078781 1385.470215,164.414932 1388.538940,162.979523 
z"/>
<path fill="#004F96" opacity="1.000000" stroke="none" 
	d="
M1535.907227,495.544617 
	C1533.911255,495.155792 1531.746460,494.629303 1530.110474,493.399475 
	C1515.854126,482.682556 1501.727173,471.793121 1487.460449,461.090118 
	C1485.570801,459.672577 1483.112061,459.013733 1480.541260,458.004822 
	C1482.115967,449.282074 1484.066162,440.558044 1486.336304,431.636719 
	C1496.700806,439.258392 1506.704834,447.130157 1516.804932,454.876862 
	C1523.072876,459.684357 1529.486450,464.302185 1535.834717,469.005127 
	C1535.884399,477.696991 1535.933960,486.388916 1535.907227,495.544617 
z"/>
<path fill="#0069AD" opacity="1.000000" stroke="none" 
	d="
M1364.066162,404.533539 
	C1346.433838,411.577637 1328.780762,418.289124 1311.040405,424.761414 
	C1308.905518,425.540314 1306.297974,425.023499 1303.537354,425.056641 
	C1303.119263,417.315186 1303.072998,409.624390 1303.510498,401.468109 
	C1306.270264,400.642395 1308.664917,400.618195 1310.800903,399.862457 
	C1319.085938,396.931091 1327.348022,393.914642 1335.504883,390.646240 
	C1343.020264,387.634827 1350.389893,384.259552 1357.823730,381.044556 
	C1359.669189,387.638519 1361.525635,394.229401 1363.349121,400.829407 
	C1363.647217,401.908508 1363.799438,403.027863 1364.066162,404.533539 
z"/>
<path fill="#005CA1" opacity="1.000000" stroke="none" 
	d="
M1535.909424,468.541443 
	C1529.486450,464.302185 1523.072876,459.684357 1516.804932,454.876862 
	C1506.704834,447.130157 1496.700806,439.258392 1486.406494,431.233917 
	C1488.041748,423.258606 1489.926636,415.488861 1492.330566,407.402649 
	C1501.249023,413.238892 1509.615112,419.437500 1518.058716,425.528473 
	C1523.929321,429.763397 1529.906494,433.850464 1535.836060,438.003601 
	C1535.885498,448.028320 1535.934814,458.053040 1535.909424,468.541443 
z"/>
<path fill="#0075B9" opacity="1.000000" stroke="none" 
	d="
M1357.774902,380.658691 
	C1350.389893,384.259552 1343.020264,387.634827 1335.504883,390.646240 
	C1327.348022,393.914642 1319.085938,396.931091 1310.800903,399.862457 
	C1308.664917,400.618195 1306.270264,400.642395 1303.580200,401.004517 
	C1303.119873,393.315399 1303.073608,385.624390 1303.453003,377.421448 
	C1319.623535,370.924927 1335.368408,364.940399 1351.113281,358.955933 
	C1353.317505,366.061554 1355.521729,373.167206 1357.774902,380.658691 
z"/>
<path fill="#0075B9" opacity="1.000000" stroke="none" 
	d="
M1473.006470,237.652145 
	C1470.706543,235.601898 1468.234741,233.421082 1466.511841,230.756256 
	C1452.273315,208.735016 1438.124146,186.655457 1424.068481,164.517014 
	C1420.805542,159.377808 1418.004639,153.945297 1414.976685,148.266510 
	C1418.418213,145.644470 1421.873901,143.403702 1425.660034,141.386993 
	C1426.963013,143.868652 1427.649536,146.308304 1428.952271,148.355896 
	C1443.082886,170.564850 1457.267578,192.739944 1471.581421,214.830933 
	C1472.918213,216.894302 1475.240356,218.319351 1477.104980,220.040741 
	C1475.797241,225.792908 1474.489380,231.545074 1473.006470,237.652145 
z"/>
<path fill="#0069AD" opacity="1.000000" stroke="none" 
	d="
M1535.910156,437.539978 
	C1529.906494,433.850464 1523.929321,429.763397 1518.058716,425.528473 
	C1509.615112,419.437500 1501.249023,413.238892 1492.507080,407.045898 
	C1493.848755,399.167542 1495.537842,391.330505 1497.213745,383.490631 
	C1497.584106,381.757751 1497.907715,380.014862 1498.659790,378.418762 
	C1504.437256,382.929779 1509.719604,387.413269 1515.201172,391.638214 
	C1521.992188,396.872620 1528.948364,401.892822 1535.833252,407.005493 
	C1535.883545,417.029144 1535.933838,427.052734 1535.910156,437.539978 
z"/>
<path fill="#0080C5" opacity="1.000000" stroke="none" 
	d="
M1351.066650,358.539551 
	C1335.368408,364.940399 1319.623535,370.924927 1303.523438,376.957947 
	C1303.121582,367.649231 1303.075073,358.292023 1303.456543,348.517273 
	C1305.446289,348.132568 1307.168823,348.616669 1308.543945,348.126312 
	C1318.785278,344.474213 1329.016235,340.774658 1339.101562,336.719330 
	C1341.080688,335.923523 1342.412476,333.517670 1344.042847,331.854431 
	C1346.368652,340.610687 1348.694458,349.366943 1351.066650,358.539551 
z"/>
<path fill="#0075B9" opacity="1.000000" stroke="none" 
	d="
M1535.908325,406.541779 
	C1528.948364,401.892822 1521.992188,396.872620 1515.201172,391.638214 
	C1509.719604,387.413269 1504.437256,382.929779 1499.012207,378.215057 
	C1500.977539,368.861603 1502.997314,359.854034 1505.329590,350.672913 
	C1506.866211,352.202087 1507.788208,354.283783 1509.366821,355.541107 
	C1515.818848,360.679901 1522.383057,365.691376 1529.106812,370.466827 
	C1530.996826,371.809204 1533.572754,372.185822 1535.833984,373.005432 
	C1535.883789,384.029633 1535.933594,395.053833 1535.908325,406.541779 
z"/>
<path fill="#0080C5" opacity="1.000000" stroke="none" 
	d="
M1477.444580,219.837021 
	C1475.240356,218.319351 1472.918213,216.894302 1471.581421,214.830933 
	C1457.267578,192.739944 1443.082886,170.564850 1428.952271,148.355896 
	C1427.649536,146.308304 1426.963013,143.868652 1425.977783,141.223267 
	C1429.076416,138.969208 1432.187500,137.102936 1435.655273,135.563858 
	C1436.753662,137.526108 1437.311523,139.278061 1438.265015,140.778580 
	C1450.799438,160.505112 1463.340332,180.228195 1476.062256,199.833633 
	C1477.049561,201.355072 1479.404297,201.989166 1481.123535,203.035675 
	C1480.010376,208.568222 1478.897217,214.100769 1477.444580,219.837021 
z"/>
<path fill="#008AD0" opacity="1.000000" stroke="none" 
	d="
M1481.460815,202.831268 
	C1479.404297,201.989166 1477.049561,201.355072 1476.062256,199.833633 
	C1463.340332,180.228195 1450.799438,160.505112 1438.265015,140.778580 
	C1437.311523,139.278061 1436.753662,137.526108 1436.004639,135.527679 
	C1439.102051,133.181747 1442.206543,131.199173 1445.663330,129.547211 
	C1446.265869,130.650421 1446.366089,131.518524 1446.788452,132.181610 
	C1457.372803,148.801849 1467.923950,165.444229 1478.679321,181.953568 
	C1480.211792,184.305908 1482.762817,185.994720 1484.842407,187.990631 
	C1483.827637,192.869370 1482.812866,197.748093 1481.460815,202.831268 
z"/>
<path fill="#008CD2" opacity="1.000000" stroke="none" 
	d="
M1344.025879,331.455566 
	C1342.412476,333.517670 1341.080688,335.923523 1339.101562,336.719330 
	C1329.016235,340.774658 1318.785278,344.474213 1308.543945,348.126312 
	C1307.168823,348.616669 1305.446289,348.132568 1303.525391,348.053589 
	C1303.120361,340.649048 1303.074341,333.290558 1303.502319,325.466919 
	C1306.215332,324.543030 1308.552612,324.353485 1310.676514,323.579315 
	C1320.095581,320.146179 1329.453491,316.545258 1338.833496,313.005066 
	C1340.558594,319.022278 1342.283691,325.039520 1344.025879,331.455566 
z"/>
<path fill="#0080C5" opacity="1.000000" stroke="none" 
	d="
M1535.908447,372.541565 
	C1533.572754,372.185822 1530.996826,371.809204 1529.106812,370.466827 
	C1522.383057,365.691376 1515.818848,360.679901 1509.366821,355.541107 
	C1507.788208,354.283783 1506.866211,352.202087 1505.402588,350.271423 
	C1507.111450,342.292603 1509.060059,334.541718 1511.423340,326.439026 
	C1517.176392,330.147369 1522.519531,334.201233 1527.850952,338.270538 
	C1530.248657,340.100616 1532.675903,341.718109 1535.835449,340.004333 
	C1535.884644,350.695465 1535.933716,361.386597 1535.908447,372.541565 
z"/>
<path fill="#0096DE" opacity="1.000000" stroke="none" 
	d="
M1338.894775,312.610596 
	C1329.453491,316.545258 1320.095581,320.146179 1310.676514,323.579315 
	C1308.552612,324.353485 1306.215332,324.543030 1303.571655,325.003174 
	C1303.118408,319.304840 1303.069824,313.605042 1303.236938,307.351044 
	C1303.504272,306.696777 1303.625366,306.552734 1303.594971,306.504364 
	C1303.480347,306.322937 1303.316284,306.172638 1303.170776,306.010651 
	C1303.124390,304.940704 1303.078125,303.870758 1303.100830,302.404175 
	C1311.010864,298.741089 1318.812622,295.374512 1326.723999,292.288605 
	C1328.402222,291.633972 1330.479980,292.003510 1332.739624,291.901611 
	C1335.055664,298.673401 1337.005859,305.444763 1338.894775,312.610596 
z"/>
<path fill="#004BA0" opacity="1.000000" stroke="none" 
	d="
M1303.100098,522.383911 
	C1303.611694,520.243958 1304.048706,518.529236 1304.648804,516.174377 
	C1337.070923,526.543823 1369.512329,536.919495 1402.363403,547.524536 
	C1397.455811,548.830383 1392.138672,549.906860 1386.311279,550.763367 
	C1385.535767,550.637390 1385.270386,550.731323 1385.005005,550.825317 
	C1385.005005,550.825256 1384.536743,550.978638 1384.120239,550.698364 
	C1382.090942,549.640808 1380.543823,548.653564 1378.853516,548.123657 
	C1372.528809,546.140869 1366.161255,544.294800 1359.802612,542.421204 
	C1342.159790,537.222656 1324.523438,532.001404 1306.843628,526.931946 
	C1305.802490,526.633423 1304.399902,527.595520 1303.165527,527.970947 
	C1303.118896,526.250366 1303.072144,524.529724 1303.100098,522.383911 
z"/>
<path fill="#0096DE" opacity="1.000000" stroke="none" 
	d="
M1484.923096,187.593857 
	C1482.762817,185.994720 1480.211792,184.305908 1478.679321,181.953568 
	C1467.923950,165.444229 1457.372803,148.801849 1446.788452,132.181610 
	C1446.366089,131.518524 1446.265869,130.650421 1446.011230,129.518036 
	C1449.111084,127.174568 1452.215210,125.190887 1455.666992,123.180344 
	C1460.378784,130.169815 1464.703369,137.211227 1469.117188,144.196152 
	C1474.527588,152.757751 1479.983887,161.290787 1485.507568,169.779404 
	C1486.095215,170.682526 1487.266846,171.205658 1488.507324,171.944138 
	C1487.565918,177.054535 1486.284912,182.125809 1484.923096,187.593857 
z"/>
<path fill="#005BAB" opacity="1.000000" stroke="none" 
	d="
M1303.097534,528.413391 
	C1304.399902,527.595520 1305.802490,526.633423 1306.843628,526.931946 
	C1324.523438,532.001404 1342.159790,537.222656 1359.802612,542.421204 
	C1366.161255,544.294800 1372.528809,546.140869 1378.853516,548.123657 
	C1380.543823,548.653564 1382.090942,549.640808 1383.876953,550.737183 
	C1377.634277,552.367371 1371.218384,553.678406 1364.216064,554.614502 
	C1361.943481,553.272156 1360.365967,551.948059 1358.553223,551.394958 
	C1346.522339,547.724304 1334.470093,544.116760 1322.364624,540.701416 
	C1316.025635,538.913025 1309.564697,537.556396 1303.158813,536.004761 
	C1303.115723,533.621826 1303.072632,531.238831 1303.097534,528.413391 
z"/>
<path fill="#008AD0" opacity="1.000000" stroke="none" 
	d="
M1535.908569,339.629639 
	C1532.675903,341.718109 1530.248657,340.100616 1527.850952,338.270538 
	C1522.519531,334.201233 1517.176392,330.147369 1511.501831,326.046143 
	C1513.110107,317.606903 1515.054443,309.208710 1517.364014,300.576355 
	C1521.983032,303.649780 1526.122070,307.124786 1530.560425,310.162659 
	C1531.888428,311.071564 1534.052612,310.758881 1535.833740,311.005890 
	C1535.880615,319.037506 1535.927490,327.069092 1535.759644,335.655334 
	C1535.642090,336.466217 1535.739380,336.722473 1535.836548,336.978699 
	C1535.884888,337.737457 1535.933350,338.496216 1535.908569,339.629639 
z"/>
<path fill="#0063A8" opacity="1.000000" stroke="none" 
	d="
M1598.167969,408.005127 
	C1598.118042,388.313782 1598.068237,368.622437 1598.524658,348.466156 
	C1601.631836,348.003082 1604.232910,348.004974 1606.833984,348.006836 
	C1606.884399,366.697205 1606.934814,385.387604 1606.510010,404.539917 
	C1603.412476,406.002960 1600.790161,407.004028 1598.167969,408.005127 
z"/>
<path fill="#006CB8" opacity="1.000000" stroke="none" 
	d="
M1303.089355,536.402710 
	C1309.564697,537.556396 1316.025635,538.913025 1322.364624,540.701416 
	C1334.470093,544.116760 1346.522339,547.724304 1358.553223,551.394958 
	C1360.365967,551.948059 1361.943481,553.272156 1363.802246,554.538452 
	C1357.920288,555.881104 1351.865967,556.924866 1345.154785,557.643311 
	C1333.347046,553.880371 1322.256592,550.224670 1311.014038,547.119385 
	C1306.898926,545.982666 1303.745605,544.659485 1303.166870,540.021667 
	C1303.117920,538.947998 1303.068970,537.874390 1303.089355,536.402710 
z"/>
<path fill="#004D94" opacity="1.000000" stroke="none" 
	d="
M1606.835571,454.004303 
	C1606.835571,472.117126 1606.835571,490.229980 1606.835571,508.721649 
	C1604.083862,509.217163 1601.310547,509.716583 1598.019653,510.309204 
	C1598.019653,491.114410 1598.019653,472.521637 1598.474854,453.520203 
	C1601.565308,453.409088 1604.200439,453.706696 1606.835571,454.004303 
z"/>
<path fill="#0073B7" opacity="1.000000" stroke="none" 
	d="
M1606.910156,347.543213 
	C1604.232910,348.004974 1601.631836,348.003082 1598.597412,348.002808 
	C1598.116821,330.312531 1598.069824,312.620667 1598.453735,294.512482 
	C1601.534424,294.732178 1604.184204,295.368164 1606.833984,296.004150 
	C1606.884766,313.029297 1606.935425,330.054443 1606.910156,347.543213 
z"/>
<path fill="#0096DE" opacity="1.000000" stroke="none" 
	d="
M1535.907104,310.541901 
	C1534.052612,310.758881 1531.888428,311.071564 1530.560425,310.162659 
	C1526.122070,307.124786 1521.983032,303.649780 1517.445190,300.182922 
	C1518.847778,292.471771 1520.534424,284.919922 1522.916260,277.204407 
	C1525.045166,277.834686 1526.889771,278.301971 1527.831787,279.486816 
	C1530.191650,282.454834 1532.863403,282.133423 1535.834717,281.002533 
	C1535.883423,290.694336 1535.932007,300.386108 1535.907104,310.541901 
z"/>
<path fill="#009EE7" opacity="1.000000" stroke="none" 
	d="
M1535.906738,280.538635 
	C1532.863403,282.133423 1530.191650,282.454834 1527.831787,279.486816 
	C1526.889771,278.301971 1525.045166,277.834686 1523.248535,276.998108 
	C1525.373169,265.727112 1527.840820,254.494232 1530.357300,243.272308 
	C1531.525269,238.063995 1532.762939,232.870773 1534.034668,227.686783 
	C1534.238770,226.854355 1534.787109,226.106369 1535.978638,225.505997 
	C1535.978638,243.695557 1535.978638,261.885132 1535.906738,280.538635 
z"/>
<path fill="#004BA0" opacity="1.000000" stroke="none" 
	d="
M1469.084717,504.384949 
	C1473.769287,505.290649 1478.425537,506.423737 1482.972168,507.895966 
	C1500.138306,513.454529 1517.268921,519.123352 1534.757080,524.899902 
	C1529.687622,526.021729 1524.273926,526.994507 1518.362915,527.555603 
	C1516.484741,526.359985 1515.188354,525.319397 1513.709717,524.832092 
	C1498.546387,519.834351 1483.353638,514.926270 1468.169067,509.993225 
	C1468.448120,508.251495 1468.727173,506.509766 1469.084717,504.384949 
z"/>
<path fill="#00589D" opacity="1.000000" stroke="none" 
	d="
M1606.911377,453.540833 
	C1604.200439,453.706696 1601.565308,453.409088 1598.544556,453.056213 
	C1598.108032,449.957977 1598.057251,446.915039 1598.344482,443.108765 
	C1598.788330,438.227112 1598.894165,434.108826 1599.000000,429.612885 
	C1598.723999,427.829285 1598.448120,426.423340 1598.172119,425.017395 
	C1598.124023,419.655090 1598.075806,414.292755 1598.097900,408.467773 
	C1600.790161,407.004028 1603.412476,406.002960 1606.434082,405.003418 
	C1606.884644,421.029083 1606.935913,437.053223 1606.911377,453.540833 
z"/>
<path fill="#0088CE" opacity="1.000000" stroke="none" 
	d="
M1606.831909,211.003006 
	C1606.881836,224.360565 1606.931763,237.718140 1606.517578,251.538315 
	C1603.424316,252.668381 1600.795166,253.335831 1598.166016,254.003296 
	C1598.116943,234.312378 1598.067993,214.621475 1598.300781,194.466309 
	C1598.582642,194.002060 1599.000000,194.003052 1599.000000,194.470963 
	C1599.000000,198.762527 1599.173828,202.596481 1598.948120,206.406754 
	C1598.750244,209.743637 1599.694702,211.504440 1603.343872,211.023712 
	C1604.487549,210.873016 1605.668213,211.002029 1606.831909,211.003006 
z"/>
<path fill="#007DC2" opacity="1.000000" stroke="none" 
	d="
M1598.096924,254.467178 
	C1600.795166,253.335831 1603.424316,252.668381 1606.443848,252.001953 
	C1606.883545,266.360870 1606.932983,280.718750 1606.908203,295.540405 
	C1604.184204,295.368164 1601.534424,294.732178 1598.522705,294.048401 
	C1598.111328,291.617035 1598.061768,289.233429 1598.342773,286.110565 
	C1598.782349,282.910858 1598.891113,280.450409 1598.984985,277.708282 
	C1598.702271,276.957245 1598.434692,276.487946 1598.167114,276.018616 
	C1598.120605,268.989441 1598.074219,261.960266 1598.096924,254.467178 
z"/>
<path fill="#005BAB" opacity="1.000000" stroke="none" 
	d="
M1467.999756,510.334930 
	C1483.353638,514.926270 1498.546387,519.834351 1513.709717,524.832092 
	C1515.188354,525.319397 1516.484741,526.359985 1517.937744,527.485962 
	C1513.935303,528.786499 1509.860718,529.744873 1505.215332,530.466431 
	C1503.904541,529.582092 1503.267822,528.609619 1502.408813,528.336243 
	C1490.346558,524.498291 1478.254028,520.755615 1466.168823,516.989746 
	C1466.722778,514.885376 1467.276611,512.781006 1467.999756,510.334930 
z"/>
<path fill="#008CD2" opacity="1.000000" stroke="none" 
	d="
M1606.904297,210.539047 
	C1605.668213,211.002029 1604.487549,210.873016 1603.343872,211.023712 
	C1599.694702,211.504440 1598.750244,209.743637 1598.948120,206.406754 
	C1599.173828,202.596481 1599.000000,198.762527 1599.001221,194.034912 
	C1598.727173,190.426804 1598.451782,187.722687 1598.176392,185.018570 
	C1598.129395,181.320343 1598.082275,177.622116 1598.438477,173.400543 
	C1600.946289,170.435455 1603.104248,168.104492 1606.829346,169.010941 
	C1606.878418,182.698990 1606.927490,196.387039 1606.904297,210.539047 
z"/>
<path fill="#0096DE" opacity="1.000000" stroke="none" 
	d="
M1606.902832,168.546356 
	C1603.104248,168.104492 1600.946289,170.435455 1598.507812,172.944824 
	C1598.125488,160.985657 1598.077148,148.958817 1598.098877,136.468414 
	C1599.516235,134.649002 1600.863281,133.293182 1602.497925,131.647964 
	C1603.417236,132.466492 1604.788940,133.687897 1606.496338,134.956116 
	C1606.880127,146.029221 1606.928101,157.055496 1606.902832,168.546356 
z"/>
<path fill="#0096DE" opacity="1.000000" stroke="none" 
	d="
M1287.097900,34.447350 
	C1284.692383,29.762047 1288.181274,28.523174 1290.929932,26.504812 
	C1301.108521,29.053787 1311.215698,31.940208 1321.806763,35.279415 
	C1320.840820,38.191837 1319.391113,40.651474 1317.941406,43.111107 
	C1309.128418,40.677299 1300.317017,38.237778 1291.500854,35.815578 
	C1290.109619,35.433376 1288.696899,35.129448 1287.097900,34.447350 
z"/>
<path fill="#0080CC" opacity="1.000000" stroke="none" 
	d="
M1303.095215,540.478760 
	C1303.745605,544.659485 1306.898926,545.982666 1311.014038,547.119385 
	C1322.256592,550.224670 1333.347046,553.880371 1344.732666,557.576416 
	C1334.168335,561.929626 1323.665039,560.383972 1313.060913,556.688538 
	C1303.028320,553.192200 1302.933472,553.464478 1303.095215,540.478760 
z"/>
<path fill="#008AD0" opacity="1.000000" stroke="none" 
	d="
M1318.140381,43.443840 
	C1319.391113,40.651474 1320.840820,38.191837 1322.153320,35.444653 
	C1330.600342,37.872715 1339.184448,40.588329 1347.658447,43.828499 
	C1345.328369,46.584496 1343.108643,48.815933 1340.888794,51.047379 
	C1333.372314,48.623783 1325.855713,46.200176 1318.140381,43.443840 
z"/>
<path fill="#006CB8" opacity="1.000000" stroke="none" 
	d="
M1466.093018,517.375610 
	C1478.254028,520.755615 1490.346558,524.498291 1502.408813,528.336243 
	C1503.267822,528.609619 1503.904541,529.582092 1504.820190,530.524536 
	C1501.652100,531.211548 1498.308350,531.603638 1494.139526,531.999268 
	C1483.931030,529.002747 1474.547729,526.002625 1465.164307,523.002502 
	C1465.448608,521.255493 1465.732788,519.508484 1466.093018,517.375610 
z"/>
<path fill="#00599E" opacity="1.000000" stroke="none" 
	d="
M1381.909912,148.603424 
	C1379.476074,150.229935 1377.116943,151.455200 1374.462158,152.830536 
	C1372.202881,145.573532 1370.239380,138.166443 1368.369873,130.281433 
	C1368.367920,129.537338 1368.272095,129.271149 1368.176270,129.004944 
	C1368.132935,128.838516 1368.089722,128.672104 1368.437744,128.212601 
	C1371.477783,127.694199 1372.087646,122.599831 1375.830566,124.987823 
	C1377.881836,132.725952 1379.933228,140.464081 1381.909912,148.603424 
z"/>
<path fill="#0080C5" opacity="1.000000" stroke="none" 
	d="
M1341.034424,51.363533 
	C1343.108643,48.815933 1345.328369,46.584496 1347.828125,44.150784 
	C1355.235596,48.046398 1358.367188,54.898804 1360.431396,62.645374 
	C1357.732910,64.712540 1355.342407,66.408752 1352.952026,68.104965 
	C1350.450928,61.610077 1347.006470,55.791283 1341.034424,51.363533 
z"/>
<path fill="#0063A8" opacity="1.000000" stroke="none" 
	d="
M1375.906494,124.587090 
	C1372.087646,122.599831 1371.477783,127.694199 1368.498047,127.961807 
	C1366.441895,121.291718 1364.716919,114.579369 1363.248413,107.315018 
	C1365.614136,105.177422 1367.723267,103.591812 1369.832397,102.006210 
	C1371.882446,109.399597 1373.932373,116.792984 1375.906494,124.587090 
z"/>
<path fill="#0075B9" opacity="1.000000" stroke="none" 
	d="
M1352.976562,68.506821 
	C1355.342407,66.408752 1357.732910,64.712540 1360.477295,63.014214 
	C1362.539307,69.746628 1364.247437,76.481155 1365.531738,83.615425 
	C1362.702393,85.025383 1360.296753,86.035591 1357.891113,87.045807 
	C1356.261108,81.000092 1354.631226,74.954384 1352.976562,68.506821 
z"/>
<path fill="#006CB1" opacity="1.000000" stroke="none" 
	d="
M1357.940918,87.457542 
	C1360.296753,86.035591 1362.702393,85.025383 1365.469727,84.009995 
	C1367.214722,89.731537 1368.598022,95.458260 1369.906982,101.595589 
	C1367.723267,103.591812 1365.614136,105.177422 1363.197632,106.903229 
	C1361.257080,100.652054 1359.624023,94.260666 1357.940918,87.457542 
z"/>
<path fill="#0080CC" opacity="1.000000" stroke="none" 
	d="
M1464.970703,523.361694 
	C1474.547729,526.002625 1483.931030,529.002747 1493.712891,532.024170 
	C1483.705811,535.989929 1473.865234,533.537842 1463.766846,529.226868 
	C1464.090942,527.460144 1464.434082,525.590515 1464.970703,523.361694 
z"/>
<path fill="#004D94" opacity="1.000000" stroke="none" 
	d="
M1599.000000,429.990540 
	C1598.894165,434.108826 1598.788330,438.227112 1598.419434,442.657715 
	C1598.109985,438.953278 1598.063721,434.936493 1598.299561,430.458862 
	C1598.581665,429.997955 1599.000000,429.990540 1599.000000,429.990540 
z"/>
<path fill="#0096DE" opacity="1.000000" stroke="none" 
	d="
M1598.102539,185.462860 
	C1598.451782,187.722687 1598.727173,190.426804 1599.001221,193.566986 
	C1599.000000,194.003052 1598.582642,194.002060 1598.374023,194.003021 
	C1598.119629,191.305023 1598.074097,188.606094 1598.102539,185.462860 
z"/>
<path fill="#0073B7" opacity="1.000000" stroke="none" 
	d="
M1599.000000,277.989990 
	C1598.891113,280.450409 1598.782349,282.910858 1598.416016,285.668793 
	C1598.112671,283.603760 1598.067017,281.241180 1598.301270,278.437775 
	C1598.581177,277.996918 1599.000000,277.989990 1599.000000,277.989990 
z"/>
<path fill="#0063A8" opacity="1.000000" stroke="none" 
	d="
M1599.000000,429.612885 
	C1599.000000,429.990540 1598.581665,429.997955 1598.372559,430.001282 
	C1598.115234,428.616241 1598.067261,427.227844 1598.095703,425.428436 
	C1598.448120,426.423340 1598.723999,427.829285 1599.000000,429.612885 
z"/>
<path fill="#0088CE" opacity="1.000000" stroke="none" 
	d="
M1598.984985,277.708282 
	C1599.000000,277.989990 1598.581177,277.996918 1598.371826,277.999786 
	C1598.115723,277.559967 1598.069214,277.117249 1598.094971,276.346619 
	C1598.434692,276.487946 1598.702271,276.957245 1598.984985,277.708282 
z"/>
<path fill="#005BAB" opacity="1.000000" stroke="none" 
	d="
M1385.248535,550.890503 
	C1385.270386,550.731323 1385.535767,550.637390 1385.891357,550.689697 
	C1385.818604,550.875916 1385.655396,550.915833 1385.248535,550.890503 
z"/>
<path fill="#0063A8" opacity="1.000000" stroke="none" 
	d="
M1368.113037,129.250793 
	C1368.272095,129.271149 1368.367920,129.537338 1368.318481,129.896317 
	C1368.132202,129.824951 1368.091064,129.660797 1368.113037,129.250793 
z"/>
<path fill="#0080C5" opacity="1.000000" stroke="none" 
	d="
M1535.894043,336.741699 
	C1535.739380,336.722473 1535.642090,336.466217 1535.687744,336.121063 
	C1535.830444,336.032196 1535.951660,336.504669 1535.894043,336.741699 
z"/>
<path fill="#00589D" opacity="1.000000" stroke="none" 
	d="
M1463.267456,279.990662 
	C1463.054321,279.766022 1463.180664,279.491394 1463.597412,279.132202 
	C1463.693970,279.299103 1463.600220,279.596802 1463.267456,279.990662 
z"/>
<path fill="#009FE8" opacity="1.000000" stroke="none" 
	d="
M1303.110352,306.251587 
	C1303.316284,306.172638 1303.480347,306.322937 1303.594971,306.504364 
	C1303.625366,306.552734 1303.504272,306.696777 1303.308472,306.886475 
	C1303.164185,306.976074 1303.049805,306.492554 1303.110352,306.251587 
z"/>
<path fill="#FFFFFF" opacity="1.000000" stroke="none" 
	d="
M59.747406,413.291992 
	C51.728149,402.390839 48.014179,390.307556 45.881264,377.448303 
	C43.400753,362.493439 44.288956,347.893829 48.865101,333.525940 
	C57.307831,307.018066 74.522118,289.110748 102.098541,283.659790 
	C128.596252,278.422058 153.541870,282.599945 173.329742,302.974640 
	C185.614120,315.623352 191.674957,331.385101 194.066162,348.776031 
	C196.513550,366.575531 194.254074,383.595795 187.432373,400.183624 
	C179.485870,419.506531 165.656601,432.741272 145.768906,438.442657 
	C121.572372,445.379272 97.674133,444.129395 76.087997,429.787201 
	C69.871635,425.656952 65.296082,419.057220 59.747406,413.291992 
z"/>
<path fill="#FFFFFF" opacity="1.000000" stroke="none" 
	d="
M2106.203125,420.705750 
	C2095.428955,401.721375 2098.212646,375.783264 2114.544922,361.055664 
	C2131.420166,345.838654 2157.646240,344.711487 2175.580322,358.962158 
	C2201.179443,379.303406 2196.415771,424.955780 2166.338867,438.843872 
	C2145.093994,448.653687 2118.513428,441.917938 2106.203125,420.705750 
z"/>
<path fill="#FFFFFF" opacity="1.000000" stroke="none" 
	d="
M354.745850,441.999512 
	C341.301331,442.623871 329.531250,438.948730 320.017212,430.249054 
	C312.457489,423.336426 307.255127,414.291107 306.180664,403.974487 
	C304.987061,392.514160 305.849091,381.154572 312.493195,370.883392 
	C320.426727,358.618866 331.590729,352.357147 345.945160,350.952942 
	C357.658722,349.807037 368.423645,351.798065 378.255615,358.613953 
	C387.747711,365.194214 393.610443,374.197479 395.874359,385.270233 
	C399.481598,402.912933 394.949615,418.381958 381.628265,430.787811 
	C374.253143,437.656067 365.067261,440.737335 354.745850,441.999512 
z"/>
<path fill="#FFFFFF" opacity="1.000000" stroke="none" 
	d="
M518.128357,350.977692 
	C534.840210,343.861816 551.095459,343.612579 566.971741,352.055206 
	C576.573242,357.161102 581.500366,365.673889 583.185364,376.676575 
	C554.338867,376.676575 525.831421,376.676575 496.818298,376.676575 
	C500.337891,365.113922 507.305237,356.695435 518.128357,350.977692 
z"/>
<path fill="#FFFFFF" opacity="1.000000" stroke="none" 
	d="
M1932.508057,348.224670 
	C1940.695923,348.270172 1948.775391,347.228485 1956.215454,348.949860 
	C1974.902710,353.273438 1985.725464,366.244385 1989.661499,384.552795 
	C1993.455933,402.203217 1989.779663,418.420227 1976.806519,431.598511 
	C1964.374512,444.227142 1949.042969,447.437256 1932.159302,443.519348 
	C1913.763428,439.250610 1902.428955,427.527588 1897.772461,409.333344 
	C1891.722656,385.695984 1901.531372,357.947296 1927.911621,349.560944 
	C1929.294312,349.121338 1930.708862,348.781555 1932.508057,348.224670 
z"/>
</svg>