<svg version="1.1" id="Layer_1" xmlns="http://www.w3.org/2000/svg" xmlns:xlink="http://www.w3.org/1999/xlink" x="0px" y="0px"
	 width="100%" viewBox="1 1 1058 230" enable-background="new 0 0 1058 230" xml:space="preserve">
<path fill="#FAFEFE" opacity="1.000000" stroke="none" 
	d="
M634.000000,231.000000 
	C423.000000,231.000000 211.999985,231.000000 1.000000,231.000000 
	C1.000000,219.587540 1.000000,208.261627 1.304456,196.605499 
	C8.739944,202.208847 15.120487,209.545135 23.132652,213.831757 
	C56.801571,231.845215 92.022964,232.772293 127.240875,219.159378 
	C147.649033,211.270920 157.695465,194.193466 156.927277,172.835434 
	C156.165695,151.661545 144.119965,138.395813 125.029755,132.118988 
	C111.717064,127.741791 97.543541,126.002930 83.779877,122.970528 
	C73.420403,120.688133 62.829636,119.022240 52.836353,115.626556 
	C41.676949,111.834641 35.092548,103.469398 35.192020,91.069313 
	C35.292068,78.597023 41.176888,69.485603 52.810600,65.255196 
	C59.887283,62.681877 67.596046,61.118462 75.119118,60.637260 
	C97.913986,59.179230 118.841309,63.958851 135.239349,81.419601 
	C135.653580,81.860680 136.272675,82.109406 136.942047,82.542099 
	C143.024536,78.247871 148.983658,74.040749 155.926712,69.138977 
	C149.372467,64.109039 143.743958,58.814911 137.251846,54.984413 
	C115.047951,41.883591 90.514091,40.105576 65.694969,42.770657 
	C55.135071,43.904575 44.425026,46.907154 34.616249,51.038395 
	C18.009569,58.032761 9.210404,71.382378 8.633531,89.671013 
	C8.060275,107.844955 15.754335,121.395912 31.605389,130.322021 
	C44.961666,137.843277 59.815182,139.703033 74.603828,142.114059 
	C87.034767,144.140686 99.659126,145.998154 111.588089,149.829178 
	C126.519745,154.624527 132.044952,165.051224 129.886505,180.551514 
	C128.147537,193.039383 120.515106,201.305969 108.902649,204.868500 
	C81.662163,213.225464 55.640820,210.851227 32.052200,193.573639 
	C27.802443,190.460876 24.012793,186.719955 20.152519,183.391312 
	C13.652055,187.331360 7.326030,191.165680 1.000002,195.000000 
	C1.000000,130.356628 1.000000,65.713242 1.000000,1.000000 
	C339.354767,1.000000 677.709534,1.000000 1016.417847,1.332708 
	C1010.610107,5.966761 1009.508545,15.834892 1015.031921,19.281189 
	C1019.543518,22.096247 1024.570190,21.934320 1029.263428,19.628778 
	C1033.388672,17.602282 1033.058472,13.530486 1033.143555,9.665074 
	C1033.243164,5.141796 1030.241943,3.037157 1027.000000,1.000000 
	C1037.635132,1.000000 1048.270386,1.000000 1059.000000,1.000000 
	C1059.000000,39.354717 1059.000000,77.709503 1058.554565,116.689133 
	C1053.090820,117.472183 1048.072510,117.630394 1042.610107,117.631783 
	C1037.789307,117.279320 1033.412720,117.083687 1029.081543,116.428253 
	C1029.126953,90.999886 1029.126953,66.031319 1029.126953,41.046726 
	C1024.260132,41.046726 1020.131226,41.046726 1015.545044,40.955376 
	C1010.726135,40.924183 1006.364441,40.984337 1001.541626,40.954197 
	C995.493591,40.863899 989.906616,40.863899 984.238647,40.863899 
	C984.238647,44.951939 984.238647,48.467968 984.238647,52.054668 
	C990.428406,52.054668 996.212219,52.054668 1002.453003,52.143654 
	C1007.181824,52.392124 1011.453674,52.551601 1015.688293,53.132915 
	C1015.646423,72.927711 1015.658691,92.300713 1015.611267,111.673576 
	C1015.606506,113.628998 1015.240967,115.583534 1014.575195,117.472595 
	C1006.788818,117.497108 999.470093,117.587502 991.728638,117.509003 
	C982.758179,116.969414 981.634277,118.787834 984.268677,128.906219 
	C986.832642,128.906219 989.431091,128.906219 992.494507,128.949280 
	C1000.309204,128.947067 1007.658875,128.901810 1015.468262,128.926102 
	C1020.287292,128.948944 1024.646729,128.902222 1029.465698,128.926575 
	C1034.286255,128.950531 1038.647095,128.903412 1043.469604,128.927917 
	C1048.954102,128.999680 1053.977051,128.999832 1059.000000,129.000000 
	C1059.000000,162.970520 1059.000000,196.941040 1059.000000,231.000000 
	C925.645264,231.000000 792.290466,231.000000 658.654907,230.626068 
	C662.173401,229.819016 665.992310,229.513306 669.768799,228.931992 
	C693.723694,225.244568 707.472534,212.533401 711.953613,188.771973 
	C713.824280,178.852219 714.798035,168.631134 714.900940,158.534027 
	C715.264282,122.885658 715.076050,87.231651 715.085144,51.579781 
	C715.085449,50.475258 714.955627,49.370701 714.879578,48.155632 
	C706.105042,48.155632 697.687927,48.155632 688.861328,48.155632 
	C688.861328,50.007229 688.861267,51.630196 688.861267,53.253162 
	C688.861267,77.409859 688.968933,101.567200 688.825134,125.723038 
	C688.721069,143.207886 688.711304,160.711105 687.879639,178.169006 
	C686.967651,197.314972 678.593323,207.931885 661.367859,210.354538 
	C651.160583,211.790146 640.383789,211.526642 630.167786,209.995041 
	C615.159851,207.745026 607.632019,199.079208 605.093201,184.169540 
	C604.452393,180.406250 603.931824,176.569183 603.907410,172.762482 
	C603.652832,133.115952 603.510559,93.468697 603.338806,53.821640 
	C603.330261,51.847172 603.337646,49.872643 603.337646,47.574951 
	C594.365540,47.574951 585.816711,47.574951 577.016052,47.574951 
	C577.016052,49.036346 577.015930,50.188934 577.016113,51.341522 
	C577.021057,85.160881 576.882690,118.981255 577.120911,152.798981 
	C577.189941,162.596359 577.951904,172.430389 579.066772,182.170883 
	C582.138306,209.005615 595.690979,223.470657 622.088623,228.697174 
	C626.055603,229.482605 630.029358,230.233261 634.000000,231.000000 
M940.475647,127.791565 
	C945.904480,128.347076 951.333313,128.902603 956.722900,129.454102 
	C956.722900,124.929489 956.722900,121.670540 956.722900,117.888947 
	C952.727234,117.888947 949.002869,117.888947 944.810669,117.888947 
	C944.810669,115.565979 944.810669,113.777611 944.810608,111.989243 
	C944.810181,98.054993 944.955078,84.118263 944.718689,70.188019 
	C944.649719,66.120560 943.494019,62.071552 942.832825,57.305149 
	C939.506287,53.054886 936.906616,47.815620 932.718445,44.737629 
	C919.549072,35.059155 895.283508,37.078213 883.379761,48.249935 
	C880.958557,50.522198 879.142822,53.439602 876.863098,56.290855 
	C880.517151,58.982365 883.289062,61.024071 886.406921,63.320637 
	C891.299988,54.783501 898.699280,51.136120 907.898193,50.282307 
	C919.780090,49.179459 928.887634,54.970608 930.583252,65.575981 
	C931.222961,69.576981 930.687012,73.765945 930.687012,78.345108 
	C925.908020,78.345108 921.421814,78.036850 916.993408,78.411263 
	C908.574280,79.123077 899.982239,79.381065 891.838135,81.368652 
	C880.390930,84.162354 874.504944,92.311737 874.116272,103.279198 
	C873.702271,114.960144 879.347656,124.984734 890.121948,128.283279 
	C896.892944,130.356232 904.520630,130.855774 911.627014,130.302521 
	C920.822815,129.586609 927.370178,123.841782 930.420898,116.310051 
	C933.570068,119.950478 936.738708,123.613487 940.475647,127.791565 
M530.639893,111.500137 
	C530.639893,90.081711 530.639893,68.663284 530.639893,46.958061 
	C520.594421,46.958061 511.267609,47.113190 501.950989,46.872440 
	C498.765686,46.790131 497.299194,47.962257 495.976227,50.704853 
	C484.496155,74.503761 472.876465,98.235359 461.277832,121.977005 
	C460.542267,123.482681 459.635925,124.904961 458.299347,127.266785 
	C456.875000,124.642334 455.973938,123.128525 455.208130,121.549133 
	C443.752716,97.922722 432.342377,74.274353 420.812958,50.684143 
	C420.033875,49.090080 418.424225,46.770687 417.142212,46.731991 
	C406.544189,46.412106 395.932312,46.550999 385.261536,46.550999 
	C385.261536,106.519638 385.261536,166.237473 385.261536,226.059189 
	C393.326965,226.059189 401.081329,226.059189 409.372009,226.059189 
	C409.372009,176.931564 409.372009,128.098907 409.372009,79.266258 
	C409.985413,79.044212 410.598846,78.822166 411.212250,78.600128 
	C426.595581,109.454338 441.978912,140.308548 457.728302,171.896957 
	C461.877502,163.668976 465.761871,156.006348 469.609375,148.325272 
	C473.480011,140.598083 477.305023,132.848083 481.166595,125.116371 
	C485.102264,117.236290 488.951813,109.310623 493.035980,101.507988 
	C496.885956,94.152756 499.880951,86.268135 504.585449,79.412582 
	C505.191956,79.646271 505.798431,79.879967 506.404938,80.113655 
	C506.404938,128.976746 506.404938,177.839828 506.404938,226.693359 
	C514.794189,226.693359 522.543091,226.693359 530.639832,226.693359 
	C530.639832,188.421295 530.639832,150.460724 530.639893,111.500137 
M305.500031,63.149128 
	C315.945526,63.149128 326.391052,63.149128 336.905090,63.149128 
	C336.905090,57.383724 336.905090,51.955433 336.905090,45.971481 
	C291.812195,45.971481 246.947876,45.971481 202.006836,45.971481 
	C202.006836,51.539001 202.006836,57.079556 202.006836,63.026016 
	C220.160797,63.026016 237.933853,63.026016 255.820908,63.026016 
	C255.820908,111.639305 255.820908,159.836472 255.820908,208.191940 
	C237.727112,208.191940 219.938522,208.191940 201.936569,208.191940 
	C201.936569,213.914658 201.936569,219.475967 201.936569,225.530792 
	C247.127411,225.530792 292.006042,225.530792 336.856567,225.530792 
	C336.856567,220.021317 336.856567,214.608170 336.856567,208.487091 
	C318.713409,208.487091 300.841797,208.487091 282.896118,208.487091 
	C282.896118,159.700882 282.896118,111.630356 282.896118,63.134892 
	C290.254333,63.134892 297.377258,63.134892 305.500031,63.149128 
M777.966614,115.500000 
	C777.966614,152.939499 777.966614,190.379013 777.966614,228.369232 
	C821.582458,228.369232 864.657288,228.369232 907.804504,228.369232 
	C907.804504,222.363449 907.804504,216.317123 907.804504,209.633545 
	C873.216187,209.633545 838.954468,209.633545 804.188782,209.633545 
	C804.188782,155.594620 804.188782,102.195198 804.188782,48.497627 
	C795.267334,48.497627 786.854248,48.497627 777.966614,48.497627 
	C777.966614,70.595078 777.966614,92.547539 777.966614,115.500000 
z"/>
<path fill="#2E2F2F" opacity="1.000000" stroke="none" 
	d="
M1.000002,195.250000 
	C7.326030,191.165680 13.652055,187.331360 20.152519,183.391312 
	C24.012793,186.719955 27.802443,190.460876 32.052200,193.573639 
	C55.640820,210.851227 81.662163,213.225464 108.902649,204.868500 
	C120.515106,201.305969 128.147537,193.039383 129.886505,180.551514 
	C132.044952,165.051224 126.519745,154.624527 111.588089,149.829178 
	C99.659126,145.998154 87.034767,144.140686 74.603828,142.114059 
	C59.815182,139.703033 44.961666,137.843277 31.605389,130.322021 
	C15.754335,121.395912 8.060275,107.844955 8.633531,89.671013 
	C9.210404,71.382378 18.009569,58.032761 34.616249,51.038395 
	C44.425026,46.907154 55.135071,43.904575 65.694969,42.770657 
	C90.514091,40.105576 115.047951,41.883591 137.251846,54.984413 
	C143.743958,58.814911 149.372467,64.109039 155.926712,69.138977 
	C148.983658,74.040749 143.024536,78.247871 136.942047,82.542099 
	C136.272675,82.109406 135.653580,81.860680 135.239349,81.419601 
	C118.841309,63.958851 97.913986,59.179230 75.119118,60.637260 
	C67.596046,61.118462 59.887283,62.681877 52.810600,65.255196 
	C41.176888,69.485603 35.292068,78.597023 35.192020,91.069313 
	C35.092548,103.469398 41.676949,111.834641 52.836353,115.626556 
	C62.829636,119.022240 73.420403,120.688133 83.779877,122.970528 
	C97.543541,126.002930 111.717064,127.741791 125.029755,132.118988 
	C144.119965,138.395813 156.165695,151.661545 156.927277,172.835434 
	C157.695465,194.193466 147.649033,211.270920 127.240875,219.159378 
	C92.022964,232.772293 56.801571,231.845215 23.132652,213.831757 
	C15.120487,209.545135 8.739944,202.208847 1.304456,196.137650 
	C1.000000,196.000000 1.000000,195.500000 1.000002,195.250000 
z"/>
<path fill="#2B2C2C" opacity="1.000000" stroke="none" 
	d="
M634.437500,231.000000 
	C630.029358,230.233261 626.055603,229.482605 622.088623,228.697174 
	C595.690979,223.470657 582.138306,209.005615 579.066772,182.170883 
	C577.951904,172.430389 577.189941,162.596359 577.120911,152.798981 
	C576.882690,118.981255 577.021057,85.160881 577.016113,51.341522 
	C577.015930,50.188934 577.016052,49.036346 577.016052,47.574951 
	C585.816711,47.574951 594.365540,47.574951 603.337646,47.574951 
	C603.337646,49.872643 603.330261,51.847172 603.338806,53.821640 
	C603.510559,93.468697 603.652832,133.115952 603.907410,172.762482 
	C603.931824,176.569183 604.452393,180.406250 605.093201,184.169540 
	C607.632019,199.079208 615.159851,207.745026 630.167786,209.995041 
	C640.383789,211.526642 651.160583,211.790146 661.367859,210.354538 
	C678.593323,207.931885 686.967651,197.314972 687.879639,178.169006 
	C688.711304,160.711105 688.721069,143.207886 688.825134,125.723038 
	C688.968933,101.567200 688.861267,77.409859 688.861267,53.253162 
	C688.861267,51.630196 688.861328,50.007229 688.861328,48.155632 
	C697.687927,48.155632 706.105042,48.155632 714.879578,48.155632 
	C714.955627,49.370701 715.085449,50.475258 715.085144,51.579781 
	C715.076050,87.231651 715.264282,122.885658 714.900940,158.534027 
	C714.798035,168.631134 713.824280,178.852219 711.953613,188.771973 
	C707.472534,212.533401 693.723694,225.244568 669.768799,228.931992 
	C665.992310,229.513306 662.173401,229.819016 658.187073,230.626068 
	C656.933289,231.000000 655.866638,231.000000 654.171753,230.642975 
	C649.362366,230.523956 645.181152,230.761978 641.000000,231.000000 
	C638.958313,231.000000 636.916687,231.000000 634.437500,231.000000 
z"/>
<path fill="#FE3359" opacity="1.000000" stroke="none" 
	d="
M1026.545898,1.000000 
	C1030.241943,3.037157 1033.243164,5.141796 1033.143555,9.665074 
	C1033.058472,13.530486 1033.388672,17.602282 1029.263428,19.628778 
	C1024.570190,21.934320 1019.543518,22.096247 1015.031921,19.281189 
	C1009.508545,15.834892 1010.610107,5.966761 1016.885620,1.332708 
	C1020.030579,1.000000 1023.061218,1.000000 1026.545898,1.000000 
z"/>
<path fill="#FE2142" opacity="1.000000" stroke="none" 
	d="
M1043.054199,117.788612 
	C1048.072510,117.630394 1053.090820,117.472183 1058.554565,117.156982 
	C1059.000000,120.692909 1059.000000,124.385826 1059.000000,128.539368 
	C1053.977051,128.999832 1048.954102,128.999680 1043.467041,128.486282 
	C1043.020142,124.578232 1043.037109,121.183426 1043.054199,117.788612 
z"/>
<path fill="#7C7E7E" opacity="1.000000" stroke="none" 
	d="
M641.463196,231.000000 
	C645.181152,230.761978 649.362366,230.523956 653.771729,230.642975 
	C649.975464,231.000000 645.950928,231.000000 641.463196,231.000000 
z"/>
<path fill="#2D2E2E" opacity="1.000000" stroke="none" 
	d="
M530.639893,112.000137 
	C530.639832,150.460724 530.639832,188.421295 530.639832,226.693359 
	C522.543091,226.693359 514.794189,226.693359 506.404938,226.693359 
	C506.404938,177.839828 506.404938,128.976746 506.404938,80.113655 
	C505.798431,79.879967 505.191956,79.646271 504.585449,79.412582 
	C499.880951,86.268135 496.885956,94.152756 493.035980,101.507988 
	C488.951813,109.310623 485.102264,117.236290 481.166595,125.116371 
	C477.305023,132.848083 473.480011,140.598083 469.609375,148.325272 
	C465.761871,156.006348 461.877502,163.668976 457.728302,171.896957 
	C441.978912,140.308548 426.595581,109.454338 411.212250,78.600128 
	C410.598846,78.822166 409.985413,79.044212 409.372009,79.266258 
	C409.372009,128.098907 409.372009,176.931564 409.372009,226.059189 
	C401.081329,226.059189 393.326965,226.059189 385.261536,226.059189 
	C385.261536,166.237473 385.261536,106.519638 385.261536,46.550999 
	C395.932312,46.550999 406.544189,46.412106 417.142212,46.731991 
	C418.424225,46.770687 420.033875,49.090080 420.812958,50.684143 
	C432.342377,74.274353 443.752716,97.922722 455.208130,121.549133 
	C455.973938,123.128525 456.875000,124.642334 458.299347,127.266785 
	C459.635925,124.904961 460.542267,123.482681 461.277832,121.977005 
	C472.876465,98.235359 484.496155,74.503761 495.976227,50.704853 
	C497.299194,47.962257 498.765686,46.790131 501.950989,46.872440 
	C511.267609,47.113190 520.594421,46.958061 530.639893,46.958061 
	C530.639893,68.663284 530.639893,90.081711 530.639893,112.000137 
z"/>
<path fill="#2F3030" opacity="1.000000" stroke="none" 
	d="
M305.000122,63.142010 
	C297.377258,63.134892 290.254333,63.134892 282.896118,63.134892 
	C282.896118,111.630356 282.896118,159.700882 282.896118,208.487091 
	C300.841797,208.487091 318.713409,208.487091 336.856567,208.487091 
	C336.856567,214.608170 336.856567,220.021317 336.856567,225.530792 
	C292.006042,225.530792 247.127411,225.530792 201.936569,225.530792 
	C201.936569,219.475967 201.936569,213.914658 201.936569,208.191940 
	C219.938522,208.191940 237.727112,208.191940 255.820908,208.191940 
	C255.820908,159.836472 255.820908,111.639305 255.820908,63.026016 
	C237.933853,63.026016 220.160797,63.026016 202.006836,63.026016 
	C202.006836,57.079556 202.006836,51.539001 202.006836,45.971481 
	C246.947876,45.971481 291.812195,45.971481 336.905090,45.971481 
	C336.905090,51.955433 336.905090,57.383724 336.905090,63.149128 
	C326.391052,63.149128 315.945526,63.149128 305.000122,63.142010 
z"/>
<path fill="#2A2B2B" opacity="1.000000" stroke="none" 
	d="
M777.966614,115.000000 
	C777.966614,92.547539 777.966614,70.595078 777.966614,48.497627 
	C786.854248,48.497627 795.267334,48.497627 804.188782,48.497627 
	C804.188782,102.195198 804.188782,155.594620 804.188782,209.633545 
	C838.954468,209.633545 873.216187,209.633545 907.804504,209.633545 
	C907.804504,216.317123 907.804504,222.363449 907.804504,228.369232 
	C864.657288,228.369232 821.582458,228.369232 777.966614,228.369232 
	C777.966614,190.379013 777.966614,152.939499 777.966614,115.000000 
z"/>
<path fill="#FE5D8E" opacity="1.000000" stroke="none" 
	d="
M939.907410,127.276505 
	C936.738708,123.613487 933.570068,119.950478 930.420898,116.310051 
	C927.370178,123.841782 920.822815,129.586609 911.627014,130.302521 
	C904.520630,130.855774 896.892944,130.356232 890.121948,128.283279 
	C879.347656,124.984734 873.702271,114.960144 874.116272,103.279198 
	C874.504944,92.311737 880.390930,84.162354 891.838135,81.368652 
	C899.982239,79.381065 908.574280,79.123077 916.993408,78.411263 
	C921.421814,78.036850 925.908020,78.345108 930.687012,78.345108 
	C930.687012,73.765945 931.222961,69.576981 930.583252,65.575981 
	C928.887634,54.970608 919.780090,49.179459 907.898193,50.282307 
	C898.699280,51.136120 891.299988,54.783501 886.406921,63.320637 
	C883.289062,61.024071 880.517151,58.982365 876.863098,56.290855 
	C879.142822,53.439602 880.958557,50.522198 883.379761,48.249935 
	C895.283508,37.078213 919.549072,35.059155 932.718445,44.737629 
	C936.906616,47.815620 939.506287,53.054886 942.430908,57.676353 
	C941.352600,59.649021 940.099243,61.246151 940.087158,62.852623 
	C939.925903,84.326485 939.938232,105.801659 939.907410,127.276505 
M895.514282,117.287071 
	C904.891418,121.060036 914.226990,120.689796 922.780334,115.505325 
	C926.052612,113.521912 929.485901,109.776611 930.305481,106.244728 
	C931.566650,100.809822 930.637268,94.866592 930.637268,88.463486 
	C920.371216,88.979126 910.569275,89.139153 900.844604,90.089714 
	C895.373718,90.624489 890.158508,93.202026 889.127869,99.287659 
	C888.010864,105.883026 887.654785,112.777344 895.514282,117.287071 
z"/>
<path fill="#FE2F56" opacity="1.000000" stroke="none" 
	d="
M1016.002380,41.046726 
	C1020.131226,41.046726 1024.260132,41.046726 1029.126953,41.046726 
	C1029.126953,66.031319 1029.126953,90.999886 1029.075439,116.895111 
	C1029.018066,121.499672 1029.011963,125.177574 1029.006104,128.855484 
	C1024.646729,128.902222 1020.287292,128.948944 1015.465454,128.480637 
	C1015.016357,124.489891 1015.029602,121.014191 1015.042847,117.538483 
	C1015.240967,115.583534 1015.606506,113.628998 1015.611267,111.673576 
	C1015.658691,92.300713 1015.646423,72.927711 1015.768311,52.621536 
	C1015.924500,48.141121 1015.963440,44.593922 1016.002380,41.046726 
z"/>
<path fill="#FE5485" opacity="1.000000" stroke="none" 
	d="
M940.191528,127.534035 
	C939.938232,105.801659 939.925903,84.326485 940.087158,62.852623 
	C940.099243,61.246151 941.352600,59.649021 942.432678,58.030823 
	C943.494019,62.071552 944.649719,66.120560 944.718689,70.188019 
	C944.955078,84.118263 944.810181,98.054993 944.810608,111.989243 
	C944.810669,113.777611 944.810669,115.565979 944.810669,117.888947 
	C949.002869,117.888947 952.727234,117.888947 956.722900,117.888947 
	C956.722900,121.670540 956.722900,124.929489 956.722900,129.454102 
	C951.333313,128.902603 945.904480,128.347076 940.191528,127.534035 
z"/>
<path fill="#FE3660" opacity="1.000000" stroke="none" 
	d="
M1014.575195,117.472595 
	C1015.029602,121.014191 1015.016357,124.489891 1015.005798,128.411072 
	C1007.658875,128.901810 1000.309204,128.947067 992.466431,128.502777 
	C992.032654,124.568123 992.091980,121.123009 992.151306,117.677887 
	C999.470093,117.587502 1006.788818,117.497108 1014.575195,117.472595 
z"/>
<path fill="#FE3D69" opacity="1.000000" stroke="none" 
	d="
M1001.996033,52.054668 
	C996.212219,52.054668 990.428406,52.054668 984.238647,52.054668 
	C984.238647,48.467968 984.238647,44.951939 984.238647,40.863899 
	C989.906616,40.863899 995.493591,40.863899 1001.540527,41.409912 
	C1001.999023,45.322174 1001.997498,48.688423 1001.996033,52.054668 
z"/>
<path fill="#FE284D" opacity="1.000000" stroke="none" 
	d="
M1029.465576,128.926575 
	C1029.011963,125.177574 1029.018066,121.499672 1029.030029,117.354904 
	C1033.412720,117.083687 1037.789307,117.279320 1042.610107,117.631783 
	C1043.037109,121.183426 1043.020142,124.578232 1043.005615,128.414673 
	C1038.647095,128.903412 1034.286255,128.950531 1029.465576,128.926575 
z"/>
<path fill="#FE355F" opacity="1.000000" stroke="none" 
	d="
M1002.453003,52.143654 
	C1001.997498,48.688423 1001.999023,45.322174 1002.001709,41.500214 
	C1006.364441,40.984337 1010.726135,40.924183 1015.545044,40.955376 
	C1015.963440,44.593922 1015.924500,48.141121 1015.805542,52.199699 
	C1011.453674,52.551601 1007.181824,52.392124 1002.453003,52.143654 
z"/>
<path fill="#FE6285" opacity="1.000000" stroke="none" 
	d="
M991.728638,117.509003 
	C992.091980,121.123009 992.032654,124.568123 992.001465,128.459732 
	C989.431091,128.906219 986.832642,128.906219 984.268677,128.906219 
	C981.634277,118.787834 982.758179,116.969414 991.728638,117.509003 
z"/>
<path fill="#FBFEFE" opacity="1.000000" stroke="none" 
	d="
M895.167480,117.118965 
	C887.654785,112.777344 888.010864,105.883026 889.127869,99.287659 
	C890.158508,93.202026 895.373718,90.624489 900.844604,90.089714 
	C910.569275,89.139153 920.371216,88.979126 930.637268,88.463486 
	C930.637268,94.866592 931.566650,100.809822 930.305481,106.244728 
	C929.485901,109.776611 926.052612,113.521912 922.780334,115.505325 
	C914.226990,120.689796 904.891418,121.060036 895.167480,117.118965 
z"/>
</svg>