<svg version="1.1" id="Layer_1" xmlns="http://www.w3.org/2000/svg" xmlns:xlink="http://www.w3.org/1999/xlink" x="0px" y="0px"
	 width="100%" viewBox="1 1 1165 262" enable-background="new 0 0 1165 262" xml:space="preserve">
<path fill="#EF4C2A" opacity="1.000000" stroke="none" 
	d="
M781.000000,263.000000 
	C520.666687,263.000000 260.833344,263.000000 1.000000,263.000000 
	C1.000000,175.666672 1.000000,88.333336 1.000000,1.000000 
	C389.333344,1.000000 777.666687,1.000000 1166.000000,1.000000 
	C1166.000000,88.333336 1166.000000,175.666672 1166.000000,263.000000 
	C1037.833374,263.000000 909.666687,263.000000 781.000000,263.000000 
M244.285080,203.807388 
	C266.759308,185.679367 278.392517,162.197067 279.178009,133.320251 
	C279.576080,118.685623 293.048584,110.532845 306.398926,116.886757 
	C315.546753,121.240562 324.978180,122.735039 335.041321,121.055473 
	C357.659668,117.280411 374.498505,94.924660 371.812592,71.939369 
	C368.979614,47.695404 347.630737,29.664131 324.156433,31.701481 
	C304.636292,33.395641 291.346191,43.522770 284.358826,61.696854 
	C281.671600,68.686188 277.166138,73.265350 269.901337,74.741142 
	C262.017303,76.342735 256.375916,72.244354 250.877243,67.134613 
	C229.099670,46.897465 203.290131,39.135933 174.011459,43.839710 
	C151.013931,47.534389 132.297302,58.935112 117.956345,77.311676 
	C112.839050,83.868988 106.465660,86.889137 98.299744,84.806602 
	C90.953682,82.933136 87.285797,77.478477 85.084648,70.510178 
	C81.920868,60.494377 74.696159,54.681755 64.461037,53.264061 
	C54.403717,51.870991 46.105747,55.645916 40.205162,63.980522 
	C33.720013,73.140831 34.399200,86.225739 41.543999,94.665253 
	C49.284931,103.808937 61.972618,106.518684 72.791718,100.863747 
	C79.430077,97.393997 85.757950,96.851639 92.134529,100.966583 
	C99.777077,105.898483 100.443733,113.215622 99.929688,121.586090 
	C99.373268,130.646606 98.988617,140.045975 100.722099,148.866562 
	C113.822731,215.527237 188.903946,244.427414 244.285080,203.807388 
M701.989990,68.500000 
	C701.989990,96.974014 701.989990,125.448036 701.989990,154.165405 
	C707.717773,154.165405 713.116943,154.165405 719.109497,154.165405 
	C719.109497,118.657867 719.109497,83.508698 719.109497,47.229073 
	C721.114136,49.987972 722.406738,51.695663 723.625427,53.454536 
	C745.808167,85.470001 767.980042,117.493027 790.159424,149.510818 
	C795.183533,156.763489 804.051880,156.863480 809.016174,149.709061 
	C831.506836,117.296013 853.984070,84.873672 876.476624,52.461933 
	C877.450562,51.058437 878.527588,49.726440 879.556580,48.361149 
	C879.878723,48.486526 880.200928,48.611904 880.523071,48.737282 
	C880.523071,83.801216 880.523071,118.865150 880.523071,154.225464 
	C886.287048,154.225464 891.523682,154.225464 896.779541,154.225464 
	C896.779541,113.240715 896.779541,72.542473 896.779541,31.472546 
	C889.739380,31.472546 883.085266,31.692337 876.455383,31.387110 
	C872.697449,31.214102 870.416443,32.428082 868.263733,35.556747 
	C852.411987,58.595615 836.368103,81.502319 820.380005,104.447342 
	C813.541626,114.261269 806.692139,124.067459 799.709167,134.075729 
	C798.859985,132.886673 798.274719,132.084137 797.706909,131.269440 
	C775.432373,99.313309 753.173218,67.346474 730.844055,35.428619 
	C729.775208,33.900822 728.137634,31.747404 726.684143,31.682037 
	C718.575378,31.317358 710.441650,31.506786 701.989990,31.506786 
	C701.989990,43.877522 701.989990,55.688759 701.989990,68.500000 
M600.351074,89.718208 
	C603.838562,77.121277 603.791138,64.332878 601.600891,51.621956 
	C599.776245,41.032936 593.281555,34.378220 582.403809,32.766941 
	C577.484314,32.038231 572.481873,31.532833 567.514954,31.515665 
	C535.697693,31.405695 503.879852,31.455456 472.062195,31.470419 
	C470.303894,31.471247 468.545685,31.630201 466.781494,31.715843 
	C466.781494,72.859253 466.781494,113.426132 466.781494,154.116974 
	C472.475006,154.116974 477.839325,154.116974 483.816589,154.116974 
	C483.816589,137.983643 483.816589,122.265076 483.816589,106.188728 
	C486.242188,106.188728 488.048645,106.188736 489.855103,106.188728 
	C514.176453,106.188705 538.498169,106.263184 562.818848,106.134308 
	C568.626648,106.103531 574.489990,105.782303 580.223083,104.907875 
	C589.195618,103.539360 596.762451,99.786110 600.351074,89.718208 
M1126.276611,154.541245 
	C1128.069214,154.541245 1129.861938,154.541245 1131.780151,154.541245 
	C1131.780151,149.692825 1131.780151,145.429688 1131.780151,140.664185 
	C1092.292847,140.664185 1053.039429,140.664185 1013.237427,140.664185 
	C1013.237427,104.096802 1013.237427,68.027420 1013.237427,31.458614 
	C1010.069641,31.458614 1007.448730,31.458612 1004.827881,31.458612 
	C1002.222412,31.458612 999.616943,31.458614 996.925415,31.458614 
	C996.925415,72.844955 996.925415,113.528091 996.925415,154.541229 
	C1040.036133,154.541229 1082.680908,154.541229 1126.276611,154.541245 
M722.293518,215.631409 
	C721.576843,214.707733 720.627258,213.883728 720.182129,212.843842 
	C717.697083,207.037720 715.044678,201.277328 713.023804,195.306915 
	C711.487488,190.767914 708.906860,189.849915 704.403625,191.435211 
	C704.403625,200.851501 704.330078,210.315643 704.507263,219.775085 
	C704.526855,220.824249 705.976562,221.846649 706.763000,222.881454 
	C707.332458,222.599182 707.901978,222.316910 708.471497,222.034637 
	C708.471497,214.037598 708.471497,206.040543 708.471497,198.043503 
	C708.891785,197.961151 709.312073,197.878799 709.732300,197.796432 
	C712.130432,203.520981 714.390991,209.308884 716.986511,214.942459 
	C718.226807,217.634552 720.102417,220.033890 721.690247,222.565842 
	C723.455933,220.040802 725.608765,217.698730 726.906372,214.952560 
	C729.595886,209.261047 731.830933,203.354797 734.252747,197.536835 
	C735.404846,205.192841 735.331421,212.505432 735.497375,219.812592 
	C735.518188,220.730240 736.801086,221.619202 737.499146,222.521469 
	C738.072571,221.700012 739.134766,220.884460 739.144836,220.056183 
	C739.261536,210.429688 739.219482,200.801270 739.219482,191.242950 
	C732.984375,190.445282 732.981079,190.443909 730.989197,195.246384 
	C728.250122,201.850082 725.516785,208.456146 722.293518,215.631409 
M467.010559,222.053116 
	C469.764282,223.339279 470.642120,222.059204 470.617889,219.454254 
	C470.590576,216.514191 470.611603,213.573669 470.611603,210.224258 
	C474.979248,210.224258 478.612762,210.204987 482.246002,210.229630 
	C485.927856,210.254593 489.171204,209.065918 489.785736,205.184723 
	C490.494720,200.707458 491.619232,195.841614 487.572388,192.090408 
	C486.894104,191.461670 485.802185,190.965637 484.892517,190.950745 
	C478.816315,190.851349 472.737671,190.899155 466.538239,190.899155 
	C466.538239,201.475845 466.538239,211.436569 467.010559,222.053116 
M1132.033325,215.480988 
	C1132.033325,210.415695 1132.033325,205.350403 1132.033325,200.702469 
	C1128.558716,200.414963 1125.913696,200.075592 1123.261597,200.006638 
	C1119.815063,199.917023 1116.154297,199.386841 1113.885742,203.047592 
	C1111.791016,206.427841 1111.784302,217.107224 1114.265137,219.897171 
	C1117.945068,224.035736 1122.587646,223.072403 1127.180054,221.693115 
	C1127.367432,221.636826 1127.651367,221.902405 1128.913086,222.512863 
	C1127.794678,224.635117 1127.095093,228.046890 1125.497437,228.538330 
	C1122.627563,229.421066 1118.508057,230.963165 1116.736450,225.973038 
	C1116.499268,225.305206 1114.605957,225.225372 1113.479614,224.873245 
	C1113.161987,225.311005 1112.844360,225.748764 1112.526733,226.186523 
	C1113.647827,227.835373 1114.588867,230.708481 1115.923828,230.905014 
	C1120.039062,231.510834 1124.641479,232.031891 1128.374268,230.691330 
	C1130.328857,229.989410 1131.118530,225.394211 1131.938354,222.420563 
	C1132.448975,220.568039 1132.033325,218.460144 1132.033325,215.480988 
M762.322327,212.222610 
	C765.552246,212.222610 768.782166,212.222610 771.952576,212.222610 
	C772.190308,203.470688 771.091553,201.064560 766.803345,200.110825 
	C756.914124,197.911392 752.190369,201.739090 752.461609,211.787842 
	C752.506226,213.440231 752.292542,215.378998 753.063110,216.668671 
	C754.301758,218.741776 755.966064,221.372772 757.985901,221.976212 
	C761.000244,222.876770 764.531494,222.584137 767.747498,222.127533 
	C771.223083,221.634064 772.661743,219.278687 771.424072,214.662155 
	C769.277771,216.554749 767.859070,218.679703 765.975159,219.239792 
	C763.756042,219.899551 760.742615,219.921768 758.810303,218.868652 
	C757.260925,218.024261 756.811646,215.161636 755.557068,212.529327 
	C758.418823,212.377518 759.875916,212.300217 762.322327,212.222610 
M938.680542,208.139236 
	C938.641541,210.130692 938.422852,212.137955 938.596497,214.110687 
	C939.165161,220.567841 940.799133,222.245300 947.221497,222.728241 
	C949.343262,222.887802 951.553467,222.632401 953.649170,222.204224 
	C957.168823,221.485123 958.496826,219.253281 957.745056,215.584442 
	C954.408081,217.085495 951.513428,219.232651 948.411682,219.592010 
	C943.292603,220.185089 941.858398,217.863007 943.205322,212.110504 
	C947.969116,212.110504 952.874878,212.110504 957.706116,212.110504 
	C958.431824,203.488739 957.008057,200.697342 951.853577,200.014862 
	C943.233704,198.873550 939.979919,200.689911 938.680542,208.139236 
M971.656189,203.029495 
	C971.859558,204.149139 972.062866,205.268799 972.266235,206.388412 
	C973.187622,205.939804 974.065552,205.293442 975.038574,205.079483 
	C978.031189,204.421509 981.107544,203.398956 984.049377,203.661362 
	C985.070618,203.752426 985.793762,207.186203 986.585815,208.944016 
	C982.606506,208.944016 979.514038,208.901108 976.423218,208.954483 
	C972.242615,209.026657 970.550598,211.521683 970.446350,215.381653 
	C970.345398,219.114395 971.538940,222.157166 975.767395,222.402054 
	C980.347229,222.667282 984.954346,222.462158 989.859253,222.462158 
	C989.859253,216.725327 990.111023,211.577667 989.728271,206.477615 
	C989.586487,204.587601 988.387451,202.263107 986.911987,201.094604 
	C983.900146,198.709351 975.383545,199.726318 971.656189,203.029495 
M660.284424,203.008865 
	C661.526611,204.443115 663.609680,205.753601 663.842590,207.336395 
	C664.393860,211.081741 663.902893,214.968567 664.184631,218.772156 
	C664.279480,220.052368 665.434937,221.254028 666.105652,222.491562 
	C666.705994,221.183563 667.684143,219.915131 667.826111,218.559143 
	C668.101624,215.928391 667.910339,213.248444 667.906860,210.588867 
	C667.894043,200.870804 664.986816,198.472702 655.372925,200.263000 
	C654.638855,200.399704 653.921204,200.624466 653.164856,200.816162 
	C651.743408,191.328445 651.743408,191.328445 649.287842,191.240997 
	C649.287842,201.611374 649.287842,211.977173 649.287842,222.342972 
	C649.792358,222.537323 650.296936,222.731689 650.801453,222.926041 
	C651.405457,221.688797 652.426758,220.485596 652.531006,219.207596 
	C652.786987,216.069962 652.729553,212.893341 652.598572,209.740692 
	C652.397583,204.901489 654.534668,202.574249 660.284424,203.008865 
M1096.729370,222.422241 
	C1097.561401,221.396072 1099.042847,220.411194 1099.111206,219.336502 
	C1099.384644,215.032928 1099.238281,210.701370 1099.211182,206.380402 
	C1099.184082,202.055054 1096.831299,199.947235 1092.652222,199.994247 
	C1088.799927,200.037582 1084.950806,200.365662 1080.427612,200.603729 
	C1080.427612,207.153107 1080.361450,213.753754 1080.520386,220.349030 
	C1080.538208,221.085617 1081.834229,221.791412 1082.537598,222.511490 
	C1083.097046,221.680710 1084.098877,220.871094 1084.139771,220.015503 
	C1084.322266,216.201401 1084.248413,212.374069 1084.232666,208.551666 
	C1084.214722,204.182236 1086.751465,202.907333 1090.669678,202.872391 
	C1094.677734,202.836655 1095.803711,204.989273 1095.798706,208.541718 
	C1095.792480,213.012756 1095.999390,217.484070 1096.729370,222.422241 
M558.918152,219.348419 
	C562.104919,222.793549 568.564697,223.932312 573.529419,221.966599 
	C577.703552,220.313904 577.363708,216.564590 577.554504,213.157654 
	C577.683594,210.852997 577.522949,208.516113 577.304016,206.211472 
	C576.910278,202.066330 574.483948,200.166641 570.367859,199.938156 
	C559.680847,199.344940 557.619568,201.187805 557.808960,211.759979 
	C557.850037,214.051636 558.327026,216.335495 558.918152,219.348419 
M1034.045410,217.266861 
	C1034.061157,214.275818 1034.006348,211.282333 1034.109985,208.294342 
	C1034.248291,204.302536 1036.629517,202.964050 1040.364990,202.872818 
	C1044.303711,202.776657 1045.731201,204.794342 1045.755127,208.347382 
	C1045.782104,212.335693 1045.705200,216.326981 1045.854370,220.310165 
	C1045.882202,221.053070 1046.764038,221.763992 1047.251709,222.489716 
	C1047.904907,221.764725 1049.080444,221.068832 1049.122681,220.309830 
	C1049.325684,216.664734 1049.238403,213.002518 1049.224487,209.346512 
	C1049.193848,201.272690 1047.089355,199.356964 1039.072266,199.949234 
	C1036.797729,200.117279 1034.461060,199.861832 1032.254761,200.306305 
	C1031.482666,200.461838 1030.529541,202.117935 1030.492676,203.119461 
	C1030.309570,208.098465 1030.262817,213.094131 1030.488037,218.069427 
	C1030.555786,219.564255 1031.654053,221.012405 1032.280396,222.481964 
	C1032.868652,221.042603 1033.457031,219.603241 1034.045410,217.266861 
M500.472076,200.736771 
	C502.451630,206.530243 504.138916,212.446075 506.498230,218.080536 
	C508.586456,223.067535 509.843201,227.372421 503.674316,230.256882 
	C503.495850,230.340332 503.651764,231.138947 503.651764,231.747940 
	C508.090424,232.960312 510.628235,230.720795 511.711945,227.087097 
	C514.307678,218.383133 516.526367,209.566742 519.063904,200.179337 
	C513.050964,200.029922 514.528931,204.837540 513.493347,207.398315 
	C512.189209,210.623169 511.593445,214.134491 510.323914,218.905685 
	C508.228729,212.895401 506.792542,208.158539 504.870239,203.627930 
	C504.274384,202.223602 502.358185,201.379456 500.472076,200.736771 
M911.635925,208.481964 
	C911.634827,203.656708 911.783508,198.823532 911.529541,194.011597 
	C911.464233,192.773834 910.130737,191.602997 909.379883,190.401413 
	C908.953979,190.653564 908.528076,190.905731 908.102173,191.157898 
	C908.102173,201.544525 908.102173,211.931168 908.102173,222.275726 
	C922.135376,223.713638 926.607361,223.047226 927.374084,218.932098 
	C922.213806,218.932098 917.143799,218.932098 911.635864,218.932098 
	C911.635864,215.400452 911.635864,212.435837 911.635925,208.481964 
M856.263184,214.349960 
	C856.341614,211.865875 855.976318,209.251328 856.654846,206.943710 
	C857.104370,205.414978 858.983093,203.349518 860.340393,203.256683 
	C862.699158,203.095337 865.204895,204.119736 867.538635,204.955185 
	C868.743530,205.386505 869.711121,206.480621 870.785950,207.275253 
	C870.637451,205.612915 871.049622,203.576630 870.236572,202.357437 
	C867.668579,198.506729 856.631226,198.973495 854.001160,202.812302 
	C851.887695,205.897018 851.680908,216.891037 853.990051,219.687073 
	C857.178467,223.547974 861.615173,223.052002 865.948059,222.475891 
	C870.635925,221.852570 872.397888,219.111191 871.691101,213.519943 
	C870.146057,214.515305 868.349670,215.083160 868.279297,215.816681 
	C867.909973,219.665161 865.200073,219.716217 862.510132,219.724487 
	C859.476868,219.733826 856.870056,218.911194 856.263184,214.349960 
M629.818909,203.154739 
	C630.516785,203.802658 631.187012,204.484009 631.919373,205.090164 
	C632.870911,205.877731 633.871887,206.605484 634.851624,207.358948 
	C634.986450,206.046204 635.596375,204.522232 635.131348,203.476120 
	C634.593872,202.266922 633.232544,200.843658 632.016785,200.608109 
	C622.450317,198.754669 616.451355,199.781494 616.795837,210.355927 
	C616.833801,211.518646 616.939514,212.681229 616.928406,213.843063 
	C616.894714,217.357132 617.364380,221.275620 621.295654,221.782227 
	C625.507751,222.325027 629.943176,221.397400 634.235840,220.791016 
	C634.943604,220.691025 635.826538,218.974442 635.897339,217.954193 
	C635.983093,216.718750 635.291382,215.429321 634.936035,214.163269 
	C634.119019,214.962234 633.033569,215.621704 632.532959,216.585114 
	C630.690247,220.130707 622.950989,221.285324 621.859985,217.779846 
	C620.645813,213.878708 620.845703,209.247665 621.668579,205.185272 
	C621.904541,204.020309 626.430847,203.724380 629.818909,203.154739 
M785.098572,215.181732 
	C786.146179,217.541946 786.612915,221.064301 788.395020,221.955078 
	C790.419189,222.966904 794.113586,222.382187 796.146240,221.056732 
	C797.657104,220.071518 797.676575,216.799393 798.360352,214.545853 
	C797.684021,214.303940 797.007690,214.062012 796.331360,213.820099 
	C795.768127,214.865646 795.384094,216.080414 794.596619,216.914154 
	C793.596375,217.973114 792.268982,218.723068 791.082642,219.606247 
	C790.358459,218.487198 789.077759,217.400894 789.009583,216.243240 
	C788.758850,211.982452 788.910095,207.698013 788.910095,203.223816 
	C791.991150,203.088470 794.542175,202.976410 797.800171,202.833282 
	C795.656494,198.156815 791.672363,201.398483 789.026367,199.351501 
	C788.071167,198.258270 790.498657,193.450760 786.405090,194.888672 
	C784.755920,197.819382 783.543335,199.974213 782.882446,201.148697 
	C783.836914,203.578201 784.807678,205.139679 785.017517,206.797440 
	C785.328003,209.250946 785.098206,211.772827 785.098572,215.181732 
M537.137268,198.641525 
	C537.137939,205.467682 537.195862,212.294525 537.111755,219.119644 
	C537.076965,221.945328 537.921753,223.142670 541.134766,221.857239 
	C541.134766,212.675415 541.134766,203.574066 541.134766,193.999954 
	C544.101746,193.999954 546.723938,194.078827 549.334778,193.940704 
	C549.935730,193.908920 550.497314,193.132721 551.077026,192.699081 
	C550.511475,192.081024 549.955994,190.936264 549.378784,190.925262 
	C542.555420,190.794983 535.728149,190.789337 528.904358,190.903168 
	C528.273926,190.913681 527.660889,191.967804 527.039734,192.537338 
	C527.733032,193.028198 528.378235,193.827240 529.129761,193.944366 
	C530.593323,194.172455 532.136108,194.175369 533.610596,193.989685 
	C536.564880,193.617599 537.528809,194.950394 537.137268,198.641525 
M820.821106,200.190765 
	C816.994873,200.190765 813.168640,200.190765 808.821350,200.190765 
	C808.821350,207.083115 808.760376,213.673126 808.905823,220.258591 
	C808.922180,221.001572 810.103333,221.718826 810.744324,222.448029 
	C811.222412,221.720520 812.088013,221.006622 812.114197,220.263214 
	C812.259766,216.123642 811.808960,211.920151 812.395691,207.858948 
	C812.651001,206.091248 814.593201,203.893814 816.307556,203.174698 
	C818.637390,202.197449 820.777649,203.226624 821.114685,206.447235 
	C821.183167,207.101242 822.873108,207.585510 823.815491,208.148026 
	C824.255493,207.721375 824.695496,207.294724 825.135498,206.868088 
	C823.935425,204.754425 822.735352,202.640778 820.821106,200.190765 
M601.160706,199.977676 
	C597.680420,200.206711 594.200073,200.435760 590.134155,200.703354 
	C590.134155,207.086151 590.026123,213.690857 590.264526,220.283051 
	C590.295959,221.153336 592.094666,221.959702 594.038452,223.617340 
	C594.038452,219.400330 594.037781,217.082901 594.038757,214.765472 
	C594.039734,212.441452 593.527161,209.953186 594.199890,207.843094 
	C594.784790,206.008698 596.449585,203.882950 598.139343,203.269653 
	C599.190002,202.888306 601.200928,205.047150 602.731750,206.135040 
	C603.612183,206.760712 604.394592,207.524292 605.753052,208.677231 
	C606.330750,204.092834 605.892212,201.201294 601.160706,199.977676 
M1006.736938,221.587158 
	C1006.802307,216.926392 1006.558289,212.229309 1007.099121,207.624390 
	C1007.291321,205.987686 1009.165466,203.735138 1010.691345,203.325119 
	C1011.918213,202.995499 1013.809875,204.972809 1015.344971,206.016922 
	C1016.354004,206.703201 1017.253540,207.550278 1018.843445,208.849350 
	C1018.756470,201.267105 1016.469727,199.208023 1010.691650,199.978439 
	C1008.351807,200.290421 1005.986572,200.412384 1003.111084,200.667038 
	C1003.111084,207.142715 1003.027832,213.778549 1003.245300,220.404526 
	C1003.266052,221.038177 1005.162659,221.610260 1006.736938,221.587158 
M1063.073608,211.493362 
	C1063.076904,214.324432 1062.947266,217.165649 1063.161865,219.980621 
	C1063.229004,220.861984 1064.222656,221.672745 1064.792236,222.515808 
	C1065.501099,221.644714 1066.794189,220.792938 1066.823730,219.899384 
	C1067.010742,214.243393 1067.007812,208.575348 1066.829468,202.918777 
	C1066.800049,201.981110 1065.602051,201.080261 1064.944092,200.162399 
	C1064.327393,200.951080 1063.253296,201.698914 1063.178467,202.536011 
	C1062.942383,205.180023 1063.080322,207.857452 1063.073608,211.493362 
M836.066772,221.642227 
	C838.119629,223.264328 839.509949,222.729019 839.573853,220.178375 
	C839.719910,214.351990 839.731262,208.515305 839.515442,202.693253 
	C839.477844,201.679291 838.061707,200.716431 837.282288,199.729965 
	C836.839111,199.949188 836.395874,200.168411 835.952698,200.387634 
	C835.952698,207.187347 835.952698,213.987061 836.066772,221.642227 
z"/>
<path fill="#FFFEFE" opacity="1.000000" stroke="none" 
	d="
M243.989777,204.005859 
	C188.903946,244.427414 113.822731,215.527237 100.722099,148.866562 
	C98.988617,140.045975 99.373268,130.646606 99.929688,121.586090 
	C100.443733,113.215622 99.777077,105.898483 92.134529,100.966583 
	C85.757950,96.851639 79.430077,97.393997 72.791718,100.863747 
	C61.972618,106.518684 49.284931,103.808937 41.543999,94.665253 
	C34.399200,86.225739 33.720013,73.140831 40.205162,63.980522 
	C46.105747,55.645916 54.403717,51.870991 64.461037,53.264061 
	C74.696159,54.681755 81.920868,60.494377 85.084648,70.510178 
	C87.285797,77.478477 90.953682,82.933136 98.299744,84.806602 
	C106.465660,86.889137 112.839050,83.868988 117.956345,77.311676 
	C132.297302,58.935112 151.013931,47.534389 174.011459,43.839710 
	C203.290131,39.135933 229.099670,46.897465 250.877243,67.134613 
	C256.375916,72.244354 262.017303,76.342735 269.901337,74.741142 
	C277.166138,73.265350 281.671600,68.686188 284.358826,61.696854 
	C291.346191,43.522770 304.636292,33.395641 324.156433,31.701481 
	C347.630737,29.664131 368.979614,47.695404 371.812592,71.939369 
	C374.498505,94.924660 357.659668,117.280411 335.041321,121.055473 
	C324.978180,122.735039 315.546753,121.240562 306.398926,116.886757 
	C293.048584,110.532845 279.576080,118.685623 279.178009,133.320251 
	C278.392517,162.197067 266.759308,185.679367 243.989777,204.005859 
M215.764435,153.144043 
	C224.408615,155.712677 231.905533,153.571228 237.920822,147.071976 
	C243.553833,140.985764 241.131241,133.828873 232.933197,132.342529 
	C225.210281,130.942337 218.451019,133.419250 213.171661,139.226822 
	C208.511597,144.353149 209.218155,148.718765 215.764435,153.144043 
M167.175751,142.615601 
	C162.484238,134.425293 152.128433,130.027603 143.898712,132.730774 
	C137.011597,134.992966 135.089539,140.712280 139.592728,146.256851 
	C144.991425,152.903992 152.207764,155.246124 160.500702,153.784958 
	C166.111160,152.796417 168.377747,149.043808 167.175751,142.615601 
z"/>
<path fill="#FFFBFA" opacity="1.000000" stroke="none" 
	d="
M701.989990,68.000000 
	C701.989990,55.688759 701.989990,43.877522 701.989990,31.506786 
	C710.441650,31.506786 718.575378,31.317358 726.684143,31.682037 
	C728.137634,31.747404 729.775208,33.900822 730.844055,35.428619 
	C753.173218,67.346474 775.432373,99.313309 797.706909,131.269440 
	C798.274719,132.084137 798.859985,132.886673 799.709167,134.075729 
	C806.692139,124.067459 813.541626,114.261269 820.380005,104.447342 
	C836.368103,81.502319 852.411987,58.595615 868.263733,35.556747 
	C870.416443,32.428082 872.697449,31.214102 876.455383,31.387110 
	C883.085266,31.692337 889.739380,31.472546 896.779541,31.472546 
	C896.779541,72.542473 896.779541,113.240715 896.779541,154.225464 
	C891.523682,154.225464 886.287048,154.225464 880.523071,154.225464 
	C880.523071,118.865150 880.523071,83.801216 880.523071,48.737282 
	C880.200928,48.611904 879.878723,48.486526 879.556580,48.361149 
	C878.527588,49.726440 877.450562,51.058437 876.476624,52.461933 
	C853.984070,84.873672 831.506836,117.296013 809.016174,149.709061 
	C804.051880,156.863480 795.183533,156.763489 790.159424,149.510818 
	C767.980042,117.493027 745.808167,85.470001 723.625427,53.454536 
	C722.406738,51.695663 721.114136,49.987972 719.109497,47.229073 
	C719.109497,83.508698 719.109497,118.657867 719.109497,154.165405 
	C713.116943,154.165405 707.717773,154.165405 701.989990,154.165405 
	C701.989990,125.448036 701.989990,96.974014 701.989990,68.000000 
z"/>
<path fill="#FEF9F7" opacity="1.000000" stroke="none" 
	d="
M600.229858,90.088997 
	C596.762451,99.786110 589.195618,103.539360 580.223083,104.907875 
	C574.489990,105.782303 568.626648,106.103531 562.818848,106.134308 
	C538.498169,106.263184 514.176453,106.188705 489.855103,106.188728 
	C488.048645,106.188736 486.242188,106.188728 483.816589,106.188728 
	C483.816589,122.265076 483.816589,137.983643 483.816589,154.116974 
	C477.839325,154.116974 472.475006,154.116974 466.781494,154.116974 
	C466.781494,113.426132 466.781494,72.859253 466.781494,31.715843 
	C468.545685,31.630201 470.303894,31.471247 472.062195,31.470419 
	C503.879852,31.455456 535.697693,31.405695 567.514954,31.515665 
	C572.481873,31.532833 577.484314,32.038231 582.403809,32.766941 
	C593.281555,34.378220 599.776245,41.032936 601.600891,51.621956 
	C603.791138,64.332878 603.838562,77.121277 600.229858,90.088997 
M492.555603,45.186321 
	C489.766937,45.186321 486.978271,45.186321 483.914001,45.186321 
	C483.914001,61.071716 483.914001,76.412346 483.914001,92.146622 
	C485.923218,92.146622 487.559143,92.146614 489.195099,92.146614 
	C514.664429,92.146614 540.133789,92.149673 565.603088,92.139587 
	C567.265808,92.138924 568.938416,92.134598 570.589722,91.967041 
	C580.609863,90.950218 585.843384,85.259132 585.973022,75.213005 
	C586.033203,70.552887 586.121826,65.885063 585.932678,61.231510 
	C585.567017,52.236336 580.872681,47.135742 571.899841,45.995712 
	C568.114563,45.514771 564.277832,45.233112 560.463318,45.221020 
	C538.157104,45.150318 515.850525,45.186329 492.555603,45.186321 
z"/>
<path fill="#FEF9F7" opacity="1.000000" stroke="none" 
	d="
M1125.801147,154.541229 
	C1082.680908,154.541229 1040.036133,154.541229 996.925415,154.541229 
	C996.925415,113.528091 996.925415,72.844955 996.925415,31.458614 
	C999.616943,31.458614 1002.222412,31.458612 1004.827881,31.458612 
	C1007.448730,31.458612 1010.069641,31.458614 1013.237427,31.458614 
	C1013.237427,68.027420 1013.237427,104.096802 1013.237427,140.664185 
	C1053.039429,140.664185 1092.292847,140.664185 1131.780151,140.664185 
	C1131.780151,145.429688 1131.780151,149.692825 1131.780151,154.541245 
	C1129.861938,154.541245 1128.069214,154.541245 1125.801147,154.541229 
z"/>
<path fill="#FDEDEA" opacity="1.000000" stroke="none" 
	d="
M722.537231,215.346313 
	C725.516785,208.456146 728.250122,201.850082 730.989197,195.246384 
	C732.981079,190.443909 732.984375,190.445282 739.219482,191.242950 
	C739.219482,200.801270 739.261536,210.429688 739.144836,220.056183 
	C739.134766,220.884460 738.072571,221.700012 737.499146,222.521454 
	C736.801086,221.619202 735.518188,220.730240 735.497375,219.812592 
	C735.331421,212.505432 735.404846,205.192841 734.252747,197.536835 
	C731.830933,203.354797 729.595886,209.261047 726.906372,214.952560 
	C725.608765,217.698730 723.455933,220.040802 721.690247,222.565826 
	C720.102417,220.033890 718.226807,217.634552 716.986511,214.942459 
	C714.390991,209.308884 712.130432,203.520981 709.732300,197.796432 
	C709.312073,197.878799 708.891785,197.961151 708.471497,198.043503 
	C708.471497,206.040543 708.471497,214.037598 708.471497,222.034637 
	C707.901978,222.316910 707.332458,222.599182 706.763000,222.881454 
	C705.976562,221.846649 704.526855,220.824249 704.507263,219.775085 
	C704.330078,210.315643 704.403625,200.851501 704.403625,191.435211 
	C708.906860,189.849915 711.487488,190.767914 713.023804,195.306915 
	C715.044678,201.277328 717.697083,207.037720 720.182129,212.843842 
	C720.627258,213.883728 721.576843,214.707733 722.537231,215.346313 
z"/>
<path fill="#FDEBE7" opacity="1.000000" stroke="none" 
	d="
M466.774414,221.725189 
	C466.538239,211.436569 466.538239,201.475845 466.538239,190.899155 
	C472.737671,190.899155 478.816315,190.851349 484.892517,190.950745 
	C485.802185,190.965637 486.894104,191.461670 487.572388,192.090408 
	C491.619232,195.841614 490.494720,200.707458 489.785736,205.184723 
	C489.171204,209.065918 485.927856,210.254593 482.246002,210.229630 
	C478.612762,210.204987 474.979248,210.224258 470.611603,210.224258 
	C470.611603,213.573669 470.590576,216.514191 470.617889,219.454254 
	C470.642120,222.059204 469.764282,223.339279 466.774414,221.725189 
M470.599823,198.544556 
	C470.599823,201.121460 470.599823,203.698349 470.599823,206.773178 
	C473.920959,206.773178 476.523376,206.787537 479.125549,206.770309 
	C485.141998,206.730453 486.319916,205.739014 486.393829,200.694199 
	C486.475037,195.150177 485.392334,194.138596 479.230255,194.050140 
	C477.415161,194.024078 475.584656,194.194290 473.787262,194.014359 
	C470.949707,193.730316 470.387512,195.254730 470.599823,198.544556 
z"/>
<path fill="#FEF3F0" opacity="1.000000" stroke="none" 
	d="
M1132.033325,215.973907 
	C1132.033325,218.460144 1132.448975,220.568039 1131.938354,222.420563 
	C1131.118530,225.394211 1130.328857,229.989410 1128.374268,230.691330 
	C1124.641479,232.031891 1120.039062,231.510834 1115.923828,230.905014 
	C1114.588867,230.708481 1113.647827,227.835373 1112.526733,226.186523 
	C1112.844360,225.748764 1113.161987,225.311005 1113.479614,224.873245 
	C1114.605957,225.225372 1116.499268,225.305206 1116.736450,225.973038 
	C1118.508057,230.963165 1122.627563,229.421066 1125.497437,228.538330 
	C1127.095093,228.046890 1127.794678,224.635117 1128.913086,222.512863 
	C1127.651367,221.902405 1127.367432,221.636826 1127.180054,221.693115 
	C1122.587646,223.072403 1117.945068,224.035736 1114.265137,219.897171 
	C1111.784302,217.107224 1111.791016,206.427841 1113.885742,203.047592 
	C1116.154297,199.386841 1119.815063,199.917023 1123.261597,200.006638 
	C1125.913696,200.075592 1128.558716,200.414963 1132.033325,200.702469 
	C1132.033325,205.350403 1132.033325,210.415695 1132.033325,215.973907 
M1116.215332,214.867340 
	C1116.741577,219.274429 1119.752441,220.095886 1123.409180,219.641785 
	C1127.059814,219.188446 1128.355835,216.773758 1128.149780,213.299103 
	C1128.071411,211.978378 1128.077026,210.645752 1128.149292,209.324295 
	C1128.384521,205.022705 1126.572876,202.819199 1122.073364,202.851227 
	C1117.817993,202.881531 1116.111816,205.041473 1116.190796,209.055649 
	C1116.223389,210.711746 1116.196899,212.369003 1116.215332,214.867340 
z"/>
<path fill="#FEF0ED" opacity="1.000000" stroke="none" 
	d="
M761.827637,212.222778 
	C759.875916,212.300217 758.418823,212.377518 755.557068,212.529327 
	C756.811646,215.161636 757.260925,218.024261 758.810303,218.868652 
	C760.742615,219.921768 763.756042,219.899551 765.975159,219.239792 
	C767.859070,218.679703 769.277771,216.554749 771.424072,214.662155 
	C772.661743,219.278687 771.223083,221.634064 767.747498,222.127533 
	C764.531494,222.584137 761.000244,222.876770 757.985901,221.976212 
	C755.966064,221.372772 754.301758,218.741776 753.063110,216.668671 
	C752.292542,215.378998 752.506226,213.440231 752.461609,211.787842 
	C752.190369,201.739090 756.914124,197.911392 766.803345,200.110825 
	C771.091553,201.064560 772.190308,203.470688 771.952576,212.222610 
	C768.782166,212.222610 765.552246,212.222610 761.827637,212.222778 
M763.401245,209.124664 
	C764.948914,209.034042 766.496582,208.943420 767.910034,208.860657 
	C768.823181,203.075272 765.513428,202.790985 761.652283,202.896790 
	C757.606506,203.007629 756.171082,204.926315 756.899170,209.124756 
	C758.863953,209.124756 760.655945,209.124756 763.401245,209.124664 
z"/>
<path fill="#FEF0ED" opacity="1.000000" stroke="none" 
	d="
M938.729736,207.726410 
	C939.979919,200.689911 943.233704,198.873550 951.853577,200.014862 
	C957.008057,200.697342 958.431824,203.488739 957.706116,212.110504 
	C952.874878,212.110504 947.969116,212.110504 943.205322,212.110504 
	C941.858398,217.863007 943.292603,220.185089 948.411682,219.592010 
	C951.513428,219.232651 954.408081,217.085495 957.745056,215.584442 
	C958.496826,219.253281 957.168823,221.485123 953.649170,222.204224 
	C951.553467,222.632401 949.343262,222.887802 947.221497,222.728241 
	C940.799133,222.245300 939.165161,220.567841 938.596497,214.110687 
	C938.422852,212.137955 938.641541,210.130692 938.729736,207.726410 
M951.137573,203.027847 
	C943.420044,202.702927 942.704285,203.199005 942.838745,208.723145 
	C946.547241,208.723145 950.245178,208.723145 955.183655,208.723145 
	C953.791565,206.318802 952.887939,204.758179 951.137573,203.027847 
z"/>
<path fill="#FEF0ED" opacity="1.000000" stroke="none" 
	d="
M971.823853,202.682068 
	C975.383545,199.726318 983.900146,198.709351 986.911987,201.094604 
	C988.387451,202.263107 989.586487,204.587601 989.728271,206.477615 
	C990.111023,211.577667 989.859253,216.725327 989.859253,222.462158 
	C984.954346,222.462158 980.347229,222.667282 975.767395,222.402054 
	C971.538940,222.157166 970.345398,219.114395 970.446350,215.381653 
	C970.550598,211.521683 972.242615,209.026657 976.423218,208.954483 
	C979.514038,208.901108 982.606506,208.944016 986.585815,208.944016 
	C985.793762,207.186203 985.070618,203.752426 984.049377,203.661362 
	C981.107544,203.398956 978.031189,204.421509 975.038574,205.079483 
	C974.065552,205.293442 973.187622,205.939804 972.266235,206.388428 
	C972.062866,205.268799 971.859558,204.149139 971.823853,202.682068 
M985.962830,216.258713 
	C984.952026,214.831039 984.068542,212.332291 982.904480,212.193893 
	C980.308411,211.885254 976.926392,211.926666 975.070557,213.372879 
	C973.126953,214.887390 973.486572,218.375061 976.571106,219.293060 
	C979.825745,220.261688 983.497742,220.850296 985.962830,216.258713 
z"/>
<path fill="#FDEBE7" opacity="1.000000" stroke="none" 
	d="
M659.857544,202.970154 
	C654.534668,202.574249 652.397583,204.901489 652.598572,209.740692 
	C652.729553,212.893341 652.786987,216.069962 652.531006,219.207596 
	C652.426758,220.485596 651.405457,221.688797 650.801453,222.926041 
	C650.296936,222.731689 649.792358,222.537323 649.287842,222.342972 
	C649.287842,211.977173 649.287842,201.611374 649.287842,191.240997 
	C651.743408,191.328445 651.743408,191.328445 653.164856,200.816162 
	C653.921204,200.624466 654.638855,200.399704 655.372925,200.263000 
	C664.986816,198.472702 667.894043,200.870804 667.906860,210.588867 
	C667.910339,213.248444 668.101624,215.928391 667.826111,218.559143 
	C667.684143,219.915131 666.705994,221.183563 666.105652,222.491577 
	C665.434937,221.254028 664.279480,220.052368 664.184631,218.772156 
	C663.902893,214.968567 664.393860,211.081741 663.842590,207.336395 
	C663.609680,205.753601 661.526611,204.443115 659.857544,202.970154 
z"/>
<path fill="#FEEEEB" opacity="1.000000" stroke="none" 
	d="
M1096.421875,222.188751 
	C1095.999390,217.484070 1095.792480,213.012756 1095.798706,208.541718 
	C1095.803711,204.989273 1094.677734,202.836655 1090.669678,202.872391 
	C1086.751465,202.907333 1084.214722,204.182236 1084.232666,208.551666 
	C1084.248413,212.374069 1084.322266,216.201401 1084.139771,220.015503 
	C1084.098877,220.871094 1083.097046,221.680710 1082.537598,222.511505 
	C1081.834229,221.791412 1080.538208,221.085617 1080.520386,220.349030 
	C1080.361450,213.753754 1080.427612,207.153107 1080.427612,200.603729 
	C1084.950806,200.365662 1088.799927,200.037582 1092.652222,199.994247 
	C1096.831299,199.947235 1099.184082,202.055054 1099.211182,206.380402 
	C1099.238281,210.701370 1099.384644,215.032928 1099.111206,219.336502 
	C1099.042847,220.411194 1097.561401,221.396072 1096.421875,222.188751 
z"/>
<path fill="#FEEEEB" opacity="1.000000" stroke="none" 
	d="
M558.760742,218.985687 
	C558.327026,216.335495 557.850037,214.051636 557.808960,211.759979 
	C557.619568,201.187805 559.680847,199.344940 570.367859,199.938156 
	C574.483948,200.166641 576.910278,202.066330 577.304016,206.211472 
	C577.522949,208.516113 577.683594,210.852997 577.554504,213.157654 
	C577.363708,216.564590 577.703552,220.313904 573.529419,221.966599 
	C568.564697,223.932312 562.104919,222.793549 558.760742,218.985687 
M561.790466,206.878448 
	C561.722717,209.026428 561.670776,211.175034 561.583923,213.322235 
	C561.415588,217.482727 562.921814,219.853531 567.559509,219.846344 
	C571.928467,219.839569 574.055054,218.076477 573.879700,213.657166 
	C573.807617,211.840576 574.276794,209.861893 573.699036,208.242676 
	C573.024109,206.351456 571.707642,203.595581 570.254517,203.307434 
	C567.391479,202.739655 563.440613,201.323700 561.790466,206.878448 
z"/>
<path fill="#FEEEEB" opacity="1.000000" stroke="none" 
	d="
M1034.045410,217.715363 
	C1033.457031,219.603241 1032.868652,221.042603 1032.280273,222.481949 
	C1031.654053,221.012405 1030.555786,219.564255 1030.488037,218.069427 
	C1030.262817,213.094131 1030.309570,208.098465 1030.492676,203.119461 
	C1030.529541,202.117935 1031.482666,200.461838 1032.254761,200.306305 
	C1034.461060,199.861832 1036.797729,200.117279 1039.072266,199.949234 
	C1047.089355,199.356964 1049.193848,201.272690 1049.224487,209.346512 
	C1049.238403,213.002518 1049.325684,216.664734 1049.122681,220.309830 
	C1049.080444,221.068832 1047.904907,221.764725 1047.251709,222.489685 
	C1046.764038,221.763992 1045.882202,221.053070 1045.854370,220.310165 
	C1045.705200,216.326981 1045.782104,212.335693 1045.755127,208.347382 
	C1045.731201,204.794342 1044.303711,202.776657 1040.364990,202.872818 
	C1036.629517,202.964050 1034.248291,204.302536 1034.109985,208.294342 
	C1034.006348,211.282333 1034.061157,214.275818 1034.045410,217.715363 
z"/>
<path fill="#FEF0ED" opacity="1.000000" stroke="none" 
	d="
M500.759277,200.507812 
	C502.358185,201.379456 504.274384,202.223602 504.870239,203.627930 
	C506.792542,208.158539 508.228729,212.895401 510.323914,218.905685 
	C511.593445,214.134491 512.189209,210.623169 513.493347,207.398315 
	C514.528931,204.837540 513.050964,200.029922 519.063904,200.179337 
	C516.526367,209.566742 514.307678,218.383133 511.711945,227.087097 
	C510.628235,230.720795 508.090424,232.960312 503.651764,231.747940 
	C503.651764,231.138947 503.495850,230.340332 503.674316,230.256882 
	C509.843201,227.372421 508.586456,223.067535 506.498230,218.080536 
	C504.138916,212.446075 502.451630,206.530243 500.759277,200.507812 
z"/>
<path fill="#FDE8E3" opacity="1.000000" stroke="none" 
	d="
M911.635864,208.976593 
	C911.635864,212.435837 911.635864,215.400452 911.635864,218.932098 
	C917.143799,218.932098 922.213806,218.932098 927.374084,218.932098 
	C926.607361,223.047226 922.135376,223.713638 908.102173,222.275726 
	C908.102173,211.931168 908.102173,201.544525 908.102173,191.157898 
	C908.528076,190.905731 908.953979,190.653564 909.379883,190.401413 
	C910.130737,191.602997 911.464233,192.773834 911.529541,194.011597 
	C911.783508,198.823532 911.634827,203.656708 911.635864,208.976593 
z"/>
<path fill="#FDEDEA" opacity="1.000000" stroke="none" 
	d="
M856.325317,214.818283 
	C856.870056,218.911194 859.476868,219.733826 862.510132,219.724487 
	C865.200073,219.716217 867.909973,219.665161 868.279297,215.816681 
	C868.349670,215.083160 870.146057,214.515305 871.691101,213.519943 
	C872.397888,219.111191 870.635925,221.852570 865.948059,222.475891 
	C861.615173,223.052002 857.178467,223.547974 853.990051,219.687073 
	C851.680908,216.891037 851.887695,205.897018 854.001160,202.812302 
	C856.631226,198.973495 867.668579,198.506729 870.236572,202.357437 
	C871.049622,203.576630 870.637451,205.612915 870.785950,207.275253 
	C869.711121,206.480621 868.743530,205.386505 867.538635,204.955185 
	C865.204895,204.119736 862.699158,203.095337 860.340393,203.256683 
	C858.983093,203.349518 857.104370,205.414978 856.654846,206.943710 
	C855.976318,209.251328 856.341614,211.865875 856.325317,214.818283 
z"/>
<path fill="#FDEEEA" opacity="1.000000" stroke="none" 
	d="
M629.404419,203.092361 
	C626.430847,203.724380 621.904541,204.020309 621.668579,205.185272 
	C620.845703,209.247665 620.645813,213.878708 621.859985,217.779846 
	C622.950989,221.285324 630.690247,220.130707 632.532959,216.585114 
	C633.033569,215.621704 634.119019,214.962234 634.936035,214.163254 
	C635.291382,215.429321 635.983093,216.718750 635.897339,217.954193 
	C635.826538,218.974442 634.943604,220.691025 634.235840,220.791016 
	C629.943176,221.397400 625.507751,222.325027 621.295654,221.782227 
	C617.364380,221.275620 616.894714,217.357132 616.928406,213.843063 
	C616.939514,212.681229 616.833801,211.518646 616.795837,210.355927 
	C616.451355,199.781494 622.450317,198.754669 632.016785,200.608109 
	C633.232544,200.843658 634.593872,202.266922 635.131348,203.476120 
	C635.596375,204.522232 634.986450,206.046204 634.851624,207.358948 
	C633.871887,206.605484 632.870911,205.877731 631.919373,205.090164 
	C631.187012,204.484009 630.516785,203.802658 629.404419,203.092361 
z"/>
<path fill="#FDECE9" opacity="1.000000" stroke="none" 
	d="
M785.098511,214.723663 
	C785.098206,211.772827 785.328003,209.250946 785.017517,206.797440 
	C784.807678,205.139679 783.836914,203.578201 782.882446,201.148697 
	C783.543335,199.974213 784.755920,197.819382 786.405090,194.888672 
	C790.498657,193.450760 788.071167,198.258270 789.026367,199.351501 
	C791.672363,201.398483 795.656494,198.156815 797.800171,202.833282 
	C794.542175,202.976410 791.991150,203.088470 788.910095,203.223816 
	C788.910095,207.698013 788.758850,211.982452 789.009583,216.243240 
	C789.077759,217.400894 790.358459,218.487198 791.082642,219.606247 
	C792.268982,218.723068 793.596375,217.973114 794.596619,216.914154 
	C795.384094,216.080414 795.768127,214.865646 796.331360,213.820099 
	C797.007690,214.062012 797.684021,214.303940 798.360352,214.545853 
	C797.676575,216.799393 797.657104,220.071518 796.146240,221.056732 
	C794.113586,222.382187 790.419189,222.966904 788.395020,221.955078 
	C786.612915,221.064301 786.146179,217.541946 785.098511,214.723663 
z"/>
<path fill="#FEF7F5" opacity="1.000000" stroke="none" 
	d="
M537.136841,198.159698 
	C537.528809,194.950394 536.564880,193.617599 533.610596,193.989685 
	C532.136108,194.175369 530.593323,194.172455 529.129761,193.944366 
	C528.378235,193.827240 527.733032,193.028198 527.039734,192.537354 
	C527.660889,191.967804 528.273926,190.913681 528.904358,190.903168 
	C535.728149,190.789337 542.555420,190.794983 549.378784,190.925262 
	C549.955994,190.936264 550.511475,192.081024 551.077026,192.699097 
	C550.497314,193.132721 549.935730,193.908920 549.334778,193.940704 
	C546.723938,194.078827 544.101746,193.999954 541.134766,193.999954 
	C541.134766,203.574066 541.134766,212.675415 541.134766,221.857239 
	C537.921753,223.142670 537.076965,221.945328 537.111755,219.119644 
	C537.195862,212.294525 537.137939,205.467682 537.136841,198.159698 
z"/>
<path fill="#FEF7F5" opacity="1.000000" stroke="none" 
	d="
M821.178223,200.358948 
	C822.735352,202.640778 823.935425,204.754425 825.135498,206.868088 
	C824.695496,207.294724 824.255493,207.721375 823.815491,208.148026 
	C822.873108,207.585510 821.183167,207.101242 821.114685,206.447235 
	C820.777649,203.226624 818.637390,202.197449 816.307556,203.174698 
	C814.593201,203.893814 812.651001,206.091248 812.395691,207.858948 
	C811.808960,211.920151 812.259766,216.123642 812.114197,220.263214 
	C812.088013,221.006622 811.222412,221.720520 810.744324,222.448029 
	C810.103333,221.718826 808.922180,221.001572 808.905823,220.258591 
	C808.760376,213.673126 808.821350,207.083115 808.821350,200.190765 
	C813.168640,200.190765 816.994873,200.190765 821.178223,200.358948 
z"/>
<path fill="#FEF1EE" opacity="1.000000" stroke="none" 
	d="
M601.574829,200.019913 
	C605.892212,201.201294 606.330750,204.092834 605.753052,208.677231 
	C604.394592,207.524292 603.612183,206.760712 602.731750,206.135040 
	C601.200928,205.047150 599.190002,202.888306 598.139343,203.269653 
	C596.449585,203.882950 594.784790,206.008698 594.199890,207.843094 
	C593.527161,209.953186 594.039734,212.441452 594.038757,214.765472 
	C594.037781,217.082901 594.038452,219.400330 594.038452,223.617340 
	C592.094666,221.959702 590.295959,221.153336 590.264526,220.283051 
	C590.026123,213.690857 590.134155,207.086151 590.134155,200.703354 
	C594.200073,200.435760 597.680420,200.206711 601.574829,200.019913 
z"/>
<path fill="#FDEAE6" opacity="1.000000" stroke="none" 
	d="
M1006.462646,221.899048 
	C1005.162659,221.610260 1003.266052,221.038177 1003.245300,220.404526 
	C1003.027832,213.778549 1003.111084,207.142715 1003.111084,200.667038 
	C1005.986572,200.412384 1008.351807,200.290421 1010.691650,199.978439 
	C1016.469727,199.208023 1018.756470,201.267105 1018.843445,208.849350 
	C1017.253540,207.550278 1016.354004,206.703201 1015.344971,206.016922 
	C1013.809875,204.972809 1011.918213,202.995499 1010.691345,203.325119 
	C1009.165466,203.735138 1007.291321,205.987686 1007.099121,207.624390 
	C1006.558289,212.229309 1006.802307,216.926392 1006.462646,221.899048 
z"/>
<path fill="#FDE6E1" opacity="1.000000" stroke="none" 
	d="
M1063.073608,211.007660 
	C1063.080322,207.857452 1062.942383,205.180023 1063.178467,202.536011 
	C1063.253296,201.698914 1064.327393,200.951080 1064.944092,200.162415 
	C1065.602051,201.080261 1066.800049,201.981110 1066.829468,202.918777 
	C1067.007812,208.575348 1067.010742,214.243393 1066.823730,219.899384 
	C1066.794189,220.792938 1065.501099,221.644714 1064.792236,222.515808 
	C1064.222656,221.672745 1063.229004,220.861984 1063.161865,219.980621 
	C1062.947266,217.165649 1063.076904,214.324432 1063.073608,211.007660 
z"/>
<path fill="#FDE6E1" opacity="1.000000" stroke="none" 
	d="
M836.009766,221.214508 
	C835.952698,213.987061 835.952698,207.187347 835.952698,200.387634 
	C836.395874,200.168411 836.839111,199.949188 837.282288,199.729965 
	C838.061707,200.716431 839.477844,201.679291 839.515442,202.693253 
	C839.731262,208.515305 839.719910,214.351990 839.573853,220.178375 
	C839.509949,222.729019 838.119629,223.264328 836.009766,221.214508 
z"/>
<path fill="#EF4F2D" opacity="1.000000" stroke="none" 
	d="
M215.383255,153.014832 
	C209.218155,148.718765 208.511597,144.353149 213.171661,139.226822 
	C218.451019,133.419250 225.210281,130.942337 232.933197,132.342529 
	C241.131241,133.828873 243.553833,140.985764 237.920822,147.071976 
	C231.905533,153.571228 224.408615,155.712677 215.383255,153.014832 
z"/>
<path fill="#EF4F2D" opacity="1.000000" stroke="none" 
	d="
M167.330261,142.969147 
	C168.377747,149.043808 166.111160,152.796417 160.500702,153.784958 
	C152.207764,155.246124 144.991425,152.903992 139.592728,146.256851 
	C135.089539,140.712280 137.011597,134.992966 143.898712,132.730774 
	C152.128433,130.027603 162.484238,134.425293 167.330261,142.969147 
z"/>
<path fill="#EF4D2B" opacity="1.000000" stroke="none" 
	d="
M493.049805,45.186321 
	C515.850525,45.186329 538.157104,45.150318 560.463318,45.221020 
	C564.277832,45.233112 568.114563,45.514771 571.899841,45.995712 
	C580.872681,47.135742 585.567017,52.236336 585.932678,61.231510 
	C586.121826,65.885063 586.033203,70.552887 585.973022,75.213005 
	C585.843384,85.259132 580.609863,90.950218 570.589722,91.967041 
	C568.938416,92.134598 567.265808,92.138924 565.603088,92.139587 
	C540.133789,92.149673 514.664429,92.146614 489.195099,92.146614 
	C487.559143,92.146614 485.923218,92.146622 483.914001,92.146622 
	C483.914001,76.412346 483.914001,61.071716 483.914001,45.186321 
	C486.978271,45.186321 489.766937,45.186321 493.049805,45.186321 
z"/>
<path fill="#EF502F" opacity="1.000000" stroke="none" 
	d="
M470.601746,198.062866 
	C470.387512,195.254730 470.949707,193.730316 473.787262,194.014359 
	C475.584656,194.194290 477.415161,194.024078 479.230255,194.050140 
	C485.392334,194.138596 486.475037,195.150177 486.393829,200.694199 
	C486.319916,205.739014 485.141998,206.730453 479.125549,206.770309 
	C476.523376,206.787537 473.920959,206.773178 470.599823,206.773178 
	C470.599823,203.698349 470.599823,201.121460 470.601746,198.062866 
z"/>
<path fill="#EF5130" opacity="1.000000" stroke="none" 
	d="
M1116.206299,214.446533 
	C1116.196899,212.369003 1116.223389,210.711746 1116.190796,209.055649 
	C1116.111816,205.041473 1117.817993,202.881531 1122.073364,202.851227 
	C1126.572876,202.819199 1128.384521,205.022705 1128.149292,209.324295 
	C1128.077026,210.645752 1128.071411,211.978378 1128.149780,213.299103 
	C1128.355835,216.773758 1127.059814,219.188446 1123.409180,219.641785 
	C1119.752441,220.095886 1116.741577,219.274429 1116.206299,214.446533 
z"/>
<path fill="#EF502F" opacity="1.000000" stroke="none" 
	d="
M762.924561,209.124710 
	C760.655945,209.124756 758.863953,209.124756 756.899170,209.124756 
	C756.171082,204.926315 757.606506,203.007629 761.652283,202.896790 
	C765.513428,202.790985 768.823181,203.075272 767.910034,208.860657 
	C766.496582,208.943420 764.948914,209.034042 762.924561,209.124710 
z"/>
<path fill="#EF5130" opacity="1.000000" stroke="none" 
	d="
M951.560913,203.112701 
	C952.887939,204.758179 953.791565,206.318802 955.183655,208.723145 
	C950.245178,208.723145 946.547241,208.723145 942.838745,208.723145 
	C942.704285,203.199005 943.420044,202.702927 951.560913,203.112701 
z"/>
<path fill="#F05737" opacity="1.000000" stroke="none" 
	d="
M985.902954,216.661865 
	C983.497742,220.850296 979.825745,220.261688 976.571106,219.293060 
	C973.486572,218.375061 973.126953,214.887390 975.070557,213.372879 
	C976.926392,211.926666 980.308411,211.885254 982.904480,212.193893 
	C984.068542,212.332291 984.952026,214.831039 985.902954,216.661865 
z"/>
<path fill="#EF502F" opacity="1.000000" stroke="none" 
	d="
M561.865479,206.430099 
	C563.440613,201.323700 567.391479,202.739655 570.254517,203.307434 
	C571.707642,203.595581 573.024109,206.351456 573.699036,208.242676 
	C574.276794,209.861893 573.807617,211.840576 573.879700,213.657166 
	C574.055054,218.076477 571.928467,219.839569 567.559509,219.846344 
	C562.921814,219.853531 561.415588,217.482727 561.583923,213.322235 
	C561.670776,211.175034 561.722717,209.026428 561.865479,206.430099 
z"/>
</svg>