<svg version="1.1" id="Layer_1" xmlns="http://www.w3.org/2000/svg" xmlns:xlink="http://www.w3.org/1999/xlink" x="0px" y="0px"
	 width="100%" viewBox="1.000014 1.00002 352.99997 104.99998" enable-background="new 0 0 353 105" xml:space="preserve">
<path fill="#FEFEFE" opacity="1.000000" stroke="none" 
	d="
M231.000000,106.000000 
	C154.000015,106.000000 77.500038,106.000000 1.000041,106.000000 
	C1.000027,71.000023 1.000027,36.000053 1.000014,1.000060 
	C118.666618,1.000040 236.333237,1.000040 353.999878,1.000020 
	C353.999939,35.999935 353.999939,70.999870 353.999969,105.999908 
	C313.166656,106.000000 272.333344,106.000000 231.000000,106.000000 
M256.644470,70.017967 
	C257.092682,69.961906 257.540863,69.905846 258.835022,69.620308 
	C258.553009,63.796944 258.270996,57.973579 257.328094,51.979282 
	C256.882843,52.046555 256.437622,52.113827 255.193130,52.462116 
	C255.166687,56.228424 255.140228,59.994728 254.693985,64.355247 
	C253.030640,65.133163 250.976730,66.893272 249.807556,66.428368 
	C248.489471,65.904266 247.447556,63.446701 247.214554,61.705753 
	C246.804321,58.640388 247.099823,55.480576 247.099823,52.360306 
	C246.646271,52.072998 246.192719,51.785694 245.739166,51.498386 
	C244.877029,52.479164 243.507233,53.350090 243.265930,54.465214 
	C242.853836,56.369576 243.142334,58.427105 243.149094,60.420261 
	C243.181290,69.917854 246.875946,72.219002 255.033524,68.495354 
	C255.352554,68.936928 255.671585,69.378502 256.644470,70.017967 
M213.671646,69.236069 
	C213.709183,66.238983 213.294556,63.139095 213.944305,60.281193 
	C214.372681,58.396915 216.332672,56.860855 217.606857,55.168869 
	C218.819214,56.813778 220.579559,58.303387 221.101196,60.144039 
	C221.713226,62.303722 221.349487,64.773880 221.227005,67.099800 
	C221.044067,70.573738 222.868881,70.360367 225.260956,69.651443 
	C225.260956,65.438881 225.530518,61.432320 225.190643,57.478142 
	C224.793167,52.853916 221.327454,50.904381 217.001434,52.481796 
	C216.026505,52.837280 215.102493,53.332390 214.183517,53.750275 
	C213.782242,50.037327 213.416885,46.656841 212.161407,43.008347 
	C211.330536,43.856323 209.801788,44.685730 209.778656,45.555202 
	C209.585129,52.827446 209.735931,60.108002 209.633743,67.383957 
	C209.594757,70.159584 210.925629,70.386909 213.671646,69.236069 
M268.621124,69.350555 
	C268.654846,65.590080 268.688538,61.829605 269.119263,57.448261 
	C270.816162,56.768929 272.978668,55.124672 274.089142,55.660553 
	C275.404114,56.295101 276.194763,58.740768 276.516235,60.526787 
	C276.922150,62.781715 276.376099,65.202873 276.738098,67.473022 
	C276.913361,68.572105 278.223358,69.490250 279.019562,70.490318 
	C279.440582,70.208633 279.861572,69.926941 280.282593,69.645256 
	C280.282593,65.681419 280.365448,61.715313 280.256836,57.754459 
	C280.167419,54.494377 278.389282,52.208664 275.138153,52.092430 
	C271.761292,51.971699 268.356964,52.617409 264.629883,52.958591 
	C264.629883,57.394093 264.739807,62.371075 264.586487,67.339935 
	C264.501801,70.084137 265.703430,70.463905 268.621124,69.350555 
M71.614426,99.033905 
	C82.847580,93.446693 94.048859,87.793755 105.336884,82.319695 
	C108.070312,80.994133 109.102348,79.300468 109.067978,76.219673 
	C108.910072,62.067444 108.880516,47.910683 109.093178,33.759884 
	C109.138321,30.756159 107.994217,29.305992 105.581886,28.114902 
	C91.015137,20.922548 76.513275,13.596713 61.872765,6.558782 
	C60.254597,5.780900 57.584393,5.898022 55.928600,6.694531 
	C41.434414,13.666878 27.097916,20.966621 12.617205,27.967714 
	C9.817677,29.321220 8.900912,30.963980 8.934525,34.001858 
	C9.087434,47.821129 9.171818,61.646454 8.894518,75.461845 
	C8.814599,79.443504 10.412904,81.420898 13.681716,83.001495 
	C24.683092,88.321037 36.042816,93.078125 46.448341,99.396141 
	C55.145267,104.676727 62.774075,105.878136 71.614426,99.033905 
M289.774719,65.359123 
	C289.378387,64.368248 288.982086,63.377373 288.306854,61.689148 
	C292.871033,61.689148 296.759186,61.689148 300.632324,61.689148 
	C300.533539,55.081196 298.177521,52.112846 293.335175,51.967564 
	C288.489288,51.822170 284.565948,55.626835 284.312988,60.716713 
	C284.051178,65.985413 287.351471,69.882576 292.532867,69.966270 
	C295.312744,70.011177 298.756531,70.459381 299.470398,66.813759 
	C296.044067,66.470985 293.232330,66.189697 289.774719,65.359123 
M167.207352,69.986481 
	C173.505447,68.044525 175.724762,65.030823 175.054062,59.331059 
	C174.550308,55.050022 171.541824,52.280659 167.057861,51.970387 
	C161.640915,51.595554 157.465500,54.913235 156.963272,59.991287 
	C156.370239,65.987251 159.479416,69.296379 167.207352,69.986481 
M146.448578,66.629715 
	C149.678223,71.130814 152.474060,71.400597 154.572891,67.413666 
	C149.634583,65.932976 149.383087,65.171242 150.602188,55.841492 
	C152.184708,55.017681 153.598999,54.281452 155.013290,53.545219 
	C154.875839,53.168858 154.738403,52.792500 154.600967,52.416138 
	C153.220093,52.144508 151.839218,51.872879 150.521149,51.613602 
	C150.250931,50.046852 150.010223,48.651146 149.585144,46.186436 
	C147.042297,48.976852 145.091660,51.047749 143.282486,53.235634 
	C143.138565,53.409698 143.997620,54.380005 144.348709,55.003838 
	C144.967209,56.102840 145.929962,57.173203 146.074982,58.339325 
	C146.380249,60.794033 146.249619,63.302944 146.448578,66.629715 
M232.428665,47.997787 
	C231.761597,50.947346 226.698257,53.396484 231.531830,57.069763 
	C232.175919,57.559219 231.604797,59.616009 231.640182,60.945801 
	C231.688782,62.772602 231.256454,64.857445 231.997528,66.352112 
	C232.749710,67.869240 234.517166,69.265678 236.146774,69.831627 
	C237.247910,70.214058 238.880249,69.066948 240.274994,68.603996 
	C232.281891,65.505890 237.145660,59.610943 235.806351,56.159912 
	C237.565613,55.042187 238.773636,54.274681 239.981659,53.507168 
	C238.755234,52.746147 237.528809,51.985126 236.302383,51.224106 
	C236.500626,51.052326 236.698868,50.880547 236.897110,50.708763 
	C235.656281,49.744370 234.415451,48.779972 232.428665,47.997787 
M191.720093,63.673599 
	C193.178802,68.732445 196.915421,70.374542 201.685959,69.853889 
	C203.064270,69.703453 204.303085,68.275078 205.419250,67.553253 
	C201.759369,66.367416 198.572708,66.067886 196.531464,64.381721 
	C195.416748,63.460911 195.316803,59.174698 196.389297,58.200207 
	C198.445465,56.331940 201.664032,55.742954 205.257111,54.272579 
	C204.362411,53.681259 203.159988,52.273693 201.790741,52.086536 
	C195.492645,51.225677 191.503967,55.571301 191.720093,63.673599 
M179.658463,62.466675 
	C179.658463,64.887085 179.658463,67.307503 179.658463,71.478737 
	C181.796967,69.667618 183.427917,68.975372 183.611389,68.008484 
	C184.306183,64.346733 184.919449,60.579018 184.758057,56.886131 
	C184.684998,55.214325 182.724594,53.625000 181.620407,51.998253 
	C180.966431,53.514606 180.057602,54.978279 179.730209,56.562138 
	C179.403259,58.143967 179.658447,59.846115 179.658463,62.466675 
z"/>
<path fill="#000000" opacity="1.000000" stroke="none" 
	d="
M71.306458,99.266617 
	C62.774075,105.878136 55.145267,104.676727 46.448341,99.396141 
	C36.042816,93.078125 24.683092,88.321037 13.681716,83.001495 
	C10.412904,81.420898 8.814599,79.443504 8.894518,75.461845 
	C9.171818,61.646454 9.087434,47.821129 8.934525,34.001858 
	C8.900912,30.963980 9.817677,29.321220 12.617205,27.967714 
	C27.097916,20.966621 41.434414,13.666878 55.928600,6.694531 
	C57.584393,5.898022 60.254597,5.780900 61.872765,6.558782 
	C76.513275,13.596713 91.015137,20.922548 105.581886,28.114902 
	C107.994217,29.305992 109.138321,30.756159 109.093178,33.759884 
	C108.880516,47.910683 108.910072,62.067444 109.067978,76.219673 
	C109.102348,79.300468 108.070312,80.994133 105.336884,82.319695 
	C94.048859,87.793755 82.847580,93.446693 71.306458,99.266617 
M31.000399,24.494789 
	C26.224850,26.903116 21.366953,29.167187 16.728256,31.815241 
	C15.476594,32.529766 14.133045,34.398701 14.114591,35.755196 
	C13.924407,49.733963 13.997842,63.716316 13.997842,77.499924 
	C28.219353,84.616516 42.110275,91.652573 56.114330,98.455765 
	C57.666500,99.209808 60.191067,99.308525 61.711277,98.570801 
	C74.839828,92.199898 87.798073,85.478287 100.919449,79.092094 
	C103.377937,77.895531 104.105263,76.604897 104.071762,73.958107 
	C103.915749,61.628448 103.924843,49.294849 104.061798,36.964737 
	C104.092865,34.167385 103.411415,32.492874 100.726784,31.188437 
	C87.897087,24.954594 75.227921,18.388372 62.355904,12.245798 
	C60.497890,11.359146 57.519184,11.401458 55.623299,12.259914 
	C47.508068,15.934485 39.604149,20.075739 31.000399,24.494789 
z"/>
<path fill="#2C3037" opacity="1.000000" stroke="none" 
	d="
M267.910583,69.752312 
	C265.703430,70.463905 264.501801,70.084137 264.586487,67.339935 
	C264.739807,62.371075 264.629883,57.394093 264.629883,52.958591 
	C268.356964,52.617409 271.761292,51.971699 275.138153,52.092430 
	C278.389282,52.208664 280.167419,54.494377 280.256836,57.754459 
	C280.365448,61.715313 280.282593,65.681419 280.282593,69.645256 
	C279.861572,69.926941 279.440582,70.208633 279.019562,70.490318 
	C278.223358,69.490250 276.913361,68.572105 276.738098,67.473022 
	C276.376099,65.202873 276.922150,62.781715 276.516235,60.526787 
	C276.194763,58.740768 275.404114,56.295101 274.089142,55.660553 
	C272.978668,55.124672 270.816162,56.768929 268.667206,58.066315 
	C268.113617,62.373684 268.012085,66.062996 267.910583,69.752312 
z"/>
<path fill="#333339" opacity="1.000000" stroke="none" 
	d="
M290.097656,65.633774 
	C293.232330,66.189697 296.044067,66.470985 299.470398,66.813759 
	C298.756531,70.459381 295.312744,70.011177 292.532867,69.966270 
	C287.351471,69.882576 284.051178,65.985413 284.312988,60.716713 
	C284.565948,55.626835 288.489288,51.822170 293.335175,51.967564 
	C298.177521,52.112846 300.533539,55.081196 300.632324,61.689148 
	C296.759186,61.689148 292.871033,61.689148 288.306854,61.689148 
	C288.982086,63.377373 289.378387,64.368248 290.097656,65.633774 
M291.154175,55.246376 
	C290.214264,56.232292 289.274353,57.218212 287.775665,58.790253 
	C291.407715,58.790253 293.995270,58.790253 296.582825,58.790253 
	C296.770935,58.324833 296.959015,57.859413 297.147095,57.393997 
	C295.397003,56.617348 293.646912,55.840702 291.154175,55.246376 
z"/>
<path fill="#36313B" opacity="1.000000" stroke="none" 
	d="
M166.803436,70.010437 
	C159.479416,69.296379 156.370239,65.987251 156.963272,59.991287 
	C157.465500,54.913235 161.640915,51.595554 167.057861,51.970387 
	C171.541824,52.280659 174.550308,55.050022 175.054062,59.331059 
	C175.724762,65.030823 173.505447,68.044525 166.803436,70.010437 
M160.961212,59.810490 
	C160.564667,63.409405 161.629181,66.580605 165.536865,66.650299 
	C167.331390,66.682297 170.500809,64.358612 170.677628,62.829243 
	C170.942322,60.539906 169.797913,57.023125 168.028839,55.802803 
	C165.084274,53.771614 162.407135,55.709927 160.961212,59.810490 
z"/>
<path fill="#3A3431" opacity="1.000000" stroke="none" 
	d="
M146.373230,66.209663 
	C146.249619,63.302944 146.380249,60.794033 146.074982,58.339325 
	C145.929962,57.173203 144.967209,56.102840 144.348709,55.003838 
	C143.997620,54.380005 143.138565,53.409698 143.282486,53.235634 
	C145.091660,51.047749 147.042297,48.976852 149.585144,46.186436 
	C150.010223,48.651146 150.250931,50.046852 150.521149,51.613602 
	C151.839218,51.872879 153.220093,52.144508 154.600967,52.416138 
	C154.738403,52.792500 154.875839,53.168858 155.013290,53.545219 
	C153.598999,54.281452 152.184708,55.017681 150.602188,55.841492 
	C149.383087,65.171242 149.634583,65.932976 154.572891,67.413666 
	C152.474060,71.400597 149.678223,71.130814 146.373230,66.209663 
z"/>
<path fill="#243344" opacity="1.000000" stroke="none" 
	d="
M232.801636,47.906681 
	C234.415451,48.779972 235.656281,49.744370 236.897110,50.708763 
	C236.698868,50.880547 236.500626,51.052326 236.302383,51.224106 
	C237.528809,51.985126 238.755234,52.746147 239.981659,53.507172 
	C238.773636,54.274681 237.565613,55.042187 235.806351,56.159912 
	C237.145660,59.610943 232.281891,65.505890 240.274994,68.603996 
	C238.880249,69.066948 237.247910,70.214058 236.146774,69.831627 
	C234.517166,69.265678 232.749710,67.869240 231.997528,66.352112 
	C231.256454,64.857445 231.688782,62.772602 231.640182,60.945801 
	C231.604797,59.616009 232.175919,57.559219 231.531830,57.069763 
	C226.698257,53.396484 231.761597,50.947346 232.801636,47.906681 
z"/>
<path fill="#3C4143" opacity="1.000000" stroke="none" 
	d="
M213.051514,43.276356 
	C213.416885,46.656841 213.782242,50.037327 214.183517,53.750275 
	C215.102493,53.332390 216.026505,52.837280 217.001434,52.481796 
	C221.327454,50.904381 224.793167,52.853916 225.190643,57.478142 
	C225.530518,61.432320 225.260956,65.438881 225.260956,69.651443 
	C222.868881,70.360367 221.044067,70.573738 221.227005,67.099800 
	C221.349487,64.773880 221.713226,62.303722 221.101196,60.144039 
	C220.579559,58.303387 218.819214,56.813778 217.606857,55.168869 
	C216.332672,56.860855 214.372681,58.396915 213.944305,60.281193 
	C213.294556,63.139095 213.709183,66.238983 213.332184,69.036491 
	C213.012314,60.316727 213.031921,51.796543 213.051514,43.276356 
z"/>
<path fill="#3D3236" opacity="1.000000" stroke="none" 
	d="
M255.066193,67.846436 
	C246.875946,72.219002 243.181290,69.917854 243.149094,60.420261 
	C243.142334,58.427105 242.853836,56.369576 243.265930,54.465214 
	C243.507233,53.350090 244.877029,52.479164 245.739166,51.498386 
	C246.192719,51.785694 246.646271,52.072998 247.099823,52.360306 
	C247.099823,55.480576 246.804321,58.640388 247.214554,61.705753 
	C247.447556,63.446701 248.489471,65.904266 249.807556,66.428368 
	C250.976730,66.893272 253.030640,65.133163 255.189407,63.805458 
	C255.787354,59.564144 255.889877,55.872623 255.992401,52.181099 
	C256.437622,52.113827 256.882843,52.046555 257.657593,52.522865 
	C257.987732,58.660892 257.988403,64.255333 257.989075,69.849777 
	C257.540863,69.905846 257.092682,69.961906 256.319427,69.661774 
	C255.684982,68.819199 255.375595,68.332817 255.066193,67.846436 
z"/>
<path fill="#342F31" opacity="1.000000" stroke="none" 
	d="
M191.617126,63.302528 
	C191.503967,55.571301 195.492645,51.225677 201.790741,52.086536 
	C203.159988,52.273693 204.362411,53.681259 205.257111,54.272579 
	C201.664032,55.742954 198.445465,56.331940 196.389297,58.200207 
	C195.316803,59.174698 195.416748,63.460911 196.531464,64.381721 
	C198.572708,66.067886 201.759369,66.367416 205.419250,67.553253 
	C204.303085,68.275078 203.064270,69.703453 201.685959,69.853889 
	C196.915421,70.374542 193.178802,68.732445 191.617126,63.302528 
z"/>
<path fill="#1F2F3D" opacity="1.000000" stroke="none" 
	d="
M212.606461,43.142349 
	C213.031921,51.796543 213.012314,60.316727 213.021881,69.280365 
	C210.925629,70.386909 209.594757,70.159584 209.633743,67.383957 
	C209.735931,60.108002 209.585129,52.827446 209.778656,45.555202 
	C209.801788,44.685730 211.330536,43.856323 212.606461,43.142349 
z"/>
<path fill="#1F3344" opacity="1.000000" stroke="none" 
	d="
M179.658447,61.981094 
	C179.658447,59.846115 179.403259,58.143967 179.730209,56.562138 
	C180.057602,54.978279 180.966431,53.514606 181.620407,51.998253 
	C182.724594,53.625000 184.684998,55.214325 184.758057,56.886131 
	C184.919449,60.579018 184.306183,64.346733 183.611389,68.008484 
	C183.427917,68.975372 181.796967,69.667618 179.658463,71.478737 
	C179.658463,67.307503 179.658463,64.887085 179.658447,61.981094 
z"/>
<path fill="#372337" opacity="1.000000" stroke="none" 
	d="
M258.412048,69.735046 
	C257.988403,64.255333 257.987732,58.660892 257.988037,52.608334 
	C258.270996,57.973579 258.553009,63.796944 258.412048,69.735046 
z"/>
<path fill="#1F3446" opacity="1.000000" stroke="none" 
	d="
M268.265839,69.551437 
	C268.012085,66.062996 268.113617,62.373684 268.468689,58.376751 
	C268.688538,61.829605 268.654846,65.590080 268.265839,69.551437 
z"/>
<path fill="#372337" opacity="1.000000" stroke="none" 
	d="
M255.592773,52.321609 
	C255.889877,55.872623 255.787354,59.564144 255.399292,63.508354 
	C255.140228,59.994728 255.166687,56.228424 255.592773,52.321609 
z"/>
<path fill="#372337" opacity="1.000000" stroke="none" 
	d="
M255.049866,68.170898 
	C255.375595,68.332817 255.684982,68.819199 255.992493,69.562820 
	C255.671585,69.378502 255.352554,68.936928 255.049866,68.170898 
z"/>
<path fill="#FEF100" opacity="1.000000" stroke="none" 
	d="
M31.311789,24.270809 
	C39.604149,20.075739 47.508068,15.934485 55.623299,12.259914 
	C57.519184,11.401458 60.497890,11.359146 62.355904,12.245798 
	C75.227921,18.388372 87.897087,24.954594 100.726784,31.188437 
	C103.411415,32.492874 104.092865,34.167385 104.061798,36.964737 
	C103.924843,49.294849 103.915749,61.628448 104.071762,73.958107 
	C104.105263,76.604897 103.377937,77.895531 100.919449,79.092094 
	C87.798073,85.478287 74.839828,92.199898 61.711277,98.570801 
	C60.191067,99.308525 57.666500,99.209808 56.114330,98.455765 
	C42.110275,91.652573 28.219353,84.616516 13.997842,77.499924 
	C13.997842,63.716316 13.924407,49.733963 14.114591,35.755196 
	C14.133045,34.398701 15.476594,32.529766 16.728256,31.815241 
	C21.366953,29.167187 26.224850,26.903116 31.311789,24.270809 
M52.618313,60.597633 
	C56.489822,60.995399 59.635494,59.939693 60.383976,55.708206 
	C60.864479,52.991699 60.107544,50.517895 56.716187,49.958214 
	C55.761951,53.318222 60.260830,58.567303 52.892933,58.810291 
	C52.384525,58.761925 51.876122,58.713562 51.367714,58.665195 
	C51.636963,59.132549 51.906216,59.599903 52.618313,60.597633 
M68.039917,56.811699 
	C70.572166,63.950993 76.628838,60.105568 81.150223,60.842419 
	C82.182701,61.010689 83.492859,59.475101 84.847641,58.614132 
	C82.385727,58.614132 80.796280,58.614132 79.206841,58.614132 
	C79.813622,57.855312 80.663246,57.179619 80.959373,56.314472 
	C81.259834,55.436668 81.420898,53.873089 80.935364,53.476753 
	C79.016792,51.910629 76.820427,50.684811 74.563789,49.227303 
	C74.563789,52.586876 74.563789,55.764164 74.563789,59.610397 
	C72.308502,58.142151 70.660912,57.069530 69.232536,55.318619 
	C70.027069,53.864021 70.821609,52.409424 71.616150,50.954830 
	C68.710144,50.068542 65.804131,49.182255 62.367455,48.134117 
	C62.367455,53.133514 62.367455,56.859322 62.367455,60.740021 
	C63.826160,60.740021 65.125443,60.740021 65.526878,60.740021 
	C66.459358,58.881504 67.165909,57.473305 68.039917,56.811699 
M48.707966,50.444687 
	C44.950241,49.035408 45.359673,51.381413 46.125072,53.532269 
	C46.659771,55.034847 47.759285,56.336433 49.473618,59.151764 
	C50.942848,55.527821 51.986092,52.954597 53.054977,50.318130 
	C51.819889,50.318130 50.538052,50.318130 48.707966,50.444687 
M39.171284,57.192825 
	C39.285233,54.855171 39.399181,52.517513 39.533318,49.765728 
	C36.075558,51.635376 34.887550,54.090641 36.436157,57.465694 
	C36.658943,57.951225 38.187382,57.837669 39.171284,57.192825 
z"/>
<path fill="#F1F3F1" opacity="1.000000" stroke="none" 
	d="
M291.525513,55.155212 
	C293.646912,55.840702 295.397003,56.617348 297.147095,57.393997 
	C296.959015,57.859413 296.770935,58.324833 296.582825,58.790253 
	C293.995270,58.790253 291.407715,58.790253 287.775665,58.790253 
	C289.274353,57.218212 290.214264,56.232292 291.525513,55.155212 
z"/>
<path fill="#F4F7F5" opacity="1.000000" stroke="none" 
	d="
M161.021606,59.410004 
	C162.407135,55.709927 165.084274,53.771614 168.028839,55.802803 
	C169.797913,57.023125 170.942322,60.539906 170.677628,62.829243 
	C170.500809,64.358612 167.331390,66.682297 165.536865,66.650299 
	C161.629181,66.580605 160.564667,63.409405 161.021606,59.410004 
z"/>
<path fill="#656000" opacity="1.000000" stroke="none" 
	d="
M67.872452,56.065102 
	C67.165909,57.473305 66.459358,58.881504 65.526878,60.740021 
	C65.125443,60.740021 63.826160,60.740021 62.367455,60.740021 
	C62.367455,56.859322 62.367455,53.133514 62.367455,48.134117 
	C65.804131,49.182255 68.710144,50.068542 71.616150,50.954830 
	C70.821609,52.409424 70.027069,53.864021 68.836937,55.662025 
	C68.251717,56.025322 68.062088,56.045212 67.872452,56.065102 
z"/>
<path fill="#7B7500" opacity="1.000000" stroke="none" 
	d="
M67.956184,56.438400 
	C68.062088,56.045212 68.251717,56.025322 68.727325,56.001175 
	C70.660912,57.069530 72.308502,58.142151 74.563789,59.610397 
	C74.563789,55.764164 74.563789,52.586876 74.563789,49.227303 
	C76.820427,50.684811 79.016792,51.910629 80.935364,53.476753 
	C81.420898,53.873089 81.259834,55.436668 80.959373,56.314472 
	C80.663246,57.179619 79.813622,57.855312 79.206841,58.614132 
	C80.796280,58.614132 82.385727,58.614132 84.847641,58.614132 
	C83.492859,59.475101 82.182701,61.010689 81.150223,60.842419 
	C76.628838,60.105568 70.572166,63.950993 67.956184,56.438400 
z"/>
<path fill="#3E3B00" opacity="1.000000" stroke="none" 
	d="
M53.139950,59.390549 
	C60.260830,58.567303 55.761951,53.318222 56.716187,49.958214 
	C60.107544,50.517895 60.864479,52.991699 60.383976,55.708206 
	C59.635494,59.939693 56.489822,60.995399 52.616493,60.314499 
	C52.944374,59.944462 53.119465,59.730858 53.139950,59.390549 
z"/>
<path fill="#E7DC00" opacity="1.000000" stroke="none" 
	d="
M48.982090,50.381409 
	C50.538052,50.318130 51.819889,50.318130 53.054977,50.318130 
	C51.986092,52.954597 50.942848,55.527821 49.473618,59.151764 
	C47.759285,56.336433 46.659771,55.034847 46.125072,53.532269 
	C45.359673,51.381413 44.950241,49.035408 48.982090,50.381409 
z"/>
<path fill="#252400" opacity="1.000000" stroke="none" 
	d="
M39.141438,57.597092 
	C38.187382,57.837669 36.658943,57.951225 36.436157,57.465694 
	C34.887550,54.090641 36.075558,51.635376 39.533318,49.765728 
	C39.399181,52.517513 39.285233,54.855171 39.141438,57.597092 
z"/>
<path fill="#E7DC00" opacity="1.000000" stroke="none" 
	d="
M53.016441,59.100418 
	C53.119465,59.730858 52.944374,59.944462 52.395069,60.049313 
	C51.906216,59.599903 51.636963,59.132549 51.367714,58.665195 
	C51.876122,58.713562 52.384525,58.761925 53.016441,59.100418 
z"/>
</svg>