<svg version="1.1" id="Layer_1" xmlns="http://www.w3.org/2000/svg" xmlns:xlink="http://www.w3.org/1999/xlink" x="0px" y="0px"
	 width="100%" viewBox="1 1 1002 176" enable-background="new 0 0 1002 176" xml:space="preserve">
<path fill="#FFFEFE" opacity="1.000000" stroke="none" 
	d="
M744.000000,177.000000 
	C496.000000,177.000000 248.500000,177.000000 1.000000,177.000000 
	C1.000000,118.333336 1.000000,59.666668 1.000000,1.000000 
	C335.000000,1.000000 669.000000,1.000000 1003.000000,1.000000 
	C1003.000000,59.666668 1003.000000,118.333336 1003.000000,177.000000 
	C916.833313,177.000000 830.666687,177.000000 744.000000,177.000000 
M267.567200,42.856136 
	C265.468781,42.856136 263.370361,42.856136 261.330444,42.856136 
	C261.330444,78.017479 261.330444,112.529930 261.330444,146.992065 
	C265.655640,146.992065 269.587982,146.992065 273.929443,146.992065 
	C273.929443,131.606857 273.929443,116.492264 273.929443,101.377663 
	C273.929443,86.283546 273.929443,71.189438 273.929443,55.785252 
	C288.330261,55.785252 302.125244,55.935654 315.913208,55.690800 
	C319.891205,55.620155 322.897186,56.457954 325.470459,59.596428 
	C328.185333,62.907578 331.299225,65.891571 334.128998,68.901718 
	C337.651733,65.546356 340.597870,62.740196 344.089722,59.414223 
	C339.599457,55.159100 335.279297,51.256447 331.189301,47.125908 
	C328.184540,44.091377 324.801453,42.766708 320.503540,42.800247 
	C303.188324,42.935360 285.871490,42.856163 267.567200,42.856136 
M739.021423,107.503067 
	C738.981689,103.339188 739.178406,99.157104 738.859558,95.014709 
	C737.728943,80.327538 727.385925,72.015274 712.895691,74.511124 
	C708.574402,75.255440 704.404236,77.253357 700.361633,79.106270 
	C697.735046,80.310143 695.464539,82.290817 692.193970,84.488136 
	C692.193970,69.484322 692.193970,55.313000 692.193970,41.117218 
	C682.287109,41.804478 682.286987,41.804478 682.286987,50.743252 
	C682.286926,80.896355 682.286987,111.049454 682.286987,141.202560 
	C682.286987,142.997665 682.286987,144.792770 682.286987,146.836182 
	C685.814758,146.836182 688.889221,146.836182 692.333313,146.836182 
	C692.333313,131.826782 692.971558,116.982048 692.086914,102.228622 
	C691.580078,93.776230 695.283691,89.570992 702.027039,86.573380 
	C704.292236,85.566437 706.626587,84.552002 709.035400,84.058754 
	C721.684204,81.468605 728.716248,86.954781 729.120911,99.805679 
	C729.341003,106.795685 729.167480,113.798134 729.168823,120.794975 
	C729.170410,129.411316 729.169189,138.027664 729.169189,146.760605 
	C732.737427,146.760605 735.776123,146.760605 739.021423,146.760605 
	C739.021423,133.789017 739.021423,121.145493 739.021423,107.503067 
M817.881714,96.432693 
	C813.049500,110.705902 813.780823,124.473335 822.966736,136.777359 
	C834.430115,152.131927 855.733032,151.689636 870.192017,144.273407 
	C871.118591,143.798141 871.853699,141.928680 871.785400,140.759949 
	C871.665527,138.707809 870.854248,136.696060 870.321777,134.625320 
	C843.363098,145.547470 823.597229,135.600479 825.705322,112.219147 
	C826.959778,112.137505 828.257446,111.987167 829.556091,111.978767 
	C842.042725,111.898018 854.535950,111.586449 867.013062,111.902977 
	C871.997559,112.029427 874.516113,110.774269 874.379944,105.545563 
	C874.323914,103.393066 874.798584,101.224396 874.715454,99.075333 
	C874.123108,83.761192 864.027527,73.960640 848.696533,74.135956 
	C833.674927,74.307724 823.783142,82.084190 817.881714,96.432693 
M528.239258,144.812500 
	C548.746521,133.303467 550.621033,102.911911 538.408020,86.804321 
	C524.698181,68.722633 495.996918,69.917847 483.119476,89.000954 
	C473.716278,102.935646 474.666077,125.186264 485.199432,137.726242 
	C495.126434,149.544373 511.807770,152.462753 528.239258,144.812500 
M439.165436,99.499954 
	C439.165436,115.264908 439.165436,131.029861 439.165436,146.837158 
	C442.867126,146.837158 445.963562,146.837158 449.472351,146.837158 
	C449.472351,117.839813 449.472351,89.093163 449.472351,59.839417 
	C460.949402,59.839417 472.021912,59.839417 483.344238,59.839417 
	C483.344238,56.426762 483.344238,53.526142 483.344238,50.484177 
	C457.184845,50.484177 431.315796,50.484177 405.476562,50.484177 
	C405.476562,53.723999 405.476562,56.621166 405.476562,60.032475 
	C416.881104,60.032475 427.937103,60.032475 439.165436,60.032475 
	C439.165436,73.206886 439.165436,85.853416 439.165436,99.499954 
M777.547180,99.499741 
	C777.547180,115.270386 777.547180,131.041031 777.547180,146.827148 
	C781.266113,146.827148 784.366577,146.827148 788.056458,146.827148 
	C788.056458,117.701126 788.056458,88.827461 788.056458,59.530071 
	C799.575867,59.530071 810.499390,59.530071 821.350220,59.530071 
	C821.350220,56.191792 821.350220,53.296902 821.350220,50.386971 
	C795.341370,50.386971 769.735046,50.386971 743.875122,50.386971 
	C743.875122,53.539978 743.875122,56.456291 743.875122,59.945595 
	C755.210266,59.945595 766.278870,59.945595 777.547302,59.945595 
	C777.547302,73.178680 777.547302,85.839203 777.547180,99.499741 
M92.266182,146.971588 
	C106.368698,139.922089 120.476021,132.882172 134.569260,125.814163 
	C137.095169,124.547379 139.143188,123.240540 139.088959,119.643188 
	C138.870605,105.160362 139.095383,90.670738 138.861893,76.188385 
	C138.836029,74.584076 137.296234,72.292793 135.830063,71.533089 
	C121.120056,63.910992 106.301857,56.495258 91.433342,49.185738 
	C90.122368,48.541245 87.960533,48.488213 86.666267,49.123241 
	C71.791512,56.421463 56.963799,63.820717 42.265961,71.466797 
	C40.713657,72.274323 39.173553,74.808662 39.142681,76.568451 
	C38.891529,90.883659 38.871239,105.207809 39.157616,119.521706 
	C39.195660,121.423347 40.901505,124.142426 42.595188,125.026459 
	C57.000946,132.545715 71.553665,139.787262 86.157127,146.917938 
	C87.606941,147.625870 89.688293,147.040390 92.266182,146.971588 
M940.924011,143.594025 
	C934.215454,133.461655 927.583252,123.277161 920.737000,113.238640 
	C919.277893,111.099030 919.226440,109.717171 920.700134,107.558411 
	C926.705627,98.761368 932.488525,89.812096 938.325439,80.900581 
	C939.246521,79.494293 940.023132,77.993408 940.821594,76.613922 
	C932.816101,74.101776 928.631042,77.627373 925.283142,83.942719 
	C921.833130,90.450523 917.531860,96.507011 913.226868,103.359726 
	C908.494446,95.978264 904.247620,89.250710 899.894958,82.592331 
	C894.897644,74.947739 894.763367,74.935440 885.064636,76.721642 
	C889.932983,84.069183 894.638977,91.286087 899.461304,98.424347 
	C907.787781,110.749619 907.766907,110.693909 899.438904,122.829132 
	C894.113831,130.588715 888.967834,138.471207 883.575134,146.547913 
	C890.413513,147.979019 895.245300,147.424652 898.708008,140.613815 
	C902.740051,132.682846 908.202393,125.478996 913.257690,117.627831 
	C918.533142,125.809540 923.469482,133.503693 928.445923,141.171783 
	C932.888611,148.017456 934.006226,148.409225 942.682434,146.300430 
	C942.207947,145.570038 941.769470,144.895203 940.924011,143.594025 
M634.612732,138.296402 
	C620.533508,132.178375 614.394897,113.896553 621.137146,98.163765 
	C627.688904,82.875244 641.654114,79.630424 663.352234,88.710526 
	C664.144287,85.867722 664.917847,83.091324 665.774109,80.018135 
	C652.399353,72.924629 639.054810,71.202019 625.934082,78.750374 
	C609.634277,88.127617 603.654236,111.583900 612.127625,130.076843 
	C619.601990,146.389450 638.155090,153.327789 657.206726,146.935165 
	C665.976196,143.992630 666.054932,143.846939 663.556396,135.061157 
	C663.518127,134.926636 663.349060,134.829330 662.993896,134.452332 
	C654.361511,138.991333 645.260376,141.673340 634.612732,138.296402 
M957.392212,85.016869 
	C958.822083,85.163872 960.251892,85.310875 961.723938,85.462212 
	C961.723938,88.086075 961.756714,90.241997 961.718567,92.396660 
	C961.479797,105.865761 960.911499,119.339012 961.101440,132.801727 
	C961.204285,140.090378 964.550537,146.047470 972.139221,148.362671 
	C980.339600,150.864471 988.108582,149.356934 995.811584,145.584900 
	C995.206055,142.690430 994.678284,140.167679 994.144775,137.617584 
	C990.109375,138.583527 986.624695,139.689957 983.054565,140.216827 
	C975.048889,141.398239 970.431885,138.169586 970.380615,130.207901 
	C970.284302,115.266533 970.996216,100.319954 971.383301,84.923965 
	C979.351074,84.923965 986.936279,84.923965 994.788330,84.923965 
	C994.788330,81.902939 994.788330,79.347862 994.788330,76.327667 
	C987.090454,76.327667 979.677612,76.327667 971.791565,76.327667 
	C971.791565,70.652687 971.791565,65.427834 971.791565,60.255096 
	C968.550354,60.255096 965.812622,60.255096 962.882202,60.255096 
	C962.552795,65.669617 962.242249,70.774094 961.933411,75.850044 
	C958.392273,76.742973 955.181580,77.552567 951.739868,78.420403 
	C951.541138,80.405525 951.349792,82.316261 951.125000,84.561295 
	C953.265686,84.739563 954.887085,84.874580 957.392212,85.016869 
M566.403259,147.092758 
	C567.806580,146.975632 569.209839,146.858490 570.475098,146.752884 
	C570.626770,145.895569 570.733032,145.574234 570.733398,145.252762 
	C570.749512,132.262451 570.748230,119.272110 570.765747,106.281792 
	C570.787720,90.033432 585.642334,79.949196 600.566101,86.024094 
	C600.811157,86.123863 601.176208,85.929092 601.775635,85.817924 
	C602.507690,83.104309 603.268494,80.284195 604.081604,77.269966 
	C589.982056,70.754303 579.352905,74.543633 570.601318,88.357613 
	C570.601318,82.544785 570.601318,78.611671 570.601318,74.676903 
	C560.884644,75.067436 560.884644,75.067436 560.884644,84.055237 
	C560.884644,103.207924 560.884644,122.360619 560.884644,141.513306 
	C560.884644,143.274200 560.884644,145.035080 560.884644,147.092667 
	C562.834351,147.092667 564.145813,147.092667 566.403259,147.092758 
M316.500031,125.164986 
	C307.282379,125.164986 298.064697,125.164986 288.762451,125.164986 
	C288.762451,129.821381 288.762451,133.752045 288.762451,137.898376 
	C307.193726,137.898376 325.368805,137.898376 343.687622,137.898376 
	C343.687622,133.575943 343.687622,129.548141 343.687622,125.164993 
	C334.724243,125.164993 326.112152,125.164993 316.500031,125.164986 
M288.497986,79.854195 
	C288.497986,82.635078 288.497986,85.415962 288.497986,88.348526 
	C299.971954,88.348526 310.857880,88.348526 321.647400,88.348526 
	C321.647400,83.971245 321.647400,79.914955 321.647400,75.585876 
	C311.320618,75.585876 301.348267,75.490898 291.384125,75.734009 
	C290.396790,75.758095 289.459808,77.847244 288.497986,79.854195 
M288.589081,112.021950 
	C297.244995,112.567680 305.900909,113.113411 314.508087,113.656075 
	C314.508087,108.497139 314.508087,104.613373 314.508087,100.574127 
	C305.801239,100.574127 297.432037,100.574127 288.511597,100.574127 
	C288.511597,104.238441 288.511597,107.673347 288.589081,112.021950 
M321.882202,108.769455 
	C323.248810,112.582451 325.947937,114.472084 329.916748,113.474586 
	C333.602234,112.548294 335.469360,109.783890 334.913330,105.983147 
	C334.356323,102.176033 331.676666,99.962700 327.975739,100.247490 
	C323.539398,100.588867 321.281097,103.430092 321.882202,108.769455 
z"/>
<path fill="#F60606" opacity="1.000000" stroke="none" 
	d="
M268.061218,42.856133 
	C285.871490,42.856163 303.188324,42.935360 320.503540,42.800247 
	C324.801453,42.766708 328.184540,44.091377 331.189301,47.125908 
	C335.279297,51.256447 339.599457,55.159100 344.089722,59.414223 
	C340.597870,62.740196 337.651733,65.546356 334.128998,68.901718 
	C331.299225,65.891571 328.185333,62.907578 325.470459,59.596428 
	C322.897186,56.457954 319.891205,55.620155 315.913208,55.690800 
	C302.125244,55.935654 288.330261,55.785252 273.929443,55.785252 
	C273.929443,71.189438 273.929443,86.283546 273.929443,101.377663 
	C273.929443,116.492264 273.929443,131.606857 273.929443,146.992065 
	C269.587982,146.992065 265.655640,146.992065 261.330444,146.992065 
	C261.330444,112.529930 261.330444,78.017479 261.330444,42.856136 
	C263.370361,42.856136 265.468781,42.856136 268.061218,42.856133 
z"/>
<path fill="#2F2F2F" opacity="1.000000" stroke="none" 
	d="
M739.021423,108.002518 
	C739.021423,121.145493 739.021423,133.789017 739.021423,146.760605 
	C735.776123,146.760605 732.737427,146.760605 729.169189,146.760605 
	C729.169189,138.027664 729.170410,129.411316 729.168823,120.794975 
	C729.167480,113.798134 729.341003,106.795685 729.120911,99.805679 
	C728.716248,86.954781 721.684204,81.468605 709.035400,84.058754 
	C706.626587,84.552002 704.292236,85.566437 702.027039,86.573380 
	C695.283691,89.570992 691.580078,93.776230 692.086914,102.228622 
	C692.971558,116.982048 692.333313,131.826782 692.333313,146.836182 
	C688.889221,146.836182 685.814758,146.836182 682.286987,146.836182 
	C682.286987,144.792770 682.286987,142.997665 682.286987,141.202560 
	C682.286987,111.049454 682.286926,80.896355 682.286987,50.743252 
	C682.286987,41.804478 682.287109,41.804478 692.193970,41.117218 
	C692.193970,55.313000 692.193970,69.484322 692.193970,84.488136 
	C695.464539,82.290817 697.735046,80.310143 700.361633,79.106270 
	C704.404236,77.253357 708.574402,75.255440 712.895691,74.511124 
	C727.385925,72.015274 737.728943,80.327538 738.859558,95.014709 
	C739.178406,99.157104 738.981689,103.339188 739.021423,108.002518 
z"/>
<path fill="#F60A0A" opacity="1.000000" stroke="none" 
	d="
M817.993408,96.058220 
	C823.783142,82.084190 833.674927,74.307724 848.696533,74.135956 
	C864.027527,73.960640 874.123108,83.761192 874.715454,99.075333 
	C874.798584,101.224396 874.323914,103.393066 874.379944,105.545563 
	C874.516113,110.774269 871.997559,112.029427 867.013062,111.902977 
	C854.535950,111.586449 842.042725,111.898018 829.556091,111.978767 
	C828.257446,111.987167 826.959778,112.137505 825.705322,112.219147 
	C823.597229,135.600479 843.363098,145.547470 870.321777,134.625320 
	C870.854248,136.696060 871.665527,138.707809 871.785400,140.759949 
	C871.853699,141.928680 871.118591,143.798141 870.192017,144.273407 
	C855.733032,151.689636 834.430115,152.131927 822.966736,136.777359 
	C813.780823,124.473335 813.049500,110.705902 817.993408,96.058220 
M830.734558,104.178886 
	C841.978577,104.178886 853.222534,104.178886 864.334412,104.178886 
	C866.179138,92.796646 860.238953,84.071770 850.627625,83.123131 
	C837.882019,81.865143 827.005737,91.122597 826.383118,103.932976 
	C827.520447,104.014664 828.662109,104.096657 830.734558,104.178886 
z"/>
<path fill="#2E2E2E" opacity="1.000000" stroke="none" 
	d="
M527.903931,144.975571 
	C511.807770,152.462753 495.126434,149.544373 485.199432,137.726242 
	C474.666077,125.186264 473.716278,102.935646 483.119476,89.000954 
	C495.996918,69.917847 524.698181,68.722633 538.408020,86.804321 
	C550.621033,102.911911 548.746521,133.303467 527.903931,144.975571 
M508.840149,83.089111 
	C497.006744,84.919434 489.445496,92.225357 487.144867,104.051758 
	C484.457184,117.867935 489.418091,131.517426 499.197876,137.077652 
	C500.490845,137.812775 501.880798,138.427246 503.292847,138.895355 
	C518.433655,143.914444 532.376831,135.419205 535.379822,118.839951 
	C539.425720,96.502708 526.306763,81.706116 508.840149,83.089111 
z"/>
<path fill="#303030" opacity="1.000000" stroke="none" 
	d="
M439.165436,98.999954 
	C439.165436,85.853416 439.165436,73.206886 439.165436,60.032475 
	C427.937103,60.032475 416.881104,60.032475 405.476562,60.032475 
	C405.476562,56.621166 405.476562,53.723999 405.476562,50.484177 
	C431.315796,50.484177 457.184845,50.484177 483.344238,50.484177 
	C483.344238,53.526142 483.344238,56.426762 483.344238,59.839417 
	C472.021912,59.839417 460.949402,59.839417 449.472351,59.839417 
	C449.472351,89.093163 449.472351,117.839813 449.472351,146.837158 
	C445.963562,146.837158 442.867126,146.837158 439.165436,146.837158 
	C439.165436,131.029861 439.165436,115.264908 439.165436,98.999954 
z"/>
<path fill="#F60909" opacity="1.000000" stroke="none" 
	d="
M777.547241,98.999733 
	C777.547302,85.839203 777.547302,73.178680 777.547302,59.945595 
	C766.278870,59.945595 755.210266,59.945595 743.875122,59.945595 
	C743.875122,56.456291 743.875122,53.539978 743.875122,50.386971 
	C769.735046,50.386971 795.341370,50.386971 821.350220,50.386971 
	C821.350220,53.296902 821.350220,56.191792 821.350220,59.530071 
	C810.499390,59.530071 799.575867,59.530071 788.056458,59.530071 
	C788.056458,88.827461 788.056458,117.701126 788.056458,146.827148 
	C784.366577,146.827148 781.266113,146.827148 777.547180,146.827148 
	C777.547180,131.041031 777.547180,115.270386 777.547241,98.999733 
z"/>
<path fill="#000000" opacity="1.000000" stroke="none" 
	d="
M91.871353,147.013397 
	C89.688293,147.040390 87.606941,147.625870 86.157127,146.917938 
	C71.553665,139.787262 57.000946,132.545715 42.595188,125.026459 
	C40.901505,124.142426 39.195660,121.423347 39.157616,119.521706 
	C38.871239,105.207809 38.891529,90.883659 39.142681,76.568451 
	C39.173553,74.808662 40.713657,72.274323 42.265961,71.466797 
	C56.963799,63.820717 71.791512,56.421463 86.666267,49.123241 
	C87.960533,48.488213 90.122368,48.541245 91.433342,49.185738 
	C106.301857,56.495258 121.120056,63.910992 135.830063,71.533089 
	C137.296234,72.292793 138.836029,74.584076 138.861893,76.188385 
	C139.095383,90.670738 138.870605,105.160362 139.088959,119.643188 
	C139.143188,123.240540 137.095169,124.547379 134.569260,125.814163 
	C120.476021,132.882172 106.368698,139.922089 91.871353,147.013397 
M100.379578,59.046337 
	C97.610252,57.700130 94.935326,56.066746 92.036697,55.113880 
	C90.257004,54.528839 87.809906,54.312004 86.217712,55.080353 
	C72.933212,61.491135 59.754169,68.123253 46.624088,74.846352 
	C45.456070,75.444412 44.125076,77.149971 44.110138,78.356529 
	C43.935230,92.481377 43.997990,106.609169 43.997990,120.485992 
	C58.310204,127.659431 72.208183,134.680038 86.183960,141.542221 
	C87.527756,142.202042 89.666344,142.516388 90.910637,141.911118 
	C105.315231,134.904404 119.618530,127.689476 134.003098,120.502617 
	C134.003098,106.681427 134.123840,93.019547 133.853394,79.365417 
	C133.818802,77.618217 132.148163,75.152199 130.553665,74.310043 
	C120.812080,69.164940 110.873627,64.392578 100.379578,59.046337 
z"/>
<path fill="#F60A0A" opacity="1.000000" stroke="none" 
	d="
M941.127563,143.907196 
	C941.769470,144.895203 942.207947,145.570038 942.682434,146.300430 
	C934.006226,148.409225 932.888611,148.017456 928.445923,141.171783 
	C923.469482,133.503693 918.533142,125.809540 913.257690,117.627831 
	C908.202393,125.478996 902.740051,132.682846 898.708008,140.613815 
	C895.245300,147.424652 890.413513,147.979019 883.575134,146.547913 
	C888.967834,138.471207 894.113831,130.588715 899.438904,122.829132 
	C907.766907,110.693909 907.787781,110.749619 899.461304,98.424347 
	C894.638977,91.286087 889.932983,84.069183 885.064636,76.721642 
	C894.763367,74.935440 894.897644,74.947739 899.894958,82.592331 
	C904.247620,89.250710 908.494446,95.978264 913.226868,103.359726 
	C917.531860,96.507011 921.833130,90.450523 925.283142,83.942719 
	C928.631042,77.627373 932.816101,74.101776 940.821594,76.613922 
	C940.023132,77.993408 939.246521,79.494293 938.325439,80.900581 
	C932.488525,89.812096 926.705627,98.761368 920.700134,107.558411 
	C919.226440,109.717171 919.277893,111.099030 920.737000,113.238640 
	C927.583252,123.277161 934.215454,133.461655 941.127563,143.907196 
z"/>
<path fill="#2E2E2E" opacity="1.000000" stroke="none" 
	d="
M634.985352,138.443146 
	C645.260376,141.673340 654.361511,138.991333 662.993896,134.452332 
	C663.349060,134.829330 663.518127,134.926636 663.556396,135.061157 
	C666.054932,143.846939 665.976196,143.992630 657.206726,146.935165 
	C638.155090,153.327789 619.601990,146.389450 612.127625,130.076843 
	C603.654236,111.583900 609.634277,88.127617 625.934082,78.750374 
	C639.054810,71.202019 652.399353,72.924629 665.774109,80.018135 
	C664.917847,83.091324 664.144287,85.867722 663.352234,88.710526 
	C641.654114,79.630424 627.688904,82.875244 621.137146,98.163765 
	C614.394897,113.896553 620.533508,132.178375 634.985352,138.443146 
z"/>
<path fill="#F60A0A" opacity="1.000000" stroke="none" 
	d="
M956.950378,85.013237 
	C954.887085,84.874580 953.265686,84.739563 951.125000,84.561295 
	C951.349792,82.316261 951.541138,80.405525 951.739868,78.420403 
	C955.181580,77.552567 958.392273,76.742973 961.933411,75.850044 
	C962.242249,70.774094 962.552795,65.669617 962.882202,60.255096 
	C965.812622,60.255096 968.550354,60.255096 971.791565,60.255096 
	C971.791565,65.427834 971.791565,70.652687 971.791565,76.327667 
	C979.677612,76.327667 987.090454,76.327667 994.788330,76.327667 
	C994.788330,79.347862 994.788330,81.902939 994.788330,84.923965 
	C986.936279,84.923965 979.351074,84.923965 971.383301,84.923965 
	C970.996216,100.319954 970.284302,115.266533 970.380615,130.207901 
	C970.431885,138.169586 975.048889,141.398239 983.054565,140.216827 
	C986.624695,139.689957 990.109375,138.583527 994.144775,137.617584 
	C994.678284,140.167679 995.206055,142.690430 995.811584,145.584900 
	C988.108582,149.356934 980.339600,150.864471 972.139221,148.362671 
	C964.550537,146.047470 961.204285,140.090378 961.101440,132.801727 
	C960.911499,119.339012 961.479797,105.865761 961.718567,92.396660 
	C961.756714,90.241997 961.723938,88.086075 961.723938,85.462212 
	C960.251892,85.310875 958.822083,85.163872 956.950378,85.013237 
z"/>
<path fill="#303030" opacity="1.000000" stroke="none" 
	d="
M565.930298,147.092712 
	C564.145813,147.092667 562.834351,147.092667 560.884644,147.092667 
	C560.884644,145.035080 560.884644,143.274200 560.884644,141.513306 
	C560.884644,122.360619 560.884644,103.207924 560.884644,84.055237 
	C560.884644,75.067436 560.884644,75.067436 570.601318,74.676903 
	C570.601318,78.611671 570.601318,82.544785 570.601318,88.357613 
	C579.352905,74.543633 589.982056,70.754303 604.081604,77.269966 
	C603.268494,80.284195 602.507690,83.104309 601.775635,85.817924 
	C601.176208,85.929092 600.811157,86.123863 600.566101,86.024094 
	C585.642334,79.949196 570.787720,90.033432 570.765747,106.281792 
	C570.748230,119.272110 570.749512,132.262451 570.733398,145.252762 
	C570.733032,145.574234 570.626770,145.895569 570.475098,146.752884 
	C569.209839,146.858490 567.806580,146.975632 565.930298,147.092712 
z"/>
<path fill="#F60808" opacity="1.000000" stroke="none" 
	d="
M317.000061,125.164993 
	C326.112152,125.164993 334.724243,125.164993 343.687622,125.164993 
	C343.687622,129.548141 343.687622,133.575943 343.687622,137.898376 
	C325.368805,137.898376 307.193726,137.898376 288.762451,137.898376 
	C288.762451,133.752045 288.762451,129.821381 288.762451,125.164986 
	C298.064697,125.164986 307.282379,125.164986 317.000061,125.164993 
z"/>
<path fill="#F60A0A" opacity="1.000000" stroke="none" 
	d="
M288.498718,79.416061 
	C289.459808,77.847244 290.396790,75.758095 291.384125,75.734009 
	C301.348267,75.490898 311.320618,75.585876 321.647400,75.585876 
	C321.647400,79.914955 321.647400,83.971245 321.647400,88.348526 
	C310.857880,88.348526 299.971954,88.348526 288.497986,88.348526 
	C288.497986,85.415962 288.497986,82.635078 288.498718,79.416061 
z"/>
<path fill="#F60A0A" opacity="1.000000" stroke="none" 
	d="
M288.550354,111.565109 
	C288.511597,107.673347 288.511597,104.238441 288.511597,100.574127 
	C297.432037,100.574127 305.801239,100.574127 314.508087,100.574127 
	C314.508087,104.613373 314.508087,108.497139 314.508087,113.656075 
	C305.900909,113.113411 297.244995,112.567680 288.550354,111.565109 
z"/>
<path fill="#F60C0C" opacity="1.000000" stroke="none" 
	d="
M321.796051,108.413116 
	C321.281097,103.430092 323.539398,100.588867 327.975739,100.247490 
	C331.676666,99.962700 334.356323,102.176033 334.913330,105.983147 
	C335.469360,109.783890 333.602234,112.548294 329.916748,113.474586 
	C325.947937,114.472084 323.248810,112.582451 321.796051,108.413116 
z"/>
<path fill="#FFF9F9" opacity="1.000000" stroke="none" 
	d="
M830.269165,104.178772 
	C828.662109,104.096657 827.520447,104.014664 826.383118,103.932976 
	C827.005737,91.122597 837.882019,81.865143 850.627625,83.123131 
	C860.238953,84.071770 866.179138,92.796646 864.334412,104.178886 
	C853.222534,104.178886 841.978577,104.178886 830.269165,104.178772 
z"/>
<path fill="#FCFCFC" opacity="1.000000" stroke="none" 
	d="
M509.276978,83.083611 
	C526.306763,81.706116 539.425720,96.502708 535.379822,118.839951 
	C532.376831,135.419205 518.433655,143.914444 503.292847,138.895355 
	C501.880798,138.427246 500.490845,137.812775 499.197876,137.077652 
	C489.418091,131.517426 484.457184,117.867935 487.144867,104.051758 
	C489.445496,92.225357 497.006744,84.919434 509.276978,83.083611 
z"/>
<path fill="#FDF000" opacity="1.000000" stroke="none" 
	d="
M100.690186,59.271149 
	C110.873627,64.392578 120.812080,69.164940 130.553665,74.310043 
	C132.148163,75.152199 133.818802,77.618217 133.853394,79.365417 
	C134.123840,93.019547 134.003098,106.681427 134.003098,120.502617 
	C119.618530,127.689476 105.315231,134.904404 90.910637,141.911118 
	C89.666344,142.516388 87.527756,142.202042 86.183960,141.542221 
	C72.208183,134.680038 58.310204,127.659431 43.997990,120.485992 
	C43.997990,106.609169 43.935230,92.481377 44.110138,78.356529 
	C44.125076,77.149971 45.456070,75.444412 46.624088,74.846352 
	C59.754169,68.123253 72.933212,61.491135 86.217712,55.080353 
	C87.809906,54.312004 90.257004,54.528839 92.036697,55.113880 
	C94.935326,56.066746 97.610252,57.700130 100.690186,59.271149 
M82.774139,93.968536 
	C82.959076,93.754341 83.144012,93.540146 83.328949,93.325958 
	C82.877998,93.220695 82.427048,93.115440 81.234711,92.978264 
	C78.055717,94.379494 77.393501,96.940613 78.571106,99.849091 
	C79.537842,102.236771 80.901619,104.663116 85.119362,103.785103 
	C89.896004,102.989502 91.937187,100.309555 90.923080,96.115623 
	C90.172348,93.010933 88.492104,92.016243 86.706169,93.168785 
	C85.833046,97.068100 85.156593,100.089058 83.939186,102.683044 
	C80.325653,100.379845 81.461845,97.176392 82.774139,93.968536 
M99.240936,98.310234 
	C100.031654,96.855583 100.822372,95.400932 101.613091,93.946289 
	C98.706734,93.064873 95.800377,92.183456 92.367554,91.142380 
	C92.367554,96.135826 92.367554,99.859390 92.367554,103.738350 
	C93.826118,103.738350 95.123924,103.738350 95.530281,103.738350 
	C96.458397,101.886848 97.161644,100.483948 98.013603,99.833572 
	C100.586411,106.994438 106.670891,103.119583 111.221786,103.855225 
	C112.253639,104.022011 113.570930,102.423012 114.756836,101.636795 
	C114.542046,101.324966 114.327255,101.013138 114.112473,100.701317 
	C112.570107,101.228745 111.027740,101.756172 109.685745,102.215088 
	C109.685745,98.813850 109.685745,96.050018 109.685745,93.033028 
	C110.945007,93.588783 112.183472,94.135361 113.421936,94.681938 
	C111.371780,90.372765 107.766449,92.532257 104.585007,91.964302 
	C104.585007,95.498138 104.585007,98.682854 104.585007,102.553070 
	C102.347786,101.115982 100.694313,100.053864 99.240936,98.310234 
z"/>
<path fill="#817B00" opacity="1.000000" stroke="none" 
	d="
M99.040833,98.991753 
	C100.694313,100.053864 102.347786,101.115982 104.585007,102.553070 
	C104.585007,98.682854 104.585007,95.498138 104.585007,91.964302 
	C107.766449,92.532257 111.371780,90.372765 113.421936,94.681938 
	C112.183472,94.135361 110.945007,93.588783 109.685745,93.033028 
	C109.685745,96.050018 109.685745,98.813850 109.685745,102.215088 
	C111.027740,101.756172 112.570107,101.228745 114.112473,100.701317 
	C114.327255,101.013138 114.542046,101.324966 114.756836,101.636795 
	C113.570930,102.423012 112.253639,104.022011 111.221786,103.855225 
	C106.670891,103.119583 100.586411,106.994438 98.232254,99.421036 
	C98.647552,99.002914 98.844193,98.997330 99.040833,98.991753 
z"/>
<path fill="#656000" opacity="1.000000" stroke="none" 
	d="
M99.140884,98.650993 
	C98.844193,98.997330 98.647552,99.002914 98.157898,99.044777 
	C97.161644,100.483948 96.458397,101.886848 95.530281,103.738350 
	C95.123924,103.738350 93.826118,103.738350 92.367554,103.738350 
	C92.367554,99.859390 92.367554,96.135826 92.367554,91.142380 
	C95.800377,92.183456 98.706734,93.064873 101.613083,93.946289 
	C100.822372,95.400932 100.031654,96.855583 99.140884,98.650993 
z"/>
<path fill="#EBDF00" opacity="1.000000" stroke="none" 
	d="
M84.480148,103.110016 
	C85.156593,100.089058 85.833046,97.068100 86.706169,93.168785 
	C88.492104,92.016243 90.172348,93.010933 90.923080,96.115623 
	C91.937187,100.309555 89.896004,102.989502 84.754410,103.548874 
	C84.389458,103.312653 84.480156,103.110016 84.480148,103.110016 
z"/>
<path fill="#3D3A00" opacity="1.000000" stroke="none" 
	d="
M84.209671,102.896530 
	C84.480156,103.110016 84.389458,103.312653 84.353577,103.416992 
	C80.901619,104.663116 79.537842,102.236771 78.571106,99.849091 
	C77.393501,96.940613 78.055717,94.379494 81.687820,93.248550 
	C82.193634,93.689095 82.246338,93.859352 82.299042,94.029610 
	C81.461845,97.176392 80.325653,100.379845 84.209671,102.896530 
z"/>
<path fill="#EBDF00" opacity="1.000000" stroke="none" 
	d="
M82.536591,93.999069 
	C82.246338,93.859352 82.193634,93.689095 82.058517,93.264511 
	C82.427048,93.115440 82.877998,93.220695 83.328949,93.325951 
	C83.144012,93.540146 82.959076,93.754341 82.536591,93.999069 
z"/>
</svg>