<svg version="1.1" id="Layer_1" xmlns="http://www.w3.org/2000/svg" xmlns:xlink="http://www.w3.org/1999/xlink" x="0px" y="0px"
	 width="100%" viewBox="51.5 31 141.5 24" enable-background="new 0 0 262 84" xml:space="preserve">
<path fill="none" opacity="1.000000" stroke="#000000" stroke-linecap="round" stroke-linejoin="round" stroke-width="4.000000"
	d="
M69.500000,47.500000 
	C70.391960,52.702061 73.207626,55.165775 77.500000,54.500004 
	C81.629692,53.859467 84.428162,49.476959 83.488411,45.002434 
	C82.784721,41.651852 79.630623,38.867287 75.498093,39.487270 
	C71.143593,40.140560 70.007980,43.495804 69.000000,47.000000 
"/>
<path fill="none" opacity="1.000000" stroke="#000000" stroke-linecap="round" stroke-linejoin="round" stroke-width="4.000000"
	d="
M145.000000,43.000000 
	C148.107254,44.052204 150.946350,43.779205 153.515152,41.517208 
	C155.212875,40.022263 156.644699,38.148060 155.881821,36.042828 
	C155.054977,33.761093 153.316757,31.901291 150.504044,31.473417 
	C144.765900,30.600527 143.500000,31.631525 143.500000,37.500000 
	C143.500000,43.166668 143.500000,48.833332 143.500000,54.500000 
"/>
<path fill="none" opacity="1.000000" stroke="#000000" stroke-linecap="round" stroke-linejoin="round" stroke-width="4.000000"
	d="
M115.000000,41.500000 
	C111.572021,38.644085 109.194626,38.776165 106.000000,41.999996 
	C103.479866,44.543159 103.215721,50.090343 105.500000,52.500004 
	C108.052353,55.192455 111.768219,55.192455 115.000000,52.500000 
"/>
<path fill="none" opacity="1.000000" stroke="#000000" stroke-linecap="round" stroke-linejoin="round" stroke-width="5.000000"
	d="
M134.000000,54.000000 
	C134.000000,51.666668 133.923370,49.330166 134.019577,47.000809 
	C134.137329,44.149830 133.746613,41.499191 130.983215,40.031597 
	C128.293991,38.603397 126.325172,40.167000 124.476982,41.976486 
	C124.138367,42.308002 123.500000,42.333336 123.000000,42.500004 
"/>
<path fill="none" opacity="1.000000" stroke="#000000" stroke-linecap="round" stroke-linejoin="round" stroke-width="5.000000"
	d="
M67.500000,31.500000 
	C66.333336,31.500000 65.161835,31.568762 64.000900,31.487232 
	C60.375748,31.232649 58.773342,32.653652 58.935822,36.502708 
	C59.181622,42.325665 59.000000,48.166668 59.000000,54.000000 
"/>
<path fill="none" opacity="1.000000" stroke="#000000" stroke-linecap="round" stroke-linejoin="round" stroke-width="4.000000"
	d="
M164.500000,46.500000 
	C168.007935,46.500000 171.515869,46.500000 174.955551,46.500000 
	C175.329346,42.295631 174.948822,41.338848 172.496994,40.005535 
	C170.239227,38.777771 167.972733,39.539021 166.040543,40.575562 
	C163.791214,41.782230 162.610687,48.927650 164.000000,51.000004 
	C166.750702,55.103035 170.642044,55.633675 175.000000,52.500000 
"/>
<path fill="none" opacity="1.000000" stroke="#000000" stroke-linecap="round" stroke-linejoin="round" stroke-width="4.000000"
	d="
M193.000000,41.500000 
	C190.333328,37.119148 187.545197,39.906845 185.032516,41.549740 
	C182.253036,43.367085 181.337494,48.405464 182.999985,51.000004 
	C185.337097,54.647316 189.646637,55.293739 193.000000,52.500000 
"/>
<path fill="none" opacity="1.000000" stroke="#000000" stroke-linecap="round" stroke-linejoin="round" stroke-width="4.000000"
	d="
M151.000000,44.000000 
	C153.000000,47.000000 155.354263,49.836708 156.845200,53.071350 
	C157.552765,54.606426 158.700653,54.290848 159.500000,55.000000 
"/>
<path fill="none" opacity="1.000000" stroke="#000000" stroke-linecap="round" stroke-linejoin="round" stroke-width="5.000000"
	d="
M122.000000,31.000000 
	C122.000000,38.666668 122.000000,46.333332 122.000000,54.000000 
"/>
<path fill="none" opacity="1.000000" stroke="#000000" stroke-linecap="round" stroke-linejoin="round" stroke-width="5.000000"
	d="
M92.000000,40.000000 
	C92.000000,44.666668 92.000000,49.333332 92.000000,54.000000 
"/>
<path fill="none" opacity="1.000000" stroke="#000000" stroke-linecap="round" stroke-linejoin="round" stroke-width="4.000000"
	d="
M59.500000,32.500000 
	C56.984997,30.953350 54.190418,31.643307 51.500000,31.500000 
"/>
<path fill="none" opacity="1.000000" stroke="#000000" stroke-linecap="round" stroke-linejoin="round" stroke-width="3.000000"
	d="
M98.500000,39.500000 
	C96.582626,40.345932 95.434082,42.601379 93.000000,42.500000 
"/>
</svg>