<svg version="1.1" id="Layer_1" xmlns="http://www.w3.org/2000/svg" xmlns:xlink="http://www.w3.org/1999/xlink" x="0px" y="0px"
	 width="100%" viewBox="1.067887 1.103455 755.9105 300.89655" enable-background="new 0 0 756 301" xml:space="preserve">
<path fill="#FFFFFF" opacity="1.000000" stroke="none" 
	d="
M576.000000,302.000000 
	C384.045258,302.000000 192.590515,302.000000 1.067887,302.000000 
	C1.067887,201.735672 1.067887,101.471291 1.067887,1.103455 
	C252.999985,1.103455 504.999969,1.103455 756.978394,1.103455 
	C756.978394,101.409538 756.978394,201.704773 756.978394,302.000000 
	C696.804565,302.000000 636.652283,302.000000 576.000000,302.000000 
M27.999584,266.477173 
	C27.999584,269.912323 27.999584,273.347504 27.999584,276.703735 
	C262.655731,276.703735 496.692657,276.703735 730.689331,276.703735 
	C730.689331,192.351791 730.689331,108.297325 730.689331,24.297337 
	C496.341766,24.297337 262.305023,24.297337 27.999584,24.297337 
	C27.999584,104.891190 27.999584,185.186646 27.999584,266.477173 
z"/>
<path fill="#404040" opacity="1.000000" stroke="none" 
	d="
M27.999584,265.979614 
	C27.999584,185.186646 27.999584,104.891190 27.999584,24.297337 
	C262.305023,24.297337 496.341766,24.297337 730.689331,24.297337 
	C730.689331,108.297325 730.689331,192.351791 730.689331,276.703735 
	C496.692657,276.703735 262.655731,276.703735 27.999584,276.703735 
	C27.999584,273.347504 27.999584,269.912323 27.999584,265.979614 
M246.500000,52.000805 
	C183.083969,52.000805 119.667946,52.000805 56.321198,52.000805 
	C56.321198,118.001770 56.321198,183.390259 56.321198,248.695007 
	C272.010284,248.695007 487.377930,248.695007 702.677856,248.695007 
	C702.677856,183.001190 702.677856,117.612953 702.677856,52.000805 
	C550.737244,52.000805 399.118622,52.000805 246.500000,52.000805 
z"/>
<path fill="#FFFFFF" opacity="1.000000" stroke="none" 
	d="
M247.000000,52.000805 
	C399.118622,52.000805 550.737244,52.000805 702.677856,52.000805 
	C702.677856,117.612953 702.677856,183.001190 702.677856,248.695007 
	C487.377930,248.695007 272.010284,248.695007 56.321198,248.695007 
	C56.321198,183.390259 56.321198,118.001770 56.321198,52.000805 
	C119.667946,52.000805 183.083969,52.000805 247.000000,52.000805 
M506.000000,169.500000 
	C506.000000,139.745941 506.000000,109.991898 506.000000,80.336143 
	C496.309021,80.336143 487.244080,80.336143 477.738831,80.336143 
	C477.738831,118.065231 477.738831,155.459000 477.738831,192.617493 
	C468.217560,192.617493 459.150330,192.617493 449.825195,192.617493 
	C449.825195,154.961121 449.825195,117.686836 449.825195,80.249786 
	C440.486298,80.249786 431.423553,80.249786 421.911377,80.249786 
	C421.911377,117.891190 421.911377,155.284973 421.911377,192.703796 
	C412.394165,192.703796 403.330811,192.703796 393.821045,192.703796 
	C393.821045,155.016068 393.821045,117.622437 393.821045,80.340286 
	C384.300415,80.340286 375.235474,80.340286 365.590302,80.340286 
	C365.590302,127.350700 365.590302,174.020844 365.590302,220.706146 
	C412.280792,220.706146 459.004333,220.706146 506.000000,220.706146 
	C506.000000,203.775269 506.000000,187.137634 506.000000,169.500000 
M307.354279,79.999565 
	C289.277405,79.999565 271.200531,79.999565 253.379150,79.999565 
	C253.379150,127.453239 253.379150,174.177032 253.379150,221.000702 
	C269.919739,221.000702 286.148499,220.087357 302.220001,221.284683 
	C315.491943,222.273453 325.898682,219.133347 333.332733,208.007538 
	C335.039032,205.453888 336.816071,202.279633 336.842804,199.375168 
	C337.103912,171.051208 337.000000,142.723862 337.000000,114.397491 
	C337.000000,95.703659 337.005981,95.697273 323.341461,82.910027 
	C322.538025,82.158173 321.570923,81.211044 320.587341,81.086517 
	C316.516052,80.571075 312.409149,80.337234 307.354279,79.999565 
M618.000000,141.500000 
	C618.000000,130.410538 618.000000,119.321068 618.000000,107.795860 
	C637.347290,107.795860 656.073364,107.795860 674.652100,107.795860 
	C674.652100,98.282104 674.652100,89.219131 674.652100,80.355545 
	C646.250549,80.355545 618.198547,80.355545 590.350342,80.355545 
	C590.350342,127.422081 590.350342,174.131790 590.350342,220.641251 
	C618.754517,220.641251 646.806763,220.641251 674.631592,220.641251 
	C674.631592,192.561600 674.631592,164.842590 674.631592,137.210754 
	C660.655212,137.210754 647.048096,137.210754 633.231812,137.210754 
	C633.231812,146.481979 633.231812,155.542252 633.231812,165.058929 
	C637.852661,165.058929 642.262268,165.058929 646.719971,165.058929 
	C646.719971,174.578506 646.719971,183.638977 646.719971,192.697937 
	C637.042969,192.697937 627.648987,192.697937 618.000000,192.697937 
	C618.000000,175.764755 618.000000,159.132385 618.000000,141.500000 
M224.999893,204.516113 
	C224.999893,200.751038 224.999893,196.985962 224.999893,192.817719 
	C187.004730,192.817719 149.627625,192.817719 111.827866,192.817719 
	C111.827866,155.014801 111.827866,117.637581 111.827866,80.319023 
	C102.336945,80.319023 93.276642,80.319023 84.305328,80.319023 
	C84.305328,127.343468 84.305328,174.046661 84.305328,220.708557 
	C131.315063,220.708557 178.018234,220.708557 224.999893,220.708557 
	C224.999893,215.449875 224.999893,210.478989 224.999893,204.516113 
M224.999893,126.500000 
	C224.999893,111.076202 224.999893,95.652405 224.999893,80.337837 
	C215.304001,80.337837 206.239410,80.337837 196.731766,80.337837 
	C196.731766,99.405304 196.731766,118.136612 196.731766,136.790176 
	C187.331329,136.790176 178.386337,136.790176 168.990128,136.790176 
	C168.990128,117.855621 168.990128,99.124519 168.990128,80.256195 
	C159.471588,80.256195 150.409302,80.256195 141.274612,80.256195 
	C141.274612,108.572609 141.274612,136.630997 141.274612,164.706161 
	C169.276306,164.706161 197.001511,164.706161 224.999893,164.706161 
	C224.999893,152.108917 224.999893,139.804459 224.999893,126.500000 
M562.000000,164.500000 
	C562.000000,136.426468 562.000000,108.352928 562.000000,80.308723 
	C552.356018,80.308723 543.296631,80.308723 534.289734,80.308723 
	C534.289734,127.318840 534.289734,174.018967 534.289734,220.692001 
	C543.642883,220.692001 552.702576,220.692001 562.000000,220.692001 
	C562.000000,202.089493 562.000000,183.794739 562.000000,164.500000 
z"/>
<path fill="#404040" opacity="1.000000" stroke="none" 
	d="
M506.000000,170.000000 
	C506.000000,187.137634 506.000000,203.775269 506.000000,220.706146 
	C459.004333,220.706146 412.280792,220.706146 365.590302,220.706146 
	C365.590302,174.020844 365.590302,127.350700 365.590302,80.340286 
	C375.235474,80.340286 384.300415,80.340286 393.821045,80.340286 
	C393.821045,117.622437 393.821045,155.016068 393.821045,192.703796 
	C403.330811,192.703796 412.394165,192.703796 421.911377,192.703796 
	C421.911377,155.284973 421.911377,117.891190 421.911377,80.249786 
	C431.423553,80.249786 440.486298,80.249786 449.825195,80.249786 
	C449.825195,117.686836 449.825195,154.961121 449.825195,192.617493 
	C459.150330,192.617493 468.217560,192.617493 477.738831,192.617493 
	C477.738831,155.459000 477.738831,118.065231 477.738831,80.336143 
	C487.244080,80.336143 496.309021,80.336143 506.000000,80.336143 
	C506.000000,109.991898 506.000000,139.745941 506.000000,170.000000 
z"/>
<path fill="#404040" opacity="1.000000" stroke="none" 
	d="
M307.834778,79.999771 
	C312.409149,80.337234 316.516052,80.571075 320.587341,81.086517 
	C321.570923,81.211044 322.538025,82.158173 323.341461,82.910027 
	C337.005981,95.697273 337.000000,95.703659 337.000000,114.397491 
	C337.000000,142.723862 337.103912,171.051208 336.842804,199.375168 
	C336.816071,202.279633 335.039032,205.453888 333.332733,208.007538 
	C325.898682,219.133347 315.491943,222.273453 302.220001,221.284683 
	C286.148499,220.087357 269.919739,221.000702 253.379150,221.000702 
	C253.379150,174.177032 253.379150,127.453239 253.379150,79.999565 
	C271.200531,79.999565 289.277405,79.999565 307.834778,79.999771 
M308.999298,122.504448 
	C308.999298,117.746933 308.999298,112.989418 308.999298,108.325851 
	C299.318176,108.325851 290.261658,108.325851 281.310272,108.325851 
	C281.310272,136.687347 281.310272,164.722870 281.310272,192.675171 
	C290.680450,192.675171 299.737000,192.675171 308.999298,192.675171 
	C308.999298,169.401810 308.999298,146.452606 308.999298,122.504448 
z"/>
<path fill="#404040" opacity="1.000000" stroke="none" 
	d="
M618.000000,142.000000 
	C618.000000,159.132385 618.000000,175.764755 618.000000,192.697937 
	C627.648987,192.697937 637.042969,192.697937 646.719971,192.697937 
	C646.719971,183.638977 646.719971,174.578506 646.719971,165.058929 
	C642.262268,165.058929 637.852661,165.058929 633.231812,165.058929 
	C633.231812,155.542252 633.231812,146.481979 633.231812,137.210754 
	C647.048096,137.210754 660.655212,137.210754 674.631592,137.210754 
	C674.631592,164.842590 674.631592,192.561600 674.631592,220.641251 
	C646.806763,220.641251 618.754517,220.641251 590.350342,220.641251 
	C590.350342,174.131790 590.350342,127.422081 590.350342,80.355545 
	C618.198547,80.355545 646.250549,80.355545 674.652100,80.355545 
	C674.652100,89.219131 674.652100,98.282104 674.652100,107.795860 
	C656.073364,107.795860 637.347290,107.795860 618.000000,107.795860 
	C618.000000,119.321068 618.000000,130.410538 618.000000,142.000000 
z"/>
<path fill="#404040" opacity="1.000000" stroke="none" 
	d="
M224.999893,205.012115 
	C224.999893,210.478989 224.999893,215.449875 224.999893,220.708557 
	C178.018234,220.708557 131.315063,220.708557 84.305328,220.708557 
	C84.305328,174.046661 84.305328,127.343468 84.305328,80.319023 
	C93.276642,80.319023 102.336945,80.319023 111.827866,80.319023 
	C111.827866,117.637581 111.827866,155.014801 111.827866,192.817719 
	C149.627625,192.817719 187.004730,192.817719 224.999893,192.817719 
	C224.999893,196.985962 224.999893,200.751038 224.999893,205.012115 
z"/>
<path fill="#404040" opacity="1.000000" stroke="none" 
	d="
M224.999893,127.000000 
	C224.999893,139.804459 224.999893,152.108917 224.999893,164.706161 
	C197.001511,164.706161 169.276306,164.706161 141.274612,164.706161 
	C141.274612,136.630997 141.274612,108.572609 141.274612,80.256195 
	C150.409302,80.256195 159.471588,80.256195 168.990128,80.256195 
	C168.990128,99.124519 168.990128,117.855621 168.990128,136.790176 
	C178.386337,136.790176 187.331329,136.790176 196.731766,136.790176 
	C196.731766,118.136612 196.731766,99.405304 196.731766,80.337837 
	C206.239410,80.337837 215.304001,80.337837 224.999893,80.337837 
	C224.999893,95.652405 224.999893,111.076202 224.999893,127.000000 
z"/>
<path fill="#404040" opacity="1.000000" stroke="none" 
	d="
M562.000000,165.000000 
	C562.000000,183.794739 562.000000,202.089493 562.000000,220.692001 
	C552.702576,220.692001 543.642883,220.692001 534.289734,220.692001 
	C534.289734,174.018967 534.289734,127.318840 534.289734,80.308723 
	C543.296631,80.308723 552.356018,80.308723 562.000000,80.308723 
	C562.000000,108.352928 562.000000,136.426468 562.000000,165.000000 
z"/>
<path fill="#FFFFFF" opacity="1.000000" stroke="none" 
	d="
M308.999298,123.003922 
	C308.999298,146.452606 308.999298,169.401810 308.999298,192.675171 
	C299.737000,192.675171 290.680450,192.675171 281.310272,192.675171 
	C281.310272,164.722870 281.310272,136.687347 281.310272,108.325851 
	C290.261658,108.325851 299.318176,108.325851 308.999298,108.325851 
	C308.999298,112.989418 308.999298,117.746933 308.999298,123.003922 
z"/>
</svg>