<svg version="1.1" id="Layer_1" xmlns="http://www.w3.org/2000/svg" xmlns:xlink="http://www.w3.org/1999/xlink" x="0px" y="0px"
	 width="100%" viewBox="1.071576 1.099164 821.9025 232.90083" enable-background="new 0 0 822 233" xml:space="preserve">
<path fill="#FFFEFE" opacity="1.000000" stroke="none" 
	d="
M606.000000,234.000000 
	C404.047729,234.000000 202.595428,234.000000 1.071576,234.000000 
	C1.071576,156.399506 1.071576,78.798912 1.071576,1.099164 
	C274.999969,1.099164 549.000000,1.099164 822.974121,1.099164 
	C822.974121,78.737938 822.974121,156.368973 822.974121,234.000000 
	C750.798889,234.000000 678.649414,234.000000 606.000000,234.000000 
M494.536560,159.415573 
	C480.218872,163.768005 467.417664,159.553604 454.911133,151.747208 
	C453.575439,155.145447 452.445068,158.021408 450.805115,162.193756 
	C458.349884,164.772308 465.348083,167.886505 472.676636,169.503494 
	C484.370148,172.083588 495.928009,171.208618 506.205261,164.140839 
	C522.482849,152.946533 521.846191,128.928986 504.827576,119.033180 
	C499.708527,116.056610 493.859436,114.329048 488.328400,112.069420 
	C482.796417,109.809425 477.086517,107.918526 471.743378,105.280891 
	C466.042145,102.466530 463.156006,97.582382 463.683167,91.011986 
	C464.218842,84.335266 467.735565,79.514984 473.927155,77.573166 
	C478.575806,76.115265 483.861847,74.990501 488.547516,75.728264 
	C496.589935,76.994560 504.385132,79.830948 512.779907,82.144836 
	C513.582886,80.139259 514.718018,77.304169 515.866943,74.434578 
	C505.589142,67.753006 494.769867,65.009232 483.182587,65.521393 
	C475.739441,65.850403 468.787598,67.985229 462.856323,72.821930 
	C449.109558,84.031860 449.601471,104.055489 464.489777,113.583382 
	C470.399048,117.365067 477.570007,119.154808 484.117401,121.965904 
	C489.893494,124.445839 496.057678,126.394348 501.232849,129.814697 
	C509.128143,135.032806 510.042358,146.010086 503.631378,153.005325 
	C501.345459,155.499557 498.075409,157.091858 494.536560,159.415573 
M328.506348,123.275826 
	C325.690033,123.551041 322.860626,123.731758 320.059753,124.118774 
	C310.781769,125.400833 301.653564,127.224518 293.825653,132.834717 
	C287.304016,137.508759 284.418152,144.001923 285.325165,151.898514 
	C286.244049,159.898422 290.912567,165.321503 298.309692,168.210999 
	C308.130341,172.047165 317.245575,170.353241 325.563416,164.034958 
	C327.239807,162.761536 328.786774,161.317642 330.473236,159.884521 
	C333.791779,168.235703 338.756989,170.993210 346.989502,169.177856 
	C347.159180,166.793015 347.332123,164.362000 347.529144,161.592941 
	C341.071472,161.638702 340.025024,157.805984 340.102478,152.612747 
	C340.291199,139.961807 340.512329,127.294495 340.079895,114.655685 
	C339.606659,100.825577 331.973267,93.383957 318.213196,92.176086 
	C309.876312,91.444275 301.973419,93.071548 294.380920,96.389488 
	C285.846954,100.118881 285.861542,100.161026 288.268402,109.129456 
	C288.342102,109.404076 288.655853,109.614281 288.050659,108.893967 
	C296.321747,106.414452 303.878113,102.965195 311.728088,102.058693 
	C325.309174,100.490372 332.232697,109.381310 328.506348,123.275826 
M731.776428,94.169502 
	C718.588440,98.125000 710.520569,107.211830 707.451965,120.250473 
	C703.708252,136.157486 705.084534,151.573425 718.301758,162.951096 
	C731.196716,174.051376 746.077515,173.078629 761.120117,167.242874 
	C764.315125,166.003372 765.726196,164.282715 764.491638,160.854004 
	C763.950623,159.351425 763.661133,157.758316 763.249084,156.174149 
	C734.406677,166.957626 715.386475,157.467697 716.693237,132.998627 
	C718.138550,132.929489 719.610413,132.805374 721.082947,132.797043 
	C734.738464,132.720001 748.395203,132.724243 762.048523,132.513153 
	C763.552124,132.489899 765.895386,131.655350 766.400696,130.540573 
	C772.850159,116.310242 763.635986,97.314751 748.385742,94.087082 
	C743.339661,93.019104 737.867554,93.963646 731.776428,94.169502 
M604.995789,139.637924 
	C598.178284,154.002228 604.462097,167.011093 619.938110,170.450165 
	C627.925232,172.225037 635.094604,170.149094 641.614685,165.467178 
	C643.466003,164.137817 645.212830,162.662994 646.465515,161.680161 
	C649.153381,164.374161 651.144653,167.449539 653.972107,168.995544 
	C661.559570,173.144165 664.382324,171.405106 664.373474,163.330353 
	C664.373169,163.034332 664.108215,162.738586 663.799133,162.093079 
	C657.770630,162.590210 656.990662,158.552307 657.013794,153.679214 
	C657.075500,140.695816 657.329041,127.702881 656.939026,114.730789 
	C656.559021,102.089722 648.981750,94.463455 636.419067,93.115494 
	C627.426453,92.150604 618.851379,93.682144 610.640747,97.439850 
	C602.632751,101.104813 602.332458,101.872307 605.984009,110.804024 
	C607.135803,110.143112 608.234619,109.479591 609.362915,108.870514 
	C616.016113,105.278961 622.852295,102.466515 630.660828,102.658112 
	C643.096313,102.963234 649.499390,111.569771 646.227234,123.878937 
	C642.601746,124.279976 638.933655,124.491096 635.338623,125.119568 
	C624.136108,127.077965 612.916504,129.098114 604.995789,139.637924 
M218.410950,74.617447 
	C218.410950,105.662598 218.410950,136.707748 218.410950,167.708923 
	C222.024216,167.708923 225.129532,167.708923 228.891739,167.708923 
	C228.891739,153.100098 228.891739,138.737335 228.891739,124.022247 
	C242.647095,124.022247 255.744537,124.022247 269.085144,124.022247 
	C269.085144,120.725990 269.085144,117.804420 269.085144,114.232468 
	C255.641113,114.232468 242.423599,114.232468 229.211594,114.232468 
	C229.211594,101.541092 229.211594,89.505547 229.211594,77.087723 
	C245.579926,77.087723 261.527222,77.087723 277.602234,77.087723 
	C277.602234,73.625244 277.602234,70.552849 277.602234,67.217789 
	C257.877747,67.217789 238.454987,67.217789 218.411041,67.217789 
	C218.411041,69.418617 218.411041,71.536461 218.410950,74.617447 
M538.353821,159.140244 
	C550.187439,171.682816 564.525757,173.248672 580.150146,168.414200 
	C589.168152,165.623886 589.112915,165.431580 586.715820,156.261261 
	C586.656250,156.033463 586.248962,155.896606 586.002502,155.719070 
	C567.885925,163.876022 555.350037,162.810928 546.708679,152.380508 
	C538.288208,142.216736 537.721436,123.536514 545.498291,112.484253 
	C553.425964,101.217583 565.238892,99.825989 586.501038,107.788506 
	C587.196899,105.596893 588.169250,103.448219 588.464355,101.210236 
	C588.606628,100.130981 587.795349,98.403305 586.870361,97.783867 
	C571.238586,87.316139 546.184570,92.520859 536.123413,108.214828 
	C526.556396,123.138092 527.310486,144.182541 538.353821,159.140244 
M689.454712,111.499023 
	C689.454712,93.911270 689.454712,76.323509 689.454712,58.717674 
	C679.166321,59.362206 679.184631,59.362247 679.162659,68.705978 
	C679.110901,90.686211 679.029358,112.666389 678.980957,134.646637 
	C678.956116,145.926804 678.976624,157.207077 678.976624,168.723785 
	C682.682068,168.723785 685.878296,168.723785 689.454163,168.723785 
	C689.454163,149.757462 689.454163,131.128433 689.454712,111.499023 
M439.546967,96.049561 
	C425.419464,87.880524 414.786896,93.245316 405.148682,104.787872 
	C405.148682,100.746124 405.148682,96.704376 405.148682,92.230080 
	C401.449799,93.026924 398.419006,93.679848 395.225494,94.367821 
	C395.225494,119.059761 395.225494,143.447922 395.225494,168.071899 
	C398.555664,168.071899 401.649902,168.071899 405.358215,168.071899 
	C405.358215,154.375076 405.685669,140.906937 405.241119,127.464333 
	C404.953094,118.755920 409.069977,112.462379 414.751770,106.926605 
	C421.392151,100.456879 429.144165,101.250122 437.396729,105.290077 
	C438.224854,102.174522 438.939514,99.485802 439.546967,96.049561 
M372.586914,167.062393 
	C372.586914,142.302383 372.586914,117.542381 372.586914,92.111122 
	C369.015259,92.850403 366.007080,93.473053 362.664673,94.164886 
	C362.664673,118.861259 362.664673,143.249283 362.664673,167.830948 
	C365.851807,167.830948 368.959717,167.830948 372.586914,167.062393 
M167.565323,58.732571 
	C167.134430,57.310501 166.935822,55.759323 166.230286,54.489902 
	C163.858505,50.222546 160.037155,48.471836 155.318817,49.337189 
	C150.542435,50.213181 147.741074,53.443672 147.085297,58.169197 
	C146.447388,62.766064 148.517532,66.329636 152.556320,68.474167 
	C159.235611,72.020775 165.950043,67.945671 167.565323,58.732571 
M141.680450,70.990631 
	C143.715134,66.510033 143.057465,62.412689 139.150726,59.448719 
	C135.661118,56.801216 131.670792,56.882538 128.081360,59.509808 
	C123.678833,62.732208 123.323120,69.081467 127.144821,73.056328 
	C131.098419,77.168381 136.677887,76.608154 141.680450,70.990631 
M141.495346,86.552017 
	C142.156494,87.501869 142.690445,88.581001 143.501190,89.378830 
	C146.727249,92.553474 151.971207,92.899925 155.379471,90.266785 
	C158.871780,87.568718 159.971420,82.471443 157.907318,78.549103 
	C155.947418,74.824722 151.388306,72.969620 147.202377,74.193283 
	C142.529083,75.559410 140.582169,79.332069 141.495346,86.552017 
M146.808228,97.247292 
	C142.100754,96.246483 138.490585,97.665428 136.837219,102.348068 
	C135.537140,106.030121 136.640305,109.285690 139.901840,111.519302 
	C143.476425,113.967293 148.458237,112.895004 150.920181,109.325272 
	C153.655487,105.359169 152.394821,101.012405 146.808228,97.247292 
M107.906784,65.333603 
	C102.728447,69.794258 102.477325,75.999969 107.443817,79.022636 
	C110.804764,81.068161 114.221924,80.832153 117.123642,78.180420 
	C120.005051,75.547256 120.825844,72.158394 118.815025,68.685684 
	C116.529671,64.738853 113.039413,63.363262 107.906784,65.333603 
M132.580322,95.122498 
	C135.774475,92.760330 137.258240,89.298813 135.367935,86.015907 
	C134.016449,83.668739 130.816177,81.126335 128.352982,81.034813 
	C125.909454,80.944016 122.329948,83.278656 121.154129,85.540237 
	C120.087845,87.591148 120.767830,91.500183 122.143608,93.653572 
	C124.350311,97.107544 128.215408,97.204910 132.580322,95.122498 
M373.895752,66.736923 
	C373.541748,66.180557 373.274933,65.536865 372.819458,65.082161 
	C370.094788,62.362110 366.858612,62.104763 363.783203,64.052391 
	C360.307373,66.253624 360.167908,69.861259 361.374176,73.338356 
	C362.560944,76.759201 365.374756,78.104904 368.901550,77.502563 
	C372.815918,76.834038 374.278687,74.013458 374.488678,70.380844 
	C374.544556,69.414116 374.236053,68.426323 373.895752,66.736923 
M97.493340,79.861938 
	C99.718704,75.943459 99.259644,72.449829 95.386154,69.986427 
	C92.347580,68.054008 89.237419,68.654877 86.888702,71.340569 
	C84.376595,74.213089 84.259781,77.504776 86.918434,80.299644 
	C90.071457,83.614227 93.597031,83.444794 97.493340,79.861938 
M106.160133,98.607635 
	C110.368973,99.539146 113.867653,98.073433 114.503883,93.915894 
	C114.865021,91.556015 113.408951,87.981300 111.543564,86.429329 
	C108.477333,83.878273 104.909576,85.123688 102.537132,88.348343 
	C100.054863,91.722275 101.118256,95.019730 106.160133,98.607635 
M146.643829,128.037003 
	C149.202240,123.485497 145.993057,118.833755 142.559479,118.132172 
	C139.151474,117.435814 136.263184,118.275787 134.681580,121.621132 
	C133.152237,124.855965 133.778809,127.877197 136.650848,129.992783 
	C140.132278,132.557266 143.431625,131.931091 146.643829,128.037003 
M127.368073,102.194290 
	C121.955704,101.257484 118.753990,102.744751 117.954292,106.707748 
	C117.250412,110.195953 118.374969,113.093346 121.695282,114.524109 
	C124.915298,115.911652 128.074463,115.274742 129.980621,112.150467 
	C132.188583,108.531532 131.514343,105.181519 127.368073,102.194290 
M127.624733,128.843384 
	C127.935684,122.939377 124.225166,119.339935 120.024307,121.805916 
	C118.375076,122.774048 116.845490,125.358070 116.809837,127.235611 
	C116.778877,128.866135 118.874260,131.852707 120.132500,131.908035 
	C122.485550,132.011536 124.912926,130.425446 127.624733,128.843384 
M108.606514,105.616875 
	C102.838196,104.568153 98.682129,107.869293 100.629631,112.230492 
	C101.415817,113.991043 103.747070,115.823883 105.608383,116.110756 
	C107.215683,116.358482 110.456551,114.685600 110.666061,113.465294 
	C111.066597,111.132454 109.824760,108.517624 108.606514,105.616875 
M143.878983,141.106491 
	C142.517838,138.135635 140.104980,136.495911 137.084656,137.720642 
	C135.400543,138.403549 133.711929,140.461197 133.160873,142.249268 
	C132.171066,145.461060 134.924927,148.792267 138.239746,148.751999 
	C142.624847,148.698715 144.451279,146.151947 143.878983,141.106491 
M95.182266,95.918785 
	C95.908722,92.438271 94.528656,89.527237 91.181244,89.296959 
	C88.980659,89.145576 85.629761,90.774002 84.648666,92.601234 
	C83.874634,94.042801 85.262909,97.884003 86.870544,99.100906 
	C89.959824,101.439331 93.086754,100.208977 95.182266,95.918785 
M77.392136,74.318016 
	C74.959633,74.108917 72.264145,73.187485 70.191338,73.952721 
	C68.908150,74.426445 67.721588,77.629280 68.048172,79.303360 
	C68.375931,80.983414 70.435081,83.118484 72.105003,83.521042 
	C73.777153,83.924149 76.868195,82.962830 77.598671,81.639694 
	C78.576111,79.869225 77.879379,77.174477 77.392136,74.318016 
M90.533669,116.038940 
	C92.991051,114.151855 94.015511,111.694809 91.680725,109.356529 
	C90.561737,108.235878 87.748001,107.404671 86.618027,108.049049 
	C85.170723,108.874390 83.701607,111.456429 83.930832,113.036499 
	C84.350677,115.930595 86.681366,117.387840 90.533669,116.038940 
M122.799179,148.650711 
	C123.612000,146.831100 124.967377,145.027679 125.022346,143.185455 
	C125.052521,142.174225 122.519020,140.009277 121.788147,140.258789 
	C119.766937,140.948807 116.824013,142.394974 116.524384,143.974503 
	C115.835136,147.607910 118.344254,149.339539 122.799179,148.650711 
M108.992355,127.691483 
	C107.222198,126.385086 105.565071,124.384338 103.633446,124.069908 
	C102.690407,123.916397 100.246086,126.936218 100.294334,128.462357 
	C100.341545,129.955597 103.073433,132.778900 103.955566,132.539963 
	C105.866272,132.022415 107.347984,129.921082 108.992355,127.691483 
M75.438255,92.986435 
	C72.384491,90.247879 69.585777,90.668488 67.928467,94.274597 
	C67.364616,95.501488 67.997215,98.232689 69.029541,98.995247 
	C70.297768,99.932037 73.478706,100.331329 74.183594,99.523636 
	C75.403931,98.125343 75.355164,95.619453 75.438255,92.986435 
M141.576202,159.771072 
	C139.867508,158.586960 138.275284,156.856491 136.399429,156.456696 
	C135.504990,156.266052 132.985992,158.745117 133.117996,159.767654 
	C133.359726,161.640091 134.672714,164.379501 136.165787,164.877274 
	C139.341278,165.935913 141.372803,163.915115 141.576202,159.771072 
M52.133549,82.442245 
	C56.224052,84.833199 59.454292,84.225502 59.836246,80.735497 
	C60.002983,79.212006 59.181664,77.047218 58.040745,76.078979 
	C57.092724,75.274429 54.123615,75.157928 53.626125,75.857552 
	C52.480598,77.468506 52.294353,79.761597 52.133549,82.442245 
M118.607948,163.690598 
	C120.322182,163.332108 122.171440,163.229156 123.659569,162.442764 
	C124.051491,162.235657 123.777870,159.424057 122.990456,158.701889 
	C122.174171,157.953232 119.422737,157.774170 119.163872,158.247086 
	C118.388664,159.663284 118.418053,161.519913 118.607948,163.690598 
M58.678123,95.011925 
	C57.074291,94.392403 55.491596,93.461388 53.853260,93.350197 
	C53.384319,93.318367 52.126556,95.805901 52.374523,96.872192 
	C52.622952,97.940437 54.876976,99.618477 55.250027,99.390404 
	C56.669029,98.522896 57.682850,96.992638 58.678123,95.011925 
M89.745880,125.561485 
	C88.122482,126.164742 86.303535,126.515846 84.997650,127.528542 
	C84.617577,127.823280 85.326408,130.529144 86.224121,131.178253 
	C87.101982,131.813004 89.894699,131.572937 90.040764,131.126282 
	C90.555618,129.551804 90.294853,127.723679 89.745880,125.561485 
M101.498024,146.639267 
	C103.215302,146.877380 104.993019,147.450684 106.614639,147.158279 
	C107.130424,147.065262 107.831589,144.372559 107.355598,143.409088 
	C106.861885,142.409744 104.291359,141.254425 103.941444,141.579575 
	C102.711784,142.722214 102.046532,144.472229 101.498024,146.639267 
M69.548729,109.730080 
	C69.603806,111.479179 69.404564,113.303123 69.882660,114.927727 
	C70.011314,115.364906 72.641891,115.738235 73.333313,115.173241 
	C74.273239,114.405205 75.180283,111.862656 74.828651,111.560036 
	C73.564774,110.472336 71.765747,110.006454 69.548729,109.730080 
z"/>
<path fill="#EF5333" opacity="1.000000" stroke="none" 
	d="
M494.895569,159.255707 
	C498.075409,157.091858 501.345459,155.499557 503.631378,153.005325 
	C510.042358,146.010086 509.128143,135.032806 501.232849,129.814697 
	C496.057678,126.394348 489.893494,124.445839 484.117401,121.965904 
	C477.570007,119.154808 470.399048,117.365067 464.489777,113.583382 
	C449.601471,104.055489 449.109558,84.031860 462.856323,72.821930 
	C468.787598,67.985229 475.739441,65.850403 483.182587,65.521393 
	C494.769867,65.009232 505.589142,67.753006 515.866943,74.434578 
	C514.718018,77.304169 513.582886,80.139259 512.779907,82.144836 
	C504.385132,79.830948 496.589935,76.994560 488.547516,75.728264 
	C483.861847,74.990501 478.575806,76.115265 473.927155,77.573166 
	C467.735565,79.514984 464.218842,84.335266 463.683167,91.011986 
	C463.156006,97.582382 466.042145,102.466530 471.743378,105.280891 
	C477.086517,107.918526 482.796417,109.809425 488.328400,112.069420 
	C493.859436,114.329048 499.708527,116.056610 504.827576,119.033180 
	C521.846191,128.928986 522.482849,152.946533 506.205261,164.140839 
	C495.928009,171.208618 484.370148,172.083588 472.676636,169.503494 
	C465.348083,167.886505 458.349884,164.772308 450.805115,162.193756 
	C452.445068,158.021408 453.575439,155.145447 454.911133,151.747208 
	C467.417664,159.553604 480.218872,163.768005 494.895569,159.255707 
z"/>
<path fill="#2B2728" opacity="1.000000" stroke="none" 
	d="
M328.956116,123.181252 
	C332.232697,109.381310 325.309174,100.490372 311.728088,102.058693 
	C303.878113,102.965195 296.321747,106.414452 288.050659,108.893967 
	C288.655853,109.614281 288.342102,109.404076 288.268402,109.129456 
	C285.861542,100.161026 285.846954,100.118881 294.380920,96.389488 
	C301.973419,93.071548 309.876312,91.444275 318.213196,92.176086 
	C331.973267,93.383957 339.606659,100.825577 340.079895,114.655685 
	C340.512329,127.294495 340.291199,139.961807 340.102478,152.612747 
	C340.025024,157.805984 341.071472,161.638702 347.529144,161.592941 
	C347.332123,164.362000 347.159180,166.793015 346.989502,169.177856 
	C338.756989,170.993210 333.791779,168.235703 330.473236,159.884521 
	C328.786774,161.317642 327.239807,162.761536 325.563416,164.034958 
	C317.245575,170.353241 308.130341,172.047165 298.309692,168.210999 
	C290.912567,165.321503 286.244049,159.898422 285.325165,151.898514 
	C284.418152,144.001923 287.304016,137.508759 293.825653,132.834717 
	C301.653564,127.224518 310.781769,125.400833 320.059753,124.118774 
	C322.860626,123.731758 325.690033,123.551041 328.956116,123.181252 
M330.030640,139.501007 
	C330.030640,136.585312 330.030640,133.669632 330.030640,129.175568 
	C320.313629,132.070740 311.219849,133.786011 303.023926,137.488693 
	C293.981537,141.573761 293.509644,153.709320 301.561615,158.662796 
	C308.119049,162.696823 314.962677,161.912125 321.545990,158.452118 
	C327.313354,155.420929 331.769012,151.507401 330.065491,143.975815 
	C329.814606,142.866577 330.030640,141.651749 330.030640,139.501007 
z"/>
<path fill="#EF5433" opacity="1.000000" stroke="none" 
	d="
M732.183350,94.078766 
	C737.867554,93.963646 743.339661,93.019104 748.385742,94.087082 
	C763.635986,97.314751 772.850159,116.310242 766.400696,130.540573 
	C765.895386,131.655350 763.552124,132.489899 762.048523,132.513153 
	C748.395203,132.724243 734.738464,132.720001 721.082947,132.797043 
	C719.610413,132.805374 718.138550,132.929489 716.693237,132.998627 
	C715.386475,157.467697 734.406677,166.957626 763.249084,156.174149 
	C763.661133,157.758316 763.950623,159.351425 764.491638,160.854004 
	C765.726196,164.282715 764.315125,166.003372 761.120117,167.242874 
	C746.077515,173.078629 731.196716,174.051376 718.301758,162.951096 
	C705.084534,151.573425 703.708252,136.157486 707.451965,120.250473 
	C710.520569,107.211830 718.588440,98.125000 732.183350,94.078766 
M729.518738,124.295593 
	C737.668457,124.295013 745.821716,124.413879 753.964233,124.170799 
	C755.250916,124.132385 757.405518,122.621437 757.601257,121.515556 
	C758.929810,114.011391 753.235535,105.381546 745.948303,103.273338 
	C732.350037,99.339348 718.221863,109.610748 717.619202,124.295807 
	C721.264465,124.295807 724.897034,124.295807 729.518738,124.295593 
z"/>
<path fill="#EF5332" opacity="1.000000" stroke="none" 
	d="
M605.188049,139.321564 
	C612.916504,129.098114 624.136108,127.077965 635.338623,125.119568 
	C638.933655,124.491096 642.601746,124.279976 646.227234,123.878937 
	C649.499390,111.569771 643.096313,102.963234 630.660828,102.658112 
	C622.852295,102.466515 616.016113,105.278961 609.362915,108.870514 
	C608.234619,109.479591 607.135803,110.143112 605.984009,110.804024 
	C602.332458,101.872307 602.632751,101.104813 610.640747,97.439850 
	C618.851379,93.682144 627.426453,92.150604 636.419067,93.115494 
	C648.981750,94.463455 656.559021,102.089722 656.939026,114.730789 
	C657.329041,127.702881 657.075500,140.695816 657.013794,153.679214 
	C656.990662,158.552307 657.770630,162.590210 663.799133,162.093079 
	C664.108215,162.738586 664.373169,163.034332 664.373474,163.330353 
	C664.382324,171.405106 661.559570,173.144165 653.972107,168.995544 
	C651.144653,167.449539 649.153381,164.374161 646.465515,161.680161 
	C645.212830,162.662994 643.466003,164.137817 641.614685,165.467178 
	C635.094604,170.149094 627.925232,172.225037 619.938110,170.450165 
	C604.462097,167.011093 598.178284,154.002228 605.188049,139.321564 
M644.531189,131.627548 
	C643.538513,131.717453 642.505859,131.661346 641.559509,131.920502 
	C634.391418,133.883469 626.855347,135.068741 620.182434,138.128632 
	C612.051147,141.857239 610.494812,151.297913 615.941223,157.278137 
	C620.377014,162.148651 628.343933,163.436813 635.861816,160.499054 
	C644.125916,157.269730 647.022339,153.434692 647.022217,145.720581 
	C647.022217,142.231293 647.154480,138.734177 646.950012,135.256866 
	C646.875732,133.994324 645.996155,132.779114 644.531189,131.627548 
z"/>
<path fill="#2E2A2B" opacity="1.000000" stroke="none" 
	d="
M218.410995,74.135880 
	C218.411041,71.536461 218.411041,69.418617 218.411041,67.217789 
	C238.454987,67.217789 257.877747,67.217789 277.602234,67.217789 
	C277.602234,70.552849 277.602234,73.625244 277.602234,77.087723 
	C261.527222,77.087723 245.579926,77.087723 229.211594,77.087723 
	C229.211594,89.505547 229.211594,101.541092 229.211594,114.232468 
	C242.423599,114.232468 255.641113,114.232468 269.085144,114.232468 
	C269.085144,117.804420 269.085144,120.725990 269.085144,124.022247 
	C255.744537,124.022247 242.647095,124.022247 228.891739,124.022247 
	C228.891739,138.737335 228.891739,153.100098 228.891739,167.708923 
	C225.129532,167.708923 222.024216,167.708923 218.410950,167.708923 
	C218.410950,136.707748 218.410950,105.662598 218.410995,74.135880 
z"/>
<path fill="#EF5332" opacity="1.000000" stroke="none" 
	d="
M538.140747,158.853668 
	C527.310486,144.182541 526.556396,123.138092 536.123413,108.214828 
	C546.184570,92.520859 571.238586,87.316139 586.870361,97.783867 
	C587.795349,98.403305 588.606628,100.130981 588.464355,101.210236 
	C588.169250,103.448219 587.196899,105.596893 586.501038,107.788506 
	C565.238892,99.825989 553.425964,101.217583 545.498291,112.484253 
	C537.721436,123.536514 538.288208,142.216736 546.708679,152.380508 
	C555.350037,162.810928 567.885925,163.876022 586.003174,155.718201 
	C586.248962,155.896606 586.656250,156.033463 586.715820,156.261261 
	C589.112915,165.431580 589.168152,165.623886 580.150146,168.414200 
	C564.525757,173.248672 550.187439,171.682816 538.140747,158.853668 
z"/>
<path fill="#EF5636" opacity="1.000000" stroke="none" 
	d="
M689.454468,111.999222 
	C689.454163,131.128433 689.454163,149.757462 689.454163,168.723785 
	C685.878296,168.723785 682.682068,168.723785 678.976624,168.723785 
	C678.976624,157.207077 678.956116,145.926804 678.980957,134.646637 
	C679.029358,112.666389 679.110901,90.686211 679.162659,68.705978 
	C679.184631,59.362247 679.166321,59.362206 689.454712,58.717674 
	C689.454712,76.323509 689.454712,93.911270 689.454468,111.999222 
z"/>
<path fill="#2C2929" opacity="1.000000" stroke="none" 
	d="
M439.600586,96.423325 
	C438.939514,99.485802 438.224854,102.174522 437.396729,105.290077 
	C429.144165,101.250122 421.392151,100.456879 414.751770,106.926605 
	C409.069977,112.462379 404.953094,118.755920 405.241119,127.464333 
	C405.685669,140.906937 405.358215,154.375076 405.358215,168.071899 
	C401.649902,168.071899 398.555664,168.071899 395.225494,168.071899 
	C395.225494,143.447922 395.225494,119.059761 395.225494,94.367821 
	C398.419006,93.679848 401.449799,93.026924 405.148682,92.230080 
	C405.148682,96.704376 405.148682,100.746124 405.148682,104.787872 
	C414.786896,93.245316 425.419464,87.880524 439.600586,96.423325 
z"/>
<path fill="#333031" opacity="1.000000" stroke="none" 
	d="
M372.327271,167.446671 
	C368.959717,167.830948 365.851807,167.830948 362.664673,167.830948 
	C362.664673,143.249283 362.664673,118.861259 362.664673,94.164886 
	C366.007080,93.473053 369.015259,92.850403 372.586914,92.111122 
	C372.586914,117.542381 372.586914,142.302383 372.327271,167.446671 
z"/>
<path fill="#EF5332" opacity="1.000000" stroke="none" 
	d="
M167.591980,59.113388 
	C165.950043,67.945671 159.235611,72.020775 152.556320,68.474167 
	C148.517532,66.329636 146.447388,62.766064 147.085297,58.169197 
	C147.741074,53.443672 150.542435,50.213181 155.318817,49.337189 
	C160.037155,48.471836 163.858505,50.222546 166.230286,54.489902 
	C166.935822,55.759323 167.134430,57.310501 167.591980,59.113388 
z"/>
<path fill="#EF5332" opacity="1.000000" stroke="none" 
	d="
M141.481262,71.313721 
	C136.677887,76.608154 131.098419,77.168381 127.144821,73.056328 
	C123.323120,69.081467 123.678833,62.732208 128.081360,59.509808 
	C131.670792,56.882538 135.661118,56.801216 139.150726,59.448719 
	C143.057465,62.412689 143.715134,66.510033 141.481262,71.313721 
z"/>
<path fill="#EF5433" opacity="1.000000" stroke="none" 
	d="
M141.356598,86.170959 
	C140.582169,79.332069 142.529083,75.559410 147.202377,74.193283 
	C151.388306,72.969620 155.947418,74.824722 157.907318,78.549103 
	C159.971420,82.471443 158.871780,87.568718 155.379471,90.266785 
	C151.971207,92.899925 146.727249,92.553474 143.501190,89.378830 
	C142.690445,88.581001 142.156494,87.501869 141.356598,86.170959 
z"/>
<path fill="#EF5433" opacity="1.000000" stroke="none" 
	d="
M147.161316,97.414780 
	C152.394821,101.012405 153.655487,105.359169 150.920181,109.325272 
	C148.458237,112.895004 143.476425,113.967293 139.901840,111.519302 
	C136.640305,109.285690 135.537140,106.030121 136.837219,102.348068 
	C138.490585,97.665428 142.100754,96.246483 147.161316,97.414780 
z"/>
<path fill="#EF5434" opacity="1.000000" stroke="none" 
	d="
M108.254120,65.174423 
	C113.039413,63.363262 116.529671,64.738853 118.815025,68.685684 
	C120.825844,72.158394 120.005051,75.547256 117.123642,78.180420 
	C114.221924,80.832153 110.804764,81.068161 107.443817,79.022636 
	C102.477325,75.999969 102.728447,69.794258 108.254120,65.174423 
z"/>
<path fill="#EF5332" opacity="1.000000" stroke="none" 
	d="
M132.259079,95.314545 
	C128.215408,97.204910 124.350311,97.107544 122.143608,93.653572 
	C120.767830,91.500183 120.087845,87.591148 121.154129,85.540237 
	C122.329948,83.278656 125.909454,80.944016 128.352982,81.034813 
	C130.816177,81.126335 134.016449,83.668739 135.367935,86.015907 
	C137.258240,89.298813 135.774475,92.760330 132.259079,95.314545 
z"/>
<path fill="#2D292A" opacity="1.000000" stroke="none" 
	d="
M373.995300,67.092560 
	C374.236053,68.426323 374.544556,69.414116 374.488678,70.380844 
	C374.278687,74.013458 372.815918,76.834038 368.901550,77.502563 
	C365.374756,78.104904 362.560944,76.759201 361.374176,73.338356 
	C360.167908,69.861259 360.307373,66.253624 363.783203,64.052391 
	C366.858612,62.104763 370.094788,62.362110 372.819458,65.082161 
	C373.274933,65.536865 373.541748,66.180557 373.995300,67.092560 
z"/>
<path fill="#EF5737" opacity="1.000000" stroke="none" 
	d="
M97.247643,80.150055 
	C93.597031,83.444794 90.071457,83.614227 86.918434,80.299644 
	C84.259781,77.504776 84.376595,74.213089 86.888702,71.340569 
	C89.237419,68.654877 92.347580,68.054008 95.386154,69.986427 
	C99.259644,72.449829 99.718704,75.943459 97.247643,80.150055 
z"/>
<path fill="#EF5636" opacity="1.000000" stroke="none" 
	d="
M105.812065,98.441727 
	C101.118256,95.019730 100.054863,91.722275 102.537132,88.348343 
	C104.909576,85.123688 108.477333,83.878273 111.543564,86.429329 
	C113.408951,87.981300 114.865021,91.556015 114.503883,93.915894 
	C113.867653,98.073433 110.368973,99.539146 105.812065,98.441727 
z"/>
<path fill="#EF5433" opacity="1.000000" stroke="none" 
	d="
M146.428894,128.332291 
	C143.431625,131.931091 140.132278,132.557266 136.650848,129.992783 
	C133.778809,127.877197 133.152237,124.855965 134.681580,121.621132 
	C136.263184,118.275787 139.151474,117.435814 142.559479,118.132172 
	C145.993057,118.833755 149.202240,123.485497 146.428894,128.332291 
z"/>
<path fill="#EF5231" opacity="1.000000" stroke="none" 
	d="
M127.690292,102.383675 
	C131.514343,105.181519 132.188583,108.531532 129.980621,112.150467 
	C128.074463,115.274742 124.915298,115.911652 121.695282,114.524109 
	C118.374969,113.093346 117.250412,110.195953 117.954292,106.707748 
	C118.753990,102.744751 121.955704,101.257484 127.690292,102.383675 
z"/>
<path fill="#EF5A3A" opacity="1.000000" stroke="none" 
	d="
M127.467056,129.192825 
	C124.912926,130.425446 122.485550,132.011536 120.132500,131.908035 
	C118.874260,131.852707 116.778877,128.866135 116.809837,127.235611 
	C116.845490,125.358070 118.375076,122.774048 120.024307,121.805916 
	C124.225166,119.339935 127.935684,122.939377 127.467056,129.192825 
z"/>
<path fill="#EF5839" opacity="1.000000" stroke="none" 
	d="
M108.935539,105.818352 
	C109.824760,108.517624 111.066597,111.132454 110.666061,113.465294 
	C110.456551,114.685600 107.215683,116.358482 105.608383,116.110756 
	C103.747070,115.823883 101.415817,113.991043 100.629631,112.230492 
	C98.682129,107.869293 102.838196,104.568153 108.935539,105.818352 
z"/>
<path fill="#EF5939" opacity="1.000000" stroke="none" 
	d="
M143.967087,141.495178 
	C144.451279,146.151947 142.624847,148.698715 138.239746,148.751999 
	C134.924927,148.792267 132.171066,145.461060 133.160873,142.249268 
	C133.711929,140.461197 135.400543,138.403549 137.084656,137.720642 
	C140.104980,136.495911 142.517838,138.135635 143.967087,141.495178 
z"/>
<path fill="#EF5737" opacity="1.000000" stroke="none" 
	d="
M95.068329,96.270615 
	C93.086754,100.208977 89.959824,101.439331 86.870544,99.100906 
	C85.262909,97.884003 83.874634,94.042801 84.648666,92.601234 
	C85.629761,90.774002 88.980659,89.145576 91.181244,89.296959 
	C94.528656,89.527237 95.908722,92.438271 95.068329,96.270615 
z"/>
<path fill="#EF5636" opacity="1.000000" stroke="none" 
	d="
M77.646835,74.597321 
	C77.879379,77.174477 78.576111,79.869225 77.598671,81.639694 
	C76.868195,82.962830 73.777153,83.924149 72.105003,83.521042 
	C70.435081,83.118484 68.375931,80.983414 68.048172,79.303360 
	C67.721588,77.629280 68.908150,74.426445 70.191338,73.952721 
	C72.264145,73.187485 74.959633,74.108917 77.646835,74.597321 
z"/>
<path fill="#F05F40" opacity="1.000000" stroke="none" 
	d="
M90.201302,116.196999 
	C86.681366,117.387840 84.350677,115.930595 83.930832,113.036499 
	C83.701607,111.456429 85.170723,108.874390 86.618027,108.049049 
	C87.748001,107.404671 90.561737,108.235878 91.680725,109.356529 
	C94.015511,111.694809 92.991051,114.151855 90.201302,116.196999 
z"/>
<path fill="#EF5B3C" opacity="1.000000" stroke="none" 
	d="
M122.438202,148.773483 
	C118.344254,149.339539 115.835136,147.607910 116.524384,143.974503 
	C116.824013,142.394974 119.766937,140.948807 121.788147,140.258789 
	C122.519020,140.009277 125.052521,142.174225 125.022346,143.185455 
	C124.967377,145.027679 123.612000,146.831100 122.438202,148.773483 
z"/>
<path fill="#F05D3E" opacity="1.000000" stroke="none" 
	d="
M108.998749,128.079468 
	C107.347984,129.921082 105.866272,132.022415 103.955566,132.539963 
	C103.073433,132.778900 100.341545,129.955597 100.294334,128.462357 
	C100.246086,126.936218 102.690407,123.916397 103.633446,124.069908 
	C105.565071,124.384338 107.222198,126.385086 108.998749,128.079468 
z"/>
<path fill="#EF5939" opacity="1.000000" stroke="none" 
	d="
M75.638489,93.282288 
	C75.355164,95.619453 75.403931,98.125343 74.183594,99.523636 
	C73.478706,100.331329 70.297768,99.932037 69.029541,98.995247 
	C67.997215,98.232689 67.364616,95.501488 67.928467,94.274597 
	C69.585777,90.668488 72.384491,90.247879 75.638489,93.282288 
z"/>
<path fill="#EF5A3A" opacity="1.000000" stroke="none" 
	d="
M141.625763,160.131180 
	C141.372803,163.915115 139.341278,165.935913 136.165787,164.877274 
	C134.672714,164.379501 133.359726,161.640091 133.117996,159.767654 
	C132.985992,158.745117 135.504990,156.266052 136.399429,156.456696 
	C138.275284,156.856491 139.867508,158.586960 141.625763,160.131180 
z"/>
<path fill="#EF5C3C" opacity="1.000000" stroke="none" 
	d="
M51.926201,82.110069 
	C52.294353,79.761597 52.480598,77.468506 53.626125,75.857552 
	C54.123615,75.157928 57.092724,75.274429 58.040745,76.078979 
	C59.181664,77.047218 60.002983,79.212006 59.836246,80.735497 
	C59.454292,84.225502 56.224052,84.833199 51.926201,82.110069 
z"/>
<path fill="#F06042" opacity="1.000000" stroke="none" 
	d="
M118.370651,163.447601 
	C118.418053,161.519913 118.388664,159.663284 119.163872,158.247086 
	C119.422737,157.774170 122.174171,157.953232 122.990456,158.701889 
	C123.777870,159.424057 124.051491,162.235657 123.659569,162.442764 
	C122.171440,163.229156 120.322182,163.332108 118.370651,163.447601 
z"/>
<path fill="#F06548" opacity="1.000000" stroke="none" 
	d="
M58.763115,95.361008 
	C57.682850,96.992638 56.669029,98.522896 55.250027,99.390404 
	C54.876976,99.618477 52.622952,97.940437 52.374523,96.872192 
	C52.126556,95.805901 53.384319,93.318367 53.853260,93.350197 
	C55.491596,93.461388 57.074291,94.392403 58.763115,95.361008 
z"/>
<path fill="#F06345" opacity="1.000000" stroke="none" 
	d="
M90.037094,125.776627 
	C90.294853,127.723679 90.555618,129.551804 90.040764,131.126282 
	C89.894699,131.572937 87.101982,131.813004 86.224121,131.178253 
	C85.326408,130.529144 84.617577,127.823280 84.997650,127.528542 
	C86.303535,126.515846 88.122482,126.164742 90.037094,125.776627 
z"/>
<path fill="#F06548" opacity="1.000000" stroke="none" 
	d="
M101.332550,146.315491 
	C102.046532,144.472229 102.711784,142.722214 103.941444,141.579575 
	C104.291359,141.254425 106.861885,142.409744 107.355598,143.409088 
	C107.831589,144.372559 107.130424,147.065262 106.614639,147.158279 
	C104.993019,147.450684 103.215302,146.877380 101.332550,146.315491 
z"/>
<path fill="#F06143" opacity="1.000000" stroke="none" 
	d="
M69.858841,109.517830 
	C71.765747,110.006454 73.564774,110.472336 74.828651,111.560036 
	C75.180283,111.862656 74.273239,114.405205 73.333313,115.173241 
	C72.641891,115.738235 70.011314,115.364906 69.882660,114.927727 
	C69.404564,113.303123 69.603806,111.479179 69.858841,109.517830 
z"/>
<path fill="#FAFAFA" opacity="1.000000" stroke="none" 
	d="
M330.030640,139.993393 
	C330.030640,141.651749 329.814606,142.866577 330.065491,143.975815 
	C331.769012,151.507401 327.313354,155.420929 321.545990,158.452118 
	C314.962677,161.912125 308.119049,162.696823 301.561615,158.662796 
	C293.509644,153.709320 293.981537,141.573761 303.023926,137.488693 
	C311.219849,133.786011 320.313629,132.070740 330.030640,129.175568 
	C330.030640,133.669632 330.030640,136.585312 330.030640,139.993393 
z"/>
<path fill="#FFFCFC" opacity="1.000000" stroke="none" 
	d="
M729.024170,124.295700 
	C724.897034,124.295807 721.264465,124.295807 717.619202,124.295807 
	C718.221863,109.610748 732.350037,99.339348 745.948303,103.273338 
	C753.235535,105.381546 758.929810,114.011391 757.601257,121.515556 
	C757.405518,122.621437 755.250916,124.132385 753.964233,124.170799 
	C745.821716,124.413879 737.668457,124.295013 729.024170,124.295700 
z"/>
<path fill="#FFFBFA" opacity="1.000000" stroke="none" 
	d="
M645.007568,131.584930 
	C645.996155,132.779114 646.875732,133.994324 646.950012,135.256866 
	C647.154480,138.734177 647.022217,142.231293 647.022217,145.720581 
	C647.022339,153.434692 644.125916,157.269730 635.861816,160.499054 
	C628.343933,163.436813 620.377014,162.148651 615.941223,157.278137 
	C610.494812,151.297913 612.051147,141.857239 620.182434,138.128632 
	C626.855347,135.068741 634.391418,133.883469 641.559509,131.920502 
	C642.505859,131.661346 643.538513,131.717453 645.007568,131.584930 
z"/>
</svg>