<svg version="1.1" id="Layer_1" xmlns="http://www.w3.org/2000/svg" xmlns:xlink="http://www.w3.org/1999/xlink" x="0px" y="0px"
	 width="100%" viewBox="1.000011 1.000016 261.99997 83.999985" enable-background="new 0 0 262 84" xml:space="preserve">
<path fill="#FEFEFE" opacity="1.000000" stroke="none" 
	d="
M192.000000,85.000000 
	C128.000015,85.000000 64.500031,85.000000 1.000034,85.000000 
	C1.000023,57.000023 1.000023,29.000044 1.000011,1.000049 
	C88.333290,1.000033 175.666580,1.000033 262.999908,1.000016 
	C262.999939,28.999952 262.999939,56.999905 262.999969,84.999924 
	C239.500000,85.000000 216.000000,85.000000 192.000000,85.000000 
M33.747681,61.139832 
	C34.330677,61.436718 34.927994,62.015446 35.494450,61.986671 
	C40.855904,61.714344 46.219524,61.416748 51.561916,60.909424 
	C52.373394,60.832367 53.079304,59.643635 53.995892,58.048233 
	C53.999222,52.001091 54.109768,45.950588 53.920521,39.909477 
	C53.879925,38.613544 52.754387,37.351597 51.903339,35.521210 
	C51.594135,35.279541 51.284931,35.037872 50.788994,34.031277 
	C46.590210,33.668652 42.391426,33.306026 37.378941,32.862637 
	C36.586304,32.745350 35.793667,32.628063 34.750744,32.249390 
	C34.572948,32.066265 34.356461,31.972589 33.166328,31.983963 
	C29.434004,32.322651 25.701679,32.661339 22.001858,33.002087 
	C22.001858,33.002087 22.001955,32.969524 21.340984,33.303139 
	C20.556129,36.559448 19.389898,39.780193 19.082043,43.080990 
	C18.688805,47.297234 18.988329,51.578094 18.307098,56.270004 
	C17.330074,59.691586 18.554441,61.211666 22.165266,61.027592 
	C25.770847,60.843792 29.388292,60.892765 33.747681,61.139832 
M185.534241,29.969795 
	C184.103699,30.064304 182.673141,30.158815 181.377060,30.244442 
	C181.377060,39.052357 181.377060,47.448441 181.377060,56.015850 
	C184.214066,56.015850 186.713242,56.158360 189.191299,55.989994 
	C197.724823,55.410210 202.769104,49.409073 202.022003,40.867016 
	C201.360306,33.301136 196.705414,30.039759 185.534241,29.969795 
M80.692474,56.031841 
	C81.420364,54.729832 82.727608,53.449337 82.776894,52.122131 
	C83.002640,46.042934 82.876144,39.950665 82.876144,33.942024 
	C89.628990,33.281269 89.628990,33.281269 89.656715,30.200493 
	C83.749435,30.200493 77.845108,30.200493 71.769775,30.200493 
	C71.389412,36.279163 76.866905,31.898996 78.779694,35.035229 
	C78.779694,38.340134 78.648857,42.459957 78.822060,46.566963 
	C78.955002,49.719582 79.471214,52.856041 80.692474,56.031841 
M144.912918,50.468895 
	C146.674622,54.775173 150.283310,56.801830 154.419067,55.785915 
	C157.234360,55.094360 160.408005,52.815052 161.853516,50.332703 
	C163.848068,46.907539 163.097977,42.788723 159.744904,39.993649 
	C156.479324,37.271523 152.657791,37.257538 149.021149,39.135841 
	C144.706070,41.364567 143.775757,45.219761 144.912918,50.468895 
M96.129501,52.604897 
	C94.986969,51.355583 93.844429,50.106270 91.759720,47.826733 
	C97.277695,47.826733 101.044922,47.826733 104.769005,47.826733 
	C105.319626,41.654469 103.055962,38.370937 98.235664,37.981167 
	C93.616341,37.607639 89.527580,41.068371 88.972664,45.821369 
	C88.308853,51.507061 91.308266,55.500900 96.621185,56.005653 
	C100.913452,56.413441 103.208008,55.074455 103.559654,52.066196 
	C101.349655,52.318783 99.115250,52.574158 96.129501,52.604897 
M109.024284,40.901852 
	C109.022652,55.225285 109.022652,55.225285 112.143234,55.615772 
	C112.143234,52.278503 111.497818,48.799606 112.379440,45.764225 
	C112.929581,43.870094 115.784500,42.645378 117.605133,41.120258 
	C118.738945,42.704346 120.441322,44.150616 120.866913,45.906376 
	C121.437218,48.259132 120.734047,50.900440 121.149696,53.319569 
	C121.348335,54.475658 122.864769,55.405323 123.784325,56.437546 
	C124.186218,56.105827 124.588120,55.774105 124.990013,55.442387 
	C124.990013,52.144958 124.995903,48.847515 124.985062,45.550121 
	C124.982887,44.887726 124.976990,44.215809 124.871155,43.564804 
	C124.068382,38.627113 120.103279,36.615135 115.711029,38.942833 
	C114.729553,39.462978 113.849953,40.175346 112.905769,40.811115 
	C110.935097,37.265369 110.935097,37.265369 109.024284,40.901852 
M237.751862,49.895790 
	C237.751862,47.106750 237.751862,44.317711 237.751862,42.160511 
	C239.548279,41.042740 240.765869,40.285122 241.983459,39.527508 
	C240.648117,38.705345 239.312775,37.883179 237.850616,36.982941 
	C237.736969,35.972279 237.596512,34.723186 237.270508,31.824089 
	C234.476379,35.047001 232.546143,37.218098 230.729355,39.480282 
	C230.592667,39.650494 231.285736,40.459599 231.556885,40.990208 
	C232.260315,42.366684 233.307388,43.692711 233.550842,45.150200 
	C233.930038,47.420429 233.212250,49.990681 233.993027,52.039925 
	C234.613205,53.667648 236.606567,55.126919 238.330002,55.841076 
	C239.300613,56.243282 240.959259,54.985092 242.610672,54.360371 
	C240.375977,52.670326 239.094498,51.701180 237.751862,49.895790 
M214.622498,46.715420 
	C215.174744,53.051018 218.282486,56.296371 223.782364,55.988293 
	C226.063217,55.860527 228.925812,55.884026 228.465363,53.429504 
	C224.933807,52.373230 221.817780,52.202782 219.920334,50.594593 
	C218.739075,49.593422 218.432419,45.338123 219.434174,44.439602 
	C221.615540,42.483009 224.885056,41.739613 228.467987,40.167812 
	C227.598862,39.633686 226.325287,38.274872 224.888458,38.071922 
	C219.806976,37.354172 216.244812,40.280121 214.622498,46.715420 
M133.533630,48.060432 
	C134.788361,49.273186 136.043076,50.485939 137.297791,51.698692 
	C134.624390,52.084221 131.950989,52.469749 129.255600,52.858448 
	C129.694397,55.974731 133.060654,57.390636 137.601105,55.237518 
	C139.270660,54.445808 141.145813,52.443542 141.374130,50.780254 
	C141.554672,49.465004 139.521957,47.654552 138.178116,46.372105 
	C136.658035,44.921490 134.809677,43.814877 133.104080,42.558678 
	C135.385010,42.138050 137.669189,41.733532 139.942291,41.274155 
	C140.195145,41.223057 140.384888,40.859695 141.744339,39.503124 
	C138.916504,38.903057 136.679260,37.743217 134.881622,38.224670 
	C132.755753,38.794041 129.989990,40.461647 129.428970,42.255848 
	C128.999146,43.630482 131.560852,45.940521 133.533630,48.060432 
M169.056946,37.978638 
	C168.402710,38.315536 167.187881,38.637566 167.178497,38.991562 
	C167.042252,44.127323 166.944153,49.273563 167.201431,54.398998 
	C167.235825,55.084251 169.263809,55.669434 171.079041,56.707058 
	C171.079041,53.322186 171.075394,51.190979 171.079865,49.059788 
	C171.087128,45.598064 171.155045,42.281200 175.939194,41.875118 
	C176.472809,41.829826 176.820801,39.597614 177.254883,38.379601 
	C176.900467,38.149052 176.546066,37.918503 176.191666,37.687954 
	C174.548584,38.546360 172.905518,39.404766 171.564072,40.105591 
	C170.968231,39.366165 170.419189,38.684799 169.056946,37.978638 
M206.147293,46.518093 
	C206.147659,48.676010 206.239410,50.838699 206.127029,52.990726 
	C205.957932,56.228806 207.482483,56.521103 209.909210,55.649563 
	C209.909210,49.634769 209.909210,43.896065 209.909210,38.157356 
	C209.486008,37.902725 209.062790,37.648090 208.639587,37.393456 
	C207.809982,38.456562 206.574844,39.410534 206.252045,40.610031 
	C205.835419,42.158157 206.148483,43.902653 206.147293,46.518093 
z"/>
<path fill="#F3EAF7" opacity="1.000000" stroke="none" 
	d="
M34.101280,31.968369 
	C34.356461,31.972589 34.572948,32.066265 34.871071,32.846107 
	C35.324829,40.949604 35.658260,48.456379 35.749649,55.972488 
	C35.507610,55.981819 35.026051,55.929073 34.745346,55.618469 
	C31.831047,55.181828 29.188839,54.861671 26.566017,54.978134 
	C23.172276,55.128830 21.752832,53.865585 21.877165,50.366302 
	C22.083004,44.573212 21.976728,38.769032 22.001955,32.969524 
	C22.001955,32.969524 22.001858,33.002087 22.445095,33.030487 
	C26.625982,32.695381 30.363630,32.331875 34.101280,31.968369 
z"/>
<path fill="#F2EAF6" opacity="1.000000" stroke="none" 
	d="
M38.192642,32.943405 
	C42.391426,33.306026 46.590210,33.668652 50.878448,34.902618 
	C50.969185,39.593719 50.971909,43.413479 50.971447,47.233242 
	C50.970516,54.950588 50.969772,54.942577 43.008816,54.973061 
	C41.350006,54.979412 39.691525,55.069180 37.723240,54.819859 
	C37.673275,47.327274 37.932957,40.135342 38.192642,32.943405 
z"/>
<path fill="#332B37" opacity="1.000000" stroke="none" 
	d="
M186.001465,29.969791 
	C196.705414,30.039759 201.360306,33.301136 202.022003,40.867016 
	C202.769104,49.409073 197.724823,55.410210 189.191299,55.989994 
	C186.713242,56.158360 184.214066,56.015850 181.377060,56.015850 
	C181.377060,47.448441 181.377060,39.052357 181.377060,30.244442 
	C182.673141,30.158815 184.103699,30.064304 186.001465,29.969791 
M186.675644,33.533890 
	C186.175308,33.888359 185.244492,34.236172 185.238892,34.598293 
	C185.148071,40.470459 185.174622,46.344448 185.174622,52.140221 
	C192.610168,52.821495 195.810776,51.223381 197.336670,46.430435 
	C199.771774,38.781578 196.148865,34.016224 186.675644,33.533890 
z"/>
<path fill="#293544" opacity="1.000000" stroke="none" 
	d="
M80.254723,56.015762 
	C79.471214,52.856041 78.955002,49.719582 78.822060,46.566963 
	C78.648857,42.459957 78.779694,38.340134 78.779694,35.035229 
	C76.866905,31.898996 71.389412,36.279163 71.769775,30.200493 
	C77.845108,30.200493 83.749435,30.200493 89.656715,30.200493 
	C89.628990,33.281269 89.628990,33.281269 82.876144,33.942024 
	C82.876144,39.950665 83.002640,46.042934 82.776894,52.122131 
	C82.727608,53.449337 81.420364,54.729832 80.254723,56.015762 
z"/>
<path fill="#333339" opacity="1.000000" stroke="none" 
	d="
M144.821274,50.092575 
	C143.775757,45.219761 144.706070,41.364567 149.021149,39.135841 
	C152.657791,37.257538 156.479324,37.271523 159.744904,39.993649 
	C163.097977,42.788723 163.848068,46.907539 161.853516,50.332703 
	C160.408005,52.815052 157.234360,55.094360 154.419067,55.785915 
	C150.283310,56.801830 146.674622,54.775173 144.821274,50.092575 
M158.522018,48.900513 
	C158.820847,42.832012 155.640579,39.376930 151.642944,41.736687 
	C150.003708,42.704311 148.320465,45.425156 148.498184,47.159878 
	C148.700073,49.130760 150.665115,51.931797 152.416901,52.431068 
	C153.973892,52.874825 156.287277,50.664577 158.522018,48.900513 
z"/>
<path fill="#342F36" opacity="1.000000" stroke="none" 
	d="
M96.505173,52.717213 
	C99.115250,52.574158 101.349655,52.318783 103.559654,52.066196 
	C103.208008,55.074455 100.913452,56.413441 96.621185,56.005653 
	C91.308266,55.500900 88.308853,51.507061 88.972664,45.821369 
	C89.527580,41.068371 93.616341,37.607639 98.235664,37.981167 
	C103.055962,38.370937 105.319626,41.654469 104.769005,47.826733 
	C101.044922,47.826733 97.277695,47.826733 91.759720,47.826733 
	C93.844429,50.106270 94.986969,51.355583 96.505173,52.717213 
M98.399963,44.991344 
	C99.262993,44.756062 100.126022,44.520779 100.989059,44.285492 
	C100.627487,43.440399 100.499443,42.170940 99.864952,41.821793 
	C96.684700,40.071732 94.439560,41.084347 92.803360,44.991711 
	C94.717224,44.991711 96.128105,44.991711 98.399963,44.991344 
z"/>
<path fill="#3B2635" opacity="1.000000" stroke="none" 
	d="
M109.025894,40.454403 
	C110.935097,37.265369 110.935097,37.265369 112.905769,40.811115 
	C113.849953,40.175346 114.729553,39.462978 115.711029,38.942833 
	C120.103279,36.615135 124.068382,38.627113 124.871155,43.564804 
	C124.976990,44.215809 124.982887,44.887726 124.985062,45.550121 
	C124.995903,48.847515 124.990013,52.144958 124.990013,55.442387 
	C124.588120,55.774105 124.186218,56.105827 123.784325,56.437546 
	C122.864769,55.405323 121.348335,54.475658 121.149696,53.319569 
	C120.734047,50.900440 121.437218,48.259132 120.866913,45.906376 
	C120.441322,44.150616 118.738945,42.704346 117.605133,41.120258 
	C115.784500,42.645378 112.929581,43.870094 112.379440,45.764225 
	C111.497818,48.799606 112.143234,52.278503 112.143234,55.615772 
	C109.022652,55.225285 109.022652,55.225285 109.025894,40.454403 
z"/>
<path fill="#243344" opacity="1.000000" stroke="none" 
	d="
M237.782440,50.313911 
	C239.094498,51.701180 240.375977,52.670326 242.610672,54.360371 
	C240.959259,54.985092 239.300613,56.243282 238.330002,55.841076 
	C236.606567,55.126919 234.613205,53.667648 233.993027,52.039925 
	C233.212250,49.990681 233.930038,47.420429 233.550842,45.150200 
	C233.307388,43.692711 232.260315,42.366684 231.556885,40.990208 
	C231.285736,40.459599 230.592667,39.650494 230.729355,39.480282 
	C232.546143,37.218098 234.476379,35.047001 237.270508,31.824089 
	C237.596512,34.723186 237.736969,35.972279 237.850616,36.982941 
	C239.312775,37.883179 240.648117,38.705345 241.983459,39.527508 
	C240.765869,40.285122 239.548279,41.042740 237.751862,42.160511 
	C237.751862,44.317711 237.751862,47.106750 237.782440,50.313911 
z"/>
<path fill="#353338" opacity="1.000000" stroke="none" 
	d="
M214.665421,46.341644 
	C216.244812,40.280121 219.806976,37.354172 224.888458,38.071922 
	C226.325287,38.274872 227.598862,39.633686 228.467987,40.167812 
	C224.885056,41.739613 221.615540,42.483009 219.434174,44.439602 
	C218.432419,45.338123 218.739075,49.593422 219.920334,50.594593 
	C221.817780,52.202782 224.933807,52.373230 228.465363,53.429504 
	C228.925812,55.884026 226.063217,55.860527 223.782364,55.988293 
	C218.282486,56.296371 215.174744,53.051018 214.665421,46.341644 
z"/>
<path fill="#30303A" opacity="1.000000" stroke="none" 
	d="
M133.162811,47.947479 
	C131.560852,45.940521 128.999146,43.630482 129.428970,42.255848 
	C129.989990,40.461647 132.755753,38.794041 134.881622,38.224670 
	C136.679260,37.743217 138.916504,38.903057 141.744339,39.503124 
	C140.384888,40.859695 140.195145,41.223057 139.942291,41.274155 
	C137.669189,41.733532 135.385010,42.138050 133.104080,42.558678 
	C134.809677,43.814877 136.658035,44.921490 138.178116,46.372105 
	C139.521957,47.654552 141.554672,49.465004 141.374130,50.780254 
	C141.145813,52.443542 139.270660,54.445808 137.601105,55.237518 
	C133.060654,57.390636 129.694397,55.974731 129.255600,52.858448 
	C131.950989,52.469749 134.624390,52.084221 137.297791,51.698692 
	C136.043076,50.485939 134.788361,49.273186 133.162811,47.947479 
z"/>
<path fill="#BBADC0" opacity="1.000000" stroke="none" 
	d="
M21.671471,33.136330 
	C21.976728,38.769032 22.083004,44.573212 21.877165,50.366302 
	C21.752832,53.865585 23.172276,55.128830 26.566017,54.978134 
	C29.188839,54.861671 31.831047,55.181828 34.736076,55.878082 
	C35.002674,56.620426 34.997837,56.792561 34.694595,57.013641 
	C33.907902,57.358360 33.419617,57.654133 32.477341,57.962521 
	C27.657543,57.388855 22.826208,59.632599 18.989283,55.831104 
	C18.988329,51.578094 18.688805,47.297234 19.082043,43.080990 
	C19.389898,39.780193 20.556129,36.559448 21.671471,33.136330 
z"/>
<path fill="#3A2635" opacity="1.000000" stroke="none" 
	d="
M169.463531,37.991035 
	C170.419189,38.684799 170.968231,39.366165 171.564072,40.105591 
	C172.905518,39.404766 174.548584,38.546360 176.191666,37.687954 
	C176.546066,37.918503 176.900467,38.149052 177.254883,38.379601 
	C176.820801,39.597614 176.472809,41.829826 175.939194,41.875118 
	C171.155045,42.281200 171.087128,45.598064 171.079865,49.059788 
	C171.075394,51.190979 171.079041,53.322186 171.079041,56.707058 
	C169.263809,55.669434 167.235825,55.084251 167.201431,54.398998 
	C166.944153,49.273563 167.042252,44.127323 167.178497,38.991562 
	C167.187881,38.637566 168.402710,38.315536 169.463531,37.991035 
z"/>
<path fill="#433328" opacity="1.000000" stroke="none" 
	d="
M206.147308,46.040337 
	C206.148483,43.902653 205.835419,42.158157 206.252045,40.610031 
	C206.574844,39.410534 207.809982,38.456562 208.639587,37.393456 
	C209.062790,37.648090 209.486008,37.902725 209.909210,38.157356 
	C209.909210,43.896065 209.909210,49.634769 209.909210,55.649563 
	C207.482483,56.521103 205.957932,56.228806 206.127029,52.990726 
	C206.239410,50.838699 206.147659,48.676010 206.147308,46.040337 
z"/>
<path fill="#A5A8C1" opacity="1.000000" stroke="none" 
	d="
M38.032890,55.120506 
	C39.691525,55.069180 41.350006,54.979412 43.008816,54.973061 
	C50.969772,54.942577 50.970516,54.950588 50.971447,47.233242 
	C50.971909,43.413479 50.969185,39.593719 50.971813,35.285080 
	C51.284931,35.037872 51.594135,35.279541 52.152298,36.181801 
	C52.549038,42.472931 52.914913,48.113110 52.667034,53.726173 
	C52.615280,54.898090 50.408840,56.731586 49.000950,56.938698 
	C45.413738,57.466385 41.716633,57.247036 37.780922,57.230312 
	C37.312237,57.065006 37.126133,56.996014 37.067238,56.694233 
	C37.473923,56.014462 37.753407,55.567486 38.032890,55.120506 
z"/>
<path fill="#12A4EC" opacity="1.000000" stroke="none" 
	d="
M38.063503,57.326630 
	C41.716633,57.247036 45.413738,57.466385 49.000950,56.938698 
	C50.408840,56.731586 52.615280,54.898090 52.667034,53.726173 
	C52.914913,48.113110 52.549038,42.472931 52.264946,36.458191 
	C52.754387,37.351597 53.879925,38.613544 53.920521,39.909477 
	C54.109768,45.950588 53.999222,52.001091 53.459454,58.519562 
	C49.477577,58.996178 46.020325,59.170177 42.592056,58.930195 
	C41.052666,58.822433 39.571236,57.886669 38.063503,57.326630 
z"/>
<path fill="#0399E8" opacity="1.000000" stroke="none" 
	d="
M18.648190,56.050552 
	C22.826208,59.632599 27.657543,57.388855 32.726215,58.075424 
	C33.286232,59.063709 33.143383,59.951698 33.000538,60.839691 
	C29.388292,60.892765 25.770847,60.843792 22.165266,61.027592 
	C18.554441,61.211666 17.330074,59.691586 18.648190,56.050552 
z"/>
<path fill="#0E8CDA" opacity="1.000000" stroke="none" 
	d="
M33.374107,60.989761 
	C33.143383,59.951698 33.286232,59.063709 33.180202,58.062813 
	C33.419617,57.654133 33.907902,57.358360 34.956421,57.055496 
	C35.690266,57.015759 35.863873,56.983116 36.263962,56.977009 
	C36.490440,57.003540 36.940033,56.927025 36.940033,56.927025 
	C37.126133,56.996014 37.312237,57.065006 37.780922,57.230309 
	C39.571236,57.886669 41.052666,58.822433 42.592056,58.930195 
	C46.020325,59.170177 49.477577,58.996178 53.378532,58.979988 
	C53.079304,59.643635 52.373394,60.832367 51.561916,60.909424 
	C46.219524,61.416748 40.855904,61.714344 35.494450,61.986671 
	C34.927994,62.015446 34.330677,61.436718 33.374107,60.989761 
z"/>
<path fill="#C9BECF" opacity="1.000000" stroke="none" 
	d="
M37.067238,56.694233 
	C36.940033,56.927025 36.490440,57.003540 36.244442,56.730804 
	C35.998444,56.458069 35.991688,55.963158 35.991688,55.963158 
	C35.658260,48.456379 35.324829,40.949604 34.996216,32.976799 
	C35.793667,32.628063 36.586304,32.745350 37.785789,32.903023 
	C37.932957,40.135342 37.673275,47.327274 37.723240,54.819859 
	C37.753407,55.567486 37.473923,56.014462 37.067238,56.694233 
z"/>
<path fill="#BBADC0" opacity="1.000000" stroke="none" 
	d="
M33.633804,31.976166 
	C30.363630,32.331875 26.625982,32.695381 22.428844,33.029457 
	C25.701679,32.661339 29.434004,32.322651 33.633804,31.976166 
z"/>
<path fill="#A5A8C1" opacity="1.000000" stroke="none" 
	d="
M35.749649,55.972488 
	C35.991688,55.963158 35.998444,56.458069 36.017963,56.704273 
	C35.863873,56.983116 35.690266,57.015759 35.254829,57.006550 
	C34.997837,56.792561 35.002674,56.620426 35.016781,56.188683 
	C35.026051,55.929073 35.507610,55.981819 35.749649,55.972488 
z"/>
<path fill="#F4F6F4" opacity="1.000000" stroke="none" 
	d="
M187.088959,33.514370 
	C196.148865,34.016224 199.771774,38.781578 197.336670,46.430435 
	C195.810776,51.223381 192.610168,52.821495 185.174622,52.140221 
	C185.174622,46.344448 185.148071,40.470459 185.238892,34.598293 
	C185.244492,34.236172 186.175308,33.888359 187.088959,33.514370 
z"/>
<path fill="#F3F4F3" opacity="1.000000" stroke="none" 
	d="
M158.394409,49.263138 
	C156.287277,50.664577 153.973892,52.874825 152.416901,52.431068 
	C150.665115,51.931797 148.700073,49.130760 148.498184,47.159878 
	C148.320465,45.425156 150.003708,42.704311 151.642944,41.736687 
	C155.640579,39.376930 158.820847,42.832012 158.394409,49.263138 
z"/>
<path fill="#F2F5F2" opacity="1.000000" stroke="none" 
	d="
M97.969475,44.991528 
	C96.128105,44.991711 94.717224,44.991711 92.803360,44.991711 
	C94.439560,41.084347 96.684700,40.071732 99.864952,41.821793 
	C100.499443,42.170940 100.627487,43.440399 100.989059,44.285492 
	C100.126022,44.520779 99.262993,44.756062 97.969475,44.991528 
z"/>
</svg>