<svg version="1.1" id="Layer_1" xmlns="http://www.w3.org/2000/svg" xmlns:xlink="http://www.w3.org/1999/xlink" x="0px" y="0px"
	 width="100%" viewBox="1 1 1272 170" enable-background="new 0 0 1272 170" xml:space="preserve">
<path fill="#FFFFFF" opacity="1.000000" stroke="none" 
	d="
M1273.000000,148.000000 
	C1273.000000,155.663834 1273.000000,163.327682 1273.000000,170.995758 
	C890.644043,171.000000 508.288055,171.000000 125.623749,170.617126 
	C141.233795,168.893906 155.215302,162.345261 168.472595,153.991669 
	C191.938751,139.205307 211.808014,120.112450 231.580338,100.922272 
	C236.505722,96.141914 236.575638,91.852623 231.532669,87.075874 
	C223.150955,79.136620 214.480301,71.502419 206.097794,63.563976 
	C193.862106,51.976452 180.720642,41.581116 166.309357,32.842316 
	C153.764984,25.235565 140.381165,19.588465 125.696251,18.081852 
	C105.400513,15.999594 87.018059,22.388969 69.962914,32.662868 
	C50.248028,44.538986 33.091434,59.714222 16.708204,75.781441 
	C11.503241,80.886009 6.237781,85.928894 1.000002,91.000000 
	C1.000000,61.013035 1.000000,31.026072 1.000000,1.000000 
	C302.355957,1.000000 603.711914,1.000000 905.418396,1.328818 
	C904.133728,3.000242 902.232178,4.125090 900.919373,5.731168 
	C898.251282,8.995182 898.536743,14.766056 901.213623,18.521004 
	C903.038940,21.081493 910.043335,23.188066 913.464478,21.737883 
	C917.450012,20.048441 919.859680,17.203182 920.121155,12.366650 
	C920.432739,6.605537 917.840210,3.241975 913.000000,1.000000 
	C954.022644,1.000000 995.045349,1.000000 1036.415649,1.331323 
	C1032.048462,3.802132 1030.647339,7.613380 1030.958740,12.529765 
	C1031.261353,17.306551 1034.365845,21.409407 1038.660034,21.968452 
	C1044.098145,22.676401 1049.658447,20.375912 1051.092407,15.698585 
	C1052.810425,10.094309 1051.893799,6.053514 1045.000000,1.000000 
	C1120.890381,1.000000 1196.780762,1.000000 1273.000000,1.000000 
	C1273.000000,24.688292 1273.000000,48.378105 1272.642822,72.414001 
	C1271.858398,71.913231 1271.238037,71.110344 1271.033691,70.212753 
	C1268.841309,60.581856 1263.650146,53.438213 1254.526855,49.144566 
	C1246.890747,45.550858 1238.775635,45.249752 1230.835083,46.220963 
	C1224.719116,46.969032 1218.672852,49.299187 1212.928345,51.716522 
	C1209.141602,53.310047 1205.945312,56.306595 1202.000000,59.006561 
	C1202.000000,56.701378 1202.002808,55.369915 1201.999512,54.038471 
	C1201.985474,48.558636 1200.061035,46.117771 1195.667969,46.004360 
	C1190.168213,45.862377 1188.001343,48.184475 1188.000854,54.241764 
	C1187.998901,83.901688 1187.997070,113.561607 1188.002319,143.221527 
	C1188.003418,149.321259 1189.621338,150.994614 1195.454834,151.000000 
	C1201.348999,151.005447 1202.995117,149.343994 1202.997192,143.311783 
	C1203.004395,122.149933 1203.128662,100.986671 1202.897949,79.827339 
	C1202.848145,75.265244 1204.440796,71.950485 1207.512695,68.974770 
	C1213.231567,63.435135 1220.068481,60.405674 1227.961060,59.476440 
	C1236.109375,58.517109 1243.645630,59.829456 1249.873169,65.439278 
	C1256.661011,71.553719 1257.732910,80.051773 1257.890015,88.391884 
	C1258.241577,107.047676 1258.017822,125.714684 1257.987183,144.377060 
	C1257.979858,148.878281 1260.125122,150.778015 1264.603638,151.101532 
	C1268.065796,151.351624 1270.643799,150.230698 1273.000000,148.000000 
M643.501221,102.000000 
	C659.818542,101.999985 676.135986,101.958633 692.453003,102.031326 
	C696.161438,102.047852 698.633667,100.522476 698.923279,96.854630 
	C699.262512,92.558067 699.350159,88.181519 698.945801,83.896385 
	C696.736450,60.482895 682.468140,47.067963 660.719788,45.199085 
	C639.170776,43.347340 621.269958,53.821217 613.926758,76.197220 
	C609.606567,89.361717 609.644592,102.912827 612.313599,116.070648 
	C615.041260,129.517563 622.339294,140.707169 635.500732,146.818344 
	C646.294434,151.830109 657.480286,153.076477 669.321899,151.162567 
	C678.894592,149.615387 687.509338,146.561996 694.581421,139.871796 
	C698.856079,135.827957 699.045227,133.036789 695.834229,129.348495 
	C692.825989,125.893204 690.380371,125.963799 685.722168,129.784973 
	C670.410706,142.345169 644.547485,142.461121 633.342896,125.793388 
	C628.595032,118.730659 625.840515,110.968918 626.050659,102.000000 
	C631.889282,102.000000 637.195618,102.000000 643.501221,102.000000 
M1167.558472,80.063667 
	C1163.050537,64.405205 1154.162354,52.891056 1137.949097,47.882904 
	C1128.670044,45.016659 1119.367554,44.137486 1109.864746,46.028454 
	C1095.728882,48.841385 1084.587891,55.726379 1077.495361,68.851959 
	C1069.434937,83.768921 1069.583252,99.549004 1072.359741,115.368629 
	C1074.615723,128.222198 1081.975342,138.441071 1093.081421,145.472519 
	C1102.914185,151.697845 1114.025635,152.686569 1125.335571,151.977081 
	C1137.547974,151.210983 1148.291626,146.782867 1156.646851,137.745926 
	C1165.676147,127.980087 1169.368408,115.795288 1169.828857,102.845871 
	C1170.088623,95.536316 1168.621338,88.165375 1167.558472,80.063667 
M410.050232,148.295990 
	C412.644043,152.588928 417.008698,151.470840 420.287628,150.520660 
	C422.029541,150.015915 423.844238,146.135605 423.837555,143.784103 
	C423.770294,120.044830 424.017365,96.269234 422.724731,72.583061 
	C422.025879,59.777142 416.418030,52.622887 403.947937,48.076160 
	C394.719269,44.711273 385.001221,44.685474 375.519501,46.178623 
	C366.912781,47.533981 358.622986,50.434196 351.906158,56.568302 
	C348.842621,59.366058 347.444733,62.316303 350.411621,65.910454 
	C353.662811,69.849030 356.036621,70.112679 360.511932,66.935982 
	C368.321472,61.392517 376.790344,58.670288 386.525940,58.898529 
	C404.738739,59.325516 408.488586,70.876427 408.863068,84.914215 
	C408.889771,85.915535 407.121307,87.709534 406.002869,87.873291 
	C399.702179,88.795761 393.305176,89.076591 387.015717,90.055977 
	C375.803253,91.801979 365.033691,94.697121 355.178009,100.878105 
	C339.217865,110.887482 341.508484,137.721451 354.931030,145.653351 
	C366.222931,152.326187 377.934601,153.600189 390.099152,150.246765 
	C396.665344,148.436691 402.761261,144.920761 408.703766,142.333588 
	C409.036652,143.736328 409.481720,145.611816 410.050232,148.295990 
M940.000000,71.640823 
	C938.929260,82.263802 943.267029,90.154167 952.554260,95.056145 
	C958.293152,98.085274 964.424255,100.371544 970.380981,102.987602 
	C977.204895,105.984512 984.302856,108.490448 990.777649,112.111221 
	C997.034485,115.610146 998.425476,123.606537 994.870178,129.935669 
	C991.024841,136.781174 977.347839,139.514221 971.264160,138.695221 
	C962.776672,137.552612 955.655579,133.475662 948.473206,129.214142 
	C946.536377,128.064957 942.986816,127.731331 941.199463,128.774414 
	C939.453857,129.793121 937.767517,133.402710 938.289124,135.241135 
	C939.097534,138.090622 941.291626,141.184891 943.787048,142.813644 
	C959.273560,152.921768 976.020874,154.994110 993.423157,148.720383 
	C1003.652161,145.032669 1010.292786,137.394638 1011.864136,126.581581 
	C1013.649292,114.297089 1009.063416,104.527893 997.542542,98.959808 
	C990.699646,95.652657 983.538330,93.008629 976.552673,89.991112 
	C971.202393,87.680000 965.577026,85.781036 960.654602,82.754433 
	C952.565491,77.780800 952.951904,67.803505 960.877625,62.527416 
	C967.394836,58.188976 974.800903,57.816681 981.738220,59.595055 
	C988.534424,61.337254 994.867737,65.013954 1001.266113,68.125679 
	C1004.540894,69.718285 1006.869873,69.103638 1009.070496,66.442863 
	C1011.372742,63.659138 1011.681702,60.789455 1009.388916,57.988140 
	C1007.925354,56.199894 1006.310608,54.326744 1004.359192,53.179310 
	C988.264404,43.715424 971.363586,42.275745 954.412659,50.105801 
	C946.123657,53.934681 940.177124,60.617897 940.000000,71.640823 
M477.759247,59.000019 
	C481.211639,59.191010 484.930969,58.625851 488.060791,59.730663 
	C494.543976,62.019207 500.780487,65.057709 506.985931,68.061562 
	C510.374542,69.701866 512.893616,69.189636 515.185120,66.327034 
	C517.599182,63.311352 517.664917,60.356331 514.985779,57.565193 
	C513.399841,55.912991 511.717896,54.267048 509.815948,53.019405 
	C502.750610,48.384518 494.977386,46.503311 486.486115,45.773102 
	C475.750458,44.849888 465.942108,46.282459 456.800964,52.020237 
	C444.679474,59.628754 442.667023,77.681602 449.859619,87.597343 
	C454.647675,94.198181 461.657196,96.995079 468.615753,99.954849 
	C476.764252,103.420715 485.208893,106.209419 493.268707,109.858223 
	C498.935760,112.423828 503.310181,116.743416 502.920013,123.630020 
	C502.552002,130.125839 498.360870,134.443375 492.674988,136.594284 
	C485.597839,139.271454 478.024231,140.158859 470.783478,137.195557 
	C465.165894,134.896545 459.999603,131.505844 454.411194,129.118958 
	C452.245544,128.193954 449.031158,127.832115 447.107391,128.811096 
	C445.466888,129.645935 443.747650,133.169250 444.269806,134.794113 
	C445.232849,137.790863 447.247070,141.128433 449.814331,142.819214 
	C464.841217,152.715714 480.982605,154.564636 498.238312,149.089233 
	C518.984802,142.506180 525.218994,114.447380 509.343933,103.003174 
	C504.430817,99.461327 498.939026,96.571106 493.395172,94.091164 
	C485.318939,90.478416 476.837189,87.773155 468.755127,84.172012 
	C462.994629,81.605286 460.052643,76.877327 460.991638,70.245041 
	C461.764771,64.784203 465.875427,62.371170 470.216675,60.398312 
	C472.223267,59.486423 474.622925,59.439415 477.759247,59.000019 
M571.712097,137.006363 
	C564.785706,133.782959 563.173340,127.464432 563.084717,120.833984 
	C562.839966,102.522972 562.993713,84.206543 563.013916,65.892288 
	C563.015320,64.633812 563.215149,63.375546 563.332764,62.000000 
	C571.514648,62.000000 579.331787,62.076458 587.145813,61.954346 
	C589.553711,61.916721 592.369507,62.001427 594.243896,60.826370 
	C596.278748,59.550751 598.521118,56.933289 598.642151,54.786430 
	C598.746155,52.941769 596.335144,50.387291 594.394897,49.163715 
	C592.644043,48.059586 590.027649,48.077320 587.786682,48.045868 
	C579.549194,47.930248 571.309082,48.000000 563.000000,48.000000 
	C563.000000,39.251728 563.014221,31.261269 562.995483,23.270887 
	C562.980774,17.025581 561.112854,14.996000 555.462158,15.000006 
	C549.065796,15.004540 548.006042,16.124760 548.001282,22.928404 
	C547.995544,31.191998 548.000000,39.455597 548.000000,48.000225 
	C543.312500,48.000225 539.126953,47.607422 535.061401,48.136646 
	C532.295227,48.496738 528.220764,49.432743 527.291443,51.351284 
	C524.073242,57.995319 527.318665,61.308174 534.595276,61.930065 
	C538.980896,62.304882 543.424683,61.998993 548.000000,61.998993 
	C548.000000,82.978867 547.765137,103.282799 548.106262,123.577049 
	C548.260254,132.735931 550.893921,141.220749 558.946045,147.006439 
	C569.680420,154.719330 587.462585,153.007278 597.795044,146.598404 
	C601.169312,144.505508 602.182251,140.095123 600.172729,136.673386 
	C597.885681,132.779099 594.703857,133.761734 591.375916,135.223450 
	C585.310547,137.887482 579.237183,140.986969 571.712097,137.006363 
M844.076721,144.587692 
	C845.004333,142.854645 846.061340,141.177628 846.839661,139.379929 
	C855.173401,120.131264 863.517944,100.886948 871.740906,81.590874 
	C875.753052,72.176025 879.627991,62.697628 883.268982,53.135250 
	C883.811340,51.710823 883.332703,48.973099 882.272217,48.036198 
	C879.086487,45.221912 871.359680,44.753185 869.065552,50.590981 
	C867.757080,53.920620 866.243286,57.168991 864.858093,60.469162 
	C857.561462,77.853928 850.292603,95.250389 842.977844,112.627525 
	C840.630310,118.204231 838.172058,123.734299 835.764526,129.285706 
	C835.233826,129.268158 834.703186,129.250626 834.172485,129.233078 
	C833.046997,126.636269 831.893433,124.051193 830.800415,121.440765 
	C823.518921,104.050514 816.293945,86.636391 808.955566,69.270203 
	C806.116394,62.551506 803.253540,55.824318 799.966736,49.320679 
	C798.181580,45.788235 791.281433,44.413010 787.945435,47.321442 
	C786.474487,48.603882 786.257629,52.801895 787.120117,55.041199 
	C792.258911,68.382309 797.829529,81.558754 803.351135,94.750305 
	C810.191956,111.093628 816.955750,127.473923 824.177124,143.648788 
	C825.479919,146.566986 828.456909,149.895325 831.318604,150.702438 
	C836.235596,152.089218 841.704529,151.716064 844.076721,144.587692 
M312.095276,64.399101 
	C315.762634,63.248821 319.376282,61.862759 323.111816,61.011726 
	C327.197754,60.080868 331.681793,60.311378 335.424469,58.709190 
	C337.273285,57.917740 338.901184,54.041149 338.679901,51.748596 
	C338.482117,49.698772 335.725311,46.387901 333.894470,46.245529 
	C320.844513,45.230713 309.403992,48.701065 301.398834,60.000210 
	C300.752747,60.912148 299.571045,61.444607 297.999359,62.638882 
	C297.999359,58.320129 298.372925,54.949841 297.847443,51.726105 
	C297.569794,50.022762 296.060608,47.817196 294.531860,47.142380 
	C287.889221,44.210258 283.056641,47.587791 283.034698,55.153343 
	C282.949768,84.447319 282.887268,113.742432 283.081268,143.035370 
	C283.128571,150.172180 286.316589,151.147949 290.988983,151.036652 
	C297.140106,150.890167 298.976624,149.019104 298.989166,142.061020 
	C299.021576,124.085075 299.428467,106.094971 298.838654,88.138351 
	C298.487183,77.438332 303.564545,70.603249 312.095276,64.399101 
M761.747803,60.000355 
	C763.579468,59.997707 765.429932,60.162769 767.239014,59.959324 
	C771.723267,59.455029 773.148132,56.934158 773.042603,50.945858 
	C772.963440,46.455090 770.000305,46.118320 766.704346,46.001423 
	C755.174316,45.592487 746.227661,50.249908 739.675903,59.700535 
	C739.121460,60.500233 738.130554,60.997337 736.999634,61.912487 
	C736.999634,58.127178 736.956665,54.963726 737.009949,51.801895 
	C737.085754,47.307529 733.732178,46.041096 730.505371,46.186089 
	C727.219727,46.333721 722.975281,46.506893 722.981750,51.839226 
	C723.019592,83.310211 722.959656,114.781494 723.130920,146.251587 
	C723.138794,147.704071 724.734131,149.858139 726.125427,150.471741 
	C732.661804,153.354660 737.990845,149.681580 737.995483,142.574265 
	C738.008484,122.592659 737.926392,102.610420 738.095337,82.630234 
	C738.115845,80.196274 739.119202,77.616295 740.217041,75.373108 
	C744.433594,66.757500 751.410583,61.674515 761.747803,60.000355 
M903.039062,48.818474 
	C902.692871,50.227886 902.047180,51.636726 902.044434,53.046783 
	C901.986511,83.355011 901.973999,113.663422 902.027832,143.971664 
	C902.036377,148.760590 904.217590,150.818710 908.986267,150.985718 
	C911.269043,151.065643 913.556946,150.999466 916.030273,150.999466 
	C916.398926,148.024246 916.956116,145.599289 916.960999,143.173203 
	C917.020935,113.364578 917.002869,83.555779 916.997559,53.747028 
	C916.996521,47.916725 912.934570,44.732384 907.403137,46.304295 
	C906.029236,46.694729 904.767578,47.479919 903.039062,48.818474 
M1042.254272,150.999222 
	C1047.242554,150.794449 1049.054443,147.926559 1049.022705,143.239532 
	C1048.950684,132.588135 1049.000122,121.935921 1049.000000,111.284042 
	C1049.000000,92.310379 1049.033203,73.336624 1048.978638,54.363121 
	C1048.963257,49.024540 1045.809692,45.790745 1041.155396,46.005520 
	C1035.744263,46.255219 1034.001343,48.254791 1034.000977,54.239052 
	C1033.999023,84.031029 1033.998779,113.823013 1034.000732,143.614990 
	C1034.001099,150.169754 1034.647583,150.809616 1042.254272,150.999222 
z"/>
<path fill="#2A3644" opacity="1.000000" stroke="none" 
	d="
M1.000002,91.437500 
	C6.237781,85.928894 11.503241,80.886009 16.708204,75.781441 
	C33.091434,59.714222 50.248028,44.538986 69.962914,32.662868 
	C87.018059,22.388969 105.400513,15.999594 125.696251,18.081852 
	C140.381165,19.588465 153.764984,25.235565 166.309357,32.842316 
	C180.720642,41.581116 193.862106,51.976452 206.097794,63.563976 
	C214.480301,71.502419 223.150955,79.136620 231.532669,87.075874 
	C236.575638,91.852623 236.505722,96.141914 231.580338,100.922272 
	C211.808014,120.112450 191.938751,139.205307 168.472595,153.991669 
	C155.215302,162.345261 141.233795,168.893906 125.157707,170.617126 
	C118.645599,171.000000 112.291206,171.000000 105.458549,170.589966 
	C104.719353,169.820023 104.528908,169.243210 104.187080,169.132080 
	C97.017738,166.801331 89.505478,165.231674 82.707596,162.105545 
	C59.786026,151.564636 40.938824,135.272751 22.708776,118.215019 
	C15.488768,111.459312 8.237202,104.737328 1.000001,98.000000 
	C1.000000,95.958336 1.000000,93.916664 1.000002,91.437500 
M154.952225,41.454388 
	C152.925217,40.435799 150.905884,39.401573 148.870010,38.401005 
	C125.815956,27.070616 103.093674,28.734226 81.350922,41.410057 
	C57.098175,55.549179 36.437279,74.270233 16.885365,94.733078 
	C21.225174,98.620384 25.707371,102.288902 29.790916,106.357529 
	C42.362720,118.883438 55.951084,130.155548 70.629364,140.113907 
	C83.077087,148.558975 96.394562,155.187027 111.499474,156.909302 
	C129.148300,158.921646 144.816406,152.718033 159.642334,143.852936 
	C178.445221,132.609894 194.184067,117.552010 210.416962,103.104233 
	C213.606918,100.265060 216.979965,97.631599 220.175171,94.980751 
	C198.991486,74.901337 179.495102,55.671333 154.952225,41.454388 
z"/>
<path fill="#179BA5" opacity="1.000000" stroke="none" 
	d="
M1273.000000,147.531342 
	C1270.643799,150.230698 1268.065796,151.351624 1264.603638,151.101532 
	C1260.125122,150.778015 1257.979858,148.878281 1257.987183,144.377060 
	C1258.017822,125.714684 1258.241577,107.047676 1257.890015,88.391884 
	C1257.732910,80.051773 1256.661011,71.553719 1249.873169,65.439278 
	C1243.645630,59.829456 1236.109375,58.517109 1227.961060,59.476440 
	C1220.068481,60.405674 1213.231567,63.435135 1207.512695,68.974770 
	C1204.440796,71.950485 1202.848145,75.265244 1202.897949,79.827339 
	C1203.128662,100.986671 1203.004395,122.149933 1202.997192,143.311783 
	C1202.995117,149.343994 1201.348999,151.005447 1195.454834,151.000000 
	C1189.621338,150.994614 1188.003418,149.321259 1188.002319,143.221527 
	C1187.997070,113.561607 1187.998901,83.901688 1188.000854,54.241764 
	C1188.001343,48.184475 1190.168213,45.862377 1195.667969,46.004360 
	C1200.061035,46.117771 1201.985474,48.558636 1201.999512,54.038471 
	C1202.002808,55.369915 1202.000000,56.701378 1202.000000,59.006561 
	C1205.945312,56.306595 1209.141602,53.310047 1212.928345,51.716522 
	C1218.672852,49.299187 1224.719116,46.969032 1230.835083,46.220963 
	C1238.775635,45.249752 1246.890747,45.550858 1254.526855,49.144566 
	C1263.650146,53.438213 1268.841309,60.581856 1271.033691,70.212753 
	C1271.238037,71.110344 1271.858398,71.913231 1272.642822,72.880043 
	C1273.000000,97.687561 1273.000000,122.375122 1273.000000,147.531342 
z"/>
<path fill="#FFFFFF" opacity="1.000000" stroke="none" 
	d="
M1.000001,98.468658 
	C8.237202,104.737328 15.488768,111.459312 22.708776,118.215019 
	C40.938824,135.272751 59.786026,151.564636 82.707596,162.105545 
	C89.505478,165.231674 97.017738,166.801331 104.187080,169.132080 
	C104.528908,169.243210 104.719353,169.820023 104.990143,170.589966 
	C70.419220,171.000000 35.838440,171.000000 1.000000,171.000000 
	C1.000000,146.979721 1.000000,122.958519 1.000001,98.468658 
z"/>
<path fill="#179BA5" opacity="1.000000" stroke="none" 
	d="
M1044.555908,1.000000 
	C1051.893799,6.053514 1052.810425,10.094309 1051.092407,15.698585 
	C1049.658447,20.375912 1044.098145,22.676401 1038.660034,21.968452 
	C1034.365845,21.409407 1031.261353,17.306551 1030.958740,12.529765 
	C1030.647339,7.613380 1032.048462,3.802132 1036.881592,1.331323 
	C1039.370605,1.000000 1041.741089,1.000000 1044.555908,1.000000 
z"/>
<path fill="#179BA5" opacity="1.000000" stroke="none" 
	d="
M912.562500,1.000000 
	C917.840210,3.241975 920.432739,6.605537 920.121155,12.366650 
	C919.859680,17.203182 917.450012,20.048441 913.464478,21.737883 
	C910.043335,23.188066 903.038940,21.081493 901.213623,18.521004 
	C898.536743,14.766056 898.251282,8.995182 900.919373,5.731168 
	C902.232178,4.125090 904.133728,3.000242 905.884460,1.328818 
	C908.041687,1.000000 910.083313,1.000000 912.562500,1.000000 
z"/>
<path fill="#2A3644" opacity="1.000000" stroke="none" 
	d="
M643.001587,102.000000 
	C637.195618,102.000000 631.889282,102.000000 626.050659,102.000000 
	C625.840515,110.968918 628.595032,118.730659 633.342896,125.793388 
	C644.547485,142.461121 670.410706,142.345169 685.722168,129.784973 
	C690.380371,125.963799 692.825989,125.893204 695.834229,129.348495 
	C699.045227,133.036789 698.856079,135.827957 694.581421,139.871796 
	C687.509338,146.561996 678.894592,149.615387 669.321899,151.162567 
	C657.480286,153.076477 646.294434,151.830109 635.500732,146.818344 
	C622.339294,140.707169 615.041260,129.517563 612.313599,116.070648 
	C609.644592,102.912827 609.606567,89.361717 613.926758,76.197220 
	C621.269958,53.821217 639.170776,43.347340 660.719788,45.199085 
	C682.468140,47.067963 696.736450,60.482895 698.945801,83.896385 
	C699.350159,88.181519 699.262512,92.558067 698.923279,96.854630 
	C698.633667,100.522476 696.161438,102.047852 692.453003,102.031326 
	C676.135986,101.958633 659.818542,101.999985 643.001587,102.000000 
M644.500732,90.000000 
	C657.588379,90.000000 670.676086,90.000000 683.685303,90.000000 
	C685.591797,74.703415 675.055603,59.694073 661.233582,58.028099 
	C643.417358,55.880707 628.876099,66.224991 626.104004,90.000000 
	C631.931763,90.000000 637.716614,90.000000 644.500732,90.000000 
z"/>
<path fill="#179BA5" opacity="1.000000" stroke="none" 
	d="
M1167.745239,80.442879 
	C1168.621338,88.165375 1170.088623,95.536316 1169.828857,102.845871 
	C1169.368408,115.795288 1165.676147,127.980087 1156.646851,137.745926 
	C1148.291626,146.782867 1137.547974,151.210983 1125.335571,151.977081 
	C1114.025635,152.686569 1102.914185,151.697845 1093.081421,145.472519 
	C1081.975342,138.441071 1074.615723,128.222198 1072.359741,115.368629 
	C1069.583252,99.549004 1069.434937,83.768921 1077.495361,68.851959 
	C1084.587891,55.726379 1095.728882,48.841385 1109.864746,46.028454 
	C1119.367554,44.137486 1128.670044,45.016659 1137.949097,47.882904 
	C1154.162354,52.891056 1163.050537,64.405205 1167.745239,80.442879 
M1126.802124,58.331779 
	C1123.490723,58.221466 1120.127197,57.685764 1116.877808,58.082569 
	C1108.009766,59.165497 1100.031128,62.338764 1094.990234,70.242119 
	C1084.353149,86.919540 1083.935547,104.392715 1092.091064,122.054192 
	C1097.119507,132.943832 1106.174927,138.298492 1118.154663,139.033752 
	C1131.998413,139.883408 1142.642944,134.546738 1148.834473,122.211433 
	C1155.764526,108.404861 1155.978882,93.766464 1150.608643,79.408936 
	C1146.622681,68.751877 1139.226318,61.172749 1126.802124,58.331779 
z"/>
<path fill="#2A3644" opacity="1.000000" stroke="none" 
	d="
M409.988525,147.891647 
	C409.481720,145.611816 409.036652,143.736328 408.703766,142.333588 
	C402.761261,144.920761 396.665344,148.436691 390.099152,150.246765 
	C377.934601,153.600189 366.222931,152.326187 354.931030,145.653351 
	C341.508484,137.721451 339.217865,110.887482 355.178009,100.878105 
	C365.033691,94.697121 375.803253,91.801979 387.015717,90.055977 
	C393.305176,89.076591 399.702179,88.795761 406.002869,87.873291 
	C407.121307,87.709534 408.889771,85.915535 408.863068,84.914215 
	C408.488586,70.876427 404.738739,59.325516 386.525940,58.898529 
	C376.790344,58.670288 368.321472,61.392517 360.511932,66.935982 
	C356.036621,70.112679 353.662811,69.849030 350.411621,65.910454 
	C347.444733,62.316303 348.842621,59.366058 351.906158,56.568302 
	C358.622986,50.434196 366.912781,47.533981 375.519501,46.178623 
	C385.001221,44.685474 394.719269,44.711273 403.947937,48.076160 
	C416.418030,52.622887 422.025879,59.777142 422.724731,72.583061 
	C424.017365,96.269234 423.770294,120.044830 423.837555,143.784103 
	C423.844238,146.135605 422.029541,150.015915 420.287628,150.520660 
	C417.008698,151.470840 412.644043,152.588928 409.988525,147.891647 
M408.592865,98.184387 
	C404.253204,98.789574 399.902802,99.327164 395.575989,100.013435 
	C385.186615,101.661247 374.774323,103.341217 366.102631,110.001312 
	C357.633209,116.506058 359.080170,129.925858 367.395660,135.156509 
	C380.087830,143.140167 397.509033,137.448166 407.098145,129.211838 
	C408.237549,128.233170 408.886169,126.114975 408.916992,124.508774 
	C409.079987,116.015869 408.972321,107.517761 408.592865,98.184387 
z"/>
<path fill="#179BA5" opacity="1.000000" stroke="none" 
	d="
M940.000000,71.179794 
	C940.177124,60.617897 946.123657,53.934681 954.412659,50.105801 
	C971.363586,42.275745 988.264404,43.715424 1004.359192,53.179310 
	C1006.310608,54.326744 1007.925354,56.199894 1009.388916,57.988140 
	C1011.681702,60.789455 1011.372742,63.659138 1009.070496,66.442863 
	C1006.869873,69.103638 1004.540894,69.718285 1001.266113,68.125679 
	C994.867737,65.013954 988.534424,61.337254 981.738220,59.595055 
	C974.800903,57.816681 967.394836,58.188976 960.877625,62.527416 
	C952.951904,67.803505 952.565491,77.780800 960.654602,82.754433 
	C965.577026,85.781036 971.202393,87.680000 976.552673,89.991112 
	C983.538330,93.008629 990.699646,95.652657 997.542542,98.959808 
	C1009.063416,104.527893 1013.649292,114.297089 1011.864136,126.581581 
	C1010.292786,137.394638 1003.652161,145.032669 993.423157,148.720383 
	C976.020874,154.994110 959.273560,152.921768 943.787048,142.813644 
	C941.291626,141.184891 939.097534,138.090622 938.289124,135.241135 
	C937.767517,133.402710 939.453857,129.793121 941.199463,128.774414 
	C942.986816,127.731331 946.536377,128.064957 948.473206,129.214142 
	C955.655579,133.475662 962.776672,137.552612 971.264160,138.695221 
	C977.347839,139.514221 991.024841,136.781174 994.870178,129.935669 
	C998.425476,123.606537 997.034485,115.610146 990.777649,112.111221 
	C984.302856,108.490448 977.204895,105.984512 970.380981,102.987602 
	C964.424255,100.371544 958.293152,98.085274 952.554260,95.056145 
	C943.267029,90.154167 938.929260,82.263802 940.000000,71.179794 
z"/>
<path fill="#2A3644" opacity="1.000000" stroke="none" 
	d="
M477.301819,59.000149 
	C474.622925,59.439415 472.223267,59.486423 470.216675,60.398312 
	C465.875427,62.371170 461.764771,64.784203 460.991638,70.245041 
	C460.052643,76.877327 462.994629,81.605286 468.755127,84.172012 
	C476.837189,87.773155 485.318939,90.478416 493.395172,94.091164 
	C498.939026,96.571106 504.430817,99.461327 509.343933,103.003174 
	C525.218994,114.447380 518.984802,142.506180 498.238312,149.089233 
	C480.982605,154.564636 464.841217,152.715714 449.814331,142.819214 
	C447.247070,141.128433 445.232849,137.790863 444.269806,134.794113 
	C443.747650,133.169250 445.466888,129.645935 447.107391,128.811096 
	C449.031158,127.832115 452.245544,128.193954 454.411194,129.118958 
	C459.999603,131.505844 465.165894,134.896545 470.783478,137.195557 
	C478.024231,140.158859 485.597839,139.271454 492.674988,136.594284 
	C498.360870,134.443375 502.552002,130.125839 502.920013,123.630020 
	C503.310181,116.743416 498.935760,112.423828 493.268707,109.858223 
	C485.208893,106.209419 476.764252,103.420715 468.615753,99.954849 
	C461.657196,96.995079 454.647675,94.198181 449.859619,87.597343 
	C442.667023,77.681602 444.679474,59.628754 456.800964,52.020237 
	C465.942108,46.282459 475.750458,44.849888 486.486115,45.773102 
	C494.977386,46.503311 502.750610,48.384518 509.815948,53.019405 
	C511.717896,54.267048 513.399841,55.912991 514.985779,57.565193 
	C517.664917,60.356331 517.599182,63.311352 515.185120,66.327034 
	C512.893616,69.189636 510.374542,69.701866 506.985931,68.061562 
	C500.780487,65.057709 494.543976,62.019207 488.060791,59.730663 
	C484.930969,58.625851 481.211639,59.191010 477.301819,59.000149 
z"/>
<path fill="#2A3644" opacity="1.000000" stroke="none" 
	d="
M572.108826,137.041916 
	C579.237183,140.986969 585.310547,137.887482 591.375916,135.223450 
	C594.703857,133.761734 597.885681,132.779099 600.172729,136.673386 
	C602.182251,140.095123 601.169312,144.505508 597.795044,146.598404 
	C587.462585,153.007278 569.680420,154.719330 558.946045,147.006439 
	C550.893921,141.220749 548.260254,132.735931 548.106262,123.577049 
	C547.765137,103.282799 548.000000,82.978867 548.000000,61.998993 
	C543.424683,61.998993 538.980896,62.304882 534.595276,61.930065 
	C527.318665,61.308174 524.073242,57.995319 527.291443,51.351284 
	C528.220764,49.432743 532.295227,48.496738 535.061401,48.136646 
	C539.126953,47.607422 543.312500,48.000225 548.000000,48.000225 
	C548.000000,39.455597 547.995544,31.191998 548.001282,22.928404 
	C548.006042,16.124760 549.065796,15.004540 555.462158,15.000006 
	C561.112854,14.996000 562.980774,17.025581 562.995483,23.270887 
	C563.014221,31.261269 563.000000,39.251728 563.000000,48.000000 
	C571.309082,48.000000 579.549194,47.930248 587.786682,48.045868 
	C590.027649,48.077320 592.644043,48.059586 594.394897,49.163715 
	C596.335144,50.387291 598.746155,52.941769 598.642151,54.786430 
	C598.521118,56.933289 596.278748,59.550751 594.243896,60.826370 
	C592.369507,62.001427 589.553711,61.916721 587.145813,61.954346 
	C579.331787,62.076458 571.514648,62.000000 563.332764,62.000000 
	C563.215149,63.375546 563.015320,64.633812 563.013916,65.892288 
	C562.993713,84.206543 562.839966,102.522972 563.084717,120.833984 
	C563.173340,127.464432 564.785706,133.782959 572.108826,137.041916 
z"/>
<path fill="#179BA5" opacity="1.000000" stroke="none" 
	d="
M844.005981,144.962082 
	C841.704529,151.716064 836.235596,152.089218 831.318604,150.702438 
	C828.456909,149.895325 825.479919,146.566986 824.177124,143.648788 
	C816.955750,127.473923 810.191956,111.093628 803.351135,94.750305 
	C797.829529,81.558754 792.258911,68.382309 787.120117,55.041199 
	C786.257629,52.801895 786.474487,48.603882 787.945435,47.321442 
	C791.281433,44.413010 798.181580,45.788235 799.966736,49.320679 
	C803.253540,55.824318 806.116394,62.551506 808.955566,69.270203 
	C816.293945,86.636391 823.518921,104.050514 830.800415,121.440765 
	C831.893433,124.051193 833.046997,126.636269 834.172485,129.233078 
	C834.703186,129.250626 835.233826,129.268158 835.764526,129.285706 
	C838.172058,123.734299 840.630310,118.204231 842.977844,112.627525 
	C850.292603,95.250389 857.561462,77.853928 864.858093,60.469162 
	C866.243286,57.168991 867.757080,53.920620 869.065552,50.590981 
	C871.359680,44.753185 879.086487,45.221912 882.272217,48.036198 
	C883.332703,48.973099 883.811340,51.710823 883.268982,53.135250 
	C879.627991,62.697628 875.753052,72.176025 871.740906,81.590874 
	C863.517944,100.886948 855.173401,120.131264 846.839661,139.379929 
	C846.061340,141.177628 845.004333,142.854645 844.005981,144.962082 
z"/>
<path fill="#2A3644" opacity="1.000000" stroke="none" 
	d="
M311.836243,64.672913 
	C303.564545,70.603249 298.487183,77.438332 298.838654,88.138351 
	C299.428467,106.094971 299.021576,124.085075 298.989166,142.061020 
	C298.976624,149.019104 297.140106,150.890167 290.988983,151.036652 
	C286.316589,151.147949 283.128571,150.172180 283.081268,143.035370 
	C282.887268,113.742432 282.949768,84.447319 283.034698,55.153343 
	C283.056641,47.587791 287.889221,44.210258 294.531860,47.142380 
	C296.060608,47.817196 297.569794,50.022762 297.847443,51.726105 
	C298.372925,54.949841 297.999359,58.320129 297.999359,62.638882 
	C299.571045,61.444607 300.752747,60.912148 301.398834,60.000210 
	C309.403992,48.701065 320.844513,45.230713 333.894470,46.245529 
	C335.725311,46.387901 338.482117,49.698772 338.679901,51.748596 
	C338.901184,54.041149 337.273285,57.917740 335.424469,58.709190 
	C331.681793,60.311378 327.197754,60.080868 323.111816,61.011726 
	C319.376282,61.862759 315.762634,63.248821 311.836243,64.672913 
z"/>
<path fill="#2A3644" opacity="1.000000" stroke="none" 
	d="
M761.305359,60.001953 
	C751.410583,61.674515 744.433594,66.757500 740.217041,75.373108 
	C739.119202,77.616295 738.115845,80.196274 738.095337,82.630234 
	C737.926392,102.610420 738.008484,122.592659 737.995483,142.574265 
	C737.990845,149.681580 732.661804,153.354660 726.125427,150.471741 
	C724.734131,149.858139 723.138794,147.704071 723.130920,146.251587 
	C722.959656,114.781494 723.019592,83.310211 722.981750,51.839226 
	C722.975281,46.506893 727.219727,46.333721 730.505371,46.186089 
	C733.732178,46.041096 737.085754,47.307529 737.009949,51.801895 
	C736.956665,54.963726 736.999634,58.127178 736.999634,61.912487 
	C738.130554,60.997337 739.121460,60.500233 739.675903,59.700535 
	C746.227661,50.249908 755.174316,45.592487 766.704346,46.001423 
	C770.000305,46.118320 772.963440,46.455090 773.042603,50.945858 
	C773.148132,56.934158 771.723267,59.455029 767.239014,59.959324 
	C765.429932,60.162769 763.579468,59.997707 761.305359,60.001953 
z"/>
<path fill="#179BA5" opacity="1.000000" stroke="none" 
	d="
M903.246704,48.451073 
	C904.767578,47.479919 906.029236,46.694729 907.403137,46.304295 
	C912.934570,44.732384 916.996521,47.916725 916.997559,53.747028 
	C917.002869,83.555779 917.020935,113.364578 916.960999,143.173203 
	C916.956116,145.599289 916.398926,148.024246 916.030273,150.999466 
	C913.556946,150.999466 911.269043,151.065643 908.986267,150.985718 
	C904.217590,150.818710 902.036377,148.760590 902.027832,143.971664 
	C901.973999,113.663422 901.986511,83.355011 902.044434,53.046783 
	C902.047180,51.636726 902.692871,50.227886 903.246704,48.451073 
z"/>
<path fill="#179BA5" opacity="1.000000" stroke="none" 
	d="
M1041.829102,150.999557 
	C1034.647583,150.809616 1034.001099,150.169754 1034.000732,143.614990 
	C1033.998779,113.823013 1033.999023,84.031029 1034.000977,54.239052 
	C1034.001343,48.254791 1035.744263,46.255219 1041.155396,46.005520 
	C1045.809692,45.790745 1048.963257,49.024540 1048.978638,54.363121 
	C1049.033203,73.336624 1049.000000,92.310379 1049.000000,111.284042 
	C1049.000122,121.935921 1048.950684,132.588135 1049.022705,143.239532 
	C1049.054443,147.926559 1047.242554,150.794449 1041.829102,150.999557 
z"/>
<path fill="#FFFFFF" opacity="1.000000" stroke="none" 
	d="
M155.218994,41.722466 
	C179.495102,55.671333 198.991486,74.901337 220.175171,94.980751 
	C216.979965,97.631599 213.606918,100.265060 210.416962,103.104233 
	C194.184067,117.552010 178.445221,132.609894 159.642334,143.852936 
	C144.816406,152.718033 129.148300,158.921646 111.499474,156.909302 
	C96.394562,155.187027 83.077087,148.558975 70.629364,140.113907 
	C55.951084,130.155548 42.362720,118.883438 29.790916,106.357529 
	C25.707371,102.288902 21.225174,98.620384 16.885365,94.733078 
	C36.437279,74.270233 57.098175,55.549179 81.350922,41.410057 
	C103.093674,28.734226 125.815956,27.070616 148.870010,38.401005 
	C150.905884,39.401573 152.925217,40.435799 155.218994,41.722466 
M86.007553,113.284340 
	C88.236176,116.250092 90.209488,119.459518 92.753075,122.124664 
	C96.599030,126.154419 100.216797,126.020691 104.254044,122.225708 
	C105.704613,120.862183 107.091385,119.430290 108.494911,118.017319 
	C111.434570,115.057915 111.907669,111.700417 109.650284,108.226006 
	C105.637894,102.050415 99.687805,98.443161 96.111824,100.577980 
	C91.526443,103.315414 86.931274,106.471046 86.007553,113.284340 
M168.978851,97.107162 
	C168.768784,94.365570 169.166397,91.372246 168.166260,88.957954 
	C167.284439,86.829300 164.844650,85.344376 163.087646,83.580345 
	C160.159241,80.640198 156.833710,80.057297 153.314636,82.305649 
	C147.204285,86.209549 143.888153,92.005966 145.419617,95.879135 
	C145.771286,96.768501 146.325806,97.610474 146.925507,98.363983 
	C154.776001,108.227753 158.099228,108.421158 166.918732,99.570168 
	C167.504150,98.982666 168.088882,98.394478 168.978851,97.107162 
M125.988335,140.515213 
	C128.855652,137.603455 132.449554,134.957626 130.509674,130.026901 
	C126.405075,119.594032 117.783150,117.691887 110.043648,125.464149 
	C104.584648,130.946259 104.499458,133.939087 109.653854,139.159012 
	C117.101021,146.700867 119.369812,146.969147 125.988335,140.515213 
M133.188950,84.669571 
	C137.223984,87.062820 140.654984,86.155197 143.701263,82.817039 
	C144.929184,81.471443 146.291550,80.249474 147.569504,78.948433 
	C150.650909,75.811340 151.005142,71.849083 148.479462,68.971825 
	C141.154907,60.627674 137.385590,59.154415 132.714249,62.840096 
	C132.067230,63.350597 131.520508,63.988251 130.927597,64.567299 
	C130.216629,65.261642 129.547760,66.006218 128.787964,66.642174 
	C125.310608,69.552780 123.780731,72.979645 126.614433,77.052628 
	C128.376801,79.585732 130.631195,81.776505 133.188950,84.669571 
M107.386856,58.912193 
	C109.154129,60.656033 110.814888,62.527073 112.712120,64.115707 
	C116.067848,66.925583 121.317261,66.621910 123.775612,63.642605 
	C125.224899,61.886200 126.599350,60.063152 128.121750,58.373035 
	C130.875214,55.316227 130.950653,51.377953 127.898842,48.449249 
	C116.807823,37.805634 116.584038,39.431049 108.330109,48.166607 
	C108.216362,48.286991 108.107986,48.413189 107.987198,48.526070 
	C104.815735,51.489773 103.820061,54.694584 107.386856,58.912193 
M84.945534,83.427658 
	C79.917435,78.900887 77.638184,78.921349 72.948395,83.544998 
	C72.004501,84.475586 71.058708,85.405426 70.145943,86.366158 
	C67.813599,88.821053 64.347298,91.225151 66.719887,95.076431 
	C69.404968,99.434929 72.334724,104.061516 78.075272,104.956734 
	C83.604897,105.819069 85.240227,100.434128 88.601624,97.855362 
	C92.439026,94.911392 91.593384,91.289101 89.260979,87.875420 
	C88.250397,86.396339 86.739037,85.259430 84.945534,83.427658 
M86.774765,69.787560 
	C83.511772,76.590225 89.174545,79.514862 92.766556,83.181351 
	C96.572205,87.065933 99.299530,86.939240 103.270920,83.211372 
	C104.357101,82.191795 105.407211,81.131721 106.439453,80.057159 
	C108.986961,77.405220 112.629646,75.030731 109.965393,70.576370 
	C107.351585,66.206360 104.298691,62.003639 98.847656,61.141037 
	C97.239693,60.886589 95.094955,61.910610 93.685860,62.988716 
	C91.339081,64.784248 89.387489,67.096298 86.774765,69.787560 
M149.209961,109.770744 
	C146.867569,107.413208 144.603821,104.970375 142.162689,102.719948 
	C139.184952,99.974808 135.895340,100.014526 132.931488,102.621086 
	C122.422424,111.863251 122.295052,113.681145 132.707535,122.902176 
	C134.511475,124.499702 138.255936,125.072067 140.732651,124.502586 
	C145.990417,123.293663 150.173111,116.007919 149.209961,109.770744 
M124.991631,85.488129 
	C118.760513,79.245331 116.249771,79.240814 110.047630,85.457756 
	C109.462387,86.044395 108.506653,86.531555 108.337273,87.216766 
	C107.553795,90.386284 105.363129,94.851158 106.671440,96.562706 
	C109.671646,100.487633 112.562973,105.560577 118.621986,105.983513 
	C118.786491,105.994995 119.015450,106.040932 119.110191,105.955406 
	C122.723000,102.694412 127.229202,99.972435 129.661560,95.985916 
	C131.924332,92.277367 128.869217,88.571098 124.991631,85.488129 
z"/>
<path fill="#FFFFFF" opacity="1.000000" stroke="none" 
	d="
M644.001099,90.000000 
	C637.716614,90.000000 631.931763,90.000000 626.104004,90.000000 
	C628.876099,66.224991 643.417358,55.880707 661.233582,58.028099 
	C675.055603,59.694073 685.591797,74.703415 683.685303,90.000000 
	C670.676086,90.000000 657.588379,90.000000 644.001099,90.000000 
z"/>
<path fill="#FFFFFF" opacity="1.000000" stroke="none" 
	d="
M1127.143066,58.602615 
	C1139.226318,61.172749 1146.622681,68.751877 1150.608643,79.408936 
	C1155.978882,93.766464 1155.764526,108.404861 1148.834473,122.211433 
	C1142.642944,134.546738 1131.998413,139.883408 1118.154663,139.033752 
	C1106.174927,138.298492 1097.119507,132.943832 1092.091064,122.054192 
	C1083.935547,104.392715 1084.353149,86.919540 1094.990234,70.242119 
	C1100.031128,62.338764 1108.009766,59.165497 1116.877808,58.082569 
	C1120.127197,57.685764 1123.490723,58.221466 1127.143066,58.602615 
z"/>
<path fill="#FFFFFF" opacity="1.000000" stroke="none" 
	d="
M408.775696,98.602921 
	C408.972321,107.517761 409.079987,116.015869 408.916992,124.508774 
	C408.886169,126.114975 408.237549,128.233170 407.098145,129.211838 
	C397.509033,137.448166 380.087830,143.140167 367.395660,135.156509 
	C359.080170,129.925858 357.633209,116.506058 366.102631,110.001312 
	C374.774323,103.341217 385.186615,101.661247 395.575989,100.013435 
	C399.902802,99.327164 404.253204,98.789574 408.775696,98.602921 
z"/>
<path fill="#179BA5" opacity="1.000000" stroke="none" 
	d="
M86.004791,112.892166 
	C86.931274,106.471046 91.526443,103.315414 96.111824,100.577980 
	C99.687805,98.443161 105.637894,102.050415 109.650284,108.226006 
	C111.907669,111.700417 111.434570,115.057915 108.494911,118.017319 
	C107.091385,119.430290 105.704613,120.862183 104.254044,122.225708 
	C100.216797,126.020691 96.599030,126.154419 92.753075,122.124664 
	C90.209488,119.459518 88.236176,116.250092 86.004791,112.892166 
z"/>
<path fill="#179BA5" opacity="1.000000" stroke="none" 
	d="
M168.826385,97.456886 
	C168.088882,98.394478 167.504150,98.982666 166.918732,99.570168 
	C158.099228,108.421158 154.776001,108.227753 146.925507,98.363983 
	C146.325806,97.610474 145.771286,96.768501 145.419617,95.879135 
	C143.888153,92.005966 147.204285,86.209549 153.314636,82.305649 
	C156.833710,80.057297 160.159241,80.640198 163.087646,83.580345 
	C164.844650,85.344376 167.284439,86.829300 168.166260,88.957954 
	C169.166397,91.372246 168.768784,94.365570 168.826385,97.456886 
z"/>
<path fill="#179BA5" opacity="1.000000" stroke="none" 
	d="
M125.725128,140.771729 
	C119.369812,146.969147 117.101021,146.700867 109.653854,139.159012 
	C104.499458,133.939087 104.584648,130.946259 110.043648,125.464149 
	C117.783150,117.691887 126.405075,119.594032 130.509674,130.026901 
	C132.449554,134.957626 128.855652,137.603455 125.725128,140.771729 
z"/>
<path fill="#179BA5" opacity="1.000000" stroke="none" 
	d="
M132.926849,84.395248 
	C130.631195,81.776505 128.376801,79.585732 126.614433,77.052628 
	C123.780731,72.979645 125.310608,69.552780 128.787964,66.642174 
	C129.547760,66.006218 130.216629,65.261642 130.927597,64.567299 
	C131.520508,63.988251 132.067230,63.350597 132.714249,62.840096 
	C137.385590,59.154415 141.154907,60.627674 148.479462,68.971825 
	C151.005142,71.849083 150.650909,75.811340 147.569504,78.948433 
	C146.291550,80.249474 144.929184,81.471443 143.701263,82.817039 
	C140.654984,86.155197 137.223984,87.062820 132.926849,84.395248 
z"/>
<path fill="#179BA5" opacity="1.000000" stroke="none" 
	d="
M107.140190,58.632538 
	C103.820061,54.694584 104.815735,51.489773 107.987198,48.526070 
	C108.107986,48.413189 108.216362,48.286991 108.330109,48.166607 
	C116.584038,39.431049 116.807823,37.805634 127.898842,48.449249 
	C130.950653,51.377953 130.875214,55.316227 128.121750,58.373035 
	C126.599350,60.063152 125.224899,61.886200 123.775612,63.642605 
	C121.317261,66.621910 116.067848,66.925583 112.712120,64.115707 
	C110.814888,62.527073 109.154129,60.656033 107.140190,58.632538 
z"/>
<path fill="#179BA5" opacity="1.000000" stroke="none" 
	d="
M85.200333,83.697372 
	C86.739037,85.259430 88.250397,86.396339 89.260979,87.875420 
	C91.593384,91.289101 92.439026,94.911392 88.601624,97.855362 
	C85.240227,100.434128 83.604897,105.819069 78.075272,104.956734 
	C72.334724,104.061516 69.404968,99.434929 66.719887,95.076431 
	C64.347298,91.225151 67.813599,88.821053 70.145943,86.366158 
	C71.058708,85.405426 72.004501,84.475586 72.948395,83.544998 
	C77.638184,78.921349 79.917435,78.900887 85.200333,83.697372 
z"/>
<path fill="#179BA5" opacity="1.000000" stroke="none" 
	d="
M87.022125,69.489204 
	C89.387489,67.096298 91.339081,64.784248 93.685860,62.988716 
	C95.094955,61.910610 97.239693,60.886589 98.847656,61.141037 
	C104.298691,62.003639 107.351585,66.206360 109.965393,70.576370 
	C112.629646,75.030731 108.986961,77.405220 106.439453,80.057159 
	C105.407211,81.131721 104.357101,82.191795 103.270920,83.211372 
	C99.299530,86.939240 96.572205,87.065933 92.766556,83.181351 
	C89.174545,79.514862 83.511772,76.590225 87.022125,69.489204 
z"/>
<path fill="#179BA5" opacity="1.000000" stroke="none" 
	d="
M149.488129,110.043930 
	C150.173111,116.007919 145.990417,123.293663 140.732651,124.502586 
	C138.255936,125.072067 134.511475,124.499702 132.707535,122.902176 
	C122.295052,113.681145 122.422424,111.863251 132.931488,102.621086 
	C135.895340,100.014526 139.184952,99.974808 142.162689,102.719948 
	C144.603821,104.970375 146.867569,107.413208 149.488129,110.043930 
z"/>
<path fill="#2A3644" opacity="1.000000" stroke="none" 
	d="
M125.254150,85.749908 
	C128.869217,88.571098 131.924332,92.277367 129.661560,95.985916 
	C127.229202,99.972435 122.723000,102.694412 119.110191,105.955406 
	C119.015450,106.040932 118.786491,105.994995 118.621986,105.983513 
	C112.562973,105.560577 109.671646,100.487633 106.671440,96.562706 
	C105.363129,94.851158 107.553795,90.386284 108.337273,87.216766 
	C108.506653,86.531555 109.462387,86.044395 110.047630,85.457756 
	C116.249771,79.240814 118.760513,79.245331 125.254150,85.749908 
z"/>
</svg>