<svg version="1.1" id="Layer_1" xmlns="http://www.w3.org/2000/svg" xmlns:xlink="http://www.w3.org/1999/xlink" x="0px" y="0px"
	 width="100%" viewBox="1 1 547 217" enable-background="new 0 0 547 217" xml:space="preserve">
<path fill="#FEFEFE" opacity="1.000000" stroke="none" 
	d="
M344.000000,218.000000 
	C229.333328,218.000000 115.166664,218.000000 1.000000,218.000000 
	C1.000000,145.666672 1.000000,73.333336 1.000000,1.000000 
	C183.333328,1.000000 365.666656,1.000000 548.000000,1.000000 
	C548.000000,73.333336 548.000000,145.666672 548.000000,218.000000 
	C480.166656,218.000000 412.333344,218.000000 344.000000,218.000000 
M182.012558,71.952812 
	C182.012558,71.952812 182.130051,71.896545 181.909134,71.262299 
	C176.605881,66.174545 171.302643,61.086800 165.448257,55.619400 
	C160.082199,50.196369 154.716141,44.773338 149.135666,38.617893 
	C147.863419,38.081192 146.597443,37.099667 145.317886,37.081604 
	C138.211884,36.981308 131.102570,37.115025 123.066460,37.034988 
	C115.710144,37.079529 108.353821,37.124065 100.069069,37.033836 
	C92.378204,37.078800 84.687340,37.123764 76.068069,37.034386 
	C63.812580,37.034386 51.557095,37.034386 39.168610,37.034386 
	C39.168610,50.078999 39.168610,62.537651 39.026268,75.924332 
	C39.073738,83.615379 39.121208,91.306419 39.028374,99.922134 
	C39.075249,104.947029 39.122120,109.971924 39.030796,115.920631 
	C39.076717,120.612846 39.122639,125.305069 39.028954,130.920349 
	C39.073235,135.604813 39.117516,140.289276 39.121170,145.627579 
	C40.053745,146.471100 40.986320,147.314606 42.071384,148.595322 
	C42.252209,148.870743 42.505280,149.034531 43.025833,149.734558 
	C49.938477,156.520584 56.851120,163.306625 64.020721,170.722046 
	C69.687645,176.093185 75.354568,181.464325 81.947609,186.967636 
	C89.630745,186.921982 97.313881,186.876343 105.926056,186.967346 
	C115.616142,186.921875 125.306236,186.876404 135.925583,186.966644 
	C144.282593,186.922409 152.639603,186.878174 161.925537,186.969269 
	C170.850845,186.969269 179.776169,186.969269 188.887955,186.969269 
	C188.887955,178.233521 188.887955,170.116089 189.048019,161.073029 
	C188.995255,153.047394 188.942505,145.021759 189.046600,136.070648 
	C188.994324,125.378990 188.942047,114.687340 189.047714,103.070412 
	C189.063553,96.111092 188.912155,89.145645 189.166580,82.195053 
	C189.291565,78.781189 188.171356,76.454735 185.026230,74.281754 
	C184.051270,73.473663 183.076309,72.665581 182.012558,71.952812 
M268.400330,122.531021 
	C271.344604,122.531021 274.288879,122.531021 277.338806,122.531021 
	C277.338806,116.634293 277.338806,111.418755 277.338806,105.777664 
	C264.872467,105.777664 252.771622,105.777664 240.281799,105.777664 
	C240.281799,101.702805 240.271698,98.059105 240.283875,94.415474 
	C240.309967,86.609245 239.767029,87.558144 247.346176,87.538139 
	C257.958862,87.510124 268.571686,87.531075 279.406616,87.531075 
	C279.406616,81.695671 279.406616,76.470253 279.406616,71.075584 
	C260.018799,71.075584 240.930603,71.075584 221.540192,71.075584 
	C221.540192,99.350494 221.540192,127.398323 221.540192,155.588135 
	C227.861313,155.588135 233.892349,155.588135 240.282166,155.588135 
	C240.282166,145.941711 240.424744,136.631165 240.210602,127.328835 
	C240.127213,123.706329 241.071442,122.295418 244.943008,122.446259 
	C252.426590,122.737823 259.929596,122.531067 268.400330,122.531021 
M529.745056,99.756706 
	C515.682434,85.645668 492.327545,86.019279 479.400177,100.562042 
	C466.871582,114.656120 469.071655,138.440918 483.972534,149.993576 
	C497.597992,160.557404 522.430298,158.422745 531.089233,145.720261 
	C527.981750,142.401031 524.833008,139.037659 521.587830,135.571335 
	C513.776184,141.819641 505.564240,143.752350 496.736755,139.203705 
	C493.269867,137.417282 490.140076,134.832550 490.370331,129.744232 
	C492.591278,129.744232 494.408966,129.744247 496.226654,129.744232 
	C508.389557,129.744156 520.553955,129.832016 532.713440,129.628418 
	C534.170044,129.604004 536.811340,128.053085 536.855530,127.113304 
	C537.304749,117.569916 537.220886,108.033890 529.745056,99.756706 
M320.781464,156.763214 
	C323.268494,156.649063 325.778503,156.711685 328.238892,156.392242 
	C344.878906,154.231750 356.225189,142.380112 357.804413,125.619560 
	C359.187805,110.937973 349.286133,95.726326 335.488953,91.336998 
	C319.032104,86.101547 301.329498,92.034607 293.452332,105.642670 
	C281.322693,126.597153 293.202759,154.490631 320.781464,156.763214 
M425.571533,141.883545 
	C431.049835,157.147247 450.209534,161.937469 462.282013,150.952515 
	C463.193909,150.122742 463.888550,147.960709 463.453949,146.943619 
	C461.974487,143.481186 459.943695,140.254333 458.922943,138.394379 
	C454.117310,139.055222 449.944031,140.824921 446.639038,139.798615 
	C441.879730,138.320740 442.794983,133.047714 442.743134,128.951736 
	C442.661041,122.463058 442.957977,115.960854 442.638184,109.486923 
	C442.420776,105.085014 443.478394,102.911873 448.365936,103.500885 
	C451.576965,103.887840 454.872437,103.574013 458.001556,103.574013 
	C458.001556,98.795181 458.001556,94.744461 458.001556,90.513374 
	C455.923950,90.513374 454.265320,90.514442 452.606689,90.513206 
	C442.720581,90.505829 442.720581,90.505646 442.720551,80.849670 
	C442.720551,77.610748 442.720551,74.371826 442.720551,71.178101 
	C436.135742,71.178101 430.402893,71.178101 424.069397,71.178101 
	C424.069397,77.729652 424.069397,83.956161 424.069397,90.159653 
	C421.223389,90.462700 418.979279,90.701660 416.846771,90.928734 
	C416.846771,95.327896 416.846771,99.222168 416.846771,103.254799 
	C419.331879,103.467018 421.458801,103.648643 424.268616,103.888588 
	C424.268616,109.371422 424.134125,114.821274 424.302338,120.261765 
	C424.517365,127.216194 424.976532,134.163071 425.571533,141.883545 
M370.757080,130.499481 
	C370.757080,138.796326 370.757080,147.093155 370.757080,155.606049 
	C377.102203,155.606049 382.979065,155.606049 389.165131,155.606049 
	C389.165131,152.635849 389.130157,149.991714 389.171661,147.348785 
	C389.299652,139.198761 388.928925,130.996567 389.734741,122.912613 
	C390.771057,112.516029 396.065033,106.351105 405.612457,106.456299 
	C406.666748,106.467911 408.588989,104.811234 408.659546,103.824654 
	C408.987366,99.241371 408.804596,94.621574 408.804596,89.816154 
	C400.798981,89.442856 395.494781,93.819763 389.587616,98.029037 
	C389.284637,95.312950 389.039124,93.111641 388.750854,90.527176 
	C383.922058,90.527176 379.274536,90.678940 374.642761,90.474159 
	C371.522156,90.336189 370.663269,91.544212 370.699493,94.542694 
	C370.840149,106.193489 370.757080,117.846977 370.757080,130.499481 
z"/>
<path fill="#070707" opacity="1.000000" stroke="none" 
	d="
M267.912415,122.530945 
	C259.929596,122.531067 252.426590,122.737823 244.943008,122.446259 
	C241.071442,122.295418 240.127213,123.706329 240.210602,127.328835 
	C240.424744,136.631165 240.282166,145.941711 240.282166,155.588135 
	C233.892349,155.588135 227.861313,155.588135 221.540192,155.588135 
	C221.540192,127.398323 221.540192,99.350494 221.540192,71.075584 
	C240.930603,71.075584 260.018799,71.075584 279.406616,71.075584 
	C279.406616,76.470253 279.406616,81.695671 279.406616,87.531075 
	C268.571686,87.531075 257.958862,87.510124 247.346176,87.538139 
	C239.767029,87.558144 240.309967,86.609245 240.283875,94.415474 
	C240.271698,98.059105 240.281799,101.702805 240.281799,105.777664 
	C252.771622,105.777664 264.872467,105.777664 277.338806,105.777664 
	C277.338806,111.418755 277.338806,116.634293 277.338806,122.531021 
	C274.288879,122.531021 271.344604,122.531021 267.912415,122.530945 
z"/>
<path fill="#090909" opacity="1.000000" stroke="none" 
	d="
M529.976318,100.028198 
	C537.220886,108.033890 537.304749,117.569916 536.855530,127.113304 
	C536.811340,128.053085 534.170044,129.604004 532.713440,129.628418 
	C520.553955,129.832016 508.389557,129.744156 496.226654,129.744232 
	C494.408966,129.744247 492.591278,129.744232 490.370331,129.744232 
	C490.140076,134.832550 493.269867,137.417282 496.736755,139.203705 
	C505.564240,143.752350 513.776184,141.819641 521.587830,135.571335 
	C524.833008,139.037659 527.981750,142.401031 531.089233,145.720261 
	C522.430298,158.422745 497.597992,160.557404 483.972534,149.993576 
	C469.071655,138.440918 466.871582,114.656120 479.400177,100.562042 
	C492.327545,86.019279 515.682434,85.645668 529.976318,100.028198 
M518.036316,115.586868 
	C516.707275,108.108200 511.196899,103.961212 503.501770,104.648453 
	C496.052307,105.313751 490.792664,110.204865 490.889343,116.326607 
	C499.797852,116.326607 508.704834,116.326607 518.036316,115.586868 
z"/>
<path fill="#080808" opacity="1.000000" stroke="none" 
	d="
M320.334412,156.707840 
	C293.202759,154.490631 281.322693,126.597153 293.452332,105.642670 
	C301.329498,92.034607 319.032104,86.101547 335.488953,91.336998 
	C349.286133,95.726326 359.187805,110.937973 357.804413,125.619560 
	C356.225189,142.380112 344.878906,154.231750 328.238892,156.392242 
	C325.778503,156.711685 323.268494,156.649063 320.334412,156.707840 
M320.195374,105.331024 
	C312.761200,106.897430 308.848236,111.852585 307.487671,118.971840 
	C306.087494,126.298332 307.505127,133.009781 313.558899,137.846252 
	C315.639099,139.508179 318.549805,140.677673 321.204559,140.976944 
	C331.729980,142.163452 339.084381,135.117981 339.332123,124.065323 
	C339.608276,111.743645 332.690613,104.612564 320.195374,105.331024 
z"/>
<path fill="#0A0A0A" opacity="1.000000" stroke="none" 
	d="
M425.450989,141.498383 
	C424.976532,134.163071 424.517365,127.216194 424.302338,120.261765 
	C424.134125,114.821274 424.268616,109.371422 424.268616,103.888588 
	C421.458801,103.648643 419.331879,103.467018 416.846771,103.254799 
	C416.846771,99.222168 416.846771,95.327896 416.846771,90.928734 
	C418.979279,90.701660 421.223389,90.462700 424.069397,90.159653 
	C424.069397,83.956161 424.069397,77.729652 424.069397,71.178101 
	C430.402893,71.178101 436.135742,71.178101 442.720551,71.178101 
	C442.720551,74.371826 442.720551,77.610748 442.720551,80.849670 
	C442.720581,90.505646 442.720581,90.505829 452.606689,90.513206 
	C454.265320,90.514442 455.923950,90.513374 458.001556,90.513374 
	C458.001556,94.744461 458.001556,98.795181 458.001556,103.574013 
	C454.872437,103.574013 451.576965,103.887840 448.365936,103.500885 
	C443.478394,102.911873 442.420776,105.085014 442.638184,109.486923 
	C442.957977,115.960854 442.661041,122.463058 442.743134,128.951736 
	C442.794983,133.047714 441.879730,138.320740 446.639038,139.798615 
	C449.944031,140.824921 454.117310,139.055222 458.922943,138.394379 
	C459.943695,140.254333 461.974487,143.481186 463.453949,146.943619 
	C463.888550,147.960709 463.193909,150.122742 462.282013,150.952515 
	C450.209534,161.937469 431.049835,157.147247 425.450989,141.498383 
z"/>
<path fill="#080808" opacity="1.000000" stroke="none" 
	d="
M370.757202,129.999481 
	C370.757080,117.846977 370.840149,106.193489 370.699493,94.542694 
	C370.663269,91.544212 371.522156,90.336189 374.642761,90.474159 
	C379.274536,90.678940 383.922058,90.527176 388.750854,90.527176 
	C389.039124,93.111641 389.284637,95.312950 389.587616,98.029037 
	C395.494781,93.819763 400.798981,89.442856 408.804596,89.816154 
	C408.804596,94.621574 408.987366,99.241371 408.659546,103.824654 
	C408.588989,104.811234 406.666748,106.467911 405.612457,106.456299 
	C396.065033,106.351105 390.771057,112.516029 389.734741,122.912613 
	C388.928925,130.996567 389.299652,139.198761 389.171661,147.348785 
	C389.130157,149.991714 389.165131,152.635849 389.165131,155.606049 
	C382.979065,155.606049 377.102203,155.606049 370.757080,155.606049 
	C370.757080,147.093155 370.757080,138.796326 370.757202,129.999481 
z"/>
<path fill="#FF603E" opacity="1.000000" stroke="none" 
	d="
M39.168991,114.996811 
	C39.122120,109.971924 39.075249,104.947029 39.452499,99.455154 
	C41.366184,98.043633 43.089024,97.333702 44.310284,96.119347 
	C62.346870,78.184662 80.340836,60.206776 98.252159,42.147160 
	C99.535675,40.853016 100.099205,38.844803 100.997498,37.168602 
	C108.353821,37.124065 115.710144,37.079529 123.489815,37.434498 
	C122.776596,39.221542 121.744324,40.712589 120.486595,41.979885 
	C112.018974,50.511963 103.449783,58.944172 95.056984,67.548691 
	C93.674896,68.965645 92.998848,71.071274 91.539658,72.969452 
	C89.425903,73.103409 87.769005,73.144356 86.112061,73.146805 
	C75.801170,73.162018 75.801163,73.159157 74.508438,83.003578 
	C72.551018,84.055626 70.723938,84.872459 69.386703,86.187431 
	C60.704922,94.724670 52.155888,103.396812 43.490074,111.950508 
	C42.252846,113.171730 40.619183,113.991333 39.168991,114.996811 
z"/>
<path fill="#FF5840" opacity="1.000000" stroke="none" 
	d="
M100.533279,37.101219 
	C100.099205,38.844803 99.535675,40.853016 98.252159,42.147160 
	C80.340836,60.206776 62.346870,78.184662 44.310284,96.119347 
	C43.089024,97.333702 41.366184,98.043633 39.522652,98.992813 
	C39.121208,91.306419 39.073738,83.615379 39.451462,75.456024 
	C41.368763,74.040779 43.083374,73.319572 44.313526,72.106911 
	C49.032356,67.455162 53.541725,62.591640 58.230873,57.908897 
	C64.000412,52.147247 69.918549,46.533722 75.645660,40.731026 
	C76.461510,39.904408 76.563889,38.373615 76.996475,37.168728 
	C84.687340,37.123764 92.378204,37.078800 100.533279,37.101219 
z"/>
<path fill="#FF6D3C" opacity="1.000000" stroke="none" 
	d="
M42.830589,149.086685 
	C42.505280,149.034531 42.252209,148.870743 42.003105,148.033585 
	C41.010483,146.639145 40.086140,145.806442 39.161797,144.973740 
	C39.117516,140.289276 39.073235,135.604813 39.452686,130.454224 
	C41.476559,128.933151 43.299019,128.104446 44.640541,126.786278 
	C52.986065,118.586067 61.169933,110.220879 69.549652,102.056389 
	C70.968475,100.674011 73.076210,99.998718 74.981400,99.453979 
	C75.035461,110.602448 74.973785,121.293686 74.553970,131.989197 
	C69.470993,136.381256 64.746147,140.769043 59.570999,145.227631 
	C55.841576,145.335632 52.562466,145.372818 48.943619,145.291183 
	C48.131760,145.505280 47.659630,145.838211 47.187500,146.171143 
	C47.784821,146.787079 48.382145,147.403030 49.237385,148.225800 
	C51.399940,150.511948 53.304581,152.591278 55.148743,155.034012 
	C54.790409,158.781296 53.412682,157.697479 51.743320,156.290085 
	C48.823433,153.828430 45.806728,151.481613 42.830589,149.086685 
z"/>
<path fill="#FF6A3D" opacity="1.000000" stroke="none" 
	d="
M91.996490,72.858635 
	C92.998848,71.071274 93.674896,68.965645 95.056984,67.548691 
	C103.449783,58.944172 112.018974,50.511963 120.486595,41.979885 
	C121.744324,40.712589 122.776596,39.221542 123.953781,37.501324 
	C131.102570,37.115025 138.211884,36.981308 145.317886,37.081604 
	C146.597443,37.099667 147.863419,38.081192 149.069595,39.344597 
	C139.672623,49.210777 130.290512,58.299179 121.065475,67.544312 
	C119.667511,68.945312 118.999825,71.075005 117.536041,72.974030 
	C108.717331,73.006485 100.356911,72.932556 91.996490,72.858635 
z"/>
<path fill="#FF4E41" opacity="1.000000" stroke="none" 
	d="
M76.532272,37.101555 
	C76.563889,38.373615 76.461510,39.904408 75.645660,40.731026 
	C69.918549,46.533722 64.000412,52.147247 58.230873,57.908897 
	C53.541725,62.591640 49.032356,67.455162 44.313526,72.106911 
	C43.083374,73.319572 41.368763,74.040779 39.522636,74.992004 
	C39.168610,62.537651 39.168610,50.078999 39.168610,37.034386 
	C51.557095,37.034386 63.812580,37.034386 76.532272,37.101555 
z"/>
<path fill="#FF753E" opacity="1.000000" stroke="none" 
	d="
M117.994354,72.867645 
	C118.999825,71.075005 119.667511,68.945312 121.065475,67.544312 
	C130.290512,58.299179 139.672623,49.210777 149.176804,39.710800 
	C154.716141,44.773338 160.082199,50.196369 165.756348,56.156647 
	C166.973312,58.122150 167.882187,59.550407 169.134384,61.518181 
	C167.245529,61.384693 165.926544,61.291481 164.328995,61.036095 
	C159.037399,55.847603 154.024384,50.821285 148.954590,45.495434 
	C148.553543,44.953419 148.209274,44.710941 147.864990,44.468464 
	C147.638672,45.136765 147.412354,45.805061 147.274338,46.905411 
	C147.369507,54.638268 147.315308,61.939915 147.416061,69.239426 
	C147.451782,71.827110 146.863037,73.259361 143.849304,73.183105 
	C135.233841,72.965103 126.613052,72.957809 117.994354,72.867645 
z"/>
<path fill="#FF643E" opacity="1.000000" stroke="none" 
	d="
M74.865662,98.996742 
	C73.076210,99.998718 70.968475,100.674011 69.549652,102.056389 
	C61.169933,110.220879 52.986065,118.586067 44.640541,126.786278 
	C43.299019,128.104446 41.476559,128.933151 39.522491,129.992706 
	C39.122639,125.305069 39.076717,120.612846 39.099892,115.458725 
	C40.619183,113.991333 42.252846,113.171730 43.490074,111.950508 
	C52.155888,103.396812 60.704922,94.724670 69.386703,86.187431 
	C70.723938,84.872459 72.551018,84.055626 74.623802,83.458878 
	C75.019257,88.938477 74.942459,93.967613 74.865662,98.996742 
z"/>
<path fill="#FFB332" opacity="1.000000" stroke="none" 
	d="
M188.887955,161.998672 
	C188.887955,170.116089 188.887955,178.233521 188.887955,186.969269 
	C179.776169,186.969269 170.850845,186.969269 161.468445,186.540100 
	C161.341614,184.715912 161.671860,183.320877 162.462540,181.844925 
	C167.867584,181.734055 172.812210,181.704102 178.056732,181.756256 
	C178.764038,181.502777 179.171417,181.167206 179.578796,180.831650 
	C179.098373,180.538071 178.617935,180.244476 177.922409,179.693970 
	C173.880676,175.409225 170.054047,171.381424 166.648605,167.182755 
	C168.478790,166.631912 169.887787,166.251923 171.592728,166.028931 
	C175.313004,169.823227 178.737335,173.460541 182.161667,177.097870 
	C182.768951,176.937668 183.376221,176.777466 183.983505,176.617279 
	C183.983505,171.744873 183.983505,166.872467 184.392670,162.000031 
	C186.163879,161.999557 187.525925,161.999115 188.887955,161.998672 
z"/>
<path fill="#FF9236" opacity="1.000000" stroke="none" 
	d="
M104.997009,186.830688 
	C97.313881,186.876343 89.630745,186.921982 81.432709,186.569702 
	C78.986694,183.986343 77.001740,181.845612 75.139824,179.602737 
	C73.330109,177.422745 73.582436,176.032471 77.093903,176.223923 
	C80.563713,178.547653 80.364204,175.837448 81.129753,173.796967 
	C81.628151,170.349167 81.803352,167.169067 82.335098,163.991638 
	C83.636200,164.002609 84.580757,164.010925 85.660751,164.466583 
	C85.829628,168.899078 86.077583,172.897430 85.833435,176.865494 
	C85.609444,180.505814 86.757462,181.950043 90.575951,181.792831 
	C96.040215,181.567886 101.525742,181.859329 106.973114,182.270203 
	C106.295036,184.016983 105.646027,185.423843 104.997009,186.830688 
M80.312531,178.324600 
	C80.013573,178.552383 79.714622,178.780151 79.415665,179.007935 
	C79.598343,179.202789 79.781021,179.397629 79.963692,179.592484 
	C80.198166,179.297897 80.432640,179.003311 80.312531,178.324600 
z"/>
<path fill="#FF9139" opacity="1.000000" stroke="none" 
	d="
M185.227280,74.902954 
	C188.171356,76.454735 189.291565,78.781189 189.166580,82.195053 
	C188.912155,89.145645 189.063553,96.111092 188.607300,103.539444 
	C186.772934,104.339043 185.378983,104.669609 183.906631,104.536934 
	C183.812119,98.660378 183.987518,93.235252 183.654404,87.841522 
	C183.563400,86.368233 181.944778,84.989288 180.884094,83.216812 
	C176.035431,82.580750 171.332855,82.180527 166.623032,82.057358 
	C164.266083,81.995712 162.684692,81.564392 163.493866,78.720039 
	C169.008942,78.668785 174.062042,78.668785 180.066055,78.668785 
	C178.934158,76.308487 178.390747,75.175323 178.147049,73.851311 
	C179.674530,73.072487 180.902283,72.484512 182.130051,71.896545 
	C182.130051,71.896545 182.012558,71.952812 182.053101,72.270981 
	C183.138184,73.360420 184.182724,74.131683 185.227280,74.902954 
M180.301361,78.222580 
	C180.676605,78.270836 181.051865,78.319092 181.427109,78.367348 
	C181.428314,78.102348 181.429504,77.837349 181.430695,77.572350 
	C181.054398,77.613251 180.678116,77.654152 180.301361,78.222580 
z"/>
<path fill="#FF9F36" opacity="1.000000" stroke="none" 
	d="
M183.985046,105.000183 
	C185.378983,104.669609 186.772934,104.339043 188.528320,104.002075 
	C188.942047,114.687340 188.994324,125.378990 188.606735,136.539673 
	C186.772751,137.339172 185.378632,137.669632 183.907166,137.536621 
	C183.881546,126.382156 183.933289,115.691170 183.985046,105.000183 
z"/>
<path fill="#FF9E34" opacity="1.000000" stroke="none" 
	d="
M105.461533,186.899017 
	C105.646027,185.423843 106.295036,184.016983 107.435486,182.185883 
	C117.285210,181.818268 126.643501,181.874924 135.968445,182.291138 
	C135.622162,184.044128 135.309250,185.437515 134.996323,186.830917 
	C125.306236,186.876404 115.616142,186.921875 105.461533,186.899017 
z"/>
<path fill="#FFA932" opacity="1.000000" stroke="none" 
	d="
M135.460953,186.898773 
	C135.309250,185.437515 135.622162,184.044128 136.431091,182.208557 
	C145.285431,181.819534 153.643768,181.872696 162.002106,181.925842 
	C161.671860,183.320877 161.341614,184.715912 161.003998,186.472443 
	C152.639603,186.878174 144.282593,186.922409 135.460953,186.898773 
z"/>
<path fill="#FF8A54" opacity="1.000000" stroke="none" 
	d="
M42.928211,149.410614 
	C45.806728,151.481613 48.823433,153.828430 51.743320,156.290085 
	C53.412682,157.697479 54.790409,158.781296 55.454247,155.182220 
	C59.615894,158.813263 63.411564,162.659531 67.149544,166.923096 
	C65.982498,168.257828 64.873131,169.175247 63.763763,170.092667 
	C56.851120,163.306625 49.938477,156.520584 42.928211,149.410614 
z"/>
<path fill="#FFAB34" opacity="1.000000" stroke="none" 
	d="
M183.984528,138.000122 
	C185.378632,137.669632 186.772751,137.339172 188.528320,137.002411 
	C188.942505,145.021759 188.995255,153.047394 188.967987,161.535858 
	C187.525925,161.999115 186.163879,161.999557 184.315186,161.536591 
	C183.880524,153.382156 183.932526,145.691147 183.984528,138.000122 
z"/>
<path fill="#FF8F4C" opacity="1.000000" stroke="none" 
	d="
M182.019592,71.579422 
	C180.902283,72.484512 179.674530,73.072487 177.829010,73.755684 
	C173.010025,69.633369 168.808792,65.415817 164.607574,61.198269 
	C165.926544,61.291481 167.245529,61.384693 169.134384,61.518181 
	C167.882187,59.550407 166.973312,58.122150 166.031921,56.346466 
	C171.302643,61.086800 176.605881,66.174545 182.019592,71.579422 
z"/>
<path fill="#FF9556" opacity="1.000000" stroke="none" 
	d="
M63.892242,170.407349 
	C64.873131,169.175247 65.982498,168.257828 67.459610,167.077942 
	C70.806198,169.899338 73.785049,172.983200 76.763901,176.067078 
	C73.582436,176.032471 73.330109,177.422745 75.139824,179.602737 
	C77.001740,181.845612 78.986694,183.986343 80.969650,186.503616 
	C75.354568,181.464325 69.687645,176.093185 63.892242,170.407349 
z"/>
<path fill="#FF8A54" opacity="1.000000" stroke="none" 
	d="
M39.141487,145.300659 
	C40.086140,145.806442 41.010483,146.639145 41.926861,147.814987 
	C40.986320,147.314606 40.053745,146.471100 39.141487,145.300659 
z"/>
<path fill="#FF8F4C" opacity="1.000000" stroke="none" 
	d="
M185.126755,74.592354 
	C184.182724,74.131683 183.138184,73.360420 182.097488,72.223328 
	C183.076309,72.665581 184.051270,73.473663 185.126755,74.592354 
z"/>
<path fill="#EAEAEA" opacity="1.000000" stroke="none" 
	d="
M517.824097,115.956741 
	C508.704834,116.326607 499.797852,116.326607 490.889343,116.326607 
	C490.792664,110.204865 496.052307,105.313751 503.501770,104.648453 
	C511.196899,103.961212 516.707275,108.108200 517.824097,115.956741 
z"/>
<path fill="#F8F8F8" opacity="1.000000" stroke="none" 
	d="
M320.600586,105.252274 
	C332.690613,104.612564 339.608276,111.743645 339.332123,124.065323 
	C339.084381,135.117981 331.729980,142.163452 321.204559,140.976944 
	C318.549805,140.677673 315.639099,139.508179 313.558899,137.846252 
	C307.505127,133.009781 306.087494,126.298332 307.487671,118.971840 
	C308.848236,111.852585 312.761200,106.897430 320.600586,105.252274 
z"/>
<path fill="#FFF7F4" opacity="1.000000" stroke="none" 
	d="
M77.093903,176.223923 
	C73.785049,172.983200 70.806198,169.899338 67.517288,166.660629 
	C63.411564,162.659531 59.615894,158.813263 55.514721,154.818787 
	C53.304581,152.591278 51.399940,150.511948 49.255878,147.895691 
	C49.105423,146.709183 49.194389,146.059586 49.283352,145.410004 
	C52.562466,145.372818 55.841576,145.335632 60.030083,145.317932 
	C61.598434,145.352234 62.257343,145.377670 62.916348,145.380249 
	C76.193390,145.432053 76.193390,145.431519 74.912109,131.984924 
	C74.973785,121.293686 75.035461,110.602448 74.981400,99.453979 
	C74.942459,93.967613 75.019257,88.938477 74.980698,83.454041 
	C75.801163,73.159157 75.801170,73.162018 86.112061,73.146805 
	C87.769005,73.144356 89.425903,73.103409 91.539658,72.969452 
	C100.356911,72.932556 108.717331,73.006485 117.536049,72.974030 
	C126.613052,72.957809 135.233841,72.965103 143.849304,73.183105 
	C146.863037,73.259361 147.451782,71.827110 147.416061,69.239426 
	C147.315308,61.939915 147.369507,54.638268 147.575470,46.783691 
	C148.195984,46.084934 148.603668,45.939953 149.011368,45.794968 
	C154.024384,50.821285 159.037399,55.847603 164.328995,61.036095 
	C168.808792,65.415817 173.010025,69.633369 177.529297,73.946541 
	C178.390747,75.175323 178.934158,76.308487 180.066055,78.668785 
	C174.062042,78.668785 169.008942,78.668785 163.138184,78.521469 
	C155.526215,78.362648 148.731918,78.351135 141.483398,78.237099 
	C125.549545,78.101112 110.069923,78.049400 94.590294,78.047180 
	C90.766182,78.046631 86.909096,77.952293 83.137039,78.440720 
	C81.927879,78.597282 79.998993,80.489098 79.998161,81.588203 
	C79.986008,97.717346 80.244453,113.846687 80.292076,130.422546 
	C80.358635,140.889557 80.571648,150.909973 80.585434,161.283768 
	C80.526314,165.779648 80.666435,169.922165 80.806557,174.064682 
	C80.364204,175.837448 80.563713,178.547653 77.093903,176.223923 
z"/>
<path fill="#FF7F4C" opacity="1.000000" stroke="none" 
	d="
M74.553970,131.989197 
	C76.193390,145.431519 76.193390,145.432053 62.916348,145.380249 
	C62.257343,145.377670 61.598434,145.352234 60.480392,145.247131 
	C64.746147,140.769043 69.470993,136.381256 74.553970,131.989197 
z"/>
<path fill="#FFB393" opacity="1.000000" stroke="none" 
	d="
M48.943619,145.291168 
	C49.194389,146.059586 49.105423,146.709183 48.997963,147.688873 
	C48.382145,147.403030 47.784821,146.787079 47.187500,146.171143 
	C47.659630,145.838211 48.131760,145.505280 48.943619,145.291168 
z"/>
<path fill="#FF7F4C" opacity="1.000000" stroke="none" 
	d="
M148.954590,45.495434 
	C148.603668,45.939953 148.195984,46.084934 147.487152,46.351639 
	C147.412354,45.805061 147.638672,45.136765 147.864990,44.468464 
	C148.209274,44.710941 148.553543,44.953419 148.954590,45.495434 
z"/>
<path fill="#FFFCFA" opacity="1.000000" stroke="none" 
	d="
M162.462540,181.844925 
	C153.643768,181.872696 145.285431,181.819534 136.464447,181.848969 
	C126.643501,181.874924 117.285210,181.818268 107.464554,181.845947 
	C101.525742,181.859329 96.040215,181.567886 90.575951,181.792831 
	C86.757462,181.950043 85.609444,180.505814 85.833435,176.865494 
	C86.077583,172.897430 85.829628,168.899078 85.806847,164.016022 
	C85.855827,158.652832 86.034195,154.182846 85.885216,149.723831 
	C85.778908,146.541733 86.905273,145.270279 90.179306,145.337311 
	C96.458641,145.465881 102.744438,145.278458 109.488831,145.298798 
	C119.329468,145.382782 128.716675,145.177917 138.083527,145.523880 
	C140.977448,145.630768 143.815948,147.237793 146.842773,148.458313 
	C153.412949,154.956985 159.820175,161.155304 166.227402,167.353622 
	C170.054047,171.381424 173.880676,175.409225 177.887482,179.987152 
	C177.964050,180.916214 177.860428,181.295181 177.756805,181.674149 
	C172.812210,181.704102 167.867584,181.734055 162.462540,181.844925 
z"/>
<path fill="#FFFCFA" opacity="1.000000" stroke="none" 
	d="
M183.907166,137.536636 
	C183.932526,145.691147 183.880524,153.382156 183.906006,161.536621 
	C183.983505,166.872467 183.983505,171.744873 183.983505,176.617279 
	C183.376221,176.777466 182.768951,176.937668 182.161667,177.097870 
	C178.737335,173.460541 175.313004,169.823227 171.434387,165.719696 
	C166.957230,161.074310 163.012085,156.816376 158.884476,152.743378 
	C156.076645,149.972687 153.013275,147.460953 149.930405,144.479736 
	C149.145142,141.823181 148.012009,139.538116 147.926163,137.214371 
	C147.568085,127.522408 147.524963,117.818810 147.539917,107.740799 
	C147.768600,101.541489 148.083420,95.707954 147.795029,89.904411 
	C147.572601,85.428825 148.849380,83.735161 153.625153,83.870079 
	C162.749023,84.127846 171.892105,83.706512 181.027206,83.567047 
	C181.944778,84.989288 183.563400,86.368233 183.654404,87.841522 
	C183.987518,93.235252 183.812119,98.660378 183.906631,104.536926 
	C183.933289,115.691170 183.881546,126.382156 183.907166,137.536636 
z"/>
<path fill="#FFAA46" opacity="1.000000" stroke="none" 
	d="
M150.064178,144.833420 
	C153.013275,147.460953 156.076645,149.972687 158.884476,152.743378 
	C163.012085,156.816376 166.957230,161.074310 171.138443,165.562714 
	C169.887787,166.251923 168.478790,166.631912 166.648605,167.182755 
	C159.820175,161.155304 153.412949,154.956985 147.180206,148.314056 
	C148.257843,146.857437 149.161011,145.845428 150.064178,144.833420 
z"/>
<path fill="#FFBC8C" opacity="1.000000" stroke="none" 
	d="
M178.056732,181.756256 
	C177.860428,181.295181 177.964050,180.916214 178.102600,180.244080 
	C178.617935,180.244476 179.098373,180.538071 179.578796,180.831650 
	C179.171417,181.167206 178.764038,181.502777 178.056732,181.756256 
z"/>
<path fill="#FF8345" opacity="1.000000" stroke="none" 
	d="
M109.027557,145.222137 
	C102.744438,145.278458 96.458641,145.465881 90.179306,145.337311 
	C86.905273,145.270279 85.778908,146.541733 85.885216,149.723831 
	C86.034195,154.182846 85.855827,158.652832 85.671402,163.568665 
	C84.580757,164.010925 83.636200,164.002609 82.332260,163.637604 
	C81.576813,162.497406 81.180740,161.713913 80.784668,160.930405 
	C80.571648,150.909973 80.358635,140.889557 80.671288,130.425522 
	C82.479477,129.992844 83.761993,130.003769 85.056313,130.459991 
	C85.604309,133.975113 86.140503,137.044952 87.068924,140.287338 
	C94.646248,140.588654 101.831345,140.717407 109.012161,141.282288 
	C109.014442,142.886307 109.020996,144.054230 109.027557,145.222137 
z"/>
<path fill="#FF9556" opacity="1.000000" stroke="none" 
	d="
M80.585434,161.283768 
	C81.180740,161.713913 81.576813,162.497406 81.975723,163.634949 
	C81.803352,167.169067 81.628151,170.349167 81.129753,173.796967 
	C80.666435,169.922165 80.526314,165.779648 80.585434,161.283768 
z"/>
<path fill="#FF9556" opacity="1.000000" stroke="none" 
	d="
M80.489822,178.516663 
	C80.432640,179.003311 80.198166,179.297897 79.963692,179.592484 
	C79.781021,179.397629 79.598343,179.202789 79.415665,179.007935 
	C79.714622,178.780151 80.013573,178.552383 80.489822,178.516663 
z"/>
<path fill="#FF9154" opacity="1.000000" stroke="none" 
	d="
M180.884094,83.216812 
	C171.892105,83.706512 162.749023,84.127846 153.625153,83.870079 
	C148.849380,83.735161 147.572601,85.428825 147.795029,89.904411 
	C148.083420,95.707954 147.768600,101.541489 147.168365,107.709747 
	C145.255646,109.039978 143.888031,110.022568 142.442230,110.543030 
	C142.329590,102.961250 142.119827,95.836235 142.337112,88.724274 
	C142.440536,85.338867 141.324463,83.762398 138.048752,83.482979 
	C139.560226,81.665367 143.078278,81.846321 141.937607,78.339630 
	C148.731918,78.351135 155.526215,78.362648 162.676208,78.572723 
	C162.684692,81.564392 164.266083,81.995712 166.623032,82.057358 
	C171.332855,82.180527 176.035431,82.580750 180.884094,83.216812 
z"/>
<path fill="#FF9154" opacity="1.000000" stroke="none" 
	d="
M180.301590,77.958817 
	C180.678116,77.654152 181.054398,77.613251 181.430695,77.572350 
	C181.429504,77.837349 181.428314,78.102348 181.427109,78.367348 
	C181.051865,78.319092 180.676605,78.270836 180.301590,77.958817 
z"/>
<path fill="#FF713F" opacity="1.000000" stroke="none" 
	d="
M141.483398,78.237099 
	C143.078278,81.846321 139.560226,81.665367 137.588165,83.556976 
	C122.014809,83.958916 106.989532,83.945892 91.781265,83.707756 
	C91.113602,83.683388 90.628922,83.884125 90.144241,84.084854 
	C90.635468,84.739250 91.126686,85.393631 91.898849,86.252899 
	C97.544510,91.932510 102.909225,97.407234 107.957047,103.069351 
	C106.387199,103.854073 105.134239,104.451408 103.579269,104.911263 
	C98.223022,99.752335 93.168793,94.730888 88.049934,89.419968 
	C87.341827,89.433685 86.698341,89.736885 86.061493,90.506180 
	C86.039955,98.984329 86.011780,106.996384 85.702484,115.309769 
	C85.295746,120.412300 85.170128,125.213493 85.044510,130.014694 
	C83.761993,130.003769 82.479477,129.992844 80.817749,129.978943 
	C80.244453,113.846687 79.986008,97.717346 79.998161,81.588203 
	C79.998993,80.489098 81.927879,78.597282 83.137039,78.440720 
	C86.909096,77.952293 90.766182,78.046631 94.590294,78.047180 
	C110.069923,78.049400 125.549545,78.101112 141.483398,78.237099 
z"/>
<path fill="#FF9A49" opacity="1.000000" stroke="none" 
	d="
M142.520401,111.005165 
	C143.888031,110.022568 145.255646,109.039978 146.994812,108.088432 
	C147.524963,117.818810 147.568085,127.522408 147.926163,137.214371 
	C148.012009,139.538116 149.145142,141.823181 149.930405,144.479736 
	C149.161011,145.845428 148.257843,146.857437 147.017258,148.013702 
	C143.815948,147.237793 140.977448,145.630768 138.083527,145.523880 
	C128.716675,145.177917 119.329468,145.382782 109.488831,145.298798 
	C109.020996,144.054230 109.014442,142.886307 109.473694,141.200317 
	C118.499947,140.695938 127.060371,140.709625 135.979431,140.800369 
	C138.763245,139.883728 138.452225,138.895264 136.095642,137.696808 
	C135.183975,136.676544 134.509064,135.869720 134.222198,134.980865 
	C135.113480,133.494080 135.616730,132.089355 136.444901,130.855438 
	C138.244049,132.150116 139.718246,133.273972 142.520401,135.410172 
	C142.520401,126.183128 142.520401,118.594147 142.520401,111.005165 
z"/>
<path fill="#FFFBF8" opacity="1.000000" stroke="none" 
	d="
M133.834152,135.062897 
	C134.509064,135.869720 135.183975,136.676544 136.046021,138.060715 
	C136.029053,139.333145 135.824921,140.028229 135.620804,140.723328 
	C127.060371,140.709625 118.499947,140.695938 109.477982,140.764206 
	C101.831345,140.717407 94.646248,140.588654 87.111420,139.810654 
	C86.502335,131.110413 86.242973,123.059425 85.983612,115.008438 
	C86.011780,106.996384 86.039955,98.984329 86.406448,90.464340 
	C87.201363,89.874084 87.657967,89.791763 88.114563,89.709442 
	C93.168793,94.730888 98.223022,99.752335 103.702110,105.226440 
	C109.315170,110.826180 114.503372,115.973259 119.853363,121.423264 
	C124.621475,126.171761 129.227814,130.617325 133.834152,135.062897 
z"/>
<path fill="#FFAE78" opacity="1.000000" stroke="none" 
	d="
M85.702484,115.309769 
	C86.242973,123.059425 86.502335,131.110413 86.719193,139.638092 
	C86.140503,137.044952 85.604309,133.975113 85.056313,130.459991 
	C85.170128,125.213493 85.295746,120.412300 85.702484,115.309769 
z"/>
<path fill="#FFF8F4" opacity="1.000000" stroke="none" 
	d="
M142.442230,110.543030 
	C142.520401,118.594147 142.520401,126.183128 142.520401,135.410172 
	C139.718246,133.273972 138.244049,132.150116 136.292145,130.566010 
	C132.002823,126.663795 128.191162,123.221825 124.223862,119.474854 
	C118.803459,113.740555 113.538696,108.311256 108.273941,102.881958 
	C102.909225,97.407234 97.544510,91.932510 91.956619,85.900269 
	C91.810379,84.872787 91.887314,84.402824 91.964249,83.932861 
	C106.989532,83.945892 122.014809,83.958916 137.500671,83.897949 
	C141.324463,83.762398 142.440536,85.338867 142.337112,88.724274 
	C142.119827,95.836235 142.329590,102.961250 142.442230,110.543030 
z"/>
<path fill="#FF8442" opacity="1.000000" stroke="none" 
	d="
M107.957047,103.069351 
	C113.538696,108.311256 118.803459,113.740555 123.848701,119.647858 
	C122.316650,120.457352 121.004120,120.788841 119.691582,121.120331 
	C114.503372,115.973259 109.315170,110.826180 104.004120,105.363922 
	C105.134239,104.451408 106.387199,103.854073 107.957047,103.069351 
z"/>
<path fill="#FF9154" opacity="1.000000" stroke="none" 
	d="
M91.781265,83.707756 
	C91.887314,84.402824 91.810379,84.872787 91.675674,85.695389 
	C91.126686,85.393631 90.635468,84.739250 90.144241,84.084854 
	C90.628922,83.884125 91.113602,83.683388 91.781265,83.707756 
z"/>
<path fill="#FFAE78" opacity="1.000000" stroke="none" 
	d="
M88.049934,89.419968 
	C87.657967,89.791763 87.201363,89.874084 86.399811,89.998245 
	C86.698341,89.736885 87.341827,89.433685 88.049934,89.419968 
z"/>
<path fill="#FF8E41" opacity="1.000000" stroke="none" 
	d="
M119.853363,121.423264 
	C121.004120,120.788841 122.316650,120.457352 124.004349,119.952858 
	C128.191162,123.221825 132.002823,126.663795 135.967224,130.395187 
	C135.616730,132.089355 135.113480,133.494080 134.222198,134.980865 
	C129.227814,130.617325 124.621475,126.171761 119.853363,121.423264 
z"/>
<path fill="#FFAE78" opacity="1.000000" stroke="none" 
	d="
M135.979431,140.800369 
	C135.824921,140.028229 136.029053,139.333145 136.282791,138.274139 
	C138.452225,138.895264 138.763245,139.883728 135.979431,140.800369 
z"/>
</svg>