<svg version="1.1" id="Layer_1" xmlns="http://www.w3.org/2000/svg" xmlns:xlink="http://www.w3.org/1999/xlink" x="0px" y="0px"
	 width="100%" viewBox="1 1 1036 374" enable-background="new 0 0 1036 374" xml:space="preserve">
<path fill="#FFFFFF" opacity="1.000000" stroke="none" 
	d="
M647.000000,375.000000 
	C431.333344,375.000000 216.166672,375.000000 1.000000,375.000000 
	C1.000000,250.333328 1.000000,125.666664 1.000000,1.000000 
	C346.333344,1.000000 691.666687,1.000000 1037.000000,1.000000 
	C1037.000000,125.666664 1037.000000,250.333328 1037.000000,375.000000 
	C907.166687,375.000000 777.333313,375.000000 647.000000,375.000000 
M338.538422,91.856483 
	C344.267365,84.520416 349.996338,77.184349 356.596771,69.865784 
	C366.974670,69.746857 373.631775,62.501141 371.568176,53.570599 
	C370.108246,47.252686 364.705383,42.959343 358.262787,42.997566 
	C351.208160,43.039417 346.510529,47.529301 344.144897,55.953232 
	C323.597717,65.017723 303.050568,74.082222 281.826355,82.930664 
	C274.520599,80.758110 271.801849,82.092667 269.123322,88.973991 
	C255.334045,95.042099 241.544769,101.110207 227.073792,106.940735 
	C218.476089,103.278114 214.558792,105.157921 210.366028,114.861992 
	C174.245392,130.740189 138.124771,146.618393 101.337090,162.153809 
	C100.494377,161.630051 99.682648,161.046295 98.803841,160.592422 
	C93.833542,158.025345 88.909264,158.011490 84.266464,161.278137 
	C79.545387,164.599838 77.539993,170.185318 79.111298,175.791199 
	C80.635910,181.230484 84.349472,184.584167 89.908867,185.548309 
	C96.748940,186.734543 101.132721,182.863815 105.802246,177.856812 
	C121.845428,177.841812 137.888611,177.826828 154.264343,178.433594 
	C160.453644,186.127808 167.430130,185.873352 173.026779,177.830185 
	C184.066910,177.822128 195.107025,177.814056 206.669586,178.215210 
	C207.220245,179.384735 207.770905,180.554276 207.879776,182.323227 
	C199.193298,193.515533 190.506821,204.707840 181.086975,215.795212 
	C176.629028,214.362976 172.260010,215.363876 170.548218,219.448975 
	C169.206253,222.651505 170.225296,226.843353 169.748703,231.189117 
	C161.673981,241.517410 153.599258,251.845703 144.783096,262.172943 
	C136.827759,262.552979 134.616653,265.569122 135.848923,274.435791 
	C130.399216,281.434937 124.949516,288.434082 118.802101,295.471222 
	C110.227898,295.669312 107.847771,298.985413 109.631363,308.111298 
	C104.101723,315.148010 98.572083,322.184723 92.176506,329.198608 
	C90.679207,329.193146 89.142838,328.965942 87.691536,329.221619 
	C82.149612,330.197937 78.229279,333.240875 76.610039,338.760437 
	C75.065033,344.026978 76.289452,348.715240 80.314262,352.442902 
	C84.345238,356.176239 89.096756,356.904327 94.261513,355.093811 
	C98.941269,353.453339 101.197525,349.647369 103.695496,345.155792 
	C125.034401,335.726318 146.373306,326.296844 168.567169,317.003601 
	C172.815292,317.806458 175.703400,315.836090 178.621506,312.171722 
	C193.080200,305.759125 207.538910,299.346558 222.763779,293.102112 
	C229.782852,294.777405 232.553497,293.463837 236.769104,286.606323 
	C273.605072,270.378265 310.441010,254.150177 347.979797,238.132797 
	C353.202515,240.510193 358.475159,241.472443 363.502747,237.842316 
	C368.784698,234.028519 370.587524,227.830170 368.410187,221.973419 
	C366.489319,216.806488 361.117798,213.036743 355.787933,213.115128 
	C349.464264,213.208130 344.680756,217.195618 341.861938,223.874771 
	C325.985931,223.853607 310.109955,223.832443 294.163544,223.077789 
	C293.067688,218.075867 289.969208,215.188858 284.857727,215.074982 
	C279.048126,214.945541 276.436249,218.812210 274.074646,223.824768 
	C263.426544,223.845795 252.778458,223.866821 241.985397,223.214066 
	C241.243103,221.534821 240.500824,219.855591 240.136597,217.562881 
	C248.965744,206.299286 257.794891,195.035706 267.350800,183.743912 
	C277.242279,183.783005 280.831787,178.827393 278.388489,168.674438 
	C286.649994,158.079941 294.911469,147.485443 303.916656,136.882050 
	C311.162537,135.752151 312.653168,133.702820 312.246002,125.400497 
	C317.946960,117.985703 323.647919,110.570915 330.137115,103.200897 
	C337.778809,102.792747 339.943329,99.800110 338.538422,91.856483 
M976.253906,258.763489 
	C984.447876,251.676376 987.174866,242.058594 988.705261,231.883255 
	C991.209290,215.234085 984.625305,199.867111 971.774170,192.735657 
	C962.759094,187.732941 952.928162,185.189026 942.721252,185.080826 
	C914.228943,184.778778 885.732117,184.910385 857.237427,184.790375 
	C853.424011,184.774292 849.579224,184.523483 845.808228,183.974258 
	C840.410522,183.188049 837.382629,179.666321 837.244934,174.603729 
	C837.098877,169.233856 839.481079,166.109085 845.175354,164.963104 
	C848.409546,164.312241 851.772705,164.052536 855.078552,164.045868 
	C887.242737,163.980942 919.407227,163.963531 951.571106,164.078705 
	C954.546021,164.089355 956.346863,163.244965 958.119995,160.822769 
	C963.514282,153.453949 969.263550,146.346069 974.803955,139.082718 
	C978.035950,134.845642 981.132874,130.505539 984.832703,125.474678 
	C982.890991,125.474678 982.092041,125.474686 981.293030,125.474678 
	C939.629456,125.474579 897.964722,125.317101 856.303101,125.601799 
	C847.546692,125.661629 838.634094,126.579155 830.086060,128.443176 
	C812.703857,132.233627 798.771667,140.847443 794.503174,159.658325 
	C789.932007,179.802673 795.467346,200.367462 817.790833,208.629974 
	C826.624939,211.899719 836.489685,213.531250 845.939636,213.771881 
	C872.420532,214.446182 898.929810,213.976959 925.427734,214.043045 
	C928.897156,214.051697 932.400269,214.331879 935.826599,214.873306 
	C941.992554,215.847610 944.701416,219.000320 944.805481,224.789841 
	C944.899109,229.993637 941.497681,233.937744 935.779297,234.895325 
	C933.170837,235.332123 930.483215,235.448334 927.831238,235.450989 
	C893.167114,235.485748 858.502441,235.574051 823.839661,235.358429 
	C819.041382,235.328583 815.923218,236.598511 813.056213,240.518692 
	C805.063782,251.447067 796.647034,262.065155 787.844727,273.525909 
	C790.399780,273.525909 792.008972,273.525879 793.618164,273.525879 
	C821.782776,273.525879 849.947510,273.590271 878.111877,273.504211 
	C898.266296,273.442627 918.439026,273.650757 938.567566,272.841797 
	C952.164856,272.295349 965.122253,268.627045 976.253906,258.763489 
M552.392334,125.473000 
	C498.629395,125.473000 444.866486,125.473000 391.007629,125.473000 
	C391.007629,175.065201 391.007629,224.026764 391.007629,273.527039 
	C392.974609,273.527039 394.770996,273.527069 396.567383,273.527069 
	C436.396698,273.527069 476.238770,272.960724 516.047791,273.858826 
	C528.622925,274.142548 537.192383,271.164246 543.791443,260.240295 
	C548.943787,251.711151 555.825562,244.226669 562.559326,235.471222 
	C520.078491,235.471222 478.689117,235.471222 437.137634,235.471222 
	C437.137634,228.607300 437.137634,222.202774 437.137634,215.527039 
	C439.245117,215.527039 441.058533,215.527039 442.871979,215.527039 
	C469.702606,215.527039 496.533356,215.485168 523.363586,215.587296 
	C526.269958,215.598343 528.196838,214.945740 529.986877,212.440247 
	C533.845032,207.040192 538.176880,201.980515 542.257629,196.736984 
	C545.943787,192.000534 549.553772,187.204819 553.798523,181.648438 
	C514.127991,181.648438 475.684509,181.648438 437.191956,181.648438 
	C437.191956,175.599335 437.191956,169.896011 437.191956,164.007355 
	C466.356354,164.007355 495.173553,163.821243 523.984680,164.158005 
	C530.043518,164.228821 533.996399,162.761581 537.596436,157.661804 
	C545.201782,146.888138 553.556702,136.643600 562.149475,125.473106 
	C558.575134,125.473106 555.961548,125.473106 552.392334,125.473000 
M576.160828,209.426971 
	C576.265198,211.250763 576.345642,213.076279 576.477966,214.898041 
	C577.271240,225.821320 579.884399,236.189285 586.279175,245.275986 
	C595.760742,258.748993 609.417236,266.103943 624.900269,269.869781 
	C658.337341,278.002563 692.005432,279.093506 725.394531,269.838562 
	C740.593567,265.625671 753.482422,257.333984 761.978821,243.317047 
	C768.964844,231.791855 770.467590,219.078033 770.505005,206.034546 
	C770.577576,180.716049 770.531128,155.397202 770.513306,130.078506 
	C770.512268,128.645538 770.325134,127.212692 770.233276,125.903198 
	C754.756897,125.903198 739.718201,125.903198 724.473694,125.903198 
	C724.473694,128.824036 724.483887,131.316360 724.472046,133.808578 
	C724.347595,160.116379 724.437439,186.427841 723.993164,212.730270 
	C723.795349,224.439972 717.437683,232.239502 706.188904,234.945099 
	C685.479065,239.926331 664.496948,239.042511 643.784668,235.394516 
	C626.825317,232.407501 621.968445,225.531952 621.875732,207.636230 
	C621.743652,182.151627 621.841980,156.665863 621.841858,131.180588 
	C621.841858,129.428070 621.841797,127.675552 621.841797,125.760925 
	C606.249573,125.760925 591.340637,125.760925 576.158508,125.760925 
	C576.158508,153.513519 576.158508,180.979767 576.160828,209.426971 
z"/>
<path fill="#252223" opacity="1.000000" stroke="none" 
	d="
M976.000793,259.016602 
	C965.122253,268.627045 952.164856,272.295349 938.567566,272.841797 
	C918.439026,273.650757 898.266296,273.442627 878.111877,273.504211 
	C849.947510,273.590271 821.782776,273.525879 793.618164,273.525879 
	C792.008972,273.525879 790.399780,273.525909 787.844727,273.525909 
	C796.647034,262.065155 805.063782,251.447067 813.056213,240.518692 
	C815.923218,236.598511 819.041382,235.328583 823.839661,235.358429 
	C858.502441,235.574051 893.167114,235.485748 927.831238,235.450989 
	C930.483215,235.448334 933.170837,235.332123 935.779297,234.895325 
	C941.497681,233.937744 944.899109,229.993637 944.805481,224.789841 
	C944.701416,219.000320 941.992554,215.847610 935.826599,214.873306 
	C932.400269,214.331879 928.897156,214.051697 925.427734,214.043045 
	C898.929810,213.976959 872.420532,214.446182 845.939636,213.771881 
	C836.489685,213.531250 826.624939,211.899719 817.790833,208.629974 
	C795.467346,200.367462 789.932007,179.802673 794.503174,159.658325 
	C798.771667,140.847443 812.703857,132.233627 830.086060,128.443176 
	C838.634094,126.579155 847.546692,125.661629 856.303101,125.601799 
	C897.964722,125.317101 939.629456,125.474579 981.293030,125.474678 
	C982.092041,125.474686 982.890991,125.474678 984.832703,125.474678 
	C981.132874,130.505539 978.035950,134.845642 974.803955,139.082718 
	C969.263550,146.346069 963.514282,153.453949 958.119995,160.822769 
	C956.346863,163.244965 954.546021,164.089355 951.571106,164.078705 
	C919.407227,163.963531 887.242737,163.980942 855.078552,164.045868 
	C851.772705,164.052536 848.409546,164.312241 845.175354,164.963104 
	C839.481079,166.109085 837.098877,169.233856 837.244934,174.603729 
	C837.382629,179.666321 840.410522,183.188049 845.808228,183.974258 
	C849.579224,184.523483 853.424011,184.774292 857.237427,184.790375 
	C885.732117,184.910385 914.228943,184.778778 942.721252,185.080826 
	C952.928162,185.189026 962.759094,187.732941 971.774170,192.735657 
	C984.625305,199.867111 991.209290,215.234085 988.705261,231.883255 
	C987.174866,242.058594 984.447876,251.676376 976.000793,259.016602 
z"/>
<path fill="#252324" opacity="1.000000" stroke="none" 
	d="
M552.870117,125.473053 
	C555.961548,125.473106 558.575134,125.473106 562.149475,125.473106 
	C553.556702,136.643600 545.201782,146.888138 537.596436,157.661804 
	C533.996399,162.761581 530.043518,164.228821 523.984680,164.158005 
	C495.173553,163.821243 466.356354,164.007355 437.191956,164.007355 
	C437.191956,169.896011 437.191956,175.599335 437.191956,181.648438 
	C475.684509,181.648438 514.127991,181.648438 553.798523,181.648438 
	C549.553772,187.204819 545.943787,192.000534 542.257629,196.736984 
	C538.176880,201.980515 533.845032,207.040192 529.986877,212.440247 
	C528.196838,214.945740 526.269958,215.598343 523.363586,215.587296 
	C496.533356,215.485168 469.702606,215.527039 442.871979,215.527039 
	C441.058533,215.527039 439.245117,215.527039 437.137634,215.527039 
	C437.137634,222.202774 437.137634,228.607300 437.137634,235.471222 
	C478.689117,235.471222 520.078491,235.471222 562.559326,235.471222 
	C555.825562,244.226669 548.943787,251.711151 543.791443,260.240295 
	C537.192383,271.164246 528.622925,274.142548 516.047791,273.858826 
	C476.238770,272.960724 436.396698,273.527069 396.567383,273.527069 
	C394.770996,273.527069 392.974609,273.527039 391.007629,273.527039 
	C391.007629,224.026764 391.007629,175.065201 391.007629,125.473000 
	C444.866486,125.473000 498.629395,125.473000 552.870117,125.473053 
z"/>
<path fill="#252223" opacity="1.000000" stroke="none" 
	d="
M576.159668,208.936493 
	C576.158508,180.979767 576.158508,153.513519 576.158508,125.760925 
	C591.340637,125.760925 606.249573,125.760925 621.841797,125.760925 
	C621.841797,127.675552 621.841858,129.428070 621.841858,131.180588 
	C621.841980,156.665863 621.743652,182.151627 621.875732,207.636230 
	C621.968445,225.531952 626.825317,232.407501 643.784668,235.394516 
	C664.496948,239.042511 685.479065,239.926331 706.188904,234.945099 
	C717.437683,232.239502 723.795349,224.439972 723.993164,212.730270 
	C724.437439,186.427841 724.347595,160.116379 724.472046,133.808578 
	C724.483887,131.316360 724.473694,128.824036 724.473694,125.903198 
	C739.718201,125.903198 754.756897,125.903198 770.233276,125.903198 
	C770.325134,127.212692 770.512268,128.645538 770.513306,130.078506 
	C770.531128,155.397202 770.577576,180.716049 770.505005,206.034546 
	C770.467590,219.078033 768.964844,231.791855 761.978821,243.317047 
	C753.482422,257.333984 740.593567,265.625671 725.394531,269.838562 
	C692.005432,279.093506 658.337341,278.002563 624.900269,269.869781 
	C609.417236,266.103943 595.760742,258.748993 586.279175,245.275986 
	C579.884399,236.189285 577.271240,225.821320 576.477966,214.898041 
	C576.345642,213.076279 576.265198,211.250763 576.159668,208.936493 
z"/>
<path fill="#2C292A" opacity="1.000000" stroke="none" 
	d="
M102.004135,162.496582 
	C138.124771,146.618393 174.245392,130.740189 210.963013,115.071548 
	C211.613800,117.117302 211.667618,118.953491 211.633575,120.797745 
	C211.545700,120.805809 211.326370,121.008888 210.971893,121.223465 
	C178.158096,135.721863 145.698807,150.005676 113.239510,164.289490 
	C113.368187,164.773941 113.496872,165.258408 113.625549,165.742859 
	C120.960114,163.812057 128.294678,161.881271 136.052002,160.220093 
	C135.357147,161.350662 134.360413,162.664444 133.102615,163.000153 
	C123.883934,165.460846 114.612938,167.725571 105.248657,169.723175 
	C105.133583,168.936676 105.128296,168.479095 105.412109,168.004379 
	C105.909134,167.792389 106.117050,167.597504 106.324959,167.402634 
	C105.759445,167.338593 105.193932,167.274551 104.395775,167.005615 
	C103.443466,165.366013 102.723801,163.931305 102.004135,162.496582 
z"/>
<path fill="#2D2A2A" opacity="1.000000" stroke="none" 
	d="
M347.276978,237.922089 
	C310.441010,254.150177 273.605072,270.378265 236.446228,286.286682 
	C236.036346,284.066284 235.949341,282.165466 236.229553,280.151215 
	C237.354263,279.698273 238.110184,279.355255 238.869446,279.019775 
	C273.640900,263.656250 308.412628,248.293396 343.477814,233.076782 
	C344.939819,234.789459 346.108398,236.355774 347.276978,237.922089 
z"/>
<path fill="#D49A45" opacity="1.000000" stroke="none" 
	d="
M208.321564,181.723816 
	C207.770905,180.554276 207.220245,179.384735 206.403122,177.610153 
	C205.961304,175.152588 205.785965,173.300079 205.676483,171.027435 
	C206.609238,163.447571 211.418259,160.127350 217.820465,158.518509 
	C218.049530,156.498901 218.253418,154.701187 218.635117,152.968079 
	C219.072433,153.075394 219.316757,153.032135 219.756866,153.247009 
	C221.051239,155.528351 221.663177,158.410278 223.304535,159.229309 
	C228.671722,161.907593 231.940048,165.681396 232.324768,172.077454 
	C232.268753,172.919693 232.302917,173.406433 232.244034,174.266998 
	C229.763809,177.815369 227.412216,181.017670 224.970566,184.149765 
	C224.095947,185.271729 223.003876,186.224182 221.691772,187.210663 
	C220.950485,187.096741 220.528473,187.026138 219.914612,186.586548 
	C217.563995,185.988068 215.405228,185.758575 213.175751,185.206055 
	C211.510529,183.829941 209.916031,182.776886 208.321564,181.723816 
z"/>
<path fill="#E3BE43" opacity="1.000000" stroke="none" 
	d="
M102.961273,345.395569 
	C101.197525,349.647369 98.941269,353.453339 94.261513,355.093811 
	C89.096756,356.904327 84.345238,356.176239 80.314262,352.442902 
	C76.289452,348.715240 75.065033,344.026978 76.610039,338.760437 
	C78.229279,333.240875 82.149612,330.197937 87.691536,329.221619 
	C89.142838,328.965942 90.679207,329.193146 92.836655,329.440125 
	C95.284683,330.545227 97.072563,331.408813 98.988846,332.322388 
	C99.252281,332.501740 99.338799,332.657990 99.469025,333.202332 
	C99.973412,333.830109 100.385559,334.096649 100.846298,334.683167 
	C101.525558,336.330841 102.156204,337.658600 102.756805,339.442566 
	C102.804924,341.731049 102.883102,343.563324 102.961273,345.395569 
z"/>
<path fill="#DB9B3E" opacity="1.000000" stroke="none" 
	d="
M344.862091,55.805557 
	C346.510529,47.529301 351.208160,43.039417 358.262787,42.997566 
	C364.705383,42.959343 370.108246,47.252686 371.568176,53.570599 
	C373.631775,62.501141 366.974670,69.746857 355.899597,69.656227 
	C353.477386,68.802597 351.752411,68.158516 349.901367,67.319885 
	C349.323395,66.738304 348.871460,66.351280 348.302490,65.650314 
	C347.821991,65.088989 347.458496,64.841591 347.043701,64.311317 
	C346.643219,63.360863 346.294067,62.693291 345.920502,61.634026 
	C345.551422,59.430073 345.206757,57.617813 344.862091,55.805557 
z"/>
<path fill="#F1E688" opacity="1.000000" stroke="none" 
	d="
M347.628387,238.027435 
	C346.108398,236.355774 344.939819,234.789459 343.432800,232.758469 
	C343.027893,231.870544 342.961426,231.447296 342.875671,230.585678 
	C342.819611,228.093781 342.782837,226.040237 342.746063,223.986694 
	C344.680756,217.195618 349.464264,213.208130 355.787933,213.115128 
	C361.117798,213.036743 366.489319,216.806488 368.410187,221.973419 
	C370.587524,227.830170 368.784698,234.028519 363.502747,237.842316 
	C358.475159,241.472443 353.202515,240.510193 347.628387,238.027435 
z"/>
<path fill="#DDBB4A" opacity="1.000000" stroke="none" 
	d="
M105.123001,168.021500 
	C105.128296,168.479095 105.133583,168.936676 105.250801,170.090912 
	C105.395546,171.030716 105.428368,171.273849 105.424301,171.908783 
	C105.199921,174.137741 105.012421,175.974930 104.824921,177.812119 
	C101.132721,182.863815 96.748940,186.734543 89.908867,185.548309 
	C84.349472,184.584167 80.635910,181.230484 79.111298,175.791199 
	C77.539993,170.185318 79.545387,164.599838 84.266464,161.278137 
	C88.909264,158.011490 93.833542,158.025345 98.803841,160.592422 
	C99.682648,161.046295 100.494377,161.630051 101.670616,162.325195 
	C102.723801,163.931305 103.443466,165.366013 104.501053,167.219406 
	C104.838982,167.638092 105.123001,168.021500 105.123001,168.021500 
z"/>
<path fill="#E3BE43" opacity="1.000000" stroke="none" 
	d="
M239.758530,218.176331 
	C240.500824,219.855591 241.243103,221.534821 242.040741,223.985596 
	C242.098862,226.488556 242.101624,228.219971 241.942413,230.265015 
	C239.664474,236.304184 235.633286,239.595078 229.122147,240.204590 
	C228.211670,240.189392 227.691284,240.198914 226.802444,240.114014 
	C219.457199,238.599869 216.544250,233.545731 215.130234,227.057541 
	C215.331573,226.285995 215.419052,225.709839 215.616455,224.759338 
	C216.593079,218.252182 221.471771,215.628326 226.390808,212.709381 
	C229.509781,213.265045 232.208572,213.783630 235.088043,214.560181 
	C236.765320,215.937546 238.261932,217.056946 239.758530,218.176331 
z"/>
<path fill="#2D2A2A" opacity="1.000000" stroke="none" 
	d="
M342.304016,223.930725 
	C342.782837,226.040237 342.819611,228.093781 342.500397,230.645050 
	C337.829865,232.242035 333.522736,233.371552 329.199463,234.435394 
	C309.156616,239.367401 289.109222,244.281189 268.948761,248.868622 
	C268.864349,248.070084 268.894684,247.604416 269.330444,247.113708 
	C291.826904,241.598770 313.917938,236.108902 336.008942,230.619019 
	C335.990570,230.386078 335.972198,230.153122 335.953796,229.920166 
	C321.619720,229.920166 307.285614,229.920166 292.990845,229.533554 
	C293.431458,227.368378 293.832703,225.589828 294.233948,223.811279 
	C310.109955,223.832443 325.985931,223.853607 342.304016,223.930725 
z"/>
<path fill="#2C292A" opacity="1.000000" stroke="none" 
	d="
M344.503479,55.879395 
	C345.206757,57.617813 345.551422,59.430073 345.591309,61.751492 
	C326.506470,70.525162 307.730591,78.799141 288.936523,87.031593 
	C287.757874,87.547874 286.436981,87.739349 284.986450,88.028946 
	C284.790619,87.975967 284.385040,87.965919 284.243774,87.622116 
	C283.569458,85.901123 283.036438,84.523918 282.503387,83.146721 
	C303.050568,74.082222 323.597717,65.017723 344.503479,55.879395 
z"/>
<path fill="#2D2A2A" opacity="1.000000" stroke="none" 
	d="
M103.328384,345.275696 
	C102.883102,343.563324 102.804924,341.731049 103.091995,339.291321 
	C123.530327,329.820190 143.603409,320.956543 163.782959,312.404633 
	C165.163666,314.100067 166.437927,315.483704 167.712204,316.867371 
	C146.373306,326.296844 125.034401,335.726318 103.328384,345.275696 
z"/>
<path fill="#2D2A2A" opacity="1.000000" stroke="none" 
	d="
M208.100662,182.023529 
	C209.916031,182.776886 211.510529,183.829941 212.959045,185.527328 
	C205.710083,195.297623 198.607071,204.423599 191.504059,213.549576 
	C191.973770,214.033112 192.443466,214.516663 192.913162,215.000214 
	C201.593613,210.352325 210.274063,205.704437 219.120148,201.269379 
	C219.488281,201.960770 219.690796,202.439316 219.566925,203.031540 
	C208.404343,209.084106 197.568130,215.023010 186.490326,220.757233 
	C184.772598,219.001770 183.296463,217.450958 181.820343,215.900146 
	C190.506821,204.707840 199.193298,193.515533 208.100662,182.023529 
z"/>
<path fill="#2D2A2A" opacity="1.000000" stroke="none" 
	d="
M105.313583,177.834473 
	C105.012421,175.974930 105.199921,174.137741 105.842499,171.885971 
	C122.132965,171.449158 137.968369,171.426910 153.803360,171.804306 
	C153.845901,174.073227 153.888840,175.942535 153.931793,177.811829 
	C137.888611,177.826828 121.845428,177.841812 105.313583,177.834473 
z"/>
<path fill="#2D2A2A" opacity="1.000000" stroke="none" 
	d="
M227.755493,107.178322 
	C241.544769,101.110207 255.334045,95.042099 269.571289,89.235733 
	C270.693939,91.195717 271.368591,92.893959 271.685822,94.728615 
	C257.863159,100.751686 244.397964,106.638351 230.663940,112.294098 
	C229.515244,110.434891 228.635361,108.806610 227.755493,107.178322 
z"/>
<path fill="#2D2A2A" opacity="1.000000" stroke="none" 
	d="
M221.997604,292.933960 
	C207.538910,299.346558 193.080200,305.759125 178.216461,311.897430 
	C177.589981,309.802826 177.368546,307.982513 177.486298,306.060486 
	C191.158051,300.045959 204.490601,294.133209 218.044464,288.503632 
	C219.509705,290.169189 220.753662,291.551575 221.997604,292.933960 
z"/>
<path fill="#D89B40" opacity="1.000000" stroke="none" 
	d="
M227.414642,107.059532 
	C228.635361,108.806610 229.515244,110.434891 230.597290,112.681137 
	C230.682068,114.629906 230.564697,115.960716 230.331207,117.491592 
	C230.114212,118.263458 230.013336,118.835266 229.621582,119.619820 
	C226.864548,121.273132 224.398392,122.713692 221.658722,124.112045 
	C220.835083,124.086304 220.284958,124.102760 219.327118,124.012207 
	C217.600143,123.429344 216.280869,122.953499 214.828735,122.161079 
	C213.704391,121.492897 212.712906,121.141289 211.721436,120.789680 
	C211.667618,118.953491 211.613800,117.117302 211.328552,114.944321 
	C214.558792,105.157921 218.476089,103.278114 227.414642,107.059532 
z"/>
<path fill="#E2BD45" opacity="1.000000" stroke="none" 
	d="
M222.380692,293.018036 
	C220.753662,291.551575 219.509705,290.169189 218.033920,288.155884 
	C217.656158,285.593628 217.510223,283.662354 217.491226,281.538391 
	C217.747101,280.789551 217.876038,280.233368 218.310837,279.467590 
	C221.409195,277.494049 224.201721,275.730133 227.359863,274.028259 
	C229.510056,274.976227 231.294662,275.862122 233.151840,276.980225 
	C233.714996,277.555817 234.205582,277.899200 234.754272,278.540955 
	C235.162384,279.314423 235.512375,279.789551 235.862350,280.264679 
	C235.949341,282.165466 236.036346,284.066284 236.108856,286.374542 
	C232.553497,293.463837 229.782852,294.777405 222.380692,293.018036 
z"/>
<path fill="#DB9B3E" opacity="1.000000" stroke="none" 
	d="
M294.198730,223.444534 
	C293.832703,225.589828 293.431458,227.368378 292.704010,229.725037 
	C288.574982,234.590240 284.007446,234.506287 279.032562,232.389420 
	C278.435822,231.760193 277.931366,231.363220 277.326233,230.722656 
	C276.931122,230.292969 276.636688,230.106873 276.356384,229.527008 
	C275.918762,227.364502 275.467072,225.595764 275.015381,223.827026 
	C276.436249,218.812210 279.048126,214.945541 284.857727,215.074982 
	C289.969208,215.188858 293.067688,218.075867 294.198730,223.444534 
z"/>
<path fill="#F2E784" opacity="1.000000" stroke="none" 
	d="
M154.098068,178.122711 
	C153.888840,175.942535 153.845901,174.073227 154.037170,171.522583 
	C157.676544,164.794815 162.769257,164.008682 168.860962,166.444305 
	C169.452682,167.088837 169.993240,167.466202 170.654892,168.226105 
	C171.236588,169.572678 171.697189,170.536743 172.198059,171.890717 
	C172.194855,174.114700 172.151398,175.948761 172.107941,177.782806 
	C167.430130,185.873352 160.453644,186.127808 154.098068,178.122711 
z"/>
<path fill="#2C292A" opacity="1.000000" stroke="none" 
	d="
M239.947571,217.869598 
	C238.261932,217.056946 236.765320,215.937546 235.341766,214.303284 
	C243.563690,203.210297 251.712540,192.632172 260.188385,181.929932 
	C261.388000,181.502090 262.260590,181.198380 263.425018,181.043457 
	C264.685913,182.052200 265.654968,182.912155 266.624054,183.772125 
	C257.794891,195.035706 248.965744,206.299286 239.947571,217.869598 
z"/>
<path fill="#E2BD45" opacity="1.000000" stroke="none" 
	d="
M266.987427,183.758026 
	C265.654968,182.912155 264.685913,182.052200 263.325165,180.759735 
	C262.326447,179.547089 261.719421,178.766968 261.107483,177.617676 
	C260.983887,176.520538 260.865173,175.792542 260.846558,174.722595 
	C260.899597,173.910980 260.852509,173.441299 260.921295,172.635010 
	C263.372894,169.925629 265.708588,167.552887 268.392120,165.233124 
	C269.194214,165.196350 269.648499,165.106613 270.430237,165.090607 
	C271.619934,165.197983 272.482117,165.231644 273.520508,165.553894 
	C275.098419,166.954025 276.500214,168.065567 277.901978,169.177094 
	C280.831787,178.827393 277.242279,183.783005 266.987427,183.758026 
z"/>
<path fill="#E2BD45" opacity="1.000000" stroke="none" 
	d="
M181.453659,215.847687 
	C183.296463,217.450958 184.772598,219.001770 186.505402,221.132935 
	C186.889908,222.456192 187.017761,223.199097 187.055054,224.284195 
	C187.009705,225.093094 187.054871,225.559769 186.979050,226.357391 
	C184.531265,229.074890 182.204468,231.461472 179.519043,233.807648 
	C178.691467,233.839447 178.222473,233.911667 177.456772,233.949265 
	C176.574326,233.896423 175.988586,233.878204 175.181793,233.592529 
	C173.372284,232.415298 171.783859,231.505478 170.195404,230.595673 
	C170.225296,226.843353 169.206253,222.651505 170.548218,219.448975 
	C172.260010,215.363876 176.629028,214.362976 181.453659,215.847687 
z"/>
<path fill="#2C292A" opacity="1.000000" stroke="none" 
	d="
M169.972061,230.892395 
	C171.783859,231.505478 173.372284,232.415298 174.982758,233.906891 
	C166.645874,245.141815 158.286972,255.794937 149.614288,266.298828 
	C148.041855,264.824432 146.783203,263.499207 145.524536,262.174011 
	C153.599258,251.845703 161.673981,241.517410 169.972061,230.892395 
z"/>
<path fill="#2C292A" opacity="1.000000" stroke="none" 
	d="
M278.145233,168.925766 
	C276.500214,168.065567 275.098419,166.954025 273.791107,165.257599 
	C281.997772,154.293030 290.109955,143.913361 298.545776,133.638458 
	C300.303925,134.792465 301.738434,135.841690 303.172943,136.890930 
	C294.911469,147.485443 286.649994,158.079941 278.145233,168.925766 
z"/>
<path fill="#2D2A2A" opacity="1.000000" stroke="none" 
	d="
M172.567352,177.806488 
	C172.151398,175.948761 172.194855,174.114700 172.652573,171.878571 
	C183.914749,171.466858 194.762680,171.457214 205.610611,171.447571 
	C205.785965,173.300079 205.961304,175.152588 206.141907,177.405548 
	C195.107025,177.814056 184.066910,177.822128 172.567352,177.806488 
z"/>
<path fill="#252223" opacity="1.000000" stroke="none" 
	d="
M274.545044,223.825897 
	C275.467072,225.595764 275.918762,227.364502 275.852509,229.563858 
	C264.257843,229.980118 253.181122,229.965759 242.104401,229.951401 
	C242.101624,228.219971 242.098862,226.488556 242.113235,224.322479 
	C252.778458,223.866821 263.426544,223.845795 274.545044,223.825897 
z"/>
<path fill="#2D2A2A" opacity="1.000000" stroke="none" 
	d="
M119.499817,295.433228 
	C124.949516,288.434082 130.399216,281.434937 136.346725,274.286865 
	C138.418625,275.130676 139.992737,276.123444 141.381927,277.427429 
	C135.373291,285.245270 129.549545,292.751862 123.455933,300.069885 
	C121.957314,298.398590 120.728561,296.915894 119.499817,295.433228 
z"/>
<path fill="#2D2A2A" opacity="1.000000" stroke="none" 
	d="
M98.860428,332.272400 
	C97.072563,331.408813 95.284683,330.545227 93.269623,329.451508 
	C98.572083,322.184723 104.101723,315.148010 110.199173,307.950928 
	C112.434677,308.567566 114.102379,309.344635 115.639343,310.408813 
	C110.819046,316.782837 106.129486,322.869720 101.293655,328.942352 
	C100.938194,329.044922 100.879181,329.213928 100.688156,329.727417 
	C100.253746,330.699341 100.101494,331.379089 100.000748,332.056091 
	C100.052269,332.053375 100.070198,331.951752 99.705246,331.796112 
	C99.180344,331.851135 99.020386,332.061768 98.860428,332.272400 
z"/>
<path fill="#2D2A2A" opacity="1.000000" stroke="none" 
	d="
M329.348877,103.156120 
	C323.647919,110.570915 317.946960,117.985703 311.786713,125.509705 
	C309.894379,124.381264 308.461365,123.143616 307.167816,121.611023 
	C312.984741,114.186256 318.662140,107.056419 324.655945,100.010513 
	C326.431183,101.115005 327.890015,102.135567 329.348877,103.156120 
z"/>
<path fill="#2D2A2A" opacity="1.000000" stroke="none" 
	d="
M350.027405,67.514442 
	C351.752411,68.158516 353.477386,68.802597 355.463837,69.647476 
	C349.996338,77.184349 344.267365,84.520416 337.986847,91.927155 
	C336.036438,90.978127 334.637634,89.958420 333.400238,88.662193 
	C339.050262,81.428596 344.538818,74.471519 350.027405,67.514442 
z"/>
<path fill="#DDBB4A" opacity="1.000000" stroke="none" 
	d="
M141.566833,277.116211 
	C139.992737,276.123444 138.418625,275.130676 136.535339,273.991608 
	C134.616653,265.569122 136.827759,262.552979 145.153824,262.173462 
	C146.783203,263.499207 148.041855,264.824432 149.695404,266.618408 
	C150.074463,267.307465 150.058594,267.527771 149.989502,268.020874 
	C149.995117,268.842224 150.053940,269.390778 150.011932,270.306213 
	C149.124344,272.642181 148.337570,274.611267 147.578232,276.511719 
	C145.472473,276.723480 143.519653,276.919861 141.566833,277.116211 
z"/>
<path fill="#D89B40" opacity="1.000000" stroke="none" 
	d="
M115.770073,310.121674 
	C114.102379,309.344635 112.434677,308.567566 110.437973,307.686707 
	C107.847771,298.985413 110.227898,295.669312 119.150955,295.452209 
	C120.728561,296.915894 121.957314,298.398590 123.483696,300.367188 
	C123.863182,301.233643 123.945038,301.614105 124.020935,302.366028 
	C122.886528,307.007507 120.532600,309.909241 115.770073,310.121674 
z"/>
<path fill="#D89B40" opacity="1.000000" stroke="none" 
	d="
M307.028320,121.905960 
	C308.461365,123.143616 309.894379,124.381264 311.596985,125.785751 
	C312.653168,133.702820 311.162537,135.752151 303.544800,136.886490 
	C301.738434,135.841690 300.303925,134.792465 298.532867,133.246918 
	C298.103943,132.228683 298.011597,131.706772 297.964539,130.900787 
	C297.945068,130.052124 297.880280,129.487518 297.908112,128.567566 
	C298.639465,126.143448 299.278229,124.074654 300.187317,121.946838 
	C300.636810,121.844254 300.816010,121.800690 301.394318,121.945839 
	C303.538361,122.058357 305.283356,121.982162 307.028320,121.905960 
z"/>
<path fill="#F2E784" opacity="1.000000" stroke="none" 
	d="
M333.238800,88.938721 
	C334.637634,89.958420 336.036438,90.978127 337.725159,92.153358 
	C339.943329,99.800110 337.778809,102.792747 329.742981,103.178513 
	C327.890015,102.135567 326.431183,101.115005 324.606415,99.644455 
	C324.102844,98.463295 323.965179,97.732117 323.806152,96.677422 
	C324.199585,91.877556 327.356354,89.401550 333.238800,88.938721 
z"/>
<path fill="#D89B40" opacity="1.000000" stroke="none" 
	d="
M272.043274,94.592209 
	C271.368591,92.893959 270.693939,91.195717 269.930298,89.155609 
	C271.801849,82.092667 274.520599,80.758110 282.164856,83.038696 
	C283.036438,84.523918 283.569458,85.901123 284.158630,87.997337 
	C284.215393,89.483246 284.216034,90.250145 284.081665,91.318069 
	C283.546631,92.631813 283.146606,93.644524 282.436584,94.717712 
	C281.659302,95.157867 281.191986,95.537552 280.348755,95.911148 
	C278.726227,96.022652 277.479614,96.140259 275.908142,96.171692 
	C275.136292,96.061211 274.689301,96.036903 274.006470,95.780151 
	C273.194855,95.229210 272.619080,94.910706 272.043274,94.592209 
z"/>
<path fill="#E2BD45" opacity="1.000000" stroke="none" 
	d="
M177.147125,306.162201 
	C177.368546,307.982513 177.589981,309.802826 177.849960,312.027710 
	C175.703400,315.836090 172.815292,317.806458 168.139679,316.935486 
	C166.437927,315.483704 165.163666,314.100067 163.760666,312.138580 
	C163.439255,311.061218 163.246567,310.561646 163.230499,309.846252 
	C163.485672,309.096283 163.564255,308.562195 163.774780,307.718506 
	C164.348480,306.383636 164.790253,305.358307 165.539154,304.282928 
	C166.303055,303.859589 166.759827,303.486328 167.605194,303.081299 
	C169.025986,302.933197 170.058212,302.816864 171.418091,302.771179 
	C172.408096,302.901520 173.070419,302.961182 173.937103,303.282562 
	C175.143356,304.416931 176.145233,305.289551 177.147125,306.162201 
z"/>
<path fill="#F9F9F8" opacity="1.000000" stroke="none" 
	d="
M135.629242,159.950470 
	C128.294678,161.881271 120.960114,163.812057 113.625549,165.742859 
	C113.496872,165.258408 113.368187,164.773941 113.239510,164.289490 
	C145.698807,150.005676 178.158096,135.721863 211.082642,121.640862 
	C204.670181,128.798615 197.792465,135.753540 190.483749,142.612335 
	C182.431213,140.869537 179.890579,142.510406 178.464600,149.833679 
	C177.904694,149.907532 177.680023,149.931549 177.238937,149.982269 
	C176.730652,150.019379 176.441116,149.998108 175.778366,150.092834 
	C175.095139,150.842590 174.787445,151.444717 174.332764,152.217987 
	C173.641602,152.608459 173.097458,152.827805 172.652863,152.532471 
	C168.666962,152.662827 164.581528,153.307846 160.302521,153.995575 
	C159.739395,154.176422 159.369827,154.314575 158.604065,154.618774 
	C157.637192,154.840790 157.066513,154.896744 156.301971,154.995605 
	C155.738251,155.177872 155.368423,155.317230 154.618622,155.621719 
	C152.324509,156.175491 150.410355,156.564133 148.302628,156.995499 
	C147.739471,157.176407 147.369873,157.314575 146.604065,157.618805 
	C145.637192,157.840805 145.066513,157.896759 144.302429,157.995438 
	C143.739380,158.175644 143.369766,158.313126 142.621979,158.618774 
	C141.649597,159.200470 141.055405,159.613968 140.477005,160.000122 
	C140.492813,159.972763 140.550735,159.998001 140.119949,159.663177 
	C138.624802,159.536545 137.560440,159.744736 136.387070,159.979950 
	C136.051773,160.059525 135.835495,160.040680 135.629242,159.950470 
z"/>
<path fill="#FCFCFC" opacity="1.000000" stroke="none" 
	d="
M136.052002,160.220093 
	C135.835495,160.040680 136.051773,160.059525 136.292694,160.559418 
	C137.721802,160.740570 139.136276,160.369278 140.550735,159.998001 
	C140.550735,159.998001 140.492813,159.972763 140.827454,160.447754 
	C142.212814,160.424347 143.263535,159.925934 144.314270,159.427536 
	C143.876236,159.101883 143.438187,158.776245 143.000153,158.450592 
	C143.369766,158.313126 143.739380,158.175644 144.210770,158.580017 
	C145.677750,159.005966 147.042969,158.890045 148.408173,158.774124 
	C147.938873,158.333664 147.469574,157.893204 147.000275,157.452759 
	C147.369873,157.314575 147.739471,157.176407 148.191208,157.544220 
	C150.829498,157.740738 153.385651,157.431274 155.941803,157.121811 
	C155.627396,156.566727 155.313004,156.011658 154.998596,155.456589 
	C155.368423,155.317230 155.738251,155.177872 156.210312,155.580200 
	C157.677750,156.005966 159.042969,155.890045 160.408173,155.774124 
	C159.938873,155.333664 159.469574,154.893204 159.000275,154.452744 
	C159.369827,154.314575 159.739395,154.176422 160.191498,154.545181 
	C164.367126,154.383774 168.460220,153.715439 172.553299,153.047119 
	C173.097458,152.827805 173.641602,152.608459 174.886353,152.366455 
	C175.775940,151.544250 175.964935,150.744720 176.153915,149.945175 
	C176.441116,149.998108 176.730652,150.019379 177.123138,150.498260 
	C177.816833,151.181290 178.409882,151.375015 179.145020,151.776505 
	C179.578140,152.559464 179.869202,153.134659 179.900970,153.948486 
	C176.031052,158.183777 172.420425,162.180435 168.809814,166.177109 
	C162.769257,164.008682 157.676544,164.794815 154.037567,171.122955 
	C137.968369,171.426910 122.132965,171.449158 105.879379,171.494202 
	C105.428368,171.273849 105.395546,171.030716 105.360580,170.419830 
	C114.612938,167.725571 123.883934,165.460846 133.102615,163.000153 
	C134.360413,162.664444 135.357147,161.350662 136.052002,160.220093 
z"/>
<path fill="#4D4A4A" opacity="1.000000" stroke="none" 
	d="
M190.914734,142.708481 
	C197.792465,135.753540 204.670181,128.798615 211.437134,121.426285 
	C211.326370,121.008888 211.545700,120.805809 211.633560,120.797745 
	C212.712906,121.141289 213.704391,121.492897 214.527649,122.349686 
	C207.084229,129.999557 199.809036,137.144257 192.298462,144.212830 
	C191.680298,143.660614 191.297516,143.184540 190.914734,142.708481 
z"/>
<path fill="#403D3C" opacity="1.000000" stroke="none" 
	d="
M105.412109,168.004379 
	C105.123001,168.021500 104.838982,167.638092 104.733704,167.424301 
	C105.193932,167.274551 105.759445,167.338593 106.324959,167.402634 
	C106.117050,167.597504 105.909134,167.792389 105.412109,168.004379 
z"/>
<path fill="#FAFAFA" opacity="1.000000" stroke="none" 
	d="
M236.229553,280.151215 
	C235.512375,279.789551 235.162384,279.314423 235.058212,278.328491 
	C242.486908,270.699188 249.669800,263.580719 257.295166,256.549225 
	C265.858215,257.836029 268.148254,256.332794 269.063477,249.201538 
	C289.109222,244.281189 309.156616,239.367401 329.199463,234.435394 
	C333.522736,233.371552 337.829865,232.242035 342.519653,231.083405 
	C342.961426,231.447296 343.027893,231.870544 343.139343,232.612122 
	C308.412628,248.293396 273.640900,263.656250 238.869446,279.019775 
	C238.110184,279.355255 237.354263,279.698273 236.229553,280.151215 
z"/>
<path fill="#FEFEFD" opacity="1.000000" stroke="none" 
	d="
M268.044312,165.180145 
	C265.708588,167.552887 263.372894,169.925629 260.508484,172.623550 
	C250.791534,172.539795 241.603241,172.130859 232.414948,171.721939 
	C231.940048,165.681396 228.671722,161.907593 223.304535,159.229309 
	C221.663177,158.410278 221.051239,155.528351 219.869781,152.858002 
	C219.700134,149.401764 219.786789,146.943939 223.064163,145.716904 
	C224.087158,145.333893 224.517746,143.368546 225.627151,142.100739 
	C237.050247,139.977676 248.065674,137.881439 259.332153,136.022125 
	C261.649323,137.617111 263.715454,138.975159 265.839722,140.770935 
	C266.613373,149.199173 267.328827,157.189651 268.044312,165.180145 
z"/>
<path fill="#FDFDFC" opacity="1.000000" stroke="none" 
	d="
M205.676483,171.027435 
	C194.762680,171.457214 183.914749,171.466858 172.612305,171.488647 
	C171.697189,170.536743 171.236588,169.572678 170.863220,167.937042 
	C174.464523,163.161102 177.978592,159.056747 181.837250,155.053925 
	C189.304123,157.026901 192.068802,155.326401 193.774200,148.255447 
	C201.415573,146.833191 208.653519,145.428864 216.097458,144.351089 
	C217.021408,147.419571 217.739365,150.161530 218.457321,152.903473 
	C218.253418,154.701187 218.049530,156.498901 217.820465,158.518509 
	C211.418259,160.127350 206.609238,163.447571 205.676483,171.027435 
z"/>
<path fill="#FBFBFA" opacity="1.000000" stroke="none" 
	d="
M260.746429,175.064545 
	C260.865173,175.792542 260.983887,176.520538 260.802856,177.805420 
	C249.655945,184.252136 238.808792,190.141968 227.656067,195.883972 
	C225.907379,195.069977 224.464264,194.403793 223.066925,193.405334 
	C222.748367,191.722473 222.384018,190.371872 222.010010,189.010834 
	C222.000351,189.000381 221.980942,188.979630 221.989746,188.691986 
	C222.002716,188.020905 222.006897,187.637451 222.011063,187.254013 
	C223.003876,186.224182 224.095947,185.271729 224.970566,184.149765 
	C227.412216,181.017670 229.763809,177.815369 232.668823,174.327621 
	C242.373276,174.364471 251.559845,174.714508 260.746429,175.064545 
z"/>
<path fill="#FBFBFA" opacity="1.000000" stroke="none" 
	d="
M218.954514,201.056549 
	C210.274063,205.704437 201.593613,210.352325 192.913162,215.000214 
	C192.443466,214.516663 191.973770,214.033112 191.504059,213.549576 
	C198.607071,204.423599 205.710083,195.297623 213.029785,185.850372 
	C215.405228,185.758575 217.563995,185.988068 219.914276,186.907455 
	C220.730865,188.058121 221.355896,188.518875 221.980942,188.979630 
	C221.980942,188.979630 222.000351,189.000381 221.993469,189.395569 
	C221.667984,191.551254 221.349380,193.311768 220.857071,195.384155 
	C220.107071,197.482880 219.530792,199.269714 218.954514,201.056549 
z"/>
<path fill="#F1E688" opacity="1.000000" stroke="none" 
	d="
M218.635117,152.968079 
	C217.739365,150.161530 217.021408,147.419571 216.077820,144.065308 
	C215.575043,142.970337 215.297882,142.487701 215.091003,141.655350 
	C216.495300,139.792023 217.829346,138.278412 219.425003,136.772324 
	C220.202881,136.731277 220.719147,136.682709 221.599487,136.757507 
	C223.032227,137.943985 224.100876,139.007126 225.143646,140.413239 
	C225.151672,141.213318 225.185593,141.670441 225.219513,142.127548 
	C224.517746,143.368546 224.087158,145.333893 223.064163,145.716904 
	C219.786789,146.943939 219.700134,149.401764 219.658783,152.513885 
	C219.316757,153.032135 219.072433,153.075394 218.635117,152.968079 
z"/>
<path fill="#403D3C" opacity="1.000000" stroke="none" 
	d="
M260.846558,174.722595 
	C251.559845,174.714508 242.373276,174.364471 232.761902,173.953796 
	C232.302917,173.406433 232.268753,172.919693 232.324768,172.077454 
	C241.603241,172.130859 250.791534,172.539795 260.392639,172.960175 
	C260.852509,173.441299 260.899597,173.910980 260.846558,174.722595 
z"/>
<path fill="#F9F9F8" opacity="1.000000" stroke="none" 
	d="
M221.989746,188.691986 
	C221.355896,188.518875 220.730865,188.058121 220.106140,187.276459 
	C220.528473,187.026138 220.950485,187.096741 221.691772,187.210663 
	C222.006897,187.637451 222.002716,188.020905 221.989746,188.691986 
z"/>
<path fill="#FBFBFA" opacity="1.000000" stroke="none" 
	d="
M163.053894,310.062103 
	C163.246567,310.561646 163.439255,311.061218 163.654205,311.826813 
	C143.603409,320.956543 123.530327,329.820190 103.122055,338.835083 
	C102.156204,337.658600 101.525558,336.330841 101.162247,334.483887 
	C111.053787,325.941895 120.678001,317.919159 130.699112,309.931580 
	C134.317459,310.517242 137.160873,310.077850 139.399506,306.990723 
	C147.564056,308.037720 155.308975,309.049896 163.053894,310.062103 
z"/>
<path fill="#4D4A4A" opacity="1.000000" stroke="none" 
	d="
M130.302216,309.896393 
	C120.678001,317.919159 111.053787,325.941895 101.113640,334.163940 
	C100.385559,334.096649 99.973412,333.830109 99.652878,332.987549 
	C99.853065,332.258270 99.961632,332.105011 100.070198,331.951752 
	C100.070198,331.951752 100.052269,332.053375 100.436653,331.858398 
	C100.870804,330.920685 100.920563,330.177948 100.970322,329.435211 
	C100.879181,329.213928 100.938194,329.044922 101.522186,329.362823 
	C110.943390,322.509430 119.989784,315.221375 129.327652,308.058441 
	C129.846817,308.754517 130.074524,309.325470 130.302216,309.896393 
z"/>
<path fill="#F9F9F8" opacity="1.000000" stroke="none" 
	d="
M99.705246,331.796112 
	C99.961632,332.105011 99.853065,332.258270 99.560646,332.626282 
	C99.338799,332.657990 99.252281,332.501740 98.988838,332.322388 
	C99.020386,332.061768 99.180344,331.851135 99.705246,331.796112 
z"/>
<path fill="#F9F9F8" opacity="1.000000" stroke="none" 
	d="
M285.182251,88.081932 
	C286.436981,87.739349 287.757874,87.547874 288.936523,87.031593 
	C307.730591,78.799141 326.506470,70.525162 345.615723,62.143188 
	C346.294067,62.693291 346.643219,63.360863 346.719849,64.486435 
	C336.805237,73.008667 327.163177,81.072906 317.145844,89.096733 
	C313.492432,88.305511 310.722534,88.861954 308.569092,92.039169 
	C300.493988,90.691444 292.838135,89.386688 285.182251,88.081932 
z"/>
<path fill="#FBFBFA" opacity="1.000000" stroke="none" 
	d="
M333.400238,88.662201 
	C327.356354,89.401550 324.199585,91.877556 323.506775,96.628090 
	C322.814697,96.273567 322.400635,95.644867 321.949738,94.686295 
	C321.249573,93.900307 320.586212,93.444191 319.637787,92.702667 
	C319.219574,91.901077 319.086456,91.384880 319.215912,90.600540 
	C329.125488,82.209686 338.772491,74.086975 348.419495,65.964264 
	C348.871460,66.351280 349.323395,66.738304 349.901367,67.319885 
	C344.538818,74.471519 339.050262,81.428596 333.400238,88.662201 
z"/>
<path fill="#4D4A4A" opacity="1.000000" stroke="none" 
	d="
M348.302490,65.650322 
	C338.772491,74.086975 329.125488,82.209686 318.968018,90.569397 
	C318.145386,90.249977 317.833252,89.693558 317.521088,89.137146 
	C327.163177,81.072906 336.805237,73.008667 346.771179,64.769318 
	C347.458496,64.841591 347.821991,65.088989 348.302490,65.650322 
z"/>
<path fill="#FEFEFD" opacity="1.000000" stroke="none" 
	d="
M179.877655,233.848053 
	C182.204468,231.461472 184.531265,229.074890 187.394897,226.370117 
	C196.959946,226.452240 205.988159,226.852570 215.016357,227.252914 
	C216.544250,233.545731 219.457199,238.599869 226.793488,240.556244 
	C227.100204,244.740906 227.047409,248.388931 226.712616,252.221573 
	C225.140976,253.848053 223.851349,255.289917 222.179718,256.812531 
	C210.849533,258.981323 199.901337,261.069397 188.670959,262.958313 
	C186.249252,261.415405 184.109711,260.071686 181.948685,258.290039 
	C181.244019,249.850754 180.560837,241.849411 179.877655,233.848053 
z"/>
<path fill="#FDFDFC" opacity="1.000000" stroke="none" 
	d="
M241.942413,230.265015 
	C253.181122,229.965759 264.257843,229.980118 275.838440,229.957626 
	C276.636688,230.106873 276.931122,230.292969 277.117065,231.017151 
	C273.390900,235.551224 269.773163,239.547241 265.722473,243.466339 
	C257.751495,242.475113 255.447220,244.071548 254.348206,250.718658 
	C246.679932,252.127380 239.425461,253.500519 231.908417,254.637161 
	C230.757462,253.645905 229.869110,252.891144 228.998032,251.668365 
	C229.180954,247.543320 229.346603,243.886322 229.512253,240.229309 
	C235.633286,239.595078 239.664474,236.304184 241.942413,230.265015 
z"/>
<path fill="#FBFBFA" opacity="1.000000" stroke="none" 
	d="
M187.145599,223.941986 
	C187.017761,223.199097 186.889908,222.456192 186.746994,221.337616 
	C197.568130,215.023010 208.404343,209.084106 219.880112,203.186111 
	C222.012253,203.880035 223.504822,204.533051 224.995316,205.552139 
	C225.319046,208.169571 225.644852,210.420929 225.970657,212.672287 
	C221.471771,215.628326 216.593079,218.252182 215.209579,224.682465 
	C205.510376,224.633926 196.327988,224.287964 187.145599,223.941986 
z"/>
<path fill="#F9F9F8" opacity="1.000000" stroke="none" 
	d="
M226.390808,212.709381 
	C225.644852,210.420929 225.319046,208.169571 225.297806,205.363831 
	C226.728912,202.536789 227.855453,200.264114 229.296371,197.839386 
	C234.981400,194.761505 240.307999,191.750717 245.736145,188.935745 
	C250.384140,186.525345 255.148483,184.339310 259.861389,182.054047 
	C251.712540,192.632172 243.563690,203.210297 235.161102,214.045319 
	C232.208572,213.783630 229.509781,213.265045 226.390808,212.709381 
z"/>
<path fill="#403D3C" opacity="1.000000" stroke="none" 
	d="
M187.055054,224.284195 
	C196.327988,224.287964 205.510376,224.633926 215.099640,225.056778 
	C215.419052,225.709839 215.331573,226.285995 215.130234,227.057541 
	C205.988159,226.852570 196.959946,226.452240 187.515900,226.039185 
	C187.054871,225.559769 187.009705,225.093094 187.055054,224.284195 
z"/>
<path fill="#2D2A2A" opacity="1.000000" stroke="none" 
	d="
M229.122147,240.204590 
	C229.346603,243.886322 229.180954,247.543320 228.668060,251.753082 
	C227.878738,252.216202 227.436676,252.126572 226.994614,252.036942 
	C227.047409,248.388931 227.100204,244.740906 227.161957,240.650665 
	C227.691284,240.198914 228.211670,240.189392 229.122147,240.204590 
z"/>
<path fill="#FCFCFC" opacity="1.000000" stroke="none" 
	d="
M279.124878,232.621674 
	C284.007446,234.506287 288.574982,234.590240 292.664673,230.111633 
	C307.285614,229.920166 321.619720,229.920166 335.953796,229.920166 
	C335.972198,230.153122 335.990570,230.386078 336.008942,230.619019 
	C313.917938,236.108902 291.826904,241.598770 269.126770,246.928131 
	C268.305084,246.267868 268.092529,245.768112 268.057953,244.956421 
	C271.865570,240.636871 275.495239,236.629272 279.124878,232.621674 
z"/>
<path fill="#F2E784" opacity="1.000000" stroke="none" 
	d="
M267.879974,245.268356 
	C268.092529,245.768112 268.305084,246.267868 268.721313,246.953186 
	C268.894684,247.604416 268.864349,248.070084 268.948761,248.868637 
	C268.148254,256.332794 265.858215,257.836029 257.262695,256.277588 
	C256.261932,255.542679 255.736084,255.166351 255.171326,254.450623 
	C255.033737,253.667282 254.935043,253.223328 254.814880,252.431183 
	C254.782944,251.616364 254.772476,251.149734 254.762009,250.683090 
	C255.447220,244.071548 257.751495,242.475113 265.775604,243.736343 
	C266.801086,244.478302 267.340515,244.873337 267.879974,245.268356 
z"/>
<path fill="#403D3C" opacity="1.000000" stroke="none" 
	d="
M284.986450,88.028946 
	C292.838135,89.386688 300.493988,90.691444 308.609314,92.395401 
	C309.009857,93.265984 308.950989,93.737373 308.454468,94.181580 
	C300.083405,93.108597 292.150024,92.062820 284.216644,91.017044 
	C284.216034,90.250145 284.215393,89.483246 284.299927,88.341141 
	C284.385040,87.965919 284.790619,87.975967 284.986450,88.028946 
z"/>
<path fill="#F2E784" opacity="1.000000" stroke="none" 
	d="
M228.981995,197.991440 
	C227.855453,200.264114 226.728912,202.536789 225.299881,204.997772 
	C223.504822,204.533051 222.012253,203.880035 220.206482,203.072449 
	C219.690796,202.439316 219.488281,201.960770 219.120148,201.269379 
	C219.530792,199.269714 220.107071,197.482880 221.127731,195.253113 
	C222.055115,194.452652 222.538116,194.095123 223.021118,193.737610 
	C224.464264,194.403793 225.907379,195.069977 227.664490,196.175385 
	C228.312973,197.073532 228.647491,197.532486 228.981995,197.991440 
z"/>
<path fill="#FCFCFC" opacity="1.000000" stroke="none" 
	d="
M271.685822,94.728607 
	C272.619080,94.910706 273.194855,95.229210 273.929474,96.179581 
	C271.713409,106.492218 269.338531,116.172981 266.589905,125.910439 
	C264.079376,127.098503 261.942566,128.229874 259.465851,129.235229 
	C249.566406,125.169983 240.006851,121.230759 230.447327,117.291534 
	C230.564697,115.960716 230.682068,114.629906 230.866119,112.912048 
	C244.397964,106.638351 257.863159,100.751686 271.685822,94.728607 
z"/>
<path fill="#FDFDFC" opacity="1.000000" stroke="none" 
	d="
M177.486313,306.060486 
	C176.145233,305.289551 175.143356,304.416931 174.018402,302.871002 
	C176.229843,292.513947 178.564346,282.830139 181.270386,273.100220 
	C183.784927,271.993103 185.927948,270.932098 188.422134,269.956116 
	C198.303635,273.937805 207.833969,277.834442 217.364304,281.731049 
	C217.510223,283.662354 217.656158,285.593628 217.812622,287.872681 
	C204.490601,294.133209 191.158051,300.045959 177.486313,306.060486 
z"/>
<path fill="#FDFDFC" opacity="1.000000" stroke="none" 
	d="
M225.169540,140.070251 
	C224.100876,139.007126 223.032227,137.943985 221.632355,136.323029 
	C221.511520,131.894882 221.721878,128.024567 221.932236,124.154251 
	C224.398392,122.713692 226.864548,121.273132 229.978394,119.798492 
	C240.068954,123.571587 249.511856,127.378769 258.973358,131.610657 
	C258.946594,132.600662 258.901245,133.165970 258.481812,133.740509 
	C247.128357,135.856567 236.148941,137.963409 225.169540,140.070251 
z"/>
<path fill="#FBFBFA" opacity="1.000000" stroke="none" 
	d="
M219.163376,136.764801 
	C217.829346,138.278412 216.495300,139.792023 214.693146,141.698547 
	C207.181320,143.456116 200.137634,144.820755 192.955704,145.883270 
	C192.722916,145.150406 192.628372,144.719681 192.533844,144.288971 
	C199.809036,137.144257 207.084229,129.999557 214.660507,122.666260 
	C216.280869,122.953499 217.600143,123.429344 219.307922,124.465759 
	C219.518738,128.939148 219.341049,132.851974 219.163376,136.764801 
z"/>
<path fill="#4D4A4A" opacity="1.000000" stroke="none" 
	d="
M258.954742,131.185959 
	C249.511856,127.378769 240.068954,123.571587 230.269257,119.585739 
	C230.013336,118.835266 230.114212,118.263458 230.331207,117.491592 
	C240.006851,121.230759 249.566406,125.169983 259.422516,129.497406 
	C259.464294,130.319046 259.209534,130.752502 258.954742,131.185959 
z"/>
<path fill="#4D4A4A" opacity="1.000000" stroke="none" 
	d="
M219.425003,136.772324 
	C219.341049,132.851974 219.518738,128.939148 219.715607,124.572769 
	C220.284958,124.102760 220.835083,124.086304 221.658722,124.112053 
	C221.721878,128.024567 221.511520,131.894882 221.268280,136.199677 
	C220.719147,136.682709 220.202881,136.731277 219.425003,136.772324 
z"/>
<path fill="#FDFDFC" opacity="1.000000" stroke="none" 
	d="
M226.994232,273.966187 
	C224.201721,275.730133 221.409195,277.494049 217.980652,279.248352 
	C207.899368,275.412537 198.454086,271.586334 189.005234,267.451172 
	C189.015030,266.524628 189.028397,265.907013 189.474670,265.266571 
	C200.682693,263.139404 211.457809,261.035095 222.488739,259.164276 
	C226.392990,261.571716 225.812790,265.669708 227.051865,269.346436 
	C227.013672,271.165985 227.003952,272.566101 226.994232,273.966187 
z"/>
<path fill="#FAFAFA" opacity="1.000000" stroke="none" 
	d="
M227.359848,274.028259 
	C227.003952,272.566101 227.013672,271.165985 227.441345,269.346802 
	C229.389404,264.983459 230.919525,261.039185 232.810455,257.034576 
	C240.392960,255.575928 247.614655,254.177658 254.836349,252.779373 
	C254.935043,253.223328 255.033737,253.667282 254.951263,254.739822 
	C247.539825,262.494934 240.309540,269.621490 233.079269,276.748016 
	C231.294662,275.862122 229.510056,274.976227 227.359848,274.028259 
z"/>
<path fill="#4D4A4A" opacity="1.000000" stroke="none" 
	d="
M233.151840,276.980225 
	C240.309540,269.621490 247.539825,262.494934 254.990173,255.079224 
	C255.736084,255.166351 256.261932,255.542679 256.820221,256.190613 
	C249.669800,263.580719 242.486908,270.699188 235.000092,278.030121 
	C234.205582,277.899200 233.714996,277.555817 233.151840,276.980225 
z"/>
<path fill="#4D4A4A" opacity="1.000000" stroke="none" 
	d="
M189.008820,267.760162 
	C198.454086,271.586334 207.899368,275.412537 217.674805,279.457977 
	C217.876038,280.233368 217.747101,280.789551 217.491226,281.538391 
	C207.833969,277.834442 198.303635,273.937805 188.421890,269.644836 
	C188.383255,268.752380 188.696030,268.256287 189.008820,267.760162 
z"/>
<path fill="#484544" opacity="1.000000" stroke="none" 
	d="
M268.057953,244.956421 
	C267.340515,244.873337 266.801086,244.478302 266.208496,243.813278 
	C269.773163,239.547241 273.390900,235.551224 277.217773,231.260727 
	C277.931366,231.363220 278.435822,231.760193 279.032562,232.389420 
	C275.495239,236.629272 271.865570,240.636871 268.057953,244.956421 
z"/>
<path fill="#4D4A4A" opacity="1.000000" stroke="none" 
	d="
M181.492661,154.952393 
	C177.978592,159.056747 174.464523,163.161102 170.742126,167.554504 
	C169.993240,167.466202 169.452682,167.088837 168.860962,166.444305 
	C172.420425,162.180435 176.031052,158.183777 180.200714,154.068680 
	C181.004074,154.284302 181.248367,154.618347 181.492661,154.952393 
z"/>
<path fill="#403D3C" opacity="1.000000" stroke="none" 
	d="
M229.296371,197.839386 
	C228.647491,197.532486 228.312973,197.073532 227.970047,196.323181 
	C238.808792,190.141968 249.655945,184.252136 260.807739,178.174561 
	C261.719421,178.766968 262.326447,179.547089 263.033356,180.610947 
	C262.260590,181.198380 261.388000,181.502090 260.188385,181.929916 
	C255.148483,184.339310 250.384140,186.525345 245.736145,188.935745 
	C240.307999,191.750717 234.981400,194.761505 229.296371,197.839386 
z"/>
<path fill="#FBFBFA" opacity="1.000000" stroke="none" 
	d="
M297.919220,131.184860 
	C298.011597,131.706772 298.103943,132.228683 298.209229,133.142151 
	C290.109955,143.913361 281.997772,154.293030 273.614929,164.969009 
	C272.482117,165.231644 271.619934,165.197983 270.409546,164.641983 
	C269.369049,156.163132 268.676758,148.206635 268.319000,140.106506 
	C270.230835,137.874481 271.808105,135.786087 273.779968,133.665909 
	C282.089478,132.817703 290.004333,132.001282 297.919220,131.184860 
z"/>
<path fill="#403D3C" opacity="1.000000" stroke="none" 
	d="
M267.984436,140.250122 
	C268.676758,148.206635 269.369049,156.163132 270.082092,164.568268 
	C269.648499,165.106613 269.194214,165.196350 268.392120,165.233124 
	C267.328827,157.189651 266.613373,149.199173 266.203033,140.689926 
	C267.000275,140.197479 267.492340,140.223801 267.984436,140.250122 
z"/>
<path fill="#FBFBFA" opacity="1.000000" stroke="none" 
	d="
M150.042740,267.748108 
	C150.058594,267.527771 150.074463,267.307465 150.009186,266.767639 
	C158.286972,255.794937 166.645874,245.141815 175.203827,234.174332 
	C175.988586,233.878204 176.574326,233.896423 177.463501,234.407745 
	C178.527847,242.858139 179.288757,250.815414 179.710571,258.878235 
	C177.572937,261.099030 175.774399,263.214264 173.571198,265.415344 
	C165.458618,266.250183 157.750671,266.999146 150.042740,267.748108 
z"/>
<path fill="#403D3C" opacity="1.000000" stroke="none" 
	d="
M180.049667,258.772705 
	C179.288757,250.815414 178.527847,242.858139 177.760223,234.442368 
	C178.222473,233.911667 178.691467,233.839447 179.519043,233.807648 
	C180.560837,241.849411 181.244019,249.850754 181.629333,258.336517 
	C180.904205,258.804840 180.476944,258.788788 180.049667,258.772705 
z"/>
<path fill="#FCFCFC" opacity="1.000000" stroke="none" 
	d="
M124.026886,301.994629 
	C123.945038,301.614105 123.863182,301.233643 123.753571,300.555817 
	C129.549545,292.751862 135.373291,285.245270 141.381927,277.427429 
	C143.519653,276.919861 145.472473,276.723480 147.578232,276.511719 
	C148.337570,274.611267 149.124344,272.642181 150.447083,270.304016 
	C158.874268,269.134857 166.765472,268.334808 174.738159,267.912659 
	C174.892151,268.800964 174.964661,269.311401 174.782181,270.060760 
	C169.230942,274.616608 163.934677,278.933533 158.235718,283.227264 
	C155.747910,282.841034 153.662796,282.478027 151.015335,282.017090 
	C150.724457,284.924835 150.435867,287.809631 149.831879,290.880096 
	C145.401260,294.452271 141.286072,297.838806 136.817169,301.157166 
	C132.522552,298.911591 130.529358,302.417664 127.569168,303.963776 
	C126.176773,303.264374 125.101830,302.629486 124.026886,301.994629 
z"/>
<path fill="#F9F9F8" opacity="1.000000" stroke="none" 
	d="
M124.020927,302.366028 
	C125.101830,302.629486 126.176773,303.264374 127.574020,304.311279 
	C128.276276,305.793304 128.656219,306.863312 129.036179,307.933289 
	C119.989784,315.221375 110.943390,322.509430 101.668457,329.377045 
	C106.129486,322.869720 110.819046,316.782837 115.639343,310.408813 
	C120.532600,309.909241 122.886528,307.007507 124.020927,302.366028 
z"/>
<path fill="#F9F9F8" opacity="1.000000" stroke="none" 
	d="
M100.688156,329.727417 
	C100.920563,330.177948 100.870804,330.920685 100.385132,331.861115 
	C100.101494,331.379089 100.253746,330.699341 100.688156,329.727417 
z"/>
<path fill="#FDFDFC" opacity="1.000000" stroke="none" 
	d="
M321.986572,95.016159 
	C322.400635,95.644867 322.814697,96.273567 323.528137,96.951607 
	C323.965179,97.732117 324.102844,98.463295 324.290039,99.560524 
	C318.662140,107.056419 312.984741,114.186256 307.167816,121.611023 
	C305.283356,121.982162 303.538361,122.058357 301.351807,121.677902 
	C300.466614,120.985374 300.022949,120.749496 299.579285,120.513611 
	C299.691864,121.011032 299.804413,121.508446 299.916992,122.005859 
	C299.278229,124.074654 298.639465,126.143448 297.480438,128.599884 
	C289.069702,129.771683 281.179199,130.555832 273.193176,130.996140 
	C273.021973,130.184341 272.946320,129.716354 273.137329,129.006714 
	C278.659363,124.443100 283.914764,120.121155 289.582550,115.833328 
	C292.244263,116.017311 294.493561,116.167175 297.131927,116.342972 
	C297.395538,113.531601 297.639221,110.932816 298.129456,108.067184 
	C302.361267,104.467255 306.346466,101.134171 310.677612,97.852814 
	C315.031097,100.002281 317.366974,97.177979 320.235046,94.935287 
	C321.051208,94.989449 321.518890,95.002808 321.986572,95.016159 
M298.743256,118.188332 
	C298.625397,118.027153 298.507538,117.865982 298.389679,117.704811 
	C298.414062,117.929176 298.438416,118.153542 298.743256,118.188332 
z"/>
<path fill="#484544" opacity="1.000000" stroke="none" 
	d="
M174.656693,267.534760 
	C166.765472,268.334808 158.874268,269.134857 150.547913,269.937134 
	C150.053940,269.390778 149.995117,268.842224 149.989502,268.020874 
	C157.750671,266.999146 165.458618,266.250183 173.635468,265.640625 
	C174.288498,266.364929 174.472595,266.949860 174.656693,267.534760 
z"/>
<path fill="#484544" opacity="1.000000" stroke="none" 
	d="
M273.288727,131.339966 
	C281.179199,130.555832 289.069702,129.771683 297.387848,128.955231 
	C297.880280,129.487518 297.945068,130.052124 297.964539,130.900787 
	C290.004333,132.001282 282.089478,132.817703 273.769165,133.369675 
	C273.338715,132.516800 273.313721,131.928375 273.288727,131.339966 
z"/>
<path fill="#FBFBFA" opacity="1.000000" stroke="none" 
	d="
M300.187256,121.946838 
	C299.804413,121.508446 299.691864,121.011032 299.579285,120.513611 
	C300.022949,120.749496 300.466614,120.985374 300.952759,121.489197 
	C300.816010,121.800690 300.636810,121.844254 300.187256,121.946838 
z"/>
<path fill="#FBFBFA" opacity="1.000000" stroke="none" 
	d="
M276.233032,96.257858 
	C277.479614,96.140259 278.726227,96.022652 280.474854,96.257072 
	C283.389648,100.360405 285.802368,104.111717 288.211426,108.283615 
	C288.151215,110.387985 288.094635,112.071770 287.736847,113.937874 
	C282.150177,118.502533 276.864685,122.884865 271.289917,127.224792 
	C270.345306,126.822311 269.690033,126.462227 269.104523,125.710846 
	C271.527222,115.632317 273.880127,105.945084 276.233032,96.257858 
z"/>
<path fill="#FCFCFC" opacity="1.000000" stroke="none" 
	d="
M284.081665,91.318069 
	C292.150024,92.062820 300.083405,93.108597 308.486542,94.459778 
	C309.019440,95.132446 309.082581,95.499725 308.864197,96.079834 
	C304.339294,99.816551 300.095947,103.340431 295.504028,106.842773 
	C293.566345,106.593185 291.977264,106.365128 290.182434,105.837128 
	C287.566620,101.910538 285.156586,98.283882 282.746552,94.657227 
	C283.146606,93.644524 283.546631,92.631813 284.081665,91.318069 
z"/>
<path fill="#2D2A2A" opacity="1.000000" stroke="none" 
	d="
M275.908142,96.171684 
	C273.880127,105.945084 271.527222,115.632317 268.753723,125.749886 
	C267.876617,126.071396 267.420135,125.962570 266.963654,125.853745 
	C269.338531,116.172981 271.713409,106.492218 274.165283,96.412025 
	C274.689301,96.036903 275.136292,96.061211 275.908142,96.171684 
z"/>
<path fill="#4D4A4A" opacity="1.000000" stroke="none" 
	d="
M282.436584,94.717705 
	C285.156586,98.283882 287.566620,101.910538 290.116821,106.149506 
	C289.576355,107.128883 288.895721,107.495956 288.215057,107.863029 
	C285.802368,104.111717 283.389648,100.360405 280.850830,96.263168 
	C281.191986,95.537552 281.659302,95.157867 282.436584,94.717705 
z"/>
<path fill="#FCFCFC" opacity="1.000000" stroke="none" 
	d="
M171.090424,302.700500 
	C170.058212,302.816864 169.025986,302.933197 167.367432,302.803314 
	C164.159393,298.719086 161.577682,294.881073 159.100586,290.686218 
	C159.432831,288.622589 159.660477,286.915863 160.160187,284.975891 
	C165.735916,280.457428 171.039566,276.172241 176.643463,271.957275 
	C177.419342,272.628143 177.894974,273.228729 178.246094,274.234192 
	C175.777863,283.992859 173.434143,293.346680 171.090424,302.700500 
z"/>
<path fill="#FBFBFA" opacity="1.000000" stroke="none" 
	d="
M165.232025,304.333008 
	C164.790253,305.358307 164.348480,306.383636 163.400665,307.665070 
	C154.931229,306.882080 146.967850,305.842987 139.006653,304.531006 
	C138.965088,303.896790 138.921356,303.535522 139.151581,302.949280 
	C143.586014,299.215820 147.746475,295.707336 152.320190,292.253479 
	C154.353149,292.448853 155.972870,292.589630 157.738861,293.077087 
	C160.334091,297.060211 162.783066,300.696594 165.232025,304.333008 
z"/>
<path fill="#403D3C" opacity="1.000000" stroke="none" 
	d="
M171.418091,302.771179 
	C173.434143,293.346680 175.777863,283.992859 178.477692,274.083008 
	C179.522156,273.400116 180.210510,273.273224 180.898865,273.146362 
	C178.564346,282.830139 176.229843,292.513947 173.814041,302.609283 
	C173.070419,302.961182 172.408096,302.901520 171.418091,302.771179 
z"/>
<path fill="#403D3C" opacity="1.000000" stroke="none" 
	d="
M139.004486,304.803894 
	C146.967850,305.842987 154.931229,306.882080 163.268723,307.974640 
	C163.564255,308.562195 163.485672,309.096283 163.230499,309.846252 
	C155.308975,309.049896 147.564056,308.037720 139.318558,306.633667 
	C138.880142,305.762482 138.942307,305.283173 139.004486,304.803894 
z"/>
<path fill="#4D4A4A" opacity="1.000000" stroke="none" 
	d="
M165.539154,304.282928 
	C162.783066,300.696594 160.334091,297.060211 157.837646,292.805695 
	C158.192093,291.806061 158.594040,291.424561 158.995987,291.043060 
	C161.577682,294.881073 164.159393,298.719086 166.978851,302.835083 
	C166.759827,303.486328 166.303055,303.859589 165.539154,304.282928 
z"/>
<path fill="#E2BD45" opacity="1.000000" stroke="none" 
	d="
M181.837250,155.053925 
	C181.248367,154.618347 181.004074,154.284302 180.460022,153.830048 
	C179.869202,153.134659 179.578140,152.559464 179.146774,151.324310 
	C178.937592,150.370865 178.868713,150.077347 178.799850,149.783844 
	C179.890579,142.510406 182.431213,140.869537 190.483749,142.612335 
	C191.297516,143.184540 191.680298,143.660614 192.298462,144.212814 
	C192.628372,144.719681 192.722916,145.150406 192.962860,146.236969 
	C193.195770,147.352997 193.283279,147.813187 193.370789,148.273376 
	C192.068802,155.326401 189.304123,157.026901 181.837250,155.053925 
z"/>
<path fill="#2C292A" opacity="1.000000" stroke="none" 
	d="
M172.652863,152.532471 
	C168.460220,153.715439 164.367126,154.383774 160.385071,154.502472 
	C164.581528,153.307846 168.666962,152.662827 172.652863,152.532471 
z"/>
<path fill="#2C292A" opacity="1.000000" stroke="none" 
	d="
M154.618637,155.621719 
	C155.313004,156.011658 155.627396,156.566727 155.941803,157.121811 
	C153.385651,157.431274 150.829498,157.740738 148.384781,157.501495 
	C150.410355,156.564133 152.324509,156.175491 154.618637,155.621719 
z"/>
<path fill="#2C292A" opacity="1.000000" stroke="none" 
	d="
M142.621979,158.618774 
	C143.438187,158.776245 143.876236,159.101883 144.314270,159.427536 
	C143.263535,159.925934 142.212814,160.424347 140.811646,160.475098 
	C141.055405,159.613968 141.649597,159.200470 142.621979,158.618774 
z"/>
<path fill="#2C292A" opacity="1.000000" stroke="none" 
	d="
M158.604065,154.618774 
	C159.469574,154.893204 159.938873,155.333664 160.408173,155.774124 
	C159.042969,155.890045 157.677750,156.005966 156.404205,155.537292 
	C157.066513,154.896744 157.637192,154.840790 158.604065,154.618774 
z"/>
<path fill="#2C292A" opacity="1.000000" stroke="none" 
	d="
M146.604065,157.618790 
	C147.469574,157.893204 147.938873,158.333664 148.408173,158.774124 
	C147.042969,158.890045 145.677750,159.005966 144.404205,158.537292 
	C145.066513,157.896759 145.637192,157.840805 146.604065,157.618790 
z"/>
<path fill="#2C292A" opacity="1.000000" stroke="none" 
	d="
M140.119949,159.663177 
	C139.136276,160.369278 137.721802,160.740570 136.401703,160.532394 
	C137.560440,159.744736 138.624802,159.536545 140.119949,159.663177 
z"/>
<path fill="#2C292A" opacity="1.000000" stroke="none" 
	d="
M175.778366,150.092834 
	C175.964935,150.744720 175.775940,151.544250 175.033356,152.195312 
	C174.787445,151.444717 175.095139,150.842590 175.778366,150.092834 
z"/>
<path fill="#2C292A" opacity="1.000000" stroke="none" 
	d="
M178.464600,149.833679 
	C178.868713,150.077347 178.937592,150.370865 179.004700,151.116547 
	C178.409882,151.375015 177.816833,151.181290 177.339569,150.471573 
	C177.680023,149.931549 177.904694,149.907532 178.464600,149.833679 
z"/>
<path fill="#E2BD45" opacity="1.000000" stroke="none" 
	d="
M266.589905,125.910446 
	C267.420135,125.962570 267.876617,126.071396 268.683899,126.141182 
	C269.690033,126.462227 270.345306,126.822311 271.348999,127.533630 
	C272.088501,128.339386 272.479584,128.793884 272.870667,129.248383 
	C272.946320,129.716354 273.021973,130.184341 273.193176,130.996140 
	C273.313721,131.928375 273.338715,132.516800 273.374542,133.401443 
	C271.808105,135.786087 270.230835,137.874481 268.319000,140.106506 
	C267.492340,140.223801 267.000275,140.197479 266.144897,140.252197 
	C263.715454,138.975159 261.649323,137.617111 259.323914,135.762512 
	C258.995026,134.754410 258.925476,134.242844 258.855896,133.731277 
	C258.901245,133.165970 258.946594,132.600662 258.973358,131.610657 
	C259.209534,130.752502 259.464294,130.319046 259.762421,129.623413 
	C261.942566,128.229874 264.079376,127.098503 266.589905,125.910446 
z"/>
<path fill="#403D3C" opacity="1.000000" stroke="none" 
	d="
M258.481812,133.740509 
	C258.925476,134.242844 258.995026,134.754410 259.072876,135.525589 
	C248.065674,137.881439 237.050247,139.977676 225.627167,142.100739 
	C225.185593,141.670441 225.151672,141.213318 225.143646,140.413239 
	C236.148941,137.963409 247.128357,135.856567 258.481812,133.740509 
z"/>
<path fill="#403D3C" opacity="1.000000" stroke="none" 
	d="
M193.774200,148.255447 
	C193.283279,147.813187 193.195770,147.352997 193.101105,146.539093 
	C200.137634,144.820755 207.181320,143.456116 214.622864,142.048279 
	C215.297882,142.487701 215.575043,142.970337 215.871826,143.738770 
	C208.653519,145.428864 201.415573,146.833191 193.774200,148.255447 
z"/>
<path fill="#F9F9F8" opacity="1.000000" stroke="none" 
	d="
M223.066910,193.405334 
	C222.538116,194.095123 222.055115,194.452652 221.301437,194.941223 
	C221.349380,193.311768 221.667984,191.551254 222.003143,189.406021 
	C222.384018,190.371872 222.748367,191.722473 223.066910,193.405334 
z"/>
<path fill="#F1E688" opacity="1.000000" stroke="none" 
	d="
M139.006653,304.530975 
	C138.942307,305.283173 138.880142,305.762482 138.898926,306.598877 
	C137.160873,310.077850 134.317459,310.517242 130.699112,309.931580 
	C130.074524,309.325470 129.846817,308.754517 129.327652,308.058441 
	C128.656219,306.863312 128.276276,305.793304 127.891472,304.375793 
	C130.529358,302.417664 132.522552,298.911591 136.880096,301.431885 
	C137.823685,302.241211 138.350647,302.707733 138.877609,303.174225 
	C138.921356,303.535522 138.965088,303.896790 139.006653,304.530975 
z"/>
<path fill="#DDBB4A" opacity="1.000000" stroke="none" 
	d="
M309.145721,95.866997 
	C309.082581,95.499725 309.019440,95.132446 308.924225,94.486969 
	C308.950989,93.737373 309.009857,93.265984 309.028534,92.438362 
	C310.722534,88.861954 313.492432,88.305511 317.145844,89.096733 
	C317.833252,89.693558 318.145386,90.249977 318.705444,90.837540 
	C319.086456,91.384880 319.219574,91.901077 319.681915,93.020782 
	C319.969604,94.047684 319.928070,94.471085 319.886536,94.894493 
	C317.366974,97.177979 315.031097,100.002281 310.619995,97.558228 
	C309.859558,96.763618 309.502625,96.315308 309.145721,95.866997 
z"/>
<path fill="#F9F9F8" opacity="1.000000" stroke="none" 
	d="
M320.235046,94.935287 
	C319.928070,94.471085 319.969604,94.047684 319.967010,93.306175 
	C320.586212,93.444191 321.249573,93.900307 321.949738,94.686295 
	C321.518890,95.002808 321.051208,94.989449 320.235046,94.935287 
z"/>
<path fill="#F1E688" opacity="1.000000" stroke="none" 
	d="
M181.270386,273.100220 
	C180.210510,273.273224 179.522156,273.400116 178.602203,273.678162 
	C177.894974,273.228729 177.419342,272.628143 176.617371,271.622467 
	C175.873077,270.752228 175.455124,270.287048 175.037170,269.821838 
	C174.964661,269.311401 174.892151,268.800964 174.738159,267.912659 
	C174.472595,266.949860 174.288498,266.364929 174.040131,265.554749 
	C175.774399,263.214264 177.572937,261.099030 179.710571,258.878235 
	C180.476944,258.788788 180.904205,258.804840 181.650818,258.774445 
	C184.109711,260.071686 186.249252,261.415405 188.611130,263.316833 
	C188.902908,264.346161 188.972351,264.817780 189.041779,265.289429 
	C189.028397,265.907013 189.015030,266.524628 189.005249,267.451172 
	C188.696030,268.256287 188.383255,268.752380 188.070724,269.559753 
	C185.927948,270.932098 183.784927,271.993103 181.270386,273.100220 
z"/>
<path fill="#D49A45" opacity="1.000000" stroke="none" 
	d="
M232.449646,257.094940 
	C230.919525,261.039185 229.389404,264.983459 227.469818,268.927307 
	C225.812790,265.669708 226.392990,261.571716 222.579330,258.898254 
	C222.463318,257.843079 222.512527,257.287415 222.561722,256.731781 
	C223.851349,255.289917 225.140976,253.848053 226.712616,252.221573 
	C227.436676,252.126572 227.878738,252.216202 228.650787,252.221115 
	C229.869110,252.891144 230.757462,253.645905 231.856567,254.918091 
	C232.194778,255.988663 232.322205,256.541809 232.449646,257.094940 
z"/>
<path fill="#403D3C" opacity="1.000000" stroke="none" 
	d="
M222.179718,256.812531 
	C222.512527,257.287415 222.463318,257.843079 222.323517,258.664734 
	C211.457809,261.035095 200.682693,263.139404 189.474686,265.266571 
	C188.972351,264.817780 188.902908,264.346161 188.893311,263.515991 
	C199.901337,261.069397 210.849533,258.981323 222.179718,256.812531 
z"/>
<path fill="#403D3C" opacity="1.000000" stroke="none" 
	d="
M232.810455,257.034576 
	C232.322205,256.541809 232.194778,255.988663 232.119171,255.154587 
	C239.425461,253.500519 246.679932,252.127380 254.348206,250.718658 
	C254.772476,251.149734 254.782944,251.616364 254.814880,252.431183 
	C247.614655,254.177658 240.392960,255.575928 232.810455,257.034576 
z"/>
<path fill="#D49A45" opacity="1.000000" stroke="none" 
	d="
M159.100586,290.686218 
	C158.594040,291.424561 158.192093,291.806061 157.691376,292.458984 
	C155.972870,292.589630 154.353149,292.448853 152.239685,292.017029 
	C151.213058,291.382080 150.680176,291.038269 150.147278,290.694427 
	C150.435867,287.809631 150.724457,284.924835 151.015335,282.017090 
	C153.662796,282.478027 155.747910,282.841034 158.296326,283.528748 
	C159.135788,284.305328 159.511948,284.757202 159.888123,285.209106 
	C159.660477,286.915863 159.432831,288.622589 159.100586,290.686218 
z"/>
<path fill="#4D4A4A" opacity="1.000000" stroke="none" 
	d="
M160.160187,284.975891 
	C159.511948,284.757202 159.135788,284.305328 158.699020,283.551941 
	C163.934677,278.933533 169.230942,274.616608 174.782196,270.060760 
	C175.455124,270.287048 175.873077,270.752228 176.317123,271.552216 
	C171.039566,276.172241 165.735916,280.457428 160.160187,284.975891 
z"/>
<path fill="#4D4A4A" opacity="1.000000" stroke="none" 
	d="
M149.831879,290.880096 
	C150.680176,291.038269 151.213058,291.382080 151.826447,291.962402 
	C147.746475,295.707336 143.586014,299.215820 139.151581,302.949280 
	C138.350647,302.707733 137.823685,302.241211 137.233795,301.500000 
	C141.286072,297.838806 145.401260,294.452271 149.831879,290.880096 
z"/>
<path fill="#F1E688" opacity="1.000000" stroke="none" 
	d="
M288.211426,108.283615 
	C288.895721,107.495956 289.576355,107.128883 290.322601,106.449440 
	C291.977264,106.365128 293.566345,106.593185 295.629822,107.161095 
	C296.697144,107.778648 297.290009,108.056335 297.882904,108.334030 
	C297.639221,110.932816 297.395538,113.531601 297.131927,116.342972 
	C294.493561,116.167175 292.244263,116.017311 289.574249,115.510277 
	C288.781708,114.687263 288.409882,114.221405 288.038025,113.755547 
	C288.094635,112.071770 288.151215,110.387985 288.211426,108.283615 
z"/>
<path fill="#4D4A4A" opacity="1.000000" stroke="none" 
	d="
M287.736877,113.937874 
	C288.409882,114.221405 288.781708,114.687263 289.161835,115.476166 
	C283.914764,120.121155 278.659363,124.443100 273.137329,129.006714 
	C272.479584,128.793884 272.088501,128.339386 271.638306,127.576042 
	C276.864685,122.884865 282.150177,118.502533 287.736877,113.937874 
z"/>
<path fill="#484544" opacity="1.000000" stroke="none" 
	d="
M298.129456,108.067184 
	C297.290009,108.056335 296.697144,107.778648 295.978424,107.182632 
	C300.095947,103.340431 304.339294,99.816551 308.864197,96.079834 
	C309.502625,96.315308 309.859558,96.763618 310.274078,97.506516 
	C306.346466,101.134171 302.361267,104.467255 298.129456,108.067184 
z"/>
<path fill="#FBFBFA" opacity="1.000000" stroke="none" 
	d="
M298.603027,118.283119 
	C298.438416,118.153542 298.414062,117.929176 298.389679,117.704803 
	C298.507538,117.865982 298.625397,118.027153 298.603027,118.283119 
z"/>
</svg>