<svg version="1.1" id="Layer_1" xmlns="http://www.w3.org/2000/svg" xmlns:xlink="http://www.w3.org/1999/xlink" x="0px" y="0px"
	 width="100%" viewBox="50.455338 33.52581 395.89594 395.4768" enable-background="new 0 0 464 432" xml:space="preserve">
<path fill="#000000" opacity="1.000000" stroke="none" 
	d="
M268.976746,61.890915 
	C268.980072,57.911552 268.897980,54.409302 269.015320,50.913746 
	C269.078857,49.020851 268.695160,46.373672 271.648956,46.474323 
	C274.188904,46.560875 273.907074,48.981255 273.943146,50.742085 
	C274.038696,55.406391 274.132294,60.077488 273.980957,64.737900 
	C273.866180,68.273170 275.030731,69.864441 278.843689,69.793037 
	C289.005402,69.602722 299.174103,69.627373 309.337341,69.765724 
	C312.817780,69.813103 314.074371,68.458313 314.015839,65.055275 
	C313.878265,57.058712 313.959473,49.058361 313.955048,41.059544 
	C313.954315,39.726494 313.907257,38.389629 313.990356,37.061333 
	C314.096619,35.362389 314.272858,33.395515 316.552185,33.532593 
	C318.679108,33.660503 318.302612,35.641907 318.311005,37.057880 
	C318.357391,44.889820 318.307831,52.722313 318.350220,60.554298 
	C318.405334,70.740654 317.196686,69.729858 327.322632,69.741707 
	C336.821228,69.752823 346.323120,69.586754 355.817017,69.795013 
	C359.797821,69.882332 361.162109,68.340744 361.031433,64.526924 
	C360.866028,59.701267 360.998291,54.863033 361.095062,50.032078 
	C361.128448,48.365273 361.258881,46.326065 363.619476,46.549572 
	C365.704803,46.747017 365.299255,48.729095 365.316223,50.146034 
	C365.375977,55.144646 365.496429,60.150146 365.301208,65.141579 
	C365.166168,68.592690 366.326233,70.124283 369.918152,70.758194 
	C392.391571,74.724350 408.585236,91.131989 412.178894,113.616096 
	C412.703522,116.898415 414.058563,117.797165 417.022491,117.763023 
	C424.353729,117.678543 431.687775,117.667603 439.018066,117.788528 
	C440.942963,117.820290 444.026672,116.820984 443.967651,120.217064 
	C443.914551,123.273712 441.020111,122.248207 439.263367,122.279442 
	C432.099884,122.406799 424.929749,122.471550 417.768768,122.292313 
	C414.285187,122.205116 413.037201,123.529373 413.077667,126.953232 
	C413.201782,137.450211 413.204529,147.950394 413.086548,158.447449 
	C413.049042,161.785492 414.494385,162.823395 417.614227,162.718048 
	C421.774597,162.577499 425.944885,162.687241 430.109924,162.752975 
	C431.450928,162.774139 432.936401,162.896011 433.063354,164.704346 
	C433.208710,166.774551 431.717651,167.164627 430.104065,167.185532 
	C425.938660,167.239502 421.768829,167.351135 417.607880,167.217667 
	C414.466156,167.116882 413.048523,168.252686 413.085938,171.537643 
	C413.196014,181.201553 413.207397,190.868362 413.094116,200.532104 
	C413.051941,204.131561 414.782898,205.077087 418.033173,205.033600 
	C426.030334,204.926544 434.030762,204.978149 442.028564,205.075241 
	C443.722504,205.095795 446.237885,204.594986 446.332062,207.222870 
	C446.435394,210.106033 443.829620,209.314346 442.194000,209.330841 
	C434.195984,209.411560 426.191467,209.533630 418.200043,209.288834 
	C414.186615,209.165909 412.976196,210.733215 413.047150,214.546753 
	C413.226898,224.208801 413.286102,233.880142 413.053345,243.539581 
	C412.949982,247.829453 414.690674,249.086197 418.669098,248.837891 
	C422.486176,248.599655 426.331329,248.779129 430.163452,248.827362 
	C431.786102,248.847763 433.253448,249.271408 433.090088,251.334946 
	C432.947205,253.139664 431.481293,253.249680 430.127167,253.266815 
	C425.961700,253.319550 421.791687,253.432907 417.630890,253.295837 
	C414.492615,253.192459 413.061066,254.313141 413.096313,257.603882 
	C413.208710,268.101044 413.233734,278.600677 413.128998,289.097748 
	C413.094635,292.543518 414.418549,293.799225 417.865997,293.726135 
	C425.861176,293.556580 433.863495,293.613495 441.860657,293.731079 
	C443.592407,293.756531 446.494141,292.734009 446.345795,295.982788 
	C446.210358,298.949097 443.452515,298.166992 441.626129,298.187042 
	C433.961578,298.271210 426.290588,298.374817 418.631866,298.142975 
	C414.632996,298.021912 412.940369,299.220154 413.029755,303.478546 
	C413.253601,314.139038 413.267303,324.810760 413.032074,335.470673 
	C412.936859,339.785492 414.690857,340.987396 418.654327,340.738678 
	C422.470856,340.499176 426.316437,340.686310 430.148315,340.747528 
	C431.500153,340.769104 432.967163,340.921661 433.068085,342.728607 
	C433.183868,344.801392 431.668732,345.161316 430.067688,345.182007 
	C425.902252,345.235779 421.731415,345.356628 417.571594,345.206116 
	C414.041321,345.078369 412.594788,346.417633 412.275330,350.068115 
	C410.404144,371.451538 393.437683,390.234802 372.115814,394.222198 
	C366.874756,395.202301 364.753967,397.080811 365.196503,402.644257 
	C365.736572,409.433472 365.351013,416.298950 365.296661,423.130859 
	C365.284058,424.716064 365.602600,426.847107 363.144653,426.859253 
	C360.802460,426.870880 360.803375,424.842346 360.793121,423.190918 
	C360.745453,415.525726 360.634766,407.856750 360.824585,400.196045 
	C360.916534,396.486847 359.552551,395.243469 355.866211,395.314697 
	C345.871338,395.507874 335.869598,395.456543 325.872192,395.351807 
	C321.907074,395.310272 320.026245,396.742035 320.283417,400.946777 
	C320.527069,404.930389 320.344269,408.942474 320.283112,412.940979 
	C320.262817,414.268616 320.209167,415.800659 318.307098,415.779358 
	C316.558105,415.759766 316.117767,414.320404 316.073059,412.986420 
	C315.922424,408.491760 315.840637,403.990967 315.896179,399.494568 
	C315.932465,396.556000 314.789154,395.313538 311.751068,395.347961 
	C302.087067,395.457550 292.419647,395.478424 282.756500,395.334412 
	C279.234009,395.281921 278.024750,396.801300 278.065094,400.116882 
	C278.156250,407.614655 278.098358,415.114258 278.094421,422.613129 
	C278.093811,423.779083 278.132935,424.952423 278.019165,426.109070 
	C277.888702,427.435120 277.736725,428.920929 275.942688,428.998810 
	C273.720459,429.095215 273.717529,427.352966 273.707214,425.871155 
	C273.652710,418.039398 273.663513,410.207184 273.652191,402.375122 
	C273.642090,395.389923 273.642365,395.384949 266.502899,395.381775 
	C257.504181,395.377777 248.502579,395.517151 239.508148,395.321472 
	C235.637360,395.237335 234.015350,396.552582 234.247955,400.504333 
	C234.472763,404.323486 234.330933,408.167725 234.258942,411.999207 
	C234.228851,413.600372 234.516693,415.763397 232.165100,415.840363 
	C229.437546,415.929657 229.765808,413.565521 229.729584,411.809692 
	C229.647110,407.811859 229.569122,403.806641 229.724213,399.813538 
	C229.846375,396.667755 228.777206,395.295776 225.437546,395.339203 
	C214.940887,395.475708 204.440201,395.469055 193.943375,395.336853 
	C190.445709,395.292786 189.245102,396.709320 189.299347,400.099945 
	C189.432617,408.429840 189.370209,416.763733 189.297394,425.095276 
	C189.284073,426.618866 189.843857,428.856659 187.368576,428.985199 
	C184.613678,429.128204 184.876129,426.789673 184.862808,425.028168 
	C184.799774,416.696472 184.731140,408.362885 184.852875,400.032715 
	C184.902191,396.657959 183.750549,395.276428 180.213562,395.325989 
	C169.050751,395.482513 157.883636,395.442810 146.719650,395.331085 
	C143.539581,395.299255 142.157227,396.394348 142.296875,399.689850 
	C142.473068,403.848022 142.371719,408.020996 142.288330,412.185577 
	C142.256683,413.766663 142.558792,415.942169 140.070374,415.833160 
	C137.790070,415.733215 137.869614,413.671509 137.841980,412.032593 
	C137.771790,407.867645 137.719070,403.699066 137.818710,399.535736 
	C137.887390,396.665466 136.850418,395.575287 133.812119,395.231842 
	C108.442520,392.363831 90.630081,374.497009 87.694077,349.020569 
	C87.329727,345.859070 85.800400,345.197144 83.106270,345.213135 
	C74.441193,345.264618 65.775215,345.266388 57.110458,345.189362 
	C55.268032,345.173004 52.529850,345.791321 52.747108,342.654541 
	C52.934837,339.944183 55.475990,340.744415 57.129669,340.726929 
	C65.294258,340.640564 73.463097,340.558228 81.624443,340.741425 
	C85.356003,340.825195 87.109032,339.776093 87.029518,335.696381 
	C86.831482,325.535034 86.862579,315.365906 87.010178,305.202942 
	C87.063194,301.552460 85.777534,300.104492 82.056541,300.274078 
	C77.067947,300.501404 72.060448,300.343292 67.061562,300.296906 
	C65.597496,300.283325 63.809219,300.462952 63.648422,298.328247 
	C63.463684,295.875610 65.345894,295.809601 67.049339,295.793030 
	C72.214851,295.742767 77.383781,295.640991 82.545731,295.775787 
	C85.791275,295.860504 87.000732,294.491577 86.970619,291.326050 
	C86.880257,281.828308 86.834297,272.327454 86.990509,262.831421 
	C87.053123,259.025085 85.344734,257.936462 81.842674,257.989197 
	C73.679253,258.112091 65.512383,258.010437 57.346931,257.989410 
	C56.014633,257.985962 54.676674,257.995514 53.351868,257.879089 
	C51.993988,257.759766 50.520512,257.474060 50.457993,255.754013 
	C50.375195,253.475922 52.244911,253.694794 53.673508,253.686890 
	C62.505287,253.638031 71.337425,253.658981 80.169434,253.645782 
	C86.854568,253.635803 86.898224,253.628754 86.929024,247.103928 
	C86.973083,237.772141 86.837006,228.438095 87.002724,219.109009 
	C87.068169,215.425247 85.697220,214.029175 82.026161,214.170975 
	C77.035049,214.363785 72.029701,214.206528 67.030716,214.166641 
	C65.279564,214.152679 63.471657,213.940659 63.611618,211.583847 
	C63.742935,209.372498 65.632378,209.738007 67.047180,209.720917 
	C72.045784,209.660553 77.054092,209.505234 82.041878,209.741486 
	C85.804924,209.919739 87.026474,208.370499 86.983276,204.779221 
	C86.861023,194.615677 86.815704,184.446732 87.025772,174.285828 
	C87.110641,170.180801 85.344933,169.202835 81.620155,169.277390 
	C72.625229,169.457367 63.623760,169.352524 54.625500,169.286087 
	C52.917721,169.273483 50.441555,169.805176 50.465359,167.059219 
	C50.488556,164.382675 52.924362,164.821228 54.658146,164.811508 
	C63.489899,164.762009 72.326370,164.632584 81.152313,164.866302 
	C85.382729,164.978348 87.144707,163.723343 87.035339,159.215775 
	C86.776718,148.556885 86.854317,137.886276 86.997780,127.223129 
	C87.046761,123.583214 85.784615,122.108070 82.054001,122.274124 
	C77.065094,122.496201 72.057968,122.327835 67.058907,122.292969 
	C65.354324,122.281082 63.468266,122.251282 63.569344,119.833618 
	C63.658726,117.695770 65.457947,117.818817 66.929550,117.804230 
	C72.095039,117.753036 77.264793,117.647110 82.425812,117.800842 
	C85.785614,117.900925 87.258995,116.991844 87.895378,113.228363 
	C91.761070,90.367104 108.432510,74.119186 131.514603,70.613907 
	C136.293762,69.888138 138.425507,68.310158 138.099426,63.076126 
	C137.623703,55.440014 137.930908,47.752258 137.998459,40.087349 
	C138.013733,38.352978 137.716904,35.944691 140.417358,36.018017 
	C142.920319,36.085976 142.280960,38.405132 142.295242,39.903351 
	C142.376221,48.401386 142.435303,56.902023 142.298569,65.398506 
	C142.246552,68.630722 143.430389,69.846313 146.673141,69.805405 
	C157.336716,69.670868 168.003143,69.671509 178.667542,69.749313 
	C181.685272,69.771332 182.855789,68.540321 182.797028,65.582710 
	C182.694412,60.418949 182.747757,55.251286 182.795929,50.085819 
	C182.811050,48.466080 182.560150,46.412117 184.980179,46.345554 
	C187.421371,46.278412 187.283325,48.308182 187.299225,49.952168 
	C187.347580,54.951012 187.456268,59.954975 187.285797,64.948212 
	C187.173965,68.223808 188.055542,69.851273 191.726974,69.786736 
	C201.555832,69.613968 211.391663,69.619225 221.220642,69.789345 
	C224.838409,69.851967 225.777603,68.318672 225.722229,64.995461 
	C225.575134,56.165890 225.595505,47.330841 225.743820,38.501236 
	C225.774445,36.677429 224.433746,33.392677 227.974823,33.575703 
	C231.058121,33.735062 230.190460,36.799858 230.208374,38.803825 
	C230.282883,47.135212 230.432297,55.474831 230.141418,63.797001 
	C229.985214,68.266068 231.245087,70.041801 236.006622,69.841682 
	C244.490494,69.485123 252.999969,69.742233 261.498749,69.735100 
	C268.918152,69.728874 268.918152,69.724251 268.976746,61.890915 
M404.959747,246.500000 
	C404.958191,205.844269 404.970337,165.188522 404.934326,124.532822 
	C404.930664,120.383179 405.086304,116.213913 404.093170,112.109535 
	C398.904968,90.668106 381.748352,77.416786 358.778107,77.401978 
	C287.963928,77.356323 217.149673,77.393700 146.335480,77.360504 
	C141.329529,77.358154 136.372482,77.619240 131.405197,78.294212 
	C112.509232,80.861832 95.768478,98.942726 95.320946,118.016815 
	C94.941940,134.170380 95.104179,150.337616 95.099197,166.498825 
	C95.081284,224.649734 95.717941,282.810211 94.828857,340.947510 
	C94.391861,369.522614 117.711250,388.293640 141.789276,388.007843 
	C214.425964,387.145660 287.079437,387.702515 359.726379,387.674591 
	C362.710693,387.673462 365.735138,387.608063 368.672668,387.142303 
	C389.668976,383.812927 405.377563,364.536102 405.081451,343.472321 
	C404.631775,311.487274 404.959656,279.491333 404.959747,246.500000 
z"/>
<path fill="#000000" opacity="1.000000" stroke="none" 
	d="
M380.241669,174.000031 
	C380.240143,222.475159 380.296051,270.450378 380.210663,318.425354 
	C380.171661,340.344543 366.240753,356.895050 344.729065,360.869751 
	C342.458649,361.289246 340.091522,361.305786 337.769226,361.306610 
	C279.799286,361.327881 221.829315,361.338989 163.859375,361.312408 
	C139.353622,361.301178 121.009033,343.470520 120.926521,318.897644 
	C120.731300,260.761780 120.709259,202.624191 120.937332,144.488556 
	C121.032639,120.193687 138.984634,102.650208 163.136093,102.618477 
	C221.272537,102.542099 279.409180,102.542900 337.545624,102.608131 
	C362.557648,102.636192 380.215088,120.491859 380.244354,145.515579 
	C380.255249,154.843704 380.243073,164.171875 380.241669,174.000031 
M211.500015,110.216530 
	C195.668869,110.217628 179.837570,110.175934 164.006607,110.230408 
	C143.129181,110.302246 129.039337,124.025421 128.993073,144.858124 
	C128.864258,202.850159 129.142059,260.843658 128.843628,318.834442 
	C128.735260,339.889923 146.204865,353.962219 164.459717,353.826630 
	C221.449142,353.403412 278.443695,353.675079 335.436249,353.668488 
	C358.267029,353.665863 372.642120,339.372833 372.648254,316.628082 
	C372.663544,260.135437 372.471069,203.641937 372.743561,147.150620 
	C372.852295,124.608559 356.037628,109.636940 335.980133,109.989120 
	C294.831451,110.711647 253.661331,110.213287 211.500015,110.216530 
z"/>
<path fill="#000000" opacity="1.000000" stroke="none" 
	d="
M384.441650,105.141212 
	C381.609497,108.677170 378.415833,109.536842 375.185974,106.818787 
	C372.457397,104.522583 372.057861,101.355789 374.389587,98.430305 
	C376.181763,96.181686 378.643921,95.249161 381.448029,96.591728 
	C385.010345,98.297325 386.045868,101.093765 384.441650,105.141212 
z"/>
<path fill="#000000" opacity="1.000000" stroke="none" 
	d="
M145.960999,217.958374 
	C151.805725,209.838013 157.538559,202.064896 162.987244,194.097458 
	C164.712524,191.574646 166.626572,190.651627 169.591354,190.725540 
	C176.358856,190.894287 183.133453,190.778824 190.295715,190.778824 
	C189.493240,184.321014 185.272018,179.989044 183.768646,173.818878 
	C230.680588,173.818878 276.994568,173.818878 324.575470,173.818878 
	C316.858856,189.460724 309.610199,204.154022 302.590332,218.383545 
	C302.832916,219.932266 303.527405,220.344025 304.294739,220.722000 
	C323.948883,230.403168 333.700745,247.145905 337.121185,267.945892 
	C340.029144,285.629486 336.962891,302.473450 327.322540,317.754425 
	C316.800049,334.433655 301.701202,342.667297 281.741547,342.256317 
	C263.925232,341.889526 246.095505,342.125000 228.271881,342.168182 
	C199.324005,342.238312 180.098007,327.860809 172.585434,299.778351 
	C166.068893,275.419189 169.924835,252.952179 186.426315,233.290604 
	C191.525986,227.214325 198.199295,223.152191 205.881622,219.555099 
	C202.839005,213.464859 199.980606,207.697159 197.074356,201.953674 
	C196.180466,200.187149 194.455688,200.083191 192.754608,200.075989 
	C186.258240,200.048447 179.760895,200.092209 173.265869,199.988144 
	C170.676865,199.946701 168.954742,200.928909 167.469711,203.079391 
	C162.457825,210.337067 157.257812,217.464615 152.157135,224.661331 
	C150.541885,226.940369 149.654877,229.630432 145.712845,226.974747 
	C141.841843,224.366898 142.464966,222.246765 144.820847,219.414383 
	C145.140045,219.030624 145.433701,218.625610 145.960999,217.958374 
M213.499939,263.684387 
	C250.600250,263.684387 287.700562,263.684387 324.800873,263.684387 
	C324.844818,262.733124 324.888794,261.781891 324.932770,260.830627 
	C314.664337,259.663666 304.144165,260.958862 293.843597,260.106476 
	C293.851166,259.392029 293.858734,258.677582 293.866333,257.963135 
	C303.561951,257.963135 313.257568,257.963135 322.953156,257.963135 
	C322.954315,257.322784 322.955475,256.682434 322.956635,256.042084 
	C313.317841,253.980026 303.109985,257.418182 293.507172,255.008011 
	C293.528839,254.241501 293.550507,253.474991 293.572174,252.708481 
	C302.642029,252.708481 311.711884,252.708481 321.016602,252.708481 
	C320.177612,248.765900 317.855621,249.423615 316.010010,249.403641 
	C309.844910,249.336914 303.678253,249.418533 297.513031,249.359512 
	C296.206696,249.347015 294.572815,249.817871 293.022095,246.952881 
	C301.789948,246.952881 309.713165,246.952881 317.636353,246.952881 
	C317.698486,246.213348 317.760590,245.473816 317.822693,244.734283 
	C310.470367,240.604279 301.414734,245.240677 292.526855,241.511536 
	C300.135529,239.600418 306.623383,241.617645 312.981018,239.991089 
	C310.861816,235.622040 307.238708,236.594299 304.019928,236.330872 
	C300.693298,236.058609 297.217743,237.105759 293.163483,235.239517 
	C297.532715,232.785049 301.866577,234.856567 305.836182,233.395508 
	C299.423828,228.150955 291.426941,225.382278 282.891327,225.370605 
	C265.227020,225.346436 247.549301,225.788712 229.901794,225.242203 
	C208.462585,224.578262 193.318619,237.045303 185.955368,255.149307 
	C184.935013,257.658020 183.316803,260.120941 184.038116,263.683594 
	C193.583359,263.683594 203.041641,263.683594 213.499939,263.684387 
M239.500031,216.965897 
	C256.989471,217.056152 274.480225,217.058105 291.967010,217.323166 
	C294.898376,217.367599 296.137573,216.091721 297.259338,213.829224 
	C302.142212,203.980835 307.111267,194.175217 312.012390,184.335785 
	C312.565918,183.224533 313.628265,182.107086 312.629272,180.754639 
	C273.379272,180.754639 234.195984,180.754639 193.991867,180.754639 
	C200.138748,192.946716 205.870560,204.363480 211.664093,215.748840 
	C212.426590,217.247299 213.925522,217.633514 215.536667,217.429428 
	C223.175354,216.461777 230.846939,217.179199 239.500031,216.965897 
z"/>
<path fill="#000000" opacity="1.000000" stroke="none" 
	d="
M327.047638,133.008881 
	C321.099396,136.941833 320.926666,138.587006 325.896271,142.917175 
	C328.023529,144.770676 330.476074,146.269165 332.496948,148.222626 
	C336.615356,152.203705 337.179840,156.379623 333.197327,159.414841 
	C325.093994,165.590683 316.134979,169.854965 305.389954,168.288269 
	C303.838928,168.062134 302.146973,168.700043 300.535645,169.016479 
	C298.710907,169.374802 298.718445,169.413223 296.204193,167.906326 
	C296.784882,165.866882 298.624786,166.007660 300.159454,165.586472 
	C305.452515,164.133820 310.847260,162.948685 315.769989,160.414398 
	C323.294250,156.540802 323.530090,153.073227 316.762817,148.181503 
	C314.747345,146.724594 312.632050,145.292236 310.979614,143.470322 
	C307.599213,139.743164 307.628448,135.626389 311.615875,132.639465 
	C319.731171,126.560417 328.815308,123.055794 339.247284,124.333931 
	C342.121307,124.686058 344.909119,122.530197 348.128601,124.522575 
	C341.682922,128.479340 333.777557,128.923660 327.047638,133.008881 
M315.272522,133.817856 
	C311.521210,137.732101 311.516602,139.404190 315.341583,142.738403 
	C316.469360,143.721481 317.711670,144.573349 318.903046,145.483322 
	C326.788696,151.506485 327.240662,154.674072 320.533600,162.879089 
	C323.657928,161.387268 325.922119,160.454269 328.041870,159.264008 
	C332.847137,156.565720 333.113525,153.713440 328.996552,149.916199 
	C328.020508,149.015945 326.924622,148.245804 325.886810,147.412155 
	C323.418335,145.429321 320.873932,143.483704 319.404572,140.590530 
	C317.636414,137.109024 320.178558,134.399246 321.712006,131.406784 
	C319.061523,131.043488 317.605164,132.648132 315.272522,133.817856 
z"/>
<path fill="#000000" opacity="1.000000" stroke="none" 
	d="
M273.924622,135.598114 
	C275.053070,142.103470 275.189911,148.203995 274.390686,154.366745 
	C273.873230,158.356812 272.218079,160.886017 267.993469,161.314987 
	C259.803864,162.146591 256.163391,160.882721 255.246384,155.962814 
	C254.054443,149.567871 254.235855,143.016815 255.194229,136.586777 
	C255.639282,133.600677 257.574951,131.623459 261.043427,131.503677 
	C265.736481,131.341599 270.828613,129.464157 273.924622,135.598114 
M269.586914,140.295135 
	C269.126251,137.340881 267.849060,135.299179 264.420380,135.562347 
	C261.108948,135.816513 260.068939,137.966934 259.700012,140.883514 
	C259.219238,144.684586 259.013824,148.483734 259.762787,152.246872 
	C260.345367,155.173920 262.002045,156.910339 265.321930,156.689545 
	C268.647400,156.468369 269.422180,154.179001 269.570312,151.589645 
	C269.768829,148.119446 269.634521,144.630188 269.586914,140.295135 
z"/>
<path fill="#000000" opacity="1.000000" stroke="none" 
	d="
M180.040192,133.643341 
	C184.285629,130.614792 195.439331,130.950195 198.745255,133.912735 
	C201.226761,136.136490 202.489487,138.937225 201.826508,142.364563 
	C201.103165,146.104034 198.976822,148.649399 195.327911,149.837143 
	C187.440735,152.404495 187.438065,152.396286 190.620132,159.426849 
	C188.753220,161.751190 186.089676,161.067947 183.759583,160.896835 
	C180.805756,160.679932 178.322006,160.261520 181.447815,156.206573 
	C184.338974,152.456009 182.182587,147.542221 182.668396,143.173981 
	C183.043839,139.798019 182.612549,136.610733 180.040192,133.643341 
M194.237717,137.079285 
	C192.037003,136.221680 189.342590,135.052872 188.405853,138.151154 
	C187.715454,140.434601 186.747940,143.798233 189.722061,145.329956 
	C191.931961,146.468079 194.312119,145.300873 195.814209,143.183838 
	C197.341934,141.030655 196.716202,139.114059 194.237717,137.079285 
z"/>
<path fill="#000000" opacity="1.000000" stroke="none" 
	d="
M247.787247,147.901031 
	C245.282928,149.904800 242.693069,150.325333 239.980301,150.353714 
	C238.657684,150.367554 237.084442,150.203781 236.637421,151.831467 
	C236.207520,153.396942 235.791763,155.241653 237.490463,156.374023 
	C238.666382,157.157898 239.943451,157.873367 239.384262,159.419846 
	C238.759476,161.147766 237.004623,160.992218 235.523575,160.986542 
	C233.402374,160.978409 231.114075,161.519867 229.377182,159.768951 
	C228.539688,158.924728 228.984314,158.001587 229.548737,157.082123 
	C232.567245,152.164658 232.578888,140.541214 229.613068,135.681473 
	C228.092102,133.189255 229.004547,131.840195 231.699081,131.742676 
	C235.519440,131.604401 239.387314,131.360184 243.165619,131.781876 
	C250.496323,132.600052 252.795822,140.309372 247.787247,147.901031 
M243.651443,144.341736 
	C245.664078,142.588135 246.412155,140.577026 244.544327,138.322449 
	C242.907211,136.346375 240.607803,135.802597 238.252258,136.499634 
	C235.296768,137.374161 236.371399,140.044312 236.420792,141.979340 
	C236.562393,147.526215 240.029144,145.658386 243.651443,144.341736 
z"/>
<path fill="#000000" opacity="1.000000" stroke="none" 
	d="
M209.918854,149.981583 
	C208.897812,147.575836 208.995483,144.873428 206.074539,144.187424 
	C205.153046,143.971008 204.736420,143.209244 204.716187,142.317444 
	C204.690643,141.192383 205.312698,140.269806 206.345490,140.065811 
	C208.952271,139.550949 211.629105,139.135757 214.126602,140.487320 
	C215.116867,141.023209 215.556885,142.292511 214.924332,143.071182 
	C212.090668,146.559357 214.810776,149.153839 216.202377,152.920532 
	C217.450714,149.343857 219.925766,147.042328 217.300751,143.601379 
	C215.936844,141.813522 216.960266,139.967834 219.392075,139.786118 
	C221.363312,139.638794 223.441483,139.586075 225.332153,140.055511 
	C227.412918,140.572159 228.056335,142.820999 226.248978,143.714066 
	C222.755112,145.440506 222.682846,148.737198 221.613266,151.559067 
	C220.023727,155.752716 218.766754,160.071411 217.315964,164.319031 
	C216.497742,166.714645 215.286499,168.880890 213.112534,170.338516 
	C211.026932,171.736877 208.879150,172.423889 206.735428,170.479736 
	C205.433243,169.298782 204.462067,167.815857 205.338089,166.063171 
	C206.802124,163.133942 209.180389,164.377716 211.309814,165.388733 
	C216.033752,159.669495 211.125458,155.176559 209.918854,149.981583 
z"/>
<path fill="#000000" opacity="1.000000" stroke="none" 
	d="
M291.571533,160.932556 
	C289.816803,160.967178 288.485168,161.011536 287.154327,160.994385 
	C285.634949,160.974823 283.918640,160.925323 283.184387,159.434830 
	C282.214661,157.466324 284.001648,156.979858 285.326813,156.291855 
	C286.526154,155.669144 286.641632,154.449844 286.645691,153.261444 
	C286.661591,148.601608 286.672150,143.941635 286.649750,139.281876 
	C286.644104,138.105789 286.576477,136.859268 285.075287,136.548111 
	C284.021393,136.329651 283.020782,136.551315 282.567596,137.637421 
	C281.948303,139.121628 281.184448,140.532913 279.332306,139.926346 
	C277.253906,139.245697 277.733856,137.253937 277.701508,135.657898 
	C277.667084,133.960587 277.756714,131.944214 279.979095,131.879135 
	C285.961334,131.703964 291.953461,131.709793 297.937592,131.836700 
	C300.181885,131.884308 300.340332,133.827209 300.273041,135.540161 
	C300.211121,137.116180 300.834869,139.113342 298.791382,139.891159 
	C296.948395,140.592667 296.107574,139.299866 295.549683,137.736237 
	C295.158875,136.641037 294.256500,136.264465 293.155731,136.446289 
	C291.669952,136.691711 291.432495,137.843140 291.424164,139.066315 
	C291.391357,143.892319 291.561188,148.727783 291.307159,153.541336 
	C291.139221,156.723297 294.132355,156.269867 295.407532,157.614700 
	C295.687317,160.327637 293.986053,160.776855 291.571533,160.932556 
z"/>
</svg>