<svg version="1.1" id="Layer_1" xmlns="http://www.w3.org/2000/svg" xmlns:xlink="http://www.w3.org/1999/xlink" x="0px" y="0px"
	 width="100%" viewBox="1.000659 1.000682 379.99854 80.99932" enable-background="new 0 0 380 81" xml:space="preserve">
<path fill="#FEFEFE" opacity="1.000000" stroke="none" 
	d="
M363.002777,82.000000 
	C242.002365,82.000000 121.502502,82.000000 1.001978,82.000000 
	C1.001319,55.000908 1.001319,28.001820 1.000659,1.002047 
	C127.665611,1.001364 254.331223,1.001364 380.997620,1.000682 
	C380.998413,27.998917 380.998413,54.997833 380.999207,81.998375 
	C375.167786,82.000000 369.335541,82.000000 363.002777,82.000000 
M85.214760,37.357033 
	C85.129494,47.263973 85.024818,57.170883 85.007072,67.077942 
	C85.006004,67.673637 85.698624,68.270576 86.916992,69.015099 
	C87.901451,68.158287 89.723541,67.319061 89.741959,66.441971 
	C89.945976,56.723862 89.870377,46.999886 89.870377,37.133072 
	C88.344536,37.133072 87.206444,37.133072 85.214760,37.357033 
M294.883118,65.458870 
	C297.336884,59.169498 299.790649,52.880131 302.244385,46.590763 
	C302.618469,46.695557 302.992554,46.800354 303.366638,46.905151 
	C303.366638,54.184036 303.366638,61.462921 303.366638,69.073875 
	C305.155426,68.929634 306.536560,68.818268 307.728149,68.722183 
	C307.728149,58.231121 307.728149,48.166798 307.728149,38.151962 
	C305.395477,38.151962 303.417816,38.151962 301.368164,38.151962 
	C298.349030,45.754299 295.380157,53.230022 291.953278,61.859138 
	C288.579315,53.179047 285.666504,45.685230 282.734589,38.142399 
	C280.418579,38.142399 278.288513,38.142399 275.972717,38.142399 
	C275.972717,48.411663 275.972717,58.513435 275.972717,68.999001 
	C277.433624,68.897247 278.777313,68.803658 280.664490,68.672218 
	C280.664490,61.458355 280.664490,54.666996 280.664490,47.875637 
	C284.169281,53.819366 286.517090,59.954788 289.063690,66.006561 
	C289.556122,67.176849 290.825745,68.020119 291.736847,69.014236 
	C292.682892,68.064407 293.628906,67.114586 294.883118,65.458870 
M332.972443,48.392673 
	C331.712860,44.982121 330.453247,41.571568 328.746826,36.951164 
	C326.519012,38.252304 323.672028,38.900276 323.042450,40.449436 
	C319.295349,49.669418 316.060822,59.097713 312.538513,68.773766 
	C314.433228,68.773766 316.023804,68.773766 317.726746,68.773766 
	C318.672333,66.122566 319.591187,63.546383 320.490601,61.024662 
	C322.154938,61.024662 323.324402,61.120811 324.473328,61.007954 
	C329.341248,60.529785 333.681061,60.524544 334.611115,67.070747 
	C334.756653,68.095284 337.839539,68.702499 340.778564,70.066086 
	C337.819336,61.925396 335.496857,55.536354 332.972443,48.392673 
M44.709503,69.025177 
	C52.656712,68.782707 53.465153,68.298218 53.188011,63.944115 
	C41.037045,65.144318 35.969696,62.466484 36.182076,54.288452 
	C36.261200,51.241554 37.384785,46.801968 39.529381,45.538113 
	C43.424416,43.242683 48.440456,42.849449 53.978203,41.404030 
	C54.793301,39.356453 52.406349,38.647469 49.795006,38.160622 
	C41.149025,36.548717 33.001266,41.788048 31.224747,50.079903 
	C29.141228,59.804668 33.859673,66.870308 44.709503,69.025177 
M60.677605,65.782509 
	C62.537220,66.791908 64.292053,68.281555 66.277397,68.714729 
	C70.989830,69.742905 75.315941,68.514961 78.058243,64.342674 
	C80.838608,60.112492 80.786278,55.464802 77.998055,51.235031 
	C75.304947,47.149551 71.045273,46.337341 66.562973,47.243458 
	C58.346359,48.904476 55.531258,56.998070 60.677605,65.782509 
M109.515823,68.357224 
	C115.829727,65.573586 118.315285,60.306969 116.305481,53.970650 
	C114.593414,48.572983 109.098198,45.782269 103.161400,47.295517 
	C97.220116,48.809906 94.083229,53.755409 95.005417,60.153938 
	C95.914001,66.458092 100.860039,69.524742 109.515823,68.357224 
M165.789581,47.027870 
	C163.275330,48.089874 158.872070,47.128811 160.007523,52.333889 
	C167.452240,49.619995 169.318542,50.026756 170.793671,54.754696 
	C169.337982,55.098724 167.910294,55.588852 166.446152,55.752266 
	C162.708740,56.169403 158.665741,56.550716 158.035934,61.099480 
	C157.746552,63.189491 158.671280,66.314598 160.199020,67.613380 
	C163.653961,70.550529 167.332199,68.899956 169.567276,66.981598 
	C171.784622,67.965111 173.396912,68.680237 175.735321,69.717445 
	C175.735321,64.310303 175.813171,60.165245 175.717606,56.024185 
	C175.563461,49.345005 173.551224,47.395782 165.789581,47.027870 
M262.240906,67.508881 
	C262.926331,67.365204 263.743805,66.912140 264.271790,67.137421 
	C265.701477,67.747444 267.008209,68.645569 269.089294,69.848999 
	C269.089294,64.581963 269.098877,60.781818 269.087372,56.981747 
	C269.061218,48.338577 263.730927,44.653706 255.793045,48.015026 
	C254.492218,48.565857 253.713379,50.349415 252.693298,51.563236 
	C260.919128,49.598934 262.791595,50.000042 264.271454,54.867054 
	C262.303650,55.227444 260.180328,55.201073 258.469513,56.028049 
	C255.972946,57.234871 253.138824,58.626247 251.685684,60.775402 
	C250.823395,62.050747 251.704453,66.230042 252.915176,66.820526 
	C255.389786,68.027443 258.616058,67.693184 262.240906,67.508881 
M140.525604,50.002876 
	C137.966812,54.189590 139.794327,56.881489 143.594528,58.832047 
	C144.619232,59.358002 145.904205,59.464249 146.803162,60.125504 
	C147.899734,60.932098 148.715164,62.120914 149.652176,63.144432 
	C148.328110,63.890724 147.043121,65.156769 145.670685,65.260010 
	C143.672745,65.410309 141.611816,64.723259 138.472580,64.213921 
	C139.595184,66.096016 139.995667,67.774078 140.930344,68.160683 
	C145.037964,69.859718 149.155609,69.421234 152.667023,66.629364 
	C155.441559,64.423363 155.049332,60.187859 151.947327,58.126137 
	C150.322311,57.046070 148.240097,56.660656 146.592209,55.605629 
	C145.627319,54.987877 145.110840,53.669735 144.392639,52.666668 
	C145.454407,52.014687 146.481781,50.897278 147.585709,50.815681 
	C149.414444,50.680508 151.292465,51.212208 153.149734,51.462948 
	C153.426636,51.080795 153.703552,50.698643 153.980469,50.316490 
	C152.791458,49.248295 151.523758,47.207397 150.428329,47.296021 
	C147.262497,47.552143 144.166000,48.665512 140.525604,50.002876 
M129.520203,46.963852 
	C125.793442,47.337017 121.982170,47.826981 120.924957,52.247440 
	C120.064507,55.845203 122.549286,57.512814 125.370277,59.093407 
	C127.414040,60.238514 129.050873,62.109882 130.869171,63.657394 
	C128.261398,64.029938 125.659195,64.454628 123.041481,64.734032 
	C122.470650,64.794952 121.844391,64.336479 120.601204,63.882729 
	C120.924065,65.518387 121.064201,67.726402 121.412369,67.759712 
	C124.771858,68.081085 128.330795,68.670135 131.486847,67.850685 
	C133.276077,67.386116 135.936523,63.944363 135.534821,62.717823 
	C134.744965,60.306011 132.144287,58.453152 130.192459,56.467659 
	C128.837219,55.089039 127.314384,53.875168 125.866425,52.587685 
	C127.914505,52.068680 129.944992,51.448612 132.020538,51.087387 
	C132.714600,50.966591 133.523727,51.506969 134.409119,51.785683 
	C135.876938,47.574409 133.050720,47.323761 129.520203,46.963852 
M244.239471,69.020531 
	C246.769272,68.974983 250.052795,69.654472 247.884094,64.682297 
	C244.388901,64.682297 240.822342,64.682297 236.972580,64.682297 
	C236.972580,55.619411 236.972580,47.028717 236.972580,38.012585 
	C235.146973,38.098183 233.650497,38.168346 232.261780,38.233459 
	C232.261780,48.722645 232.261780,58.635609 232.261780,69.020531 
	C236.077118,69.020531 239.688553,69.020531 244.239471,69.020531 
M211.040741,55.492424 
	C211.040741,59.908745 211.040741,64.325066 211.040741,69.019241 
	C216.115555,69.019241 220.588287,69.198990 225.027039,68.890236 
	C226.108582,68.814995 227.078537,67.135399 228.099792,66.193474 
	C227.772461,65.736206 227.445114,65.278946 227.117783,64.821678 
	C223.543869,64.821678 219.969955,64.821678 215.957260,64.821678 
	C215.957260,55.648289 215.957260,46.930077 215.957260,37.929836 
	C214.077133,38.062183 212.685165,38.160172 211.040756,38.275925 
	C211.040756,43.915623 211.040756,49.206188 211.040741,55.492424 
M181.833893,61.439529 
	C181.833893,63.867188 181.833893,66.294846 181.833893,69.005394 
	C183.642563,68.877243 184.873093,68.790054 186.023056,68.708572 
	C186.023056,58.018623 186.023056,47.655144 186.023056,37.018280 
	C184.486664,37.123455 183.261749,37.207306 181.833893,37.305046 
	C181.833893,45.233952 181.833893,52.845898 181.833893,61.439529 
M198.517166,58.628845 
	C204.136032,58.613850 204.136032,58.613850 203.535248,55.165962 
	C200.062729,55.165962 196.616806,55.165962 193.105072,55.165962 
	C192.170685,59.970909 195.686172,58.242771 198.517166,58.628845 
z"/>
<path fill="#302D34" opacity="1.000000" stroke="none" 
	d="
M294.729034,65.811813 
	C293.628906,67.114586 292.682892,68.064407 291.736847,69.014236 
	C290.825745,68.020119 289.556122,67.176849 289.063690,66.006561 
	C286.517090,59.954788 284.169281,53.819366 280.664490,47.875637 
	C280.664490,54.666996 280.664490,61.458355 280.664490,68.672218 
	C278.777313,68.803658 277.433624,68.897247 275.972717,68.999001 
	C275.972717,58.513435 275.972717,48.411663 275.972717,38.142399 
	C278.288513,38.142399 280.418579,38.142399 282.734589,38.142399 
	C285.666504,45.685230 288.579315,53.179047 291.953278,61.859138 
	C295.380157,53.230022 298.349030,45.754299 301.368164,38.151962 
	C303.417816,38.151962 305.395477,38.151962 307.728149,38.151962 
	C307.728149,48.166798 307.728149,58.231121 307.728149,68.722183 
	C306.536560,68.818268 305.155426,68.929634 303.366638,69.073875 
	C303.366638,61.462921 303.366638,54.184036 303.366638,46.905151 
	C302.992554,46.800354 302.618469,46.695557 302.244385,46.590763 
	C299.790649,52.880131 297.336884,59.169498 294.729034,65.811813 
z"/>
<path fill="#2D2C35" opacity="1.000000" stroke="none" 
	d="
M333.073395,48.769993 
	C335.496857,55.536354 337.819336,61.925396 340.778564,70.066086 
	C337.839539,68.702499 334.756653,68.095284 334.611115,67.070747 
	C333.681061,60.524544 329.341248,60.529785 324.473328,61.007954 
	C323.324402,61.120811 322.154938,61.024662 320.490601,61.024662 
	C319.591187,63.546383 318.672333,66.122566 317.726746,68.773766 
	C316.023804,68.773766 314.433228,68.773766 312.538513,68.773766 
	C316.060822,59.097713 319.295349,49.669418 323.042450,40.449436 
	C323.672028,38.900276 326.519012,38.252304 328.746826,36.951164 
	C330.453247,41.571568 331.712860,44.982121 333.073395,48.769993 
M328.546417,49.053093 
	C327.910736,47.187206 327.275055,45.321320 326.302551,42.466850 
	C324.604767,47.747238 323.188477,52.152081 321.627777,57.006130 
	C323.786560,57.006130 325.102814,57.036411 326.417023,56.997925 
	C327.831543,56.956501 329.244202,56.850597 330.919983,56.758396 
	C330.143951,54.193359 329.476868,51.988514 328.546417,49.053093 
z"/>
<path fill="#2E2F37" opacity="1.000000" stroke="none" 
	d="
M44.281498,69.008003 
	C33.859673,66.870308 29.141228,59.804668 31.224747,50.079903 
	C33.001266,41.788048 41.149025,36.548717 49.795006,38.160622 
	C52.406349,38.647469 54.793301,39.356453 53.978203,41.404030 
	C48.440456,42.849449 43.424416,43.242683 39.529381,45.538113 
	C37.384785,46.801968 36.261200,51.241554 36.182076,54.288452 
	C35.969696,62.466484 41.037045,65.144318 53.188011,63.944115 
	C53.465153,68.298218 52.656712,68.782707 44.281498,69.008003 
z"/>
<path fill="#302F38" opacity="1.000000" stroke="none" 
	d="
M60.420788,65.492523 
	C55.531258,56.998070 58.346359,48.904476 66.562973,47.243458 
	C71.045273,46.337341 75.304947,47.149551 77.998055,51.235031 
	C80.786278,55.464802 80.838608,60.112492 78.058243,64.342674 
	C75.315941,68.514961 70.989830,69.742905 66.277397,68.714729 
	C64.292053,68.281555 62.537220,66.791908 60.420788,65.492523 
M73.619530,63.021164 
	C73.876358,60.161285 74.724380,57.175419 74.152542,54.492142 
	C73.844528,53.046822 71.169174,51.322651 69.442688,51.181355 
	C67.685379,51.037533 64.417824,52.432446 64.205109,53.592476 
	C63.632496,56.715248 63.353088,60.622398 64.791283,63.191513 
	C66.451447,66.157150 70.147751,65.833397 73.619530,63.021164 
z"/>
<path fill="#302F38" opacity="1.000000" stroke="none" 
	d="
M109.151207,68.527893 
	C100.860039,69.524742 95.914001,66.458092 95.005417,60.153938 
	C94.083229,53.755409 97.220116,48.809906 103.161400,47.295517 
	C109.098198,45.782269 114.593414,48.572983 116.305481,53.970650 
	C118.315285,60.306969 115.829727,65.573586 109.151207,68.527893 
M101.288063,63.083088 
	C103.917137,65.649254 107.596191,66.397247 109.548660,63.670658 
	C111.243652,61.303631 111.516281,57.237286 110.924828,54.213966 
	C110.647888,52.798279 106.814224,51.138508 104.659370,51.226517 
	C100.228661,51.407482 98.831917,56.078484 101.288063,63.083088 
z"/>
<path fill="#30333D" opacity="1.000000" stroke="none" 
	d="
M166.203125,46.998131 
	C173.551224,47.395782 175.563461,49.345005 175.717606,56.024185 
	C175.813171,60.165245 175.735321,64.310303 175.735321,69.717445 
	C173.396912,68.680237 171.784622,67.965111 169.567276,66.981598 
	C167.332199,68.899956 163.653961,70.550529 160.199020,67.613380 
	C158.671280,66.314598 157.746552,63.189491 158.035934,61.099480 
	C158.665741,56.550716 162.708740,56.169403 166.446152,55.752266 
	C167.910294,55.588852 169.337982,55.098724 170.793671,54.754696 
	C169.318542,50.026756 167.452240,49.619995 160.007523,52.333889 
	C158.872070,47.128811 163.275330,48.089874 166.203125,46.998131 
M168.012741,64.898911 
	C169.250748,62.952137 170.488754,61.005360 171.726776,59.058578 
	C171.037704,58.417839 170.348648,57.777100 169.659576,57.136360 
	C167.174408,58.908459 164.689240,60.680561 162.204086,62.452671 
	C163.873871,63.320690 165.543640,64.188705 168.012741,64.898911 
z"/>
<path fill="#333038" opacity="1.000000" stroke="none" 
	d="
M261.886841,67.751266 
	C258.616058,67.693184 255.389786,68.027443 252.915176,66.820526 
	C251.704453,66.230042 250.823395,62.050747 251.685684,60.775402 
	C253.138824,58.626247 255.972946,57.234871 258.469513,56.028049 
	C260.180328,55.201073 262.303650,55.227444 264.271454,54.867054 
	C262.791595,50.000042 260.919128,49.598934 252.693298,51.563236 
	C253.713379,50.349415 254.492218,48.565857 255.793045,48.015026 
	C263.730927,44.653706 269.061218,48.338577 269.087372,56.981747 
	C269.098877,60.781818 269.089294,64.581963 269.089294,69.848999 
	C267.008209,68.645569 265.701477,67.747444 264.271790,67.137421 
	C263.743805,66.912140 262.926331,67.365204 261.886841,67.751266 
M257.105988,59.612545 
	C256.959839,61.204948 256.813660,62.797352 256.667480,64.389755 
	C258.408264,64.505035 260.749420,65.368881 261.752502,64.564369 
	C263.352936,63.280758 264.063477,60.887589 265.754974,57.893131 
	C261.981140,58.511173 259.894470,58.852905 257.105988,59.612545 
z"/>
<path fill="#373436" opacity="1.000000" stroke="none" 
	d="
M140.783936,49.722599 
	C144.166000,48.665512 147.262497,47.552143 150.428329,47.296021 
	C151.523758,47.207397 152.791458,49.248295 153.980469,50.316490 
	C153.703552,50.698643 153.426636,51.080795 153.149734,51.462948 
	C151.292465,51.212208 149.414444,50.680508 147.585709,50.815681 
	C146.481781,50.897278 145.454407,52.014687 144.392639,52.666664 
	C145.110840,53.669735 145.627319,54.987877 146.592209,55.605629 
	C148.240097,56.660656 150.322311,57.046070 151.947327,58.126137 
	C155.049332,60.187859 155.441559,64.423363 152.667023,66.629364 
	C149.155609,69.421234 145.037964,69.859718 140.930344,68.160683 
	C139.995667,67.774078 139.595184,66.096016 138.472580,64.213921 
	C141.611816,64.723259 143.672745,65.410309 145.670685,65.260010 
	C147.043121,65.156769 148.328110,63.890724 149.652176,63.144432 
	C148.715164,62.120914 147.899734,60.932098 146.803162,60.125504 
	C145.904205,59.464249 144.619232,59.358002 143.594528,58.832047 
	C139.794327,56.881489 137.966812,54.189590 140.783936,49.722599 
z"/>
<path fill="#32333C" opacity="1.000000" stroke="none" 
	d="
M129.933395,46.965912 
	C133.050720,47.323761 135.876938,47.574409 134.409119,51.785683 
	C133.523727,51.506969 132.714600,50.966591 132.020538,51.087387 
	C129.944992,51.448612 127.914505,52.068680 125.866425,52.587685 
	C127.314384,53.875168 128.837219,55.089039 130.192459,56.467659 
	C132.144287,58.453152 134.744965,60.306011 135.534821,62.717823 
	C135.936523,63.944363 133.276077,67.386116 131.486847,67.850685 
	C128.330795,68.670135 124.771858,68.081085 121.412369,67.759712 
	C121.064201,67.726402 120.924065,65.518387 120.601204,63.882729 
	C121.844391,64.336479 122.470650,64.794952 123.041481,64.734032 
	C125.659195,64.454628 128.261398,64.029938 130.869171,63.657394 
	C129.050873,62.109882 127.414040,60.238514 125.370277,59.093407 
	C122.549286,57.512814 120.064507,55.845203 120.924957,52.247440 
	C121.982170,47.826981 125.793442,47.337017 129.933395,46.965912 
z"/>
<path fill="#312534" opacity="1.000000" stroke="none" 
	d="
M243.769730,69.020531 
	C239.688553,69.020531 236.077118,69.020531 232.261780,69.020531 
	C232.261780,58.635609 232.261780,48.722645 232.261780,38.233459 
	C233.650497,38.168346 235.146973,38.098183 236.972580,38.012585 
	C236.972580,47.028717 236.972580,55.619411 236.972580,64.682297 
	C240.822342,64.682297 244.388901,64.682297 247.884094,64.682297 
	C250.052795,69.654472 246.769272,68.974983 243.769730,69.020531 
z"/>
<path fill="#312534" opacity="1.000000" stroke="none" 
	d="
M211.040741,54.994591 
	C211.040756,49.206188 211.040756,43.915623 211.040756,38.275925 
	C212.685165,38.160172 214.077133,38.062183 215.957260,37.929836 
	C215.957260,46.930077 215.957260,55.648289 215.957260,64.821678 
	C219.969955,64.821678 223.543869,64.821678 227.117783,64.821678 
	C227.445114,65.278946 227.772461,65.736206 228.099792,66.193474 
	C227.078537,67.135399 226.108582,68.814995 225.027039,68.890236 
	C220.588287,69.198990 216.115555,69.019241 211.040741,69.019241 
	C211.040741,64.325066 211.040741,59.908745 211.040741,54.994591 
z"/>
<path fill="#1F2328" opacity="1.000000" stroke="none" 
	d="
M181.833893,60.948689 
	C181.833893,52.845898 181.833893,45.233952 181.833893,37.305046 
	C183.261749,37.207306 184.486664,37.123455 186.023056,37.018280 
	C186.023056,47.655144 186.023056,58.018623 186.023056,68.708572 
	C184.873093,68.790054 183.642563,68.877243 181.833893,69.005394 
	C181.833893,66.294846 181.833893,63.867188 181.833893,60.948689 
z"/>
<path fill="#1F3349" opacity="1.000000" stroke="none" 
	d="
M86.068359,37.133072 
	C87.206444,37.133072 88.344536,37.133072 89.870377,37.133072 
	C89.870377,46.999886 89.945976,56.723862 89.741959,66.441971 
	C89.723541,67.319061 87.901451,68.158287 86.476852,68.481018 
	C86.047256,57.675648 86.057808,47.404362 86.068359,37.133072 
z"/>
<path fill="#433E42" opacity="1.000000" stroke="none" 
	d="
M198.099731,58.628765 
	C195.686172,58.242771 192.170685,59.970909 193.105072,55.165962 
	C196.616806,55.165962 200.062729,55.165962 203.535248,55.165962 
	C204.136032,58.613850 204.136032,58.613850 198.099731,58.628765 
z"/>
<path fill="#932328" opacity="1.000000" stroke="none" 
	d="
M85.641556,37.245052 
	C86.057808,47.404362 86.047256,57.675648 86.052582,68.406937 
	C85.698624,68.270576 85.006004,67.673637 85.007072,67.077942 
	C85.024818,57.170883 85.129494,47.263973 85.641556,37.245052 
z"/>
<path fill="#F0F3EE" opacity="1.000000" stroke="none" 
	d="
M328.678101,49.418381 
	C329.476868,51.988514 330.143951,54.193359 330.919983,56.758396 
	C329.244202,56.850597 327.831543,56.956501 326.417023,56.997925 
	C325.102814,57.036411 323.786560,57.006130 321.627777,57.006130 
	C323.188477,52.152081 324.604767,47.747238 326.302551,42.466850 
	C327.275055,45.321320 327.910736,47.187206 328.678101,49.418381 
z"/>
<path fill="#F9FBF8" opacity="1.000000" stroke="none" 
	d="
M73.346214,63.324280 
	C70.147751,65.833397 66.451447,66.157150 64.791283,63.191513 
	C63.353088,60.622398 63.632496,56.715248 64.205109,53.592476 
	C64.417824,52.432446 67.685379,51.037533 69.442688,51.181355 
	C71.169174,51.322651 73.844528,53.046822 74.152542,54.492142 
	C74.724380,57.175419 73.876358,60.161285 73.346214,63.324280 
z"/>
<path fill="#F9FBF8" opacity="1.000000" stroke="none" 
	d="
M101.062347,62.741425 
	C98.831917,56.078484 100.228661,51.407482 104.659370,51.226517 
	C106.814224,51.138508 110.647888,52.798279 110.924828,54.213966 
	C111.516281,57.237286 111.243652,61.303631 109.548660,63.670658 
	C107.596191,66.397247 103.917137,65.649254 101.062347,62.741425 
z"/>
<path fill="#EFF1EF" opacity="1.000000" stroke="none" 
	d="
M167.613083,64.977814 
	C165.543640,64.188705 163.873871,63.320690 162.204086,62.452667 
	C164.689240,60.680561 167.174408,58.908459 169.659576,57.136360 
	C170.348648,57.777100 171.037704,58.417839 171.726776,59.058578 
	C170.488754,61.005360 169.250748,62.952137 167.613083,64.977814 
z"/>
<path fill="#F1F2EE" opacity="1.000000" stroke="none" 
	d="
M257.456909,59.403591 
	C259.894470,58.852905 261.981140,58.511173 265.754974,57.893131 
	C264.063477,60.887589 263.352936,63.280758 261.752502,64.564369 
	C260.749420,65.368881 258.408264,64.505035 256.667480,64.389755 
	C256.813660,62.797352 256.959839,61.204948 257.456909,59.403591 
z"/>
</svg>