<svg version="1.1" id="Layer_1" xmlns="http://www.w3.org/2000/svg" xmlns:xlink="http://www.w3.org/1999/xlink" x="0px" y="0px"
	 width="100%" viewBox="1.000012 1.000017 261.99997 83.999985" enable-background="new 0 0 262 84" xml:space="preserve">
<path fill="#FEFEFE" opacity="1.000000" stroke="none" 
	d="
M195.000000,85.000000 
	C130.000015,85.000000 65.500031,85.000000 1.000035,85.000000 
	C1.000023,57.000023 1.000023,29.000044 1.000012,1.000050 
	C88.333290,1.000033 175.666580,1.000033 262.999908,1.000017 
	C262.999939,28.999952 262.999939,56.999905 262.999969,84.999924 
	C240.500000,85.000000 218.000000,85.000000 195.000000,85.000000 
M121.219742,31.430700 
	C121.154625,39.128471 121.047691,46.826370 121.071426,54.523865 
	C121.074814,55.623657 121.710533,56.721500 122.911926,58.006882 
	C123.636742,57.055500 124.862900,56.165493 124.988350,55.140736 
	C125.309784,52.515099 124.613647,49.669552 125.354454,47.223957 
	C125.852066,45.581219 128.107239,44.470863 129.576080,43.122322 
	C130.684982,44.568615 132.385742,45.876900 132.762787,47.493847 
	C133.315323,49.863400 133.044632,52.461308 132.897842,54.948509 
	C132.706421,58.191982 134.236816,58.447227 136.999207,57.600914 
	C136.999207,54.947575 137.003021,52.474121 136.998535,50.000683 
	C136.980728,40.171234 134.124298,38.139771 125.084549,41.939381 
	C125.084549,39.016521 125.328011,36.208126 124.945351,33.487808 
	C124.820518,32.600426 123.063789,31.942596 121.219742,31.430700 
M157.786743,57.958649 
	C158.927322,57.958649 160.067917,57.958649 161.950409,57.958649 
	C159.199936,53.542896 156.781189,49.659702 154.277893,45.640785 
	C157.715118,43.709579 160.010864,40.935810 158.663513,36.821442 
	C157.295380,32.643570 153.630081,31.944601 149.755081,31.967749 
	C147.486130,31.981302 145.217026,31.970217 142.891296,31.970217 
	C142.891296,40.915668 142.891296,49.326771 142.891296,57.983498 
	C144.123978,57.906742 145.900024,57.969963 145.930603,57.768394 
	C146.461731,54.267197 146.778519,50.733482 147.281677,45.852760 
	C149.599594,47.702328 151.552856,48.767063 152.802139,50.377804 
	C154.517319,52.589222 155.698990,55.214409 157.786743,57.958649 
M72.155975,56.608391 
	C73.560585,57.071819 74.939346,57.811161 76.374771,57.945656 
	C80.290123,58.312519 83.738739,57.113403 85.588272,53.449257 
	C87.432266,49.796085 87.371925,45.913853 84.540886,42.749535 
	C81.861824,39.755085 78.281639,39.270184 74.507286,40.545616 
	C67.648788,42.863243 66.286026,50.128578 72.155975,56.608391 
M62.335308,56.809986 
	C62.335308,49.889187 62.335308,42.968388 62.335308,36.919987 
	C64.769066,34.111763 69.852211,38.089497 69.746742,32.252895 
	C63.463924,32.252895 57.390858,32.252895 51.111580,32.252895 
	C51.247822,37.824375 55.882233,34.277630 58.219902,36.575172 
	C58.219902,43.196457 58.219902,50.447510 58.219902,58.044903 
	C59.851410,57.876480 60.961884,57.761841 62.335308,56.809986 
M169.091980,36.653858 
	C169.022659,35.198631 168.953339,33.743408 168.884018,32.288181 
	C168.498993,31.995838 168.113968,31.703493 167.728943,31.411150 
	C166.825821,32.400841 165.168167,33.369240 165.139542,34.383598 
	C164.920807,42.134979 165.019562,49.895317 165.019562,57.807449 
	C169.963730,57.807449 174.385361,57.807449 179.286407,57.807449 
	C177.686508,51.399303 172.213364,56.319553 169.091980,53.225891 
	C169.091980,48.525028 169.091980,43.075661 169.091980,36.653858 
M116.642662,56.576027 
	C116.710007,55.792961 116.777351,55.009899 116.737007,55.478985 
	C113.325188,54.271763 110.162773,53.762478 107.883759,52.066269 
	C106.878586,51.318138 106.821815,47.093739 107.810822,46.309574 
	C110.136963,44.465214 113.351372,43.741169 116.987328,42.241749 
	C116.071365,41.664227 114.799652,40.253357 113.380013,40.084240 
	C109.494171,39.621334 105.463875,40.846134 104.300034,44.604004 
	C103.344933,47.687843 103.414940,52.056404 104.971413,54.722374 
	C107.260727,58.643570 111.756104,58.995827 116.642662,56.576027 
M91.404167,40.248470 
	C91.279015,45.360985 90.994446,50.478973 91.169563,55.581184 
	C91.202713,56.546928 93.061127,57.450024 94.077339,58.382027 
	C95.080109,55.018013 95.068497,52.711819 95.082924,50.405785 
	C95.102753,47.236042 95.509758,44.477459 99.581474,43.896496 
	C100.323982,43.790550 100.784264,41.706638 101.374825,40.535797 
	C100.922791,40.242405 100.470749,39.949013 100.018715,39.655621 
	C98.521767,40.521317 97.024826,41.387009 96.398521,41.749210 
	C94.620117,41.010380 93.425446,40.514057 91.404167,40.248470 
z"/>
<path fill="#26303E" opacity="1.000000" stroke="none" 
	d="
M157.448013,57.810471 
	C155.698990,55.214409 154.517319,52.589222 152.802139,50.377804 
	C151.552856,48.767063 149.599594,47.702328 147.281677,45.852760 
	C146.778519,50.733482 146.461731,54.267197 145.930603,57.768394 
	C145.900024,57.969963 144.123978,57.906742 142.891296,57.983498 
	C142.891296,49.326771 142.891296,40.915668 142.891296,31.970217 
	C145.217026,31.970217 147.486130,31.981302 149.755081,31.967749 
	C153.630081,31.944601 157.295380,32.643570 158.663513,36.821442 
	C160.010864,40.935810 157.715118,43.709579 154.277893,45.640785 
	C156.781189,49.659702 159.199936,53.542896 161.950409,57.958649 
	C160.067917,57.958649 158.927322,57.958649 157.448013,57.810471 
M151.600662,43.484127 
	C152.487137,41.495186 153.373596,39.506245 154.260056,37.517303 
	C151.982513,36.562874 149.704956,35.608448 147.427414,34.654022 
	C147.156326,35.128258 146.885254,35.602497 146.614166,36.076733 
	C148.206573,38.536018 143.122696,44.281384 151.600662,43.484127 
z"/>
<path fill="#333339" opacity="1.000000" stroke="none" 
	d="
M71.863159,56.359024 
	C66.286026,50.128578 67.648788,42.863243 74.507286,40.545616 
	C78.281639,39.270184 81.861824,39.755085 84.540886,42.749535 
	C87.371925,45.913853 87.432266,49.796085 85.588272,53.449257 
	C83.738739,57.113403 80.290123,58.312519 76.374771,57.945656 
	C74.939346,57.811161 73.560585,57.071819 71.863159,56.359024 
M76.756126,43.154781 
	C75.874748,43.586258 74.778740,43.815910 74.149803,44.484764 
	C71.661301,47.131157 71.282318,50.469711 73.754089,52.885269 
	C75.074646,54.175785 78.537804,54.725979 80.198830,53.910084 
	C83.534874,52.271420 83.525162,48.702908 81.853699,45.755619 
	C81.118599,44.459431 79.006317,43.944275 76.756126,43.154781 
z"/>
<path fill="#3C352B" opacity="1.000000" stroke="none" 
	d="
M62.203835,57.228596 
	C60.961884,57.761841 59.851410,57.876480 58.219902,58.044903 
	C58.219902,50.447510 58.219902,43.196457 58.219902,36.575172 
	C55.882233,34.277630 51.247822,37.824375 51.111580,32.252895 
	C57.390858,32.252895 63.463924,32.252895 69.746742,32.252895 
	C69.852211,38.089497 64.769066,34.111763 62.335308,36.919987 
	C62.335308,42.968388 62.335308,49.889187 62.203835,57.228596 
z"/>
<path fill="#2F283E" opacity="1.000000" stroke="none" 
	d="
M122.053413,31.179779 
	C123.063789,31.942596 124.820518,32.600426 124.945351,33.487808 
	C125.328011,36.208126 125.084549,39.016521 125.084549,41.939381 
	C134.124298,38.139771 136.980728,40.171234 136.998535,50.000683 
	C137.003021,52.474121 136.999207,54.947575 136.999207,57.600914 
	C134.236816,58.447227 132.706421,58.191982 132.897842,54.948509 
	C133.044632,52.461308 133.315323,49.863400 132.762787,47.493847 
	C132.385742,45.876900 130.684982,44.568615 129.576080,43.122322 
	C128.107239,44.470863 125.852066,45.581219 125.354454,47.223957 
	C124.613647,49.669552 125.309784,52.515099 124.988350,55.140736 
	C124.862900,56.165493 123.636742,57.055500 122.473740,57.456207 
	C122.041504,48.330280 122.047455,39.755028 122.053413,31.179779 
z"/>
<path fill="#3C2A3A" opacity="1.000000" stroke="none" 
	d="
M169.091980,37.140076 
	C169.091980,43.075661 169.091980,48.525028 169.091980,53.225891 
	C172.213364,56.319553 177.686508,51.399303 179.286407,57.807449 
	C174.385361,57.807449 169.963730,57.807449 165.019562,57.807449 
	C165.019562,49.895317 164.920807,42.134979 165.139542,34.383598 
	C165.168167,33.369240 166.825821,32.400841 167.728943,31.411150 
	C168.113968,31.703493 168.498993,31.995838 168.884018,32.288181 
	C168.953339,33.743408 169.022659,35.198631 169.091980,37.140076 
z"/>
<path fill="#34323D" opacity="1.000000" stroke="none" 
	d="
M116.339828,56.781647 
	C111.756104,58.995827 107.260727,58.643570 104.971413,54.722374 
	C103.414940,52.056404 103.344933,47.687843 104.300034,44.604004 
	C105.463875,40.846134 109.494171,39.621334 113.380013,40.084240 
	C114.799652,40.253357 116.071365,41.664227 116.987328,42.241749 
	C113.351372,43.741169 110.136963,44.465214 107.810822,46.309574 
	C106.821815,47.093739 106.878586,51.318138 107.883759,52.066269 
	C110.162773,53.762478 113.325188,54.271763 116.737007,55.478985 
	C116.777351,55.009899 116.710007,55.792961 116.339828,56.781647 
z"/>
<path fill="#3A2635" opacity="1.000000" stroke="none" 
	d="
M91.817474,40.133102 
	C93.425446,40.514057 94.620117,41.010380 96.398521,41.749210 
	C97.024826,41.387009 98.521767,40.521317 100.018715,39.655621 
	C100.470749,39.949013 100.922791,40.242405 101.374825,40.535797 
	C100.784264,41.706638 100.323982,43.790550 99.581474,43.896496 
	C95.509758,44.477459 95.102753,47.236042 95.082924,50.405785 
	C95.068497,52.711819 95.080109,55.018013 94.077339,58.382027 
	C93.061127,57.450024 91.202713,56.546928 91.169563,55.581184 
	C90.994446,50.478973 91.279015,45.360985 91.817474,40.133102 
z"/>
<path fill="#3B2436" opacity="1.000000" stroke="none" 
	d="
M121.636581,31.305241 
	C122.047455,39.755028 122.041504,48.330280 122.044579,57.362888 
	C121.710533,56.721500 121.074814,55.623657 121.071426,54.523865 
	C121.047691,46.826370 121.154625,39.128471 121.636581,31.305241 
z"/>
<path fill="#F3EEE8" opacity="1.000000" stroke="none" 
	d="
M151.211227,43.609535 
	C143.122696,44.281384 148.206573,38.536018 146.614166,36.076733 
	C146.885254,35.602497 147.156326,35.128258 147.427414,34.654022 
	C149.704956,35.608448 151.982513,36.562874 154.260056,37.517303 
	C153.373596,39.506245 152.487137,41.495186 151.211227,43.609535 
z"/>
<path fill="#F3F4F3" opacity="1.000000" stroke="none" 
	d="
M77.137726,43.114643 
	C79.006317,43.944275 81.118599,44.459431 81.853699,45.755619 
	C83.525162,48.702908 83.534874,52.271420 80.198830,53.910084 
	C78.537804,54.725979 75.074646,54.175785 73.754089,52.885269 
	C71.282318,50.469711 71.661301,47.131157 74.149803,44.484764 
	C74.778740,43.815910 75.874748,43.586258 77.137726,43.114643 
z"/>
</svg>