<svg version="1.1" id="Layer_1" xmlns="http://www.w3.org/2000/svg" xmlns:xlink="http://www.w3.org/1999/xlink" x="0px" y="0px"
	 width="100%" viewBox="0 0 732 296" enable-background="new 0 0 732 296" xml:space="preserve">
<path fill="#FCFCFC" opacity="1.000000" stroke="none" 
	d="
M449.000000,297.000000 
	C299.369568,297.000000 150.239166,297.000000 1.054373,297.000000 
	C1.054373,198.393585 1.054373,99.787132 1.054373,1.090338 
	C244.880447,1.090338 488.760925,1.090338 732.820679,1.090338 
	C732.820679,99.666412 732.820679,198.333176 732.820679,297.000000 
	C638.453735,297.000000 543.976868,297.000000 449.000000,297.000000 
M223.425186,131.660629 
	C235.627457,123.433510 242.894318,112.521774 243.089371,97.277611 
	C243.118439,95.006271 245.968536,92.771042 248.049545,89.737885 
	C243.446625,84.315636 237.897247,77.778450 232.347855,71.241264 
	C231.330231,80.579887 231.460220,89.362419 231.286514,98.138954 
	C231.161591,104.450134 229.443512,110.233032 224.185364,113.374504 
	C224.185364,106.531921 224.185364,99.689339 224.185364,92.148628 
	C217.843430,92.148628 212.441635,92.148628 206.906235,91.201050 
	C206.893875,88.040886 206.872772,84.880737 206.870865,81.720566 
	C206.865875,73.487282 206.869217,73.487282 214.314255,70.468513 
	C209.630188,62.337551 204.973557,54.254200 199.950119,45.534145 
	C194.739655,54.608456 190.062408,62.754158 185.283737,71.076469 
	C193.125412,72.380913 193.142792,72.380959 193.122864,79.957390 
	C193.114120,83.281708 193.018143,86.605789 192.205811,89.847031 
	C184.453568,87.197304 176.701309,84.547585 168.814896,81.010696 
	C168.814896,77.827179 168.814896,74.643661 168.814896,70.621071 
	C165.656754,73.701576 163.440002,75.863838 160.682999,77.577347 
	C154.793274,73.738243 148.903564,69.899139 142.320221,65.960266 
	C118.788406,84.292778 92.320290,93.944595 62.200214,92.424706 
	C60.450092,113.085709 61.863132,132.963882 66.144012,152.581253 
	C72.347794,181.010452 84.093300,206.541382 106.509216,226.092697 
	C117.253082,235.463577 129.197205,242.845627 143.750198,246.709488 
	C163.224945,239.959671 179.387054,228.507370 192.834351,213.253113 
	C192.933624,222.379608 192.972351,231.507309 193.154205,240.632156 
	C193.268494,246.366409 198.475647,250.217911 202.749084,247.299774 
	C204.883575,245.842224 206.628052,242.249649 206.691971,239.578354 
	C207.097137,222.643936 206.983032,205.697098 207.569351,188.362015 
	C216.098068,170.533875 220.853333,151.679138 223.425186,131.660629 
M410.988922,49.749825 
	C410.988922,61.891243 410.988922,74.032661 410.988922,86.181984 
	C407.296265,83.147629 404.359741,80.112999 400.872345,77.978355 
	C387.014801,69.496040 367.851349,71.798958 356.039520,83.071999 
	C344.194061,94.377129 341.413971,114.077820 349.606262,128.660263 
	C357.884247,143.395233 374.594971,150.223373 392.063751,146.008743 
	C407.872223,142.194702 418.966919,128.265610 419.128998,111.381828 
	C419.328705,90.577011 419.174744,69.768822 419.182098,48.962086 
	C419.183136,46.050674 419.379730,42.914505 415.207031,42.906029 
	C411.235413,42.897964 410.856110,45.744743 410.988922,49.749825 
M293.428406,72.980469 
	C277.655609,72.831841 265.460968,79.274506 258.802032,93.713684 
	C252.214981,107.997093 253.614182,122.121742 263.870178,134.384247 
	C273.960114,146.448135 287.524963,149.807220 302.215912,145.711090 
	C309.016754,143.814880 314.984894,138.932266 321.133453,135.513184 
	C321.133453,136.456375 321.205750,138.425095 321.117004,140.386551 
	C320.974121,143.544144 321.596771,146.334244 325.393097,146.329041 
	C329.329773,146.323654 329.562164,143.191376 329.571594,140.246567 
	C329.602539,130.591919 329.786530,120.931961 329.542175,111.283409 
	C328.976532,88.948967 315.546509,74.441254 293.428406,72.980469 
M537.791016,146.926102 
	C539.787903,146.957245 541.791687,147.110519 543.780457,146.998108 
	C551.812378,146.544189 559.116333,143.892548 565.308472,138.806656 
	C566.467712,137.854477 566.208862,135.175690 566.604492,133.293686 
	C564.649841,133.118378 562.683228,132.744720 560.746094,132.861252 
	C559.922180,132.910797 559.214661,134.079193 558.361511,134.581741 
	C548.812500,140.206833 538.857544,141.226395 528.886108,136.144394 
	C519.724121,131.474991 515.208740,123.542000 514.386047,112.870911 
	C516.584229,112.870911 518.394714,112.870911 520.205261,112.870911 
	C535.857971,112.870857 551.510803,112.853691 567.163452,112.883995 
	C570.633484,112.890717 573.739319,112.434975 573.561584,107.954178 
	C573.033691,94.651062 568.389282,83.364357 556.052979,76.993759 
	C543.867737,70.701157 531.341003,71.094772 520.191406,79.301598 
	C506.131866,89.650375 503.544037,104.587753 507.207794,120.473686 
	C510.742462,135.799973 521.298706,144.464325 537.791016,146.926102 
M384.736298,181.131821 
	C381.710815,183.457443 378.285339,185.412354 375.727966,188.171829 
	C363.637878,201.217346 362.767822,222.036575 373.430206,236.550674 
	C383.368988,250.079788 403.237305,254.831314 419.349609,247.532425 
	C435.110077,240.392914 443.514465,222.574219 439.416718,204.986771 
	C433.832520,181.019547 408.650970,169.748383 384.736298,181.131821 
M641.859314,180.541519 
	C626.509277,173.400726 612.337280,175.185837 599.150269,187.196320 
	C599.150269,177.342422 599.133789,168.535019 599.159729,159.727737 
	C599.168091,156.897583 599.049316,154.067657 595.263916,154.078033 
	C591.779846,154.087601 590.970764,156.487213 590.973999,159.531311 
	C591.003906,187.848312 591.001221,216.165390 590.977844,244.482391 
	C590.975403,247.495865 591.719604,249.912445 595.249390,249.946945 
	C599.109253,249.984695 599.153992,247.123856 599.152649,244.328781 
	C599.146729,232.169113 599.138306,220.009430 599.154053,207.849777 
	C599.170898,194.913086 608.002014,185.744293 621.199097,184.928528 
	C637.108215,183.945099 648.106140,191.646851 649.035461,205.489777 
	C649.903564,218.422836 649.648499,231.432602 649.830811,244.409393 
	C649.870850,247.258011 649.949097,250.037399 653.791626,249.943649 
	C657.388367,249.855881 657.903809,247.309586 657.893799,244.355209 
	C657.852417,232.195679 658.220154,220.023300 657.775024,207.879929 
	C657.356384,196.458618 652.884399,186.902496 641.859314,180.541519 
M516.198669,237.242310 
	C529.305725,252.754257 551.613586,255.626816 566.810486,243.776321 
	C568.995483,242.072433 571.376831,240.289871 569.234131,237.248291 
	C566.872314,233.895660 564.477417,235.777115 562.052856,237.591400 
	C546.692627,249.085571 524.955383,242.477280 518.613525,224.437332 
	C513.884094,210.984055 518.618347,195.073669 529.188049,188.253983 
	C537.766418,182.719131 554.507141,182.661621 563.686401,194.006042 
	C565.582642,196.349594 567.897278,196.867798 570.172913,194.834549 
	C572.808777,192.479355 570.971558,190.338058 569.333679,188.382431 
	C557.572876,174.340149 534.565125,172.643570 520.768799,184.785980 
	C506.609772,197.247650 504.442139,219.971497 516.198669,237.242310 
M321.290192,195.546799 
	C321.290222,205.367050 321.210205,215.188110 321.308533,225.007370 
	C321.466492,240.782471 334.132294,251.995224 349.619873,249.863831 
	C351.178864,249.649277 353.541290,247.366104 353.559509,246.016342 
	C353.578918,244.577148 351.421173,242.885269 349.886932,241.742905 
	C349.123444,241.174423 347.627441,241.613403 346.465027,241.553497 
	C335.998260,241.014236 329.991028,234.783905 329.912872,224.268158 
	C329.849792,215.779922 329.899872,207.290848 329.899780,198.802155 
	C329.899719,195.212891 329.899780,191.623627 329.899780,187.709198 
	C335.350739,187.709198 339.996857,187.741531 344.642212,187.697372 
	C347.548340,187.669754 350.861053,187.600296 350.745026,183.626663 
	C350.640839,180.056870 347.631805,179.922867 344.807251,179.957626 
	C340.021851,180.016510 335.235199,179.973801 329.899445,179.973801 
	C329.899445,173.202972 329.849152,166.928467 329.919952,160.655334 
	C329.957245,157.352737 329.458282,154.297821 325.359955,154.446609 
	C321.572723,154.584091 321.253906,157.609818 321.276428,160.649811 
	C321.322937,166.919388 321.290466,173.189560 321.290466,179.976318 
	C317.907562,179.976318 315.013885,179.520752 312.367310,180.133118 
	C310.538239,180.556305 309.050476,182.454742 307.410217,183.693954 
	C309.017181,185.028656 310.450317,187.093872 312.271790,187.527344 
	C315.022125,188.181885 318.043396,187.698090 321.290680,187.698090 
	C321.290680,190.602097 321.290680,192.580444 321.290192,195.546799 
M456.940460,120.500847 
	C452.265625,110.395355 447.593292,100.288704 442.914673,90.184944 
	C440.959534,85.962639 439.232269,81.604828 436.886505,77.611015 
	C436.150696,76.358246 433.734833,76.092216 432.087982,75.374527 
	C431.367310,77.166153 430.379761,78.908585 430.036682,80.769806 
	C429.860718,81.724426 430.803436,82.906471 431.295776,83.959953 
	C440.512360,103.681778 449.675140,123.429375 459.056427,143.072617 
	C459.996307,145.040649 462.258759,147.626953 463.932983,147.645706 
	C465.635132,147.664780 468.022614,145.182663 468.977966,143.239334 
	C473.595642,133.846268 477.829742,124.264717 482.203979,114.751884 
	C487.134338,104.029442 492.043518,93.297089 497.019409,82.595795 
	C498.317200,79.804710 499.264832,76.951324 495.732300,75.382057 
	C492.149597,73.790497 490.691345,76.526627 489.565674,79.323425 
	C489.379822,79.785217 489.152924,80.230431 488.947144,80.684303 
	C481.536621,97.031898 474.133636,113.382919 466.705017,129.722290 
	C465.945404,131.393036 465.032349,132.994019 463.809174,135.367249 
	C461.281769,129.933517 459.251404,125.568428 456.940460,120.500847 
M590.378601,120.499847 
	C590.378540,126.994499 590.415771,133.489456 590.362671,139.983673 
	C590.336548,143.175095 590.492737,146.426285 594.682190,146.374786 
	C598.610901,146.326523 598.651367,143.199066 598.640137,140.200317 
	C598.595215,128.210419 598.534119,116.219391 598.648621,104.230408 
	C598.756592,92.926941 603.452881,85.245781 612.598999,82.400688 
	C616.451965,81.202141 620.763184,81.351906 624.878601,81.165260 
	C627.659973,81.039124 631.070129,82.085098 631.364685,77.863884 
	C631.636902,73.962402 628.225525,73.523247 625.494690,73.170471 
	C616.748291,72.040604 608.974915,74.318207 602.645874,80.627747 
	C601.547241,81.723007 600.992859,83.364182 600.187073,84.753212 
	C599.725403,84.338631 599.263672,83.924049 598.802002,83.509460 
	C598.741943,82.523697 598.657349,81.538704 598.626343,80.552025 
	C598.528320,77.428818 599.206909,73.662300 594.282349,73.856674 
	C589.784241,74.034218 590.396179,77.586075 590.390137,80.532135 
	C590.363403,93.521332 590.378784,106.510612 590.378601,120.499847 
M468.007202,240.399567 
	C468.009186,229.076248 467.895050,217.751389 468.047089,206.430084 
	C468.188629,195.893097 474.268066,187.679306 483.899597,185.447433 
	C487.544098,184.602921 491.494049,184.902939 495.298645,184.981064 
	C498.087708,185.038330 500.885468,184.614853 500.690125,181.495010 
	C500.592804,179.940231 498.047394,177.533920 496.325867,177.253586 
	C487.199127,175.767303 478.732178,177.371429 472.021240,184.409561 
	C470.936157,185.547577 470.075592,186.899612 469.111237,188.152740 
	C467.990326,185.276581 468.134308,183.147644 467.957306,181.045746 
	C467.677185,177.719696 465.260773,176.563065 462.717285,177.819580 
	C461.309631,178.514954 460.122711,181.162079 460.107178,182.940506 
	C459.928345,203.420822 459.992889,223.903259 459.995056,244.385132 
	C459.995148,245.050858 459.745178,245.970505 460.083191,246.336655 
	C461.296082,247.650665 462.700562,249.694809 464.053955,249.711288 
	C465.348816,249.727051 467.130188,247.781570 467.844238,246.289673 
	C468.494263,244.931412 467.998108,243.024597 468.007202,240.399567 
z"/>
<path fill="#50565A" opacity="1.000000" stroke="none" 
	d="
M143.030975,246.837784 
	C129.197205,242.845627 117.253082,235.463577 106.509216,226.092697 
	C84.093300,206.541382 72.347794,181.010452 66.144012,152.581253 
	C61.863132,132.963882 60.450092,113.085709 62.200214,92.424706 
	C92.320290,93.944595 118.788406,84.292778 142.659958,66.474739 
	C143.010117,126.938736 143.020538,186.888260 143.030975,246.837784 
z"/>
<path fill="#34373B" opacity="1.000000" stroke="none" 
	d="
M143.390594,246.773636 
	C143.020538,186.888260 143.010117,126.938736 143.006775,66.524628 
	C148.903564,69.899139 154.793274,73.738243 160.844055,78.130219 
	C157.690353,82.772804 154.375610,86.862526 150.459808,91.693840 
	C156.606110,91.574265 157.072128,95.014664 157.071594,99.313751 
	C157.070450,108.528069 160.808807,116.387688 166.726562,123.296677 
	C173.609894,131.333008 182.626633,135.553299 192.805847,137.376526 
	C192.948349,138.458771 193.107330,139.104645 193.107788,139.750610 
	C193.124039,162.718750 193.138214,185.686920 193.094879,208.654968 
	C193.092468,209.932739 192.597076,211.209610 192.331131,212.486893 
	C179.387054,228.507370 163.224945,239.959671 143.390594,246.773636 
z"/>
<path fill="#DF8A54" opacity="1.000000" stroke="none" 
	d="
M192.582733,212.869995 
	C192.597076,211.209610 193.092468,209.932739 193.094879,208.654968 
	C193.138214,185.686920 193.124039,162.718750 193.107788,139.750610 
	C193.107330,139.104645 192.948349,138.458771 192.805847,137.376526 
	C182.626633,135.553299 173.609894,131.333008 166.726562,123.296677 
	C160.808807,116.387688 157.070450,108.528069 157.071594,99.313751 
	C157.072128,95.014664 156.606110,91.574265 150.459808,91.693840 
	C154.375610,86.862526 157.690353,82.772804 161.114166,78.354591 
	C163.440002,75.863838 165.656754,73.701576 168.814896,70.621071 
	C168.814896,74.643661 168.814896,77.827179 168.667603,81.808105 
	C168.446426,86.923439 168.388382,91.241714 168.295685,95.559250 
	C168.041794,107.384392 174.052078,115.752205 183.341888,122.051613 
	C189.094681,125.952591 192.969193,123.835533 193.078674,116.863678 
	C193.219604,107.888603 193.016632,98.908127 192.961792,89.929977 
	C193.018143,86.605789 193.114120,83.281708 193.122864,79.957390 
	C193.142792,72.380959 193.125412,72.380913 185.283737,71.076469 
	C190.062408,62.754158 194.739655,54.608456 199.950119,45.534145 
	C204.973557,54.254200 209.630188,62.337551 214.314255,70.468513 
	C206.869217,73.487282 206.865875,73.487282 206.870865,81.720566 
	C206.872772,84.880737 206.893875,88.040886 206.932709,92.132355 
	C206.934006,101.202660 206.750031,109.345299 206.935791,117.479492 
	C207.075012,123.575714 210.751511,125.751907 215.792526,122.471138 
	C218.993149,120.388115 221.429489,117.130753 224.208572,114.400024 
	C229.443512,110.233032 231.161591,104.450134 231.286514,98.138954 
	C231.460220,89.362419 231.330231,80.579887 232.347855,71.241264 
	C237.897247,77.778450 243.446625,84.315636 248.049545,89.737885 
	C245.968536,92.771042 243.118439,95.006271 243.089371,97.277611 
	C242.894318,112.521774 235.627457,123.433510 222.820740,131.976593 
	C217.297150,134.146362 212.377991,136.000153 207.040192,138.011719 
	C207.040192,154.666824 207.040192,171.710587 207.040192,188.754349 
	C206.983032,205.697098 207.097137,222.643936 206.691971,239.578354 
	C206.628052,242.249649 204.883575,245.842224 202.749084,247.299774 
	C198.475647,250.217911 193.268494,246.366409 193.154205,240.632156 
	C192.972351,231.507309 192.933624,222.379608 192.582733,212.869995 
z"/>
<path fill="#505153" opacity="1.000000" stroke="none" 
	d="
M410.988953,49.284447 
	C410.856110,45.744743 411.235413,42.897964 415.207031,42.906029 
	C419.379730,42.914505 419.183136,46.050674 419.182098,48.962086 
	C419.174744,69.768822 419.328705,90.577011 419.128998,111.381828 
	C418.966919,128.265610 407.872223,142.194702 392.063751,146.008743 
	C374.594971,150.223373 357.884247,143.395233 349.606262,128.660263 
	C341.413971,114.077820 344.194061,94.377129 356.039520,83.071999 
	C367.851349,71.798958 387.014801,69.496040 400.872345,77.978355 
	C404.359741,80.112999 407.296265,83.147629 410.988922,86.181984 
	C410.988922,74.032661 410.988922,61.891243 410.988953,49.284447 
M362.578461,131.953949 
	C373.815735,141.127625 388.077179,142.000641 399.011047,134.184143 
	C409.648163,126.579811 413.839844,112.197922 409.166718,99.339508 
	C404.573425,86.700661 393.283722,79.636612 378.775543,80.972252 
	C367.509583,82.009399 359.441162,88.169075 355.422760,98.688866 
	C350.795593,110.802475 353.025391,121.911110 362.578461,131.953949 
z"/>
<path fill="#535456" opacity="1.000000" stroke="none" 
	d="
M293.896729,72.981125 
	C315.546509,74.441254 328.976532,88.948967 329.542175,111.283409 
	C329.786530,120.931961 329.602539,130.591919 329.571594,140.246567 
	C329.562164,143.191376 329.329773,146.323654 325.393097,146.329041 
	C321.596771,146.334244 320.974121,143.544144 321.117004,140.386551 
	C321.205750,138.425095 321.133453,136.456375 321.133453,135.513184 
	C314.984894,138.932266 309.016754,143.814880 302.215912,145.711090 
	C287.524963,149.807220 273.960114,146.448135 263.870178,134.384247 
	C253.614182,122.121742 252.214981,107.997093 258.802032,93.713684 
	C265.460968,79.274506 277.655609,72.831841 293.896729,72.981125 
M308.849548,134.504776 
	C322.694550,123.912857 325.325378,104.313644 314.670013,91.143555 
	C304.537384,78.619621 285.447815,77.096230 273.184235,87.832909 
	C262.067627,97.565445 260.208069,115.328972 269.002441,127.779747 
	C277.607117,139.961945 294.035400,142.950150 308.849548,134.504776 
z"/>
<path fill="#545557" opacity="1.000000" stroke="none" 
	d="
M537.337158,146.895874 
	C521.298706,144.464325 510.742462,135.799973 507.207794,120.473686 
	C503.544037,104.587753 506.131866,89.650375 520.191406,79.301598 
	C531.341003,71.094772 543.867737,70.701157 556.052979,76.993759 
	C568.389282,83.364357 573.033691,94.651062 573.561584,107.954178 
	C573.739319,112.434975 570.633484,112.890717 567.163452,112.883995 
	C551.510803,112.853691 535.857971,112.870857 520.205261,112.870911 
	C518.394714,112.870911 516.584229,112.870911 514.386047,112.870911 
	C515.208740,123.542000 519.724121,131.474991 528.886108,136.144394 
	C538.857544,141.226395 548.812500,140.206833 558.361511,134.581741 
	C559.214661,134.079193 559.922180,132.910797 560.746094,132.861252 
	C562.683228,132.744720 564.649841,133.118378 566.604492,133.293686 
	C566.208862,135.175690 566.467712,137.854477 565.308472,138.806656 
	C559.116333,143.892548 551.812378,146.544189 543.780457,146.998108 
	C541.791687,147.110519 539.787903,146.957245 537.337158,146.895874 
M524.525513,105.411560 
	C537.961914,105.411560 551.398315,105.411560 564.808289,105.411560 
	C565.270996,91.884789 554.116760,80.955833 540.347900,80.870079 
	C526.518188,80.783958 514.770508,91.984032 515.190186,105.411858 
	C517.955139,105.411858 520.744263,105.411858 524.525513,105.411560 
z"/>
<path fill="#E18C57" opacity="1.000000" stroke="none" 
	d="
M385.073425,180.972824 
	C408.650970,169.748383 433.832520,181.019547 439.416718,204.986771 
	C443.514465,222.574219 435.110077,240.392914 419.349609,247.532425 
	C403.237305,254.831314 383.368988,250.079788 373.430206,236.550674 
	C362.767822,222.036575 363.637878,201.217346 375.727966,188.171829 
	C378.285339,185.412354 381.710815,183.457443 385.073425,180.972824 
M374.720917,217.732574 
	C376.900269,234.542068 391.704712,245.639511 408.185913,242.817993 
	C424.373230,240.046783 435.006683,224.194290 431.580048,207.941528 
	C428.078247,191.332108 413.999786,181.975677 397.044525,184.989532 
	C382.999603,187.486069 372.587128,202.297867 374.720917,217.732574 
z"/>
<path fill="#E18B55" opacity="1.000000" stroke="none" 
	d="
M642.184753,180.722672 
	C652.884399,186.902496 657.356384,196.458618 657.775024,207.879929 
	C658.220154,220.023300 657.852417,232.195679 657.893799,244.355209 
	C657.903809,247.309586 657.388367,249.855881 653.791626,249.943649 
	C649.949097,250.037399 649.870850,247.258011 649.830811,244.409393 
	C649.648499,231.432602 649.903564,218.422836 649.035461,205.489777 
	C648.106140,191.646851 637.108215,183.945099 621.199097,184.928528 
	C608.002014,185.744293 599.170898,194.913086 599.154053,207.849777 
	C599.138306,220.009430 599.146729,232.169113 599.152649,244.328781 
	C599.153992,247.123856 599.109253,249.984695 595.249390,249.946945 
	C591.719604,249.912445 590.975403,247.495865 590.977844,244.482391 
	C591.001221,216.165390 591.003906,187.848312 590.973999,159.531311 
	C590.970764,156.487213 591.779846,154.087601 595.263916,154.078033 
	C599.049316,154.067657 599.168091,156.897583 599.159729,159.727737 
	C599.133789,168.535019 599.150269,177.342422 599.150269,187.196320 
	C612.337280,175.185837 626.509277,173.400726 642.184753,180.722672 
z"/>
<path fill="#E18C57" opacity="1.000000" stroke="none" 
	d="
M516.011108,236.934952 
	C504.442139,219.971497 506.609772,197.247650 520.768799,184.785980 
	C534.565125,172.643570 557.572876,174.340149 569.333679,188.382431 
	C570.971558,190.338058 572.808777,192.479355 570.172913,194.834549 
	C567.897278,196.867798 565.582642,196.349594 563.686401,194.006042 
	C554.507141,182.661621 537.766418,182.719131 529.188049,188.253983 
	C518.618347,195.073669 513.884094,210.984055 518.613525,224.437332 
	C524.955383,242.477280 546.692627,249.085571 562.052856,237.591400 
	C564.477417,235.777115 566.872314,233.895660 569.234131,237.248291 
	C571.376831,240.289871 568.995483,242.072433 566.810486,243.776321 
	C551.613586,255.626816 529.305725,252.754257 516.011108,236.934952 
z"/>
<path fill="#E28F5B" opacity="1.000000" stroke="none" 
	d="
M321.290436,195.052795 
	C321.290680,192.580444 321.290680,190.602097 321.290680,187.698090 
	C318.043396,187.698090 315.022125,188.181885 312.271790,187.527344 
	C310.450317,187.093872 309.017181,185.028656 307.410217,183.693954 
	C309.050476,182.454742 310.538239,180.556305 312.367310,180.133118 
	C315.013885,179.520752 317.907562,179.976318 321.290466,179.976318 
	C321.290466,173.189560 321.322937,166.919388 321.276428,160.649811 
	C321.253906,157.609818 321.572723,154.584091 325.359955,154.446609 
	C329.458282,154.297821 329.957245,157.352737 329.919952,160.655334 
	C329.849152,166.928467 329.899445,173.202972 329.899445,179.973801 
	C335.235199,179.973801 340.021851,180.016510 344.807251,179.957626 
	C347.631805,179.922867 350.640839,180.056870 350.745026,183.626663 
	C350.861053,187.600296 347.548340,187.669754 344.642212,187.697372 
	C339.996857,187.741531 335.350739,187.709198 329.899780,187.709198 
	C329.899780,191.623627 329.899719,195.212891 329.899780,198.802155 
	C329.899872,207.290848 329.849792,215.779922 329.912872,224.268158 
	C329.991028,234.783905 335.998260,241.014236 346.465027,241.553497 
	C347.627441,241.613403 349.123444,241.174423 349.886932,241.742905 
	C351.421173,242.885269 353.578918,244.577148 353.559509,246.016342 
	C353.541290,247.366104 351.178864,249.649277 349.619873,249.863831 
	C334.132294,251.995224 321.466492,240.782471 321.308533,225.007370 
	C321.210205,215.188110 321.290222,205.367050 321.290436,195.052795 
z"/>
<path fill="#525355" opacity="1.000000" stroke="none" 
	d="
M457.080750,120.852089 
	C459.251404,125.568428 461.281769,129.933517 463.809174,135.367249 
	C465.032349,132.994019 465.945404,131.393036 466.705017,129.722290 
	C474.133636,113.382919 481.536621,97.031898 488.947144,80.684303 
	C489.152924,80.230431 489.379822,79.785217 489.565674,79.323425 
	C490.691345,76.526627 492.149597,73.790497 495.732300,75.382057 
	C499.264832,76.951324 498.317200,79.804710 497.019409,82.595795 
	C492.043518,93.297089 487.134338,104.029442 482.203979,114.751884 
	C477.829742,124.264717 473.595642,133.846268 468.977966,143.239334 
	C468.022614,145.182663 465.635132,147.664780 463.932983,147.645706 
	C462.258759,147.626953 459.996307,145.040649 459.056427,143.072617 
	C449.675140,123.429375 440.512360,103.681778 431.295776,83.959953 
	C430.803436,82.906471 429.860718,81.724426 430.036682,80.769806 
	C430.379761,78.908585 431.367310,77.166153 432.087982,75.374527 
	C433.734833,76.092216 436.150696,76.358246 436.886505,77.611015 
	C439.232269,81.604828 440.959534,85.962639 442.914673,90.184944 
	C447.593292,100.288704 452.265625,110.395355 457.080750,120.852089 
z"/>
<path fill="#5A5A5C" opacity="1.000000" stroke="none" 
	d="
M590.378784,119.999855 
	C590.378784,106.510612 590.363403,93.521332 590.390137,80.532135 
	C590.396179,77.586075 589.784241,74.034218 594.282349,73.856674 
	C599.206909,73.662300 598.528320,77.428818 598.626343,80.552025 
	C598.657349,81.538704 598.741943,82.523697 598.802002,83.509460 
	C599.263672,83.924049 599.725403,84.338631 600.187073,84.753212 
	C600.992859,83.364182 601.547241,81.723007 602.645874,80.627747 
	C608.974915,74.318207 616.748291,72.040604 625.494690,73.170471 
	C628.225525,73.523247 631.636902,73.962402 631.364685,77.863884 
	C631.070129,82.085098 627.659973,81.039124 624.878601,81.165260 
	C620.763184,81.351906 616.451965,81.202141 612.598999,82.400688 
	C603.452881,85.245781 598.756592,92.926941 598.648621,104.230408 
	C598.534119,116.219391 598.595215,128.210419 598.640137,140.200317 
	C598.651367,143.199066 598.610901,146.326523 594.682190,146.374786 
	C590.492737,146.426285 590.336548,143.175095 590.362671,139.983673 
	C590.415771,133.489456 590.378540,126.994499 590.378784,119.999855 
z"/>
<path fill="#E08A54" opacity="1.000000" stroke="none" 
	d="
M468.007202,240.879578 
	C467.998108,243.024597 468.494263,244.931412 467.844238,246.289673 
	C467.130188,247.781570 465.348816,249.727051 464.053955,249.711288 
	C462.700562,249.694809 461.296082,247.650665 460.083191,246.336655 
	C459.745178,245.970505 459.995148,245.050858 459.995056,244.385132 
	C459.992889,223.903259 459.928345,203.420822 460.107178,182.940506 
	C460.122711,181.162079 461.309631,178.514954 462.717285,177.819580 
	C465.260773,176.563065 467.677185,177.719696 467.957306,181.045746 
	C468.134308,183.147644 467.990326,185.276581 469.111237,188.152740 
	C470.075592,186.899612 470.936157,185.547577 472.021240,184.409561 
	C478.732178,177.371429 487.199127,175.767303 496.325867,177.253586 
	C498.047394,177.533920 500.592804,179.940231 500.690125,181.495010 
	C500.885468,184.614853 498.087708,185.038330 495.298645,184.981064 
	C491.494049,184.902939 487.544098,184.602921 483.899597,185.447433 
	C474.268066,187.679306 468.188629,195.893097 468.047089,206.430084 
	C467.895050,217.751389 468.009186,229.076248 468.007202,240.879578 
z"/>
<path fill="#37393C" opacity="1.000000" stroke="none" 
	d="
M192.583801,89.888504 
	C193.016632,98.908127 193.219604,107.888603 193.078674,116.863678 
	C192.969193,123.835533 189.094681,125.952591 183.341888,122.051613 
	C174.052078,115.752205 168.041794,107.384392 168.295685,95.559250 
	C168.388382,91.241714 168.446426,86.923439 168.734680,82.251686 
	C176.701309,84.547585 184.453568,87.197304 192.583801,89.888504 
z"/>
<path fill="#373A3E" opacity="1.000000" stroke="none" 
	d="
M207.304779,188.558182 
	C207.040192,171.710587 207.040192,154.666824 207.040192,138.011719 
	C212.377991,136.000153 217.297150,134.146362 222.548569,132.187424 
	C220.853333,151.679138 216.098068,170.533875 207.304779,188.558182 
z"/>
<path fill="#373B3E" opacity="1.000000" stroke="none" 
	d="
M224.196960,113.887268 
	C221.429489,117.130753 218.993149,120.388115 215.792526,122.471138 
	C210.751511,125.751907 207.075012,123.575714 206.935791,117.479492 
	C206.750031,109.345299 206.934006,101.202660 206.999512,92.606140 
	C212.441635,92.148628 217.843430,92.148628 224.185364,92.148628 
	C224.185364,99.689339 224.185364,106.531921 224.196960,113.887268 
z"/>
<path fill="#FBFBFB" opacity="1.000000" stroke="none" 
	d="
M362.321472,131.700500 
	C353.025391,121.911110 350.795593,110.802475 355.422760,98.688866 
	C359.441162,88.169075 367.509583,82.009399 378.775543,80.972252 
	C393.283722,79.636612 404.573425,86.700661 409.166718,99.339508 
	C413.839844,112.197922 409.648163,126.579811 399.011047,134.184143 
	C388.077179,142.000641 373.815735,141.127625 362.321472,131.700500 
z"/>
<path fill="#FBFBFB" opacity="1.000000" stroke="none" 
	d="
M308.543030,134.710480 
	C294.035400,142.950150 277.607117,139.961945 269.002441,127.779747 
	C260.208069,115.328972 262.067627,97.565445 273.184235,87.832909 
	C285.447815,77.096230 304.537384,78.619621 314.670013,91.143555 
	C325.325378,104.313644 322.694550,123.912857 308.543030,134.710480 
z"/>
<path fill="#FBFBFB" opacity="1.000000" stroke="none" 
	d="
M524.029480,105.411713 
	C520.744263,105.411858 517.955139,105.411858 515.190186,105.411858 
	C514.770508,91.984032 526.518188,80.783958 540.347900,80.870079 
	C554.116760,80.955833 565.270996,91.884789 564.808289,105.411560 
	C551.398315,105.411560 537.961914,105.411560 524.029480,105.411713 
z"/>
<path fill="#FCFBFB" opacity="1.000000" stroke="none" 
	d="
M374.665802,217.317139 
	C372.587128,202.297867 382.999603,187.486069 397.044525,184.989532 
	C413.999786,181.975677 428.078247,191.332108 431.580048,207.941528 
	C435.006683,224.194290 424.373230,240.046783 408.185913,242.817993 
	C391.704712,245.639511 376.900269,234.542068 374.665802,217.317139 
z"/>
</svg>