<svg version="1.1" id="Layer_1" xmlns="http://www.w3.org/2000/svg" xmlns:xlink="http://www.w3.org/1999/xlink" x="0px" y="0px"
	 width="100%" viewBox="0 0 482 448" enable-background="new 0 0 482 448" xml:space="preserve">
<path fill="#FFFFFF" opacity="1.000000" stroke="none" 
	d="
M290.000000,449.000000 
	C193.333328,449.000000 97.166664,449.000000 1.000000,449.000000 
	C1.000000,299.666656 1.000000,150.333328 1.000000,1.000000 
	C161.666672,1.000000 322.333344,1.000000 483.000000,1.000000 
	C483.000000,150.333328 483.000000,299.666656 483.000000,449.000000 
	C418.833344,449.000000 354.666656,449.000000 290.000000,449.000000 
M42.999641,276.500000 
	C42.999947,312.491272 42.957016,348.482635 43.015305,384.473816 
	C43.056187,409.717316 63.137993,429.896576 88.428757,429.910461 
	C196.401459,429.969666 304.374207,429.964905 412.346954,429.915405 
	C437.995239,429.903656 457.881439,409.813141 457.882324,384.188751 
	C457.885956,276.715881 457.884613,169.243011 457.883362,61.770145 
	C457.883057,34.816608 438.230286,15.018260 411.312103,15.011305 
	C304.172485,14.983624 197.032867,14.986417 89.893257,15.009235 
	C62.718975,15.015023 43.006920,34.830986 43.003193,62.053894 
	C42.993450,133.202591 42.999741,204.351303 42.999641,276.500000 
z"/>
<path fill="#131238" opacity="1.000000" stroke="none" 
	d="
M42.999641,276.000000 
	C42.999741,204.351303 42.993450,133.202591 43.003193,62.053894 
	C43.006920,34.830986 62.718975,15.015023 89.893257,15.009235 
	C197.032867,14.986417 304.172485,14.983624 411.312103,15.011305 
	C438.230286,15.018260 457.883057,34.816608 457.883362,61.770145 
	C457.884613,169.243011 457.885956,276.715881 457.882324,384.188751 
	C457.881439,409.813141 437.995239,429.903656 412.346954,429.915405 
	C304.374207,429.964905 196.401459,429.969666 88.428757,429.910461 
	C63.137993,429.896576 43.056187,409.717316 43.015305,384.473816 
	C42.957016,348.482635 42.999947,312.491272 42.999641,276.000000 
M152.022079,265.882507 
	C152.825897,266.686920 153.629715,267.491302 154.711456,268.923798 
	C156.065643,270.752258 157.419815,272.580688 158.910568,275.029114 
	C159.860626,276.374939 160.810684,277.720764 161.934433,279.753571 
	C164.632355,283.145264 167.330292,286.536957 170.300308,290.541107 
	C175.516785,295.402924 180.733246,300.264709 186.289047,305.698120 
	C191.190735,308.807037 196.092438,311.915985 201.424438,315.556122 
	C205.285980,317.324158 209.147507,319.092224 213.632385,321.257416 
	C217.423920,322.444397 221.215439,323.631378 225.740448,325.115326 
	C229.162216,325.694458 232.583969,326.273621 236.800278,327.087463 
	C240.202393,327.345520 243.604507,327.603577 247.924469,328.020508 
	C261.091278,328.257660 273.892212,326.449036 286.817383,321.140228 
	C302.434174,314.873199 316.180359,305.909424 327.833832,292.796722 
	C330.281891,289.926025 332.789276,287.103516 335.166840,284.175568 
	C342.287384,275.406769 349.357208,266.596741 357.089783,257.514160 
	C365.371429,251.148315 374.772461,247.377762 384.936890,245.993073 
	C384.936890,230.805420 384.936890,216.131454 384.936890,201.342270 
	C382.681915,201.342270 380.870728,201.342270 378.953064,200.578873 
	C377.346344,199.577667 375.798370,198.462631 374.121674,197.596985 
	C369.454834,195.187653 364.746918,192.856506 360.027252,190.551788 
	C358.740570,189.923477 357.355042,189.497650 355.929749,188.300720 
	C353.969971,186.512650 352.010223,184.724579 349.739746,182.360260 
	C348.176147,180.552444 346.612579,178.744614 344.940491,176.271194 
	C343.643738,174.486313 342.346985,172.701416 340.955963,170.260101 
	C339.981415,168.835358 339.006836,167.410599 337.945282,165.345093 
	C337.025970,164.216980 336.106659,163.088852 335.030670,161.301559 
	C333.426208,159.502640 331.821747,157.703705 330.003235,155.268784 
	C328.335999,153.511429 326.668793,151.754074 324.725189,149.422394 
	C323.475067,148.298569 322.224915,147.174744 320.674652,145.463150 
	C319.149628,144.237900 317.624634,143.012634 315.755280,141.238281 
	C314.200806,140.091583 312.646301,138.944870 310.721710,137.245422 
	C299.630646,129.040604 287.588776,122.854050 273.288635,119.565979 
	C268.191162,118.778076 263.093719,117.990181 257.081299,117.043716 
	C253.053146,117.068268 249.024994,117.092819 244.145462,117.013245 
	C240.711105,117.478340 237.276764,117.943436 232.996765,118.485573 
	C229.614700,119.294998 226.232635,120.104416 222.124161,120.939270 
	C219.701553,121.781364 217.278946,122.623466 214.107056,123.629074 
	C211.033478,125.062218 207.959885,126.495369 204.187088,127.954842 
	C201.739761,129.432480 199.292435,130.910126 196.193512,132.693085 
	C193.424622,134.685822 190.655716,136.678543 187.229538,138.901047 
	C184.199326,141.613098 181.169113,144.325134 177.518982,147.315140 
	C175.529831,149.556213 173.540695,151.797272 170.948227,154.410492 
	C168.011414,158.277939 165.074615,162.145386 161.648682,166.500565 
	C159.035324,170.494217 156.421967,174.487869 153.231705,178.878647 
	C149.442276,182.569290 145.652832,186.259949 141.227051,190.107254 
	C139.475159,191.377014 137.723251,192.646774 135.267197,194.017822 
	C133.180069,195.090240 131.092926,196.162674 128.251160,197.245712 
	C124.128273,198.427872 120.005386,199.610031 115.363785,200.940933 
	C115.363785,215.201965 115.327454,229.634674 115.476158,244.065460 
	C115.483246,244.753036 117.128098,245.423737 118.609596,246.531097 
	C126.383591,249.753738 134.157593,252.976379 142.263992,256.731903 
	C143.588425,257.629944 144.912842,258.528015 146.571762,260.021973 
	C148.335449,261.789673 150.099136,263.557404 152.022079,265.882507 
z"/>
<path fill="#5FC7F8" opacity="1.000000" stroke="none" 
	d="
M327.253174,293.091644 
	C316.180359,305.909424 302.434174,314.873199 286.279877,320.769012 
	C285.494904,318.452637 285.043701,316.508636 285.032532,314.562134 
	C284.950806,300.310822 284.957275,286.059021 285.105194,271.527435 
	C291.494873,264.242950 297.741669,257.261658 303.928619,250.227676 
	C310.986908,242.203049 317.991852,234.131531 325.014648,226.543976 
	C325.006195,247.301483 324.948151,267.595795 325.097748,287.888611 
	C325.110596,289.628174 326.502106,291.357544 327.253174,293.091644 
z"/>
<path fill="#61CFF8" opacity="1.000000" stroke="none" 
	d="
M327.543518,292.944183 
	C326.502106,291.357544 325.110596,289.628174 325.097748,287.888611 
	C324.948151,267.595795 325.006195,247.301483 325.161438,226.278107 
	C326.181488,224.721497 327.049408,223.894318 328.245361,222.949921 
	C333.402496,219.542953 338.231567,216.253204 343.401398,212.863205 
	C347.497345,211.236832 351.252502,209.710709 355.005920,208.641663 
	C355.002747,223.096970 354.937775,237.095749 355.064789,251.092789 
	C355.085144,253.333466 355.964569,255.566330 356.446838,257.802795 
	C349.357208,266.596741 342.287384,275.406769 335.166840,284.175568 
	C332.789276,287.103516 330.281891,289.926025 327.543518,292.944183 
z"/>
<path fill="#60BEF8" opacity="1.000000" stroke="none" 
	d="
M284.935913,271.807373 
	C284.957275,286.059021 284.950806,300.310822 285.032532,314.562134 
	C285.043701,316.508636 285.494904,318.452637 285.909729,320.797119 
	C273.892212,326.449036 261.091278,328.257660 247.463455,327.481720 
	C246.994965,312.334320 246.987488,297.725708 247.444763,283.075409 
	C255.223572,283.038879 262.599426,283.381348 269.502533,279.122986 
	C271.950317,278.149170 274.032349,277.198120 276.453674,276.167816 
	C278.560394,274.844940 280.327850,273.601379 282.459351,272.335266 
	C283.527557,272.144226 284.231750,271.975800 284.935913,271.807373 
z"/>
<path fill="#63D5F8" opacity="1.000000" stroke="none" 
	d="
M356.768311,257.658478 
	C355.964569,255.566330 355.085144,253.333466 355.064789,251.092789 
	C354.937775,237.095749 355.002747,223.096970 355.320679,208.439850 
	C363.444672,205.634705 371.252075,203.488480 379.059509,201.342255 
	C380.870728,201.342270 382.681915,201.342270 384.936890,201.342270 
	C384.936890,216.131454 384.936890,230.805420 384.936890,245.993073 
	C374.772461,247.377762 365.371429,251.148315 356.768311,257.658478 
z"/>
<path fill="#2050E4" opacity="1.000000" stroke="none" 
	d="
M274.002045,119.946747 
	C287.588776,122.854050 299.630646,129.040604 310.840515,137.876099 
	C307.253723,141.697433 303.480652,144.813629 299.856384,148.094193 
	C292.194275,155.029617 284.609955,162.050903 276.666473,168.997009 
	C275.222168,168.320099 274.105103,167.683151 273.037048,166.645691 
	C273.724060,162.030838 274.904205,157.815308 274.895111,153.602356 
	C274.870911,142.383224 274.334686,131.165207 274.002045,119.946747 
z"/>
<path fill="#2458E5" opacity="1.000000" stroke="none" 
	d="
M273.645325,119.756363 
	C274.334686,131.165207 274.870911,142.383224 274.895111,153.602356 
	C274.904205,157.815308 273.724060,162.030838 272.660461,166.597488 
	C267.109131,165.491211 261.983429,164.032654 257.003204,162.143372 
	C257.432434,159.775787 257.951141,157.840225 257.961945,155.901825 
	C258.034027,143.002319 257.997498,130.102203 257.996246,117.202278 
	C263.093719,117.990181 268.191162,118.778076 273.645325,119.756363 
z"/>
<path fill="#448CEF" opacity="1.000000" stroke="none" 
	d="
M200.994125,315.024902 
	C196.092438,311.915985 191.190735,308.807037 186.144470,304.980042 
	C186.333267,298.495789 187.383728,292.661285 186.841934,286.978577 
	C185.887360,276.966400 188.408417,268.431793 195.000198,260.952148 
	C196.520782,259.226746 197.825363,257.311005 199.495331,255.708435 
	C201.530777,258.287201 203.300186,260.640381 204.670685,263.005005 
	C203.181244,265.090912 201.182678,267.149170 201.145401,269.242371 
	C200.873596,284.499268 200.996155,299.763184 200.994125,315.024902 
z"/>
<path fill="#60D0F1" opacity="1.000000" stroke="none" 
	d="
M118.010254,246.102280 
	C117.128098,245.423737 115.483246,244.753036 115.476158,244.065460 
	C115.327454,229.634674 115.363785,215.201965 115.363785,200.940933 
	C120.005386,199.610031 124.128273,198.427872 128.627396,197.692963 
	C129.001465,213.346405 128.999298,228.552582 128.628204,243.908447 
	C124.842934,244.739517 121.426598,245.420898 118.010254,246.102280 
z"/>
<path fill="#4B97F1" opacity="1.000000" stroke="none" 
	d="
M201.209290,315.290527 
	C200.996155,299.763184 200.873596,284.499268 201.145401,269.242371 
	C201.182678,267.149170 203.181244,265.090912 204.861145,263.284363 
	C208.432175,266.088196 211.413864,268.624115 214.214325,271.600433 
	C213.688751,274.122589 213.058640,276.202576 213.046143,278.286285 
	C212.961090,292.477173 213.006058,306.668854 213.009033,320.860291 
	C209.147507,319.092224 205.285980,317.324158 201.209290,315.290527 
z"/>
<path fill="#4AA4F0" opacity="1.000000" stroke="none" 
	d="
M162.137802,166.012833 
	C165.074615,162.145386 168.011414,158.277939 171.440063,154.694885 
	C172.287918,157.234787 172.938492,159.488251 172.953964,161.746078 
	C173.092529,181.982666 173.119354,202.220032 173.028076,222.697815 
	C172.583817,223.608826 172.290512,224.279190 171.626938,224.953613 
	C168.844879,225.988892 166.433105,227.020096 164.014740,227.579468 
	C164.005417,208.391174 164.049347,189.674393 163.919128,170.958817 
	C163.907623,169.306107 162.758530,167.661301 162.137802,166.012833 
z"/>
<path fill="#51A1F3" opacity="1.000000" stroke="none" 
	d="
M213.320709,321.058838 
	C213.006058,306.668854 212.961090,292.477173 213.046143,278.286285 
	C213.058640,276.202576 213.688751,274.122589 214.592102,271.769592 
	C216.146530,271.957703 217.141953,272.417053 218.245880,273.139465 
	C220.145355,274.331818 221.936325,275.261139 223.881241,276.409332 
	C224.377823,277.030731 224.720474,277.433258 225.043884,278.314362 
	C225.018738,294.134766 225.012848,309.476532 225.006958,324.818329 
	C221.215439,323.631378 217.423920,322.444397 213.320709,321.058838 
z"/>
<path fill="#3E8CEC" opacity="1.000000" stroke="none" 
	d="
M187.886810,138.671265 
	C190.655716,136.678543 193.424622,134.685822 196.587891,133.007111 
	C197.321503,135.759918 197.935135,138.196350 197.955948,140.637833 
	C198.102997,157.886627 198.128311,175.136490 198.113190,192.708481 
	C195.652176,196.502289 193.270462,199.973633 190.480652,203.201233 
	C189.715057,201.066284 189.056503,199.176559 189.047211,197.283646 
	C188.965698,180.682510 189.053574,164.080475 188.949905,147.479599 
	C188.931564,144.541382 188.257874,141.607269 187.886810,138.671265 
z"/>
<path fill="#285FE7" opacity="1.000000" stroke="none" 
	d="
M257.538757,117.123001 
	C257.997498,130.102203 258.034027,143.002319 257.961945,155.901825 
	C257.951141,157.840225 257.432434,159.775787 256.554504,162.095947 
	C252.312042,162.411392 248.663727,162.343567 245.010864,161.789795 
	C245.003159,146.575043 245.000000,131.846207 244.996841,117.117371 
	C249.024994,117.092819 253.053146,117.068268 257.538757,117.123001 
z"/>
<path fill="#3D7FED" opacity="1.000000" stroke="none" 
	d="
M199.229340,255.482864 
	C197.825363,257.311005 196.520782,259.226746 195.000198,260.952148 
	C188.408417,268.431793 185.887360,276.966400 186.841934,286.978577 
	C187.383728,292.661285 186.333267,298.495789 185.974823,304.694214 
	C180.733246,300.264709 175.516785,295.402924 170.208588,289.847137 
	C171.457993,285.341492 172.257111,281.210205 174.270859,277.795166 
	C177.091980,273.010895 180.967194,268.862213 184.116669,264.253815 
	C187.725510,258.973175 191.033615,253.487015 194.715927,248.350922 
	C196.382767,250.902084 197.806061,253.192474 199.229340,255.482864 
z"/>
<path fill="#4294EE" opacity="1.000000" stroke="none" 
	d="
M187.558167,138.786163 
	C188.257874,141.607269 188.931564,144.541382 188.949905,147.479599 
	C189.053574,164.080475 188.965698,180.682510 189.047211,197.283646 
	C189.056503,199.176559 189.715057,201.066284 190.334442,203.526428 
	C187.407425,207.761642 184.218521,211.427902 181.019196,214.619720 
	C181.005814,194.352539 181.106995,174.558563 180.873276,154.768570 
	C180.842712,152.181046 179.092575,149.613815 178.138901,147.037186 
	C181.169113,144.325134 184.199326,141.613098 187.558167,138.786163 
z"/>
<path fill="#469CEF" opacity="1.000000" stroke="none" 
	d="
M177.828949,147.176163 
	C179.092575,149.613815 180.842712,152.181046 180.873276,154.768570 
	C181.106995,174.558563 181.005814,194.352539 180.884308,214.920227 
	C178.232895,217.949188 175.705963,220.203186 173.179031,222.457169 
	C173.119354,202.220032 173.092529,181.982666 172.953964,161.746078 
	C172.938492,159.488251 172.287918,157.234787 171.741714,154.508820 
	C173.540695,151.797272 175.529831,149.556213 177.828949,147.176163 
z"/>
<path fill="#4EACF2" opacity="1.000000" stroke="none" 
	d="
M161.893250,166.256699 
	C162.758530,167.661301 163.907623,169.306107 163.919128,170.958817 
	C164.049347,189.674393 164.005417,208.391174 163.816040,227.837158 
	C162.017395,229.943756 160.410812,231.320816 158.595154,232.757568 
	C158.386078,232.817230 157.998093,233.013596 157.679565,233.017822 
	C156.567780,233.285904 155.774521,233.549789 154.986481,233.356720 
	C154.994461,217.006805 155.043976,201.113556 154.946945,185.221207 
	C154.933212,182.972412 154.205734,180.727982 153.808594,178.481522 
	C156.421967,174.487869 159.035324,170.494217 161.893250,166.256699 
z"/>
<path fill="#54B8F3" opacity="1.000000" stroke="none" 
	d="
M153.520142,178.680084 
	C154.205734,180.727982 154.933212,182.972412 154.946945,185.221207 
	C155.043976,201.113556 154.994461,217.006805 154.643616,233.475906 
	C151.202194,235.385376 148.108856,236.718689 145.010727,237.580109 
	C145.003860,222.820770 144.987473,208.533325 145.014328,194.245956 
	C145.018600,191.971283 145.162186,189.737045 141.863403,189.950592 
	C145.652832,186.259949 149.442276,182.569290 153.520142,178.680084 
z"/>
<path fill="#3A84EB" opacity="1.000000" stroke="none" 
	d="
M198.192474,192.385986 
	C198.128311,175.136490 198.102997,157.886627 197.955948,140.637833 
	C197.935135,138.196350 197.321503,135.759918 196.913681,132.854462 
	C199.292435,130.910126 201.739761,129.432480 204.839417,128.196686 
	C205.994492,131.999359 206.880112,135.554535 206.932510,139.121979 
	C207.139191,153.192245 207.084229,167.266342 206.976242,181.620895 
	C203.948257,185.397171 201.070358,188.891586 198.192474,192.385986 
z"/>
<path fill="#56AAF5" opacity="1.000000" stroke="none" 
	d="
M225.373703,324.966827 
	C225.012848,309.476532 225.018738,294.134766 225.411591,278.394409 
	C228.193573,278.695648 230.588547,279.395416 233.177460,280.330872 
	C234.256699,281.017456 235.141983,281.468323 236.018677,282.392853 
	C236.008652,297.528595 236.007187,312.190704 236.005722,326.852783 
	C232.583969,326.273621 229.162216,325.694458 225.373703,324.966827 
z"/>
<path fill="#2B66E8" opacity="1.000000" stroke="none" 
	d="
M244.571152,117.065308 
	C245.000000,131.846207 245.003159,146.575043 244.664124,161.936066 
	C240.878326,163.284393 237.434738,164.000519 233.993439,164.265747 
	C233.944626,148.679428 233.893509,133.543976 233.842407,118.408539 
	C237.276764,117.943436 240.711105,117.478340 244.571152,117.065308 
z"/>
<path fill="#5CB3F7" opacity="1.000000" stroke="none" 
	d="
M236.403000,326.970123 
	C236.007187,312.190704 236.008652,297.528595 236.436462,282.407166 
	C240.235229,282.337555 243.607620,282.727325 246.980026,283.117096 
	C246.987488,297.725708 246.994965,312.334320 247.004532,327.402283 
	C243.604507,327.603577 240.202393,327.345520 236.403000,326.970123 
z"/>
<path fill="#131E56" opacity="1.000000" stroke="none" 
	d="
M379.006287,200.960571 
	C371.252075,203.488480 363.444672,205.634705 355.322449,207.982758 
	C351.252502,209.710709 347.497345,211.236832 342.931152,212.834076 
	C338.078339,212.948929 334.036560,212.992661 330.029236,212.687103 
	C335.327332,207.916061 340.688324,203.603668 345.821167,199.034912 
	C349.381714,195.865646 352.628113,192.343430 356.014862,188.978897 
	C357.355042,189.497650 358.740570,189.923477 360.027252,190.551788 
	C364.746918,192.856506 369.454834,195.187653 374.121674,197.596985 
	C375.798370,198.462631 377.346344,199.577667 379.006287,200.960571 
z"/>
<path fill="#3274E9" opacity="1.000000" stroke="none" 
	d="
M214.856354,123.465576 
	C217.278946,122.623466 219.701553,121.781364 222.847778,121.125183 
	C224.047607,123.144806 224.919876,124.974854 224.936874,126.812813 
	C225.064331,140.583359 225.022934,154.355484 224.820267,168.383179 
	C221.433899,170.513596 218.261673,172.387939 215.062897,173.777847 
	C214.976364,156.684128 214.916367,140.074860 214.856354,123.465576 
z"/>
<path fill="#59C3F5" opacity="1.000000" stroke="none" 
	d="
M141.545227,190.028931 
	C145.162186,189.737045 145.018600,191.971283 145.014328,194.245956 
	C144.987473,208.533325 145.003860,222.820770 144.774750,237.834137 
	C141.688141,239.618698 138.832764,240.677307 135.982849,241.283844 
	C135.982666,225.193375 135.977005,209.554962 135.971359,193.916550 
	C137.723251,192.646774 139.475159,191.377014 141.545227,190.028931 
z"/>
<path fill="#367CEA" opacity="1.000000" stroke="none" 
	d="
M214.481705,123.547325 
	C214.916367,140.074860 214.976364,156.684128 214.887848,174.048401 
	C212.201675,176.981934 209.664017,179.160477 207.126343,181.339020 
	C207.084229,167.266342 207.139191,153.192245 206.932510,139.121979 
	C206.880112,135.554535 205.994492,131.999359 205.189026,128.183533 
	C207.959885,126.495369 211.033478,125.062218 214.481705,123.547325 
z"/>
<path fill="#2F6DE9" opacity="1.000000" stroke="none" 
	d="
M225.034409,168.127106 
	C225.022934,154.355484 225.064331,140.583359 224.936874,126.812813 
	C224.919876,124.974854 224.047607,123.144806 223.210999,121.112465 
	C226.232635,120.104416 229.614700,119.294998 233.419586,118.447052 
	C233.893509,133.543976 233.944626,148.679428 233.652924,164.420883 
	C230.551529,166.060303 227.792969,167.093689 225.034409,168.127106 
z"/>
<path fill="#132164" opacity="1.000000" stroke="none" 
	d="
M355.972290,188.639801 
	C352.628113,192.343430 349.381714,195.865646 345.821167,199.034912 
	C340.688324,203.603668 335.327332,207.916061 329.620880,212.708572 
	C325.788300,212.035843 322.398529,210.992371 319.013458,209.589401 
	C323.648834,205.168091 328.221832,201.038101 332.925049,197.062057 
	C338.575623,192.285065 344.337006,187.639160 350.050446,182.936508 
	C352.010223,184.724579 353.969971,186.512650 355.972290,188.639801 
z"/>
<path fill="#3671EB" opacity="1.000000" stroke="none" 
	d="
M194.472382,248.090149 
	C191.033615,253.487015 187.725510,258.973175 184.116669,264.253815 
	C180.967194,268.862213 177.091980,273.010895 174.270859,277.795166 
	C172.257111,281.210205 171.457993,285.341492 170.072540,289.540894 
	C167.330292,286.536957 164.632355,283.145264 162.229309,279.387573 
	C163.270538,278.745178 164.331039,278.695068 164.717026,278.159149 
	C173.285294,266.263000 181.779083,254.313171 190.518066,242.643890 
	C191.990204,244.639542 193.231293,246.364838 194.472382,248.090149 
z"/>
<path fill="#132471" opacity="1.000000" stroke="none" 
	d="
M349.895081,182.648376 
	C344.337006,187.639160 338.575623,192.285065 332.925049,197.062057 
	C328.221832,201.038101 323.648834,205.168091 318.664795,209.486679 
	C316.901001,209.526901 315.490601,209.310379 313.966736,208.826935 
	C313.566010,208.059647 313.278748,207.559265 312.964172,206.708588 
	C313.516785,204.532516 313.539276,202.055496 314.775909,200.997025 
	C319.423126,197.019409 324.534027,193.590240 329.342804,189.792984 
	C334.651764,185.600739 339.819672,181.229874 345.048981,176.936798 
	C346.612579,178.744614 348.176147,180.552444 349.895081,182.648376 
z"/>
<path fill="#61CFF8" opacity="1.000000" stroke="none" 
	d="
M135.619278,193.967194 
	C135.977005,209.554962 135.982666,225.193375 135.642853,241.429794 
	C133.197311,242.604782 131.097214,243.181763 128.997131,243.758759 
	C128.999298,228.552582 129.001465,213.346405 129.004715,197.687653 
	C131.092926,196.162674 133.180069,195.090240 135.619278,193.967194 
z"/>
<path fill="#1634A1" opacity="1.000000" stroke="none" 
	d="
M330.217285,155.904785 
	C331.821747,157.703705 333.426208,159.502640 334.739746,161.671173 
	C332.765076,163.068985 330.987915,163.971817 329.412842,165.145752 
	C319.212891,172.747940 309.056976,180.409164 298.603027,187.893585 
	C296.817688,185.853775 295.315948,183.971420 294.178833,182.037537 
	C296.094818,181.095200 297.757660,180.353394 299.179749,179.289719 
	C309.552765,171.531067 319.877380,163.707703 330.217285,155.904785 
z"/>
<path fill="#1432E2" opacity="1.000000" stroke="none" 
	d="
M128.628204,243.908447 
	C131.097214,243.181763 133.197311,242.604782 135.637390,241.881866 
	C138.832764,240.677307 141.688141,239.618698 144.779510,238.306061 
	C148.108856,236.718689 151.202194,235.385376 154.638397,233.932861 
	C155.774521,233.549789 156.567780,233.285904 157.678024,233.398834 
	C157.076965,235.603104 156.407257,237.617798 155.196152,239.224304 
	C150.874023,244.957489 146.367996,250.552017 141.931580,256.199036 
	C134.157593,252.976379 126.383591,249.753738 118.309921,246.316681 
	C121.426598,245.420898 124.842934,244.739517 128.628204,243.908447 
z"/>
<path fill="#142C88" opacity="1.000000" stroke="none" 
	d="
M338.032288,165.985840 
	C339.006836,167.410599 339.981415,168.835358 340.953247,170.943558 
	C340.299744,172.547363 339.823944,173.695541 338.970062,174.351578 
	C332.856934,179.048126 326.562775,183.513809 320.534729,188.314743 
	C315.859711,192.038086 311.486542,196.140488 306.686218,199.907440 
	C304.963562,197.487045 303.533875,195.233582 302.445953,192.943832 
	C314.535889,183.933640 326.284088,174.959732 338.032288,165.985840 
z"/>
<path fill="#2F64EA" opacity="1.000000" stroke="none" 
	d="
M190.287018,242.373535 
	C181.779083,254.313171 173.285294,266.263000 164.717026,278.159149 
	C164.331039,278.695068 163.270538,278.745178 162.142456,279.044067 
	C160.810684,277.720764 159.860626,276.374939 159.001602,274.380432 
	C167.728470,262.153046 176.364304,250.574371 185.399200,238.990829 
	C186.330551,238.954102 186.862823,238.922241 187.656448,239.031342 
	C188.707520,240.239395 189.497269,241.306458 190.287018,242.373535 
z"/>
<path fill="#14287D" opacity="1.000000" stroke="none" 
	d="
M306.979187,200.074371 
	C311.486542,196.140488 315.859711,192.038086 320.534729,188.314743 
	C326.562775,183.513809 332.856934,179.048126 338.970062,174.351578 
	C339.823944,173.695541 340.299744,172.547363 341.000397,171.271774 
	C342.346985,172.701416 343.643738,174.486313 344.994751,176.604004 
	C339.819672,181.229874 334.651764,185.600739 329.342804,189.792984 
	C324.534027,193.590240 319.423126,197.019409 314.775909,200.997025 
	C313.539276,202.055496 313.516785,204.532516 312.627197,206.644836 
	C310.538086,204.645737 308.758636,202.360046 306.979187,200.074371 
z"/>
<path fill="#193EBC" opacity="1.000000" stroke="none" 
	d="
M320.974792,146.050919 
	C322.224915,147.174744 323.475067,148.298569 324.826050,150.056458 
	C324.039825,151.849609 323.349304,153.263062 322.233093,154.125656 
	C315.986542,158.952881 309.662018,163.680695 303.314362,168.375214 
	C298.851379,171.675858 294.309113,174.869324 289.482666,178.058136 
	C287.713440,176.703445 286.263794,175.401291 285.174500,174.043213 
	C292.444092,168.742432 299.416687,163.578369 306.241455,158.225861 
	C311.252930,154.295502 316.070709,150.118179 320.974792,146.050919 
z"/>
<path fill="#153095" opacity="1.000000" stroke="none" 
	d="
M337.988770,165.665466 
	C326.284088,174.959732 314.535889,183.933640 302.262390,192.671371 
	C300.786926,190.973816 299.836792,189.512421 298.886627,188.051041 
	C309.056976,180.409164 319.212891,172.747940 329.412842,165.145752 
	C330.987915,163.971817 332.765076,163.068985 334.818054,162.000748 
	C336.106659,163.088852 337.025970,164.216980 337.988770,165.665466 
z"/>
<path fill="#1D48D7" opacity="1.000000" stroke="none" 
	d="
M276.993713,169.036987 
	C284.609955,162.050903 292.194275,155.029617 299.856384,148.094193 
	C303.480652,144.813629 307.253723,141.697433 311.025574,138.152466 
	C312.646301,138.944870 314.200806,140.091583 315.868347,141.877441 
	C315.680420,143.095764 315.524445,143.859055 315.057159,144.227142 
	C303.619080,153.237793 292.147919,162.206482 280.385803,171.098999 
	C279.057159,170.355865 278.025421,169.696426 276.993713,169.036987 
z"/>
<path fill="#1839AF" opacity="1.000000" stroke="none" 
	d="
M289.802277,178.110672 
	C294.309113,174.869324 298.851379,171.675858 303.314362,168.375214 
	C309.662018,163.680695 315.986542,158.952881 322.233093,154.125656 
	C323.349304,153.263062 324.039825,151.849609 324.964233,150.343613 
	C326.668793,151.754074 328.335999,153.511429 330.110260,155.586792 
	C319.877380,163.707703 309.552765,171.531067 299.179749,179.289719 
	C297.757660,180.353394 296.094818,181.095200 293.905731,181.888596 
	C292.112793,180.564331 290.957520,179.337509 289.802277,178.110672 
z"/>
<path fill="#1B43C9" opacity="1.000000" stroke="none" 
	d="
M280.682709,171.182678 
	C292.147919,162.206482 303.619080,153.237793 315.057159,144.227142 
	C315.524445,143.859055 315.680420,143.095764 316.040527,142.151978 
	C317.624634,143.012634 319.149628,144.237900 320.824707,145.757034 
	C316.070709,150.118179 311.252930,154.295502 306.241455,158.225861 
	C299.416687,163.578369 292.444092,168.742432 284.855713,174.003876 
	C283.011902,173.074539 281.847290,172.128616 280.682709,171.182678 
z"/>
<path fill="#2458E5" opacity="1.000000" stroke="none" 
	d="
M185.000122,238.995667 
	C176.364304,250.574371 167.728470,262.153046 158.933319,274.070435 
	C157.419815,272.580688 156.065643,270.752258 154.930298,268.449097 
	C160.104599,262.304932 165.292740,256.818451 169.941620,250.907837 
	C173.635483,246.211426 176.669830,240.996277 180.337311,236.040131 
	C182.118469,237.044434 183.559296,238.020050 185.000122,238.995667 
z"/>
<path fill="#1F46E8" opacity="1.000000" stroke="none" 
	d="
M151.862823,265.325104 
	C150.099136,263.557404 148.335449,261.789673 146.784592,259.548248 
	C151.706726,253.631760 156.518845,248.273422 161.084732,242.712891 
	C163.606491,239.641785 165.715347,236.231628 168.425110,232.972198 
	C171.223785,233.332596 173.607712,233.695084 175.990173,234.419312 
	C175.425720,235.919510 175.079758,237.252350 174.263336,238.163757 
	C170.096329,242.815506 165.610321,247.194077 161.621063,251.988663 
	C158.104767,256.214874 155.095810,260.863190 151.862823,265.325104 
z"/>
<path fill="#1A3CE6" opacity="1.000000" stroke="none" 
	d="
M168.010345,232.974304 
	C165.715347,236.231628 163.606491,239.641785 161.084732,242.712891 
	C156.518845,248.273422 151.706726,253.631760 146.617340,259.250305 
	C144.912842,258.528015 143.588425,257.629944 142.097778,256.465454 
	C146.367996,250.552017 150.874023,244.957489 155.196152,239.224304 
	C156.407257,237.617798 157.076965,235.603104 157.996552,233.394623 
	C157.998093,233.013596 158.386078,232.817230 159.017731,232.850845 
	C162.436371,232.914398 165.223358,232.944351 168.010345,232.974304 
z"/>
<path fill="#2050E4" opacity="1.000000" stroke="none" 
	d="
M151.942444,265.603821 
	C155.095810,260.863190 158.104767,256.214874 161.621063,251.988663 
	C165.610321,247.194077 170.096329,242.815506 174.263336,238.163757 
	C175.079758,237.252350 175.425720,235.919510 176.300354,234.528030 
	C177.740356,234.853821 178.868683,235.432632 179.997009,236.011444 
	C176.669830,240.996277 173.635483,246.211426 169.941620,250.907837 
	C165.292740,256.818451 160.104599,262.304932 154.791351,268.135071 
	C153.629715,267.491302 152.825897,266.686920 151.942444,265.603821 
z"/>
<path fill="#14143A" opacity="1.000000" stroke="none" 
	d="
M280.385803,171.098999 
	C281.847290,172.128616 283.011902,173.074539 284.495331,174.059814 
	C286.263794,175.401291 287.713440,176.703445 289.482666,178.058136 
	C290.957520,179.337509 292.112793,180.564331 293.541138,181.940109 
	C295.315948,183.971420 296.817688,185.853775 298.603027,187.893585 
	C299.836792,189.512421 300.786926,190.973816 301.920654,192.707657 
	C303.533875,195.233582 304.963562,197.487045 306.686218,199.907440 
	C308.758636,202.360046 310.538086,204.645737 312.654480,206.995148 
	C313.278748,207.559265 313.566010,208.059647 314.060242,209.138245 
	C318.817261,214.166687 323.367279,218.616913 327.917328,223.067139 
	C327.049408,223.894318 326.181488,224.721497 325.166779,225.814529 
	C317.991852,234.131531 310.986908,242.203049 303.928619,250.227676 
	C297.741669,257.261658 291.494873,264.242950 285.105194,271.527435 
	C284.231750,271.975800 283.527557,272.144226 282.282104,272.155212 
	C281.476501,271.762604 281.168243,271.659943 280.634460,271.390381 
	C278.719635,270.018555 276.986237,268.946136 275.037842,267.594238 
	C258.344635,258.669739 241.953720,258.167114 225.350372,267.873230 
	C223.658981,268.882080 222.289124,269.859222 220.601959,270.976074 
	C219.568909,271.702637 218.853149,272.289520 218.137390,272.876404 
	C217.141953,272.417053 216.146530,271.957703 214.773315,271.329163 
	C211.413864,268.624115 208.432175,266.088196 205.260056,263.272949 
	C203.300186,260.640381 201.530777,258.287201 199.495346,255.708435 
	C197.806061,253.192474 196.382767,250.902084 194.715927,248.350922 
	C193.231293,246.364838 191.990204,244.639542 190.518066,242.643890 
	C189.497269,241.306458 188.707520,240.239395 187.504349,238.716858 
	C182.059677,233.824127 177.028442,229.386826 171.997208,224.949524 
	C172.290512,224.279190 172.583817,223.608826 173.028076,222.697815 
	C175.705963,220.203186 178.232895,217.949188 180.894714,215.394684 
	C184.218521,211.427902 187.407425,207.761642 190.742538,203.770172 
	C193.270462,199.973633 195.652176,196.502289 198.113190,192.708466 
	C201.070358,188.891586 203.948257,185.397171 206.976242,181.620895 
	C209.664017,179.160477 212.201675,176.981934 214.914383,174.532837 
	C218.261673,172.387939 221.433899,170.513596 224.820267,168.383179 
	C227.792969,167.093689 230.551529,166.060303 233.650604,164.871765 
	C237.434738,164.000519 240.878326,163.284393 244.668671,162.421997 
	C248.663727,162.343567 252.312042,162.411392 256.409058,162.526657 
	C261.983429,164.032654 267.109131,165.491211 272.611450,166.997986 
	C274.105103,167.683151 275.222168,168.320099 276.666473,168.997009 
	C278.025421,169.696426 279.057159,170.355865 280.385803,171.098999 
M238.047119,241.800293 
	C246.570526,246.374039 254.991302,246.954529 263.886841,240.964645 
	C265.594971,238.978821 267.303101,236.992996 269.376160,234.389664 
	C270.637787,229.934662 272.817566,225.510986 272.970856,221.018158 
	C273.295197,211.511383 266.244690,203.064087 257.027008,200.462692 
	C247.003342,197.633835 236.886139,201.315704 231.166504,209.873932 
	C225.984879,217.627136 226.414566,228.558777 232.344025,236.614578 
	C234.113327,238.138245 235.882645,239.661911 238.047119,241.800293 
z"/>
<path fill="#1D48D7" opacity="1.000000" stroke="none" 
	d="
M328.245361,222.949921 
	C323.367279,218.616913 318.817261,214.166687 314.173706,209.405151 
	C315.490601,209.310379 316.901001,209.526901 318.660095,209.846161 
	C322.398529,210.992371 325.788300,212.035843 329.586426,213.057861 
	C334.036560,212.992661 338.078339,212.948929 342.590393,212.934326 
	C338.231567,216.253204 333.402496,219.542953 328.245361,222.949921 
z"/>
<path fill="#C0F1FA" opacity="1.000000" stroke="none" 
	d="
M218.245880,273.139465 
	C218.853149,272.289520 219.568909,271.702637 220.882874,271.299438 
	C241.259354,271.552002 261.037659,271.620880 280.815948,271.689758 
	C281.168243,271.659943 281.476501,271.762604 281.918030,272.177765 
	C280.327850,273.601379 278.560394,274.844940 276.176422,275.822510 
	C274.934448,275.377075 274.309357,275.042389 273.683502,275.040985 
	C258.443420,275.006989 243.203094,274.977234 227.963348,275.055359 
	C226.549438,275.062592 225.139236,275.794861 223.727310,276.190491 
	C221.936325,275.261139 220.145355,274.331818 218.245880,273.139465 
z"/>
<path fill="#B0EFFC" opacity="1.000000" stroke="none" 
	d="
M223.881241,276.409363 
	C225.139236,275.794861 226.549438,275.062592 227.963348,275.055359 
	C243.203094,274.977234 258.443420,275.006989 273.683502,275.040985 
	C274.309357,275.042389 274.934448,275.377075 275.837158,275.901794 
	C274.032349,277.198120 271.950317,278.149170 269.112823,278.924408 
	C257.159668,278.525452 245.962250,278.271393 234.763428,278.166534 
	C234.176208,278.161041 233.577103,279.423187 232.983521,280.095154 
	C230.588547,279.395416 228.193573,278.695648 225.430862,277.915833 
	C224.720474,277.433258 224.377823,277.030731 223.881241,276.409363 
z"/>
<path fill="#9BEAFB" opacity="1.000000" stroke="none" 
	d="
M233.177460,280.330872 
	C233.577103,279.423187 234.176208,278.161041 234.763428,278.166534 
	C245.962250,278.271393 257.159668,278.525452 268.747070,278.947205 
	C262.599426,283.381348 255.223572,283.038879 247.444763,283.075409 
	C243.607620,282.727325 240.235229,282.337555 236.445038,281.933502 
	C235.141983,281.468323 234.256699,281.017456 233.177460,280.330872 
z"/>
<path fill="#3274E9" opacity="1.000000" stroke="none" 
	d="
M171.626938,224.953613 
	C177.028442,229.386826 182.059677,233.824127 187.243011,238.575897 
	C186.862823,238.922241 186.330551,238.954102 185.399200,238.990814 
	C183.559296,238.020050 182.118469,237.044434 180.337326,236.040131 
	C178.868683,235.432632 177.740356,234.853821 176.301834,234.166290 
	C173.607712,233.695084 171.223785,233.332596 168.425095,232.972198 
	C165.223358,232.944351 162.436371,232.914398 159.226822,232.791168 
	C160.410812,231.320816 162.017395,229.943756 163.822647,228.308990 
	C166.433105,227.020096 168.844879,225.988892 171.626938,224.953613 
z"/>
<path fill="#FCFCFD" opacity="1.000000" stroke="none" 
	d="
M232.192947,235.988510 
	C226.414566,228.558777 225.984879,217.627136 231.166504,209.873932 
	C236.886139,201.315704 247.003342,197.633835 257.027008,200.462692 
	C266.244690,203.064087 273.295197,211.511383 272.970856,221.018158 
	C272.817566,225.510986 270.637787,229.934662 268.795288,234.697174 
	C266.942596,234.730835 265.569611,234.676926 264.416046,234.146133 
	C258.589020,231.464874 252.683517,229.952606 246.277176,231.930283 
	C241.609650,233.371185 236.889587,234.641922 232.192947,235.988510 
z"/>
<path fill="#E0F5FA" opacity="1.000000" stroke="none" 
	d="
M225.671906,267.841522 
	C241.953720,258.167114 258.344635,258.669739 274.635925,267.765411 
	C273.503571,268.472626 272.558929,268.949158 271.612488,268.952667 
	C257.715698,269.004333 243.818451,269.026245 229.921951,268.946045 
	C228.503204,268.937866 227.088486,268.226562 225.671906,267.841522 
z"/>
<path fill="#E0F5FA" opacity="1.000000" stroke="none" 
	d="
M232.268494,236.301544 
	C236.889587,234.641922 241.609650,233.371185 246.277176,231.930283 
	C252.683517,229.952606 258.589020,231.464874 264.416046,234.146133 
	C265.569611,234.676926 266.942596,234.730835 268.612793,235.005920 
	C267.303101,236.992996 265.594971,238.978821 263.216400,240.898254 
	C254.176895,235.949081 245.905609,237.947464 237.651947,241.185577 
	C235.882645,239.661911 234.113327,238.138245 232.268494,236.301544 
z"/>
<path fill="#CEF4FC" opacity="1.000000" stroke="none" 
	d="
M225.350372,267.873230 
	C227.088486,268.226562 228.503204,268.937866 229.921951,268.946045 
	C243.818451,269.026245 257.715698,269.004333 271.612488,268.952667 
	C272.558929,268.949158 273.503571,268.472626 274.850952,268.044922 
	C276.986237,268.946136 278.719635,270.018555 280.634460,271.390381 
	C261.037659,271.620880 241.259354,271.552002 221.200165,271.159729 
	C222.289124,269.859222 223.658981,268.882080 225.350372,267.873230 
z"/>
<path fill="#B0EFFC" opacity="1.000000" stroke="none" 
	d="
M237.849533,241.492935 
	C245.905609,237.947464 254.176895,235.949081 262.897003,240.992218 
	C254.991302,246.954529 246.570526,246.374039 237.849533,241.492935 
z"/>
</svg>