<svg version="1.1" id="Layer_1" xmlns="http://www.w3.org/2000/svg" xmlns:xlink="http://www.w3.org/1999/xlink" x="0px" y="0px"
	 width="100%" viewBox="0 0 1201 330" enable-background="new 0 0 1201 330" xml:space="preserve">
<path fill="#FFFFFF" opacity="1.000000" stroke="none" 
	d="
M860.000000,331.000000 
	C573.333313,331.000000 287.166656,331.000000 1.000000,331.000000 
	C1.000000,221.000000 1.000000,111.000000 1.000000,1.000000 
	C401.333344,1.000000 801.666687,1.000000 1202.000000,1.000000 
	C1202.000000,111.000000 1202.000000,221.000000 1202.000000,331.000000 
	C1088.166626,331.000000 974.333313,331.000000 860.000000,331.000000 
M173.023193,165.725220 
	C173.643707,168.164062 174.264206,170.602890 174.993011,173.732788 
	C175.995651,175.099640 176.998306,176.466507 178.670074,178.156143 
	C181.001038,178.810196 183.297089,179.820801 185.669357,180.053040 
	C193.550049,180.824509 196.519852,175.841721 197.977173,168.624359 
	C197.687805,168.067154 197.398422,167.509949 197.014374,166.180161 
	C195.357849,163.416183 193.701324,160.652206 191.805374,157.322372 
	C191.217438,157.176437 190.629501,157.030487 189.613235,156.188004 
	C187.408997,156.180893 185.204758,156.173767 182.289276,156.030487 
	C180.843872,156.650513 179.398483,157.270538 177.315414,158.174500 
	C176.266037,159.404480 175.216660,160.634460 173.971863,162.413727 
	C173.703461,163.275970 173.435059,164.138214 173.023193,165.725220 
M163.410004,237.064301 
	C169.225418,239.510910 174.945480,242.237030 180.902267,244.269257 
	C183.352097,245.105057 186.537628,245.149704 189.003754,244.357101 
	C209.313965,237.829376 226.523987,226.676743 240.398178,210.222580 
	C255.153488,192.723434 262.679810,172.410950 263.812500,149.957077 
	C264.734802,131.674713 263.939392,113.308357 264.064056,94.980324 
	C264.083191,92.164169 263.262451,90.577827 260.762756,89.147469 
	C236.263824,75.128754 211.867599,60.930340 187.339218,46.963894 
	C186.083542,46.248920 183.601654,46.656288 182.177841,47.433521 
	C172.213852,52.872704 162.346909,58.492702 152.508713,64.158638 
	C137.600998,72.744179 122.720581,81.378067 107.909805,90.128899 
	C106.923050,90.711914 106.124054,92.438690 106.085419,93.660301 
	C105.898338,99.575417 106.001038,105.499702 106.001038,112.309845 
	C113.787048,107.772926 120.903610,103.613594 128.032104,99.474823 
	C144.728271,89.781105 161.506897,80.225777 178.081772,70.329079 
	C182.897583,67.453613 186.860321,67.274239 191.770035,70.217850 
	C208.326126,80.144005 225.077423,89.747780 241.850433,99.305740 
	C244.753204,100.959869 246.132568,102.717064 246.081879,106.226463 
	C245.882156,120.053558 246.308273,133.894318 245.901077,147.712296 
	C245.583313,158.495743 242.964523,168.926910 238.604691,178.843246 
	C229.105637,200.448654 212.412338,214.550232 191.397690,224.239441 
	C187.243973,226.154602 183.332291,226.577805 179.221329,224.661743 
	C168.527588,219.677582 158.514221,213.544479 149.982346,205.387085 
	C136.362839,192.365417 128.437790,176.189865 125.051872,157.749405 
	C123.125229,147.256439 123.495499,147.175720 132.268967,142.233139 
	C149.651505,132.440613 166.866852,122.350822 184.114120,112.319977 
	C184.925598,111.848038 185.894592,110.769867 185.914230,109.952972 
	C186.064240,103.713966 185.996490,97.469734 185.996490,90.750175 
	C184.447281,91.375763 183.520615,91.629150 182.714996,92.092827 
	C158.105347,106.256981 133.478195,120.391579 108.978966,134.744537 
	C107.463310,135.632492 106.083214,138.299698 106.154091,140.078766 
	C106.454086,147.608185 107.093468,155.144165 108.034843,162.624130 
	C110.675568,183.606369 120.310341,201.444778 135.002991,216.078033 
	C143.109528,224.151794 153.371140,230.061722 163.410004,237.064301 
M717.080017,127.405754 
	C714.861877,129.187332 712.643738,130.968887 709.812378,133.242966 
	C709.812378,127.643265 709.812378,122.900688 709.812378,118.080048 
	C705.528015,119.008202 701.627563,120.277740 697.650269,120.600571 
	C693.296265,120.953972 692.926270,123.186134 692.932373,126.808090 
	C693.028625,183.968674 693.000000,241.129456 693.000000,298.290192 
	C693.000000,299.739594 693.000000,301.188995 693.000000,302.757629 
	C698.859802,302.757629 704.261169,302.757629 710.053711,302.757629 
	C710.053711,281.839264 710.053711,261.159271 710.053711,240.474976 
	C722.349182,243.658203 734.019592,247.086319 746.803711,245.203003 
	C760.057495,243.250488 771.533936,238.081024 780.558411,228.670319 
	C791.809082,216.938217 797.037354,202.029068 797.856384,185.998199 
	C798.719604,169.103790 795.414795,152.949173 784.973572,139.024475 
	C776.760010,128.070648 765.548645,121.724991 752.105530,120.127525 
	C740.067749,118.697052 728.297058,120.284431 717.080017,127.405754 
M372.950226,205.556763 
	C371.124542,202.702118 368.860657,200.035263 367.543915,196.962524 
	C358.622620,176.144348 357.306610,154.802505 364.054474,133.136505 
	C369.207611,116.590988 379.253723,104.226944 395.319092,96.886665 
	C404.490723,92.696136 413.921753,91.713608 423.859436,91.847252 
	C433.301971,91.974251 442.261169,93.760513 450.939178,97.094376 
	C456.148132,99.095512 461.093109,101.783844 466.642853,104.391769 
	C467.854645,100.626938 468.503082,96.895950 470.209717,93.736626 
	C472.431366,89.624046 471.036530,87.702187 467.339905,86.025711 
	C447.562744,77.056419 427.208405,73.044083 405.409454,76.860092 
	C390.540833,79.462906 377.627441,85.657516 366.855011,95.817642 
	C350.419037,111.319374 343.710571,131.491653 342.129761,153.394714 
	C340.993866,169.132965 342.949615,184.643127 348.972504,199.478119 
	C357.171204,219.672577 371.205994,233.959198 391.897888,240.884689 
	C403.920074,244.908463 416.279297,246.676590 429.313690,245.273499 
	C442.589203,243.844452 455.036804,240.686523 466.765015,234.548050 
	C468.180817,233.807037 469.929504,231.727264 469.823792,230.403778 
	C469.417389,225.316360 468.319000,220.284210 467.367584,214.563370 
	C451.981720,224.997910 435.856232,230.210846 418.006805,229.485886 
	C399.411224,228.730621 384.584229,220.686691 372.950226,205.556763 
M985.994629,222.506958 
	C975.125305,227.679977 963.858765,230.404068 951.671814,229.065262 
	C939.450623,227.722717 929.829468,222.007629 923.537598,211.764526 
	C918.265808,203.182220 914.503418,193.756134 916.429810,183.000778 
	C917.563660,183.000778 918.388123,183.000778 919.212646,183.000763 
	C943.211060,183.000504 967.209656,182.945969 991.207520,183.061035 
	C994.636353,183.077469 996.453979,182.562820 997.144165,178.566116 
	C998.631958,169.950546 999.795105,161.437195 998.009583,152.737259 
	C996.163452,143.742355 992.512207,135.519180 985.667114,129.428085 
	C976.767456,121.508797 965.944885,118.797104 953.998474,118.889824 
	C929.925415,119.076706 910.877197,133.782227 902.912903,155.942184 
	C897.679810,170.502579 896.628784,185.190308 899.984924,200.266510 
	C903.747986,217.171005 912.213867,230.760986 927.883606,238.913956 
	C939.100891,244.750320 950.957886,246.755112 963.801086,245.231018 
	C975.010986,243.900742 985.330872,240.945679 995.103516,235.301544 
	C993.921936,230.051437 992.778015,224.968811 991.528625,219.417282 
	C989.416443,220.556229 988.023987,221.307083 985.994629,222.506958 
M644.048035,168.598434 
	C638.022766,184.861877 631.997498,201.125336 625.972229,217.388779 
	C622.073486,210.613373 619.462463,204.269135 617.035339,197.855331 
	C607.882874,173.670166 598.825317,149.448959 589.583069,125.298325 
	C589.062500,123.938118 587.265320,122.240059 585.962585,122.150635 
	C580.720276,121.790733 575.438843,122.001617 570.180603,122.001617 
	C570.103882,122.997063 569.888123,123.562485 570.052979,123.976318 
	C584.024719,159.060776 598.069336,194.116318 611.966309,229.230301 
	C613.578979,233.305283 616.301575,238.291092 615.207947,241.836075 
	C611.811951,252.843994 607.342712,263.611328 602.319946,274.003235 
	C596.474976,286.096283 590.618958,289.076141 580.807373,287.832916 
	C575.864990,287.206635 571.138245,284.877747 565.833069,283.163330 
	C564.151367,288.198975 562.449341,293.295563 560.773804,298.312683 
	C570.921936,303.833221 581.290833,305.204285 592.001953,303.462830 
	C605.605774,301.250977 612.832703,290.987640 617.746033,279.858032 
	C626.561890,259.888580 634.002625,239.310638 641.967102,218.967026 
	C652.098572,193.088318 662.185486,167.192169 672.277588,141.298065 
	C674.702942,135.075058 677.072998,128.830475 679.635925,122.159935 
	C672.917786,122.159935 667.123962,122.159935 661.472351,122.159935 
	C655.788513,137.540298 650.166931,152.752228 644.048035,168.598434 
M1114.000000,225.498123 
	C1113.666870,200.086288 1114.469604,174.591812 1112.628418,149.289734 
	C1111.245972,130.292084 1098.021851,120.502762 1080.102661,119.008789 
	C1066.761597,117.896507 1055.159180,122.511284 1044.478271,130.033813 
	C1041.539551,132.103455 1038.640381,134.229095 1034.857178,136.952255 
	C1034.857178,130.103638 1034.857178,124.644844 1034.857178,118.641518 
	C1028.965942,119.956062 1023.514709,121.172424 1018.227051,122.352287 
	C1018.227051,162.382843 1018.227051,201.975815 1018.227051,241.739838 
	C1023.849365,241.739838 1029.242676,241.739838 1035.000000,241.739838 
	C1035.000000,239.687134 1035.000000,237.889984 1035.000000,236.092834 
	C1035.000000,209.937469 1035.102295,183.781311 1034.893799,157.627594 
	C1034.861206,153.530151 1036.163330,150.742508 1039.180054,148.292221 
	C1047.935181,141.180862 1057.769653,136.170532 1069.002563,135.157715 
	C1078.040649,134.342804 1087.158569,136.215256 1091.931274,144.834869 
	C1094.872437,150.146591 1096.647583,156.771484 1096.779785,162.853897 
	C1097.311890,187.331741 1097.000000,211.827927 1097.000000,236.317337 
	C1097.000000,238.094070 1097.000000,239.870789 1097.000000,241.704315 
	C1102.922485,241.704315 1108.315796,241.704315 1114.000000,241.704315 
	C1114.000000,236.439880 1114.000000,231.468231 1114.000000,225.498123 
M785.673218,94.999855 
	C803.410461,94.999855 821.147705,94.999855 839.152344,94.999855 
	C839.152344,144.355484 839.152344,192.950638 839.152344,241.751801 
	C845.158081,241.751801 850.884460,241.751801 857.064819,241.751801 
	C857.064819,192.791931 857.064819,144.077820 857.064819,94.897385 
	C876.241333,94.897385 894.968811,94.897385 913.680542,94.897385 
	C913.680542,89.360535 913.680542,84.301079 913.680542,79.333168 
	C869.645691,79.333168 825.931030,79.333168 782.001160,79.333168 
	C782.001160,83.813522 781.826538,87.974899 782.124878,92.102074 
	C782.198792,93.124489 783.806152,94.036049 785.673218,94.999855 
M510.953400,135.421158 
	C509.520325,137.221405 508.087250,139.021652 505.809235,141.883362 
	C505.809235,133.295044 505.809235,126.196411 505.809235,118.647850 
	C499.947479,119.950516 494.501587,121.160751 489.359924,122.303391 
	C489.359924,162.461029 489.359924,202.180206 489.359924,241.627197 
	C495.131805,241.627197 500.539886,241.627197 506.000000,241.627197 
	C506.000000,218.432571 506.233459,195.606659 505.841827,172.791504 
	C505.739288,166.818176 507.804169,161.996231 510.444885,157.153641 
	C512.058716,154.194138 513.934143,151.315353 516.076355,148.717178 
	C523.540527,139.664108 532.566345,132.446503 546.512451,136.060150 
	C550.221436,137.021194 553.775452,138.580048 558.078979,140.104782 
	C559.376648,135.410233 560.808838,130.699280 561.874207,125.906761 
	C562.049316,125.118752 560.830078,123.494110 559.887756,123.066803 
	C551.544495,119.283699 542.917542,118.063995 533.735596,119.602798 
	C523.765747,121.273636 517.283386,127.693275 510.953400,135.421158 
z"/>
<path fill="#00A06E" opacity="1.000000" stroke="none" 
	d="
M163.035614,237.005707 
	C153.371140,230.061722 143.109528,224.151794 135.002991,216.078033 
	C120.310341,201.444778 110.675568,183.606369 108.034843,162.624130 
	C107.093468,155.144165 106.454086,147.608185 106.154091,140.078766 
	C106.083214,138.299698 107.463310,135.632492 108.978966,134.744537 
	C133.478195,120.391579 158.105347,106.256981 182.714996,92.092827 
	C183.520615,91.629150 184.447281,91.375763 185.996490,90.750175 
	C185.996490,97.469734 186.064240,103.713966 185.914230,109.952972 
	C185.894592,110.769867 184.925598,111.848038 184.114120,112.319977 
	C166.866852,122.350822 149.651505,132.440613 132.268967,142.233139 
	C123.495499,147.175720 123.125229,147.256439 125.051872,157.749405 
	C128.437790,176.189865 136.362839,192.365417 149.982346,205.387085 
	C158.514221,213.544479 168.527588,219.677582 179.221329,224.661743 
	C183.332291,226.577805 187.243973,226.154602 191.397690,224.239441 
	C212.412338,214.550232 229.105637,200.448654 238.604691,178.843246 
	C242.964523,168.926910 245.583313,158.495743 245.901077,147.712296 
	C246.308273,133.894318 245.882156,120.053558 246.081879,106.226463 
	C246.132568,102.717064 244.753204,100.959869 241.850433,99.305740 
	C225.077423,89.747780 208.326126,80.144005 191.770035,70.217850 
	C186.860321,67.274239 182.897583,67.453613 178.081772,70.329079 
	C161.506897,80.225777 144.728271,89.781105 128.032104,99.474823 
	C120.903610,103.613594 113.787048,107.772926 106.001038,112.309845 
	C106.001038,105.499702 105.898338,99.575417 106.085419,93.660301 
	C106.124054,92.438690 106.923050,90.711914 107.909805,90.128899 
	C122.720581,81.378067 137.600998,72.744179 152.508713,64.158638 
	C162.346909,58.492702 172.213852,52.872704 182.177841,47.433521 
	C183.601654,46.656288 186.083542,46.248920 187.339218,46.963894 
	C211.867599,60.930340 236.263824,75.128754 260.762756,89.147469 
	C263.262451,90.577827 264.083191,92.164169 264.064056,94.980324 
	C263.939392,113.308357 264.734802,131.674713 263.812500,149.957077 
	C262.679810,172.410950 255.153488,192.723434 240.398178,210.222580 
	C226.523987,226.676743 209.313965,237.829376 189.003754,244.357101 
	C186.537628,245.149704 183.352097,245.105057 180.902267,244.269257 
	C174.945480,242.237030 169.225418,239.510910 163.035614,237.005707 
z"/>
<path fill="#222222" opacity="1.000000" stroke="none" 
	d="
M717.407959,127.218597 
	C728.297058,120.284431 740.067749,118.697052 752.105530,120.127525 
	C765.548645,121.724991 776.760010,128.070648 784.973572,139.024475 
	C795.414795,152.949173 798.719604,169.103790 797.856384,185.998199 
	C797.037354,202.029068 791.809082,216.938217 780.558411,228.670319 
	C771.533936,238.081024 760.057495,243.250488 746.803711,245.203003 
	C734.019592,247.086319 722.349182,243.658203 710.053711,240.474976 
	C710.053711,261.159271 710.053711,281.839264 710.053711,302.757629 
	C704.261169,302.757629 698.859802,302.757629 693.000000,302.757629 
	C693.000000,301.188995 693.000000,299.739594 693.000000,298.290192 
	C693.000000,241.129456 693.028625,183.968674 692.932373,126.808090 
	C692.926270,123.186134 693.296265,120.953972 697.650269,120.600571 
	C701.627563,120.277740 705.528015,119.008202 709.812378,118.080048 
	C709.812378,122.900688 709.812378,127.643265 709.812378,133.242966 
	C712.643738,130.968887 714.861877,129.187332 717.407959,127.218597 
M736.656860,230.000000 
	C758.286194,231.183548 771.531372,218.168671 776.708130,202.381180 
	C782.331238,185.232330 781.775146,168.247818 772.060242,152.245224 
	C764.867981,140.397949 753.573181,135.681747 740.676147,135.244156 
	C731.927856,134.947327 723.612488,138.726990 716.303406,143.539612 
	C713.728577,145.235001 709.814026,146.367691 709.877380,151.330627 
	C710.159851,173.459946 709.937195,195.595428 710.120605,217.726822 
	C710.135132,219.480911 711.408936,221.951523 712.862061,222.843201 
	C719.830811,227.119324 727.590881,229.243729 736.656860,230.000000 
z"/>
<path fill="#222222" opacity="1.000000" stroke="none" 
	d="
M372.990967,205.921539 
	C384.584229,220.686691 399.411224,228.730621 418.006805,229.485886 
	C435.856232,230.210846 451.981720,224.997910 467.367584,214.563370 
	C468.319000,220.284210 469.417389,225.316360 469.823792,230.403778 
	C469.929504,231.727264 468.180817,233.807037 466.765015,234.548050 
	C455.036804,240.686523 442.589203,243.844452 429.313690,245.273499 
	C416.279297,246.676590 403.920074,244.908463 391.897888,240.884689 
	C371.205994,233.959198 357.171204,219.672577 348.972504,199.478119 
	C342.949615,184.643127 340.993866,169.132965 342.129761,153.394714 
	C343.710571,131.491653 350.419037,111.319374 366.855011,95.817642 
	C377.627441,85.657516 390.540833,79.462906 405.409454,76.860092 
	C427.208405,73.044083 447.562744,77.056419 467.339905,86.025711 
	C471.036530,87.702187 472.431366,89.624046 470.209717,93.736626 
	C468.503082,96.895950 467.854645,100.626938 466.642853,104.391769 
	C461.093109,101.783844 456.148132,99.095512 450.939178,97.094376 
	C442.261169,93.760513 433.301971,91.974251 423.859436,91.847252 
	C413.921753,91.713608 404.490723,92.696136 395.319092,96.886665 
	C379.253723,104.226944 369.207611,116.590988 364.054474,133.136505 
	C357.306610,154.802505 358.622620,176.144348 367.543915,196.962524 
	C368.860657,200.035263 371.124542,202.702118 372.990967,205.921539 
z"/>
<path fill="#00A06E" opacity="1.000000" stroke="none" 
	d="
M986.313110,222.282440 
	C988.023987,221.307083 989.416443,220.556229 991.528625,219.417282 
	C992.778015,224.968811 993.921936,230.051437 995.103516,235.301544 
	C985.330872,240.945679 975.010986,243.900742 963.801086,245.231018 
	C950.957886,246.755112 939.100891,244.750320 927.883606,238.913956 
	C912.213867,230.760986 903.747986,217.171005 899.984924,200.266510 
	C896.628784,185.190308 897.679810,170.502579 902.912903,155.942184 
	C910.877197,133.782227 929.925415,119.076706 953.998474,118.889824 
	C965.944885,118.797104 976.767456,121.508797 985.667114,129.428085 
	C992.512207,135.519180 996.163452,143.742355 998.009583,152.737259 
	C999.795105,161.437195 998.631958,169.950546 997.144165,178.566116 
	C996.453979,182.562820 994.636353,183.077469 991.207520,183.061035 
	C967.209656,182.945969 943.211060,183.000504 919.212646,183.000763 
	C918.388123,183.000778 917.563660,183.000778 916.429810,183.000778 
	C914.503418,193.756134 918.265808,203.182220 923.537598,211.764526 
	C929.829468,222.007629 939.450623,227.722717 951.671814,229.065262 
	C963.858765,230.404068 975.125305,227.679977 986.313110,222.282440 
M920.927124,156.449936 
	C919.371216,160.719009 917.815308,164.988068 916.290466,169.172043 
	C938.914185,169.172043 960.356750,169.172043 982.419617,169.172043 
	C981.881592,164.090546 981.631165,159.849243 980.953613,155.677307 
	C978.911499,143.102753 964.628845,132.367966 952.424377,134.013031 
	C938.273621,135.920456 927.243042,142.291840 920.927124,156.449936 
z"/>
<path fill="#222222" opacity="1.000000" stroke="none" 
	d="
M644.296692,168.281296 
	C650.166931,152.752228 655.788513,137.540298 661.472351,122.159935 
	C667.123962,122.159935 672.917786,122.159935 679.635925,122.159935 
	C677.072998,128.830475 674.702942,135.075058 672.277588,141.298065 
	C662.185486,167.192169 652.098572,193.088318 641.967102,218.967026 
	C634.002625,239.310638 626.561890,259.888580 617.746033,279.858032 
	C612.832703,290.987640 605.605774,301.250977 592.001953,303.462830 
	C581.290833,305.204285 570.921936,303.833221 560.773804,298.312683 
	C562.449341,293.295563 564.151367,288.198975 565.833069,283.163330 
	C571.138245,284.877747 575.864990,287.206635 580.807373,287.832916 
	C590.618958,289.076141 596.474976,286.096283 602.319946,274.003235 
	C607.342712,263.611328 611.811951,252.843994 615.207947,241.836075 
	C616.301575,238.291092 613.578979,233.305283 611.966309,229.230301 
	C598.069336,194.116318 584.024719,159.060776 570.052979,123.976318 
	C569.888123,123.562485 570.103882,122.997063 570.180603,122.001617 
	C575.438843,122.001617 580.720276,121.790733 585.962585,122.150635 
	C587.265320,122.240059 589.062500,123.938118 589.583069,125.298325 
	C598.825317,149.448959 607.882874,173.670166 617.035339,197.855331 
	C619.462463,204.269135 622.073486,210.613373 625.972229,217.388779 
	C631.997498,201.125336 638.022766,184.861877 644.296692,168.281296 
z"/>
<path fill="#00A06E" opacity="1.000000" stroke="none" 
	d="
M1114.000000,225.997345 
	C1114.000000,231.468231 1114.000000,236.439880 1114.000000,241.704315 
	C1108.315796,241.704315 1102.922485,241.704315 1097.000000,241.704315 
	C1097.000000,239.870789 1097.000000,238.094070 1097.000000,236.317337 
	C1097.000000,211.827927 1097.311890,187.331741 1096.779785,162.853897 
	C1096.647583,156.771484 1094.872437,150.146591 1091.931274,144.834869 
	C1087.158569,136.215256 1078.040649,134.342804 1069.002563,135.157715 
	C1057.769653,136.170532 1047.935181,141.180862 1039.180054,148.292221 
	C1036.163330,150.742508 1034.861206,153.530151 1034.893799,157.627594 
	C1035.102295,183.781311 1035.000000,209.937469 1035.000000,236.092834 
	C1035.000000,237.889984 1035.000000,239.687134 1035.000000,241.739838 
	C1029.242676,241.739838 1023.849365,241.739838 1018.227051,241.739838 
	C1018.227051,201.975815 1018.227051,162.382843 1018.227051,122.352287 
	C1023.514709,121.172424 1028.965942,119.956062 1034.857178,118.641518 
	C1034.857178,124.644844 1034.857178,130.103638 1034.857178,136.952255 
	C1038.640381,134.229095 1041.539551,132.103455 1044.478271,130.033813 
	C1055.159180,122.511284 1066.761597,117.896507 1080.102661,119.008789 
	C1098.021851,120.502762 1111.245972,130.292084 1112.628418,149.289734 
	C1114.469604,174.591812 1113.666870,200.086288 1114.000000,225.997345 
z"/>
<path fill="#00A06E" opacity="1.000000" stroke="none" 
	d="
M785.190918,94.999207 
	C783.806152,94.036049 782.198792,93.124489 782.124878,92.102074 
	C781.826538,87.974899 782.001160,83.813522 782.001160,79.333168 
	C825.931030,79.333168 869.645691,79.333168 913.680542,79.333168 
	C913.680542,84.301079 913.680542,89.360535 913.680542,94.897385 
	C894.968811,94.897385 876.241333,94.897385 857.064819,94.897385 
	C857.064819,144.077820 857.064819,192.791931 857.064819,241.751801 
	C850.884460,241.751801 845.158081,241.751801 839.152344,241.751801 
	C839.152344,192.950638 839.152344,144.355484 839.152344,94.999855 
	C821.147705,94.999855 803.410461,94.999855 785.190918,94.999207 
z"/>
<path fill="#222222" opacity="1.000000" stroke="none" 
	d="
M510.993286,135.058807 
	C517.283386,127.693275 523.765747,121.273636 533.735596,119.602798 
	C542.917542,118.063995 551.544495,119.283699 559.887756,123.066803 
	C560.830078,123.494110 562.049316,125.118752 561.874207,125.906761 
	C560.808838,130.699280 559.376648,135.410233 558.078979,140.104782 
	C553.775452,138.580048 550.221436,137.021194 546.512451,136.060150 
	C532.566345,132.446503 523.540527,139.664108 516.076355,148.717178 
	C513.934143,151.315353 512.058716,154.194138 510.444885,157.153641 
	C507.804169,161.996231 505.739288,166.818176 505.841827,172.791504 
	C506.233459,195.606659 506.000000,218.432571 506.000000,241.627197 
	C500.539886,241.627197 495.131805,241.627197 489.359924,241.627197 
	C489.359924,202.180206 489.359924,162.461029 489.359924,122.303391 
	C494.501587,121.160751 499.947479,119.950516 505.809235,118.647850 
	C505.809235,126.196411 505.809235,133.295044 505.809235,141.883362 
	C508.087250,139.021652 509.520325,137.221405 510.993286,135.058807 
z"/>
<path fill="#00A06E" opacity="1.000000" stroke="none" 
	d="
M197.832321,169.140640 
	C196.519852,175.841721 193.550049,180.824509 185.669357,180.053040 
	C183.297089,179.820801 181.001038,178.810196 178.328827,177.634079 
	C176.953308,175.755249 175.919006,174.398499 174.884720,173.041733 
	C174.264206,170.602890 173.643707,168.164062 173.487473,165.360855 
	C174.886108,164.451752 175.820480,163.907013 176.754837,163.362289 
	C175.892319,162.863007 175.029816,162.363724 174.167297,161.864441 
	C175.216660,160.634460 176.266037,159.404480 177.836075,158.327667 
	C181.350067,160.609879 183.285736,160.616562 183.000519,156.166656 
	C185.204758,156.173767 187.408997,156.180893 189.845352,156.843628 
	C190.733246,157.628906 191.389038,157.758560 192.044815,157.888214 
	C193.701324,160.652206 195.357849,163.416183 196.801819,166.777466 
	C197.003601,167.963394 197.417969,168.552017 197.832321,169.140640 
z"/>
<path fill="#00A06E" opacity="1.000000" stroke="none" 
	d="
M182.644897,156.098572 
	C183.285736,160.616562 181.350067,160.609879 178.154907,158.185699 
	C179.398483,157.270538 180.843872,156.650513 182.644897,156.098572 
z"/>
<path fill="#00A06E" opacity="1.000000" stroke="none" 
	d="
M174.069580,162.139084 
	C175.029816,162.363724 175.892319,162.863007 176.754837,163.362289 
	C175.820480,163.907013 174.886108,164.451752 173.559204,164.998474 
	C173.435059,164.138214 173.703461,163.275970 174.069580,162.139084 
z"/>
<path fill="#00A06E" opacity="1.000000" stroke="none" 
	d="
M174.938873,173.387268 
	C175.919006,174.398499 176.953308,175.755249 177.994263,177.472687 
	C176.998306,176.466507 175.995651,175.099640 174.938873,173.387268 
z"/>
<path fill="#00A06E" opacity="1.000000" stroke="none" 
	d="
M191.925095,157.605286 
	C191.389038,157.758560 190.733246,157.628906 190.059509,157.191895 
	C190.629501,157.030487 191.217438,157.176437 191.925095,157.605286 
z"/>
<path fill="#00A06E" opacity="1.000000" stroke="none" 
	d="
M197.904755,168.882507 
	C197.417969,168.552017 197.003601,167.963394 196.849152,167.163757 
	C197.398422,167.509949 197.687805,168.067154 197.904755,168.882507 
z"/>
<path fill="#FFFFFF" opacity="1.000000" stroke="none" 
	d="
M736.190308,230.000000 
	C727.590881,229.243729 719.830811,227.119324 712.862061,222.843201 
	C711.408936,221.951523 710.135132,219.480911 710.120605,217.726822 
	C709.937195,195.595428 710.159851,173.459946 709.877380,151.330627 
	C709.814026,146.367691 713.728577,145.235001 716.303406,143.539612 
	C723.612488,138.726990 731.927856,134.947327 740.676147,135.244156 
	C753.573181,135.681747 764.867981,140.397949 772.060242,152.245224 
	C781.775146,168.247818 782.331238,185.232330 776.708130,202.381180 
	C771.531372,218.168671 758.286194,231.183548 736.190308,230.000000 
z"/>
<path fill="#FFFFFF" opacity="1.000000" stroke="none" 
	d="
M920.987549,156.069702 
	C927.243042,142.291840 938.273621,135.920456 952.424377,134.013031 
	C964.628845,132.367966 978.911499,143.102753 980.953613,155.677307 
	C981.631165,159.849243 981.881592,164.090546 982.419617,169.172043 
	C960.356750,169.172043 938.914185,169.172043 916.290466,169.172043 
	C917.815308,164.988068 919.371216,160.719009 920.987549,156.069702 
z"/>
</svg>