<svg version="1.1" id="Layer_1" xmlns="http://www.w3.org/2000/svg" xmlns:xlink="http://www.w3.org/1999/xlink" x="0px" y="0px"
	 width="100%" viewBox="0 0 449 145" enable-background="new 0 0 449 145" xml:space="preserve">
<path fill="#FFFFFF" opacity="1.000000" stroke="none" 
	d="
M318.000000,146.000000 
	C212.044403,146.000000 106.588806,146.000000 1.066602,146.000000 
	C1.066602,97.731491 1.066602,49.462860 1.066602,1.097115 
	C150.666641,1.097115 300.333313,1.097115 449.972229,1.097115 
	C449.972229,49.411068 449.972229,97.705544 449.972229,146.000000 
	C406.129608,146.000000 362.314819,146.000000 318.000000,146.000000 
M76.500000,115.833458 
	C70.668663,115.833427 64.831581,115.680153 59.008438,115.898552 
	C56.132507,116.006416 54.489742,115.035461 53.069889,112.535934 
	C47.234879,102.263985 41.256020,92.071907 35.187893,81.935570 
	C33.761482,79.552879 33.600014,77.688049 35.106136,75.211243 
	C41.157658,65.259537 47.086811,55.229294 52.830997,45.097565 
	C54.373978,42.376019 56.195232,41.457775 59.212349,41.566372 
	C64.983459,41.774090 70.767342,41.626724 76.533371,41.626724 
	C76.533371,36.721439 76.533371,32.471584 76.533371,27.844757 
	C67.073097,27.844757 57.931709,27.736357 48.799294,27.973484 
	C47.572578,28.005339 45.992546,29.541388 45.249130,30.783644 
	C35.765839,46.630379 26.405476,62.550682 16.985384,78.500519 
	C26.374088,94.480309 35.777996,110.375282 45.034279,126.355751 
	C46.478519,128.849167 48.160877,129.709854 51.011070,129.689117 
	C68.338074,129.563049 85.667336,129.702744 102.992966,129.503281 
	C104.704933,129.483582 107.128067,128.211456 107.986511,126.780151 
	C117.058014,111.655075 125.926331,96.406799 134.680786,81.095360 
	C135.401932,79.834091 135.528000,77.493881 134.835938,76.278122 
	C128.258331,64.723366 121.443893,53.303444 114.630447,41.730751 
	C111.273979,45.279129 108.088783,48.646439 104.640511,52.291866 
	C108.621483,59.018024 112.651268,66.504631 117.370232,73.528198 
	C119.923622,77.328583 119.634834,80.099457 117.268364,83.694656 
	C113.706085,89.106583 110.675896,94.867401 107.382843,100.458313 
	C104.428207,105.474655 102.537560,112.456146 98.135773,114.913818 
	C93.523460,117.489029 86.479858,115.712448 80.498764,115.830673 
	C79.499466,115.850433 78.499443,115.833389 76.500000,115.833458 
M405.007111,122.553909 
	C406.927704,124.751083 409.366730,125.089737 410.236206,122.194656 
	C414.280304,108.728889 417.937561,95.146942 421.733246,81.606567 
	C421.242249,81.246849 420.751282,80.887123 420.260315,80.527405 
	C419.066925,81.722595 417.258881,82.717049 416.791168,84.149231 
	C415.140228,89.204872 413.966248,94.415260 412.577698,99.557877 
	C411.120453,104.955109 409.624420,110.341873 408.145355,115.733208 
	C404.191223,105.681107 400.971893,95.753548 398.214600,85.699265 
	C397.100677,81.637207 395.444702,79.938438 391.302643,81.701927 
	C387.778931,93.288956 384.262115,104.853249 380.484680,117.274559 
	C377.246735,105.739441 374.217651,95.193657 371.357910,84.602142 
	C370.560242,81.647934 369.393097,80.111961 365.779907,81.913750 
	C369.738556,95.258728 373.662842,108.624588 377.745850,121.941788 
	C378.016113,122.823326 379.551208,123.935829 380.396881,123.856926 
	C381.336853,123.769234 382.612823,122.598091 382.957703,121.621506 
	C384.503845,117.242821 385.744934,112.757362 387.144409,108.325684 
	C389.212921,101.775398 391.322388,95.238037 393.414429,88.695175 
	C393.791443,88.712532 394.168427,88.729897 394.545441,88.747253 
	C397.976166,99.754807 401.406891,110.762367 405.007111,122.553909 
M297.453766,119.050659 
	C300.137177,120.667229 302.635529,122.833466 305.534576,123.809525 
	C322.046875,129.368927 336.475464,114.671036 332.594025,96.424171 
	C330.309814,85.686035 319.858368,78.608063 309.085846,80.503830 
	C291.455078,83.606522 284.971985,103.884354 297.453766,119.050659 
M167.212601,100.940117 
	C167.920685,94.318947 170.097763,88.567078 176.745941,85.722321 
	C183.170364,82.973297 189.366180,84.933266 196.118347,86.735336 
	C195.922852,85.009499 195.471603,83.129494 194.381271,82.621643 
	C187.381546,79.361374 180.182571,79.114723 173.246765,82.735672 
	C162.865738,88.155243 159.214569,104.168961 165.651199,115.207397 
	C171.332214,124.949997 186.023697,128.194885 195.995972,121.800606 
	C196.928879,121.202415 197.891037,119.837341 197.929962,118.794373 
	C198.125961,113.543900 198.019928,108.282150 198.019928,102.858078 
	C192.138306,102.858078 186.858887,102.858078 181.232849,102.858078 
	C181.319763,104.278053 181.392838,105.471794 181.491135,107.077759 
	C185.646713,107.077759 189.419510,107.077759 193.655884,107.077759 
	C193.655884,109.147202 193.433228,110.816307 193.696503,112.404877 
	C194.583466,117.756721 192.041336,119.710640 187.020294,120.472748 
	C175.138367,122.276207 167.264862,115.065758 167.212601,100.940117 
M235.282852,113.467384 
	C235.282852,116.895439 235.282852,120.323494 235.282852,123.844391 
	C244.299576,123.844391 252.566315,123.844391 260.817047,123.844391 
	C261.086761,120.090431 261.087677,120.003571 258.019043,119.970688 
	C252.091751,119.907181 246.163284,119.952156 239.849594,119.952156 
	C239.849594,106.708496 239.849594,94.123100 239.849594,81.507393 
	C236.692047,80.640007 235.173859,81.064018 235.231308,84.530922 
	C235.385635,93.843513 235.283508,103.160355 235.282852,113.467384 
z"/>
<path fill="#6D53A2" opacity="1.000000" stroke="none" 
	d="
M76.999878,115.833405 
	C78.499443,115.833389 79.499466,115.850433 80.498764,115.830673 
	C86.479858,115.712448 93.523460,117.489029 98.135773,114.913818 
	C102.537560,112.456146 104.428207,105.474655 107.382843,100.458313 
	C110.675896,94.867401 113.706085,89.106583 117.268364,83.694656 
	C119.634834,80.099457 119.923622,77.328583 117.370232,73.528198 
	C112.651268,66.504631 108.621483,59.018024 104.640511,52.291866 
	C108.088783,48.646439 111.273979,45.279129 114.630447,41.730751 
	C121.443893,53.303444 128.258331,64.723366 134.835938,76.278122 
	C135.528000,77.493881 135.401932,79.834091 134.680786,81.095360 
	C125.926331,96.406799 117.058014,111.655075 107.986511,126.780151 
	C107.128067,128.211456 104.704933,129.483582 102.992966,129.503281 
	C85.667336,129.702744 68.338074,129.563049 51.011070,129.689117 
	C48.160877,129.709854 46.478519,128.849167 45.034279,126.355751 
	C35.777996,110.375282 26.374088,94.480309 16.985384,78.500519 
	C26.405476,62.550682 35.765839,46.630379 45.249130,30.783644 
	C45.992546,29.541388 47.572578,28.005339 48.799294,27.973484 
	C57.931709,27.736357 67.073097,27.844757 76.533371,27.844757 
	C76.533371,32.471584 76.533371,36.721439 76.533371,41.626724 
	C70.767342,41.626724 64.983459,41.774090 59.212349,41.566372 
	C56.195232,41.457775 54.373978,42.376019 52.830997,45.097565 
	C47.086811,55.229294 41.157658,65.259537 35.106136,75.211243 
	C33.600014,77.688049 33.761482,79.552879 35.187893,81.935570 
	C41.256020,92.071907 47.234879,102.263985 53.069889,112.535934 
	C54.489742,115.035461 56.132507,116.006416 59.008438,115.898552 
	C64.831581,115.680153 70.668663,115.833427 76.999878,115.833405 
z"/>
<path fill="#7866A7" opacity="1.000000" stroke="none" 
	d="
M404.922363,122.161911 
	C401.406891,110.762367 397.976166,99.754807 394.545441,88.747253 
	C394.168427,88.729897 393.791443,88.712532 393.414429,88.695175 
	C391.322388,95.238037 389.212921,101.775398 387.144409,108.325684 
	C385.744934,112.757362 384.503845,117.242821 382.957703,121.621506 
	C382.612823,122.598091 381.336853,123.769234 380.396881,123.856926 
	C379.551208,123.935829 378.016113,122.823326 377.745850,121.941788 
	C373.662842,108.624588 369.738556,95.258728 365.779907,81.913750 
	C369.393097,80.111961 370.560242,81.647934 371.357910,84.602142 
	C374.217651,95.193657 377.246735,105.739441 380.484680,117.274559 
	C384.262115,104.853249 387.778931,93.288956 391.302643,81.701927 
	C395.444702,79.938438 397.100677,81.637207 398.214600,85.699265 
	C400.971893,95.753548 404.191223,105.681107 408.145355,115.733208 
	C409.624420,110.341873 411.120453,104.955109 412.577698,99.557877 
	C413.966248,94.415260 415.140228,89.204872 416.791168,84.149231 
	C417.258881,82.717049 419.066925,81.722595 420.260315,80.527405 
	C420.751282,80.887123 421.242249,81.246849 421.733246,81.606567 
	C417.937561,95.146942 414.280304,108.728889 410.236206,122.194656 
	C409.366730,125.089737 406.927704,124.751083 404.922363,122.161911 
z"/>
<path fill="#7866A7" opacity="1.000000" stroke="none" 
	d="
M297.184784,118.809998 
	C284.971985,103.884354 291.455078,83.606522 309.085846,80.503830 
	C319.858368,78.608063 330.309814,85.686035 332.594025,96.424171 
	C336.475464,114.671036 322.046875,129.368927 305.534576,123.809525 
	C302.635529,122.833466 300.137177,120.667229 297.184784,118.809998 
M327.923523,96.925659 
	C326.095367,91.068619 322.989716,86.398407 316.553986,84.937866 
	C310.113983,83.476349 304.034729,84.336174 299.845886,89.745895 
	C294.775085,96.294655 294.270905,103.824715 297.525421,111.389076 
	C300.432556,118.146072 306.650269,121.568497 313.964996,120.904839 
	C320.652863,120.298050 326.447357,115.451180 327.813477,108.521179 
	C328.500702,105.034988 328.032227,101.320961 327.923523,96.925659 
z"/>
<path fill="#7764A6" opacity="1.000000" stroke="none" 
	d="
M167.158173,101.357819 
	C167.264862,115.065758 175.138367,122.276207 187.020294,120.472748 
	C192.041336,119.710640 194.583466,117.756721 193.696503,112.404877 
	C193.433228,110.816307 193.655884,109.147202 193.655884,107.077759 
	C189.419510,107.077759 185.646713,107.077759 181.491135,107.077759 
	C181.392838,105.471794 181.319763,104.278053 181.232849,102.858078 
	C186.858887,102.858078 192.138306,102.858078 198.019928,102.858078 
	C198.019928,108.282150 198.125961,113.543900 197.929962,118.794373 
	C197.891037,119.837341 196.928879,121.202415 195.995972,121.800606 
	C186.023697,128.194885 171.332214,124.949997 165.651199,115.207397 
	C159.214569,104.168961 162.865738,88.155243 173.246765,82.735672 
	C180.182571,79.114723 187.381546,79.361374 194.381271,82.621643 
	C195.471603,83.129494 195.922852,85.009499 196.118347,86.735336 
	C189.366180,84.933266 183.170364,82.973297 176.745941,85.722321 
	C170.097763,88.567078 167.920685,94.318947 167.158173,101.357819 
z"/>
<path fill="#7E6CAB" opacity="1.000000" stroke="none" 
	d="
M235.283035,112.971451 
	C235.283508,103.160355 235.385635,93.843513 235.231308,84.530922 
	C235.173859,81.064018 236.692047,80.640007 239.849594,81.507393 
	C239.849594,94.123100 239.849594,106.708496 239.849594,119.952156 
	C246.163284,119.952156 252.091751,119.907181 258.019043,119.970688 
	C261.087677,120.003571 261.086761,120.090431 260.817047,123.844391 
	C252.566315,123.844391 244.299576,123.844391 235.282852,123.844391 
	C235.282852,120.323494 235.282852,116.895439 235.283035,112.971451 
z"/>
<path fill="#FDFCFD" opacity="1.000000" stroke="none" 
	d="
M328.004944,97.317810 
	C328.032227,101.320961 328.500702,105.034988 327.813477,108.521179 
	C326.447357,115.451180 320.652863,120.298050 313.964996,120.904839 
	C306.650269,121.568497 300.432556,118.146072 297.525421,111.389076 
	C294.270905,103.824715 294.775085,96.294655 299.845886,89.745895 
	C304.034729,84.336174 310.113983,83.476349 316.553986,84.937866 
	C322.989716,86.398407 326.095367,91.068619 328.004944,97.317810 
z"/>
</svg>