<svg version="1.1" id="Layer_1" xmlns="http://www.w3.org/2000/svg" xmlns:xlink="http://www.w3.org/1999/xlink" x="0px" y="0px"
	 width="100%" viewBox="0 0 601 73" enable-background="new 0 0 601 73" xml:space="preserve">
<path fill="none" opacity="1.000000" stroke="#000000" stroke-linecap="round" stroke-linejoin="round" stroke-width="6.000000"
	d="
M353.000000,26.500000 
	C350.961670,23.279610 345.352570,22.382164 340.500000,24.500013 
	C335.175934,26.823627 331.781677,32.613865 332.000000,39.000000 
	C332.236359,45.912025 335.030670,49.735851 341.500000,52.000008 
	C345.283844,53.324295 351.640350,52.221539 352.990448,49.994202 
	C353.064301,49.872318 353.000000,49.666668 353.000000,49.500000 
"/>
<path fill="none" opacity="1.000000" stroke="#000000" stroke-linecap="round" stroke-linejoin="round" stroke-width="5.000000"
	d="
M544.500000,42.500000 
	C545.979675,42.353680 546.341431,43.035198 546.559204,44.491146 
	C547.488281,50.703495 550.913086,53.534660 556.500000,52.999996 
	C561.755432,52.497055 565.864258,47.475185 565.500000,42.000000 
	C565.182739,37.230877 562.184998,33.233894 558.000000,32.000008 
	C555.116943,31.149988 549.992615,33.509014 547.454163,36.460606 
	C545.844238,38.332630 547.177246,40.669304 546.000000,42.500000 
"/>
<path fill="none" opacity="1.000000" stroke="#000000" stroke-linecap="round" stroke-linejoin="round" stroke-width="5.000000"
	d="
M537.000000,34.500000 
	C536.079102,30.427652 532.667175,31.859198 530.531433,32.198017 
	C528.486816,32.522366 525.594299,32.958038 525.413269,36.495560 
	C525.264526,39.402435 526.908203,40.328625 528.953186,41.576694 
	C530.898804,42.764130 533.380127,42.554955 535.040955,44.464363 
	C537.170349,46.912411 537.071838,50.193493 534.500000,52.000008 
	C531.649780,54.002060 525.773987,53.162651 524.000000,50.500000 
"/>
<path fill="none" opacity="1.000000" stroke="#000000" stroke-linecap="round" stroke-linejoin="round" stroke-width="5.000000"
	d="
M435.000000,49.500000 
	C436.972534,49.103451 438.102356,50.334957 439.560486,51.418617 
	C442.793488,53.821377 446.035736,53.493290 449.025543,50.525730 
	C451.761261,47.810371 453.079193,39.038231 451.000000,36.000004 
	C448.170135,31.864861 443.189728,30.913946 439.068604,34.089054 
	C437.913391,34.979050 436.605896,35.226994 435.500000,36.000000 
"/>
<path fill="none" opacity="1.000000" stroke="#000000" stroke-linecap="round" stroke-linejoin="round" stroke-width="5.000000"
	d="
M210.500000,42.000000 
	C215.761795,42.000000 221.023605,42.000000 226.361008,42.000000 
	C225.047226,33.123772 221.097427,30.227264 215.000000,33.000004 
	C210.675720,34.966415 208.525803,40.341206 209.999985,45.500004 
	C211.559082,50.955936 214.896561,53.694839 219.975983,52.854794 
	C221.767365,52.558533 224.049454,53.403542 225.500000,51.500000 
"/>
<path fill="none" opacity="1.000000" stroke="#000000" stroke-linecap="round" stroke-linejoin="round" stroke-width="5.000000"
	d="
M477.500000,42.500000 
	C483.363159,41.323490 489.411011,42.769810 495.386658,41.386147 
	C495.830994,37.667728 494.824890,34.871235 491.514709,32.974358 
	C488.493256,31.242973 485.611542,31.678839 483.036591,33.550335 
	C480.238312,35.584091 478.399902,38.248985 480.000000,42.000000 
"/>
<path fill="none" opacity="1.000000" stroke="#000000" stroke-linecap="round" stroke-linejoin="round" stroke-width="5.000000"
	d="
M80.500000,42.000000 
	C85.417236,41.761211 90.387428,42.563923 95.247887,41.419830 
	C95.331543,34.704739 93.211609,31.999998 88.000000,32.000000 
	C82.702629,32.000004 80.446220,35.410450 79.812233,41.480389 
	C79.346046,45.943718 79.810379,49.759933 83.585320,51.845570 
	C86.900887,53.677395 90.935013,53.903633 94.500000,51.500000 
"/>
<path fill="none" opacity="1.000000" stroke="#000000" stroke-linecap="round" stroke-linejoin="round" stroke-width="4.000000"
	d="
M294.500000,41.000000 
	C291.292725,42.340405 287.702240,40.564922 284.468781,42.446369 
	C281.089203,44.412827 279.609558,46.968636 281.000000,49.499996 
	C282.889557,52.940056 286.850861,54.104095 289.976013,51.964977 
	C291.417389,50.978413 292.229645,48.946686 294.500000,49.500000 
"/>
<path fill="none" opacity="1.000000" stroke="#000000" stroke-linecap="round" stroke-linejoin="round" stroke-width="6.000000"
	d="
M236.500000,32.500000 
	C236.500000,36.666668 236.653015,40.840771 236.450912,44.997612 
	C236.293182,48.241982 237.105438,50.986607 240.033234,52.432728 
	C242.841446,53.819786 245.602783,52.900059 247.995850,50.994785 
	C249.064301,50.144123 249.696518,48.552238 251.500000,49.000000 
"/>
<path fill="none" opacity="1.000000" stroke="#000000" stroke-linecap="round" stroke-linejoin="round" stroke-width="6.000000"
	d="
M51.500000,52.500000 
	C51.500000,48.000000 51.374146,43.495235 51.544300,39.001678 
	C51.657536,36.011307 50.324368,33.820152 47.955101,32.586212 
	C45.530071,31.323229 42.939976,31.798252 41.012817,34.011162 
	C39.795620,35.408844 38.324936,36.064434 36.500000,36.000000 
"/>
<path fill="none" opacity="1.000000" stroke="#000000" stroke-linecap="round" stroke-linejoin="round" stroke-width="6.000000"
	d="
M422.500000,52.500000 
	C422.082184,47.338783 423.304962,42.119373 421.549408,36.983116 
	C419.869843,32.069252 415.965149,30.455736 412.027313,33.534939 
	C410.586670,34.661476 409.432220,36.148323 407.500000,36.500000 
"/>
<path fill="none" opacity="1.000000" stroke="#000000" stroke-linecap="round" stroke-linejoin="round" stroke-width="6.000000"
	d="
M106.500000,21.500000 
	C106.500000,31.833334 106.500000,42.166668 106.500000,52.500000 
"/>
<path fill="none" opacity="1.000000" stroke="#000000" stroke-linecap="round" stroke-linejoin="round" stroke-width="6.000000"
	d="
M307.500000,21.500000 
	C307.500000,31.833334 307.500000,42.166668 307.500000,52.500000 
"/>
<path fill="none" opacity="1.000000" stroke="#000000" stroke-linecap="round" stroke-linejoin="round" stroke-width="6.000000"
	d="
M22.500000,23.500000 
	C22.500000,33.166668 22.500000,42.833332 22.500000,52.500000 
"/>
<path fill="none" opacity="1.000000" stroke="#000000" stroke-linecap="round" stroke-linejoin="round" stroke-width="5.000000"
	d="
M516.000000,34.500000 
	C515.395752,30.962734 512.528992,31.857653 510.513214,32.106857 
	C507.904480,32.429367 505.426910,33.754810 504.554993,36.517353 
	C503.792389,38.933578 505.806885,40.030148 507.516388,40.970203 
	C509.275909,41.937763 511.343781,42.419838 512.948669,43.571548 
	C514.459900,44.656097 517.003357,45.551971 516.401733,47.975601 
	C515.826050,50.294636 514.155945,51.950401 511.512268,52.553802 
	C508.638184,53.209812 505.949768,53.568451 503.500000,51.500000 
"/>
<path fill="none" opacity="1.000000" stroke="#000000" stroke-linecap="round" stroke-linejoin="round" stroke-width="6.000000"
	d="
M175.500000,26.000000 
	C173.752258,29.538084 174.630829,33.324123 174.534256,37.000900 
	C174.398651,42.164005 174.500000,47.333332 174.500000,52.500000 
"/>
<path fill="none" opacity="1.000000" stroke="#000000" stroke-linecap="round" stroke-linejoin="round" stroke-width="5.000000"
	d="
M175.750000,24.500000 
	C181.381638,28.156610 183.911758,34.242977 187.499161,39.500572 
	C189.912308,43.037239 191.478165,47.250801 195.500000,49.500000 
"/>
<path fill="none" opacity="1.000000" stroke="#000000" stroke-linecap="round" stroke-linejoin="round" stroke-width="6.000000"
	d="
M197.500000,23.500000 
	C197.500000,30.166666 197.178528,36.855999 197.646271,43.489685 
	C197.855499,46.456993 194.979889,49.038033 197.000000,52.000000 
"/>
<path fill="none" opacity="1.000000" stroke="#000000" stroke-linecap="round" stroke-linejoin="round" stroke-width="6.000000"
	d="
M65.500000,26.500000 
	C65.500000,33.500000 65.475189,40.500118 65.509026,47.499958 
	C65.530365,51.915035 66.593315,52.767853 71.500000,52.500000 
"/>
<path fill="none" opacity="1.000000" stroke="#000000" stroke-linecap="round" stroke-linejoin="round" stroke-width="4.000000"
	d="
M135.500000,35.000000 
	C136.708267,33.520798 139.642487,32.942009 138.009109,29.994947 
	C136.033691,26.430717 132.902344,27.723948 129.500000,27.467087 
	C129.500000,32.821842 129.500000,37.660919 129.500000,42.500000 
"/>
<path fill="none" opacity="1.000000" stroke="#000000" stroke-linecap="round" stroke-linejoin="round" stroke-width="5.000000"
	d="
M479.500000,43.000000 
	C479.500000,51.959881 485.215668,55.198769 494.500000,51.500000 
"/>
<path fill="none" opacity="1.000000" stroke="#000000" stroke-linecap="round" stroke-linejoin="round" stroke-width="6.000000"
	d="
M295.500000,52.500000 
	C295.500000,48.166668 295.336975,43.825562 295.542999,39.502048 
	C295.777924,34.572224 292.933105,31.356205 288.023773,32.147533 
	C286.234955,32.435875 283.950562,31.596460 282.500000,33.500000 
"/>
<path fill="none" opacity="1.000000" stroke="#000000" stroke-linecap="round" stroke-linejoin="round" stroke-width="6.000000"
	d="
M252.500000,32.500000 
	C252.500000,39.166668 252.500000,45.833332 252.500000,52.500000 
"/>
<path fill="none" opacity="1.000000" stroke="#000000" stroke-linecap="round" stroke-linejoin="round" stroke-width="6.000000"
	d="
M391.500000,32.500000 
	C391.500000,39.166668 391.500000,45.833332 391.500000,52.500000 
"/>
<path fill="none" opacity="1.000000" stroke="#000000" stroke-linecap="round" stroke-linejoin="round" stroke-width="6.000000"
	d="
M35.500000,32.500000 
	C35.500000,39.166668 35.500000,45.833332 35.500000,52.500000 
"/>
<path fill="none" opacity="1.000000" stroke="#000000" stroke-linecap="round" stroke-linejoin="round" stroke-width="6.000000"
	d="
M392.500000,36.000000 
	C394.580292,36.361805 395.148438,34.280338 396.521454,33.539768 
	C398.712677,32.357880 401.010406,31.505827 403.509033,32.984722 
	C406.240631,34.601482 407.340179,36.617897 406.865723,40.016155 
	C406.293488,44.114567 406.583313,48.333332 406.499969,52.500000 
"/>
<path fill="none" opacity="1.000000" stroke="#000000" stroke-linecap="round" stroke-linejoin="round" stroke-width="7.000000"
	d="
M576.000000,33.000000 
	C576.000000,39.333332 576.000000,45.666668 576.000000,52.000000 
"/>
<path fill="none" opacity="1.000000" stroke="#000000" stroke-linecap="round" stroke-linejoin="round" stroke-width="6.000000"
	d="
M463.500000,32.500000 
	C463.500000,39.166668 463.500000,45.833332 463.500000,52.500000 
"/>
<path fill="none" opacity="1.000000" stroke="#000000" stroke-linecap="round" stroke-linejoin="round" stroke-width="6.000000"
	d="
M264.500000,32.500000 
	C264.500000,39.166668 264.500000,45.833332 264.500000,52.500000 
"/>
<path fill="none" opacity="1.000000" stroke="#000000" stroke-linecap="round" stroke-linejoin="round" stroke-width="6.000000"
	d="
M434.500000,32.500000 
	C434.500000,42.833332 434.500000,53.166668 434.500000,63.500000 
"/>
<path fill="none" opacity="1.000000" stroke="#000000" stroke-linecap="round" stroke-linejoin="round" stroke-width="4.000000"
	d="
M138.500000,42.500000 
	C137.833328,41.333336 136.972000,40.234249 136.538834,38.986519 
	C135.502960,36.002686 133.523239,34.912552 130.500000,35.500000 
"/>
<path fill="none" opacity="1.000000" stroke="#000000" stroke-linecap="round" stroke-linejoin="round" stroke-width="3.000000"
	d="
M273.500000,32.500000 
	C269.922272,32.380341 269.036865,37.047035 265.500000,37.000000 
"/>
<path fill="none" opacity="1.000000" stroke="#000000" stroke-linecap="round" stroke-linejoin="round" stroke-width="3.000000"
	d="
M584.750000,32.000000 
	C582.017090,33.043491 580.453674,36.352985 577.000000,36.000000 
"/>
<path fill="none" opacity="1.000000" stroke="#000000" stroke-linecap="round" stroke-linejoin="round" stroke-width="3.000000"
	d="
M471.750000,32.000000 
	C468.916595,33.062389 467.734833,36.519684 464.500000,37.000000 
"/>
<path fill="none" opacity="1.000000" stroke="#000000" stroke-linecap="round" stroke-linejoin="round" stroke-width="5.000000"
	d="
M71.000000,32.000000 
	C67.666664,32.000000 64.333336,32.000000 61.000000,32.000000 
"/>
<path fill="none" opacity="1.000000" stroke="#000000" stroke-linecap="round" stroke-linejoin="round" stroke-width="1.000000"
	d="
M141.000000,43.999996 
	C140.500000,43.666664 140.000000,43.333332 139.500000,42.999996 
"/>
<path fill="none" opacity="1.000000" stroke="#000000" stroke-linecap="round" stroke-linejoin="round" stroke-width="3.000000"
	d="
M131.000000,22.000000 
	C125.077347,24.581985 120.529305,28.055672 120.946999,35.502972 
	C121.251007,40.923325 125.065819,46.242111 130.500000,48.000000 
	C134.689560,49.355270 142.081024,46.296734 145.000015,42.000004 
	C147.399200,38.468403 146.918625,30.443739 143.986267,27.011736 
	C140.721039,23.190145 136.595566,21.344414 131.500000,22.000000 
"/>
<path fill="none" opacity="1.000000" stroke="#000000" stroke-linecap="round" stroke-linejoin="round" stroke-width="5.000000"
	d="
M369.500000,32.000000 
	C362.033691,35.663956 359.886414,40.188541 362.500031,46.749989 
	C364.231354,51.096489 368.413635,53.710445 372.500000,53.000004 
	C377.083038,52.203209 380.375854,48.293003 380.500031,43.500000 
	C380.699738,35.790562 377.495880,32.281605 370.000000,32.000000 
"/>
</svg>