<svg version="1.1" id="Layer_1" xmlns="http://www.w3.org/2000/svg" xmlns:xlink="http://www.w3.org/1999/xlink" x="0px" y="0px"
	 width="100%" viewBox="0 0 480 104" enable-background="new 0 0 480 104" xml:space="preserve">
<path fill="#000000" opacity="1.000000" stroke="none" 
	d="
M1.000000,26.000000 
	C1.000000,17.670055 1.000000,9.340112 1.000000,1.007625 
	C160.931534,1.005084 320.863068,1.005084 480.897308,1.005084 
	C480.897308,35.583839 480.897308,70.168083 480.897308,104.876160 
	C321.000061,104.876160 161.000046,104.876160 1.000000,104.876160 
	C1.000000,100.611473 1.000000,96.279861 1.440966,91.285454 
	C12.587546,90.693031 23.293161,90.763420 34.462685,90.903793 
	C41.284367,90.927177 47.642136,90.880585 54.460823,90.903915 
	C58.849720,90.973831 62.777706,90.973831 66.664047,90.973831 
	C66.664047,87.681129 66.664047,84.965767 66.664047,82.168144 
	C57.219322,82.168144 48.111000,82.168144 38.538868,82.096886 
	C31.716965,82.073074 25.358870,82.120522 18.567572,82.097672 
	C15.795229,81.010384 12.318888,84.087288 10.902700,79.549408 
	C10.926101,76.065590 10.879663,73.031525 10.902969,69.541481 
	C10.926063,65.389587 10.879411,61.693668 10.902405,57.539242 
	C10.926616,53.052891 10.881182,49.025040 10.905658,44.533569 
	C10.975568,38.196922 10.975568,32.323902 10.975568,26.000000 
	C7.372720,26.000000 4.186360,26.000000 1.000000,26.000000 
M28.975677,46.078728 
	C28.927517,41.720158 28.879358,37.361588 28.974846,32.082283 
	C28.981609,28.596741 29.305828,25.067636 28.836508,21.647423 
	C28.652693,20.307835 26.891375,18.709866 25.481222,18.142609 
	C23.973061,17.535925 22.031815,18.005850 20.165857,18.005850 
	C20.165857,22.756529 20.165857,26.879667 20.026253,31.922625 
	C20.071756,36.281639 20.117262,40.640656 20.021486,45.911739 
	C20.069715,49.607594 20.117947,53.303444 20.022552,57.924614 
	C20.022552,62.838871 20.022552,67.753128 20.022552,72.720764 
	C30.281431,72.720764 39.973732,72.720764 49.687744,72.720764 
	C49.687744,70.048721 49.687744,67.669174 49.687744,64.862450 
	C42.653152,64.862450 35.922901,64.862450 29.165737,64.862450 
	C29.037785,62.618271 28.934587,60.808311 28.970901,58.086128 
	C28.925415,54.390236 28.879930,50.694347 28.975677,46.078728 
M59.021687,60.919693 
	C59.021687,64.844872 59.021687,68.770050 59.021687,72.677200 
	C61.965786,72.677200 64.349037,72.677200 66.836288,72.677200 
	C66.836288,68.572197 66.836288,64.785446 66.976669,60.073029 
	C66.928986,54.716316 66.881310,49.359604 66.977486,43.075962 
	C66.977486,37.498516 66.977486,31.921070 66.977486,26.275984 
	C56.727142,26.275984 47.034069,26.275984 37.310768,26.275984 
	C37.310768,28.944576 37.310768,31.324213 37.310768,34.155842 
	C44.661499,34.155842 51.710678,34.155842 59.165958,34.155842 
	C59.165958,37.409367 59.165958,40.205750 59.026684,43.927975 
	C59.072411,49.284573 59.118137,54.641167 59.021687,60.919693 
M169.632523,42.963032 
	C171.702576,43.387783 173.925507,43.466293 175.814835,44.300396 
	C182.191635,47.115639 182.146347,47.218227 184.862366,41.084984 
	C177.850876,33.170628 160.344131,34.443233 154.015106,42.770687 
	C148.872910,49.536572 147.445862,59.663033 153.052109,68.807190 
	C156.358353,74.199905 165.703934,78.010696 173.435181,76.868141 
	C182.792206,75.485336 186.882065,71.541405 186.882355,63.900734 
	C186.882797,53.130981 186.882782,53.130981 175.668427,53.133942 
	C168.699097,53.135780 168.699097,53.135780 169.468506,60.844238 
	C172.507629,60.844238 175.597382,60.844238 179.781189,60.844238 
	C178.893234,63.658867 178.870880,66.613480 177.402191,67.849518 
	C172.823944,71.702553 162.923920,69.235382 159.879242,63.961121 
	C154.795975,55.155407 158.278656,46.984241 169.632523,42.963032 
M226.015244,47.430260 
	C226.015244,48.879929 226.015244,50.329601 226.015244,51.919498 
	C219.826416,51.919498 214.096588,51.919498 207.931335,51.919498 
	C207.931335,46.644035 207.931335,41.562687 207.931335,36.422195 
	C205.110550,36.422195 202.735321,36.422195 200.479736,36.422195 
	C200.479736,49.755001 200.479736,62.793293 200.479736,75.711655 
	C203.103531,75.711655 205.372406,75.711655 208.036407,75.711655 
	C208.036407,70.393166 208.036407,65.310913 208.036407,60.143131 
	C214.184402,60.143131 219.915955,60.143131 226.053986,60.143131 
	C226.053986,65.436630 226.053986,70.521271 226.053986,75.659332 
	C228.849335,75.659332 231.226196,75.659332 233.865646,75.659332 
	C233.865646,64.567596 233.865891,53.777264 233.865570,42.986931 
	C233.865341,35.618206 233.864990,35.618206 226.015244,36.626076 
	C226.015244,39.859859 226.015244,43.157047 226.015244,47.430260 
M438.956787,71.211594 
	C443.683044,63.322029 439.912659,56.616646 431.897491,54.073360 
	C428.973389,53.145523 425.760986,53.004623 422.969879,51.821285 
	C421.062408,51.012573 418.888794,49.286980 418.260406,47.476349 
	C417.721405,45.923050 418.639648,42.677364 419.922607,41.942856 
	C422.118530,40.685703 425.220795,40.103317 427.726898,40.523415 
	C430.948059,41.063366 433.956512,42.872288 437.125488,44.162628 
	C438.099731,42.757580 438.955170,41.523865 439.769287,40.349693 
	C433.448395,34.793884 424.758972,32.904045 418.158478,36.689468 
	C415.386597,38.279171 413.144806,42.052990 412.212158,45.281662 
	C410.951569,49.645660 412.442963,53.897297 417.347382,55.683968 
	C421.740479,57.284367 426.433014,58.189747 430.610596,60.198139 
	C432.541962,61.126656 434.766296,64.026962 434.649200,65.894844 
	C434.536621,67.690636 431.843262,70.236084 429.810547,70.828796 
	C423.764496,72.591751 418.494293,70.294945 414.157440,65.811371 
	C412.458984,67.230965 411.004944,68.446266 409.447937,69.747643 
	C422.060211,78.730476 431.156677,79.261757 438.956787,71.211594 
M346.654022,40.019180 
	C343.913452,44.293682 341.172852,48.568184 338.416687,52.867020 
	C335.966614,49.094425 333.603088,45.415924 331.200073,41.763435 
	C326.906311,35.237236 326.896332,35.243809 318.955872,36.838539 
	C325.595917,49.204315 338.379547,59.090019 333.523804,75.704605 
	C336.912415,75.704605 339.291260,75.704605 341.990051,75.704605 
	C341.990051,73.647331 342.128906,71.834541 341.964478,70.049690 
	C341.432190,64.272293 342.721008,59.324169 346.457886,54.542969 
	C350.789062,49.001358 354.124481,42.681511 358.294525,36.060650 
	C353.973907,36.922905 349.370758,33.826523 346.654022,40.019180 
M377.598969,37.932404 
	C370.202240,45.267120 371.523010,52.854492 381.178040,56.961021 
	C384.709747,58.463135 388.791138,58.703720 392.266418,60.295559 
	C394.150116,61.158382 396.773010,64.057289 396.429321,65.322403 
	C395.836060,67.506157 393.473022,70.240150 391.351410,70.782349 
	C385.239380,72.344376 379.545013,70.678909 374.756927,65.422234 
	C373.607635,67.272789 372.711975,68.715004 371.703491,70.338852 
	C377.217316,75.174316 383.356476,77.517555 390.332672,76.915855 
	C396.559113,76.378830 401.735168,71.321548 401.999329,66.212692 
	C402.349884,59.432693 399.341980,55.841324 392.020966,53.910709 
	C388.747559,53.047489 385.391876,52.148525 382.432190,50.586319 
	C380.890228,49.772446 379.362793,47.534912 379.248016,45.844086 
	C379.151917,44.428341 380.806091,42.398819 382.226868,41.465851 
	C386.892792,38.401947 391.144196,40.666508 395.503296,42.808414 
	C396.719177,43.405857 398.731812,42.381733 400.378906,42.101513 
	C399.780273,40.764690 399.548676,38.770020 398.523376,38.197933 
	C391.938232,34.523796 385.105164,33.280216 377.598969,37.932404 
M265.891113,48.584522 
	C265.891113,47.142082 265.891113,45.699638 265.891113,43.855251 
	C270.097687,43.855251 273.843994,43.855251 277.601868,43.855251 
	C277.601868,41.067982 277.601868,38.700172 277.601868,36.465668 
	C266.900482,36.465668 256.529053,36.465668 246.258713,36.465668 
	C246.258713,39.067341 246.258713,41.330288 246.258713,43.988052 
	C250.247849,43.988052 253.988449,43.988052 258.086426,43.988052 
	C258.086426,54.784908 258.086426,65.176506 258.086426,75.681107 
	C260.851410,75.681107 263.225647,75.681107 265.891113,75.681107 
	C265.891113,66.792107 265.891113,58.181946 265.891113,48.584522 
M100.581596,69.061821 
	C99.131889,69.061821 97.682182,69.061821 95.871765,69.061821 
	C95.871765,67.805244 95.871788,67.013039 95.871758,66.220825 
	C95.871407,57.389900 95.791306,48.557854 95.915314,39.728676 
	C95.956924,36.765766 94.627907,35.923264 91.968719,36.103867 
	C89.712120,36.257122 87.087051,35.509930 87.105774,39.284660 
	C87.165848,51.392956 87.128105,63.501732 87.128105,75.623703 
	C97.023628,75.623703 106.414055,75.623703 115.670517,75.623703 
	C115.670517,73.331749 115.670517,71.388245 115.670517,69.061821 
	C110.829597,69.061821 106.198158,69.061821 100.581596,69.061821 
M292.745392,75.960884 
	C301.015472,75.960884 309.285553,75.960884 317.702881,75.960884 
	C317.702881,73.492577 317.702881,71.447433 317.702881,69.000580 
	C311.053436,69.000580 304.650146,69.000580 297.845520,69.000580 
	C297.845520,57.881062 297.845520,47.162430 297.845520,36.447144 
	C295.042114,36.447144 292.668121,36.447144 290.084930,36.447144 
	C290.084930,48.874504 290.046570,60.988815 290.158691,73.101730 
	C290.167542,74.057068 291.222351,75.002724 292.745392,75.960884 
M459.567535,76.000084 
	C465.001434,76.000084 470.435364,76.000084 476.158508,76.000084 
	C475.928375,73.921448 475.774200,72.528946 475.587799,70.845161 
	C469.620514,70.845161 464.020264,70.845161 457.956757,70.845161 
	C457.956757,59.124966 457.956757,47.732998 457.956757,36.307163 
	C455.752838,36.307163 454.032288,36.307163 452.331421,36.307163 
	C452.331421,49.654411 452.331421,62.695835 452.331421,76.000084 
	C454.633667,76.000084 456.610870,76.000084 459.567535,76.000084 
M130.606689,75.963982 
	C132.226990,75.963982 133.847275,75.963982 135.686859,75.963982 
	C135.686859,62.553577 135.686859,49.523296 135.686859,36.418739 
	C133.081848,36.418739 130.708633,36.418739 128.080124,36.418739 
	C128.080124,48.975708 128.049576,61.244480 128.148819,73.512199 
	C128.155426,74.330406 129.146698,75.140640 130.606689,75.963982 
z"/>
<path fill="#2BAACC" opacity="1.000000" stroke="none" 
	d="
M33.998772,90.833817 
	C23.293161,90.763420 12.587546,90.693031 1.440966,90.811325 
	C1.000000,86.975456 1.000000,82.950912 1.399254,78.459549 
	C4.809960,78.661537 7.821411,79.330345 10.832862,79.999146 
	C12.318888,84.087288 15.795229,81.010384 18.624062,82.446960 
	C20.692533,83.854721 22.215353,84.950226 23.861828,85.808525 
	C27.205423,87.551506 30.615877,89.166229 33.998772,90.833817 
z"/>
<path fill="#2FD5AF" opacity="1.000000" stroke="none" 
	d="
M1.000000,26.467939 
	C4.186360,26.000000 7.372720,26.000000 10.975568,26.000000 
	C10.975568,32.323902 10.975568,38.196922 10.530827,44.524704 
	C7.057390,44.652977 4.028695,44.326488 1.000000,44.000000 
	C1.000000,38.311958 1.000000,32.623920 1.000000,26.467939 
z"/>
<path fill="#2CC9B9" opacity="1.000000" stroke="none" 
	d="
M1.000000,44.463184 
	C4.028695,44.326488 7.057390,44.652977 10.460917,44.988327 
	C10.881182,49.025040 10.926616,53.052891 10.490299,57.539753 
	C7.005699,57.665844 4.002850,57.332920 1.000000,57.000000 
	C1.000000,52.975456 1.000000,48.950912 1.000000,44.463184 
z"/>
<path fill="#2CBDC0" opacity="1.000000" stroke="none" 
	d="
M1.000000,57.458069 
	C4.002850,57.332920 7.005699,57.665844 10.420654,57.998257 
	C10.879411,61.693668 10.926063,65.389587 10.521951,69.531830 
	C7.047457,69.318764 4.023728,68.659386 0.999999,68.000000 
	C1.000000,64.638710 1.000000,61.277424 1.000000,57.458069 
z"/>
<path fill="#2CB3C6" opacity="1.000000" stroke="none" 
	d="
M0.999999,68.454117 
	C4.023728,68.659386 7.047457,69.318764 10.452205,69.987801 
	C10.879663,73.031525 10.926101,76.065590 10.902700,79.549408 
	C7.821411,79.330345 4.809960,78.661537 1.399254,77.996368 
	C1.000000,74.969406 1.000000,71.938812 0.999999,68.454117 
z"/>
<path fill="#F0F0F1" opacity="1.000000" stroke="none" 
	d="
M169.225433,42.975533 
	C158.278656,46.984241 154.795975,55.155407 159.879242,63.961121 
	C162.923920,69.235382 172.823944,71.702553 177.402191,67.849518 
	C178.870880,66.613480 178.893234,63.658867 179.781189,60.844238 
	C175.597382,60.844238 172.507629,60.844238 169.468506,60.844238 
	C168.699097,53.135780 168.699097,53.135780 175.668427,53.133942 
	C186.882782,53.130981 186.882797,53.130981 186.882355,63.900734 
	C186.882065,71.541405 182.792206,75.485336 173.435181,76.868141 
	C165.703934,78.010696 156.358353,74.199905 153.052109,68.807190 
	C147.445862,59.663033 148.872910,49.536572 154.015106,42.770687 
	C160.344131,34.443233 177.850876,33.170628 184.862366,41.084984 
	C182.146347,47.218227 182.191635,47.115639 175.814835,44.300396 
	C173.925507,43.466293 171.702576,43.387783 169.225433,42.975533 
z"/>
<path fill="#F1F1F2" opacity="1.000000" stroke="none" 
	d="
M226.015244,46.942249 
	C226.015244,43.157047 226.015244,39.859859 226.015244,36.626076 
	C233.864990,35.618206 233.865341,35.618206 233.865570,42.986931 
	C233.865891,53.777264 233.865646,64.567596 233.865646,75.659332 
	C231.226196,75.659332 228.849335,75.659332 226.053986,75.659332 
	C226.053986,70.521271 226.053986,65.436630 226.053986,60.143131 
	C219.915955,60.143131 214.184402,60.143131 208.036407,60.143131 
	C208.036407,65.310913 208.036407,70.393166 208.036407,75.711655 
	C205.372406,75.711655 203.103531,75.711655 200.479736,75.711655 
	C200.479736,62.793293 200.479736,49.755001 200.479736,36.422195 
	C202.735321,36.422195 205.110550,36.422195 207.931335,36.422195 
	C207.931335,41.562687 207.931335,46.644035 207.931335,51.919498 
	C214.096588,51.919498 219.826416,51.919498 226.015244,51.919498 
	C226.015244,50.329601 226.015244,48.879929 226.015244,46.942249 
z"/>
<path fill="#2DC2BD" opacity="1.000000" stroke="none" 
	d="
M438.773804,71.552460 
	C431.156677,79.261757 422.060211,78.730476 409.447937,69.747643 
	C411.004944,68.446266 412.458984,67.230965 414.157440,65.811371 
	C418.494293,70.294945 423.764496,72.591751 429.810547,70.828796 
	C431.843262,70.236084 434.536621,67.690636 434.649200,65.894844 
	C434.766296,64.026962 432.541962,61.126656 430.610596,60.198139 
	C426.433014,58.189747 421.740479,57.284367 417.347382,55.683968 
	C412.442963,53.897297 410.951569,49.645660 412.212158,45.281662 
	C413.144806,42.052990 415.386597,38.279171 418.158478,36.689468 
	C424.758972,32.904045 433.448395,34.793884 439.769287,40.349693 
	C438.955170,41.523865 438.099731,42.757580 437.125488,44.162628 
	C433.956512,42.872288 430.948059,41.063366 427.726898,40.523415 
	C425.220795,40.103317 422.118530,40.685703 419.922607,41.942856 
	C418.639648,42.677364 417.721405,45.923050 418.260406,47.476349 
	C418.888794,49.286980 421.062408,51.012573 422.969879,51.821285 
	C425.760986,53.004623 428.973389,53.145523 431.897491,54.073360 
	C439.912659,56.616646 443.683044,63.322029 438.773804,71.552460 
z"/>
<path fill="#F0F0F1" opacity="1.000000" stroke="none" 
	d="
M346.863190,39.695976 
	C349.370758,33.826523 353.973907,36.922905 358.294525,36.060650 
	C354.124481,42.681511 350.789062,49.001358 346.457886,54.542969 
	C342.721008,59.324169 341.432190,64.272293 341.964478,70.049690 
	C342.128906,71.834541 341.990051,73.647331 341.990051,75.704605 
	C339.291260,75.704605 336.912415,75.704605 333.523804,75.704605 
	C338.379547,59.090019 325.595917,49.204315 318.955872,36.838539 
	C326.896332,35.243809 326.906311,35.237236 331.200073,41.763435 
	C333.603088,45.415924 335.966614,49.094425 338.416687,52.867020 
	C341.172852,48.568184 343.913452,44.293682 346.863190,39.695976 
z"/>
<path fill="#2DC2BD" opacity="1.000000" stroke="none" 
	d="
M377.869019,37.654648 
	C385.105164,33.280216 391.938232,34.523796 398.523376,38.197933 
	C399.548676,38.770020 399.780273,40.764690 400.378906,42.101505 
	C398.731812,42.381733 396.719177,43.405857 395.503296,42.808414 
	C391.144196,40.666508 386.892792,38.401947 382.226868,41.465851 
	C380.806091,42.398819 379.151917,44.428341 379.248016,45.844086 
	C379.362793,47.534912 380.890228,49.772446 382.432190,50.586319 
	C385.391876,52.148525 388.747559,53.047489 392.020966,53.910709 
	C399.341980,55.841324 402.349884,59.432693 401.999329,66.212692 
	C401.735168,71.321548 396.559113,76.378830 390.332672,76.915855 
	C383.356476,77.517555 377.217316,75.174316 371.703491,70.338852 
	C372.711975,68.715004 373.607635,67.272789 374.756927,65.422234 
	C379.545013,70.678909 385.239380,72.344376 391.351410,70.782349 
	C393.473022,70.240150 395.836060,67.506157 396.429321,65.322403 
	C396.773010,64.057289 394.150116,61.158382 392.266418,60.295559 
	C388.791138,58.703720 384.709747,58.463135 381.178040,56.961021 
	C371.523010,52.854492 370.202240,45.267120 377.869019,37.654648 
z"/>
<path fill="#F1F1F2" opacity="1.000000" stroke="none" 
	d="
M265.891113,49.078156 
	C265.891113,58.181946 265.891113,66.792107 265.891113,75.681107 
	C263.225647,75.681107 260.851410,75.681107 258.086426,75.681107 
	C258.086426,65.176506 258.086426,54.784908 258.086426,43.988052 
	C253.988449,43.988052 250.247849,43.988052 246.258713,43.988052 
	C246.258713,41.330288 246.258713,39.067341 246.258713,36.465668 
	C256.529053,36.465668 266.900482,36.465668 277.601868,36.465668 
	C277.601868,38.700172 277.601868,41.067982 277.601868,43.855251 
	C273.843994,43.855251 270.097687,43.855251 265.891113,43.855251 
	C265.891113,45.699638 265.891113,47.142082 265.891113,49.078156 
z"/>
<path fill="#EEEEEF" opacity="1.000000" stroke="none" 
	d="
M101.074158,69.061821 
	C106.198158,69.061821 110.829597,69.061821 115.670517,69.061821 
	C115.670517,71.388245 115.670517,73.331749 115.670517,75.623703 
	C106.414055,75.623703 97.023628,75.623703 87.128105,75.623703 
	C87.128105,63.501732 87.165848,51.392956 87.105774,39.284660 
	C87.087051,35.509930 89.712120,36.257122 91.968719,36.103867 
	C94.627907,35.923264 95.956924,36.765766 95.915314,39.728676 
	C95.791306,48.557854 95.871407,57.389900 95.871758,66.220825 
	C95.871788,67.013039 95.871765,67.805244 95.871765,69.061821 
	C97.682182,69.061821 99.131889,69.061821 101.074158,69.061821 
z"/>
<path fill="#F2F2F3" opacity="1.000000" stroke="none" 
	d="
M292.268219,75.956879 
	C291.222351,75.002724 290.167542,74.057068 290.158691,73.101730 
	C290.046570,60.988815 290.084930,48.874504 290.084930,36.447144 
	C292.668121,36.447144 295.042114,36.447144 297.845520,36.447144 
	C297.845520,47.162430 297.845520,57.881062 297.845520,69.000580 
	C304.650146,69.000580 311.053436,69.000580 317.702881,69.000580 
	C317.702881,71.447433 317.702881,73.492577 317.702881,75.960884 
	C309.285553,75.960884 301.015472,75.960884 292.268219,75.956879 
z"/>
<path fill="#2DC2BD" opacity="1.000000" stroke="none" 
	d="
M459.077820,76.000084 
	C456.610870,76.000084 454.633667,76.000084 452.331421,76.000084 
	C452.331421,62.695835 452.331421,49.654411 452.331421,36.307163 
	C454.032288,36.307163 455.752838,36.307163 457.956757,36.307163 
	C457.956757,47.732998 457.956757,59.124966 457.956757,70.845161 
	C464.020264,70.845161 469.620514,70.845161 475.587799,70.845161 
	C475.774200,72.528946 475.928375,73.921448 476.158508,76.000084 
	C470.435364,76.000084 465.001434,76.000084 459.077820,76.000084 
z"/>
<path fill="#F0F1F1" opacity="1.000000" stroke="none" 
	d="
M130.143341,75.959282 
	C129.146698,75.140640 128.155426,74.330406 128.148819,73.512199 
	C128.049576,61.244480 128.080124,48.975708 128.080124,36.418739 
	C130.708633,36.418739 133.081848,36.418739 135.686859,36.418739 
	C135.686859,49.523296 135.686859,62.553577 135.686859,75.963982 
	C133.847275,75.963982 132.226990,75.963982 130.143341,75.959282 
z"/>
<path fill="#39D9A1" opacity="1.000000" stroke="none" 
	d="
M59.165958,43.002129 
	C59.165958,40.205750 59.165958,37.409367 59.165958,34.155842 
	C51.710678,34.155842 44.661499,34.155842 37.310768,34.155842 
	C37.310768,31.324213 37.310768,28.944576 37.310768,26.275984 
	C47.034069,26.275984 56.727142,26.275984 66.977486,26.275984 
	C66.977486,31.921070 66.977486,37.498516 66.510239,43.538574 
	C63.750641,43.668167 61.458302,43.335148 59.165958,43.002129 
z"/>
<path fill="#2CC2BD" opacity="1.000000" stroke="none" 
	d="
M28.831390,58.998352 
	C28.934587,60.808311 29.037785,62.618271 29.165737,64.862450 
	C35.922901,64.862450 42.653152,64.862450 49.687744,64.862450 
	C49.687744,67.669174 49.687744,70.048721 49.687744,72.720764 
	C39.973732,72.720764 30.281431,72.720764 20.022552,72.720764 
	C20.022552,67.753128 20.022552,62.838871 20.459816,57.517395 
	C23.541851,57.739563 26.186621,58.368958 28.831390,58.998352 
z"/>
<path fill="#2CB7C4" opacity="1.000000" stroke="none" 
	d="
M39.002678,82.168152 
	C48.111000,82.168144 57.219322,82.168144 66.664047,82.168144 
	C66.664047,84.965767 66.664047,87.681129 66.664047,90.973831 
	C62.777706,90.973831 58.849720,90.973831 54.384636,90.564651 
	C50.808754,88.791031 47.701405,87.557716 44.754787,86.016998 
	C42.722279,84.954247 40.912174,83.466156 39.002678,82.168152 
z"/>
<path fill="#2BB1C8" opacity="1.000000" stroke="none" 
	d="
M38.538864,82.096893 
	C40.912174,83.466156 42.722279,84.954247 44.754787,86.016998 
	C47.701405,87.557716 50.808754,88.791031 53.923725,90.494736 
	C47.642136,90.880585 41.284367,90.927177 34.462685,90.903793 
	C30.615877,89.166229 27.205423,87.551506 23.861828,85.808525 
	C22.215353,84.950226 20.692533,83.854721 19.057266,82.517273 
	C25.358870,82.120522 31.716965,82.073074 38.538864,82.096893 
z"/>
<path fill="#30D6AE" opacity="1.000000" stroke="none" 
	d="
M59.096321,43.465050 
	C61.458302,43.335148 63.750641,43.668167 66.438309,44.002037 
	C66.881310,49.359604 66.928986,54.716316 66.510910,60.536236 
	C63.751389,60.665550 61.457626,60.331657 59.163864,59.997765 
	C59.118137,54.641167 59.072411,49.284573 59.096321,43.465050 
z"/>
<path fill="#30D6AD" opacity="1.000000" stroke="none" 
	d="
M28.831198,33.003017 
	C28.879358,37.361588 28.927517,41.720158 28.521851,46.537804 
	C25.432938,46.331146 22.797852,45.665409 20.162767,44.999672 
	C20.117262,40.640656 20.071756,36.281639 20.470287,31.471523 
	C23.553280,31.681288 26.192238,32.342152 28.831198,33.003017 
z"/>
<path fill="#37D8A3" opacity="1.000000" stroke="none" 
	d="
M28.903023,32.542648 
	C26.192238,32.342152 23.553280,31.681288 20.540089,31.011616 
	C20.165857,26.879667 20.165857,22.756529 20.165857,18.005850 
	C22.031815,18.005850 23.973061,17.535925 25.481222,18.142609 
	C26.891375,18.709866 28.652693,20.307835 28.836508,21.647423 
	C29.305828,25.067636 28.981609,28.596741 28.903023,32.542648 
z"/>
<path fill="#2DCEB5" opacity="1.000000" stroke="none" 
	d="
M20.092127,45.455704 
	C22.797852,45.665409 25.432938,46.331146 28.451233,46.997669 
	C28.879930,50.694347 28.925415,54.390236 28.901146,58.542240 
	C26.186621,58.368958 23.541851,57.739563 20.531628,57.054733 
	C20.117947,53.303444 20.069715,49.607594 20.092127,45.455704 
z"/>
<path fill="#2DCCB7" opacity="1.000000" stroke="none" 
	d="
M59.092773,60.458733 
	C61.457626,60.331657 63.751389,60.665550 66.440720,60.999069 
	C66.836288,64.785446 66.836288,68.572197 66.836288,72.677200 
	C64.349037,72.677200 61.965786,72.677200 59.021687,72.677200 
	C59.021687,68.770050 59.021687,64.844872 59.092773,60.458733 
z"/>
</svg>