<svg version="1.1" id="Layer_1" xmlns="http://www.w3.org/2000/svg" xmlns:xlink="http://www.w3.org/1999/xlink" x="0px" y="0px"
	 width="100%" viewBox="0 0 270 106" enable-background="new 0 0 270 106" xml:space="preserve">
<path fill="#FDFEFE" opacity="1.000000" stroke="none" 
	d="
M176.000000,107.000000 
	C117.333336,107.000000 59.166672,107.000000 1.000008,107.000000 
	C1.000005,71.666672 1.000005,36.333344 1.000003,1.000013 
	C90.999992,1.000008 180.999985,1.000008 271.000000,1.000004 
	C271.000000,36.333321 271.000000,71.666641 271.000000,106.999985 
	C239.500000,107.000000 208.000000,107.000000 176.000000,107.000000 
M34.585583,59.905777 
	C39.872623,65.216774 45.042461,70.651543 50.481712,75.801781 
	C55.319195,80.382225 62.228691,80.079407 66.596191,75.448845 
	C70.894753,70.891373 70.767975,65.294456 64.919067,59.047993 
	C64.617165,62.149338 64.678871,64.070938 64.197975,65.845497 
	C63.509350,68.386612 63.083866,71.723434 61.305672,73.021988 
	C59.808971,74.114975 55.677845,73.722298 54.206261,72.366455 
	C47.238640,65.946884 40.423100,59.280556 34.256428,52.098488 
	C29.068777,46.056644 30.700808,36.924587 36.981148,31.548294 
	C43.253925,26.178476 52.342281,26.585386 58.255924,32.500820 
	C64.217422,38.464127 64.763855,47.130646 59.444992,53.228504 
	C57.478294,55.483250 55.240456,57.499783 53.159088,59.656624 
	C50.278072,62.642113 50.291344,62.654919 54.555672,65.683304 
	C57.059696,62.972027 59.667816,60.185459 62.234543,57.361267 
	C68.057800,50.953892 69.573982,43.702770 66.175941,35.661690 
	C62.795128,27.661362 56.510746,23.524233 47.974529,23.023478 
	C39.501167,22.526409 31.515354,27.568996 28.317898,35.020969 
	C24.516663,43.880108 26.324049,51.503162 34.585583,59.905777 
M90.183052,66.405678 
	C97.319214,71.089790 104.578697,71.209221 111.630699,66.467529 
	C118.030968,62.164062 120.724815,53.577896 118.622101,45.601807 
	C116.761940,38.545803 110.839928,33.343090 103.460831,32.282051 
	C95.816673,31.182899 88.156769,35.140366 84.811554,41.917141 
	C80.818443,50.006416 82.646736,59.207596 90.183052,66.405678 
M219.102219,40.225510 
	C218.738815,39.294415 218.382156,38.360611 218.010635,37.432766 
	C217.110291,35.184177 216.795395,32.716831 213.203537,32.801487 
	C209.943329,32.878323 209.529510,34.993755 208.683136,37.141441 
	C206.607910,42.407318 204.483963,47.653965 202.386887,52.911247 
	C200.327972,58.072880 198.277969,63.238071 196.150665,68.586205 
	C201.433136,69.140114 201.784195,69.236115 203.048172,64.614044 
	C204.273254,60.134144 206.542755,58.159897 211.172318,59.041824 
	C212.136932,59.225586 213.194565,59.220455 214.161545,59.042564 
	C219.481171,58.063934 222.615738,60.167030 223.690384,65.482811 
	C224.426285,69.123009 226.631088,69.896202 230.274567,68.332443 
	C226.613556,59.142582 222.990494,50.047955 219.102219,40.225510 
M184.701843,44.271942 
	C183.383041,44.123135 182.063492,43.840641 180.745544,43.847816 
	C173.653793,43.886414 168.677490,48.838444 168.321396,56.126549 
	C167.957733,63.569736 172.742249,69.256607 179.859375,69.840591 
	C185.908463,70.336922 191.140762,66.818230 192.841064,61.110485 
	C194.935486,54.079788 192.258408,48.110222 184.701843,44.271942 
M130.750458,44.849266 
	C124.616791,48.414265 122.243065,53.720928 123.854019,60.266850 
	C125.246849,65.926460 129.480530,69.536835 135.112640,69.867928 
	C140.603363,70.190712 144.450500,67.657738 146.461960,62.356052 
	C144.377090,60.380650 142.927307,60.411942 140.953079,62.976517 
	C138.507660,66.153168 133.574051,65.974632 130.783035,63.219193 
	C127.688683,60.164284 127.653610,53.555439 130.715210,50.438805 
	C133.580200,47.522308 138.310638,47.347607 140.756882,50.732868 
	C142.901947,53.701336 144.441849,53.140358 146.588776,51.314358 
	C143.460342,44.492336 139.658325,42.817883 130.750458,44.849266 
M159.035080,61.857208 
	C159.035080,57.723976 159.035080,53.590748 159.035080,49.377392 
	C161.330276,48.480507 165.802780,49.903431 163.735046,44.910366 
	C162.174149,44.605282 160.642685,44.305950 158.892090,43.963791 
	C158.892090,41.521351 158.892090,39.400223 158.892090,37.091484 
	C157.372665,37.091484 156.153976,37.091484 154.733566,37.091484 
	C154.486160,40.553139 154.920059,44.302460 150.223022,44.800758 
	C150.374832,46.133209 150.188538,47.661678 150.804855,48.724838 
	C151.176544,49.366016 152.795959,49.283871 154.064743,49.574932 
	C154.064743,52.025471 153.996719,54.172512 154.081223,56.313530 
	C154.198563,59.285851 153.565643,62.736790 154.873657,65.077843 
	C156.018860,67.127533 159.316315,68.150406 161.858887,69.105446 
	C162.412308,69.313332 163.798889,67.303139 164.657272,66.456940 
	C162.196106,64.777893 160.678833,63.742783 159.035080,61.857208 
M235.567902,65.109558 
	C235.170395,69.390923 237.181168,69.811417 240.542328,68.463043 
	C240.542328,56.606953 240.542328,45.043812 240.542328,33.202530 
	C238.860886,33.202530 237.451401,33.202530 236.116348,33.202530 
	C235.915390,33.700542 235.686783,34.004246 235.685165,34.309139 
	C235.632629,44.270149 235.601929,54.231281 235.567902,65.109558 
M26.572680,73.641441 
	C32.166145,80.356987 38.507034,81.047714 43.890305,74.474243 
	C41.825665,74.093903 40.262058,73.369957 38.879059,73.625076 
	C32.194592,74.858170 29.090366,71.770805 30.224869,65.123062 
	C30.486628,63.589252 29.502607,61.842842 28.849798,59.222672 
	C24.457184,64.328537 24.145931,68.492882 26.572680,73.641441 
z"/>
<path fill="#4E91F3" opacity="1.000000" stroke="none" 
	d="
M34.340942,59.649242 
	C26.324049,51.503162 24.516663,43.880108 28.317898,35.020969 
	C31.515354,27.568996 39.501167,22.526409 47.974529,23.023478 
	C56.510746,23.524233 62.795128,27.661362 66.175941,35.661690 
	C69.573982,43.702770 68.057800,50.953892 62.234543,57.361267 
	C59.667816,60.185459 57.059696,62.972027 54.555672,65.683304 
	C50.291344,62.654919 50.278072,62.642113 53.159088,59.656624 
	C55.240456,57.499783 57.478294,55.483250 59.444992,53.228504 
	C64.763855,47.130646 64.217422,38.464127 58.255924,32.500820 
	C52.342281,26.585386 43.253925,26.178476 36.981148,31.548294 
	C30.700808,36.924587 29.068777,46.056644 34.256428,52.098488 
	C40.423100,59.280556 47.238640,65.946884 54.206261,72.366455 
	C55.677845,73.722298 59.808971,74.114975 61.305672,73.021988 
	C63.083866,71.723434 63.509350,68.386612 64.197975,65.845497 
	C64.678871,64.070938 64.617165,62.149338 64.919067,59.047993 
	C70.767975,65.294456 70.894753,70.891373 66.596191,75.448845 
	C62.228691,80.079407 55.319195,80.382225 50.481712,75.801781 
	C45.042461,70.651543 39.872623,65.216774 34.340942,59.649242 
z"/>
<path fill="#314C79" opacity="1.000000" stroke="none" 
	d="
M89.887421,66.190117 
	C82.646736,59.207596 80.818443,50.006416 84.811554,41.917141 
	C88.156769,35.140366 95.816673,31.182899 103.460831,32.282051 
	C110.839928,33.343090 116.761940,38.545803 118.622101,45.601807 
	C120.724815,53.577896 118.030968,62.164062 111.630699,66.467529 
	C104.578697,71.209221 97.319214,71.089790 89.887421,66.190117 
M110.019951,61.535576 
	C114.684052,56.345459 114.954002,50.367435 112.596466,44.256966 
	C110.914635,39.897816 107.271477,37.521275 102.613853,36.987942 
	C96.620972,36.301708 91.539780,39.204235 89.244789,44.467590 
	C86.566238,50.610577 88.166847,58.515457 92.865295,62.348125 
	C97.504341,66.132332 103.331978,66.025917 110.019951,61.535576 
z"/>
<path fill="#2F4A79" opacity="1.000000" stroke="none" 
	d="
M219.234818,40.589417 
	C222.990494,50.047955 226.613556,59.142582 230.274567,68.332443 
	C226.631088,69.896202 224.426285,69.123009 223.690384,65.482811 
	C222.615738,60.167030 219.481171,58.063934 214.161545,59.042564 
	C213.194565,59.220455 212.136932,59.225586 211.172318,59.041824 
	C206.542755,58.159897 204.273254,60.134144 203.048172,64.614044 
	C201.784195,69.236115 201.433136,69.140114 196.150665,68.586205 
	C198.277969,63.238071 200.327972,58.072880 202.386887,52.911247 
	C204.483963,47.653965 206.607910,42.407318 208.683136,37.141441 
	C209.529510,34.993755 209.943329,32.878323 213.203537,32.801487 
	C216.795395,32.716831 217.110291,35.184177 218.010635,37.432766 
	C218.382156,38.360611 218.738815,39.294415 219.234818,40.589417 
M216.852295,47.675007 
	C215.744095,45.036514 214.635895,42.398018 212.994263,38.489517 
	C210.771301,44.427956 209.062286,48.993469 207.078674,54.292507 
	C209.721634,54.292507 211.515152,54.292503 213.308670,54.292503 
	C215.065338,54.292503 216.822006,54.292507 219.236404,54.292507 
	C218.337769,51.799767 217.726837,50.105049 216.852295,47.675007 
z"/>
<path fill="#2F4B79" opacity="1.000000" stroke="none" 
	d="
M185.071152,44.439972 
	C192.258408,48.110222 194.935486,54.079788 192.841064,61.110485 
	C191.140762,66.818230 185.908463,70.336922 179.859375,69.840591 
	C172.742249,69.256607 167.957733,63.569736 168.321396,56.126549 
	C168.677490,48.838444 173.653793,43.886414 180.745544,43.847816 
	C182.063492,43.840641 183.383041,44.123135 185.071152,44.439972 
M173.276611,56.592274 
	C173.540985,61.184483 175.172729,64.881538 180.281097,65.423347 
	C184.010788,65.818924 186.634140,63.833355 187.943497,60.305363 
	C189.825089,55.235554 187.468140,49.698875 182.919464,48.374123 
	C178.312439,47.032372 174.926666,49.662617 173.276611,56.592274 
z"/>
<path fill="#324C79" opacity="1.000000" stroke="none" 
	d="
M131.119171,44.677433 
	C139.658325,42.817883 143.460342,44.492336 146.588776,51.314358 
	C144.441849,53.140358 142.901947,53.701336 140.756882,50.732868 
	C138.310638,47.347607 133.580200,47.522308 130.715210,50.438805 
	C127.653610,53.555439 127.688683,60.164284 130.783035,63.219193 
	C133.574051,65.974632 138.507660,66.153168 140.953079,62.976517 
	C142.927307,60.411942 144.377090,60.380650 146.461960,62.356052 
	C144.450500,67.657738 140.603363,70.190712 135.112640,69.867928 
	C129.480530,69.536835 125.246849,65.926460 123.854019,60.266850 
	C122.243065,53.720928 124.616791,48.414265 131.119171,44.677433 
z"/>
<path fill="#2E4977" opacity="1.000000" stroke="none" 
	d="
M159.098328,62.282440 
	C160.678833,63.742783 162.196106,64.777893 164.657272,66.456940 
	C163.798889,67.303139 162.412308,69.313332 161.858887,69.105446 
	C159.316315,68.150406 156.018860,67.127533 154.873657,65.077843 
	C153.565643,62.736790 154.198563,59.285851 154.081223,56.313530 
	C153.996719,54.172512 154.064743,52.025471 154.064743,49.574932 
	C152.795959,49.283871 151.176544,49.366016 150.804855,48.724838 
	C150.188538,47.661678 150.374832,46.133209 150.223022,44.800758 
	C154.920059,44.302460 154.486160,40.553139 154.733566,37.091484 
	C156.153976,37.091484 157.372665,37.091484 158.892090,37.091484 
	C158.892090,39.400223 158.892090,41.521351 158.892090,43.963791 
	C160.642685,44.305950 162.174149,44.605282 163.735046,44.910366 
	C165.802780,49.903431 161.330276,48.480507 159.035080,49.377392 
	C159.035080,53.590748 159.035080,57.723976 159.098328,62.282440 
z"/>
<path fill="#344C7B" opacity="1.000000" stroke="none" 
	d="
M235.567932,64.650970 
	C235.601929,54.231281 235.632629,44.270149 235.685165,34.309139 
	C235.686783,34.004246 235.915390,33.700542 236.116348,33.202530 
	C237.451401,33.202530 238.860886,33.202530 240.542328,33.202530 
	C240.542328,45.043812 240.542328,56.606953 240.542328,68.463043 
	C237.181168,69.811417 235.170395,69.390923 235.567932,64.650970 
z"/>
<path fill="#4F92F4" opacity="1.000000" stroke="none" 
	d="
M26.369251,73.310074 
	C24.145931,68.492882 24.457184,64.328537 28.849798,59.222672 
	C29.502607,61.842842 30.486628,63.589252 30.224869,65.123062 
	C29.090366,71.770805 32.194592,74.858170 38.879059,73.625076 
	C40.262058,73.369957 41.825665,74.093903 43.890305,74.474243 
	C38.507034,81.047714 32.166145,80.356987 26.369251,73.310074 
z"/>
<path fill="#FAFBFC" opacity="1.000000" stroke="none" 
	d="
M109.736725,61.790398 
	C103.331978,66.025917 97.504341,66.132332 92.865295,62.348125 
	C88.166847,58.515457 86.566238,50.610577 89.244789,44.467590 
	C91.539780,39.204235 96.620972,36.301708 102.613853,36.987942 
	C107.271477,37.521275 110.914635,39.897816 112.596466,44.256966 
	C114.954002,50.367435 114.684052,56.345459 109.736725,61.790398 
z"/>
<path fill="#EDEFF2" opacity="1.000000" stroke="none" 
	d="
M216.984100,48.042671 
	C217.726837,50.105049 218.337769,51.799767 219.236404,54.292507 
	C216.822006,54.292507 215.065338,54.292503 213.308670,54.292503 
	C211.515152,54.292503 209.721634,54.292507 207.078674,54.292507 
	C209.062286,48.993469 210.771301,44.427956 212.994263,38.489517 
	C214.635895,42.398018 215.744095,45.036514 216.984100,48.042671 
z"/>
<path fill="#F3F5F7" opacity="1.000000" stroke="none" 
	d="
M173.305023,56.206646 
	C174.926666,49.662617 178.312439,47.032372 182.919464,48.374123 
	C187.468140,49.698875 189.825089,55.235554 187.943497,60.305363 
	C186.634140,63.833355 184.010788,65.818924 180.281097,65.423347 
	C175.172729,64.881538 173.540985,61.184483 173.305023,56.206646 
z"/>
</svg>