<svg version="1.1" id="Layer_1" xmlns="http://www.w3.org/2000/svg" xmlns:xlink="http://www.w3.org/1999/xlink" x="0px" y="0px"
	 width="100%" viewBox="0 0 885 319" enable-background="new 0 0 885 319" xml:space="preserve">
<path fill="none" opacity="1.000000" stroke="#000000" stroke-linecap="round" stroke-linejoin="round" stroke-width="7.000000"
	d="
M458.000000,206.000000 
	C458.000000,228.500000 458.068298,251.000290 457.974152,273.499878 
	C457.918274,286.854370 468.046661,294.676270 478.506226,294.116486 
	C484.375519,293.802307 490.067291,293.809387 495.011780,290.015350 
	C501.673370,284.903717 502.773163,277.410553 502.885681,269.998260 
	C503.209503,248.669846 503.000000,227.333328 503.000000,206.000000 
"/>
<path fill="none" opacity="1.000000" stroke="#000000" stroke-linecap="round" stroke-linejoin="round" stroke-width="5.000000"
	d="
M171.000000,187.500000 
	C173.838120,192.666672 170.580475,197.803497 170.747147,203.008102 
	C170.926254,208.600037 168.634628,214.098999 169.289764,220.023254 
	C169.696579,223.701904 168.291565,227.623352 167.908493,231.490936 
	C166.470139,246.013550 164.633545,260.496338 163.030151,275.003326 
	C162.737411,277.651947 162.934814,280.328278 162.606934,283.013062 
	C162.302994,285.501740 166.639679,288.491425 170.499680,289.002411 
	C185.064682,290.930695 199.549301,293.331451 214.014679,295.917877 
	C225.608688,297.990936 237.398087,298.991150 248.965866,301.180420 
	C253.174561,301.976929 257.421173,301.268036 261.500000,302.500000 
"/>
<path fill="none" opacity="1.000000" stroke="#000000" stroke-linecap="round" stroke-linejoin="round" stroke-width="7.000000"
	d="
M390.500000,250.000000 
	C397.663177,250.316620 404.949646,250.637909 411.972656,250.125290 
	C418.484619,249.649979 425.943512,247.943558 429.901276,241.439926 
	C433.190735,236.034561 435.023010,230.232300 433.108612,223.469254 
	C429.429504,210.471954 424.165955,205.999985 411.000000,206.000000 
	C405.166656,206.000000 399.328125,206.148422 393.501984,205.943756 
	C390.062653,205.822937 388.891357,207.066864 388.940979,210.500854 
	C389.099884,221.498550 389.000000,232.500000 389.000000,243.500000 
	C389.000000,261.166656 389.000000,278.833344 389.000000,296.500000 
"/>
<path fill="none" opacity="1.000000" stroke="#000000" stroke-linecap="round" stroke-linejoin="round" stroke-width="14.000000"
	d="
M716.500000,42.000000 
	C716.500000,73.166664 716.501831,104.333336 716.496155,135.500000 
	C716.495728,137.713333 716.715942,139.940933 715.513672,142.007950 
	C712.973694,146.374802 714.420959,150.472992 716.500000,154.500000 
"/>
<path fill="none" opacity="1.000000" stroke="#000000" stroke-linecap="round" stroke-linejoin="round" stroke-width="13.000000"
	d="
M592.000000,43.500000 
	C592.000000,74.166664 592.009338,104.833344 591.978577,135.499985 
	C591.976562,137.500137 592.391968,140.045471 591.371033,141.403030 
	C587.501465,146.548416 590.337585,150.922394 592.250000,155.500000 
"/>
<path fill="none" opacity="1.000000" stroke="#000000" stroke-linecap="round" stroke-linejoin="round" stroke-width="13.000000"
	d="
M637.500000,42.000000 
	C636.892883,43.869049 638.532471,45.048069 639.126587,46.446213 
	C640.612366,49.942562 641.637939,53.017006 639.083191,56.559982 
	C637.703369,58.473534 637.979187,61.098499 637.981384,63.500019 
	C638.009583,93.999992 638.000000,124.500000 638.000000,155.000000 
"/>
<path fill="none" opacity="1.000000" stroke="#000000" stroke-linecap="round" stroke-linejoin="round" stroke-width="14.000000"
	d="
M513.250000,43.000008 
	C513.833313,44.666676 514.283813,46.395550 515.028992,47.986431 
	C516.378540,50.867683 516.889771,53.611557 515.026672,56.517117 
	C513.480469,58.928516 513.481201,61.716000 513.483643,64.500015 
	C513.509888,94.499992 513.500000,124.500000 513.500000,154.500000 
"/>
<path fill="none" opacity="1.000000" stroke="#000000" stroke-linecap="round" stroke-linejoin="round" stroke-width="11.000000"
	d="
M641.500000,52.500000 
	C645.747620,54.125206 648.537048,57.074505 651.109619,60.926781 
	C668.566528,87.066864 686.373901,112.972641 703.951050,139.033020 
	C706.265991,142.465271 708.727600,145.302643 713.000000,146.000000 
"/>
<path fill="none" opacity="1.000000" stroke="#000000" stroke-linecap="round" stroke-linejoin="round" stroke-width="11.000000"
	d="
M517.000000,53.500000 
	C521.752197,54.393055 524.476807,57.675121 527.040894,61.472378 
	C544.295715,87.025391 561.717041,112.466080 578.943787,138.037857 
	C581.427185,141.724274 583.851990,145.092407 588.500000,146.000000 
"/>
<path fill="none" opacity="1.000000" stroke="#000000" stroke-linecap="round" stroke-linejoin="round" stroke-width="5.000000"
	d="
M166.500000,182.000000 
	C162.582092,185.297867 157.495422,184.794418 152.969742,185.873077 
	C133.540634,190.503845 114.062355,194.986618 94.462288,198.806473 
	C88.523781,199.963821 82.642380,201.602219 76.516769,202.178314 
	C71.378212,202.661575 69.253891,206.276611 70.043144,211.493469 
	C71.735771,222.681427 73.677071,233.831635 75.497101,245.000473 
	C77.343575,256.331665 79.074532,267.682617 81.034882,278.993958 
	C82.192802,285.675171 82.404083,292.521393 84.675537,299.026001 
	C85.255219,300.686005 84.916672,302.666656 85.000000,304.500000 
"/>
<path fill="none" opacity="1.000000" stroke="#000000" stroke-linecap="round" stroke-linejoin="round" stroke-width="7.000000"
	d="
M671.000000,206.000000 
	C671.000000,236.166672 671.000000,266.333344 671.000000,296.500000 
"/>
<path fill="none" opacity="1.000000" stroke="#000000" stroke-linecap="round" stroke-linejoin="round" stroke-width="7.000000"
	d="
M834.000000,206.000000 
	C820.666687,206.000000 807.331482,206.122940 794.001160,205.923569 
	C790.105042,205.865280 788.844299,207.103165 788.923584,211.001556 
	C789.143860,221.830399 789.000000,232.666672 789.000000,243.500000 
	C789.000000,258.666656 789.106628,273.834625 788.926270,288.999115 
	C788.880188,292.875427 790.121948,294.145874 794.001343,294.070618 
	C807.664551,293.805573 821.333313,293.833344 835.000000,293.750000 
"/>
<path fill="none" opacity="1.000000" stroke="#000000" stroke-linecap="round" stroke-linejoin="round" stroke-width="7.000000"
	d="
M624.000000,207.500000 
	C624.000000,234.666672 623.988647,261.833344 624.021606,288.999969 
	C624.024231,291.166840 624.333374,293.333344 624.500061,295.500000 
"/>
<path fill="none" opacity="1.000000" stroke="#000000" stroke-linecap="round" stroke-linejoin="round" stroke-width="5.000000"
	d="
M85.500000,300.000000 
	C88.043060,299.543060 88.722595,297.211304 89.993202,295.494965 
	C101.338203,280.170258 113.407173,265.311615 123.731346,249.326477 
	C130.265350,239.209763 138.406464,230.474304 145.069595,220.546707 
	C151.922623,210.336212 159.280319,200.460953 166.576782,190.556580 
	C167.361511,189.491318 168.087204,188.262863 169.442490,187.408752 
	C173.141586,185.077499 174.437210,179.406296 171.377792,176.634903 
	C167.077316,172.739304 164.933807,167.572784 162.147278,162.911942 
	C149.313141,141.445053 137.019928,119.655136 124.485161,98.008583 
	C121.568878,92.972389 119.114418,89.989822 111.472649,93.947189 
	C87.380165,106.423767 63.162899,118.659302 39.007195,131.014069 
	C37.089382,131.994949 34.712540,132.474014 34.000000,135.000000 
"/>
<path fill="none" opacity="1.000000" stroke="#000000" stroke-linecap="round" stroke-linejoin="round" stroke-width="5.000000"
	d="
M317.500000,136.000000 
	C314.780762,135.947418 314.212585,137.038483 313.191467,139.889496 
	C310.624359,147.056946 306.504211,153.668823 302.999207,160.499588 
	C293.334869,179.334137 283.675629,198.171280 273.986389,216.992981 
	C273.000305,218.908478 272.526001,221.287460 270.000000,222.000000 
"/>
<path fill="none" opacity="1.000000" stroke="#000000" stroke-linecap="round" stroke-linejoin="round" stroke-width="7.000000"
	d="
M534.500000,215.000000 
	C533.304565,217.184311 532.955872,219.497070 532.962158,222.000092 
	C533.024597,246.833267 533.000000,271.666656 533.000000,296.500000 
"/>
<path fill="none" opacity="1.000000" stroke="#000000" stroke-linecap="round" stroke-linejoin="round" stroke-width="8.000000"
	d="
M703.000000,215.500000 
	C701.782654,217.856522 701.461426,220.350113 701.467468,223.000076 
	C701.522888,247.166626 701.500000,271.333344 701.500000,295.500000 
"/>
<path fill="none" opacity="1.000000" stroke="#000000" stroke-linecap="round" stroke-linejoin="round" stroke-width="8.000000"
	d="
M757.000000,215.500000 
	C758.217346,217.856522 758.538574,220.350113 758.532532,223.000076 
	C758.477112,247.166626 758.500000,271.333344 758.500000,295.500000 
"/>
<path fill="none" opacity="1.000000" stroke="#000000" stroke-linecap="round" stroke-linejoin="round" stroke-width="7.000000"
	d="
M578.000000,206.000000 
	C578.000000,230.000000 577.977295,254.000046 578.031250,277.999939 
	C578.037415,280.741364 577.827271,283.309509 576.000000,285.500000 
"/>
<path fill="none" opacity="1.000000" stroke="#000000" stroke-linecap="round" stroke-linejoin="round" stroke-width="6.000000"
	d="
M532.250000,205.000000 
	C532.934753,212.518616 538.988037,217.194534 542.070435,223.465363 
	C551.375244,242.394653 560.991821,261.170776 570.516541,279.991638 
	C571.223633,281.388824 571.852844,283.199768 573.054626,283.907196 
	C578.112915,286.885010 577.415100,291.900635 578.000000,296.500000 
"/>
<path fill="none" opacity="1.000000" stroke="#000000" stroke-linecap="round" stroke-linejoin="round" stroke-width="5.000000"
	d="
M174.000000,35.500000 
	C172.920654,37.197693 172.985825,39.089104 172.987839,41.000011 
	C173.007904,59.999992 173.000000,79.000000 173.000000,98.000000 
	C173.000000,122.000000 172.994446,146.000000 173.009537,170.000000 
	C173.010880,172.143326 173.155457,174.288864 171.500000,176.000000 
"/>
<path fill="none" opacity="1.000000" stroke="#000000" stroke-linecap="round" stroke-linejoin="round" stroke-width="5.000000"
	d="
M173.000000,30.500000 
	C172.812546,32.879135 173.825699,34.812618 176.025101,35.407112 
	C178.192780,35.993023 179.140503,37.717651 180.465118,39.035072 
	C199.349594,57.816982 218.166672,76.666656 237.000000,95.500000 
	C238.000000,96.500000 239.117142,97.409081 239.977417,98.517532 
	C242.296402,101.505592 242.012878,105.222443 239.507523,108.006775 
	C227.823883,120.991493 216.358810,134.179581 204.433838,146.938171 
	C196.200775,155.746750 188.680679,165.162369 180.473953,173.975739 
	C178.068665,176.558807 177.345322,180.845322 173.000000,181.500000 
"/>
<path fill="none" opacity="1.000000" stroke="#000000" stroke-linecap="round" stroke-linejoin="round" stroke-width="5.000000"
	d="
M31.000000,135.250000 
	C35.380310,134.822617 38.649883,137.920959 42.412018,139.249207 
	C59.019360,145.112503 75.806526,150.515671 92.587845,155.716568 
	C115.805565,162.912247 138.572510,171.482864 161.978867,178.075058 
	C165.508530,179.069153 168.263809,182.541885 172.500000,181.500000 
"/>
<path fill="none" opacity="1.000000" stroke="#000000" stroke-linecap="round" stroke-linejoin="round" stroke-width="5.000000"
	d="
M244.500000,102.500000 
	C222.839890,103.518005 201.166183,102.771843 179.500015,103.001976 
	C177.773178,103.020309 175.981079,102.738762 174.500000,104.000000 
"/>
<path fill="none" opacity="1.000000" stroke="#000000" stroke-linecap="round" stroke-linejoin="round" stroke-width="5.000000"
	d="
M312.500000,138.000000 
	C307.685333,136.914246 303.738617,139.741852 299.523376,141.073990 
	C284.297302,145.885910 269.192566,151.080338 253.994003,155.981384 
	C230.516769,163.552002 206.995163,170.984940 183.509857,178.530701 
	C181.768036,179.090332 180.166672,179.293533 178.500000,178.500000 
"/>
<path fill="none" opacity="1.000000" stroke="#000000" stroke-linecap="round" stroke-linejoin="round" stroke-width="4.000000"
	d="
M119.500000,89.500000 
	C115.798424,103.920288 110.207481,117.739281 105.978996,131.993774 
	C103.595596,140.028351 101.000008,148.000000 98.500008,156.000000 
"/>
<path fill="none" opacity="1.000000" stroke="#000000" stroke-linecap="round" stroke-linejoin="round" stroke-width="5.000000"
	d="
M248.000000,159.500000 
	C251.420837,163.543015 251.868088,168.767487 253.458313,173.513962 
	C258.933319,189.855621 264.233246,206.255936 269.623108,222.704773 
	C267.890625,223.645889 266.156647,223.094894 263.954651,222.100388 
	C246.142014,214.055496 228.275818,206.118835 210.396652,198.234360 
	C201.539413,194.328430 192.667130,190.268967 183.541702,186.887466 
	C181.630417,186.179230 180.026520,185.270844 178.000000,186.000000 
"/>
<path fill="none" opacity="1.000000" stroke="#000000" stroke-linecap="round" stroke-linejoin="round" stroke-width="11.000000"
	d="
M834.500000,41.750000 
	C831.037476,42.678295 828.919556,44.984348 826.924316,47.949074 
	C817.090759,62.561077 806.956665,76.970474 797.042419,91.528893 
	C795.383057,93.965622 793.305115,95.805130 791.000000,97.500000 
"/>
<path fill="none" opacity="1.000000" stroke="#000000" stroke-linecap="round" stroke-linejoin="round" stroke-width="11.000000"
	d="
M747.500000,41.750000 
	C750.962952,42.677776 753.092529,45.038017 755.053650,47.964050 
	C764.601685,62.210205 774.313904,76.346703 784.022522,90.484512 
	C785.358765,92.430336 786.974487,94.188614 788.518311,95.984299 
	C788.895569,96.423134 789.785156,96.558731 789.958130,97.015846 
	C793.980225,107.641136 803.018372,114.820221 808.672241,124.398315 
	C814.742737,134.681961 822.221069,144.129669 828.952942,154.032028 
	C830.259888,155.954498 832.170288,156.271744 834.000000,157.000000 
"/>
<path fill="none" opacity="1.000000" stroke="#000000" stroke-linecap="round" stroke-linejoin="round" stroke-width="11.000000"
	d="
M790.500000,101.500000 
	C784.268127,105.791374 781.356628,112.749481 777.100708,118.573586 
	C768.758301,129.990005 760.945557,141.796799 753.063049,153.542297 
	C751.972107,155.167847 750.828369,156.160034 749.000000,156.500000 
"/>
<path fill="none" opacity="1.000000" stroke="#000000" stroke-linecap="round" stroke-linejoin="round" stroke-width="5.000000"
	d="
M258.500000,301.000000 
	C256.697266,295.273071 252.236008,291.271271 248.928055,286.550415 
	C240.646042,274.731018 232.048584,263.130737 223.465240,251.525711 
	C221.365265,248.686447 218.499130,246.385498 216.576752,243.449753 
	C213.539047,238.810760 210.941299,233.924347 207.571945,229.445877 
	C198.033157,216.767105 188.876114,203.801819 179.464600,191.026077 
	C177.538345,188.411270 177.556686,184.481857 174.000000,183.000000 
"/>
<path fill="none" opacity="1.000000" stroke="#000000" stroke-linecap="round" stroke-linejoin="round" stroke-width="4.000000"
	d="
M125.500000,244.500000 
	C115.935791,238.968430 107.564133,231.742813 98.506279,225.490906 
	C89.257759,219.107437 80.597443,211.892487 71.000000,206.000000 
"/>
<path fill="none" opacity="1.000000" stroke="#000000" stroke-linecap="round" stroke-linejoin="round" stroke-width="4.000000"
	d="
M218.000000,246.500000 
	C201.833328,258.333344 185.662109,270.160431 169.509018,282.012299 
	C168.273666,282.918701 167.166672,284.000000 166.000000,285.000000 
"/>
<path fill="none" opacity="1.000000" stroke="#000000" stroke-linecap="round" stroke-linejoin="round" stroke-width="4.000000"
	d="
M152.000000,148.500000 
	C144.167007,150.835358 135.971893,150.982376 127.991608,152.454498 
	C121.365936,153.676743 114.676910,154.578613 107.993408,155.449387 
	C106.126938,155.692551 104.638016,156.054153 104.000000,158.000000 
"/>
<path fill="none" opacity="1.000000" stroke="#000000" stroke-linecap="round" stroke-linejoin="round" stroke-width="4.000000"
	d="
M134.500000,191.500000 
	C134.594055,200.009842 132.133743,208.162323 130.951904,216.493179 
	C130.024979,223.027191 128.594467,229.488663 127.571030,236.011139 
	C127.400375,237.098740 128.166672,238.333328 128.500000,239.500000 
"/>
<path fill="none" opacity="1.000000" stroke="#000000" stroke-linecap="round" stroke-linejoin="round" stroke-width="6.000000"
	d="
M701.250000,205.000000 
	C702.182068,209.471786 702.298523,213.831818 706.795776,217.267365 
	C710.013123,219.725250 711.438660,224.611588 713.477722,228.511658 
	C717.552734,236.305771 721.612793,244.112305 725.431396,252.033081 
	C726.580017,254.415451 727.607361,256.669495 730.000000,258.000000 
"/>
<path fill="none" opacity="1.000000" stroke="#000000" stroke-linecap="round" stroke-linejoin="round" stroke-width="6.000000"
	d="
M759.000000,206.000000 
	C758.500000,208.000000 758.023071,210.006149 757.492310,211.997955 
	C757.101807,213.463440 756.629700,214.732758 755.026062,215.551071 
	C750.601196,217.809052 749.750610,222.719589 747.594971,226.553391 
	C742.629028,235.385117 738.080261,244.456818 733.547119,253.523590 
	C731.973877,256.670227 728.732239,259.314636 730.000000,263.500000 
"/>
<path fill="none" opacity="1.000000" stroke="#000000" stroke-linecap="round" stroke-linejoin="round" stroke-width="4.000000"
	d="
M214.000000,242.000000 
	C211.946945,242.305634 210.252121,241.473419 208.484192,240.529617 
	C196.514465,234.139587 184.505798,227.822250 172.485611,221.527466 
	C171.763138,221.149124 170.833328,221.166672 170.000000,221.000000 
"/>
<path fill="none" opacity="1.000000" stroke="#000000" stroke-linecap="round" stroke-linejoin="round" stroke-width="4.000000"
	d="
M198.000000,151.000000 
	C190.740860,138.722885 185.094406,125.618332 178.514755,112.992310 
	C177.498627,111.042427 176.687866,108.983040 174.500000,108.000000 
"/>
<path fill="none" opacity="1.000000" stroke="#000000" stroke-linecap="round" stroke-linejoin="round" stroke-width="6.000000"
	d="
M412.500000,251.500000 
	C419.333344,265.166656 426.160614,278.836365 433.012726,292.493622 
	C433.507477,293.479797 434.472504,293.652069 435.500000,293.500000 
"/>
<path fill="none" opacity="1.000000" stroke="#000000" stroke-linecap="round" stroke-linejoin="round" stroke-width="4.000000"
	d="
M243.500000,161.000000 
	C243.562454,163.208313 241.784851,164.238022 240.479950,165.478912 
	C231.083786,174.414322 222.691864,184.384766 212.531097,192.538757 
	C211.145432,193.650772 209.437546,194.791687 209.500000,197.000000 
"/>
<path fill="none" opacity="1.000000" stroke="#000000" stroke-linecap="round" stroke-linejoin="round" stroke-width="7.000000"
	d="
M649.000000,206.000000 
	C631.500000,206.000000 614.000000,206.000000 596.500000,206.000000 
"/>
<path fill="none" opacity="1.000000" stroke="#000000" stroke-linecap="round" stroke-linejoin="round" stroke-width="7.000000"
	d="
M814.500000,250.000000 
	C806.500000,250.000000 798.500000,250.000000 790.500000,250.000000 
"/>
<path fill="none" opacity="1.000000" stroke="#000000" stroke-linecap="round" stroke-linejoin="round" stroke-width="13.000000"
	d="
M425.000000,42.500000 
	C420.681152,44.315125 415.960144,43.872047 411.433136,45.285965 
	C399.379120,49.050793 390.877380,59.053738 390.971771,73.500183 
	C391.089386,91.499413 391.009552,109.500008 390.997162,127.500000 
	C390.985992,143.752747 401.141418,153.691422 416.511780,156.433929 
	C427.757721,158.440552 439.007355,158.479446 450.007751,154.521515 
	C461.786499,150.283554 468.913239,141.322815 468.977966,127.999893 
	C469.066254,109.833656 468.801453,91.663864 469.057648,73.500816 
	C469.298431,56.426670 457.318024,46.879158 445.014160,44.428909 
	C438.539185,43.139450 432.090668,42.282639 425.500000,42.500000 
"/>
</svg>