<svg version="1.1" id="Layer_1" xmlns="http://www.w3.org/2000/svg" xmlns:xlink="http://www.w3.org/1999/xlink" x="0px" y="0px"
	 width="100%" viewBox="0 0 285 241" enable-background="new 0 0 285 241" xml:space="preserve">
<path fill="#FFFFFF" opacity="1.000000" stroke="none" 
	d="
M194.000000,242.000000 
	C129.333344,242.000000 65.166679,242.000000 1.000017,242.000000 
	C1.000011,161.666687 1.000011,81.333366 1.000006,1.000039 
	C95.999969,1.000026 190.999939,1.000026 285.999939,1.000013 
	C285.999939,81.333290 285.999939,161.666580 285.999969,241.999939 
	C255.500000,242.000000 225.000000,242.000000 194.000000,242.000000 
M273.745850,138.185196 
	C271.009338,134.147446 268.276367,130.107300 265.534882,126.072914 
	C264.044006,123.878906 261.723572,121.885788 261.159088,119.478111 
	C247.141159,59.686470 189.332932,20.944231 129.058197,31.121601 
	C82.671089,38.954048 45.724072,74.166725 35.035488,120.535393 
	C34.574242,122.536354 33.092934,124.673439 31.466888,125.969177 
	C25.063858,131.071625 21.779346,137.536499 23.211838,145.596207 
	C24.707993,154.014130 29.973055,159.615295 38.412949,161.545029 
	C46.443855,163.381256 53.034203,160.626617 58.450706,154.455887 
	C59.570034,153.180695 61.698196,152.099091 63.363873,152.095551 
	C120.159157,151.974915 176.954773,151.978912 233.750137,152.081848 
	C235.301102,152.084656 237.276550,152.979370 238.330261,154.124313 
	C245.218613,161.609024 253.250000,163.994720 261.589752,160.721603 
	C270.130646,157.369537 274.423065,149.810944 273.745850,138.185196 
M167.263870,175.915161 
	C161.361954,175.550995 155.460022,175.186813 149.349182,174.809753 
	C149.349182,188.331223 149.349182,201.016144 149.349182,213.719299 
	C151.844177,213.719299 153.957687,213.719299 156.724350,213.719299 
	C156.724350,208.785568 156.724350,204.055939 156.724350,197.774704 
	C159.242874,199.393295 160.904984,199.990204 161.846771,201.164719 
	C163.814896,203.619217 165.403137,206.378387 167.147141,209.012589 
	C170.963791,214.777420 170.963715,214.777466 178.633850,213.243683 
	C175.377853,208.185730 172.184921,203.225739 169.028320,198.322189 
	C178.750122,189.765060 178.268188,181.203796 167.263870,175.915161 
M102.816833,175.332260 
	C97.723175,175.332260 92.629517,175.332260 87.380981,175.332260 
	C87.380981,188.343521 87.380981,201.007706 87.380981,213.735596 
	C89.865051,213.735596 91.976395,213.735596 94.768532,213.735596 
	C94.768532,208.838272 94.768532,204.136292 94.768532,199.049622 
	C97.409836,199.049622 99.373604,199.095734 101.334587,199.041245 
	C108.157692,198.851700 113.429863,194.199921 113.884239,188.009201 
	C114.348175,181.688385 110.501694,177.016754 102.816833,175.332260 
M124.429451,213.934296 
	C125.329872,212.752045 126.882446,211.634171 127.006729,210.375275 
	C127.360085,206.796173 127.130699,203.159531 127.130699,198.948578 
	C131.726547,198.948578 135.778519,198.948578 139.806229,198.948578 
	C139.806229,196.393295 139.806229,194.463394 139.806229,191.907990 
	C135.520065,191.907990 131.468399,191.907990 127.449463,191.907990 
	C127.449463,188.359161 127.449463,185.447525 127.449463,181.919159 
	C132.797348,181.919159 137.846756,181.919159 142.723602,181.919159 
	C142.723602,179.360428 142.723602,177.444519 142.723602,175.509430 
	C134.995605,175.509430 127.615356,175.509430 119.947792,175.509430 
	C119.947792,187.513855 120.024864,199.145844 119.892731,210.775482 
	C119.860352,213.625031 121.152901,214.203140 124.429451,213.934296 
M191.150146,175.174515 
	C189.223038,175.174515 187.295929,175.174515 185.253113,175.174515 
	C185.253113,188.343735 185.253113,200.896698 185.253113,213.627045 
	C193.055191,213.627045 200.583466,213.627045 208.147598,213.627045 
	C208.147598,211.257172 208.147598,209.220963 208.147598,206.655426 
	C202.831177,206.655426 197.928574,206.655426 192.754242,206.655426 
	C192.754242,201.642639 192.850525,197.161499 192.730179,192.686188 
	C192.575516,186.934586 192.246948,181.187668 191.150146,175.174515 
z"/>
<path fill="#32A9E1" opacity="1.000000" stroke="none" 
	d="
M273.830994,138.600555 
	C274.423065,149.810944 270.130646,157.369537 261.589752,160.721603 
	C253.250000,163.994720 245.218613,161.609024 238.330261,154.124313 
	C237.276550,152.979370 235.301102,152.084656 233.750137,152.081848 
	C176.954773,151.978912 120.159157,151.974915 63.363873,152.095551 
	C61.698196,152.099091 59.570034,153.180695 58.450706,154.455887 
	C53.034203,160.626617 46.443855,163.381256 38.412949,161.545029 
	C29.973055,159.615295 24.707993,154.014130 23.211838,145.596207 
	C21.779346,137.536499 25.063858,131.071625 31.466888,125.969177 
	C33.092934,124.673439 34.574242,122.536354 35.035488,120.535393 
	C45.724072,74.166725 82.671089,38.954048 129.058197,31.121601 
	C189.332932,20.944231 247.141159,59.686470 261.159088,119.478111 
	C261.723572,121.885788 264.044006,123.878906 265.534882,126.072914 
	C268.276367,130.107300 271.009338,134.147446 273.830994,138.600555 
M162.672211,44.782066 
	C152.057602,44.895424 141.438690,44.896584 130.835419,45.304699 
	C129.832245,45.343307 128.141159,47.915966 128.104065,49.346733 
	C127.858063,58.839687 128.097198,68.344521 127.905746,77.839981 
	C127.844597,80.872894 128.804016,82.530006 131.435745,84.152031 
	C139.611496,89.191010 142.646759,98.656921 139.396210,107.568031 
	C136.388885,115.812325 129.178925,120.507858 119.964386,120.223183 
	C111.164940,119.951324 104.428185,114.574165 101.877151,105.786209 
	C99.538536,97.730011 102.675629,89.353867 109.743988,84.396141 
	C111.273872,83.323090 113.669449,81.884071 113.714005,80.548492 
	C114.049622,70.486267 113.897072,60.407768 113.897072,48.589993 
	C105.096619,53.539890 97.502014,57.833443 89.884079,62.085201 
	C86.973045,63.709930 85.913979,65.972702 86.005630,69.418381 
	C86.261375,79.033447 86.094559,88.659760 86.094559,98.463470 
	C81.191277,98.463470 76.820625,98.463470 71.946136,98.463470 
	C71.946136,91.888611 71.946136,85.684265 71.946136,79.054146 
	C62.306572,87.595345 51.655891,108.590424 49.526085,121.693504 
	C53.724312,126.394737 57.805210,130.038879 60.633404,134.480637 
	C62.315899,137.123032 63.613106,138.088226 66.628693,138.078644 
	C99.126045,137.975266 131.623840,138.014160 164.121521,138.014145 
	C165.693863,138.014145 167.266220,138.014145 169.000305,138.014145 
	C169.000305,127.844437 168.879608,118.512764 169.065826,109.187218 
	C169.130966,105.924591 168.330521,103.887100 165.450134,101.853058 
	C157.584900,96.298859 155.268005,86.493515 159.150314,77.901825 
	C162.850723,69.712685 171.924515,65.148918 181.060791,66.881676 
	C189.114975,68.409203 195.569855,75.174576 196.902634,83.485558 
	C198.104248,90.978737 194.011261,99.057808 187.072784,103.344078 
	C185.552948,104.282974 183.330399,105.820511 183.289047,107.140541 
	C182.972351,117.249619 183.115143,127.373085 183.115143,137.712921 
	C190.862000,137.712921 198.084900,137.712921 205.946838,137.712921 
	C205.946838,128.713593 205.946838,119.997803 205.946838,111.325943 
	C210.838806,111.325943 215.085785,111.325943 219.968658,111.325943 
	C219.968658,120.344330 219.968658,129.057846 219.968658,137.876221 
	C225.255936,137.876221 229.895905,137.876221 232.414505,137.876221 
	C237.508713,132.722900 241.628250,128.833084 245.359940,124.601257 
	C246.398224,123.423790 246.968185,121.073769 246.605453,119.531593 
	C237.704636,81.689621 201.664627,49.385578 162.672211,44.782066 
z"/>
<path fill="#37ABE2" opacity="1.000000" stroke="none" 
	d="
M167.667938,175.955048 
	C178.268188,181.203796 178.750122,189.765060 169.028320,198.322189 
	C172.184921,203.225739 175.377853,208.185730 178.633850,213.243683 
	C170.963715,214.777466 170.963791,214.777420 167.147141,209.012589 
	C165.403137,206.378387 163.814896,203.619217 161.846771,201.164719 
	C160.904984,199.990204 159.242874,199.393295 156.724350,197.774704 
	C156.724350,204.055939 156.724350,208.785568 156.724350,213.719299 
	C153.957687,213.719299 151.844177,213.719299 149.349182,213.719299 
	C149.349182,201.016144 149.349182,188.331223 149.349182,174.809753 
	C155.460022,175.186813 161.361954,175.550995 167.667938,175.955048 
M156.660446,187.517136 
	C156.780197,188.931686 156.899948,190.346237 157.131073,193.076523 
	C161.048553,191.880936 164.479080,191.194046 167.472778,189.656586 
	C168.184204,189.291245 168.058456,184.802628 167.242996,184.402802 
	C164.230179,182.925674 160.767120,182.366882 157.024017,181.339584 
	C156.839264,183.994308 156.749603,185.282776 156.660446,187.517136 
z"/>
<path fill="#38ABE2" opacity="1.000000" stroke="none" 
	d="
M103.228485,175.449890 
	C110.501694,177.016754 114.348175,181.688385 113.884239,188.009201 
	C113.429863,194.199921 108.157692,198.851700 101.334587,199.041245 
	C99.373604,199.095734 97.409836,199.049622 94.768532,199.049622 
	C94.768532,204.136292 94.768532,208.838272 94.768532,213.735596 
	C91.976395,213.735596 89.865051,213.735596 87.380981,213.735596 
	C87.380981,201.007706 87.380981,188.343521 87.380981,175.332260 
	C92.629517,175.332260 97.723175,175.332260 103.228485,175.449890 
M94.763275,190.327545 
	C97.756104,193.783844 101.365753,192.333832 104.327370,190.806946 
	C105.502762,190.200958 106.407143,186.596558 105.705345,185.277466 
	C103.434639,181.009537 99.154419,182.162811 94.718742,182.288971 
	C94.718742,184.872620 94.718742,187.130966 94.763275,190.327545 
z"/>
<path fill="#33A9E1" opacity="1.000000" stroke="none" 
	d="
M123.970253,213.936401 
	C121.152901,214.203140 119.860352,213.625031 119.892731,210.775482 
	C120.024864,199.145844 119.947792,187.513855 119.947792,175.509430 
	C127.615356,175.509430 134.995605,175.509430 142.723602,175.509430 
	C142.723602,177.444519 142.723602,179.360428 142.723602,181.919159 
	C137.846756,181.919159 132.797348,181.919159 127.449463,181.919159 
	C127.449463,185.447525 127.449463,188.359161 127.449463,191.907990 
	C131.468399,191.907990 135.520065,191.907990 139.806229,191.907990 
	C139.806229,194.463394 139.806229,196.393295 139.806229,198.948578 
	C135.778519,198.948578 131.726547,198.948578 127.130699,198.948578 
	C127.130699,203.159531 127.360085,206.796173 127.006729,210.375275 
	C126.882446,211.634171 125.329872,212.752045 123.970253,213.936401 
z"/>
<path fill="#39ACE2" opacity="1.000000" stroke="none" 
	d="
M191.571716,175.306610 
	C192.246948,181.187668 192.575516,186.934586 192.730179,192.686188 
	C192.850525,197.161499 192.754242,201.642639 192.754242,206.655426 
	C197.928574,206.655426 202.831177,206.655426 208.147598,206.655426 
	C208.147598,209.220963 208.147598,211.257172 208.147598,213.627045 
	C200.583466,213.627045 193.055191,213.627045 185.253113,213.627045 
	C185.253113,200.896698 185.253113,188.343735 185.253113,175.174515 
	C187.295929,175.174515 189.223038,175.174515 191.571716,175.306610 
z"/>
<path fill="#FDFEFF" opacity="1.000000" stroke="none" 
	d="
M163.112198,44.842400 
	C201.664627,49.385578 237.704636,81.689621 246.605453,119.531593 
	C246.968185,121.073769 246.398224,123.423790 245.359940,124.601257 
	C241.628250,128.833084 237.508713,132.722900 232.414505,137.876221 
	C229.895905,137.876221 225.255936,137.876221 219.968658,137.876221 
	C219.968658,129.057846 219.968658,120.344330 219.968658,111.325943 
	C215.085785,111.325943 210.838806,111.325943 205.946838,111.325943 
	C205.946838,119.997803 205.946838,128.713593 205.946838,137.712921 
	C198.084900,137.712921 190.862000,137.712921 183.115143,137.712921 
	C183.115143,127.373085 182.972351,117.249619 183.289047,107.140541 
	C183.330399,105.820511 185.552948,104.282974 187.072784,103.344078 
	C194.011261,99.057808 198.104248,90.978737 196.902634,83.485558 
	C195.569855,75.174576 189.114975,68.409203 181.060791,66.881676 
	C171.924515,65.148918 162.850723,69.712685 159.150314,77.901825 
	C155.268005,86.493515 157.584900,96.298859 165.450134,101.853058 
	C168.330521,103.887100 169.130966,105.924591 169.065826,109.187218 
	C168.879608,118.512764 169.000305,127.844437 169.000305,138.014145 
	C167.266220,138.014145 165.693863,138.014145 164.121521,138.014145 
	C131.623840,138.014160 99.126045,137.975266 66.628693,138.078644 
	C63.613106,138.088226 62.315899,137.123032 60.633404,134.480637 
	C57.805210,130.038879 53.724312,126.394737 49.526085,121.693504 
	C51.655891,108.590424 62.306572,87.595345 71.946136,79.054146 
	C71.946136,85.684265 71.946136,91.888611 71.946136,98.463470 
	C76.820625,98.463470 81.191277,98.463470 86.094559,98.463470 
	C86.094559,88.659760 86.261375,79.033447 86.005630,69.418381 
	C85.913979,65.972702 86.973045,63.709930 89.884079,62.085201 
	C97.502014,57.833443 105.096619,53.539890 113.897072,48.589993 
	C113.897072,60.407768 114.049622,70.486267 113.714005,80.548492 
	C113.669449,81.884071 111.273872,83.323090 109.743988,84.396141 
	C102.675629,89.353867 99.538536,97.730011 101.877151,105.786209 
	C104.428185,114.574165 111.164940,119.951324 119.964386,120.223183 
	C129.178925,120.507858 136.388885,115.812325 139.396210,107.568031 
	C142.646759,98.656921 139.611496,89.191010 131.435745,84.152031 
	C128.804016,82.530006 127.844597,80.872894 127.905746,77.839981 
	C128.097198,68.344521 127.858063,58.839687 128.104065,49.346733 
	C128.141159,47.915966 129.832245,45.343307 130.835419,45.304699 
	C141.438690,44.896584 152.057602,44.895424 163.112198,44.842400 
z"/>
<path fill="#F9FCFE" opacity="1.000000" stroke="none" 
	d="
M156.660187,187.044189 
	C156.749603,185.282776 156.839264,183.994308 157.024017,181.339584 
	C160.767120,182.366882 164.230179,182.925674 167.242996,184.402802 
	C168.058456,184.802628 168.184204,189.291245 167.472778,189.656586 
	C164.479080,191.194046 161.048553,191.880936 157.131073,193.076523 
	C156.899948,190.346237 156.780197,188.931686 156.660187,187.044189 
z"/>
<path fill="#F9FDFE" opacity="1.000000" stroke="none" 
	d="
M94.741013,189.858429 
	C94.718742,187.130966 94.718742,184.872620 94.718742,182.288971 
	C99.154419,182.162811 103.434639,181.009537 105.705345,185.277466 
	C106.407143,186.596558 105.502762,190.200958 104.327370,190.806946 
	C101.365753,192.333832 97.756104,193.783844 94.741013,189.858429 
z"/>
</svg>