<svg version="1.1" id="Layer_1" xmlns="http://www.w3.org/2000/svg" xmlns:xlink="http://www.w3.org/1999/xlink" x="0px" y="0px"
	 width="100%" viewBox="0 0 1422 254" enable-background="new 0 0 1422 254" xml:space="preserve">
<path fill="#FFFFFF" opacity="1.000000" stroke="none" 
	d="
M1079.000000,255.000000 
	C719.333435,255.000000 360.166870,255.000000 1.000241,255.000000 
	C1.000161,170.333466 1.000161,85.666931 1.000080,1.000298 
	C474.999725,1.000198 948.999451,1.000198 1422.999268,1.000099 
	C1422.999512,85.666367 1422.999512,170.332733 1422.999756,254.999542 
	C1308.500000,255.000000 1194.000000,255.000000 1079.000000,255.000000 
M631.887390,102.513153 
	C633.338989,112.486069 638.599426,120.417152 645.685730,127.465576 
	C628.648621,132.148117 620.143433,154.308029 638.419128,168.198029 
	C637.577759,168.816254 636.825256,169.374985 636.066833,169.925568 
	C618.798340,182.462753 618.012695,203.062943 634.737488,216.368256 
	C650.477966,228.890472 669.104431,231.617661 688.513000,230.310974 
	C704.623474,229.226318 719.659851,224.863174 731.954651,213.702576 
	C738.684326,207.593674 742.611938,200.063461 741.964661,190.738022 
	C741.067505,177.814789 734.085754,168.619797 723.238647,162.383881 
	C707.176880,153.150192 689.663757,151.114532 671.552979,153.359894 
	C666.888245,153.938232 662.456055,153.757767 660.309753,149.291855 
	C659.224976,147.034637 659.402771,143.241501 660.610718,141.009338 
	C662.964417,136.660248 667.308472,138.230392 671.342957,138.743546 
	C677.416809,139.516098 683.631653,140.321396 689.692688,139.865036 
	C723.875427,137.291229 742.419556,107.010475 729.197327,75.633766 
	C736.699402,70.383240 741.031189,63.383202 741.138916,53.708015 
	C731.978577,53.708015 723.205566,53.708015 714.495972,53.708015 
	C713.758545,55.593216 713.055176,57.391235 712.225830,59.511478 
	C710.969177,58.882690 710.104370,58.476776 709.263977,58.025486 
	C694.842102,50.281025 679.794250,49.283794 664.317444,54.107468 
	C642.057800,61.045177 628.633240,80.789619 631.887390,102.513153 
M458.506683,166.172699 
	C465.913788,166.172699 473.320923,166.172699 479.841248,166.172699 
	C479.841248,150.681122 479.945465,136.036957 479.807922,121.395050 
	C479.700073,109.914879 480.081726,98.352615 478.857086,86.976334 
	C476.190674,62.206474 457.689636,48.458515 433.080841,51.793892 
	C421.573761,53.353512 413.083771,59.333939 406.726532,68.939583 
	C396.991058,46.873180 361.587585,44.662903 344.481415,66.642929 
	C344.481415,61.768806 344.481415,57.769737 344.481415,53.470463 
	C332.294037,53.470463 320.818451,53.424698 309.344635,53.546429 
	C308.282379,53.557697 306.652435,54.380249 306.269043,55.256287 
	C303.759705,60.989830 301.521149,66.841881 298.980743,73.188271 
	C303.079376,73.188271 306.818146,73.188271 310.494019,73.188271 
	C310.494019,104.381279 310.494019,135.103745 310.494019,165.964233 
	C322.028687,165.964233 333.288055,165.964233 344.828461,165.964233 
	C344.891968,164.985168 344.993439,164.189728 344.987823,163.395035 
	C344.842651,142.746567 344.453369,122.095428 344.696350,101.451691 
	C344.756866,96.310066 346.104767,90.859612 348.201477,86.147591 
	C350.848145,80.199554 356.408264,77.617004 362.995667,78.041039 
	C369.406311,78.453705 374.175354,81.624237 376.196625,87.761978 
	C377.474487,91.642281 378.239075,95.838463 378.369141,99.920525 
	C378.676727,109.573952 378.468048,119.243843 378.468048,128.907074 
	C378.468079,141.174301 378.468048,153.441528 378.468048,165.869385 
	C389.679871,165.869385 401.063507,165.869385 412.807190,165.869385 
	C412.807190,164.772095 412.816071,163.975540 412.805878,163.179230 
	C412.543549,142.702179 411.951569,122.220688 412.230743,101.751068 
	C412.306671,96.185997 414.201935,90.254242 416.716461,85.216667 
	C419.621643,79.396423 425.545532,77.320961 432.043488,78.136887 
	C438.279694,78.919968 442.452148,82.599052 444.068176,88.591766 
	C445.180206,92.715508 446.030121,97.051003 446.065674,101.299660 
	C446.224731,120.288300 446.048431,139.279755 445.995575,158.270187 
	C445.988403,160.847641 445.994629,163.425140 445.994629,166.172729 
	C450.199921,166.172729 453.855316,166.172729 458.506683,166.172699 
M137.929108,142.394852 
	C148.072800,125.207558 150.123032,107.013260 143.883026,88.146904 
	C134.511398,59.812103 104.055473,43.968685 77.909500,54.232578 
	C70.612480,57.097107 64.355507,62.611012 57.390305,67.057060 
	C57.390305,63.037376 57.390305,58.366241 57.390305,53.471939 
	C45.369686,53.471939 34.052708,53.431149 22.737061,53.535046 
	C21.605618,53.545437 19.824989,54.142925 19.460649,54.963192 
	C16.889240,60.752392 14.609608,66.671196 12.000504,73.134071 
	C16.340019,73.134071 19.933908,73.134071 23.463192,73.134071 
	C23.463192,124.236343 23.463192,174.942627 23.463192,225.700836 
	C35.084389,225.700836 46.651245,225.700836 57.873215,225.700836 
	C57.873215,202.369095 57.873215,179.340500 57.873215,156.154755 
	C61.394176,158.590622 64.415169,161.209824 67.870384,162.982788 
	C86.482811,172.533401 119.250618,171.397903 137.929108,142.394852 
M971.827271,119.499954 
	C971.827271,134.927124 971.827271,150.354294 971.827271,165.874115 
	C983.057190,165.874115 994.450562,165.874115 1005.532043,165.874115 
	C1005.532043,145.121643 1005.337830,124.666481 1005.663391,104.219589 
	C1005.748840,98.851768 1006.682312,93.218857 1008.585449,88.225700 
	C1011.255798,81.219551 1017.237549,77.930275 1024.805054,78.024307 
	C1032.029175,78.114075 1037.352783,81.625877 1040.040161,88.167450 
	C1041.708252,92.228020 1042.884033,96.784157 1042.977051,101.145653 
	C1043.307251,116.630630 1043.075562,132.127548 1043.060913,147.619949 
	C1043.055176,153.688187 1043.060059,159.756439 1043.060059,165.767059 
	C1054.363647,165.767059 1065.912354,165.767059 1076.841309,165.767059 
	C1076.841309,144.718506 1077.092041,124.070389 1076.712158,103.433891 
	C1076.569458,95.675583 1075.671631,87.775101 1073.871582,80.237083 
	C1070.517944,66.192337 1062.403809,55.761650 1047.642090,52.468651 
	C1032.302368,49.046711 1018.573364,52.211014 1007.674683,64.341606 
	C1007.228027,64.838791 1006.598755,65.171822 1005.380554,66.088646 
	C1005.380554,61.496258 1005.380554,57.725082 1005.380554,53.473625 
	C993.334534,53.473625 981.715088,53.423512 970.098022,53.562782 
	C969.100708,53.574741 967.617737,54.626362 967.211426,55.563843 
	C964.783142,61.167065 962.604553,66.878517 960.126526,73.094681 
	C964.093750,73.094681 967.805054,73.094681 971.827209,73.094681 
	C971.827209,88.572395 971.827209,103.536171 971.827271,119.499954 
M1151.252197,81.046516 
	C1160.641724,86.907776 1161.727295,95.924507 1160.907104,106.368111 
	C1149.679199,98.960068 1137.855469,98.235153 1125.641113,101.084160 
	C1109.482300,104.853271 1098.949585,118.106735 1098.473022,134.960388 
	C1098.027832,150.714401 1107.445679,163.519531 1123.229614,167.555893 
	C1137.917847,171.311966 1151.602417,169.585266 1162.426636,158.036621 
	C1164.828857,160.558563 1166.802002,163.338303 1169.413940,165.241364 
	C1177.725220,171.296814 1195.570923,170.235687 1203.282349,163.438141 
	C1204.045532,162.765442 1204.744385,161.559052 1204.767700,160.583557 
	C1204.905762,154.792816 1204.835938,148.997116 1204.835938,143.192978 
	C1194.031982,143.585037 1192.951416,142.416809 1192.817383,131.762238 
	C1192.645996,118.123322 1192.896851,104.442719 1191.896973,90.858742 
	C1190.219971,68.073746 1176.474121,54.625248 1153.946289,51.742298 
	C1137.681885,49.660904 1122.668823,53.966110 1107.873047,59.351589 
	C1107.873047,68.945847 1107.873047,78.455803 1107.873047,88.218132 
	C1125.214844,76.778519 1137.633667,74.656349 1151.252197,81.046516 
M939.693787,138.443588 
	C939.463684,135.634033 939.102173,132.828064 939.025757,130.014328 
	C938.646240,116.042511 939.200623,101.982407 937.807861,88.115921 
	C935.770264,67.829041 922.173889,54.758430 902.982178,51.985775 
	C885.778076,49.500278 869.736633,53.361576 854.246826,59.444901 
	C854.246826,69.224159 854.246826,78.719185 854.246826,88.817429 
	C864.452087,79.397713 875.939880,76.196808 888.855408,78.012917 
	C902.481262,79.928902 910.461670,92.470909 906.570068,105.923134 
	C895.810181,98.946365 884.105530,98.219215 872.061523,101.077011 
	C854.546509,105.232956 844.567810,118.996216 844.996887,137.912537 
	C845.345032,153.261566 855.930969,164.952805 872.989624,168.277924 
	C886.688599,170.948151 899.150269,168.546341 908.814270,157.925110 
	C911.273132,160.550262 913.219360,163.300446 915.780457,165.237671 
	C923.809387,171.310623 941.850891,170.241745 949.653259,163.418564 
	C950.408997,162.757690 951.075989,161.543442 951.098511,160.570221 
	C951.232544,154.778168 951.164734,148.981445 951.164734,142.943161 
	C946.668213,143.154083 941.872803,145.132141 939.693787,138.443588 
M1395.498047,116.169960 
	C1399.663696,116.169823 1403.840088,115.984840 1407.991333,116.229591 
	C1411.160767,116.416458 1412.196777,115.064705 1412.002808,112.173874 
	C1411.647095,106.872406 1411.809814,101.483215 1410.899048,96.280655 
	C1405.600586,66.011246 1376.274780,46.052677 1347.106934,52.638168 
	C1319.800781,58.803307 1302.868408,82.090164 1303.473145,112.647453 
	C1304.002808,139.410217 1323.795532,162.182709 1350.486572,167.040527 
	C1367.332886,170.106598 1383.479004,166.705231 1399.523071,162.509796 
	C1399.523071,153.324081 1399.523071,144.283737 1399.523071,135.308411 
	C1399.051025,135.222122 1398.859863,135.120712 1398.743164,135.176102 
	C1397.546631,135.743607 1396.394653,136.417801 1395.169189,136.909821 
	C1381.620850,142.349503 1367.838867,144.611542 1354.070435,138.144577 
	C1345.044067,133.904968 1339.750244,126.464355 1337.823730,116.169983 
	C1357.190796,116.169983 1375.844604,116.169983 1395.498047,116.169960 
M610.918701,93.730919 
	C610.602844,92.610168 610.307251,91.483238 609.968201,90.369560 
	C601.624390,62.962700 575.179993,46.820408 548.004822,52.541199 
	C523.991516,57.596378 506.752930,77.504494 504.143982,103.194099 
	C501.463348,129.589523 514.941162,153.251266 538.147583,163.088089 
	C558.901489,171.885269 579.442505,167.933365 599.796265,162.555710 
	C599.796265,153.239624 599.796265,144.224075 599.796265,135.045593 
	C565.391541,151.350494 540.462463,136.125015 538.856567,116.117455 
	C563.151367,116.117455 587.419128,116.117455 612.964600,116.117455 
	C612.298340,108.616219 611.673889,101.585518 610.918701,93.730919 
M1265.174072,135.261612 
	C1263.729736,130.243149 1261.366089,125.284378 1261.035522,120.193588 
	C1260.378540,110.073792 1260.841187,99.881317 1260.841064,89.718880 
	C1260.841064,86.961586 1260.841064,84.204300 1260.841064,81.079803 
	C1271.161133,81.079803 1280.758545,81.079803 1290.583008,81.079803 
	C1290.583008,71.788223 1290.583008,62.894909 1290.583008,53.407856 
	C1280.619385,53.407856 1270.900146,53.407856 1260.945801,53.407856 
	C1260.945801,43.072708 1260.945801,33.327309 1260.945801,23.425320 
	C1249.456787,23.425320 1238.222168,23.425320 1226.787109,23.425320 
	C1226.787109,33.550999 1226.787109,43.415531 1226.787109,53.744862 
	C1221.340820,53.744862 1216.264038,53.744862 1211.316162,53.744862 
	C1211.316162,63.144573 1211.316162,72.066681 1211.316162,81.411385 
	C1216.726318,81.411385 1221.817261,81.411385 1227.159058,81.411385 
	C1227.159058,96.993034 1227.063110,112.144226 1227.182007,127.293724 
	C1227.353516,149.146927 1239.018799,164.399612 1259.167358,167.445282 
	C1268.188721,168.808945 1277.587524,167.675949 1286.953369,167.675949 
	C1286.953369,157.148300 1286.953369,148.041168 1286.953369,138.816422 
	C1279.359131,140.299820 1271.913330,142.143036 1265.174072,135.261612 
M284.270538,114.812012 
	C287.005524,90.748230 273.815613,61.098049 240.327820,51.573326 
	C240.834457,47.397648 241.323318,43.368412 241.812195,39.339180 
	C238.390732,39.492271 234.969254,39.645363 232.217102,39.768505 
	C230.082748,37.457405 227.860733,35.051380 225.638718,32.645348 
	C223.334869,35.154720 221.031036,37.664097 219.078934,39.790348 
	C216.078995,39.615257 212.778488,39.422623 209.477997,39.229988 
	C209.893951,43.264812 210.309906,47.299633 210.768036,51.743610 
	C210.765244,51.744419 209.832367,51.988541 208.914841,52.280830 
	C178.527817,61.960930 161.707260,90.471611 167.942078,121.721741 
	C173.519699,149.678024 199.807083,169.465805 229.397308,167.982086 
	C257.435791,166.576187 281.553314,143.550705 284.270538,114.812012 
M829.049500,84.128220 
	C831.456543,85.130005 833.863586,86.131798 836.599854,87.270607 
	C836.599854,75.427193 836.599854,64.044029 836.599854,52.509472 
	C816.896423,47.864727 804.244080,56.389160 795.286133,73.356461 
	C795.286133,66.792336 795.286133,60.228207 795.286133,53.468632 
	C784.356812,53.468632 774.038635,53.420467 763.722351,53.542217 
	C762.676819,53.554554 761.073608,54.339230 760.696472,55.192871 
	C758.175537,60.898132 755.917236,66.719437 753.372925,72.998474 
	C757.473389,72.998474 761.069580,72.998474 764.670471,72.998474 
	C764.670471,104.227867 764.670471,135.079712 764.670471,165.793213 
	C776.507874,165.793213 788.078979,165.793213 798.845154,165.793213 
	C798.845154,147.444214 798.527222,129.466202 799.036926,111.511711 
	C799.191833,106.054184 800.881287,100.318100 803.176819,95.309502 
	C808.188477,84.374359 816.522156,80.959328 829.049500,84.128220 
z"/>
<path fill="#2C3547" opacity="1.000000" stroke="none" 
	d="
M631.850891,102.083801 
	C628.633240,80.789619 642.057800,61.045177 664.317444,54.107468 
	C679.794250,49.283794 694.842102,50.281025 709.263977,58.025486 
	C710.104370,58.476776 710.969177,58.882690 712.225830,59.511478 
	C713.055176,57.391235 713.758545,55.593216 714.495972,53.708015 
	C723.205566,53.708015 731.978577,53.708015 741.138916,53.708015 
	C741.031189,63.383202 736.699402,70.383240 729.197327,75.633766 
	C742.419556,107.010475 723.875427,137.291229 689.692688,139.865036 
	C683.631653,140.321396 677.416809,139.516098 671.342957,138.743546 
	C667.308472,138.230392 662.964417,136.660248 660.610718,141.009338 
	C659.402771,143.241501 659.224976,147.034637 660.309753,149.291855 
	C662.456055,153.757767 666.888245,153.938232 671.552979,153.359894 
	C689.663757,151.114532 707.176880,153.150192 723.238647,162.383881 
	C734.085754,168.619797 741.067505,177.814789 741.964661,190.738022 
	C742.611938,200.063461 738.684326,207.593674 731.954651,213.702576 
	C719.659851,224.863174 704.623474,229.226318 688.513000,230.310974 
	C669.104431,231.617661 650.477966,228.890472 634.737488,216.368256 
	C618.012695,203.062943 618.798340,182.462753 636.066833,169.925568 
	C636.825256,169.374985 637.577759,168.816254 638.419128,168.198029 
	C620.143433,154.308029 628.648621,132.148117 645.685730,127.465576 
	C638.599426,120.417152 633.338989,112.486069 631.850891,102.083801 
M685.268799,208.119446 
	C689.916626,206.965179 694.744507,206.267456 699.160950,204.526352 
	C703.449219,202.835754 706.861877,199.577835 706.936890,194.449020 
	C707.008911,189.525284 703.790405,186.415695 699.778625,184.433472 
	C688.812073,179.014816 677.460327,178.142456 666.003296,182.788574 
	C661.222900,184.727142 657.005615,187.705215 656.922668,193.541351 
	C656.837646,199.530533 660.828613,203.357300 665.876404,204.917282 
	C671.797241,206.747116 678.161438,207.142578 685.268799,208.119446 
M696.787415,84.869247 
	C691.583313,78.654495 685.070312,76.207321 677.250000,78.734337 
	C667.270569,81.959038 662.416809,92.878204 666.397888,102.515823 
	C670.345947,112.073257 681.286255,116.317207 690.366699,111.813568 
	C700.200806,106.936157 703.157715,95.538284 696.787415,84.869247 
z"/>
<path fill="#2D3647" opacity="1.000000" stroke="none" 
	d="
M458.008728,166.172714 
	C453.855316,166.172729 450.199921,166.172729 445.994629,166.172729 
	C445.994629,163.425140 445.988403,160.847641 445.995575,158.270187 
	C446.048431,139.279755 446.224731,120.288300 446.065674,101.299660 
	C446.030121,97.051003 445.180206,92.715508 444.068176,88.591766 
	C442.452148,82.599052 438.279694,78.919968 432.043488,78.136887 
	C425.545532,77.320961 419.621643,79.396423 416.716461,85.216667 
	C414.201935,90.254242 412.306671,96.185997 412.230743,101.751068 
	C411.951569,122.220688 412.543549,142.702179 412.805878,163.179230 
	C412.816071,163.975540 412.807190,164.772095 412.807190,165.869385 
	C401.063507,165.869385 389.679871,165.869385 378.468048,165.869385 
	C378.468048,153.441528 378.468079,141.174301 378.468048,128.907074 
	C378.468048,119.243843 378.676727,109.573952 378.369141,99.920525 
	C378.239075,95.838463 377.474487,91.642281 376.196625,87.761978 
	C374.175354,81.624237 369.406311,78.453705 362.995667,78.041039 
	C356.408264,77.617004 350.848145,80.199554 348.201477,86.147591 
	C346.104767,90.859612 344.756866,96.310066 344.696350,101.451691 
	C344.453369,122.095428 344.842651,142.746567 344.987823,163.395035 
	C344.993439,164.189728 344.891968,164.985168 344.828461,165.964233 
	C333.288055,165.964233 322.028687,165.964233 310.494019,165.964233 
	C310.494019,135.103745 310.494019,104.381279 310.494019,73.188271 
	C306.818146,73.188271 303.079376,73.188271 298.980743,73.188271 
	C301.521149,66.841881 303.759705,60.989830 306.269043,55.256287 
	C306.652435,54.380249 308.282379,53.557697 309.344635,53.546429 
	C320.818451,53.424698 332.294037,53.470463 344.481415,53.470463 
	C344.481415,57.769737 344.481415,61.768806 344.481415,66.642929 
	C361.587585,44.662903 396.991058,46.873180 406.726532,68.939583 
	C413.083771,59.333939 421.573761,53.353512 433.080841,51.793892 
	C457.689636,48.458515 476.190674,62.206474 478.857086,86.976334 
	C480.081726,98.352615 479.700073,109.914879 479.807922,121.395050 
	C479.945465,136.036957 479.841248,150.681122 479.841248,166.172699 
	C473.320923,166.172699 465.913788,166.172699 458.008728,166.172714 
z"/>
<path fill="#2C3547" opacity="1.000000" stroke="none" 
	d="
M137.737488,142.702301 
	C119.250618,171.397903 86.482811,172.533401 67.870384,162.982788 
	C64.415169,161.209824 61.394176,158.590622 57.873215,156.154755 
	C57.873215,179.340500 57.873215,202.369095 57.873215,225.700836 
	C46.651245,225.700836 35.084389,225.700836 23.463192,225.700836 
	C23.463192,174.942627 23.463192,124.236343 23.463192,73.134071 
	C19.933908,73.134071 16.340019,73.134071 12.000504,73.134071 
	C14.609608,66.671196 16.889240,60.752392 19.460649,54.963192 
	C19.824989,54.142925 21.605618,53.545437 22.737061,53.535046 
	C34.052708,53.431149 45.369686,53.471939 57.390305,53.471939 
	C57.390305,58.366241 57.390305,63.037376 57.390305,67.057060 
	C64.355507,62.611012 70.612480,57.097107 77.909500,54.232578 
	C104.055473,43.968685 134.511398,59.812103 143.883026,88.146904 
	C150.123032,107.013260 148.072800,125.207558 137.737488,142.702301 
M59.720737,123.579597 
	C64.742401,133.320145 72.459709,139.433426 83.595093,139.924545 
	C101.037750,140.693832 114.126152,125.867279 112.977692,107.133911 
	C112.136658,93.415131 101.595848,81.522667 88.771286,79.823456 
	C75.405052,78.052483 62.696972,86.209984 58.270947,99.541397 
	C55.651009,107.432777 56.045254,115.258423 59.720737,123.579597 
z"/>
<path fill="#2D3647" opacity="1.000000" stroke="none" 
	d="
M971.827271,118.999954 
	C971.827209,103.536171 971.827209,88.572395 971.827209,73.094681 
	C967.805054,73.094681 964.093750,73.094681 960.126526,73.094681 
	C962.604553,66.878517 964.783142,61.167065 967.211426,55.563843 
	C967.617737,54.626362 969.100708,53.574741 970.098022,53.562782 
	C981.715088,53.423512 993.334534,53.473625 1005.380554,53.473625 
	C1005.380554,57.725082 1005.380554,61.496258 1005.380554,66.088646 
	C1006.598755,65.171822 1007.228027,64.838791 1007.674683,64.341606 
	C1018.573364,52.211014 1032.302368,49.046711 1047.642090,52.468651 
	C1062.403809,55.761650 1070.517944,66.192337 1073.871582,80.237083 
	C1075.671631,87.775101 1076.569458,95.675583 1076.712158,103.433891 
	C1077.092041,124.070389 1076.841309,144.718506 1076.841309,165.767059 
	C1065.912354,165.767059 1054.363647,165.767059 1043.060059,165.767059 
	C1043.060059,159.756439 1043.055176,153.688187 1043.060913,147.619949 
	C1043.075562,132.127548 1043.307251,116.630630 1042.977051,101.145653 
	C1042.884033,96.784157 1041.708252,92.228020 1040.040161,88.167450 
	C1037.352783,81.625877 1032.029175,78.114075 1024.805054,78.024307 
	C1017.237549,77.930275 1011.255798,81.219551 1008.585449,88.225700 
	C1006.682312,93.218857 1005.748840,98.851768 1005.663391,104.219589 
	C1005.337830,124.666481 1005.532043,145.121643 1005.532043,165.874115 
	C994.450562,165.874115 983.057190,165.874115 971.827271,165.874115 
	C971.827271,150.354294 971.827271,134.927124 971.827271,118.999954 
z"/>
<path fill="#2D3647" opacity="1.000000" stroke="none" 
	d="
M1150.913452,80.884872 
	C1137.633667,74.656349 1125.214844,76.778519 1107.873047,88.218132 
	C1107.873047,78.455803 1107.873047,68.945847 1107.873047,59.351589 
	C1122.668823,53.966110 1137.681885,49.660904 1153.946289,51.742298 
	C1176.474121,54.625248 1190.219971,68.073746 1191.896973,90.858742 
	C1192.896851,104.442719 1192.645996,118.123322 1192.817383,131.762238 
	C1192.951416,142.416809 1194.031982,143.585037 1204.835938,143.192978 
	C1204.835938,148.997116 1204.905762,154.792816 1204.767700,160.583557 
	C1204.744385,161.559052 1204.045532,162.765442 1203.282349,163.438141 
	C1195.570923,170.235687 1177.725220,171.296814 1169.413940,165.241364 
	C1166.802002,163.338303 1164.828857,160.558563 1162.426636,158.036621 
	C1151.602417,169.585266 1137.917847,171.311966 1123.229614,167.555893 
	C1107.445679,163.519531 1098.027832,150.714401 1098.473022,134.960388 
	C1098.949585,118.106735 1109.482300,104.853271 1125.641113,101.084160 
	C1137.855469,98.235153 1149.679199,98.960068 1160.907104,106.368111 
	C1161.727295,95.924507 1160.641724,86.907776 1150.913452,80.884872 
M1146.506226,146.806351 
	C1147.324951,146.688370 1148.151367,146.608337 1148.961304,146.446564 
	C1157.403564,144.760452 1162.429932,139.119675 1161.445679,132.454285 
	C1160.467529,125.828972 1153.249512,120.903519 1145.321899,121.517860 
	C1143.843994,121.632378 1142.340698,121.857170 1140.927368,122.287773 
	C1135.383545,123.976814 1131.841187,128.599411 1131.845337,133.965988 
	C1131.849609,139.418839 1135.286987,144.004425 1140.828735,145.741043 
	C1142.397827,146.232727 1144.076660,146.373871 1146.506226,146.806351 
z"/>
<path fill="#2C3547" opacity="1.000000" stroke="none" 
	d="
M939.810547,138.856247 
	C941.872803,145.132141 946.668213,143.154083 951.164734,142.943161 
	C951.164734,148.981445 951.232544,154.778168 951.098511,160.570221 
	C951.075989,161.543442 950.408997,162.757690 949.653259,163.418564 
	C941.850891,170.241745 923.809387,171.310623 915.780457,165.237671 
	C913.219360,163.300446 911.273132,160.550262 908.814270,157.925110 
	C899.150269,168.546341 886.688599,170.948151 872.989624,168.277924 
	C855.930969,164.952805 845.345032,153.261566 844.996887,137.912537 
	C844.567810,118.996216 854.546509,105.232956 872.061523,101.077011 
	C884.105530,98.219215 895.810181,98.946365 906.570068,105.923134 
	C910.461670,92.470909 902.481262,79.928902 888.855408,78.012917 
	C875.939880,76.196808 864.452087,79.397713 854.246826,88.817429 
	C854.246826,78.719185 854.246826,69.224159 854.246826,59.444901 
	C869.736633,53.361576 885.778076,49.500278 902.982178,51.985775 
	C922.173889,54.758430 935.770264,67.829041 937.807861,88.115921 
	C939.200623,101.982407 938.646240,116.042511 939.025757,130.014328 
	C939.102173,132.828064 939.463684,135.634033 939.810547,138.856247 
M894.963745,146.518570 
	C897.688843,145.407318 900.760925,144.768890 903.062012,143.079895 
	C907.047791,140.154388 909.100708,136.018814 907.467163,130.885651 
	C905.354858,124.248138 897.771790,120.446411 889.587830,121.806534 
	C882.671326,122.956017 878.105957,127.872688 878.165100,134.108215 
	C878.228333,140.768311 882.934265,145.268860 891.220764,146.539734 
	C892.185242,146.687653 893.182373,146.622665 894.963745,146.518570 
z"/>
<path fill="#2C3547" opacity="1.000000" stroke="none" 
	d="
M1394.998291,116.169968 
	C1375.844604,116.169983 1357.190796,116.169983 1337.823730,116.169983 
	C1339.750244,126.464355 1345.044067,133.904968 1354.070435,138.144577 
	C1367.838867,144.611542 1381.620850,142.349503 1395.169189,136.909821 
	C1396.394653,136.417801 1397.546631,135.743607 1398.743164,135.176102 
	C1398.859863,135.120712 1399.051025,135.222122 1399.523071,135.308411 
	C1399.523071,144.283737 1399.523071,153.324081 1399.523071,162.509796 
	C1383.479004,166.705231 1367.332886,170.106598 1350.486572,167.040527 
	C1323.795532,162.182709 1304.002808,139.410217 1303.473145,112.647453 
	C1302.868408,82.090164 1319.800781,58.803307 1347.106934,52.638168 
	C1376.274780,46.052677 1405.600586,66.011246 1410.899048,96.280655 
	C1411.809814,101.483215 1411.647095,106.872406 1412.002808,112.173874 
	C1412.196777,115.064705 1411.160767,116.416458 1407.991333,116.229591 
	C1403.840088,115.984840 1399.663696,116.169823 1394.998291,116.169968 
M1338.158325,90.507294 
	C1338.629761,91.523415 1338.862671,92.844658 1339.648315,93.458435 
	C1340.268677,93.943024 1341.568848,93.558243 1342.567017,93.558258 
	C1353.978638,93.558441 1365.390259,93.558372 1376.849487,93.558372 
	C1376.167358,86.414803 1372.480225,80.815865 1366.904297,77.936974 
	C1356.093384,72.355125 1344.764404,77.096985 1338.158325,90.507294 
z"/>
<path fill="#2C3546" opacity="1.000000" stroke="none" 
	d="
M610.984070,94.142868 
	C611.673889,101.585518 612.298340,108.616219 612.964600,116.117455 
	C587.419128,116.117455 563.151367,116.117455 538.856567,116.117455 
	C540.462463,136.125015 565.391541,151.350494 599.796265,135.045593 
	C599.796265,144.224075 599.796265,153.239624 599.796265,162.555710 
	C579.442505,167.933365 558.901489,171.885269 538.147583,163.088089 
	C514.941162,153.251266 501.463348,129.589523 504.143982,103.194099 
	C506.752930,77.504494 523.991516,57.596378 548.004822,52.541199 
	C575.179993,46.820408 601.624390,62.962700 609.968201,90.369560 
	C610.307251,91.483238 610.602844,92.610168 610.984070,94.142868 
M556.730591,75.914185 
	C546.850281,77.183304 539.782532,83.854668 538.438171,93.181374 
	C551.463074,93.181374 564.487976,93.181374 577.585754,93.181374 
	C575.137512,81.528900 568.869324,76.178299 556.730591,75.914185 
z"/>
<path fill="#2D3647" opacity="1.000000" stroke="none" 
	d="
M1265.426147,135.538330 
	C1271.913330,142.143036 1279.359131,140.299820 1286.953369,138.816422 
	C1286.953369,148.041168 1286.953369,157.148300 1286.953369,167.675949 
	C1277.587524,167.675949 1268.188721,168.808945 1259.167358,167.445282 
	C1239.018799,164.399612 1227.353516,149.146927 1227.182007,127.293724 
	C1227.063110,112.144226 1227.159058,96.993034 1227.159058,81.411385 
	C1221.817261,81.411385 1216.726318,81.411385 1211.316162,81.411385 
	C1211.316162,72.066681 1211.316162,63.144573 1211.316162,53.744862 
	C1216.264038,53.744862 1221.340820,53.744862 1226.787109,53.744862 
	C1226.787109,43.415531 1226.787109,33.550999 1226.787109,23.425320 
	C1238.222168,23.425320 1249.456787,23.425320 1260.945801,23.425320 
	C1260.945801,33.327309 1260.945801,43.072708 1260.945801,53.407856 
	C1270.900146,53.407856 1280.619385,53.407856 1290.583008,53.407856 
	C1290.583008,62.894909 1290.583008,71.788223 1290.583008,81.079803 
	C1280.758545,81.079803 1271.161133,81.079803 1260.841064,81.079803 
	C1260.841064,84.204300 1260.841064,86.961586 1260.841064,89.718880 
	C1260.841187,99.881317 1260.378540,110.073792 1261.035522,120.193588 
	C1261.366089,125.284378 1263.729736,130.243149 1265.426147,135.538330 
z"/>
<path fill="#AA204A" opacity="1.000000" stroke="none" 
	d="
M284.220490,115.250565 
	C281.553314,143.550705 257.435791,166.576187 229.397308,167.982086 
	C199.807083,169.465805 173.519699,149.678024 167.942078,121.721741 
	C161.707260,90.471611 178.527817,61.960930 208.914841,52.280830 
	C209.832367,51.988541 210.765244,51.744419 210.768036,51.743610 
	C210.309906,47.299633 209.893951,43.264812 209.477997,39.229988 
	C212.778488,39.422623 216.078995,39.615257 219.078934,39.790348 
	C221.031036,37.664097 223.334869,35.154720 225.638718,32.645355 
	C227.860733,35.051380 230.082748,37.457405 232.217102,39.768505 
	C234.969254,39.645363 238.390732,39.492271 241.812195,39.339180 
	C241.323318,43.368412 240.834457,47.397648 240.327820,51.573326 
	C273.815613,61.098049 287.005524,90.748230 284.220490,115.250565 
M228.645020,56.998867 
	C221.974243,57.335903 217.446228,61.617973 216.199295,69.562492 
	C215.403625,74.631889 215.158676,79.817696 215.054337,84.959167 
	C214.860275,94.523544 213.736343,103.575371 203.901978,109.120789 
	C212.897888,113.793091 214.460251,121.676453 214.986862,130.064026 
	C215.361588,136.032791 215.321564,142.056107 216.138443,147.962158 
	C217.492020,157.748611 223.535782,162.168625 232.640869,160.670135 
	C259.088409,156.317520 278.487396,133.890228 277.834595,108.421394 
	C277.137848,81.239464 257.054993,59.874542 228.645020,56.998867 
z"/>
<path fill="#2D3648" opacity="1.000000" stroke="none" 
	d="
M828.640503,84.048698 
	C816.522156,80.959328 808.188477,84.374359 803.176819,95.309502 
	C800.881287,100.318100 799.191833,106.054184 799.036926,111.511711 
	C798.527222,129.466202 798.845154,147.444214 798.845154,165.793213 
	C788.078979,165.793213 776.507874,165.793213 764.670471,165.793213 
	C764.670471,135.079712 764.670471,104.227867 764.670471,72.998474 
	C761.069580,72.998474 757.473389,72.998474 753.372925,72.998474 
	C755.917236,66.719437 758.175537,60.898132 760.696472,55.192871 
	C761.073608,54.339230 762.676819,53.554554 763.722351,53.542217 
	C774.038635,53.420467 784.356812,53.468632 795.286133,53.468632 
	C795.286133,60.228207 795.286133,66.792336 795.286133,73.356461 
	C804.244080,56.389160 816.896423,47.864727 836.599854,52.509472 
	C836.599854,64.044029 836.599854,75.427193 836.599854,87.270607 
	C833.863586,86.131798 831.456543,85.130005 828.640503,84.048698 
z"/>
<path fill="#FDFDFD" opacity="1.000000" stroke="none" 
	d="
M684.801025,208.139801 
	C678.161438,207.142578 671.797241,206.747116 665.876404,204.917282 
	C660.828613,203.357300 656.837646,199.530533 656.922668,193.541351 
	C657.005615,187.705215 661.222900,184.727142 666.003296,182.788574 
	C677.460327,178.142456 688.812073,179.014816 699.778625,184.433472 
	C703.790405,186.415695 707.008911,189.525284 706.936890,194.449020 
	C706.861877,199.577835 703.449219,202.835754 699.160950,204.526352 
	C694.744507,206.267456 689.916626,206.965179 684.801025,208.139801 
z"/>
<path fill="#FDFDFD" opacity="1.000000" stroke="none" 
	d="
M696.989258,85.188538 
	C703.157715,95.538284 700.200806,106.936157 690.366699,111.813568 
	C681.286255,116.317207 670.345947,112.073257 666.397888,102.515823 
	C662.416809,92.878204 667.270569,81.959038 677.250000,78.734337 
	C685.070312,76.207321 691.583313,78.654495 696.989258,85.188538 
z"/>
<path fill="#FEFEFE" opacity="1.000000" stroke="none" 
	d="
M59.523666,123.249084 
	C56.045254,115.258423 55.651009,107.432777 58.270947,99.541397 
	C62.696972,86.209984 75.405052,78.052483 88.771286,79.823456 
	C101.595848,81.522667 112.136658,93.415131 112.977692,107.133911 
	C114.126152,125.867279 101.037750,140.693832 83.595093,139.924545 
	C72.459709,139.433426 64.742401,133.320145 59.523666,123.249084 
z"/>
<path fill="#FCFCFC" opacity="1.000000" stroke="none" 
	d="
M1146.105713,146.741074 
	C1144.076660,146.373871 1142.397827,146.232727 1140.828735,145.741043 
	C1135.286987,144.004425 1131.849609,139.418839 1131.845337,133.965988 
	C1131.841187,128.599411 1135.383545,123.976814 1140.927368,122.287773 
	C1142.340698,121.857170 1143.843994,121.632378 1145.321899,121.517860 
	C1153.249512,120.903519 1160.467529,125.828972 1161.445679,132.454285 
	C1162.429932,139.119675 1157.403564,144.760452 1148.961304,146.446564 
	C1148.151367,146.608337 1147.324951,146.688370 1146.105713,146.741074 
z"/>
<path fill="#FCFCFC" opacity="1.000000" stroke="none" 
	d="
M894.564087,146.587479 
	C893.182373,146.622665 892.185242,146.687653 891.220764,146.539734 
	C882.934265,145.268860 878.228333,140.768311 878.165100,134.108215 
	C878.105957,127.872688 882.671326,122.956017 889.587830,121.806534 
	C897.771790,120.446411 905.354858,124.248138 907.467163,130.885651 
	C909.100708,136.018814 907.047791,140.154388 903.062012,143.079895 
	C900.760925,144.768890 897.688843,145.407318 894.564087,146.587479 
z"/>
<path fill="#F5F5F6" opacity="1.000000" stroke="none" 
	d="
M1338.306396,90.176071 
	C1344.764404,77.096985 1356.093384,72.355125 1366.904297,77.936974 
	C1372.480225,80.815865 1376.167358,86.414803 1376.849487,93.558372 
	C1365.390259,93.558372 1353.978638,93.558441 1342.567017,93.558258 
	C1341.568848,93.558243 1340.268677,93.943024 1339.648315,93.458435 
	C1338.862671,92.844658 1338.629761,91.523415 1338.306396,90.176071 
z"/>
<path fill="#F5F5F6" opacity="1.000000" stroke="none" 
	d="
M557.171997,75.868515 
	C568.869324,76.178299 575.137512,81.528900 577.585754,93.181374 
	C564.487976,93.181374 551.463074,93.181374 538.436401,93.182770 
	C539.782532,83.854668 546.850281,77.183304 557.171997,75.868515 
z"/>
<path fill="#FDFBFB" opacity="1.000000" stroke="none" 
	d="
M229.076645,57.004448 
	C257.054993,59.874542 277.137848,81.239464 277.834595,108.421394 
	C278.487396,133.890228 259.088409,156.317520 232.640869,160.670135 
	C223.535782,162.168625 217.492020,157.748611 216.138443,147.962158 
	C215.321564,142.056107 215.361588,136.032791 214.986862,130.064026 
	C214.460251,121.676453 212.897888,113.793091 203.901978,109.120789 
	C213.736343,103.575371 214.860275,94.523544 215.054337,84.959167 
	C215.158676,79.817696 215.403625,74.631889 216.199295,69.562492 
	C217.446228,61.617973 221.974243,57.335903 229.076645,57.004448 
M222.437363,74.461655 
	C222.746841,78.106361 225.197906,80.646240 228.322922,79.634453 
	C234.323746,77.691551 237.440048,82.459343 241.801605,84.227730 
	C242.329849,84.441910 242.605499,86.884506 242.448944,86.948402 
	C238.084961,88.729370 235.118698,93.860481 229.237015,92.149864 
	C226.213104,91.270386 223.557159,92.485069 222.689331,95.890701 
	C221.874435,99.088623 223.015656,101.678764 226.170105,102.666229 
	C229.503662,103.709763 231.790329,102.250572 233.257034,98.936073 
	C234.041779,97.162666 235.580582,95.587425 237.099243,94.300583 
	C241.096649,90.913368 245.982559,89.886223 250.875748,91.124611 
	C253.535950,91.797890 255.880249,94.008507 258.116241,95.833038 
	C258.582336,96.213356 258.337036,98.593277 257.749969,98.950111 
	C254.391907,100.991188 251.997955,104.806976 246.911880,103.862808 
	C245.114273,103.529099 241.783859,105.591232 240.879364,107.415405 
	C238.247955,112.722435 234.492416,115.494843 228.559799,115.026497 
	C225.061646,114.750343 222.266708,117.252220 222.473389,120.692802 
	C222.687698,124.260269 224.871811,126.897354 228.269714,125.841911 
	C234.182495,124.005295 237.359360,128.681366 241.717865,130.448883 
	C242.236740,130.659317 242.398148,133.438858 242.186447,133.514252 
	C237.876694,135.048737 235.026016,140.192154 229.296951,138.398621 
	C226.283310,137.455215 223.607040,138.830307 222.708908,142.125076 
	C221.852875,145.265381 222.933380,147.931458 226.149002,148.880951 
	C229.414001,149.845062 231.947144,148.723618 233.191040,145.177124 
	C234.753540,140.722198 242.440720,136.497528 246.956131,137.409668 
	C250.676666,138.161270 253.112518,136.783066 253.975250,133.022385 
	C255.047379,128.348862 258.212708,125.893646 263.321106,126.018280 
	C266.904266,126.105705 269.594696,124.428596 269.257874,120.949303 
	C269.057587,118.880363 266.901031,116.013931 264.972321,115.321625 
	C261.772034,114.172905 259.463287,116.283066 258.434631,119.731522 
	C257.917725,121.464478 256.976929,123.381081 255.633392,124.502350 
	C250.492935,128.792374 238.276794,127.224380 234.242477,121.893036 
	C233.755936,121.250061 233.551086,119.475365 233.852295,119.296364 
	C237.015900,117.416168 240.293243,114.401253 243.570572,114.362564 
	C248.012344,114.310120 250.502274,113.573021 251.593948,109.124756 
	C252.378082,105.929604 258.843018,102.452591 261.971466,102.459282 
	C264.165771,102.463982 266.837799,101.744583 268.389130,100.343719 
	C269.399994,99.430901 269.606293,95.962563 268.707397,94.980339 
	C267.275269,93.415436 264.675110,92.379250 262.472748,92.179527 
	C258.679382,91.835495 254.698547,89.178223 254.013718,85.616241 
	C253.179779,81.278679 250.918106,79.773621 246.632324,80.704193 
	C242.971207,81.499138 234.943024,76.735199 233.187103,73.572655 
	C232.093948,71.603798 229.619370,69.140984 227.815521,69.181129 
	C225.999207,69.221535 224.245697,72.085114 222.437363,74.461655 
z"/>
<path fill="#AE2A52" opacity="1.000000" stroke="none" 
	d="
M222.451019,74.086662 
	C224.245697,72.085114 225.999207,69.221535 227.815521,69.181129 
	C229.619370,69.140984 232.093948,71.603798 233.187103,73.572655 
	C234.943024,76.735199 242.971207,81.499138 246.632324,80.704193 
	C250.918106,79.773621 253.179779,81.278679 254.013718,85.616241 
	C254.698547,89.178223 258.679382,91.835495 262.472748,92.179527 
	C264.675110,92.379250 267.275269,93.415436 268.707397,94.980339 
	C269.606293,95.962563 269.399994,99.430901 268.389130,100.343719 
	C266.837799,101.744583 264.165771,102.463982 261.971466,102.459282 
	C258.843018,102.452591 252.378082,105.929604 251.593948,109.124756 
	C250.502274,113.573021 248.012344,114.310120 243.570572,114.362564 
	C240.293243,114.401253 237.015900,117.416168 233.852295,119.296364 
	C233.551086,119.475365 233.755936,121.250061 234.242477,121.893036 
	C238.276794,127.224380 250.492935,128.792374 255.633392,124.502350 
	C256.976929,123.381081 257.917725,121.464478 258.434631,119.731522 
	C259.463287,116.283066 261.772034,114.172905 264.972321,115.321625 
	C266.901031,116.013931 269.057587,118.880363 269.257874,120.949303 
	C269.594696,124.428596 266.904266,126.105705 263.321106,126.018280 
	C258.212708,125.893646 255.047379,128.348862 253.975250,133.022385 
	C253.112518,136.783066 250.676666,138.161270 246.956131,137.409668 
	C242.440720,136.497528 234.753540,140.722198 233.191040,145.177124 
	C231.947144,148.723618 229.414001,149.845062 226.149002,148.880951 
	C222.933380,147.931458 221.852875,145.265381 222.708908,142.125076 
	C223.607040,138.830307 226.283310,137.455215 229.296951,138.398621 
	C235.026016,140.192154 237.876694,135.048737 242.186447,133.514252 
	C242.398148,133.438858 242.236740,130.659317 241.717865,130.448883 
	C237.359360,128.681366 234.182495,124.005295 228.269714,125.841911 
	C224.871811,126.897354 222.687698,124.260269 222.473389,120.692802 
	C222.266708,117.252220 225.061646,114.750343 228.559799,115.026497 
	C234.492416,115.494843 238.247955,112.722435 240.879364,107.415405 
	C241.783859,105.591232 245.114273,103.529099 246.911880,103.862808 
	C251.997955,104.806976 254.391907,100.991188 257.749969,98.950111 
	C258.337036,98.593277 258.582336,96.213356 258.116241,95.833038 
	C255.880249,94.008507 253.535950,91.797890 250.875748,91.124611 
	C245.982559,89.886223 241.096649,90.913368 237.099243,94.300583 
	C235.580582,95.587425 234.041779,97.162666 233.257034,98.936073 
	C231.790329,102.250572 229.503662,103.709763 226.170105,102.666229 
	C223.015656,101.678764 221.874435,99.088623 222.689331,95.890701 
	C223.557159,92.485069 226.213104,91.270386 229.237015,92.149864 
	C235.118698,93.860481 238.084961,88.729370 242.448944,86.948402 
	C242.605499,86.884506 242.329849,84.441910 241.801605,84.227730 
	C237.440048,82.459343 234.323746,77.691551 228.322922,79.634453 
	C225.197906,80.646240 222.746841,78.106361 222.451019,74.086662 
z"/>
</svg>