<svg version="1.1" id="Layer_1" xmlns="http://www.w3.org/2000/svg" xmlns:xlink="http://www.w3.org/1999/xlink" x="0px" y="0px"
	 width="100%" viewBox="0 0 1819 522" enable-background="new 0 0 1819 522" xml:space="preserve">
<path fill="#15291C" opacity="1.000000" stroke="none" 
	d="
M1186.000000,523.000000 
	C790.666687,523.000000 395.833344,523.000000 1.000000,523.000000 
	C1.000000,349.000000 1.000000,175.000000 1.000000,1.000000 
	C607.333313,1.000000 1213.666626,1.000000 1820.000000,1.000000 
	C1820.000000,175.000000 1820.000000,349.000000 1820.000000,523.000000 
	C1608.833374,523.000000 1397.666626,523.000000 1186.000000,523.000000 
M389.123230,390.662415 
	C400.083893,374.094574 414.210114,360.923706 431.597717,351.313477 
	C441.510345,345.834686 451.497711,340.489838 461.487305,335.151825 
	C479.233429,325.669098 485.992096,309.776550 479.899658,290.691101 
	C476.489410,280.007996 478.069916,270.424072 484.399292,261.320251 
	C498.559967,240.952438 498.561737,219.859619 484.186584,199.574860 
	C477.388397,189.981918 475.910828,179.920303 479.559021,168.823029 
	C488.152100,142.684113 473.055603,119.825500 445.538269,116.973076 
	C435.070160,115.887962 427.101227,110.740211 421.774384,101.573326 
	C420.187439,98.842377 418.625244,96.053589 416.685822,93.577950 
	C402.965729,76.064621 373.771545,74.487206 360.358704,90.443115 
	C363.657410,99.575333 370.148682,104.012726 379.836029,104.967705 
	C395.930847,106.554321 408.247772,114.730988 417.080933,128.186157 
	C422.310913,136.152695 424.573608,145.102921 425.229736,155.158615 
	C432.790833,151.085541 439.895203,147.258530 447.361053,143.236786 
	C449.486328,147.027664 451.325500,150.308197 453.453674,154.104202 
	C444.384003,159.119629 435.677490,163.920975 426.984222,168.746185 
	C421.301849,171.900192 418.918610,176.304962 420.393005,182.667023 
	C421.195007,186.127853 422.838806,189.596970 424.871521,192.529587 
	C430.157410,200.155533 434.308868,208.200272 436.207275,217.337372 
	C436.394440,218.238266 436.965546,219.059418 437.540222,220.314590 
	C444.967377,215.680984 452.124908,211.215576 459.764496,206.449448 
	C462.112000,210.105759 464.211700,213.376099 466.545319,217.010773 
	C457.613007,222.676224 449.135223,227.918396 440.838593,233.433060 
	C439.239624,234.495880 437.508759,236.513260 437.270996,238.282745 
	C435.792938,249.283066 431.768188,259.159821 425.220184,268.057312 
	C422.033295,272.387695 420.115021,277.208557 421.107391,282.560944 
	C422.388153,289.468689 424.202240,296.277618 425.862885,303.458893 
	C437.098053,296.413788 448.191162,289.457764 459.763611,282.201141 
	C462.119141,285.899414 464.200073,289.166595 466.421265,292.653961 
	C464.508514,293.951019 463.173187,294.911407 461.785492,295.789001 
	C449.535950,303.535797 437.236786,311.205414 425.061279,319.066620 
	C423.065460,320.355286 421.109894,322.196899 419.979004,324.247925 
	C415.534485,332.308685 409.483307,338.691010 401.945374,343.960663 
	C395.274231,348.624359 388.606354,353.450287 382.692352,359.008270 
	C367.919830,372.891510 358.036102,389.865265 352.541595,409.414734 
	C352.077454,411.066193 350.708588,413.454559 349.426025,413.691315 
	C346.122070,414.301178 342.630615,413.895325 338.653442,413.895325 
	C339.134460,411.463837 339.364532,409.847656 339.777557,408.279724 
	C348.184662,376.366486 366.624237,351.832214 394.154449,333.821167 
	C410.371429,323.211548 415.536591,308.928009 409.904022,290.670959 
	C406.548035,279.792999 408.405914,270.068817 414.761292,260.825104 
	C428.728485,240.510254 428.528870,219.693787 414.134705,199.559738 
	C407.307373,190.009949 405.833771,179.861877 409.573486,168.796997 
	C418.219116,143.216644 402.800415,119.518486 375.997467,117.011375 
	C365.099640,115.992004 356.763397,110.759186 351.548981,101.081810 
	C344.121216,87.296783 332.925964,79.511353 317.087067,79.408562 
	C301.057068,79.304535 289.615509,86.957542 282.035889,100.937759 
	C276.719666,110.743286 268.312225,116.066124 257.166992,117.056221 
	C231.068512,119.374710 215.276840,143.358765 223.749405,168.120163 
	C227.738434,179.778214 226.155975,190.200638 218.961044,200.216766 
	C205.095428,219.519180 204.867599,240.813049 218.373840,260.241028 
	C225.283600,270.180298 226.749741,280.477936 223.305374,292.002777 
	C221.909225,296.674286 221.214218,301.874847 221.639374,306.708038 
	C222.687286,318.621063 229.197281,327.386383 239.192596,333.760010 
	C256.191742,344.599640 270.078461,358.523834 280.353882,375.929077 
	C287.244598,387.601135 292.239044,400.008484 294.959869,413.950623 
	C291.498810,413.950623 288.515533,413.781647 285.560913,414.000031 
	C282.825165,414.202240 281.771484,412.929993 281.118591,410.493927 
	C273.427338,381.797791 256.443176,360.111206 231.824753,343.733826 
	C225.622147,339.607513 220.195084,333.685944 215.881149,327.555359 
	C212.611343,322.908539 209.266647,319.014282 204.374207,316.311310 
	C202.335663,315.185059 200.398392,313.873688 198.428162,312.625854 
	C188.038116,306.045227 177.652191,299.458069 166.955078,292.676819 
	C169.335266,289.051056 171.473389,285.794006 173.823044,282.214722 
	C185.469376,289.494324 196.527023,296.406006 207.876541,303.500092 
	C208.961777,298.200897 209.397644,293.523621 210.911255,289.225952 
	C213.831848,280.933350 212.715363,273.679077 207.413895,266.684601 
	C201.901321,259.411591 198.213974,251.139053 197.062347,242.071732 
	C196.412216,236.952957 194.265778,233.792618 189.784393,231.265182 
	C182.148026,226.958359 174.877579,222.002686 167.028473,217.051559 
	C169.472748,213.220001 171.551605,209.961273 173.806534,206.426544 
	C181.622223,211.316406 188.830307,215.826111 196.467804,220.604492 
	C198.876312,209.090622 203.137802,199.615494 209.710327,191.185745 
	C210.813385,189.770981 211.596970,188.031876 212.218307,186.329529 
	C215.199509,178.161591 212.942993,172.228699 205.420059,168.095688 
	C198.120712,164.085510 190.769714,160.163101 183.584427,155.957794 
	C182.414352,155.272980 181.033981,152.963211 181.388962,152.023010 
	C182.527527,149.007446 184.434677,146.282074 186.174088,143.217758 
	C193.894135,147.358978 200.968155,151.153671 208.278900,155.075317 
	C212.746368,123.366692 225.846527,109.904610 257.000610,104.454346 
	C263.343414,103.344696 267.818604,100.098793 271.258667,94.619888 
	C273.666626,90.784790 272.565155,88.941109 269.366302,86.577385 
	C253.266068,74.680466 225.172028,76.679314 212.948074,99.456612 
	C207.108109,110.338394 198.276047,116.041443 185.910370,117.236938 
	C160.840637,119.660652 145.254303,143.648529 153.474030,167.307892 
	C157.805023,179.774063 156.238220,190.770401 148.194473,201.107697 
	C135.817413,217.013870 135.360901,243.264771 147.856674,259.558685 
	C155.612991,269.672546 156.981445,280.461761 153.095276,292.525055 
	C147.742905,309.139771 154.786240,325.766632 170.153534,334.121582 
	C178.786850,338.815399 187.416031,343.520905 196.133316,348.055298 
	C213.227844,356.947235 227.933228,368.627014 239.729233,383.996735 
	C249.830750,397.158661 255.786560,412.336029 261.706085,427.549591 
	C262.925690,430.684052 264.291199,432.132080 268.013031,432.111542 
	C300.508484,431.932251 333.005615,431.952026 365.501465,432.090546 
	C368.909302,432.105072 370.366638,430.938232 371.721710,427.900299 
	C377.204773,415.607727 383.041473,403.472931 389.123230,390.662415 
M1221.499268,121.032410 
	C1215.668335,121.032410 1209.829224,121.220459 1204.009521,120.964912 
	C1200.260864,120.800301 1197.584595,121.916832 1194.869507,124.643669 
	C1158.075562,161.596588 1121.152710,198.421051 1084.252686,235.268219 
	C1083.038818,236.480316 1081.729492,237.596619 1079.630615,239.523056 
	C1079.630615,199.329391 1079.630615,160.289017 1079.630615,121.345085 
	C1068.847046,121.345085 1058.594604,121.345085 1048.212891,121.345085 
	C1048.212891,201.077255 1048.212891,280.496704 1048.212891,360.100220 
	C1058.788818,360.100220 1069.189209,360.100220 1079.848633,360.100220 
	C1079.848633,357.934387 1079.848755,356.110657 1079.848755,354.286926 
	C1079.848755,330.129211 1079.821289,305.971436 1079.902832,281.813995 
	C1079.909180,279.947144 1080.054199,277.454895 1081.195312,276.313904 
	C1093.529053,263.981842 1106.075439,251.862427 1118.834351,239.421127 
	C1120.183716,241.231827 1121.288208,242.642349 1122.317627,244.105545 
	C1148.658569,281.543121 1175.021729,318.965179 1201.267334,356.469574 
	C1203.283325,359.350494 1205.339600,360.626465 1208.960571,360.539246 
	C1219.783691,360.278534 1230.616943,360.457794 1241.446289,360.427704 
	C1242.634521,360.424408 1243.822021,360.177216 1245.631470,359.972992 
	C1210.581055,312.353027 1175.982056,265.346527 1141.178223,218.061584 
	C1174.543579,185.821686 1207.632812,153.848511 1241.594482,121.032410 
	C1234.375122,121.032410 1228.436768,121.032410 1221.499268,121.032410 
M828.722351,234.198212 
	C840.454041,216.951767 843.864502,197.866821 840.844360,177.522766 
	C836.791931,150.225525 819.443970,130.880234 792.416016,124.978386 
	C780.808228,122.443726 768.691956,121.436462 756.782104,121.242020 
	C725.476746,120.730927 694.157837,121.046913 662.844360,121.033501 
	C661.729553,121.033028 660.614746,121.033447 659.367065,121.033447 
	C659.367065,201.040863 659.367065,280.538605 659.367065,360.173157 
	C669.933167,360.173157 680.196472,360.173157 691.033081,360.173157 
	C691.033081,327.714630 691.033081,295.522308 691.033081,263.079498 
	C708.576294,263.079498 725.550720,263.343811 742.512573,262.993713 
	C755.472046,262.726227 768.521362,262.483459 781.341003,260.792084 
	C800.159485,258.309204 817.080872,251.452240 828.722351,234.198212 
M1354.809814,256.363983 
	C1344.276123,257.910675 1333.753174,259.534912 1323.206177,260.984253 
	C1310.330933,262.753510 1297.556030,264.677032 1285.821533,270.889526 
	C1266.464600,281.137634 1256.408203,300.115479 1259.138062,321.808411 
	C1261.626465,341.581116 1275.578857,357.096466 1296.454224,361.825592 
	C1323.257324,367.897583 1348.352783,363.558472 1371.010498,347.431702 
	C1374.487061,344.957214 1377.867676,342.347778 1381.289551,339.803070 
	C1383.000244,345.802887 1384.495239,351.534729 1386.340454,357.151581 
	C1386.765869,358.446869 1388.366577,360.258667 1389.467407,360.287842 
	C1398.876343,360.537354 1408.294678,360.430847 1416.695190,360.430847 
	C1414.434814,350.919312 1411.492432,341.899750 1410.312256,332.655151 
	C1409.052124,322.786591 1409.261597,312.707306 1409.172974,302.716949 
	C1408.970581,279.897339 1409.276611,257.069977 1408.823853,234.256729 
	C1408.274780,206.587875 1396.085693,191.939255 1369.160767,185.804123 
	C1355.226807,182.629181 1341.118286,182.422043 1326.944214,183.917130 
	C1314.752441,185.203140 1303.056396,188.153671 1292.204712,194.001419 
	C1275.310669,203.105240 1267.728271,218.318863 1263.870361,236.560715 
	C1273.802246,237.872757 1283.130493,239.105072 1291.980103,240.274139 
	C1294.332886,234.709183 1296.115967,229.692230 1298.520508,224.993256 
	C1302.064575,218.067734 1307.543823,213.020477 1315.110107,210.736221 
	C1330.343872,206.137070 1345.651611,205.996277 1360.735352,211.213730 
	C1370.995605,214.762741 1377.400269,222.042236 1378.786987,233.036179 
	C1379.367798,237.640640 1379.531616,242.351578 1379.266357,246.978592 
	C1379.177734,248.524216 1377.429565,250.872864 1375.987915,251.289337 
	C1369.295288,253.222717 1362.443726,254.606522 1354.809814,256.363983 
M1548.243164,347.260162 
	C1568.217041,363.238251 1591.401855,366.124390 1615.774292,363.415924 
	C1632.655884,361.539948 1647.514038,354.967529 1659.427124,342.506958 
	C1668.649780,332.860077 1674.551636,321.460693 1677.892700,308.384644 
	C1668.874146,307.234955 1660.440552,306.300751 1652.059448,305.023407 
	C1648.617920,304.498840 1647.181030,305.593292 1645.902100,308.824951 
	C1641.313721,320.418457 1634.567261,330.602692 1622.698853,335.705994 
	C1605.237183,343.214386 1588.071899,342.030762 1572.499023,330.797699 
	C1555.851929,318.789673 1550.865967,301.091461 1549.714844,281.101776 
	C1593.099121,281.101776 1635.826904,281.101776 1679.380493,281.101776 
	C1678.899536,272.315918 1678.832153,264.008759 1677.930786,255.793106 
	C1673.035034,211.163956 1643.044678,186.368896 1608.527710,183.414993 
	C1566.596191,179.826569 1535.539551,202.554550 1524.781372,236.740082 
	C1517.566528,259.666229 1517.232056,282.924469 1522.870850,306.239044 
	C1526.777100,322.389679 1534.819824,336.110779 1548.243164,347.260162 
M903.136902,296.407928 
	C910.847900,316.771881 918.595459,337.122223 926.204163,357.524384 
	C926.848083,359.251099 927.182617,361.541229 926.602783,363.199768 
	C923.916870,370.883026 921.117554,378.549072 917.868225,386.007538 
	C913.392395,396.281586 905.275452,401.851685 894.041382,401.960236 
	C887.487976,402.023529 880.924927,401.088043 873.954895,400.571442 
	C874.935303,408.722168 875.873718,417.119843 877.051636,425.483826 
	C877.183533,426.420135 878.527039,427.545868 879.555847,427.942474 
	C898.366577,435.193817 919.068787,429.867645 930.915405,413.491150 
	C936.887939,405.234863 941.909607,395.927338 945.544678,386.401917 
	C970.553345,320.868256 995.083618,255.151993 1019.741699,189.484680 
	C1019.997864,188.802505 1019.904053,187.988846 1019.995789,186.996124 
	C1012.349487,186.996124 1004.998230,187.372803 997.708374,186.865829 
	C992.715332,186.518555 990.627258,188.162003 988.941406,192.889389 
	C973.223694,236.964172 957.209656,280.933319 941.889954,323.252106 
	C926.286194,279.164978 909.982544,233.100266 893.744019,187.219452 
	C882.815735,187.219452 872.562256,187.219452 861.824585,187.219452 
	C875.616516,223.603058 889.273621,259.631134 903.136902,296.407928 
M1465.520020,121.036407 
	C1461.757202,121.036407 1457.994507,121.036407 1454.400879,121.036407 
	C1454.400879,201.205872 1454.400879,280.721863 1454.400879,360.068665 
	C1464.209961,360.068665 1473.622559,360.068665 1483.119995,360.068665 
	C1483.119995,280.304962 1483.119995,200.907806 1483.119995,121.036407 
	C1477.429321,121.036407 1471.970703,121.036407 1465.520020,121.036407 
z"/>
<path fill="#55A870" opacity="1.000000" stroke="none" 
	d="
M388.935455,390.971161 
	C383.041473,403.472931 377.204773,415.607727 371.721710,427.900299 
	C370.366638,430.938232 368.909302,432.105072 365.501465,432.090546 
	C333.005615,431.952026 300.508484,431.932251 268.013031,432.111542 
	C264.291199,432.132080 262.925690,430.684052 261.706085,427.549591 
	C255.786560,412.336029 249.830750,397.158661 239.729233,383.996735 
	C227.933228,368.627014 213.227844,356.947235 196.133316,348.055298 
	C187.416031,343.520905 178.786850,338.815399 170.153534,334.121582 
	C154.786240,325.766632 147.742905,309.139771 153.095276,292.525055 
	C156.981445,280.461761 155.612991,269.672546 147.856674,259.558685 
	C135.360901,243.264771 135.817413,217.013870 148.194473,201.107697 
	C156.238220,190.770401 157.805023,179.774063 153.474030,167.307892 
	C145.254303,143.648529 160.840637,119.660652 185.910370,117.236938 
	C198.276047,116.041443 207.108109,110.338394 212.948074,99.456612 
	C225.172028,76.679314 253.266068,74.680466 269.366302,86.577385 
	C272.565155,88.941109 273.666626,90.784790 271.258667,94.619888 
	C267.818604,100.098793 263.343414,103.344696 257.000610,104.454346 
	C225.846527,109.904610 212.746368,123.366692 208.278900,155.075317 
	C200.968155,151.153671 193.894135,147.358978 186.174088,143.217758 
	C184.434677,146.282074 182.527527,149.007446 181.388962,152.023010 
	C181.033981,152.963211 182.414352,155.272980 183.584427,155.957794 
	C190.769714,160.163101 198.120712,164.085510 205.420059,168.095688 
	C212.942993,172.228699 215.199509,178.161591 212.218307,186.329529 
	C211.596970,188.031876 210.813385,189.770981 209.710327,191.185745 
	C203.137802,199.615494 198.876312,209.090622 196.467804,220.604492 
	C188.830307,215.826111 181.622223,211.316406 173.806534,206.426544 
	C171.551605,209.961273 169.472748,213.220001 167.028473,217.051559 
	C174.877579,222.002686 182.148026,226.958359 189.784393,231.265182 
	C194.265778,233.792618 196.412216,236.952957 197.062347,242.071732 
	C198.213974,251.139053 201.901321,259.411591 207.413895,266.684601 
	C212.715363,273.679077 213.831848,280.933350 210.911255,289.225952 
	C209.397644,293.523621 208.961777,298.200897 207.876541,303.500092 
	C196.527023,296.406006 185.469376,289.494324 173.823044,282.214722 
	C171.473389,285.794006 169.335266,289.051056 166.955078,292.676819 
	C177.652191,299.458069 188.038116,306.045227 198.428162,312.625854 
	C200.398392,313.873688 202.335663,315.185059 204.374207,316.311310 
	C209.266647,319.014282 212.611343,322.908539 215.881149,327.555359 
	C220.195084,333.685944 225.622147,339.607513 231.824753,343.733826 
	C256.443176,360.111206 273.427338,381.797791 281.118591,410.493927 
	C281.771484,412.929993 282.825165,414.202240 285.560913,414.000031 
	C288.515533,413.781647 291.498810,413.950623 294.959869,413.950623 
	C292.239044,400.008484 287.244598,387.601135 280.353882,375.929077 
	C270.078461,358.523834 256.191742,344.599640 239.192596,333.760010 
	C229.197281,327.386383 222.687286,318.621063 221.639374,306.708038 
	C221.214218,301.874847 221.909225,296.674286 223.305374,292.002777 
	C226.749741,280.477936 225.283600,270.180298 218.373840,260.241028 
	C204.867599,240.813049 205.095428,219.519180 218.961044,200.216766 
	C226.155975,190.200638 227.738434,179.778214 223.749405,168.120163 
	C215.276840,143.358765 231.068512,119.374710 257.166992,117.056221 
	C268.312225,116.066124 276.719666,110.743286 282.035889,100.937759 
	C289.615509,86.957542 301.057068,79.304535 317.087067,79.408562 
	C332.925964,79.511353 344.121216,87.296783 351.548981,101.081810 
	C356.763397,110.759186 365.099640,115.992004 375.997467,117.011375 
	C402.800415,119.518486 418.219116,143.216644 409.573486,168.796997 
	C405.833771,179.861877 407.307373,190.009949 414.134705,199.559738 
	C428.528870,219.693787 428.728485,240.510254 414.761292,260.825104 
	C408.405914,270.068817 406.548035,279.792999 409.904022,290.670959 
	C415.536591,308.928009 410.371429,323.211548 394.154449,333.821167 
	C366.624237,351.832214 348.184662,376.366486 339.777557,408.279724 
	C339.364532,409.847656 339.134460,411.463837 338.653442,413.895325 
	C342.630615,413.895325 346.122070,414.301178 349.426025,413.691315 
	C350.708588,413.454559 352.077454,411.066193 352.541595,409.414734 
	C358.036102,389.865265 367.919830,372.891510 382.692352,359.008270 
	C388.606354,353.450287 395.274231,348.624359 401.945374,343.960663 
	C409.483307,338.691010 415.534485,332.308685 419.979004,324.247925 
	C421.109894,322.196899 423.065460,320.355286 425.061279,319.066620 
	C437.236786,311.205414 449.535950,303.535797 461.785492,295.789001 
	C463.173187,294.911407 464.508514,293.951019 466.421265,292.653961 
	C464.200073,289.166595 462.119141,285.899414 459.763611,282.201141 
	C448.191162,289.457764 437.098053,296.413788 425.862885,303.458893 
	C424.202240,296.277618 422.388153,289.468689 421.107391,282.560944 
	C420.115021,277.208557 422.033295,272.387695 425.220184,268.057312 
	C431.768188,259.159821 435.792938,249.283066 437.270996,238.282745 
	C437.508759,236.513260 439.239624,234.495880 440.838593,233.433060 
	C449.135223,227.918396 457.613007,222.676224 466.545319,217.010773 
	C464.211700,213.376099 462.112000,210.105759 459.764496,206.449448 
	C452.124908,211.215576 444.967377,215.680984 437.540222,220.314590 
	C436.965546,219.059418 436.394440,218.238266 436.207275,217.337372 
	C434.308868,208.200272 430.157410,200.155533 424.871521,192.529587 
	C422.838806,189.596970 421.195007,186.127853 420.393005,182.667023 
	C418.918610,176.304962 421.301849,171.900192 426.984222,168.746185 
	C435.677490,163.920975 444.384003,159.119629 453.453674,154.104202 
	C451.325500,150.308197 449.486328,147.027664 447.361053,143.236786 
	C439.895203,147.258530 432.790833,151.085541 425.229736,155.158615 
	C424.573608,145.102921 422.310913,136.152695 417.080933,128.186157 
	C408.247772,114.730988 395.930847,106.554321 379.836029,104.967705 
	C370.148682,104.012726 363.657410,99.575333 360.358704,90.443115 
	C373.771545,74.487206 402.965729,76.064621 416.685822,93.577950 
	C418.625244,96.053589 420.187439,98.842377 421.774384,101.573326 
	C427.101227,110.740211 435.070160,115.887962 445.538269,116.973076 
	C473.055603,119.825500 488.152100,142.684113 479.559021,168.823029 
	C475.910828,179.920303 477.388397,189.981918 484.186584,199.574860 
	C498.561737,219.859619 498.559967,240.952438 484.399292,261.320251 
	C478.069916,270.424072 476.489410,280.007996 479.899658,290.691101 
	C485.992096,309.776550 479.233429,325.669098 461.487305,335.151825 
	C451.497711,340.489838 441.510345,345.834686 431.597717,351.313477 
	C414.210114,360.923706 400.083893,374.094574 388.935455,390.971161 
M323.067505,309.500000 
	C323.067535,302.668060 323.238037,295.830048 322.996460,289.006683 
	C322.873688,285.539093 323.906586,283.098267 326.543518,280.799072 
	C337.468445,271.273315 348.232666,261.563080 359.044434,251.907806 
	C367.457336,244.394806 375.853363,236.862900 384.592590,229.038864 
	C381.610657,225.718002 379.007263,222.818680 376.165466,219.653839 
	C358.524841,235.350388 341.329620,250.650620 323.772095,266.273254 
	C323.377899,264.961670 323.128815,264.518372 323.127991,264.074615 
	C323.095795,246.410568 323.016296,228.745834 323.186096,211.083511 
	C323.202301,209.396011 324.403839,207.289383 325.715607,206.115250 
	C333.783600,198.893860 342.055023,191.900177 350.232239,184.800201 
	C357.352753,178.617691 364.438263,172.394821 371.861816,165.907913 
	C368.838501,162.554489 366.307037,159.746658 363.463715,156.592896 
	C350.100189,168.106216 337.018433,179.376785 323.936646,190.647354 
	C323.522461,190.381210 323.108276,190.115067 322.694092,189.848907 
	C322.694092,163.621857 322.694092,137.394791 322.694092,110.838676 
	C320.620178,110.838676 319.132294,110.847122 317.644501,110.837250 
	C310.245605,110.788155 310.241852,110.786461 310.241211,117.958168 
	C310.239258,140.288666 310.245972,162.619156 310.229492,184.949646 
	C310.228241,186.668854 310.072174,188.387955 309.942902,191.030685 
	C296.211487,179.156860 283.295959,167.988541 270.024445,156.512390 
	C267.113800,159.819672 264.536835,162.747772 261.820496,165.834229 
	C263.145477,167.076630 264.070068,168.001465 265.054321,168.857742 
	C278.882111,180.887695 292.673309,192.960541 306.591736,204.884842 
	C309.216492,207.133560 310.353729,209.489777 310.315765,213.001114 
	C310.142853,228.997208 310.247498,244.996246 310.227020,260.994171 
	C310.225189,262.416992 310.041138,263.839539 309.865234,266.356628 
	C291.965820,250.426743 274.780823,235.132675 257.361633,219.630173 
	C254.327744,223.014297 251.719452,225.923691 248.927612,229.037827 
	C268.453186,246.482224 287.628448,263.505981 306.609283,280.743835 
	C308.437622,282.404297 310.039001,285.376892 310.081909,287.770203 
	C310.380493,304.429382 310.249817,321.096497 310.217712,337.760986 
	C310.215454,338.931976 309.900360,340.102417 309.636841,341.921387 
	C291.893951,326.116699 274.778473,310.870880 257.314362,295.314514 
	C254.330643,298.684998 251.749084,301.601166 248.990646,304.717133 
	C250.795181,306.387543 252.231155,307.760742 253.713303,309.082092 
	C270.876190,324.383026 287.978699,339.753021 305.270020,354.907532 
	C308.790222,357.992737 310.499786,361.083374 310.370667,365.967682 
	C310.000885,379.956116 310.232117,393.960663 310.251099,407.958893 
	C310.253510,409.749878 310.398132,411.540649 310.489349,413.614990 
	C314.765717,413.614990 318.641357,413.614990 323.067352,413.614990 
	C323.067352,411.478302 323.067322,409.686768 323.067352,407.895264 
	C323.067444,393.397095 323.140686,378.898315 323.011169,364.401306 
	C322.982300,361.167023 323.834534,358.906799 326.383026,356.674438 
	C342.049377,342.951477 357.538422,329.025909 373.068726,315.147919 
	C376.868317,311.752594 380.601959,308.283356 384.659302,304.580292 
	C381.550049,301.279175 378.884644,298.449310 376.077209,295.468628 
	C358.339447,311.239532 341.166840,326.507935 323.067596,342.600220 
	C323.067596,330.815582 323.067596,320.657776 323.067505,309.500000 
z"/>
<path fill="#D2E8D9" opacity="1.000000" stroke="none" 
	d="
M1221.998901,121.032410 
	C1228.436768,121.032410 1234.375122,121.032410 1241.594482,121.032410 
	C1207.632812,153.848511 1174.543579,185.821686 1141.178223,218.061584 
	C1175.982056,265.346527 1210.581055,312.353027 1245.631470,359.972992 
	C1243.822021,360.177216 1242.634521,360.424408 1241.446289,360.427704 
	C1230.616943,360.457794 1219.783691,360.278534 1208.960571,360.539246 
	C1205.339600,360.626465 1203.283325,359.350494 1201.267334,356.469574 
	C1175.021729,318.965179 1148.658569,281.543121 1122.317627,244.105545 
	C1121.288208,242.642349 1120.183716,241.231827 1118.834351,239.421127 
	C1106.075439,251.862427 1093.529053,263.981842 1081.195312,276.313904 
	C1080.054199,277.454895 1079.909180,279.947144 1079.902832,281.813995 
	C1079.821289,305.971436 1079.848755,330.129211 1079.848755,354.286926 
	C1079.848755,356.110657 1079.848633,357.934387 1079.848633,360.100220 
	C1069.189209,360.100220 1058.788818,360.100220 1048.212891,360.100220 
	C1048.212891,280.496704 1048.212891,201.077255 1048.212891,121.345085 
	C1058.594604,121.345085 1068.847046,121.345085 1079.630615,121.345085 
	C1079.630615,160.289017 1079.630615,199.329391 1079.630615,239.523056 
	C1081.729492,237.596619 1083.038818,236.480316 1084.252686,235.268219 
	C1121.152710,198.421051 1158.075562,161.596588 1194.869507,124.643669 
	C1197.584595,121.916832 1200.260864,120.800301 1204.009521,120.964912 
	C1209.829224,121.220459 1215.668335,121.032410 1221.998901,121.032410 
z"/>
<path fill="#D3E9DA" opacity="1.000000" stroke="none" 
	d="
M828.497742,234.480652 
	C817.080872,251.452240 800.159485,258.309204 781.341003,260.792084 
	C768.521362,262.483459 755.472046,262.726227 742.512573,262.993713 
	C725.550720,263.343811 708.576294,263.079498 691.033081,263.079498 
	C691.033081,295.522308 691.033081,327.714630 691.033081,360.173157 
	C680.196472,360.173157 669.933167,360.173157 659.367065,360.173157 
	C659.367065,280.538605 659.367065,201.040863 659.367065,121.033447 
	C660.614746,121.033447 661.729553,121.033028 662.844360,121.033501 
	C694.157837,121.046913 725.476746,120.730927 756.782104,121.242020 
	C768.691956,121.436462 780.808228,122.443726 792.416016,124.978386 
	C819.443970,130.880234 836.791931,150.225525 840.844360,177.522766 
	C843.864502,197.866821 840.454041,216.951767 828.497742,234.480652 
M690.876160,153.699249 
	C690.876160,180.617691 690.876160,207.536118 690.876160,234.922989 
	C701.129761,234.922989 710.907715,235.027802 720.682556,234.899002 
	C736.317749,234.692963 751.973816,234.749405 767.576904,233.890717 
	C778.120789,233.310471 788.338928,230.516129 796.495850,223.138077 
	C807.632507,213.064667 810.021240,199.886246 808.888245,185.743790 
	C807.303772,165.966125 792.709656,150.923660 772.980652,150.230576 
	C746.711121,149.307678 720.401001,149.559814 694.109802,149.203308 
	C691.324524,149.165558 690.583313,150.314560 690.876160,153.699249 
z"/>
<path fill="#D2E8D9" opacity="1.000000" stroke="none" 
	d="
M1355.229492,256.275543 
	C1362.443726,254.606522 1369.295288,253.222717 1375.987915,251.289337 
	C1377.429565,250.872864 1379.177734,248.524216 1379.266357,246.978592 
	C1379.531616,242.351578 1379.367798,237.640640 1378.786987,233.036179 
	C1377.400269,222.042236 1370.995605,214.762741 1360.735352,211.213730 
	C1345.651611,205.996277 1330.343872,206.137070 1315.110107,210.736221 
	C1307.543823,213.020477 1302.064575,218.067734 1298.520508,224.993256 
	C1296.115967,229.692230 1294.332886,234.709183 1291.980103,240.274139 
	C1283.130493,239.105072 1273.802246,237.872757 1263.870361,236.560715 
	C1267.728271,218.318863 1275.310669,203.105240 1292.204712,194.001419 
	C1303.056396,188.153671 1314.752441,185.203140 1326.944214,183.917130 
	C1341.118286,182.422043 1355.226807,182.629181 1369.160767,185.804123 
	C1396.085693,191.939255 1408.274780,206.587875 1408.823853,234.256729 
	C1409.276611,257.069977 1408.970581,279.897339 1409.172974,302.716949 
	C1409.261597,312.707306 1409.052124,322.786591 1410.312256,332.655151 
	C1411.492432,341.899750 1414.434814,350.919312 1416.695190,360.430847 
	C1408.294678,360.430847 1398.876343,360.537354 1389.467407,360.287842 
	C1388.366577,360.258667 1386.765869,358.446869 1386.340454,357.151581 
	C1384.495239,351.534729 1383.000244,345.802887 1381.289551,339.803070 
	C1377.867676,342.347778 1374.487061,344.957214 1371.010498,347.431702 
	C1348.352783,363.558472 1323.257324,367.897583 1296.454224,361.825592 
	C1275.578857,357.096466 1261.626465,341.581116 1259.138062,321.808411 
	C1256.408203,300.115479 1266.464600,281.137634 1285.821533,270.889526 
	C1297.556030,264.677032 1310.330933,262.753510 1323.206177,260.984253 
	C1333.753174,259.534912 1344.276123,257.910675 1355.229492,256.275543 
M1303.964233,291.282288 
	C1293.922729,296.890228 1289.073120,305.545349 1290.289551,316.887054 
	C1291.536133,328.510437 1298.481079,336.324768 1309.675781,338.999359 
	C1316.982666,340.745087 1324.891479,341.467712 1332.355225,340.770874 
	C1352.032227,338.933807 1367.732544,330.080963 1375.604126,311.061768 
	C1380.470703,299.303040 1379.328979,286.634247 1379.270264,274.788330 
	C1364.673462,277.859009 1350.400269,280.799713 1336.156982,283.878448 
	C1325.635254,286.152740 1315.152344,288.606873 1303.964233,291.282288 
z"/>
<path fill="#D3E9DA" opacity="1.000000" stroke="none" 
	d="
M1547.948853,347.060577 
	C1534.819824,336.110779 1526.777100,322.389679 1522.870850,306.239044 
	C1517.232056,282.924469 1517.566528,259.666229 1524.781372,236.740082 
	C1535.539551,202.554550 1566.596191,179.826569 1608.527710,183.414993 
	C1643.044678,186.368896 1673.035034,211.163956 1677.930786,255.793106 
	C1678.832153,264.008759 1678.899536,272.315918 1679.380493,281.101776 
	C1635.826904,281.101776 1593.099121,281.101776 1549.714844,281.101776 
	C1550.865967,301.091461 1555.851929,318.789673 1572.499023,330.797699 
	C1588.071899,342.030762 1605.237183,343.214386 1622.698853,335.705994 
	C1634.567261,330.602692 1641.313721,320.418457 1645.902100,308.824951 
	C1647.181030,305.593292 1648.617920,304.498840 1652.059448,305.023407 
	C1660.440552,306.300751 1668.874146,307.234955 1677.892700,308.384644 
	C1674.551636,321.460693 1668.649780,332.860077 1659.427124,342.506958 
	C1647.514038,354.967529 1632.655884,361.539948 1615.774292,363.415924 
	C1591.401855,366.124390 1568.217041,363.238251 1547.948853,347.060577 
M1629.499390,257.034973 
	C1635.610229,257.034973 1641.721069,257.034973 1647.851318,257.034973 
	C1645.924683,226.167419 1626.416626,206.401321 1599.248291,207.254868 
	C1572.140991,208.106476 1551.377197,229.637131 1551.616333,257.034973 
	C1577.240479,257.034973 1602.869995,257.034973 1629.499390,257.034973 
z"/>
<path fill="#D2E8D9" opacity="1.000000" stroke="none" 
	d="
M903.033813,296.033569 
	C889.273621,259.631134 875.616516,223.603058 861.824585,187.219452 
	C872.562256,187.219452 882.815735,187.219452 893.744019,187.219452 
	C909.982544,233.100266 926.286194,279.164978 941.889954,323.252106 
	C957.209656,280.933319 973.223694,236.964172 988.941406,192.889389 
	C990.627258,188.162003 992.715332,186.518555 997.708374,186.865829 
	C1004.998230,187.372803 1012.349487,186.996124 1019.995789,186.996124 
	C1019.904053,187.988846 1019.997864,188.802505 1019.741699,189.484680 
	C995.083618,255.151993 970.553345,320.868256 945.544678,386.401917 
	C941.909607,395.927338 936.887939,405.234863 930.915405,413.491150 
	C919.068787,429.867645 898.366577,435.193817 879.555847,427.942474 
	C878.527039,427.545868 877.183533,426.420135 877.051636,425.483826 
	C875.873718,417.119843 874.935303,408.722168 873.954895,400.571442 
	C880.924927,401.088043 887.487976,402.023529 894.041382,401.960236 
	C905.275452,401.851685 913.392395,396.281586 917.868225,386.007538 
	C921.117554,378.549072 923.916870,370.883026 926.602783,363.199768 
	C927.182617,361.541229 926.848083,359.251099 926.204163,357.524384 
	C918.595459,337.122223 910.847900,316.771881 903.033813,296.033569 
z"/>
<path fill="#D4EADB" opacity="1.000000" stroke="none" 
	d="
M1466.016113,121.036407 
	C1471.970703,121.036407 1477.429321,121.036407 1483.119995,121.036407 
	C1483.119995,200.907806 1483.119995,280.304962 1483.119995,360.068665 
	C1473.622559,360.068665 1464.209961,360.068665 1454.400879,360.068665 
	C1454.400879,280.721863 1454.400879,201.205872 1454.400879,121.036407 
	C1457.994507,121.036407 1461.757202,121.036407 1466.016113,121.036407 
z"/>
<path fill="#162C1E" opacity="1.000000" stroke="none" 
	d="
M323.067566,310.000000 
	C323.067596,320.657776 323.067596,330.815582 323.067596,342.600220 
	C341.166840,326.507935 358.339447,311.239532 376.077209,295.468628 
	C378.884644,298.449310 381.550049,301.279175 384.659302,304.580292 
	C380.601959,308.283356 376.868317,311.752594 373.068726,315.147919 
	C357.538422,329.025909 342.049377,342.951477 326.383026,356.674438 
	C323.834534,358.906799 322.982300,361.167023 323.011169,364.401306 
	C323.140686,378.898315 323.067444,393.397095 323.067352,407.895264 
	C323.067322,409.686768 323.067352,411.478302 323.067352,413.614990 
	C318.641357,413.614990 314.765717,413.614990 310.489349,413.614990 
	C310.398132,411.540649 310.253510,409.749878 310.251099,407.958893 
	C310.232117,393.960663 310.000885,379.956116 310.370667,365.967682 
	C310.499786,361.083374 308.790222,357.992737 305.270020,354.907532 
	C287.978699,339.753021 270.876190,324.383026 253.713303,309.082092 
	C252.231155,307.760742 250.795181,306.387543 248.990646,304.717133 
	C251.749084,301.601166 254.330643,298.684998 257.314362,295.314514 
	C274.778473,310.870880 291.893951,326.116699 309.636841,341.921387 
	C309.900360,340.102417 310.215454,338.931976 310.217712,337.760986 
	C310.249817,321.096497 310.380493,304.429382 310.081909,287.770203 
	C310.039001,285.376892 308.437622,282.404297 306.609283,280.743835 
	C287.628448,263.505981 268.453186,246.482224 248.927612,229.037827 
	C251.719452,225.923691 254.327744,223.014297 257.361633,219.630173 
	C274.780823,235.132675 291.965820,250.426743 309.865234,266.356628 
	C310.041138,263.839539 310.225189,262.416992 310.227020,260.994171 
	C310.247498,244.996246 310.142853,228.997208 310.315765,213.001114 
	C310.353729,209.489777 309.216492,207.133560 306.591736,204.884842 
	C292.673309,192.960541 278.882111,180.887695 265.054321,168.857742 
	C264.070068,168.001465 263.145477,167.076630 261.820496,165.834229 
	C264.536835,162.747772 267.113800,159.819672 270.024445,156.512390 
	C283.295959,167.988541 296.211487,179.156860 309.942902,191.030685 
	C310.072174,188.387955 310.228241,186.668854 310.229492,184.949646 
	C310.245972,162.619156 310.239258,140.288666 310.241211,117.958168 
	C310.241852,110.786461 310.245605,110.788155 317.644501,110.837250 
	C319.132294,110.847122 320.620178,110.838676 322.694092,110.838676 
	C322.694092,137.394791 322.694092,163.621857 322.694092,189.848907 
	C323.108276,190.115067 323.522461,190.381210 323.936646,190.647354 
	C337.018433,179.376785 350.100189,168.106216 363.463715,156.592896 
	C366.307037,159.746658 368.838501,162.554489 371.861816,165.907913 
	C364.438263,172.394821 357.352753,178.617691 350.232239,184.800201 
	C342.055023,191.900177 333.783600,198.893860 325.715607,206.115250 
	C324.403839,207.289383 323.202301,209.396011 323.186096,211.083511 
	C323.016296,228.745834 323.095795,246.410568 323.127991,264.074615 
	C323.128815,264.518372 323.377899,264.961670 323.772095,266.273254 
	C341.329620,250.650620 358.524841,235.350388 376.165466,219.653839 
	C379.007263,222.818680 381.610657,225.718002 384.592590,229.038864 
	C375.853363,236.862900 367.457336,244.394806 359.044434,251.907806 
	C348.232666,261.563080 337.468445,271.273315 326.543518,280.799072 
	C323.906586,283.098267 322.873688,285.539093 322.996460,289.006683 
	C323.238037,295.830048 323.067535,302.668060 323.067566,310.000000 
z"/>
<path fill="#162A1D" opacity="1.000000" stroke="none" 
	d="
M690.876465,153.223358 
	C690.583313,150.314560 691.324524,149.165558 694.109802,149.203308 
	C720.401001,149.559814 746.711121,149.307678 772.980652,150.230576 
	C792.709656,150.923660 807.303772,165.966125 808.888245,185.743790 
	C810.021240,199.886246 807.632507,213.064667 796.495850,223.138077 
	C788.338928,230.516129 778.120789,233.310471 767.576904,233.890717 
	C751.973816,234.749405 736.317749,234.692963 720.682556,234.899002 
	C710.907715,235.027802 701.129761,234.922989 690.876160,234.922989 
	C690.876160,207.536118 690.876160,180.617691 690.876465,153.223358 
z"/>
<path fill="#162A1D" opacity="1.000000" stroke="none" 
	d="
M1304.308228,291.131592 
	C1315.152344,288.606873 1325.635254,286.152740 1336.156982,283.878448 
	C1350.400269,280.799713 1364.673462,277.859009 1379.270264,274.788330 
	C1379.328979,286.634247 1380.470703,299.303040 1375.604126,311.061768 
	C1367.732544,330.080963 1352.032227,338.933807 1332.355225,340.770874 
	C1324.891479,341.467712 1316.982666,340.745087 1309.675781,338.999359 
	C1298.481079,336.324768 1291.536133,328.510437 1290.289551,316.887054 
	C1289.073120,305.545349 1293.922729,296.890228 1304.308228,291.131592 
z"/>
<path fill="#162A1D" opacity="1.000000" stroke="none" 
	d="
M1628.999512,257.034973 
	C1602.869995,257.034973 1577.240479,257.034973 1551.616333,257.034973 
	C1551.377197,229.637131 1572.140991,208.106476 1599.248291,207.254868 
	C1626.416626,206.401321 1645.924683,226.167419 1647.851318,257.034973 
	C1641.721069,257.034973 1635.610229,257.034973 1628.999512,257.034973 
z"/>
</svg>