<svg version="1.1" id="Layer_1" xmlns="http://www.w3.org/2000/svg" xmlns:xlink="http://www.w3.org/1999/xlink" x="0px" y="0px"
	 width="100%" viewBox="0 0 1750 600" enable-background="new 0 0 1750 600" xml:space="preserve">
<path fill="#FFFFFF" opacity="1.000000" stroke="none" 
	d="
M591.000000,1.000000 
	C977.614807,1.000000 1364.229614,1.000000 1750.922241,1.000000 
	C1750.922241,200.921341 1750.922241,400.842712 1750.922241,601.000000 
	C1324.635742,601.000000 898.271545,601.000000 471.453613,600.531372 
	C470.999969,570.574280 470.981415,541.085815 471.023895,511.597443 
	C471.029053,508.010345 470.648651,504.972931 466.352112,504.009705 
	C454.728668,501.403809 443.167847,498.503662 431.502899,496.106110 
	C427.930908,495.371948 426.936005,493.871155 426.944855,490.446136 
	C427.035309,455.460083 427.043152,420.473572 426.934113,385.487610 
	C426.923218,381.997925 427.960815,380.835876 431.477142,380.930542 
	C439.634705,381.150177 447.803650,380.909210 455.965027,381.039551 
	C459.822296,381.101166 462.221130,379.834198 463.253510,375.842194 
	C463.950592,373.146698 464.916290,370.217682 466.664948,368.160950 
	C470.180725,364.025818 471.002411,359.350739 471.001038,354.272583 
	C470.997894,342.610474 470.999756,330.948395 471.000092,319.286285 
	C471.000305,311.001221 471.000641,311.000305 479.035461,311.000183 
	C510.356537,310.999786 541.677612,311.003967 572.998657,310.996033 
	C578.053650,310.994781 583.734863,312.185089 584.934570,304.714111 
	C585.043274,304.037689 585.962219,303.422211 586.610596,302.913116 
	C590.220032,300.079071 591.076111,296.369019 591.071777,291.886047 
	C590.977417,194.924088 591.000000,97.962036 591.000000,1.000000 
M642.305603,190.499878 
	C642.305603,233.926788 642.305603,277.353699 642.305603,320.852783 
	C648.596619,320.852783 654.235596,320.852783 660.344543,320.852783 
	C660.344543,300.447601 660.344543,280.192963 660.344543,259.116516 
	C667.082886,259.116516 673.403687,259.569122 679.635681,259.017548 
	C690.862183,258.023956 702.373840,257.708252 713.169922,254.853561 
	C750.790710,244.905869 767.316223,202.224655 746.174866,170.755280 
	C735.566528,154.964676 719.330322,148.460281 701.378113,147.195374 
	C682.144958,145.840195 662.777771,146.387039 643.468750,146.127975 
	C643.204956,146.124435 642.936890,146.436981 642.305664,146.828522 
	C642.305664,160.900223 642.305664,175.200043 642.305603,190.499878 
M1425.227905,206.132660 
	C1424.259399,206.866928 1423.290771,207.601181 1421.583496,208.895477 
	C1421.583496,181.745209 1421.583496,155.513947 1421.583496,128.672226 
	C1415.419189,129.961365 1409.832397,131.129700 1404.287354,132.289307 
	C1404.287354,195.346069 1404.287354,257.933685 1404.287354,320.747559 
	C1410.046509,320.747559 1415.598999,320.747559 1421.558594,320.747559 
	C1421.558594,318.686066 1421.558472,316.883087 1421.558472,315.080078 
	C1421.558350,286.090149 1421.524780,257.100067 1421.632690,228.110550 
	C1421.640015,226.136841 1422.091797,223.511551 1423.380737,222.297348 
	C1435.528076,210.853363 1449.661499,204.349777 1466.772583,206.025055 
	C1477.097900,207.035980 1484.466919,213.036697 1486.827515,223.347336 
	C1488.151489,229.130661 1488.652466,235.208099 1488.699951,241.159637 
	C1488.897949,265.982758 1488.783325,290.808411 1488.783325,315.633118 
	C1488.783325,317.367584 1488.783447,319.102020 1488.783447,320.734070 
	C1494.917725,320.734070 1500.345093,320.734070 1505.880981,320.734070 
	C1505.880981,289.332184 1506.754883,258.174103 1505.615112,227.089874 
	C1504.634521,200.345856 1485.068115,185.774307 1458.635864,189.839584 
	C1446.083618,191.770111 1435.408813,197.559402 1425.227905,206.132660 
M1148.231689,249.115875 
	C1147.796509,245.816345 1147.535400,242.482788 1146.898560,239.222687 
	C1141.835449,213.308319 1124.242432,195.085388 1099.727905,190.256943 
	C1074.144775,185.218033 1048.633789,195.488846 1034.940430,216.884888 
	C1022.931091,235.649597 1021.230591,256.315979 1026.201904,277.458740 
	C1031.316528,299.210602 1044.188965,315.067841 1066.004517,321.609100 
	C1088.536011,328.365082 1109.776489,324.861023 1127.522217,308.617798 
	C1144.644897,292.944977 1149.679443,272.506592 1148.231689,249.115875 
M849.052246,280.646851 
	C860.482178,251.560272 871.912109,222.473694 883.557800,192.837997 
	C878.391113,192.837997 874.218994,193.073822 870.087402,192.765778 
	C866.578308,192.504135 864.969543,193.663147 863.710144,197.084778 
	C851.945312,229.047073 839.957520,260.927277 828.023071,292.827118 
	C827.465576,294.317108 826.802551,295.767639 825.797852,298.171936 
	C824.885498,295.777954 824.329468,294.316711 823.771973,292.856049 
	C811.565796,260.881287 799.389771,228.894943 787.064941,196.966019 
	C786.436584,195.338272 784.622559,193.157242 783.198425,193.028564 
	C777.967590,192.555939 772.668335,192.841156 766.967773,192.841156 
	C767.925049,195.393036 768.642639,197.404938 769.429626,199.389282 
	C784.742798,237.998138 800.074341,276.599731 815.347290,315.224457 
	C815.981140,316.827301 816.862366,318.959595 816.311462,320.306671 
	C810.786804,333.815216 805.640625,347.542969 799.051575,360.531006 
	C793.974609,370.538239 785.816101,373.195587 774.921387,370.513672 
	C770.657715,369.464142 766.558350,367.747131 762.219543,366.278381 
	C760.518738,371.364594 758.844238,376.371918 757.010254,381.856232 
	C760.590942,383.130219 763.954346,384.506592 767.421692,385.531189 
	C788.853027,391.863983 804.591309,385.256348 815.030701,365.521973 
	C817.203003,361.415466 819.308533,357.238434 821.004028,352.920837 
	C830.355286,329.106750 839.569946,305.239014 849.052246,280.646851 
M931.500000,145.997391 
	C918.239929,145.997391 904.979858,145.997391 891.630676,145.997391 
	C891.630676,151.878174 891.630676,157.139526 891.630676,162.858032 
	C912.117981,162.858032 932.352295,162.858032 953.158936,162.858032 
	C953.158936,215.839905 953.158936,268.365112 953.158936,320.782532 
	C959.353821,320.782532 964.967896,320.782532 971.151123,320.782532 
	C971.151123,268.040009 971.151123,215.516006 971.151123,162.708176 
	C991.842712,162.708176 1011.957703,162.708176 1032.278076,162.708176 
	C1032.278076,157.020508 1032.278076,151.624527 1032.278076,145.997391 
	C998.804382,145.997391 965.652222,145.997391 931.500000,145.997391 
M1361.250977,301.903870 
	C1356.874878,303.461853 1352.589722,305.376678 1348.107788,306.519714 
	C1319.490967,313.818207 1296.020630,300.405579 1289.632324,272.720734 
	C1288.083252,266.007629 1287.809326,258.836639 1288.020630,251.908859 
	C1289.017212,219.228897 1313.483276,199.939209 1345.389160,206.802704 
	C1353.210449,208.485168 1360.681641,211.795135 1368.647339,214.468826 
	C1369.887085,210.147369 1371.286865,205.268448 1372.656006,200.496353 
	C1356.899292,188.129349 1326.040161,185.510132 1306.228027,194.824158 
	C1287.037720,203.845901 1275.886108,219.320404 1271.744995,239.738144 
	C1267.275757,261.774475 1269.552368,282.973175 1283.187012,301.629059 
	C1303.970947,330.067078 1345.036743,329.284332 1370.072754,314.893555 
	C1370.956543,314.385529 1371.927490,312.789856 1371.762817,311.904816 
	C1370.905640,307.297607 1369.693237,302.756470 1368.550415,297.965118 
	C1365.997192,299.349854 1363.959961,300.454742 1361.250977,301.903870 
M1207.209717,222.812088 
	C1212.665649,215.240280 1218.986938,208.671310 1228.483398,206.511246 
	C1237.439087,204.474152 1245.869263,206.607391 1254.228027,211.211945 
	C1255.773071,205.600372 1257.202148,200.409988 1258.686890,195.017471 
	C1247.576660,189.302002 1236.413818,187.132324 1224.678711,191.073517 
	C1212.961426,195.008667 1205.651978,204.121445 1198.586182,213.897461 
	C1198.586182,205.817902 1198.586182,197.738342 1198.586182,189.130402 
	C1192.455688,190.420685 1186.845825,191.601364 1181.416870,192.744003 
	C1181.416870,235.752258 1181.416870,278.279541 1181.416870,320.806458 
	C1187.201538,320.806458 1192.644165,320.806458 1198.565063,320.806458 
	C1198.565063,318.816864 1198.565063,317.018555 1198.565063,315.220245 
	C1198.565063,294.077271 1199.025635,272.920044 1198.372559,251.797256 
	C1198.041382,241.090012 1200.566895,231.861862 1207.209717,222.812088 
M1302.809448,422.058380 
	C1318.989136,415.302185 1327.007812,420.619293 1327.035889,438.138245 
	C1327.051392,447.800079 1327.038940,457.461975 1327.039062,467.123840 
	C1327.039185,470.381622 1327.039062,473.639404 1327.039062,476.736816 
	C1330.344360,476.736816 1332.949463,476.736816 1335.889771,476.736816 
	C1335.889771,462.168427 1336.307983,447.857422 1335.678833,433.592621 
	C1335.436035,428.084900 1337.410156,425.198761 1341.741333,423.024780 
	C1343.812866,421.984985 1345.874146,420.785278 1348.083130,420.181976 
	C1359.690552,417.011932 1366.695679,422.231262 1366.997681,434.240875 
	C1367.148315,440.234314 1367.063599,446.233917 1367.069824,452.230713 
	C1367.078369,460.349731 1367.071899,468.468719 1367.071899,476.693726 
	C1370.236328,476.693726 1372.944336,476.693726 1375.918457,476.693726 
	C1375.918457,468.235077 1375.986694,460.095398 1375.898926,451.957367 
	C1375.812744,443.971436 1376.255371,435.898376 1375.236816,428.022491 
	C1373.574341,415.168365 1363.604980,408.418091 1351.129517,411.835876 
	C1344.791626,413.572144 1339.009888,417.338989 1332.787354,420.277344 
	C1329.415894,414.020660 1323.240967,410.109589 1315.583252,411.282776 
	C1308.810303,412.320404 1302.362061,415.477997 1295.961792,417.635132 
	C1295.883179,416.155090 1295.755005,413.740021 1295.609863,411.009369 
	C1292.449951,411.772552 1289.772827,412.419128 1287.307861,413.014435 
	C1287.307861,434.580353 1287.307861,455.668365 1287.307861,476.795074 
	C1290.196655,476.795074 1292.793945,476.795074 1295.857300,476.795074 
	C1295.857300,462.131836 1296.148682,447.675446 1295.708130,433.241394 
	C1295.541260,427.771332 1297.310669,424.448853 1302.809448,422.058380 
M745.857300,445.500671 
	C745.857300,441.504395 746.374512,437.423859 745.740417,433.530853 
	C744.692932,427.099518 748.128174,424.081329 753.216614,421.892822 
	C754.737122,421.238892 756.275391,420.573120 757.868591,420.149933 
	C769.727356,416.999451 776.749573,422.254822 776.981934,434.564606 
	C777.129639,442.387970 777.031921,450.216003 777.038269,458.041962 
	C777.043274,464.306091 777.039307,470.570221 777.039307,476.774780 
	C780.276855,476.774780 782.877014,476.774780 785.879761,476.774780 
	C785.879761,462.092255 786.205811,447.635468 785.701050,433.207794 
	C785.526733,428.224670 787.138062,425.378937 791.194641,423.321869 
	C792.968323,422.422394 794.698303,421.383514 796.558777,420.717041 
	C808.742859,416.352570 816.811462,421.764343 816.995544,434.601898 
	C817.177002,447.254211 817.051819,459.910828 817.082886,472.565491 
	C817.086365,473.999481 817.230164,475.433136 817.302673,476.754395 
	C820.350830,476.754395 822.948608,476.754395 825.918274,476.754395 
	C825.918274,466.709076 826.004456,456.919617 825.888245,447.132568 
	C825.809326,440.488220 826.059814,433.754883 825.076965,427.224823 
	C823.279480,415.282318 813.511353,408.576691 801.799438,411.668945 
	C795.254211,413.397034 789.255127,417.193756 782.776367,420.165436 
	C779.553955,414.225647 773.466370,410.152802 765.791138,411.282074 
	C758.997437,412.281647 752.516541,415.406891 745.961853,417.572449 
	C745.900024,416.243011 745.787415,413.821320 745.659668,411.074524 
	C742.612793,411.755005 739.900513,412.360748 737.225098,412.958252 
	C737.225098,434.369781 737.225098,455.466461 737.225098,476.701477 
	C740.140015,476.701477 742.843994,476.701477 745.857239,476.701477 
	C745.857239,466.426483 745.857239,456.463379 745.857300,445.500671 
M575.044800,396.445160 
	C574.340332,395.513885 573.836914,394.168152 572.900940,393.714020 
	C560.483032,387.688904 547.548584,385.679932 534.168335,389.838776 
	C515.813293,395.543793 505.073883,412.678711 505.653687,434.787354 
	C506.207642,455.910370 516.223816,471.266937 533.438110,476.634766 
	C547.875610,481.136719 561.735352,478.869904 574.882202,471.785706 
	C576.128174,471.114319 577.639526,469.452393 577.662292,468.225037 
	C577.874634,456.788544 577.788025,445.346466 577.788025,433.697083 
	C566.184021,433.697083 555.132874,433.697083 543.963989,433.697083 
	C543.963989,436.429382 543.963989,438.855713 543.963989,441.665802 
	C552.311584,441.665802 560.401733,441.665802 568.978638,441.665802 
	C568.978638,446.832336 568.978638,451.621613 568.978638,456.410889 
	C568.978638,466.704590 568.978577,466.704315 558.984070,469.259674 
	C558.661438,469.342194 558.346008,469.453888 558.021912,469.529297 
	C537.958435,474.197144 521.006165,464.991821 516.480713,446.204651 
	C514.952271,439.859314 514.677673,432.942322 515.250244,426.411102 
	C516.957886,406.932129 530.829224,394.805542 550.311707,396.202667 
	C557.884644,396.745819 565.279358,399.774170 573.060425,401.747833 
	C573.396729,400.894196 574.123962,399.048523 575.044800,396.445160 
M1423.520752,411.470581 
	C1417.329712,413.321350 1411.138672,415.172089 1404.968262,417.016663 
	C1404.895142,415.717529 1404.767822,413.456757 1404.618042,410.795135 
	C1401.576416,411.467926 1398.889893,412.062164 1396.299561,412.635132 
	C1396.299561,445.144592 1396.299561,477.222015 1396.299561,509.297791 
	C1399.288818,509.297791 1401.978760,509.297791 1404.856812,509.297791 
	C1404.856812,503.375458 1404.856812,497.883423 1404.856812,492.391388 
	C1404.856812,486.984802 1404.856812,481.578217 1404.856812,475.825531 
	C1406.935791,476.419678 1408.349854,476.827087 1409.765625,477.227936 
	C1430.497559,483.097687 1448.061523,472.449585 1451.503052,451.265625 
	C1454.851196,430.656799 1444.138916,412.053009 1423.520752,411.470581 
M1268.512451,424.242401 
	C1262.502686,408.902313 1240.364380,406.933350 1227.809692,418.376465 
	C1216.093750,429.055145 1213.239990,450.103638 1221.639893,464.392914 
	C1229.324951,477.466187 1245.100342,482.258698 1261.557007,476.519531 
	C1269.118530,473.882477 1269.118530,473.882385 1266.442749,465.939941 
	C1242.018555,475.694946 1224.475098,466.808502 1226.312744,445.011566 
	C1239.375122,445.011566 1252.493042,444.922302 1265.608032,445.079224 
	C1268.593506,445.114929 1270.095337,444.098938 1269.958252,441.225800 
	C1269.699097,435.793762 1269.231323,430.371613 1268.512451,424.242401 
M894.865723,442.294373 
	C895.043152,440.135651 895.307068,437.980011 895.383606,435.817719 
	C895.793152,424.247314 890.267273,415.314209 880.575195,412.386108 
	C870.814087,409.437195 861.724121,411.103394 853.805237,417.593750 
	C841.428833,427.737671 838.038757,449.066193 846.272461,463.806580 
	C853.684570,477.076324 869.566101,482.260590 885.984070,476.769836 
	C894.032043,474.078278 894.032043,474.078278 891.533386,465.954193 
	C866.523621,475.418854 849.602600,466.870148 851.288574,445.013214 
	C864.038757,445.013214 876.841370,445.081207 889.641479,444.930481 
	C891.315247,444.910767 892.975830,443.767914 894.865723,442.294373 
M644.847534,424.936584 
	C642.311035,418.736450 638.004944,414.270325 631.539429,412.378723 
	C620.982239,409.289978 611.399719,411.372528 603.317444,418.911835 
	C591.712891,429.736725 589.349121,451.051208 598.002014,465.017517 
	C605.846985,477.679871 621.494995,482.168762 637.756531,476.421814 
	C645.059753,473.840820 645.293396,473.293488 642.207458,465.926453 
	C631.890137,470.742432 621.310242,473.700958 611.078430,466.358856 
	C604.173950,461.404327 601.776062,453.915344 602.000427,445.109741 
	C616.565918,445.109741 630.678467,445.109741 644.974365,445.109741 
	C646.895691,438.417816 646.867371,432.073456 644.847534,424.936584 
M700.700989,412.700775 
	C693.839905,410.410126 686.989136,410.462036 680.139343,412.764893 
	C664.739624,417.942291 656.054749,434.629761 659.451477,452.451508 
	C661.658508,464.030823 667.446045,472.838654 678.890259,476.973877 
	C695.205566,482.869232 712.672607,475.112579 718.712891,459.182037 
	C724.827271,443.055786 720.744141,419.767548 700.700989,412.700775 
M1524.209351,457.626648 
	C1524.779297,451.221893 1526.367188,444.713715 1525.728882,438.431732 
	C1523.791870,419.367340 1507.363037,407.924042 1488.652344,411.834717 
	C1473.115356,415.082062 1463.659790,428.285034 1463.940796,446.339691 
	C1464.197998,462.870453 1473.632446,475.303284 1488.057861,478.121429 
	C1504.186279,481.272247 1517.301758,474.074951 1524.209351,457.626648 
M1587.248779,418.293060 
	C1587.488281,420.956055 1587.727661,423.619080 1588.008789,426.745483 
	C1591.391846,425.013397 1593.950928,423.456177 1596.695312,422.365417 
	C1599.607788,421.207886 1602.644165,420.219727 1605.717041,419.632385 
	C1618.750244,417.141083 1626.215698,424.657379 1623.874756,438.152100 
	C1621.521606,438.417847 1619.065796,438.675781 1616.615112,438.975555 
	C1608.491455,439.969208 1600.487061,441.411469 1593.555420,446.166534 
	C1587.118042,450.582489 1584.666138,456.871429 1586.040283,464.396515 
	C1587.369873,471.676666 1592.336548,475.902924 1599.217773,477.886383 
	C1607.359375,480.233063 1614.656494,478.324188 1621.119873,472.975647 
	C1622.324097,471.979126 1623.460815,470.901154 1624.712158,469.786530 
	C1627.367676,476.008453 1630.694214,479.345551 1639.066650,477.778381 
	C1639.227417,475.738190 1639.392456,473.644714 1639.552246,471.616669 
	C1633.749390,470.264435 1633.224609,469.671265 1633.171631,463.745544 
	C1633.072021,452.597656 1633.272949,441.442749 1632.946899,430.302551 
	C1632.636841,419.714752 1627.293945,413.774628 1616.973755,411.743652 
	C1606.431641,409.669037 1596.935303,412.609070 1587.248779,418.293060 
M1180.997681,435.500000 
	C1180.997681,449.267090 1180.997681,463.034210 1180.997681,476.677856 
	C1184.336304,476.677856 1187.070068,476.677856 1190.214844,476.677856 
	C1190.214844,450.280975 1190.214844,424.207977 1190.214844,397.788757 
	C1200.579590,397.788757 1210.519531,397.788757 1220.652588,397.788757 
	C1220.652588,394.995270 1220.652588,392.549927 1220.652588,389.849884 
	C1197.168335,389.849884 1173.778320,389.849884 1150.371094,389.849884 
	C1150.371094,392.633942 1150.371094,395.070953 1150.371094,398.036194 
	C1160.656738,398.036194 1170.716797,398.036194 1180.997681,398.036194 
	C1180.997681,410.545013 1180.997681,422.522491 1180.997681,435.500000 
M1042.957397,453.175385 
	C1042.677734,448.883118 1041.822998,444.536163 1042.224854,440.308685 
	C1043.510864,426.778229 1053.678101,417.965210 1066.478760,419.426697 
	C1071.774414,420.031311 1076.916748,421.979279 1082.179443,423.329315 
	C1084.723022,416.835999 1084.723022,416.835968 1081.942993,415.169739 
	C1070.367188,408.231537 1052.924438,410.018890 1043.249390,419.134430 
	C1031.712036,430.004639 1029.335693,451.280090 1038.097168,465.262207 
	C1045.960205,477.810669 1061.958740,482.218689 1077.989624,476.253662 
	C1084.889771,473.686188 1085.172974,472.913971 1081.736938,466.038086 
	C1061.622437,474.792053 1049.206055,470.922638 1042.957397,453.175385 
M912.552917,461.997559 
	C914.208130,478.414612 927.726196,484.239288 943.910278,475.320435 
	C943.447754,473.162811 942.972351,470.944794 942.439087,468.457001 
	C939.477661,469.318085 936.844971,470.336182 934.117310,470.830627 
	C924.975220,472.487823 920.867981,469.044464 920.891418,459.752533 
	C920.910645,452.096619 921.169922,444.441650 921.258850,436.785522 
	C921.319702,431.543610 921.270508,426.300415 921.270508,420.762817 
	C929.338013,420.762817 936.100403,420.762817 942.921021,420.762817 
	C942.921021,417.999756 942.921021,415.591339 942.921021,412.844940 
	C935.816650,412.844940 929.056213,412.844940 922.017456,412.844940 
	C922.017456,407.762299 922.017456,403.022278 922.017456,398.391052 
	C919.271729,398.391052 916.844788,398.391052 913.925659,398.391052 
	C913.925659,403.283295 913.925659,407.888031 913.925659,412.537415 
	C910.329834,413.491638 907.195007,414.323486 904.192932,415.120148 
	C904.192932,417.153870 904.192932,418.723083 904.192932,420.443634 
	C907.411865,420.732483 910.332825,420.994598 912.508728,421.189850 
	C912.508728,434.813568 912.508728,447.956818 912.552917,461.997559 
M1554.905518,418.469299 
	C1553.745605,419.922913 1552.585693,421.376526 1550.631714,423.825409 
	C1550.631714,418.784241 1550.631714,415.062164 1550.631714,411.012329 
	C1547.453125,411.775513 1544.774048,412.418793 1542.316650,413.008820 
	C1542.316650,434.585846 1542.316650,455.681244 1542.316650,476.783508 
	C1545.212158,476.783508 1547.810669,476.783508 1550.857300,476.783508 
	C1550.857300,474.933228 1550.857422,473.309296 1550.857422,471.685364 
	C1550.857422,460.685883 1550.805908,449.686096 1550.874146,438.687012 
	C1550.926270,430.291290 1559.653442,420.060486 1567.671143,419.592590 
	C1571.293213,419.381256 1575.001221,420.642395 1578.837036,421.262421 
	C1579.440918,419.071991 1580.090820,416.714935 1580.719238,414.435944 
	C1571.909668,408.858429 1563.204102,410.115906 1554.905518,418.469299 
M1652.020752,453.500000 
	C1652.020752,461.256775 1652.020752,469.013550 1652.020752,476.801788 
	C1655.192505,476.801788 1657.787476,476.801788 1660.541382,476.801788 
	C1660.541382,444.793610 1660.541382,413.002472 1660.541382,380.814056 
	C1657.470459,381.525330 1654.792969,382.145477 1652.020752,382.787567 
	C1652.020752,406.283539 1652.020752,429.391785 1652.020752,453.500000 
M995.141663,413.121368 
	C983.033386,408.023499 974.108398,412.512421 966.550781,422.469299 
	C966.550781,418.749390 966.550781,415.029480 966.550781,411.020782 
	C963.384949,411.795837 960.721558,412.447876 958.342224,413.030365 
	C958.342224,434.662140 958.342224,455.749268 958.342224,476.753967 
	C961.266846,476.753967 963.867554,476.753967 966.374023,476.753967 
	C966.584595,476.201385 966.796021,475.904541 966.796814,475.607147 
	C966.828979,464.109955 966.848633,452.612762 966.855652,441.115540 
	C966.865540,425.075165 979.332764,416.249542 995.119812,421.966980 
	C995.355652,419.035431 995.578186,416.269348 995.141663,413.121368 
M1008.113770,435.500061 
	C1008.113770,449.243347 1008.113770,462.986664 1008.113770,476.823364 
	C1011.298035,476.823364 1013.895081,476.823364 1016.592285,476.823364 
	C1016.592285,454.853516 1016.592285,433.079987 1016.592285,411.036896 
	C1013.506592,411.797607 1010.837708,412.455566 1008.354614,413.067719 
	C1008.228699,413.891388 1008.135864,414.218201 1008.135193,414.545197 
	C1008.121704,421.196869 1008.118774,427.848511 1008.113770,435.500061 
M1014.048828,397.981445 
	C1017.751770,396.809357 1018.863892,393.898804 1018.037109,390.609711 
	C1017.596008,388.854736 1015.956543,386.788483 1014.326477,386.072113 
	C1010.899170,384.565857 1007.624634,386.734283 1006.940552,390.309296 
	C1006.081238,394.799774 1008.249329,397.463348 1014.048828,397.981445 
z"/>
<path fill="#FFFFFF" opacity="1.000000" stroke="none" 
	d="
M123.000000,601.000000 
	C82.350121,601.000000 41.700241,601.000000 1.025182,601.000000 
	C1.025182,401.099365 1.025182,201.198700 1.025182,1.000000 
	C110.688499,1.000000 220.377274,1.000000 330.533020,1.468657 
	C331.000000,102.589119 331.000427,203.240921 330.999054,303.892731 
	C330.998962,310.994171 330.992828,310.999084 323.781555,310.999237 
	C259.791016,311.000549 195.800461,310.999847 131.809921,311.000214 
	C123.034927,311.000244 123.000145,311.036346 123.000130,320.041504 
	C122.999931,413.694336 123.000000,507.347168 123.000000,601.000000 
M44.331871,205.386261 
	C43.824173,210.401245 44.567574,214.105179 49.841339,217.152176 
	C82.108185,235.794830 114.117638,254.884003 146.142227,273.943054 
	C148.888977,275.577759 150.789017,275.797760 153.712112,274.050537 
	C186.269196,254.590485 218.907547,235.265106 251.640152,216.101898 
	C254.890152,214.199188 255.755432,212.141220 255.743973,208.601685 
	C255.622101,170.948105 255.592896,133.293610 255.778946,95.640549 
	C255.798492,91.684677 254.346252,89.738335 251.180054,87.860352 
	C218.981918,68.762466 186.831879,49.582840 154.757538,30.277971 
	C151.390762,28.251587 148.936905,28.010965 145.395355,30.148912 
	C113.202400,49.582958 80.897705,68.832710 48.541477,87.994164 
	C45.441952,89.829720 44.230148,91.790932 44.244621,95.452370 
	C44.388161,131.772888 44.331928,168.094223 44.331871,205.386261 
z"/>
<path fill="#FDFDFD" opacity="1.000000" stroke="none" 
	d="
M123.468658,601.000000 
	C123.000000,507.347168 122.999931,413.694336 123.000130,320.041504 
	C123.000145,311.036346 123.034927,311.000244 131.809921,311.000214 
	C195.800461,310.999847 259.791016,311.000549 323.781555,310.999237 
	C330.992828,310.999084 330.998962,310.994171 330.999054,303.892731 
	C331.000427,203.240921 331.000000,102.589119 331.000000,1.468657 
	C417.354218,1.000000 503.708466,1.000000 590.531372,1.000000 
	C591.000000,97.962036 590.977417,194.924088 591.071777,291.886047 
	C591.076111,296.369019 590.220032,300.079071 586.610596,302.913116 
	C585.962219,303.422211 585.043274,304.037689 584.934570,304.714111 
	C583.734863,312.185089 578.053650,310.994781 572.998657,310.996033 
	C541.677612,311.003967 510.356537,310.999786 479.035461,311.000183 
	C471.000641,311.000305 471.000305,311.001221 471.000092,319.286285 
	C470.999756,330.948395 470.997894,342.610474 471.001038,354.272583 
	C471.002411,359.350739 470.180725,364.025818 466.664948,368.160950 
	C464.916290,370.217682 463.950592,373.146698 463.253510,375.842194 
	C462.221130,379.834198 459.822296,381.101166 455.965027,381.039551 
	C447.803650,380.909210 439.634705,381.150177 431.477142,380.930542 
	C427.960815,380.835876 426.923218,381.997925 426.934113,385.487610 
	C427.043152,420.473572 427.035309,455.460083 426.944855,490.446136 
	C426.936005,493.871155 427.930908,495.371948 431.502899,496.106110 
	C443.167847,498.503662 454.728668,501.403809 466.352112,504.009705 
	C470.648651,504.972931 471.029053,508.010345 471.023895,511.597443 
	C470.981415,541.085815 470.999969,570.574280 471.000000,600.531372 
	C355.312439,601.000000 239.624878,601.000000 123.468658,601.000000 
M421.223297,44.776352 
	C396.804626,59.340584 372.396027,73.921791 347.950684,88.441086 
	C345.668304,89.796715 344.248962,91.103256 344.259125,94.186783 
	C344.386658,132.838699 344.305664,171.491364 344.461853,210.143051 
	C344.468811,211.864655 345.789276,214.319565 347.242126,215.188232 
	C380.171051,234.877197 413.178680,254.435425 446.290619,273.814758 
	C447.988342,274.808380 451.089996,274.726349 452.948334,273.868195 
	C458.023743,271.524445 462.831726,268.578735 467.660278,265.726990 
	C495.860107,249.072006 524.022339,232.353302 552.242859,215.733627 
	C554.617004,214.335449 555.743103,212.873123 555.734070,209.905914 
	C555.617126,171.420517 555.698181,132.934464 555.530945,94.449455 
	C555.522888,92.581596 554.169739,89.912064 552.621155,88.977234 
	C519.454102,68.956650 486.188354,49.098984 452.843445,29.375868 
	C451.408569,28.527130 448.635773,28.559082 447.161682,29.385551 
	C438.607178,34.181702 430.255249,39.339146 421.223297,44.776352 
M308.154694,332.382660 
	C304.414093,331.217773 302.133820,326.089050 296.744476,329.342621 
	C263.754028,349.259399 230.595367,368.897583 197.594421,388.797150 
	C195.999588,389.758789 194.425476,392.303864 194.416946,394.118988 
	C194.235519,432.765076 194.236740,471.412415 194.415176,510.058533 
	C194.423615,511.887726 195.937790,514.474731 197.520370,515.419250 
	C230.600891,535.162415 263.811798,554.687012 296.921814,574.381042 
	C299.271027,575.778320 300.790924,575.777100 303.125183,574.386597 
	C335.937866,554.839905 368.796997,535.370605 401.738953,516.042847 
	C404.703522,514.303467 405.813965,512.520813 405.802246,509.072266 
	C405.673004,471.092102 405.681702,433.111206 405.793610,395.130951 
	C405.803070,391.926605 404.944244,390.047852 402.098877,388.364105 
	C370.937836,369.924072 339.863007,351.338379 308.154694,332.382660 
z"/>
<path fill="#2D2D2D" opacity="1.000000" stroke="none" 
	d="
M642.305664,189.999878 
	C642.305664,175.200043 642.305664,160.900223 642.305664,146.828522 
	C642.936890,146.436981 643.204956,146.124435 643.468750,146.127975 
	C662.777771,146.387039 682.144958,145.840195 701.378113,147.195374 
	C719.330322,148.460281 735.566528,154.964676 746.174866,170.755280 
	C767.316223,202.224655 750.790710,244.905869 713.169922,254.853561 
	C702.373840,257.708252 690.862183,258.023956 679.635681,259.017548 
	C673.403687,259.569122 667.082886,259.116516 660.344543,259.116516 
	C660.344543,280.192963 660.344543,300.447601 660.344543,320.852783 
	C654.235596,320.852783 648.596619,320.852783 642.305603,320.852783 
	C642.305603,277.353699 642.305603,233.926788 642.305664,189.999878 
M660.228394,209.499924 
	C660.228394,220.575119 660.228394,231.650314 660.228394,241.791321 
	C672.111328,241.791321 683.266052,242.215881 694.365845,241.618866 
	C700.244690,241.302658 706.222534,239.768005 711.817810,237.815216 
	C728.167603,232.109009 736.184021,219.676315 736.088562,201.217224 
	C735.999817,184.059143 727.612427,172.027908 711.479919,166.414734 
	C694.880859,160.639252 677.696228,163.129425 660.228455,162.521805 
	C660.228455,178.291138 660.228455,193.395523 660.228394,209.499924 
z"/>
<path fill="#2E2E2E" opacity="1.000000" stroke="none" 
	d="
M1425.527344,205.885345 
	C1435.408813,197.559402 1446.083618,191.770111 1458.635864,189.839584 
	C1485.068115,185.774307 1504.634521,200.345856 1505.615112,227.089874 
	C1506.754883,258.174103 1505.880981,289.332184 1505.880981,320.734070 
	C1500.345093,320.734070 1494.917725,320.734070 1488.783447,320.734070 
	C1488.783447,319.102020 1488.783325,317.367584 1488.783325,315.633118 
	C1488.783325,290.808411 1488.897949,265.982758 1488.699951,241.159637 
	C1488.652466,235.208099 1488.151489,229.130661 1486.827515,223.347336 
	C1484.466919,213.036697 1477.097900,207.035980 1466.772583,206.025055 
	C1449.661499,204.349777 1435.528076,210.853363 1423.380737,222.297348 
	C1422.091797,223.511551 1421.640015,226.136841 1421.632690,228.110550 
	C1421.524780,257.100067 1421.558350,286.090149 1421.558472,315.080078 
	C1421.558472,316.883087 1421.558594,318.686066 1421.558594,320.747559 
	C1415.598999,320.747559 1410.046509,320.747559 1404.287354,320.747559 
	C1404.287354,257.933685 1404.287354,195.346069 1404.287354,132.289307 
	C1409.832397,131.129700 1415.419189,129.961365 1421.583496,128.672226 
	C1421.583496,155.513947 1421.583496,181.745209 1421.583496,208.895477 
	C1423.290771,207.601181 1424.259399,206.866928 1425.527344,205.885345 
z"/>
<path fill="#2C2C2C" opacity="1.000000" stroke="none" 
	d="
M1148.265137,249.571289 
	C1149.679443,272.506592 1144.644897,292.944977 1127.522217,308.617798 
	C1109.776489,324.861023 1088.536011,328.365082 1066.004517,321.609100 
	C1044.188965,315.067841 1031.316528,299.210602 1026.201904,277.458740 
	C1021.230591,256.315979 1022.931091,235.649597 1034.940430,216.884888 
	C1048.633789,195.488846 1074.144775,185.218033 1099.727905,190.256943 
	C1124.242432,195.085388 1141.835449,213.308319 1146.898560,239.222687 
	C1147.535400,242.482788 1147.796509,245.816345 1148.265137,249.571289 
M1131.338013,253.569611 
	C1129.864380,246.450729 1129.385376,238.933105 1126.722778,232.290756 
	C1119.848389,215.140900 1106.780396,205.649506 1088.067749,205.010742 
	C1068.794678,204.352829 1054.509644,212.838791 1046.655396,230.415573 
	C1038.336426,249.032669 1038.660034,268.110260 1048.090820,286.256195 
	C1062.196045,313.396362 1100.950562,317.060516 1119.961182,293.378052 
	C1129.057007,282.046906 1131.799438,268.731293 1131.338013,253.569611 
z"/>
<path fill="#2C2C2C" opacity="1.000000" stroke="none" 
	d="
M848.941833,281.018250 
	C839.569946,305.239014 830.355286,329.106750 821.004028,352.920837 
	C819.308533,357.238434 817.203003,361.415466 815.030701,365.521973 
	C804.591309,385.256348 788.853027,391.863983 767.421692,385.531189 
	C763.954346,384.506592 760.590942,383.130219 757.010254,381.856232 
	C758.844238,376.371918 760.518738,371.364594 762.219543,366.278381 
	C766.558350,367.747131 770.657715,369.464142 774.921387,370.513672 
	C785.816101,373.195587 793.974609,370.538239 799.051575,360.531006 
	C805.640625,347.542969 810.786804,333.815216 816.311462,320.306671 
	C816.862366,318.959595 815.981140,316.827301 815.347290,315.224457 
	C800.074341,276.599731 784.742798,237.998138 769.429626,199.389282 
	C768.642639,197.404938 767.925049,195.393036 766.967773,192.841156 
	C772.668335,192.841156 777.967590,192.555939 783.198425,193.028564 
	C784.622559,193.157242 786.436584,195.338272 787.064941,196.966019 
	C799.389771,228.894943 811.565796,260.881287 823.771973,292.856049 
	C824.329468,294.316711 824.885498,295.777954 825.797852,298.171936 
	C826.802551,295.767639 827.465576,294.317108 828.023071,292.827118 
	C839.957520,260.927277 851.945312,229.047073 863.710144,197.084778 
	C864.969543,193.663147 866.578308,192.504135 870.087402,192.765778 
	C874.218994,193.073822 878.391113,192.837997 883.557800,192.837997 
	C871.912109,222.473694 860.482178,251.560272 848.941833,281.018250 
z"/>
<path fill="#2B2B2B" opacity="1.000000" stroke="none" 
	d="
M932.000000,145.997391 
	C965.652222,145.997391 998.804382,145.997391 1032.278076,145.997391 
	C1032.278076,151.624527 1032.278076,157.020508 1032.278076,162.708176 
	C1011.957703,162.708176 991.842712,162.708176 971.151123,162.708176 
	C971.151123,215.516006 971.151123,268.040009 971.151123,320.782532 
	C964.967896,320.782532 959.353821,320.782532 953.158936,320.782532 
	C953.158936,268.365112 953.158936,215.839905 953.158936,162.858032 
	C932.352295,162.858032 912.117981,162.858032 891.630676,162.858032 
	C891.630676,157.139526 891.630676,151.878174 891.630676,145.997391 
	C904.979858,145.997391 918.239929,145.997391 932.000000,145.997391 
z"/>
<path fill="#2C2C2C" opacity="1.000000" stroke="none" 
	d="
M1361.586914,301.731750 
	C1363.959961,300.454742 1365.997192,299.349854 1368.550415,297.965118 
	C1369.693237,302.756470 1370.905640,307.297607 1371.762817,311.904816 
	C1371.927490,312.789856 1370.956543,314.385529 1370.072754,314.893555 
	C1345.036743,329.284332 1303.970947,330.067078 1283.187012,301.629059 
	C1269.552368,282.973175 1267.275757,261.774475 1271.744995,239.738144 
	C1275.886108,219.320404 1287.037720,203.845901 1306.228027,194.824158 
	C1326.040161,185.510132 1356.899292,188.129349 1372.656006,200.496353 
	C1371.286865,205.268448 1369.887085,210.147369 1368.647339,214.468826 
	C1360.681641,211.795135 1353.210449,208.485168 1345.389160,206.802704 
	C1313.483276,199.939209 1289.017212,219.228897 1288.020630,251.908859 
	C1287.809326,258.836639 1288.083252,266.007629 1289.632324,272.720734 
	C1296.020630,300.405579 1319.490967,313.818207 1348.107788,306.519714 
	C1352.589722,305.376678 1356.874878,303.461853 1361.586914,301.731750 
z"/>
<path fill="#2F2F2F" opacity="1.000000" stroke="none" 
	d="
M1207.016846,223.119843 
	C1200.566895,231.861862 1198.041382,241.090012 1198.372559,251.797256 
	C1199.025635,272.920044 1198.565063,294.077271 1198.565063,315.220245 
	C1198.565063,317.018555 1198.565063,318.816864 1198.565063,320.806458 
	C1192.644165,320.806458 1187.201538,320.806458 1181.416870,320.806458 
	C1181.416870,278.279541 1181.416870,235.752258 1181.416870,192.744003 
	C1186.845825,191.601364 1192.455688,190.420685 1198.586182,189.130402 
	C1198.586182,197.738342 1198.586182,205.817902 1198.586182,213.897461 
	C1205.651978,204.121445 1212.961426,195.008667 1224.678711,191.073517 
	C1236.413818,187.132324 1247.576660,189.302002 1258.686890,195.017471 
	C1257.202148,200.409988 1255.773071,205.600372 1254.228027,211.211945 
	C1245.869263,206.607391 1237.439087,204.474152 1228.483398,206.511246 
	C1218.986938,208.671310 1212.665649,215.240280 1207.016846,223.119843 
z"/>
<path fill="#303030" opacity="1.000000" stroke="none" 
	d="
M1302.463379,422.236694 
	C1297.310669,424.448853 1295.541260,427.771332 1295.708130,433.241394 
	C1296.148682,447.675446 1295.857300,462.131836 1295.857300,476.795074 
	C1292.793945,476.795074 1290.196655,476.795074 1287.307861,476.795074 
	C1287.307861,455.668365 1287.307861,434.580353 1287.307861,413.014435 
	C1289.772827,412.419128 1292.449951,411.772552 1295.609863,411.009369 
	C1295.755005,413.740021 1295.883179,416.155090 1295.961792,417.635132 
	C1302.362061,415.477997 1308.810303,412.320404 1315.583252,411.282776 
	C1323.240967,410.109589 1329.415894,414.020660 1332.787354,420.277344 
	C1339.009888,417.338989 1344.791626,413.572144 1351.129517,411.835876 
	C1363.604980,408.418091 1373.574341,415.168365 1375.236816,428.022491 
	C1376.255371,435.898376 1375.812744,443.971436 1375.898926,451.957367 
	C1375.986694,460.095398 1375.918457,468.235077 1375.918457,476.693726 
	C1372.944336,476.693726 1370.236328,476.693726 1367.071899,476.693726 
	C1367.071899,468.468719 1367.078369,460.349731 1367.069824,452.230713 
	C1367.063599,446.233917 1367.148315,440.234314 1366.997681,434.240875 
	C1366.695679,422.231262 1359.690552,417.011932 1348.083130,420.181976 
	C1345.874146,420.785278 1343.812866,421.984985 1341.741333,423.024780 
	C1337.410156,425.198761 1335.436035,428.084900 1335.678833,433.592621 
	C1336.307983,447.857422 1335.889771,462.168427 1335.889771,476.736816 
	C1332.949463,476.736816 1330.344360,476.736816 1327.039062,476.736816 
	C1327.039062,473.639404 1327.039185,470.381622 1327.039062,467.123840 
	C1327.038940,457.461975 1327.051392,447.800079 1327.035889,438.138245 
	C1327.007812,420.619293 1318.989136,415.302185 1302.463379,422.236694 
z"/>
<path fill="#303030" opacity="1.000000" stroke="none" 
	d="
M745.857300,446.000488 
	C745.857239,456.463379 745.857239,466.426483 745.857239,476.701477 
	C742.843994,476.701477 740.140015,476.701477 737.225098,476.701477 
	C737.225098,455.466461 737.225098,434.369781 737.225098,412.958252 
	C739.900513,412.360748 742.612793,411.755005 745.659668,411.074524 
	C745.787415,413.821320 745.900024,416.243011 745.961853,417.572449 
	C752.516541,415.406891 758.997437,412.281647 765.791138,411.282074 
	C773.466370,410.152802 779.553955,414.225647 782.776367,420.165436 
	C789.255127,417.193756 795.254211,413.397034 801.799438,411.668945 
	C813.511353,408.576691 823.279480,415.282318 825.076965,427.224823 
	C826.059814,433.754883 825.809326,440.488220 825.888245,447.132568 
	C826.004456,456.919617 825.918274,466.709076 825.918274,476.754395 
	C822.948608,476.754395 820.350830,476.754395 817.302673,476.754395 
	C817.230164,475.433136 817.086365,473.999481 817.082886,472.565491 
	C817.051819,459.910828 817.177002,447.254211 816.995544,434.601898 
	C816.811462,421.764343 808.742859,416.352570 796.558777,420.717041 
	C794.698303,421.383514 792.968323,422.422394 791.194641,423.321869 
	C787.138062,425.378937 785.526733,428.224670 785.701050,433.207794 
	C786.205811,447.635468 785.879761,462.092255 785.879761,476.774780 
	C782.877014,476.774780 780.276855,476.774780 777.039307,476.774780 
	C777.039307,470.570221 777.043274,464.306091 777.038269,458.041962 
	C777.031921,450.216003 777.129639,442.387970 776.981934,434.564606 
	C776.749573,422.254822 769.727356,416.999451 757.868591,420.149933 
	C756.275391,420.573120 754.737122,421.238892 753.216614,421.892822 
	C748.128174,424.081329 744.692932,427.099518 745.740417,433.530853 
	C746.374512,437.423859 745.857300,441.504395 745.857300,446.000488 
z"/>
<path fill="#313131" opacity="1.000000" stroke="none" 
	d="
M574.947998,396.824036 
	C574.123962,399.048523 573.396729,400.894196 573.060425,401.747833 
	C565.279358,399.774170 557.884644,396.745819 550.311707,396.202667 
	C530.829224,394.805542 516.957886,406.932129 515.250244,426.411102 
	C514.677673,432.942322 514.952271,439.859314 516.480713,446.204651 
	C521.006165,464.991821 537.958435,474.197144 558.021912,469.529297 
	C558.346008,469.453888 558.661438,469.342194 558.984070,469.259674 
	C568.978577,466.704315 568.978638,466.704590 568.978638,456.410889 
	C568.978638,451.621613 568.978638,446.832336 568.978638,441.665802 
	C560.401733,441.665802 552.311584,441.665802 543.963989,441.665802 
	C543.963989,438.855713 543.963989,436.429382 543.963989,433.697083 
	C555.132874,433.697083 566.184021,433.697083 577.788025,433.697083 
	C577.788025,445.346466 577.874634,456.788544 577.662292,468.225037 
	C577.639526,469.452393 576.128174,471.114319 574.882202,471.785706 
	C561.735352,478.869904 547.875610,481.136719 533.438110,476.634766 
	C516.223816,471.266937 506.207642,455.910370 505.653687,434.787354 
	C505.073883,412.678711 515.813293,395.543793 534.168335,389.838776 
	C547.548584,385.679932 560.483032,387.688904 572.900940,393.714020 
	C573.836914,394.168152 574.340332,395.513885 574.947998,396.824036 
z"/>
<path fill="#303030" opacity="1.000000" stroke="none" 
	d="
M1423.941162,411.497833 
	C1444.138916,412.053009 1454.851196,430.656799 1451.503052,451.265625 
	C1448.061523,472.449585 1430.497559,483.097687 1409.765625,477.227936 
	C1408.349854,476.827087 1406.935791,476.419678 1404.856812,475.825531 
	C1404.856812,481.578217 1404.856812,486.984802 1404.856812,492.391388 
	C1404.856812,497.883423 1404.856812,503.375458 1404.856812,509.297791 
	C1401.978760,509.297791 1399.288818,509.297791 1396.299561,509.297791 
	C1396.299561,477.222015 1396.299561,445.144592 1396.299561,412.635132 
	C1398.889893,412.062164 1401.576416,411.467926 1404.618042,410.795135 
	C1404.767822,413.456757 1404.895142,415.717529 1404.968262,417.016663 
	C1411.138672,415.172089 1417.329712,413.321350 1423.941162,411.497833 
M1427.653564,420.265656 
	C1420.630981,418.733337 1413.988159,419.738251 1408.254028,424.090088 
	C1406.588257,425.354279 1405.062744,427.957062 1405.002808,429.991211 
	C1404.684814,440.800293 1404.965210,451.625671 1404.780518,462.440948 
	C1404.729736,465.414551 1405.863403,466.923157 1408.378784,468.186249 
	C1423.406738,475.731903 1438.529053,468.649200 1442.176880,452.258911 
	C1445.423584,437.670898 1439.906494,424.989838 1427.653564,420.265656 
z"/>
<path fill="#303030" opacity="1.000000" stroke="none" 
	d="
M1268.681274,424.593872 
	C1269.231323,430.371613 1269.699097,435.793762 1269.958252,441.225800 
	C1270.095337,444.098938 1268.593506,445.114929 1265.608032,445.079224 
	C1252.493042,444.922302 1239.375122,445.011566 1226.312744,445.011566 
	C1224.475098,466.808502 1242.018555,475.694946 1266.442749,465.939941 
	C1269.118530,473.882385 1269.118530,473.882477 1261.557007,476.519531 
	C1245.100342,482.258698 1229.324951,477.466187 1221.639893,464.392914 
	C1213.239990,450.103638 1216.093750,429.055145 1227.809692,418.376465 
	C1240.364380,406.933350 1262.502686,408.902313 1268.681274,424.593872 
M1234.539551,438.244080 
	C1243.629639,438.244080 1252.719849,438.244080 1261.754272,438.244080 
	C1262.231323,425.755707 1256.991089,419.197235 1247.092651,418.999695 
	C1236.124512,418.780823 1226.931396,427.485779 1227.126831,438.247711 
	C1229.258301,438.247711 1231.404663,438.247711 1234.539551,438.244080 
z"/>
<path fill="#303030" opacity="1.000000" stroke="none" 
	d="
M894.754089,442.719788 
	C892.975830,443.767914 891.315247,444.910767 889.641479,444.930481 
	C876.841370,445.081207 864.038757,445.013214 851.288574,445.013214 
	C849.602600,466.870148 866.523621,475.418854 891.533386,465.954193 
	C894.032043,474.078278 894.032043,474.078278 885.984070,476.769836 
	C869.566101,482.260590 853.684570,477.076324 846.272461,463.806580 
	C838.038757,449.066193 841.428833,427.737671 853.805237,417.593750 
	C861.724121,411.103394 870.814087,409.437195 880.575195,412.386108 
	C890.267273,415.314209 895.793152,424.247314 895.383606,435.817719 
	C895.307068,437.980011 895.043152,440.135651 894.754089,442.719788 
M886.914673,436.519775 
	C886.690735,424.448425 881.046997,418.490875 870.341003,419.024567 
	C860.197632,419.530212 851.639954,428.478455 852.244507,438.197388 
	C858.345032,438.197388 864.465454,438.297882 870.580933,438.167236 
	C875.985779,438.051788 881.385132,437.678741 886.914673,436.519775 
z"/>
<path fill="#303030" opacity="1.000000" stroke="none" 
	d="
M644.937866,425.321411 
	C646.867371,432.073456 646.895691,438.417816 644.974365,445.109741 
	C630.678467,445.109741 616.565918,445.109741 602.000427,445.109741 
	C601.776062,453.915344 604.173950,461.404327 611.078430,466.358856 
	C621.310242,473.700958 631.890137,470.742432 642.207458,465.926453 
	C645.293396,473.293488 645.059753,473.840820 637.756531,476.421814 
	C621.494995,482.168762 605.846985,477.679871 598.002014,465.017517 
	C589.349121,451.051208 591.712891,429.736725 603.317444,418.911835 
	C611.399719,411.372528 620.982239,409.289978 631.539429,412.378723 
	C638.004944,414.270325 642.311035,418.736450 644.937866,425.321411 
M619.946045,419.113953 
	C609.412781,421.562683 602.850891,428.917297 603.156372,437.858032 
	C614.692017,437.858032 626.220886,437.858032 637.718872,437.858032 
	C638.404785,424.977173 632.858215,418.953857 619.946045,419.113953 
z"/>
<path fill="#303030" opacity="1.000000" stroke="none" 
	d="
M701.082214,412.815826 
	C720.744141,419.767548 724.827271,443.055786 718.712891,459.182037 
	C712.672607,475.112579 695.205566,482.869232 678.890259,476.973877 
	C667.446045,472.838654 661.658508,464.030823 659.451477,452.451508 
	C656.054749,434.629761 664.739624,417.942291 680.139343,412.764893 
	C686.989136,410.462036 693.839905,410.410126 701.082214,412.815826 
M670.880249,430.644531 
	C666.929810,438.491150 666.762390,446.720459 669.110840,454.921875 
	C673.282043,469.488586 689.904114,475.592957 702.338135,467.288757 
	C709.826660,462.287476 712.177307,454.612366 712.714111,446.185333 
	C713.487610,434.041229 707.152100,423.376251 697.432312,420.155823 
	C687.123718,416.740295 677.875916,420.187134 670.880249,430.644531 
z"/>
<path fill="#303030" opacity="1.000000" stroke="none" 
	d="
M1524.110840,458.008728 
	C1517.301758,474.074951 1504.186279,481.272247 1488.057861,478.121429 
	C1473.632446,475.303284 1464.197998,462.870453 1463.940796,446.339691 
	C1463.659790,428.285034 1473.115356,415.082062 1488.652344,411.834717 
	C1507.363037,407.924042 1523.791870,419.367340 1525.728882,438.431732 
	C1526.367188,444.713715 1524.779297,451.221893 1524.110840,458.008728 
M1484.444092,421.723846 
	C1473.217163,428.870239 1469.202026,444.767242 1475.299927,458.082428 
	C1478.872437,465.883057 1485.027344,470.129089 1493.527588,470.854187 
	C1506.862549,471.991730 1516.438843,462.397644 1517.681152,446.784088 
	C1519.302612,426.406586 1503.516968,414.064484 1484.444092,421.723846 
z"/>
<path fill="#2E2E2E" opacity="1.000000" stroke="none" 
	d="
M1587.595947,418.092773 
	C1596.935303,412.609070 1606.431641,409.669037 1616.973755,411.743652 
	C1627.293945,413.774628 1632.636841,419.714752 1632.946899,430.302551 
	C1633.272949,441.442749 1633.072021,452.597656 1633.171631,463.745544 
	C1633.224609,469.671265 1633.749390,470.264435 1639.552246,471.616669 
	C1639.392456,473.644714 1639.227417,475.738190 1639.066650,477.778381 
	C1630.694214,479.345551 1627.367676,476.008453 1624.712158,469.786530 
	C1623.460815,470.901154 1622.324097,471.979126 1621.119873,472.975647 
	C1614.656494,478.324188 1607.359375,480.233063 1599.217773,477.886383 
	C1592.336548,475.902924 1587.369873,471.676666 1586.040283,464.396515 
	C1584.666138,456.871429 1587.118042,450.582489 1593.555420,446.166534 
	C1600.487061,441.411469 1608.491455,439.969208 1616.615112,438.975555 
	C1619.065796,438.675781 1621.521606,438.417847 1623.874756,438.152100 
	C1626.215698,424.657379 1618.750244,417.141083 1605.717041,419.632385 
	C1602.644165,420.219727 1599.607788,421.207886 1596.695312,422.365417 
	C1593.950928,423.456177 1591.391846,425.013397 1588.008789,426.745483 
	C1587.727661,423.619080 1587.488281,420.956055 1587.595947,418.092773 
M1624.566162,448.912506 
	C1624.497070,447.456787 1624.427856,446.001068 1624.290405,443.105896 
	C1615.999268,445.658386 1607.973999,447.248657 1600.761108,450.591583 
	C1593.205566,454.093384 1592.637451,464.241302 1599.132690,468.649628 
	C1604.759521,472.468536 1610.811279,471.892120 1616.670532,468.990234 
	C1621.854126,466.422974 1625.863892,463.058105 1624.625610,456.295563 
	C1624.242554,454.203156 1624.566162,451.981293 1624.566162,448.912506 
z"/>
<path fill="#2B2B2B" opacity="1.000000" stroke="none" 
	d="
M1180.997681,435.000000 
	C1180.997681,422.522491 1180.997681,410.545013 1180.997681,398.036194 
	C1170.716797,398.036194 1160.656738,398.036194 1150.371094,398.036194 
	C1150.371094,395.070953 1150.371094,392.633942 1150.371094,389.849884 
	C1173.778320,389.849884 1197.168335,389.849884 1220.652588,389.849884 
	C1220.652588,392.549927 1220.652588,394.995270 1220.652588,397.788757 
	C1210.519531,397.788757 1200.579590,397.788757 1190.214844,397.788757 
	C1190.214844,424.207977 1190.214844,450.280975 1190.214844,476.677856 
	C1187.070068,476.677856 1184.336304,476.677856 1180.997681,476.677856 
	C1180.997681,463.034210 1180.997681,449.267090 1180.997681,435.000000 
z"/>
<path fill="#303030" opacity="1.000000" stroke="none" 
	d="
M1043.018921,453.583405 
	C1049.206055,470.922638 1061.622437,474.792053 1081.736938,466.038086 
	C1085.172974,472.913971 1084.889771,473.686188 1077.989624,476.253662 
	C1061.958740,482.218689 1045.960205,477.810669 1038.097168,465.262207 
	C1029.335693,451.280090 1031.712036,430.004639 1043.249390,419.134430 
	C1052.924438,410.018890 1070.367188,408.231537 1081.942993,415.169739 
	C1084.723022,416.835968 1084.723022,416.835999 1082.179443,423.329315 
	C1076.916748,421.979279 1071.774414,420.031311 1066.478760,419.426697 
	C1053.678101,417.965210 1043.510864,426.778229 1042.224854,440.308685 
	C1041.822998,444.536163 1042.677734,448.883118 1043.018921,453.583405 
z"/>
<path fill="#2F2F2F" opacity="1.000000" stroke="none" 
	d="
M912.530823,461.548828 
	C912.508728,447.956818 912.508728,434.813568 912.508728,421.189850 
	C910.332825,420.994598 907.411865,420.732483 904.192932,420.443634 
	C904.192932,418.723083 904.192932,417.153870 904.192932,415.120148 
	C907.195007,414.323486 910.329834,413.491638 913.925659,412.537415 
	C913.925659,407.888031 913.925659,403.283295 913.925659,398.391052 
	C916.844788,398.391052 919.271729,398.391052 922.017456,398.391052 
	C922.017456,403.022278 922.017456,407.762299 922.017456,412.844940 
	C929.056213,412.844940 935.816650,412.844940 942.921021,412.844940 
	C942.921021,415.591339 942.921021,417.999756 942.921021,420.762817 
	C936.100403,420.762817 929.338013,420.762817 921.270508,420.762817 
	C921.270508,426.300415 921.319702,431.543610 921.258850,436.785522 
	C921.169922,444.441650 920.910645,452.096619 920.891418,459.752533 
	C920.867981,469.044464 924.975220,472.487823 934.117310,470.830627 
	C936.844971,470.336182 939.477661,469.318085 942.439087,468.457001 
	C942.972351,470.944794 943.447754,473.162811 943.910278,475.320435 
	C927.726196,484.239288 914.208130,478.414612 912.530823,461.548828 
z"/>
<path fill="#303030" opacity="1.000000" stroke="none" 
	d="
M1555.140869,418.193665 
	C1563.204102,410.115906 1571.909668,408.858429 1580.719238,414.435944 
	C1580.090820,416.714935 1579.440918,419.071991 1578.837036,421.262421 
	C1575.001221,420.642395 1571.293213,419.381256 1567.671143,419.592590 
	C1559.653442,420.060486 1550.926270,430.291290 1550.874146,438.687012 
	C1550.805908,449.686096 1550.857422,460.685883 1550.857422,471.685364 
	C1550.857422,473.309296 1550.857300,474.933228 1550.857300,476.783508 
	C1547.810669,476.783508 1545.212158,476.783508 1542.316650,476.783508 
	C1542.316650,455.681244 1542.316650,434.585846 1542.316650,413.008820 
	C1544.774048,412.418793 1547.453125,411.775513 1550.631714,411.012329 
	C1550.631714,415.062164 1550.631714,418.784241 1550.631714,423.825409 
	C1552.585693,421.376526 1553.745605,419.922913 1555.140869,418.193665 
z"/>
<path fill="#313131" opacity="1.000000" stroke="none" 
	d="
M1652.020752,453.000000 
	C1652.020752,429.391785 1652.020752,406.283539 1652.020752,382.787567 
	C1654.792969,382.145477 1657.470459,381.525330 1660.541382,380.814056 
	C1660.541382,413.002472 1660.541382,444.793610 1660.541382,476.801788 
	C1657.787476,476.801788 1655.192505,476.801788 1652.020752,476.801788 
	C1652.020752,469.013550 1652.020752,461.256775 1652.020752,453.000000 
z"/>
<path fill="#303030" opacity="1.000000" stroke="none" 
	d="
M995.471191,413.312317 
	C995.578186,416.269348 995.355652,419.035431 995.119812,421.966980 
	C979.332764,416.249542 966.865540,425.075165 966.855652,441.115540 
	C966.848633,452.612762 966.828979,464.109955 966.796814,475.607147 
	C966.796021,475.904541 966.584595,476.201385 966.374023,476.753967 
	C963.867554,476.753967 961.266846,476.753967 958.342224,476.753967 
	C958.342224,455.749268 958.342224,434.662140 958.342224,413.030365 
	C960.721558,412.447876 963.384949,411.795837 966.550781,411.020782 
	C966.550781,415.029480 966.550781,418.749390 966.550781,422.469299 
	C974.108398,412.512421 983.033386,408.023499 995.471191,413.312317 
z"/>
<path fill="#313131" opacity="1.000000" stroke="none" 
	d="
M1008.113770,435.000122 
	C1008.118774,427.848511 1008.121704,421.196869 1008.135193,414.545197 
	C1008.135864,414.218201 1008.228699,413.891388 1008.354614,413.067719 
	C1010.837708,412.455566 1013.506592,411.797607 1016.592285,411.036896 
	C1016.592285,433.079987 1016.592285,454.853516 1016.592285,476.823364 
	C1013.895081,476.823364 1011.298035,476.823364 1008.113770,476.823364 
	C1008.113770,462.986664 1008.113770,449.243347 1008.113770,435.000122 
z"/>
<path fill="#2E2E2E" opacity="1.000000" stroke="none" 
	d="
M1013.652527,398.024811 
	C1008.249329,397.463348 1006.081238,394.799774 1006.940552,390.309296 
	C1007.624634,386.734283 1010.899170,384.565857 1014.326477,386.072113 
	C1015.956543,386.788483 1017.596008,388.854736 1018.037109,390.609711 
	C1018.863892,393.898804 1017.751770,396.809357 1013.652527,398.024811 
z"/>
<path fill="#6642CE" opacity="1.000000" stroke="none" 
	d="
M44.332035,204.900787 
	C44.331928,168.094223 44.388161,131.772888 44.244621,95.452370 
	C44.230148,91.790932 45.441952,89.829720 48.541477,87.994164 
	C80.897705,68.832710 113.202400,49.582958 145.395355,30.148912 
	C148.936905,28.010965 151.390762,28.251587 154.757538,30.277971 
	C186.831879,49.582840 218.981918,68.762466 251.180054,87.860352 
	C254.346252,89.738335 255.798492,91.684677 255.778946,95.640549 
	C255.592896,133.293610 255.622101,170.948105 255.743973,208.601685 
	C255.755432,212.141220 254.890152,214.199188 251.640152,216.101898 
	C218.907547,235.265106 186.269196,254.590485 153.712112,274.050537 
	C150.789017,275.797760 148.888977,275.577759 146.142227,273.943054 
	C114.117638,254.884003 82.108185,235.794830 49.841339,217.152176 
	C44.567574,214.105179 43.824173,210.401245 44.332035,204.900787 
M142.192734,268.555817 
	C142.610703,268.529602 143.028656,268.503387 143.446625,268.477173 
	C143.045181,268.222443 142.643753,267.967682 142.187943,267.007660 
	C141.854828,266.257050 141.640976,265.420532 141.171295,264.768280 
	C126.704765,244.678970 112.229736,224.595703 97.713715,204.542145 
	C94.136063,199.599686 90.412422,194.762894 86.633499,189.714020 
	C73.759132,197.538666 61.364426,205.071793 48.506233,212.886612 
	C50.462799,214.262100 51.618073,215.194717 52.881802,215.944565 
	C70.895386,226.633102 88.898071,237.340408 106.957535,247.951035 
	C118.551270,254.762817 130.233841,261.423431 142.192734,268.555817 
M158.817093,268.013947 
	C181.430145,254.658813 204.043228,241.303741 226.656235,227.948532 
	C234.759811,223.162598 242.863205,218.376373 251.834488,213.077728 
	C238.536560,204.992172 226.135849,197.452164 213.479324,189.756607 
	C212.107605,191.466370 210.920456,192.827637 209.862442,194.282791 
	C196.182877,213.097244 182.462692,231.882660 168.892670,250.775909 
	C164.954315,256.259186 161.459274,262.060852 157.287064,267.857513 
	C157.044876,268.064606 156.802689,268.271698 156.560501,268.478760 
	C157.080902,268.368439 157.601303,268.258118 158.817093,268.013947 
M171.500000,186.974701 
	C184.389923,186.974701 197.279846,186.974701 210.982742,186.974701 
	C190.520996,152.103577 170.538834,118.049774 150.008835,83.062340 
	C129.438034,118.130295 109.417313,152.260483 89.054039,186.974655 
	C116.873581,186.974655 143.686783,186.974655 171.500000,186.974701 
M152.615585,269.148804 
	C171.772308,242.734100 190.929031,216.319397 210.406342,189.462677 
	C169.700806,189.462677 130.039825,189.462677 89.681816,189.462677 
	C95.379692,197.341614 100.620758,204.596649 105.869911,211.845840 
	C119.818657,231.109360 133.807846,250.343811 147.675751,269.665344 
	C149.445572,272.131134 150.643799,272.702271 152.615585,269.148804 
M240.367706,91.015953 
	C230.312912,90.015701 220.256546,89.030830 210.203705,88.011292 
	C197.847229,86.758118 185.499557,85.414505 173.136444,84.231590 
	C166.678223,83.613663 160.195068,83.256363 152.641068,82.701935 
	C172.973007,117.360924 192.628036,150.866013 212.704544,185.089569 
	C226.083023,153.913971 239.192337,123.365623 252.421051,92.539001 
	C248.150970,91.958244 244.715881,91.491058 240.367706,91.015953 
M140.626297,94.144371 
	C142.694977,90.607025 144.763672,87.069679 147.503311,82.385033 
	C113.574493,85.746063 80.892746,88.983559 47.449013,92.296539 
	C60.848099,123.473122 73.942940,153.941803 87.342575,185.119675 
	C105.317612,154.410965 122.774872,124.586838 140.626297,94.144371 
M222.732056,73.778961 
	C199.030685,59.622017 175.329330,45.465080 151.438782,31.195143 
	C151.438782,47.963451 151.438782,63.856152 151.438782,79.844215 
	C183.312683,83.003166 214.782303,86.122047 246.251938,89.240936 
	C246.384521,88.850830 246.517105,88.460724 246.649704,88.070625 
	C238.893860,83.416763 231.138031,78.762909 222.732056,73.778961 
M55.159687,89.099945 
	C86.358765,86.016708 117.557838,82.933472 148.676544,79.858170 
	C148.676544,63.408501 148.676544,47.557854 148.676544,31.294920 
	C147.559097,31.873775 146.826401,32.205868 146.140167,32.615765 
	C129.314026,42.666218 112.499168,52.735580 95.668686,62.778744 
	C82.685387,70.526207 69.665955,78.213463 56.723656,86.028618 
	C55.695076,86.649712 55.143635,88.060974 55.159687,89.099945 
M49.540741,103.075233 
	C48.851135,101.692429 48.161530,100.309624 47.278461,98.538879 
	C47.278461,136.132797 47.278461,173.143570 47.278461,210.765564 
	C58.285667,204.095474 68.753883,197.694214 79.282074,191.393188 
	C85.904373,187.429779 85.831390,187.546066 82.693153,180.275238 
	C71.693901,154.791733 60.779770,129.271484 49.540741,103.075233 
M234.400436,140.885315 
	C228.302719,155.096161 222.313309,169.355225 216.025024,183.481232 
	C214.595764,186.691925 215.292389,188.176422 218.122025,189.844574 
	C228.293030,195.840698 238.329224,202.065186 248.442123,208.160645 
	C249.649399,208.888351 251.014984,209.353485 252.775177,210.152847 
	C252.775177,172.990204 252.775177,136.469528 252.775177,99.948875 
	C252.520432,99.851166 252.265701,99.753464 252.010956,99.655762 
	C246.250443,113.169540 240.489929,126.683319 234.400436,140.885315 
z"/>
<path fill="#512A77" opacity="1.000000" stroke="none" 
	d="
M421.529053,44.575371 
	C430.255249,39.339146 438.607178,34.181702 447.161682,29.385551 
	C448.635773,28.559082 451.408569,28.527130 452.843445,29.375868 
	C486.188354,49.098984 519.454102,68.956650 552.621155,88.977234 
	C554.169739,89.912064 555.522888,92.581596 555.530945,94.449455 
	C555.698181,132.934464 555.617126,171.420517 555.734070,209.905914 
	C555.743103,212.873123 554.617004,214.335449 552.242859,215.733627 
	C524.022339,232.353302 495.860107,249.072006 467.660278,265.726990 
	C462.831726,268.578735 458.023743,271.524445 452.948334,273.868195 
	C451.089996,274.726349 447.988342,274.808380 446.290619,273.814758 
	C413.178680,254.435425 380.171051,234.877197 347.242126,215.188232 
	C345.789276,214.319565 344.468811,211.864655 344.461853,210.143051 
	C344.305664,171.491364 344.386658,132.838699 344.259125,94.186783 
	C344.248962,91.103256 345.668304,89.796715 347.950684,88.441086 
	C372.396027,73.921791 396.804626,59.340584 421.529053,44.575371 
M428.500000,186.962662 
	C455.710999,186.962662 482.921967,186.962662 510.948090,186.962662 
	C490.476044,152.112320 470.444244,118.011398 449.991394,83.193748 
	C429.501984,118.147339 409.584747,152.124756 389.163177,186.962601 
	C402.893829,186.962601 415.196899,186.962601 428.500000,186.962662 
M477.838745,234.320206 
	C488.485229,219.481674 499.131714,204.643127 510.145111,189.293243 
	C469.612640,189.293243 430.235077,189.293243 389.661316,189.293243 
	C410.007416,217.423553 429.807556,244.798996 449.972443,272.678772 
	C459.535767,259.537872 468.491547,247.231842 477.838745,234.320206 
M517.818115,173.242188 
	C529.252563,146.440552 540.687012,119.638908 552.328674,92.351585 
	C518.961121,89.052155 486.438660,85.836296 452.652557,82.495483 
	C472.900085,117.017090 492.486084,150.410751 512.592346,184.691528 
	C514.518921,180.477417 516.013733,177.207703 517.818115,173.242188 
M399.695221,87.022987 
	C382.573181,88.786415 365.451172,90.549843 347.557434,92.392746 
	C360.808929,123.228424 373.852997,153.581345 387.339905,184.964828 
	C407.631409,150.368317 427.252106,116.915474 447.468262,82.447411 
	C430.973389,84.053070 415.793396,85.530739 399.695221,87.022987 
M380.106689,86.769356 
	C402.904663,84.432320 425.702637,82.095276 448.720215,79.735718 
	C448.720215,63.601856 448.720215,47.714596 448.720215,31.122414 
	C416.615417,50.283424 384.925995,69.196510 353.236572,88.109604 
	C353.363983,88.464279 353.491394,88.818962 353.618805,89.173637 
	C362.144501,88.399910 370.670197,87.626183 380.106689,86.769356 
M492.626709,83.968445 
	C510.476776,85.699364 528.326843,87.430283 546.176880,89.161201 
	C546.282532,88.763840 546.388123,88.366478 546.493774,87.969116 
	C514.904907,69.119469 483.316071,50.269817 451.366699,31.205048 
	C451.366699,47.756100 451.366699,63.624207 451.366699,79.586136 
	C465.026062,81.062943 478.367706,82.505394 492.626709,83.968445 
M511.947998,236.464645 
	C525.013062,228.816879 538.078064,221.169113 551.890442,213.083893 
	C538.386108,204.958481 526.024536,197.520645 513.219849,189.816193 
	C494.708557,215.382889 476.364990,240.717896 458.021423,266.052917 
	C458.316071,266.449005 458.610718,266.845123 458.905365,267.241241 
	C461.862701,265.759277 464.918518,264.444275 467.760773,262.767242 
	C482.312927,254.180893 496.810089,245.501236 511.947998,236.464645 
M415.486481,229.091721 
	C407.025513,217.455215 398.443848,205.903427 390.179474,194.128906 
	C387.799652,190.738327 385.533173,190.341248 382.282715,192.380661 
	C377.929230,195.112152 373.540100,197.787155 369.155212,200.468338 
	C362.467133,204.557877 355.769592,208.631973 348.427734,213.107864 
	C379.776093,231.671005 410.231750,249.705566 440.687408,267.740112 
	C441.069763,267.222351 441.452087,266.704590 441.834412,266.186829 
	C438.010986,260.736328 434.219360,255.263199 430.356079,249.841125 
	C425.558411,243.107666 420.701477,236.416443 415.486481,229.091721 
M536.491455,136.054810 
	C529.705750,151.936096 522.992554,167.849075 516.069336,183.670181 
	C514.785339,186.604446 515.205566,188.047882 518.026550,189.608490 
	C523.396057,192.579041 528.501465,196.022903 533.767212,199.186020 
	C539.817017,202.820129 545.921692,206.362946 552.647461,210.325394 
	C552.647461,172.968262 552.647461,136.517914 552.647461,100.067574 
	C552.441895,100.003464 552.236389,99.939346 552.030823,99.875237 
	C546.966125,111.707123 541.901428,123.539009 536.491455,136.054810 
M379.161926,172.379120 
	C368.710571,148.220398 358.259216,124.061668 347.404724,98.971085 
	C347.404724,136.538116 347.404724,173.005280 347.404724,209.511246 
	C348.122986,209.511246 348.513794,209.633545 348.748260,209.493698 
	C360.274628,202.618683 371.823578,195.779327 383.230133,188.710281 
	C384.097473,188.172760 384.545990,185.790985 384.155945,184.606796 
	C382.860840,180.674622 381.093445,176.898026 379.161926,172.379120 
z"/>
<path fill="#782B2B" opacity="1.000000" stroke="none" 
	d="
M308.459717,332.587463 
	C339.863007,351.338379 370.937836,369.924072 402.098877,388.364105 
	C404.944244,390.047852 405.803070,391.926605 405.793610,395.130951 
	C405.681702,433.111206 405.673004,471.092102 405.802246,509.072266 
	C405.813965,512.520813 404.703522,514.303467 401.738953,516.042847 
	C368.796997,535.370605 335.937866,554.839905 303.125183,574.386597 
	C300.790924,575.777100 299.271027,575.778320 296.921814,574.381042 
	C263.811798,554.687012 230.600891,535.162415 197.520370,515.419250 
	C195.937790,514.474731 194.423615,511.887726 194.415176,510.058533 
	C194.236740,471.412415 194.235519,432.765076 194.416946,394.118988 
	C194.425476,392.303864 195.999588,389.758789 197.594421,388.797150 
	C230.595367,368.897583 263.754028,349.259399 296.744476,329.342621 
	C302.133820,326.089050 304.414093,331.217773 308.459717,332.587463 
M241.353821,486.898163 
	C280.926636,486.898163 320.499481,486.898163 360.828705,486.898163 
	C340.467010,452.209991 320.443054,418.097260 300.164307,383.550415 
	C299.272614,384.789490 298.853851,385.283691 298.530151,385.833832 
	C281.928741,414.050690 265.285675,442.243256 248.786270,470.519684 
	C245.754929,475.714752 243.310211,481.252106 241.353821,486.898163 
M252.453079,507.057556 
	C268.160889,528.715576 283.868683,550.373535 300.036072,572.665222 
	C320.304413,544.610657 340.074493,517.245789 360.240082,489.333496 
	C319.797577,489.333496 280.314606,489.333496 239.839386,489.333496 
	C244.213959,495.504883 248.109253,501.000122 252.453079,507.057556 
M370.507477,466.944916 
	C381.046753,442.278046 391.585999,417.611176 402.397644,392.306854 
	C368.963409,389.022186 336.416168,385.824677 302.593079,382.501831 
	C323.045197,417.377747 342.668671,450.840515 362.631042,484.881256 
	C365.287262,478.784821 367.719055,473.203491 370.507477,466.944916 
M216.092773,435.407471 
	C223.035126,451.570496 229.977493,467.733490 237.349701,484.897278 
	C257.632385,450.318542 277.234131,416.900757 297.451660,382.433136 
	C263.561401,385.793365 230.975021,389.024292 197.560135,392.337402 
	C203.783600,406.765625 209.806290,420.728394 216.092773,435.407471 
M355.537140,385.041321 
	C369.046997,386.376160 382.556824,387.710999 396.066681,389.045837 
	C396.162750,388.692993 396.258820,388.340179 396.354889,387.987335 
	C364.781342,369.144928 333.207794,350.302521 301.398682,331.319550 
	C301.398682,347.808289 301.398682,363.676331 301.398682,379.579407 
	C319.374939,381.417725 336.996429,383.219757 355.537140,385.041321 
M217.927139,379.383148 
	C213.029343,382.332489 208.131546,385.281799 203.233734,388.231140 
	C203.370453,388.554840 203.507172,388.878510 203.643890,389.202179 
	C235.333908,386.044220 267.023926,382.886261 298.624146,379.737274 
	C298.624146,363.419159 298.624146,347.573761 298.624146,331.222076 
	C271.616455,347.342865 245.087234,363.178070 217.927139,379.383148 
M352.672668,542.161865 
	C368.830750,532.587891 384.988831,523.013977 401.868622,513.012451 
	C388.459229,504.907410 376.170258,497.479645 363.220917,489.652710 
	C344.283264,515.799255 325.471497,541.772095 306.659698,567.744873 
	C307.058899,568.111389 307.458099,568.477905 307.857300,568.844360 
	C322.579346,560.064941 337.301392,551.285522 352.672668,542.161865 
M270.464691,536.056152 
	C259.304138,520.672546 248.143600,505.288910 236.834061,489.699921 
	C223.990204,497.452759 211.489258,504.998596 198.126038,513.064941 
	C229.900131,531.861267 260.530853,549.981262 291.161560,568.101257 
	C291.575867,567.625427 291.990173,567.149597 292.404510,566.673767 
	C285.220001,556.671265 278.035492,546.668701 270.464691,536.056152 
M388.514984,431.922760 
	C380.955109,449.406525 373.336487,466.865631 365.967133,484.429352 
	C365.474335,485.603882 366.380341,488.221375 367.478638,489.048431 
	C370.905273,491.628967 374.726807,493.688477 378.413696,495.919434 
	C386.434967,500.773163 394.467651,505.608032 402.773926,510.618469 
	C402.773926,473.360779 402.773926,436.715302 402.773926,400.069824 
	C402.486389,399.977509 402.198853,399.885193 401.911316,399.792877 
	C397.547211,410.268280 393.183075,420.743683 388.514984,431.922760 
M227.068344,492.544464 
	C228.242081,491.915741 229.410355,491.276520 230.590576,490.660217 
	C234.090927,488.832458 235.477493,487.024200 233.477982,482.496552 
	C221.473190,455.313080 209.933578,427.924164 198.208603,400.616791 
	C198.088318,400.336639 197.570618,400.227142 197.063385,399.938324 
	C197.063385,436.214478 197.061447,472.200378 197.086380,508.186249 
	C197.086685,508.614655 197.433167,509.042816 197.944000,510.226135 
	C207.584702,504.408386 217.038025,498.703705 227.068344,492.544464 
z"/>
<path fill="#FDFDFD" opacity="1.000000" stroke="none" 
	d="
M660.228394,208.999908 
	C660.228455,193.395523 660.228455,178.291138 660.228455,162.521805 
	C677.696228,163.129425 694.880859,160.639252 711.479919,166.414734 
	C727.612427,172.027908 735.999817,184.059143 736.088562,201.217224 
	C736.184021,219.676315 728.167603,232.109009 711.817810,237.815216 
	C706.222534,239.768005 700.244690,241.302658 694.365845,241.618866 
	C683.266052,242.215881 672.111328,241.791321 660.228394,241.791321 
	C660.228394,231.650314 660.228394,220.575119 660.228394,208.999908 
z"/>
<path fill="#FEFEFE" opacity="1.000000" stroke="none" 
	d="
M1131.373901,254.058197 
	C1131.799438,268.731293 1129.057007,282.046906 1119.961182,293.378052 
	C1100.950562,317.060516 1062.196045,313.396362 1048.090820,286.256195 
	C1038.660034,268.110260 1038.336426,249.032669 1046.655396,230.415573 
	C1054.509644,212.838791 1068.794678,204.352829 1088.067749,205.010742 
	C1106.780396,205.649506 1119.848389,215.140900 1126.722778,232.290756 
	C1129.385376,238.933105 1129.864380,246.450729 1131.373901,254.058197 
z"/>
<path fill="#FEFEFE" opacity="1.000000" stroke="none" 
	d="
M1428.031616,420.440430 
	C1439.906494,424.989838 1445.423584,437.670898 1442.176880,452.258911 
	C1438.529053,468.649200 1423.406738,475.731903 1408.378784,468.186249 
	C1405.863403,466.923157 1404.729736,465.414551 1404.780518,462.440948 
	C1404.965210,451.625671 1404.684814,440.800293 1405.002808,429.991211 
	C1405.062744,427.957062 1406.588257,425.354279 1408.254028,424.090088 
	C1413.988159,419.738251 1420.630981,418.733337 1428.031616,420.440430 
z"/>
<path fill="#FCFCFC" opacity="1.000000" stroke="none" 
	d="
M1234.045410,438.245911 
	C1231.404663,438.247711 1229.258301,438.247711 1227.126831,438.247711 
	C1226.931396,427.485779 1236.124512,418.780823 1247.092651,418.999695 
	C1256.991089,419.197235 1262.231323,425.755707 1261.754272,438.244080 
	C1252.719849,438.244080 1243.629639,438.244080 1234.045410,438.245911 
z"/>
<path fill="#FCFCFC" opacity="1.000000" stroke="none" 
	d="
M886.850769,436.969604 
	C881.385132,437.678741 875.985779,438.051788 870.580933,438.167236 
	C864.465454,438.297882 858.345032,438.197388 852.244507,438.197388 
	C851.639954,428.478455 860.197632,419.530212 870.341003,419.024567 
	C881.046997,418.490875 886.690735,424.448425 886.850769,436.969604 
z"/>
<path fill="#FCFCFC" opacity="1.000000" stroke="none" 
	d="
M620.371338,419.084229 
	C632.858215,418.953857 638.404785,424.977173 637.718872,437.858032 
	C626.220886,437.858032 614.692017,437.858032 603.156372,437.858032 
	C602.850891,428.917297 609.412781,421.562683 620.371338,419.084229 
z"/>
<path fill="#FDFDFD" opacity="1.000000" stroke="none" 
	d="
M671.024536,430.294678 
	C677.875916,420.187134 687.123718,416.740295 697.432312,420.155823 
	C707.152100,423.376251 713.487610,434.041229 712.714111,446.185333 
	C712.177307,454.612366 709.826660,462.287476 702.338135,467.288757 
	C689.904114,475.592957 673.282043,469.488586 669.110840,454.921875 
	C666.762390,446.720459 666.929810,438.491150 671.024536,430.294678 
z"/>
<path fill="#FDFDFD" opacity="1.000000" stroke="none" 
	d="
M1484.751953,421.501282 
	C1503.516968,414.064484 1519.302612,426.406586 1517.681152,446.784088 
	C1516.438843,462.397644 1506.862549,471.991730 1493.527588,470.854187 
	C1485.027344,470.129089 1478.872437,465.883057 1475.299927,458.082428 
	C1469.202026,444.767242 1473.217163,428.870239 1484.751953,421.501282 
z"/>
<path fill="#F9F9F9" opacity="1.000000" stroke="none" 
	d="
M1624.566162,449.365601 
	C1624.566162,451.981293 1624.242554,454.203156 1624.625610,456.295563 
	C1625.863892,463.058105 1621.854126,466.422974 1616.670532,468.990234 
	C1610.811279,471.892120 1604.759521,472.468536 1599.132690,468.649628 
	C1592.637451,464.241302 1593.205566,454.093384 1600.761108,450.591583 
	C1607.973999,447.248657 1615.999268,445.658386 1624.290405,443.105896 
	C1624.427856,446.001068 1624.497070,447.456787 1624.566162,449.365601 
z"/>
<path fill="#29A9E1" opacity="1.000000" stroke="none" 
	d="
M171.000000,186.974670 
	C143.686783,186.974655 116.873581,186.974655 89.054039,186.974655 
	C109.417313,152.260483 129.438034,118.130295 150.008835,83.062340 
	C170.538834,118.049774 190.520996,152.103577 210.982742,186.974701 
	C197.279846,186.974701 184.389923,186.974701 171.000000,186.974670 
z"/>
<path fill="#0171BD" opacity="1.000000" stroke="none" 
	d="
M152.412018,269.442200 
	C150.643799,272.702271 149.445572,272.131134 147.675751,269.665344 
	C133.807846,250.343811 119.818657,231.109360 105.869911,211.845840 
	C100.620758,204.596649 95.379692,197.341614 89.681816,189.462677 
	C130.039825,189.462677 169.700806,189.462677 210.406342,189.462677 
	C190.929031,216.319397 171.772308,242.734100 152.412018,269.442200 
z"/>
<path fill="#1C91C4" opacity="1.000000" stroke="none" 
	d="
M240.824249,91.019913 
	C244.715881,91.491058 248.150970,91.958244 252.421051,92.539001 
	C239.192337,123.365623 226.083023,153.913971 212.704544,185.089569 
	C192.628036,150.866013 172.973007,117.360924 152.641068,82.701935 
	C160.195068,83.256363 166.678223,83.613663 173.136444,84.231590 
	C185.499557,85.414505 197.847229,86.758118 210.203705,88.011292 
	C220.256546,89.030830 230.312912,90.015701 240.824249,91.019913 
z"/>
<path fill="#34C1F4" opacity="1.000000" stroke="none" 
	d="
M140.429214,94.453537 
	C122.774872,124.586838 105.317612,154.410965 87.342575,185.119675 
	C73.942940,153.941803 60.848099,123.473122 47.449013,92.296539 
	C80.892746,88.983559 113.574493,85.746063 147.503311,82.385033 
	C144.763672,87.069679 142.694977,90.607025 140.429214,94.453537 
z"/>
<path fill="#03BBD1" opacity="1.000000" stroke="none" 
	d="
M223.057129,73.944008 
	C231.138031,78.762909 238.893860,83.416763 246.649704,88.070625 
	C246.517105,88.460724 246.384521,88.850830 246.251938,89.240936 
	C214.782303,86.122047 183.312683,83.003166 151.438782,79.844215 
	C151.438782,63.856152 151.438782,47.963451 151.438782,31.195143 
	C175.329330,45.465080 199.030685,59.622017 223.057129,73.944008 
z"/>
<path fill="#01FDFF" opacity="1.000000" stroke="none" 
	d="
M54.765068,89.102478 
	C55.143635,88.060974 55.695076,86.649712 56.723656,86.028618 
	C69.665955,78.213463 82.685387,70.526207 95.668686,62.778744 
	C112.499168,52.735580 129.314026,42.666218 146.140167,32.615765 
	C146.826401,32.205868 147.559097,31.873775 148.676544,31.294920 
	C148.676544,47.557854 148.676544,63.408501 148.676544,79.858170 
	C117.557838,82.933472 86.358765,86.016708 54.765068,89.102478 
z"/>
<path fill="#0848A4" opacity="1.000000" stroke="none" 
	d="
M157.761017,267.716553 
	C161.459274,262.060852 164.954315,256.259186 168.892670,250.775909 
	C182.462692,231.882660 196.182877,213.097244 209.862442,194.282791 
	C210.920456,192.827637 212.107605,191.466370 213.479324,189.756607 
	C226.135849,197.452164 238.536560,204.992172 251.834488,213.077728 
	C242.863205,218.376373 234.759811,223.162598 226.656235,227.948532 
	C204.043228,241.303741 181.430145,254.658813 158.378662,267.973511 
	C157.940231,267.933105 157.761032,267.716553 157.761017,267.716553 
z"/>
<path fill="#0848A4" opacity="1.000000" stroke="none" 
	d="
M141.876587,268.151794 
	C130.233841,261.423431 118.551270,254.762817 106.957535,247.951035 
	C88.898071,237.340408 70.895386,226.633102 52.881802,215.944565 
	C51.618073,215.194717 50.462799,214.262100 48.506233,212.886612 
	C61.364426,205.071793 73.759132,197.538666 86.633499,189.714020 
	C90.412422,194.762894 94.136063,199.599686 97.713715,204.542145 
	C112.229736,224.595703 126.704765,244.678970 141.171295,264.768280 
	C141.640976,265.420532 141.854828,266.257050 142.124146,267.470398 
	C142.060349,267.933136 141.876587,268.151794 141.876587,268.151794 
z"/>
<path fill="#0170BD" opacity="1.000000" stroke="none" 
	d="
M49.687031,103.420212 
	C60.779770,129.271484 71.693901,154.791733 82.693153,180.275238 
	C85.831390,187.546066 85.904373,187.429779 79.282074,191.393188 
	C68.753883,197.694214 58.285667,204.095474 47.278461,210.765564 
	C47.278461,173.143570 47.278461,136.132797 47.278461,98.538879 
	C48.161530,100.309624 48.851135,101.692429 49.687031,103.420212 
z"/>
<path fill="#0170BD" opacity="1.000000" stroke="none" 
	d="
M234.564926,140.541199 
	C240.489929,126.683319 246.250443,113.169540 252.010956,99.655762 
	C252.265701,99.753464 252.520432,99.851166 252.775177,99.948875 
	C252.775177,136.469528 252.775177,172.990204 252.775177,210.152847 
	C251.014984,209.353485 249.649399,208.888351 248.442123,208.160645 
	C238.329224,202.065186 228.293030,195.840698 218.122025,189.844574 
	C215.292389,188.176422 214.595764,186.691925 216.025024,183.481232 
	C222.313309,169.355225 228.302719,155.096161 234.564926,140.541199 
z"/>
<path fill="#0848A4" opacity="1.000000" stroke="none" 
	d="
M158.030975,268.040436 
	C157.601303,268.258118 157.080902,268.368439 156.560501,268.478760 
	C156.802689,268.271698 157.044876,268.064606 157.524048,267.787048 
	C157.761032,267.716553 157.940231,267.933105 158.030975,268.040436 
z"/>
<path fill="#0848A4" opacity="1.000000" stroke="none" 
	d="
M142.151337,267.823059 
	C142.643753,267.967682 143.045181,268.222443 143.446625,268.477173 
	C143.028656,268.503387 142.610703,268.529602 142.034668,268.353821 
	C141.876587,268.151794 142.060349,267.933136 142.151337,267.823059 
z"/>
<path fill="#9159C8" opacity="1.000000" stroke="none" 
	d="
M428.000000,186.962631 
	C415.196899,186.962601 402.893829,186.962601 389.163177,186.962601 
	C409.584747,152.124756 429.501984,118.147339 449.991394,83.193748 
	C470.444244,118.011398 490.476044,152.112320 510.948090,186.962662 
	C482.921967,186.962662 455.710999,186.962662 428.000000,186.962631 
z"/>
<path fill="#5D2E8C" opacity="1.000000" stroke="none" 
	d="
M477.643036,234.623016 
	C468.491547,247.231842 459.535767,259.537872 449.972443,272.678772 
	C429.807556,244.798996 410.007416,217.423553 389.661316,189.293243 
	C430.235077,189.293243 469.612640,189.293243 510.145111,189.293243 
	C499.131714,204.643127 488.485229,219.481674 477.643036,234.623016 
z"/>
<path fill="#7B3DB8" opacity="1.000000" stroke="none" 
	d="
M517.663330,173.590088 
	C516.013733,177.207703 514.518921,180.477417 512.592346,184.691528 
	C492.486084,150.410751 472.900085,117.017090 452.652557,82.495483 
	C486.438660,85.836296 518.961121,89.052155 552.328674,92.351585 
	C540.687012,119.638908 529.252563,146.440552 517.663330,173.590088 
z"/>
<path fill="#A579D3" opacity="1.000000" stroke="none" 
	d="
M400.154297,87.015701 
	C415.793396,85.530739 430.973389,84.053070 447.468262,82.447411 
	C427.252106,116.915474 407.631409,150.368317 387.339905,184.964828 
	C373.852997,153.581345 360.808929,123.228424 347.557434,92.392746 
	C365.451172,90.549843 382.573181,88.786415 400.154297,87.015701 
z"/>
<path fill="#C8ABE4" opacity="1.000000" stroke="none" 
	d="
M379.651306,86.810913 
	C370.670197,87.626183 362.144501,88.399910 353.618805,89.173637 
	C353.491394,88.818962 353.363983,88.464279 353.236572,88.109604 
	C384.925995,69.196510 416.615417,50.283424 448.720215,31.122414 
	C448.720215,47.714596 448.720215,63.601856 448.720215,79.735718 
	C425.702637,82.095276 402.904663,84.432320 379.651306,86.810913 
z"/>
<path fill="#945FC9" opacity="1.000000" stroke="none" 
	d="
M492.168030,83.958145 
	C478.367706,82.505394 465.026062,81.062943 451.366699,79.586136 
	C451.366699,63.624207 451.366699,47.756100 451.366699,31.205048 
	C483.316071,50.269817 514.904907,69.119469 546.493774,87.969116 
	C546.388123,88.366478 546.282532,88.763840 546.176880,89.161201 
	C528.326843,87.430283 510.476776,85.699364 492.168030,83.958145 
z"/>
<path fill="#3F1F5E" opacity="1.000000" stroke="none" 
	d="
M511.637238,236.659424 
	C496.810089,245.501236 482.312927,254.180893 467.760773,262.767242 
	C464.918518,264.444275 461.862701,265.759277 458.905365,267.241241 
	C458.610718,266.845123 458.316071,266.449005 458.021423,266.052917 
	C476.364990,240.717896 494.708557,215.382889 513.219849,189.816193 
	C526.024536,197.520645 538.386108,204.958481 551.890442,213.083893 
	C538.078064,221.169113 525.013062,228.816879 511.637238,236.659424 
z"/>
<path fill="#3F1F5E" opacity="1.000000" stroke="none" 
	d="
M415.678314,229.399353 
	C420.701477,236.416443 425.558411,243.107666 430.356079,249.841125 
	C434.219360,255.263199 438.010986,260.736328 441.834412,266.186829 
	C441.452087,266.704590 441.069763,267.222351 440.687408,267.740112 
	C410.231750,249.705566 379.776093,231.671005 348.427734,213.107864 
	C355.769592,208.631973 362.467133,204.557877 369.155212,200.468338 
	C373.540100,197.787155 377.929230,195.112152 382.282715,192.380661 
	C385.533173,190.341248 387.799652,190.738327 390.179474,194.128906 
	C398.443848,205.903427 407.025513,217.455215 415.678314,229.399353 
z"/>
<path fill="#5D2E8C" opacity="1.000000" stroke="none" 
	d="
M536.664062,135.712860 
	C541.901428,123.539009 546.966125,111.707123 552.030823,99.875237 
	C552.236389,99.939346 552.441895,100.003464 552.647461,100.067574 
	C552.647461,136.517914 552.647461,172.968262 552.647461,210.325394 
	C545.921692,206.362946 539.817017,202.820129 533.767212,199.186020 
	C528.501465,196.022903 523.396057,192.579041 518.026550,189.608490 
	C515.205566,188.047882 514.785339,186.604446 516.069336,183.670181 
	C522.992554,167.849075 529.705750,151.936096 536.664062,135.712860 
z"/>
<path fill="#5D2E8C" opacity="1.000000" stroke="none" 
	d="
M379.334534,172.720444 
	C381.093445,176.898026 382.860840,180.674622 384.155945,184.606796 
	C384.545990,185.790985 384.097473,188.172760 383.230133,188.710281 
	C371.823578,195.779327 360.274628,202.618683 348.748260,209.493698 
	C348.513794,209.633545 348.122986,209.511246 347.404724,209.511246 
	C347.404724,173.005280 347.404724,136.538116 347.404724,98.971085 
	C358.259216,124.061668 368.710571,148.220398 379.334534,172.720444 
z"/>
<path fill="#C75958" opacity="1.000000" stroke="none" 
	d="
M240.974274,486.764832 
	C243.310211,481.252106 245.754929,475.714752 248.786270,470.519684 
	C265.285675,442.243256 281.928741,414.050690 298.530151,385.833832 
	C298.853851,385.283691 299.272614,384.789490 300.164307,383.550415 
	C320.443054,418.097260 340.467010,452.209991 360.828705,486.898163 
	C320.499481,486.898163 280.926636,486.898163 240.974274,486.764832 
z"/>
<path fill="#8A2F2E" opacity="1.000000" stroke="none" 
	d="
M252.228821,506.776489 
	C248.109253,501.000122 244.213959,495.504883 239.839386,489.333496 
	C280.314606,489.333496 319.797577,489.333496 360.240082,489.333496 
	C340.074493,517.245789 320.304413,544.610657 300.036072,572.665222 
	C283.868683,550.373535 268.160889,528.715576 252.228821,506.776489 
z"/>
<path fill="#B83E3D" opacity="1.000000" stroke="none" 
	d="
M370.329163,467.283569 
	C367.719055,473.203491 365.287262,478.784821 362.631042,484.881256 
	C342.668671,450.840515 323.045197,417.377747 302.593079,382.501831 
	C336.416168,385.824677 368.963409,389.022186 402.397644,392.306854 
	C391.585999,417.611176 381.046753,442.278046 370.329163,467.283569 
z"/>
<path fill="#D27978" opacity="1.000000" stroke="none" 
	d="
M215.960876,435.049316 
	C209.806290,420.728394 203.783600,406.765625 197.560135,392.337402 
	C230.975021,389.024292 263.561401,385.793365 297.451660,382.433136 
	C277.234131,416.900757 257.632385,450.318542 237.349701,484.897278 
	C229.977493,467.733490 223.035126,451.570496 215.960876,435.049316 
z"/>
<path fill="#CA5F5F" opacity="1.000000" stroke="none" 
	d="
M355.077545,385.031555 
	C336.996429,383.219757 319.374939,381.417725 301.398682,379.579407 
	C301.398682,363.676331 301.398682,347.808289 301.398682,331.319550 
	C333.207794,350.302521 364.781342,369.144928 396.354889,387.987335 
	C396.258820,388.340179 396.162750,388.692993 396.066681,389.045837 
	C382.556824,387.710999 369.046997,386.376160 355.077545,385.031555 
z"/>
<path fill="#E2ABAB" opacity="1.000000" stroke="none" 
	d="
M218.242584,379.198181 
	C245.087234,363.178070 271.616455,347.342865 298.624146,331.222076 
	C298.624146,347.573761 298.624146,363.419159 298.624146,379.737274 
	C267.023926,382.886261 235.333908,386.044220 203.643890,389.202179 
	C203.507172,388.878510 203.370453,388.554840 203.233734,388.231140 
	C208.131546,385.281799 213.029343,382.332489 218.242584,379.198181 
z"/>
<path fill="#5D201F" opacity="1.000000" stroke="none" 
	d="
M352.348053,542.333984 
	C337.301392,551.285522 322.579346,560.064941 307.857300,568.844360 
	C307.458099,568.477905 307.058899,568.111389 306.659698,567.744873 
	C325.471497,541.772095 344.283264,515.799255 363.220917,489.652710 
	C376.170258,497.479645 388.459229,504.907410 401.868622,513.012451 
	C384.988831,523.013977 368.830750,532.587891 352.348053,542.333984 
z"/>
<path fill="#5D201F" opacity="1.000000" stroke="none" 
	d="
M270.657837,536.361206 
	C278.035492,546.668701 285.220001,556.671265 292.404510,566.673767 
	C291.990173,567.149597 291.575867,567.625427 291.161560,568.101257 
	C260.530853,549.981262 229.900131,531.861267 198.126038,513.064941 
	C211.489258,504.998596 223.990204,497.452759 236.834061,489.699921 
	C248.143600,505.288910 259.304138,520.672546 270.657837,536.361206 
z"/>
<path fill="#8A2F2E" opacity="1.000000" stroke="none" 
	d="
M388.666992,431.570923 
	C393.183075,420.743683 397.547211,410.268280 401.911316,399.792877 
	C402.198853,399.885193 402.486389,399.977509 402.773926,400.069824 
	C402.773926,436.715302 402.773926,473.360779 402.773926,510.618469 
	C394.467651,505.608032 386.434967,500.773163 378.413696,495.919434 
	C374.726807,493.688477 370.905273,491.628967 367.478638,489.048431 
	C366.380341,488.221375 365.474335,485.603882 365.967133,484.429352 
	C373.336487,466.865631 380.955109,449.406525 388.666992,431.570923 
z"/>
<path fill="#8A2F2E" opacity="1.000000" stroke="none" 
	d="
M226.779846,492.771729 
	C217.038025,498.703705 207.584702,504.408386 197.944000,510.226135 
	C197.433167,509.042816 197.086685,508.614655 197.086380,508.186249 
	C197.061447,472.200378 197.063385,436.214478 197.063385,399.938324 
	C197.570618,400.227142 198.088318,400.336639 198.208603,400.616791 
	C209.933578,427.924164 221.473190,455.313080 233.477982,482.496552 
	C235.477493,487.024200 234.090927,488.832458 230.590576,490.660217 
	C229.410355,491.276520 228.242081,491.915741 226.779846,492.771729 
z"/>
</svg>