<svg version="1.1" id="Layer_1" xmlns="http://www.w3.org/2000/svg" xmlns:xlink="http://www.w3.org/1999/xlink" x="0px" y="0px"
	 width="100%" viewBox="0 0 191 82" enable-background="new 0 0 191 82" xml:space="preserve">
<path fill="none" opacity="1.000000" stroke="#000000" stroke-linecap="round" stroke-linejoin="round" stroke-width="5.000000"
	d="
M44.000000,35.500000 
	C42.717518,31.014116 38.947727,32.995216 36.517868,33.205997 
	C33.677753,33.452366 30.523746,34.787018 30.018044,38.502457 
	C29.584021,41.691265 31.477758,43.603317 34.009308,44.982918 
	C36.298561,46.230473 38.851784,47.070835 40.959610,48.557274 
	C44.780743,51.251938 44.434513,56.523224 40.500004,59.000008 
	C36.894665,61.269585 29.708708,59.832382 28.000000,56.500000 
"/>
<path fill="none" opacity="1.000000" stroke="#000000" stroke-linecap="round" stroke-linejoin="round" stroke-width="6.000000"
	d="
M60.500000,34.500000 
	C60.500000,42.833332 60.500000,51.166668 60.500000,59.500000 
"/>
<path fill="none" opacity="1.000000" stroke="#000000" stroke-linecap="round" stroke-linejoin="round" stroke-width="6.000000"
	d="
M147.000000,33.000000 
	C143.250519,33.178192 139.464081,32.524998 135.750000,33.588535 
	C135.750000,42.000000 135.750000,50.500000 135.750000,59.157028 
	C139.716980,60.758614 143.914551,59.692612 148.000000,60.000000 
"/>
<path fill="none" opacity="1.000000" stroke="#000000" stroke-linecap="round" stroke-linejoin="round" stroke-width="5.000000"
	d="
M127.500000,31.500000 
	C120.941010,34.571095 118.071335,40.839600 114.500000,46.500000 
"/>
<path fill="none" opacity="1.000000" stroke="#000000" stroke-linecap="round" stroke-linejoin="round" stroke-width="5.000000"
	d="
M110.500000,46.500000 
	C113.543861,46.037586 115.187668,47.582340 117.127838,49.892643 
	C120.594154,54.020245 122.360634,59.972698 128.500000,61.500000 
"/>
<path fill="none" opacity="1.000000" stroke="#000000" stroke-linecap="round" stroke-linejoin="round" stroke-width="6.000000"
	d="
M109.500000,33.500000 
	C109.500000,42.166668 109.500000,50.833332 109.500000,59.500000 
"/>
<path fill="none" opacity="1.000000" stroke="#000000" stroke-linecap="round" stroke-linejoin="round" stroke-width="5.000000"
	d="
M69.000000,33.000000 
	C63.000000,33.000000 57.000000,33.000000 51.000000,33.000000 
"/>
<path fill="none" opacity="1.000000" stroke="#000000" stroke-linecap="round" stroke-linejoin="round" stroke-width="5.000000"
	d="
M146.000000,46.000000 
	C142.833328,46.000000 139.666672,46.000000 136.500000,46.000000 
"/>
<path fill="none" opacity="1.000000" stroke="#000000" stroke-linecap="round" stroke-linejoin="round" stroke-width="5.000000"
	d="
M84.500000,33.000000 
	C74.360710,36.564350 72.326866,47.908417 77.469627,55.021957 
	C80.126541,58.697033 83.651070,60.685184 87.978836,59.885479 
	C92.367195,59.074577 96.005547,57.137943 97.621925,52.038647 
	C100.536835,42.842796 96.854149,32.561886 85.000000,33.000000 
"/>
</svg>