<svg version="1.1" id="Layer_1" xmlns="http://www.w3.org/2000/svg" xmlns:xlink="http://www.w3.org/1999/xlink" x="0px" y="0px"
	 width="100%" viewBox="0 0 353 105" enable-background="new 0 0 353 105" xml:space="preserve">
<path fill="#FEFEFE" opacity="1.000000" stroke="none" 
	d="
M231.000000,106.000000 
	C154.000015,106.000000 77.500038,106.000000 1.000041,106.000000 
	C1.000027,71.000023 1.000027,36.000053 1.000014,1.000060 
	C118.666618,1.000040 236.333237,1.000040 353.999878,1.000020 
	C353.999939,35.999935 353.999939,70.999870 353.999969,105.999908 
	C313.166656,106.000000 272.333344,106.000000 231.000000,106.000000 
M207.161499,33.008678 
	C206.330795,33.856720 204.802353,34.686203 204.779221,35.555737 
	C204.585739,42.827610 204.736588,50.107800 204.634354,57.383381 
	C204.595367,60.158386 205.925323,60.386875 208.671219,59.235397 
	C208.708755,56.238380 208.294113,53.138550 208.943893,50.280735 
	C209.372299,48.396496 211.332382,46.860508 212.606628,45.168579 
	C213.819290,46.813187 215.580063,48.302410 216.101807,50.142879 
	C216.713989,52.302418 216.349945,54.772568 216.227737,57.098465 
	C216.045395,60.568825 217.864960,60.365070 220.442749,59.595409 
	C220.442749,56.269344 220.455093,53.115108 220.434387,49.961086 
	C220.428940,49.131107 220.373291,48.294109 220.251968,47.473450 
	C219.571625,42.872387 216.327240,40.904732 212.001190,42.482536 
	C211.026321,42.838097 210.102249,43.333004 209.182785,43.751038 
	C208.781754,40.037785 208.416656,36.657196 207.161499,33.008678 
M303.620728,59.350132 
	C303.654449,55.589939 303.688171,51.829746 304.118774,47.448425 
	C305.815552,46.768753 307.977264,45.124229 309.088470,45.659725 
	C310.403412,46.293392 311.195068,48.739101 311.516724,50.524883 
	C311.922852,52.779640 311.377014,55.200676 311.738617,57.470867 
	C311.913727,58.570232 313.221924,59.489128 314.017090,60.489735 
	C314.438843,60.208317 314.860565,59.926903 315.282318,59.645489 
	C315.282318,55.682026 315.364960,51.716305 315.256592,47.755806 
	C315.167389,44.495853 313.390228,42.208927 310.139099,42.092995 
	C306.762451,41.972591 303.358490,42.620079 299.630524,42.962627 
	C299.630524,47.393238 299.740417,52.370255 299.587036,57.339142 
	C299.502350,60.082409 300.702515,60.464024 303.620728,59.350132 
M108.998184,61.498871 
	C108.998184,52.333019 108.877525,43.164680 109.066170,34.002712 
	C109.128899,30.956367 108.172897,29.325863 105.376640,27.966478 
	C90.751579,20.856590 76.263962,13.464013 61.639992,6.351811 
	C60.212372,5.657503 57.880005,5.588811 56.475147,6.272558 
	C41.709644,13.458938 27.070780,20.905020 12.334797,28.153027 
	C9.775988,29.411598 8.891304,30.976336 8.926368,33.861340 
	C9.094454,47.691547 9.161793,61.527950 8.900014,75.355240 
	C8.825774,79.276619 10.283299,81.379547 13.585320,82.989006 
	C27.327868,89.687393 41.078896,96.375343 54.672222,103.367653 
	C57.796432,104.974731 60.101971,105.039726 63.214218,103.443146 
	C76.817162,96.464836 90.530960,89.698753 104.285278,83.022026 
	C107.832878,81.299934 109.466156,79.080292 109.083328,74.988960 
	C108.696869,70.858772 108.998184,66.664246 108.998184,61.498871 
M166.616196,58.289742 
	C170.436386,54.301914 171.247025,49.056747 168.616959,45.343822 
	C166.347107,42.139420 161.636932,41.087963 157.388931,42.765213 
	C152.739288,44.601048 151.469772,48.289234 152.034500,52.794567 
	C152.799393,58.896984 158.725861,61.373962 166.616196,58.289742 
M284.792480,59.997292 
	C289.359985,60.219948 293.601135,58.800636 294.440887,54.140526 
	C295.006989,50.999149 294.129150,46.735600 292.235962,44.228600 
	C289.803986,41.008167 285.449310,41.258953 281.704559,43.021156 
	C278.143677,44.696838 276.817810,47.737316 276.917816,51.542606 
	C277.040955,56.229519 279.704681,58.743797 284.792480,59.997292 
M223.826385,43.971813 
	C225.482513,48.486355 227.023560,53.049049 228.877701,57.480743 
	C229.327347,58.555481 230.805664,59.852726 231.817200,59.858025 
	C232.853180,59.863453 234.397934,58.622608 234.851456,57.557453 
	C236.966568,52.589863 238.781204,47.494331 241.016022,41.622894 
	C232.714981,42.909920 236.119354,51.546051 231.503342,54.726360 
	C230.326874,51.091042 229.303604,47.626163 228.077835,44.234482 
	C227.042145,41.368717 226.558838,41.324337 223.826385,43.971813 
M141.033371,41.395645 
	C137.771042,42.965389 137.851822,42.887165 140.110260,45.219200 
	C140.768631,45.899014 141.037445,47.148590 141.111588,48.164257 
	C141.304611,50.808170 140.759491,53.639790 141.545807,56.059563 
	C142.070648,57.674633 144.201035,59.141678 145.947037,59.842583 
	C146.954590,60.247044 148.626404,58.996777 149.999237,58.491283 
	C144.638947,55.934757 144.376801,55.141575 145.606750,45.845039 
	C147.188675,45.016899 148.598892,44.278648 150.009109,43.540401 
	C149.869736,43.162010 149.730347,42.783623 149.590973,42.405235 
	C148.209854,42.140572 146.828735,41.875904 145.519653,41.625046 
	C145.242004,40.032635 144.998672,38.637096 144.461273,35.554905 
	C142.809875,38.062275 141.973831,39.331657 141.033371,41.395645 
M254.096466,43.428905 
	C250.807632,47.647564 251.399857,49.643028 256.263824,52.049156 
	C257.832947,52.825378 259.045868,54.321636 260.421753,55.488510 
	C258.469757,55.888767 256.530365,56.395142 254.558624,56.629620 
	C253.901001,56.707821 253.160599,56.090042 252.334656,55.737804 
	C252.463287,59.889244 256.798676,61.475616 261.297363,59.011246 
	C262.699158,58.243347 264.294006,56.469582 264.389221,55.060917 
	C264.482483,53.680706 263.021729,51.915546 261.805176,50.794472 
	C260.116638,49.238426 258.019409,48.125851 256.097137,46.823425 
	C258.514923,46.006748 260.932739,45.190071 263.889008,44.191505 
	C261.401276,40.576077 258.064423,41.973938 254.096466,43.428905 
M193.924698,59.971035 
	C196.673141,59.941566 199.763245,60.430283 200.207352,57.458786 
	C196.751190,56.410439 193.635651,56.220791 191.723267,54.606125 
	C190.548874,53.614563 190.249268,49.393326 191.255707,48.465866 
	C193.397598,46.492088 196.647598,45.720798 200.283813,44.076691 
	C199.116714,43.489048 197.653091,42.190052 196.101364,42.074551 
	C191.139664,41.705254 187.475266,44.816128 186.560104,49.665817 
	C185.652328,54.476383 187.578156,57.459927 193.924698,59.971035 
M272.776520,48.601974 
	C272.773468,42.131142 272.773468,42.131142 268.924744,42.535938 
	C268.924744,48.266056 268.924744,53.996792 268.924744,59.727528 
	C269.372314,59.990108 269.819885,60.252686 270.267456,60.515266 
	C271.103333,59.358944 272.464691,58.285549 272.663086,57.028614 
	C273.047058,54.595692 272.776031,52.059395 272.776520,48.601974 
M247.864212,43.876637 
	C246.757935,43.130554 245.651657,42.384472 243.984009,41.259789 
	C243.984009,48.329834 243.984009,53.943977 243.984009,59.543976 
	C247.730133,59.742195 247.802551,59.743488 247.855484,56.783417 
	C247.926849,52.793217 247.873016,48.800774 247.864212,43.876637 
M178.728439,58.130882 
	C179.077957,54.565948 179.826111,50.977173 179.614899,47.445770 
	C179.503235,45.578732 177.721451,43.811584 176.693665,41.999348 
	C176.015472,43.494102 174.844711,44.959160 174.752487,46.489239 
	C174.487595,50.883560 174.659103,55.304188 174.659103,60.507317 
	C176.472000,59.842400 177.560532,59.443157 178.728439,58.130882 
z"/>
<path fill="#000000" opacity="1.000000" stroke="none" 
	d="
M108.998184,61.998390 
	C108.998184,66.664246 108.696869,70.858772 109.083328,74.988960 
	C109.466156,79.080292 107.832878,81.299934 104.285278,83.022026 
	C90.530960,89.698753 76.817162,96.464836 63.214218,103.443146 
	C60.101971,105.039726 57.796432,104.974731 54.672222,103.367653 
	C41.078896,96.375343 27.327868,89.687393 13.585320,82.989006 
	C10.283299,81.379547 8.825774,79.276619 8.900014,75.355240 
	C9.161793,61.527950 9.094454,47.691547 8.926368,33.861340 
	C8.891304,30.976336 9.775988,29.411598 12.334797,28.153027 
	C27.070780,20.905020 41.709644,13.458938 56.475147,6.272558 
	C57.880005,5.588811 60.212372,5.657503 61.639992,6.351811 
	C76.263962,13.464013 90.751579,20.856590 105.376640,27.966478 
	C108.172897,29.325863 109.128899,30.956367 109.066170,34.002712 
	C108.877525,43.164680 108.998184,52.333019 108.998184,61.998390 
M29.000385,25.494802 
	C24.803410,27.616457 20.527830,29.601807 16.460102,31.947586 
	C15.324205,32.602631 14.117624,34.313671 14.102955,35.554005 
	C13.937514,49.542953 13.998192,63.534573 13.998192,77.483566 
	C27.496923,84.250511 40.822048,90.929893 54.146145,97.611328 
	C54.871445,97.975029 55.563019,98.602791 56.313873,98.679169 
	C58.061943,98.856972 60.135811,99.388626 61.553978,98.699379 
	C74.824173,92.249817 87.946938,85.497116 101.210213,79.032898 
	C103.545479,77.894745 104.076691,76.546494 104.055191,74.159355 
	C103.942665,61.662090 103.856689,49.160362 104.105812,36.667053 
	C104.167633,33.566708 102.829941,32.221016 100.471596,31.052759 
	C87.835480,24.793198 75.274460,18.376068 62.525269,12.356998 
	C60.548653,11.423809 57.388599,11.500852 55.367870,12.416834 
	C46.665970,16.361355 38.184757,20.792734 29.000385,25.494802 
z"/>
<path fill="#2C3037" opacity="1.000000" stroke="none" 
	d="
M302.910339,59.752163 
	C300.702515,60.464024 299.502350,60.082409 299.587036,57.339142 
	C299.740417,52.370255 299.630524,47.393238 299.630524,42.962627 
	C303.358490,42.620079 306.762451,41.972591 310.139099,42.092995 
	C313.390228,42.208927 315.167389,44.495853 315.256592,47.755806 
	C315.364960,51.716305 315.282318,55.682026 315.282318,59.645489 
	C314.860565,59.926903 314.438843,60.208317 314.017090,60.489735 
	C313.221924,59.489128 311.913727,58.570232 311.738617,57.470867 
	C311.377014,55.200676 311.922852,52.779640 311.516724,50.524883 
	C311.195068,48.739101 310.403412,46.293392 309.088470,45.659725 
	C307.977264,45.124229 305.815552,46.768753 303.666931,48.066654 
	C303.113525,52.373978 303.011932,56.063068 302.910339,59.752163 
z"/>
<path fill="#36313B" opacity="1.000000" stroke="none" 
	d="
M166.302109,58.528122 
	C158.725861,61.373962 152.799393,58.896984 152.034500,52.794567 
	C151.469772,48.289234 152.739288,44.601048 157.388931,42.765213 
	C161.636932,41.087963 166.347107,42.139420 168.616959,45.343822 
	C171.247025,49.056747 170.436386,54.301914 166.302109,58.528122 
M158.448380,45.917374 
	C157.598083,47.439140 156.221008,48.889713 156.003769,50.497047 
	C155.503983,54.195026 157.289337,56.828953 161.211395,56.834343 
	C165.006073,56.839558 166.247528,54.106991 166.159744,50.693272 
	C166.051987,46.504459 164.038162,45.057365 158.448380,45.917374 
z"/>
<path fill="#36313B" opacity="1.000000" stroke="none" 
	d="
M284.387970,59.951996 
	C279.704681,58.743797 277.040955,56.229519 276.917816,51.542606 
	C276.817810,47.737316 278.143677,44.696838 281.704559,43.021156 
	C285.449310,41.258953 289.803986,41.008167 292.235962,44.228600 
	C294.129150,46.735600 295.006989,50.999149 294.440887,54.140526 
	C293.601135,58.800636 289.359985,60.219948 284.387970,59.951996 
M280.873901,51.416672 
	C281.108276,55.018314 283.193481,57.478107 286.576172,56.641998 
	C288.437042,56.182041 290.437500,53.344254 290.984711,51.220329 
	C291.754700,48.231892 290.137390,45.465675 286.647430,45.195797 
	C283.067719,44.918976 281.130096,47.010483 280.873901,51.416672 
z"/>
<path fill="#37333D" opacity="1.000000" stroke="none" 
	d="
M223.697266,43.608456 
	C226.558838,41.324337 227.042145,41.368717 228.077835,44.234482 
	C229.303604,47.626163 230.326874,51.091042 231.503342,54.726360 
	C236.119354,51.546051 232.714981,42.909920 241.016022,41.622894 
	C238.781204,47.494331 236.966568,52.589863 234.851456,57.557453 
	C234.397934,58.622608 232.853180,59.863453 231.817200,59.858025 
	C230.805664,59.852726 229.327347,58.555481 228.877701,57.480743 
	C227.023560,53.049049 225.482513,48.486355 223.697266,43.608456 
z"/>
<path fill="#3A3431" opacity="1.000000" stroke="none" 
	d="
M141.085571,40.998344 
	C141.973831,39.331657 142.809875,38.062275 144.461273,35.554905 
	C144.998672,38.637096 145.242004,40.032635 145.519653,41.625046 
	C146.828735,41.875904 148.209854,42.140572 149.590973,42.405235 
	C149.730347,42.783623 149.869736,43.162010 150.009109,43.540401 
	C148.598892,44.278648 147.188675,45.016899 145.606750,45.845039 
	C144.376801,55.141575 144.638947,55.934757 149.999237,58.491283 
	C148.626404,58.996777 146.954590,60.247044 145.947037,59.842583 
	C144.201035,59.141678 142.070648,57.674633 141.545807,56.059563 
	C140.759491,53.639790 141.304611,50.808170 141.111588,48.164257 
	C141.037445,47.148590 140.768631,45.899014 140.110260,45.219200 
	C137.851822,42.887165 137.771042,42.965389 141.085571,40.998344 
z"/>
<path fill="#30303A" opacity="1.000000" stroke="none" 
	d="
M254.446930,43.235207 
	C258.064423,41.973938 261.401276,40.576077 263.889008,44.191505 
	C260.932739,45.190071 258.514923,46.006748 256.097137,46.823425 
	C258.019409,48.125851 260.116638,49.238426 261.805176,50.794472 
	C263.021729,51.915546 264.482483,53.680706 264.389221,55.060917 
	C264.294006,56.469582 262.699158,58.243347 261.297363,59.011246 
	C256.798676,61.475616 252.463287,59.889244 252.334656,55.737804 
	C253.160599,56.090042 253.901001,56.707821 254.558624,56.629620 
	C256.530365,56.395142 258.469757,55.888767 260.421753,55.488510 
	C259.045868,54.321636 257.832947,52.825378 256.263824,52.049156 
	C251.399857,49.643028 250.807632,47.647564 254.446930,43.235207 
z"/>
<path fill="#3C4143" opacity="1.000000" stroke="none" 
	d="
M208.051559,33.276604 
	C208.416656,36.657196 208.781754,40.037785 209.182785,43.751038 
	C210.102249,43.333004 211.026321,42.838097 212.001190,42.482536 
	C216.327240,40.904732 219.571625,42.872387 220.251968,47.473450 
	C220.373291,48.294109 220.428940,49.131107 220.434387,49.961086 
	C220.455093,53.115108 220.442749,56.269344 220.442749,59.595409 
	C217.864960,60.365070 216.045395,60.568825 216.227737,57.098465 
	C216.349945,54.772568 216.713989,52.302418 216.101807,50.142879 
	C215.580063,48.302410 213.819290,46.813187 212.606628,45.168583 
	C211.332382,46.860508 209.372299,48.396496 208.943893,50.280735 
	C208.294113,53.138550 208.708755,56.238380 208.331970,59.036049 
	C208.012344,50.316669 208.031952,41.796638 208.051559,33.276604 
z"/>
<path fill="#342F31" opacity="1.000000" stroke="none" 
	d="
M193.523529,59.901642 
	C187.578156,57.459927 185.652328,54.476383 186.560104,49.665817 
	C187.475266,44.816128 191.139664,41.705254 196.101364,42.074551 
	C197.653091,42.190052 199.116714,43.489048 200.283813,44.076691 
	C196.647598,45.720798 193.397598,46.492088 191.255707,48.465866 
	C190.249268,49.393326 190.548874,53.614563 191.723267,54.606125 
	C193.635651,56.220791 196.751190,56.410439 200.207352,57.458786 
	C199.763245,60.430283 196.673141,59.941566 193.523529,59.901642 
z"/>
<path fill="#1F2F3D" opacity="1.000000" stroke="none" 
	d="
M207.606537,33.142639 
	C208.031952,41.796638 208.012344,50.316669 208.021912,59.280144 
	C205.925323,60.386875 204.595367,60.158386 204.634354,57.383381 
	C204.736588,50.107800 204.585739,42.827610 204.779221,35.555737 
	C204.802353,34.686203 206.330795,33.856720 207.606537,33.142639 
z"/>
<path fill="#1F3C52" opacity="1.000000" stroke="none" 
	d="
M272.776489,49.083961 
	C272.776031,52.059395 273.047058,54.595692 272.663086,57.028614 
	C272.464691,58.285549 271.103333,59.358944 270.267456,60.515266 
	C269.819885,60.252686 269.372314,59.990108 268.924744,59.727528 
	C268.924744,53.996792 268.924744,48.266056 268.924744,42.535938 
	C272.773468,42.131142 272.773468,42.131142 272.776489,49.083961 
z"/>
<path fill="#1F3349" opacity="1.000000" stroke="none" 
	d="
M247.868561,44.342964 
	C247.873016,48.800774 247.926849,52.793217 247.855484,56.783417 
	C247.802551,59.743488 247.730133,59.742195 243.984009,59.543976 
	C243.984009,53.943977 243.984009,48.329834 243.984009,41.259789 
	C245.651657,42.384472 246.757935,43.130554 247.868561,44.342964 
z"/>
<path fill="#1F3344" opacity="1.000000" stroke="none" 
	d="
M178.688751,58.587395 
	C177.560532,59.443157 176.472000,59.842400 174.659103,60.507317 
	C174.659103,55.304188 174.487595,50.883560 174.752487,46.489239 
	C174.844711,44.959160 176.015472,43.494102 176.693665,41.999344 
	C177.721451,43.811584 179.503235,45.578732 179.614899,47.445770 
	C179.826111,50.977173 179.077957,54.565948 178.688751,58.587395 
z"/>
<path fill="#1F3446" opacity="1.000000" stroke="none" 
	d="
M303.265533,59.551147 
	C303.011932,56.063068 303.113525,52.373978 303.468506,48.377220 
	C303.688171,51.829746 303.654449,55.589939 303.265533,59.551147 
z"/>
<path fill="#FEF100" opacity="1.000000" stroke="none" 
	d="
M29.311783,25.270815 
	C38.184757,20.792734 46.665970,16.361355 55.367870,12.416834 
	C57.388599,11.500852 60.548653,11.423809 62.525269,12.356998 
	C75.274460,18.376068 87.835480,24.793198 100.471596,31.052759 
	C102.829941,32.221016 104.167633,33.566708 104.105812,36.667053 
	C103.856689,49.160362 103.942665,61.662090 104.055191,74.159355 
	C104.076691,76.546494 103.545479,77.894745 101.210213,79.032898 
	C87.946938,85.497116 74.824173,92.249817 61.553978,98.699379 
	C60.135811,99.388626 58.061943,98.856972 56.313873,98.679169 
	C55.563019,98.602791 54.871445,97.975029 54.146145,97.611328 
	C40.822048,90.929893 27.496923,84.250511 13.998192,77.483566 
	C13.998192,63.534573 13.937514,49.542953 14.102955,35.554005 
	C14.117624,34.313671 15.324205,32.602631 16.460102,31.947586 
	C20.527830,29.601807 24.803410,27.616457 29.311783,25.270815 
M52.618401,60.597546 
	C56.489807,60.995167 59.635502,59.939648 60.383858,55.708065 
	C60.864269,52.991554 60.107506,50.517746 56.715973,49.958294 
	C55.762722,53.318611 60.260895,58.567307 52.892910,58.810551 
	C52.384617,58.762157 51.876324,58.713768 51.368031,58.665375 
	C51.637180,59.132668 51.906330,59.599964 52.618401,60.597546 
M68.039970,56.811672 
	C70.571968,63.950470 76.628235,60.105785 81.149399,60.842449 
	C82.182053,61.010704 83.492241,59.475716 84.848839,58.614025 
	C82.385521,58.614025 80.796143,58.614025 79.206757,58.614021 
	C79.813591,57.855030 80.663269,57.179161 80.959450,56.313839 
	C81.259865,55.436165 81.420601,53.872669 80.935059,53.476414 
	C79.016510,51.910667 76.820244,50.685219 74.563629,49.228085 
	C74.563629,52.587399 74.563629,55.764477 74.563629,59.610455 
	C72.308334,58.142139 70.660828,57.069523 69.232483,55.318623 
	C70.026970,53.864029 70.821457,52.409431 71.615936,50.954834 
	C68.710045,50.068569 65.804161,49.182301 62.367622,48.134190 
	C62.367622,53.132771 62.367622,56.859020 62.367622,60.739902 
	C63.826408,60.739902 65.125404,60.739902 65.526703,60.739902 
	C66.459244,58.881447 67.165840,57.473278 68.039970,56.811672 
M47.216137,55.460995 
	C48.270317,56.074734 49.277782,56.948669 50.405796,57.151207 
	C50.766556,57.215984 51.669579,55.561340 51.925751,54.588409 
	C52.268566,53.286404 52.223331,51.882221 52.349831,50.464767 
	C51.152897,50.331196 49.041759,50.095604 45.776844,49.731255 
	C46.206974,51.630230 46.570045,53.233166 47.216137,55.460995 
M38.188442,50.366425 
	C34.710705,54.743385 34.767124,56.205128 38.886940,59.076519 
	C38.886940,55.908951 38.886940,53.000885 38.188442,50.366425 
z"/>
<path fill="#F4F7F5" opacity="1.000000" stroke="none" 
	d="
M158.797852,45.730759 
	C164.038162,45.057365 166.051987,46.504459 166.159744,50.693272 
	C166.247528,54.106991 165.006073,56.839558 161.211395,56.834343 
	C157.289337,56.828953 155.503983,54.195026 156.003769,50.497047 
	C156.221008,48.889713 157.598083,47.439140 158.797852,45.730759 
z"/>
<path fill="#F4F7F5" opacity="1.000000" stroke="none" 
	d="
M280.880188,51.010128 
	C281.130096,47.010483 283.067719,44.918976 286.647430,45.195797 
	C290.137390,45.465675 291.754700,48.231892 290.984711,51.220329 
	C290.437500,53.344254 288.437042,56.182041 286.576172,56.641998 
	C283.193481,57.478107 281.108276,55.018314 280.880188,51.010128 
z"/>
<path fill="#656000" opacity="1.000000" stroke="none" 
	d="
M67.872437,56.065109 
	C67.165840,57.473278 66.459244,58.881447 65.526703,60.739902 
	C65.125404,60.739902 63.826408,60.739902 62.367622,60.739902 
	C62.367622,56.859020 62.367622,53.132771 62.367622,48.134190 
	C65.804161,49.182301 68.710045,50.068569 71.615936,50.954834 
	C70.821457,52.409431 70.026970,53.864029 68.836906,55.662033 
	C68.251701,56.025333 68.062065,56.045223 67.872437,56.065109 
z"/>
<path fill="#7B7500" opacity="1.000000" stroke="none" 
	d="
M67.956207,56.438393 
	C68.062065,56.045223 68.251701,56.025333 68.727325,56.001179 
	C70.660828,57.069523 72.308334,58.142139 74.563629,59.610455 
	C74.563629,55.764477 74.563629,52.587399 74.563629,49.228085 
	C76.820244,50.685219 79.016510,51.910667 80.935059,53.476414 
	C81.420601,53.872669 81.259865,55.436165 80.959450,56.313839 
	C80.663269,57.179161 79.813591,57.855030 79.206757,58.614021 
	C80.796143,58.614025 82.385521,58.614025 84.848839,58.614025 
	C83.492241,59.475716 82.182053,61.010704 81.149399,60.842449 
	C76.628235,60.105785 70.571968,63.950470 67.956207,56.438393 
z"/>
<path fill="#3E3B00" opacity="1.000000" stroke="none" 
	d="
M53.139957,59.390633 
	C60.260895,58.567307 55.762722,53.318611 56.715973,49.958294 
	C60.107506,50.517746 60.864269,52.991554 60.383858,55.708065 
	C59.635502,59.939648 56.489807,60.995167 52.616543,60.314487 
	C52.944412,59.944553 53.119503,59.730953 53.139957,59.390633 
z"/>
<path fill="#E7DC00" opacity="1.000000" stroke="none" 
	d="
M47.074631,55.148544 
	C46.570045,53.233166 46.206974,51.630230 45.776844,49.731255 
	C49.041759,50.095604 51.152897,50.331196 52.349831,50.464767 
	C52.223331,51.882221 52.268566,53.286404 51.925751,54.588409 
	C51.669579,55.561340 50.766556,57.215984 50.405796,57.151207 
	C49.277782,56.948669 48.270317,56.074734 47.074631,55.148544 
z"/>
<path fill="#252400" opacity="1.000000" stroke="none" 
	d="
M38.537689,50.229622 
	C38.886940,53.000885 38.886940,55.908951 38.886940,59.076519 
	C34.767124,56.205128 34.710705,54.743385 38.537689,50.229622 
z"/>
<path fill="#E7DC00" opacity="1.000000" stroke="none" 
	d="
M53.016434,59.100594 
	C53.119503,59.730953 52.944412,59.944553 52.395081,60.049343 
	C51.906330,59.599964 51.637180,59.132668 51.368031,58.665375 
	C51.876324,58.713768 52.384617,58.762157 53.016434,59.100594 
z"/>
</svg>