<svg version="1.1" id="Layer_1" xmlns="http://www.w3.org/2000/svg" xmlns:xlink="http://www.w3.org/1999/xlink" x="0px" y="0px"
	 width="100%" viewBox="0 0 353 105" enable-background="new 0 0 353 105" xml:space="preserve">
<path fill="#FEFEFE" opacity="1.000000" stroke="none" 
	d="
M230.000000,106.000000 
	C153.333359,106.000000 77.166702,106.000000 1.000041,106.000000 
	C1.000027,71.000023 1.000027,36.000053 1.000014,1.000060 
	C118.666618,1.000040 236.333237,1.000040 353.999878,1.000020 
	C353.999939,35.999935 353.999939,70.999870 353.999969,105.999908 
	C312.833344,106.000000 271.666656,106.000000 230.000000,106.000000 
M246.672333,58.237270 
	C246.709900,55.240078 246.295349,52.140121 246.945007,49.282063 
	C247.373337,47.397713 249.333099,45.861477 250.607162,44.169361 
	C251.819092,45.814701 253.578812,47.304878 254.100250,49.145802 
	C254.712067,51.305706 254.348694,53.775875 254.225891,56.101841 
	C254.042221,59.580875 255.874588,59.353714 258.261627,58.653835 
	C258.261627,54.439022 258.531189,50.432343 258.191284,46.478058 
	C257.793793,41.853905 254.327805,39.903786 250.001846,41.480545 
	C249.026840,41.835922 248.102921,42.331398 247.184723,42.749081 
	C246.783081,39.037144 246.417297,35.656551 245.161270,32.007801 
	C244.330124,32.855675 242.800873,33.684963 242.777740,34.554340 
	C242.584167,41.827137 242.734985,49.108250 242.632843,56.384762 
	C242.593857,59.161285 243.925949,59.386974 246.672333,58.237270 
M60.617512,5.966267 
	C59.183903,6.064721 57.542126,5.739492 56.348331,6.326039 
	C41.622147,13.561427 26.996250,21.001390 12.251825,28.198765 
	C9.569982,29.507885 8.917104,31.172697 8.942490,33.953045 
	C9.070192,47.939671 9.086529,61.929005 8.936614,75.915184 
	C8.902281,79.118225 9.871953,80.995735 12.818460,82.439697 
	C27.266708,89.520226 41.578213,96.880943 56.062687,103.884865 
	C57.766777,104.708870 60.577354,104.648087 62.298790,103.811630 
	C76.625938,96.849945 90.790382,89.554337 105.073547,82.500458 
	C107.933327,81.088127 109.115776,79.332893 109.074089,76.040131 
	C108.897034,62.054585 108.877335,48.063683 109.086868,34.079033 
	C109.137421,30.705385 107.830612,29.315599 104.969109,27.915556 
	C90.367920,20.771658 75.899399,13.356587 60.617512,5.966267 
M262.278412,55.162247 
	C263.685577,56.417820 264.993256,58.578609 266.519928,58.746357 
	C270.034149,59.132492 273.654877,58.549515 277.202179,58.361393 
	C277.202179,54.202343 277.481354,50.037144 277.121826,45.927830 
	C276.778412,42.003048 273.682861,40.780201 270.264984,41.052013 
	C267.664093,41.258858 264.024384,40.633701 263.946167,45.424171 
	C267.412781,44.872295 271.373322,41.681404 273.405121,47.290909 
	C269.510223,49.865372 262.639862,47.131256 262.278412,55.162247 
M206.952576,44.865967 
	C202.829376,40.444424 197.670166,39.681324 193.322250,42.849918 
	C189.766708,45.441059 188.730743,51.039753 191.088943,54.919559 
	C193.463028,58.825497 198.937317,60.201775 203.394928,58.013397 
	C207.688675,55.905460 208.946182,51.885998 206.952576,44.865967 
M291.242432,40.971027 
	C286.247162,40.942959 282.401031,42.769089 281.277679,47.994862 
	C280.362579,52.251808 281.568848,55.911530 285.739960,58.021702 
	C290.496399,60.427998 296.462799,58.529861 298.511444,54.037117 
	C301.105560,48.348213 298.617706,43.334358 291.242432,40.971027 
M186.822449,43.942818 
	C189.708649,38.996620 183.623322,42.254181 183.375351,40.172421 
	C183.239670,38.913960 183.103989,37.655502 182.824600,35.064213 
	C180.097198,37.917171 178.114639,39.899853 176.295944,42.022903 
	C176.096161,42.256119 176.806412,43.310600 177.147308,43.956352 
	C177.795609,45.184460 178.878357,46.334213 179.067474,47.621296 
	C179.426102,50.061947 178.742874,52.765327 179.525223,54.997616 
	C180.098404,56.633171 182.142212,58.124199 183.877045,58.840637 
	C184.893799,59.260517 186.589783,58.035625 187.980225,57.550613 
	C183.799927,55.261539 181.350357,48.114227 183.640381,44.618404 
	C183.954971,44.138168 185.152359,44.236229 186.822449,43.942818 
M233.409714,59.028114 
	C235.640533,58.606781 238.670975,59.110214 238.293243,56.552135 
	C234.740417,55.386887 231.443832,55.137566 229.553009,53.377808 
	C228.393616,52.298779 228.443878,47.943710 229.634705,46.773975 
	C231.469421,44.971771 234.749161,44.640640 238.204895,43.402847 
	C237.484283,42.854656 236.367706,41.341904 235.022598,41.099991 
	C229.946320,40.187057 225.492279,43.594147 224.546478,48.707924 
	C223.555725,54.064644 226.154877,57.383247 233.409714,59.028114 
M216.741135,53.477608 
	C216.955734,51.362495 217.447388,49.228333 217.303619,47.137863 
	C217.171310,45.214016 216.461624,43.295757 215.750168,41.475128 
	C215.610550,41.117867 213.657318,41.029659 213.626114,41.135963 
	C213.192459,42.613617 212.736954,44.141373 212.697556,45.667503 
	C212.584167,50.059181 212.657532,54.455685 212.657532,58.673668 
	C217.781250,59.918835 216.552521,56.608646 216.741135,53.477608 
z"/>
<path fill="#000000" opacity="1.000000" stroke="none" 
	d="
M61.000988,6.001330 
	C75.899399,13.356587 90.367920,20.771658 104.969109,27.915556 
	C107.830612,29.315599 109.137421,30.705385 109.086868,34.079033 
	C108.877335,48.063683 108.897034,62.054585 109.074089,76.040131 
	C109.115776,79.332893 107.933327,81.088127 105.073547,82.500458 
	C90.790382,89.554337 76.625938,96.849945 62.298790,103.811630 
	C60.577354,104.648087 57.766777,104.708870 56.062687,103.884865 
	C41.578213,96.880943 27.266708,89.520226 12.818460,82.439697 
	C9.871953,80.995735 8.902281,79.118225 8.936614,75.915184 
	C9.086529,61.929005 9.070192,47.939671 8.942490,33.953045 
	C8.917104,31.172697 9.569982,29.507885 12.251825,28.198765 
	C26.996250,21.001390 41.622147,13.561427 56.348331,6.326039 
	C57.542126,5.739492 59.183903,6.064721 61.000988,6.001330 
M41.617249,19.047150 
	C33.504890,23.122547 25.311094,27.048933 17.349514,31.400209 
	C15.774305,32.261116 14.181273,34.735573 14.143282,36.499249 
	C13.870587,49.158360 14.082325,61.827110 13.927467,74.490204 
	C13.895605,77.095688 15.000717,78.042122 17.122770,79.075912 
	C29.947014,85.323441 42.737923,91.645424 55.411106,98.191986 
	C57.976593,99.517227 59.754929,99.691917 62.408669,98.327293 
	C76.108025,91.282715 89.955811,84.526794 104.002098,77.545792 
	C104.002098,63.697205 104.111786,49.706921 103.848740,35.723648 
	C103.819321,34.159870 102.003426,32.013626 100.456627,31.196957 
	C92.003006,26.733654 83.353844,22.642647 74.810577,18.346752 
	C58.963810,10.378371 58.974560,10.355474 43.189056,18.367151 
	C42.895512,18.516136 42.646198,18.752264 41.617249,19.047150 
z"/>
<path fill="#393232" opacity="1.000000" stroke="none" 
	d="
M262.226410,54.784546 
	C262.639862,47.131256 269.510223,49.865372 273.405121,47.290909 
	C271.373322,41.681404 267.412781,44.872295 263.946167,45.424171 
	C264.024384,40.633701 267.664093,41.258858 270.264984,41.052013 
	C273.682861,40.780201 276.778412,42.003048 277.121826,45.927830 
	C277.481354,50.037144 277.202179,54.202343 277.202179,58.361393 
	C273.654877,58.549515 270.034149,59.132492 266.519928,58.746357 
	C264.993256,58.578609 263.685577,56.417820 262.226410,54.784546 
M269.830322,51.023502 
	C269.049957,51.212784 268.011139,51.159187 267.550720,51.649139 
	C266.885162,52.357376 266.638672,53.459454 266.213409,54.393505 
	C267.475189,54.898479 268.927856,56.048061 269.950378,55.745220 
	C271.227936,55.366852 272.151581,53.793404 273.227997,52.735893 
	C272.377075,52.154945 271.526184,51.574001 269.830322,51.023502 
z"/>
<path fill="#36313B" opacity="1.000000" stroke="none" 
	d="
M207.113495,45.239540 
	C208.946182,51.885998 207.688675,55.905460 203.394928,58.013397 
	C198.937317,60.201775 193.463028,58.825497 191.088943,54.919559 
	C188.730743,51.039753 189.766708,45.441059 193.322250,42.849918 
	C197.670166,39.681324 202.829376,40.444424 207.113495,45.239540 
M194.083160,52.007240 
	C196.135132,53.277298 198.074265,55.105602 200.292328,55.553947 
	C201.233719,55.744232 203.386078,53.236687 203.895370,51.612602 
	C205.100159,47.770657 202.880783,44.151421 199.548035,44.165009 
	C195.000916,44.183540 193.591873,47.083248 194.083160,52.007240 
z"/>
<path fill="#342F37" opacity="1.000000" stroke="none" 
	d="
M291.649292,40.999176 
	C298.617706,43.334358 301.105560,48.348213 298.511444,54.037117 
	C296.462799,58.529861 290.496399,60.427998 285.739960,58.021702 
	C281.568848,55.911530 280.362579,52.251808 281.277679,47.994862 
	C282.401031,42.769089 286.247162,40.942959 291.649292,40.999176 
M289.694397,55.899807 
	C294.555481,54.910744 296.242126,52.494354 295.089630,48.044849 
	C294.223907,44.702534 291.915619,43.524284 288.724091,44.389000 
	C285.554901,45.247646 283.862762,49.297298 285.470734,52.507313 
	C286.134888,53.833195 287.743011,54.686222 289.694397,55.899807 
z"/>
<path fill="#3A3431" opacity="1.000000" stroke="none" 
	d="
M186.381744,44.004684 
	C185.152359,44.236229 183.954971,44.138168 183.640381,44.618404 
	C181.350357,48.114227 183.799927,55.261539 187.980225,57.550613 
	C186.589783,58.035625 184.893799,59.260517 183.877045,58.840637 
	C182.142212,58.124199 180.098404,56.633171 179.525223,54.997616 
	C178.742874,52.765327 179.426102,50.061947 179.067474,47.621296 
	C178.878357,46.334213 177.795609,45.184460 177.147308,43.956352 
	C176.806412,43.310600 176.096161,42.256119 176.295944,42.022903 
	C178.114639,39.899853 180.097198,37.917171 182.824600,35.064213 
	C183.103989,37.655502 183.239670,38.913960 183.374603,40.173859 
	C183.623322,42.254181 189.708649,38.996620 186.381744,44.004684 
z"/>
<path fill="#342F31" opacity="1.000000" stroke="none" 
	d="
M233.017731,59.025867 
	C226.154877,57.383247 223.555725,54.064644 224.546478,48.707924 
	C225.492279,43.594147 229.946320,40.187057 235.022598,41.099991 
	C236.367706,41.341904 237.484283,42.854656 238.204895,43.402847 
	C234.749161,44.640640 231.469421,44.971771 229.634705,46.773975 
	C228.443878,47.943710 228.393616,52.298779 229.553009,53.377808 
	C231.443832,55.137566 234.740417,55.386887 238.293243,56.552135 
	C238.670975,59.110214 235.640533,58.606781 233.017731,59.025867 
z"/>
<path fill="#3C4143" opacity="1.000000" stroke="none" 
	d="
M246.051514,32.275959 
	C246.417297,35.656551 246.783081,39.037144 247.184723,42.749081 
	C248.102921,42.331398 249.026840,41.835922 250.001846,41.480545 
	C254.327805,39.903786 257.793793,41.853905 258.191284,46.478058 
	C258.531189,50.432343 258.261627,54.439022 258.261627,58.653835 
	C255.874588,59.353714 254.042221,59.580875 254.225891,56.101841 
	C254.348694,53.775875 254.712067,51.305706 254.100250,49.145802 
	C253.578812,47.304878 251.819092,45.814701 250.607147,44.169365 
	C249.333099,45.861477 247.373337,47.397713 246.945007,49.282063 
	C246.295349,52.140121 246.709900,55.240078 246.332520,58.037277 
	C246.012329,49.316845 246.031921,40.796402 246.051514,32.275959 
z"/>
<path fill="#1F2F3D" opacity="1.000000" stroke="none" 
	d="
M245.606384,32.141880 
	C246.031921,40.796402 246.012329,49.316845 246.021820,58.280777 
	C243.925949,59.386974 242.593857,59.161285 242.632843,56.384762 
	C242.734985,49.108250 242.584167,41.827137 242.777740,34.554340 
	C242.800873,33.684963 244.330124,32.855675 245.606384,32.141880 
z"/>
<path fill="#1F3344" opacity="1.000000" stroke="none" 
	d="
M216.741089,53.934372 
	C216.552521,56.608646 217.781250,59.918835 212.657532,58.673668 
	C212.657532,54.455685 212.584167,50.059181 212.697556,45.667503 
	C212.736954,44.141373 213.192459,42.613617 213.626114,41.135963 
	C213.657318,41.029659 215.610550,41.117867 215.750168,41.475128 
	C216.461624,43.295757 217.171310,45.214016 217.303619,47.137863 
	C217.447388,49.228333 216.955734,51.362495 216.741089,53.934372 
z"/>
<path fill="#FEF100" opacity="1.000000" stroke="none" 
	d="
M41.996750,18.997440 
	C42.646198,18.752264 42.895512,18.516136 43.189056,18.367151 
	C58.974560,10.355474 58.963810,10.378371 74.810577,18.346752 
	C83.353844,22.642647 92.003006,26.733654 100.456627,31.196957 
	C102.003426,32.013626 103.819321,34.159870 103.848740,35.723648 
	C104.111786,49.706921 104.002098,63.697205 104.002098,77.545792 
	C89.955811,84.526794 76.108025,91.282715 62.408669,98.327293 
	C59.754929,99.691917 57.976593,99.517227 55.411106,98.191986 
	C42.737923,91.645424 29.947014,85.323441 17.122770,79.075912 
	C15.000717,78.042122 13.895605,77.095688 13.927467,74.490204 
	C14.082325,61.827110 13.870587,49.158360 14.143282,36.499249 
	C14.181273,34.735573 15.774305,32.261116 17.349514,31.400209 
	C25.311094,27.048933 33.504890,23.122547 41.996750,18.997440 
M52.618160,60.597752 
	C56.489853,60.995796 59.635468,59.939766 60.384159,55.708427 
	C60.864819,52.991920 60.107613,50.518105 56.716503,49.958096 
	C55.760780,53.317638 60.260685,58.567307 52.892979,58.809879 
	C52.384396,58.761551 51.875809,58.713226 51.367226,58.664898 
	C51.636631,59.132347 51.906040,59.599792 52.618160,60.597752 
M68.039825,56.811733 
	C70.572479,63.951855 76.629807,60.105206 81.151543,60.842365 
	C82.183731,61.010639 83.493835,59.474133 84.845802,58.614281 
	C82.347176,58.614281 80.777054,58.614281 79.206932,58.614277 
	C79.813629,57.855759 80.663177,57.180367 80.959229,56.315510 
	C81.259789,55.437511 81.421387,53.873875 80.935867,53.477310 
	C79.017403,51.910358 76.821007,50.683678 74.564056,49.225044 
	C74.564056,52.586018 74.564056,55.763653 74.564056,59.610279 
	C72.308960,58.142277 70.661140,57.069595 69.232605,55.318630 
	C70.027229,53.864033 70.821854,52.409435 71.616486,50.954842 
	C68.710297,50.068501 65.804108,49.182159 62.367203,48.133961 
	C62.367203,53.133472 62.367203,56.859425 62.367203,60.740189 
	C63.826229,60.740189 65.125603,60.740189 65.527100,60.740189 
	C66.460243,58.880096 67.166344,57.472591 68.039825,56.811733 
M53.122112,51.250568 
	C53.201492,51.106079 53.335743,50.964706 53.344185,50.816189 
	C53.351978,50.679054 53.235073,50.417408 53.155598,50.410450 
	C52.051247,50.313782 50.939327,50.154819 49.838467,50.206676 
	C48.607033,50.264675 47.384964,50.521397 46.158817,50.691635 
	C46.377750,52.005352 46.421082,53.382572 46.866531,54.614376 
	C47.286098,55.774628 48.129440,56.781639 48.786350,57.856064 
	C49.320248,57.897446 49.854145,57.938831 50.388042,57.980213 
	C50.701664,56.391853 50.924351,54.777092 51.374073,53.228252 
	C51.551708,52.616467 52.234928,52.151489 53.122112,51.250568 
M38.878292,50.093754 
	C34.571136,54.038303 34.530151,56.564209 38.831310,58.803329 
	C39.103714,55.910564 39.372631,53.054867 38.878292,50.093754 
z"/>
<path fill="#E9EFF2" opacity="1.000000" stroke="none" 
	d="
M270.252808,51.008278 
	C271.526184,51.574001 272.377075,52.154945 273.227997,52.735893 
	C272.151581,53.793404 271.227936,55.366852 269.950378,55.745220 
	C268.927856,56.048061 267.475189,54.898479 266.213409,54.393505 
	C266.638672,53.459454 266.885162,52.357376 267.550720,51.649139 
	C268.011139,51.159187 269.049957,51.212784 270.252808,51.008278 
z"/>
<path fill="#F4F7F5" opacity="1.000000" stroke="none" 
	d="
M194.020065,51.605988 
	C193.591873,47.083248 195.000916,44.183540 199.548035,44.165009 
	C202.880783,44.151421 205.100159,47.770657 203.895370,51.612602 
	C203.386078,53.236687 201.233719,55.744232 200.292328,55.553947 
	C198.074265,55.105602 196.135132,53.277298 194.020065,51.605988 
z"/>
<path fill="#F4F7F5" opacity="1.000000" stroke="none" 
	d="
M289.308105,55.827061 
	C287.743011,54.686222 286.134888,53.833195 285.470734,52.507313 
	C283.862762,49.297298 285.554901,45.247646 288.724091,44.389000 
	C291.915619,43.524284 294.223907,44.702534 295.089630,48.044849 
	C296.242126,52.494354 294.555481,54.910744 289.308105,55.827061 
z"/>
<path fill="#656000" opacity="1.000000" stroke="none" 
	d="
M67.872444,56.065083 
	C67.166344,57.472591 66.460243,58.880096 65.527100,60.740189 
	C65.125603,60.740189 63.826229,60.740189 62.367203,60.740189 
	C62.367203,56.859425 62.367203,53.133472 62.367203,48.133961 
	C65.804108,49.182159 68.710297,50.068501 71.616486,50.954842 
	C70.821854,52.409435 70.027229,53.864033 68.836967,55.662025 
	C68.251694,56.025307 68.062065,56.045197 67.872444,56.065083 
z"/>
<path fill="#7B7500" opacity="1.000000" stroke="none" 
	d="
M67.956131,56.438408 
	C68.062065,56.045197 68.251694,56.025307 68.727325,56.001167 
	C70.661140,57.069595 72.308960,58.142277 74.564056,59.610279 
	C74.564056,55.763653 74.564056,52.586018 74.564056,49.225044 
	C76.821007,50.683678 79.017403,51.910358 80.935867,53.477310 
	C81.421387,53.873875 81.259789,55.437511 80.959229,56.315510 
	C80.663177,57.180367 79.813629,57.855759 79.206932,58.614281 
	C80.777054,58.614281 82.347176,58.614281 84.845802,58.614281 
	C83.493835,59.474133 82.183731,61.010639 81.151543,60.842365 
	C76.629807,60.105206 70.572479,63.951855 67.956131,56.438408 
z"/>
<path fill="#3E3B00" opacity="1.000000" stroke="none" 
	d="
M53.139900,59.390427 
	C60.260685,58.567307 55.760780,53.317638 56.716503,49.958096 
	C60.107613,50.518105 60.864819,52.991920 60.384159,55.708427 
	C59.635468,59.939766 56.489853,60.995796 52.616394,60.314507 
	C52.944286,59.944309 53.119377,59.730698 53.139900,59.390427 
z"/>
<path fill="#E7DC00" opacity="1.000000" stroke="none" 
	d="
M52.905022,51.435116 
	C52.234928,52.151489 51.551708,52.616467 51.374073,53.228252 
	C50.924351,54.777092 50.701664,56.391853 50.388042,57.980213 
	C49.854145,57.938831 49.320248,57.897446 48.786350,57.856064 
	C48.129440,56.781639 47.286098,55.774628 46.866531,54.614376 
	C46.421082,53.382572 46.377750,52.005352 46.158817,50.691635 
	C47.384964,50.521397 48.607033,50.264675 49.838467,50.206676 
	C50.939327,50.154819 52.051247,50.313782 53.155598,50.410450 
	C53.235073,50.417408 53.351978,50.679054 53.344185,50.816189 
	C53.335743,50.964706 53.201492,51.106079 52.905022,51.435116 
z"/>
<path fill="#252400" opacity="1.000000" stroke="none" 
	d="
M39.259918,50.146461 
	C39.372631,53.054867 39.103714,55.910564 38.831310,58.803329 
	C34.530151,56.564209 34.571136,54.038303 39.259918,50.146461 
z"/>
<path fill="#E7DC00" opacity="1.000000" stroke="none" 
	d="
M53.016441,59.100151 
	C53.119377,59.730698 52.944286,59.944309 52.395039,60.049255 
	C51.906040,59.599792 51.636631,59.132347 51.367226,58.664898 
	C51.875809,58.713226 52.384396,58.761551 53.016441,59.100151 
z"/>
</svg>