<svg version="1.1" id="Layer_1" xmlns="http://www.w3.org/2000/svg" xmlns:xlink="http://www.w3.org/1999/xlink" x="0px" y="0px"
	 width="100%" viewBox="0 0 262 84" enable-background="new 0 0 262 84" xml:space="preserve">
<path fill="#FEFEFE" opacity="1.000000" stroke="none" 
	d="
M244.001740,85.000000 
	C162.668060,85.000000 81.834862,85.000000 1.001243,85.000000 
	C1.000828,57.000599 1.000828,29.001194 1.000414,1.001344 
	C88.332588,1.000896 175.665176,1.000896 262.998352,1.000448 
	C262.998901,28.999216 262.998901,56.998432 262.999451,84.998825 
	C256.834076,85.000000 250.668137,85.000000 244.001740,85.000000 
M105.220200,33.431717 
	C105.155273,41.128838 105.048569,48.826092 105.072411,56.522938 
	C105.075829,57.622856 105.710991,58.720821 106.911949,60.006058 
	C107.636398,59.057415 108.862549,58.169991 108.987236,57.148163 
	C109.306999,54.527603 108.611916,51.689209 109.346985,49.246128 
	C109.842934,47.597759 112.080162,46.473301 113.538483,45.114491 
	C114.659645,46.546082 116.380119,47.835865 116.760345,49.442772 
	C117.319084,51.804085 117.056587,54.400753 116.895592,56.881031 
	C116.690704,60.037750 118.048050,60.578056 120.932861,59.543552 
	C120.932861,55.693615 121.174355,51.881622 120.875206,48.112537 
	C120.446419,42.709946 116.541924,40.608032 111.748634,42.921638 
	C110.941513,43.311218 110.168320,43.771069 109.083435,44.358810 
	C109.083435,41.099331 109.322350,38.246857 108.944305,35.478634 
	C108.823967,34.597378 107.063530,33.940102 105.220200,33.431717 
M202.000046,50.262745 
	C201.559662,48.493313 201.013290,46.742256 200.702621,44.950329 
	C200.177231,41.920010 198.674255,41.186073 195.908218,42.496510 
	C197.317017,47.326550 198.509583,51.994904 200.101562,56.522831 
	C200.584061,57.895142 202.171219,58.879063 203.252396,60.040882 
	C204.194153,58.933270 205.457108,57.964508 206.008774,56.688278 
	C207.060379,54.255436 207.706131,51.647152 208.520370,49.111706 
	C210.439850,52.049347 211.076721,54.907288 212.088486,57.625710 
	C212.452560,58.603882 213.816345,59.970650 214.549545,59.871456 
	C215.633881,59.724766 217.115143,58.615616 217.463821,57.589005 
	C219.149338,52.626099 220.512482,47.553711 222.327606,41.369663 
	C214.830444,43.540157 218.346451,50.940990 214.343323,54.226997 
	C213.513504,50.920330 212.893433,47.719608 211.845505,44.665703 
	C211.473648,43.581993 210.060760,42.855507 209.123123,41.965946 
	C208.344879,42.824409 207.223618,43.556587 206.852386,44.564903 
	C205.715836,47.652004 204.867340,50.845158 203.537506,55.208904 
	C202.771027,52.922249 202.460281,51.995167 202.000046,50.262745 
M135.474274,53.228146 
	C138.530579,52.873962 141.105927,53.268829 141.656616,57.028042 
	C142.120728,60.196239 144.046158,60.605293 146.899841,59.547394 
	C144.106598,51.755764 141.400940,43.966820 138.450836,36.271580 
	C138.062820,35.259430 136.480255,34.256088 135.347977,34.122696 
	C134.466812,34.018887 132.882706,35.066830 132.540268,35.959396 
	C129.544205,43.768890 126.757233,51.658596 123.899361,59.549011 
	C127.178627,60.748322 128.745682,59.693661 129.192047,56.769909 
	C129.670959,53.632782 131.676895,52.797756 135.474274,53.228146 
M46.073929,59.644131 
	C46.073929,52.415474 46.073929,45.186817 46.073929,38.104969 
	C53.276508,37.177105 53.276508,37.177105 53.430229,34.315586 
	C47.378105,34.315586 41.334549,34.315586 35.211224,34.315586 
	C35.938461,37.142101 35.938461,37.142101 42.279385,38.139301 
	C42.279385,44.174313 42.320087,50.291840 42.257481,56.408314 
	C42.235332,58.572178 42.165222,60.563087 46.073929,59.644131 
M59.894604,59.962608 
	C64.405396,60.279041 68.250214,59.087978 69.979523,54.531868 
	C71.423470,50.727573 71.133789,46.888798 67.826218,44.061691 
	C64.601768,41.305626 60.448463,40.834511 57.244785,43.241745 
	C54.927490,44.982952 52.963943,48.313667 52.534443,51.188290 
	C51.878078,55.581326 54.746033,58.575401 59.894604,59.962608 
M193.089813,54.378292 
	C194.505325,47.200573 192.047043,42.791428 186.197052,42.015530 
	C180.499405,41.259838 175.764420,44.824009 175.409225,50.367939 
	C175.141647,54.544304 176.698090,57.779842 180.911407,59.348232 
	C185.529037,61.067120 189.371124,59.738434 193.089813,54.378292 
M93.495987,55.973927 
	C90.422363,53.928101 89.747208,50.525230 91.836868,48.284782 
	C93.751450,46.232037 97.342735,45.743153 100.840820,44.298573 
	C100.861961,41.062840 97.469154,41.828754 94.931885,42.104652 
	C89.695755,42.674026 86.479439,46.988712 86.930931,52.287426 
	C87.334152,57.019672 91.196869,60.350613 96.201309,59.985165 
	C98.444702,59.821342 101.387123,59.887383 100.732826,56.293621 
	C98.315788,56.293621 96.253899,56.293621 93.495987,55.973927 
M151.318130,42.023518 
	C150.951920,47.611938 150.506042,53.198421 150.370010,58.792442 
	C150.359085,59.242233 152.480164,59.743866 154.198456,60.469807 
	C154.198456,57.431164 154.195801,55.305199 154.199051,53.179237 
	C154.204315,49.736561 154.296753,46.471062 158.967056,45.898720 
	C159.612961,45.819569 160.006073,43.677540 160.516205,42.490513 
	C160.148163,42.211761 159.780121,41.933006 159.412079,41.654255 
	C157.771149,42.509304 156.130219,43.364349 154.998230,43.954201 
	C153.900253,43.193684 153.018616,42.583015 151.318130,42.023518 
M75.025818,52.446960 
	C75.026070,59.860535 75.026070,59.860535 79.078705,59.428860 
	C79.078705,57.340786 79.072639,55.215908 79.080093,53.091084 
	C79.092140,49.654465 79.111206,46.329052 83.881950,45.880047 
	C84.459541,45.825687 84.835533,43.629395 85.304962,42.425819 
	C84.945274,42.170864 84.585587,41.915909 84.225899,41.660950 
	C82.579231,42.549400 80.932564,43.437851 80.520836,43.659996 
	C78.306602,42.838428 76.938850,42.330936 75.025818,41.621124 
	C75.025818,45.557072 75.025818,48.522655 75.025818,52.446960 
M163.758789,59.188019 
	C166.138901,60.691063 167.610336,60.661629 167.783096,57.242229 
	C167.955002,53.840130 168.956802,50.420811 168.693985,47.079899 
	C168.554596,45.307613 166.503220,43.685722 165.314957,41.995941 
	C164.763138,43.451313 163.817993,44.884808 163.735580,46.366287 
	C163.515976,50.314171 163.667618,54.282700 163.758789,59.188019 
z"/>
<path fill="#39343E" opacity="1.000000" stroke="none" 
	d="
M202.074783,50.665417 
	C202.460281,51.995167 202.771027,52.922249 203.537506,55.208904 
	C204.867340,50.845158 205.715836,47.652004 206.852386,44.564903 
	C207.223618,43.556587 208.344879,42.824409 209.123123,41.965946 
	C210.060760,42.855507 211.473648,43.581993 211.845505,44.665703 
	C212.893433,47.719608 213.513504,50.920330 214.343323,54.226997 
	C218.346451,50.940990 214.830444,43.540157 222.327606,41.369663 
	C220.512482,47.553711 219.149338,52.626099 217.463821,57.589005 
	C217.115143,58.615616 215.633881,59.724766 214.549545,59.871456 
	C213.816345,59.970650 212.452560,58.603882 212.088486,57.625710 
	C211.076721,54.907288 210.439850,52.049347 208.520370,49.111706 
	C207.706131,51.647152 207.060379,54.255436 206.008774,56.688278 
	C205.457108,57.964508 204.194153,58.933270 203.252396,60.040878 
	C202.171219,58.879063 200.584061,57.895142 200.101562,56.522831 
	C198.509583,51.994904 197.317017,47.326550 195.908218,42.496510 
	C198.674255,41.186073 200.177231,41.920010 200.702621,44.950329 
	C201.013290,46.742256 201.559662,48.493313 202.074783,50.665417 
z"/>
<path fill="#322E37" opacity="1.000000" stroke="none" 
	d="
M134.999298,53.228096 
	C131.676895,52.797756 129.670959,53.632782 129.192047,56.769909 
	C128.745682,59.693661 127.178627,60.748322 123.899361,59.549011 
	C126.757233,51.658596 129.544205,43.768890 132.540268,35.959396 
	C132.882706,35.066830 134.466812,34.018887 135.347977,34.122696 
	C136.480255,34.256088 138.062820,35.259430 138.450836,36.271580 
	C141.400940,43.966820 144.106598,51.755764 146.899841,59.547394 
	C144.046158,60.605293 142.120728,60.196239 141.656616,57.028042 
	C141.105927,53.268829 138.530579,52.873962 134.999298,53.228096 
M135.960678,40.104656 
	C135.878616,39.960812 135.820374,39.792030 135.705612,39.682434 
	C135.636322,39.616268 135.386612,39.603447 135.374756,39.631935 
	C134.014084,42.899593 132.668167,46.173389 131.243866,49.635376 
	C134.240005,49.635376 136.567184,49.635376 139.213409,49.635376 
	C138.099503,46.394382 137.137054,43.594101 135.960678,40.104656 
z"/>
<path fill="#3C352B" opacity="1.000000" stroke="none" 
	d="
M45.674446,59.820091 
	C42.165222,60.563087 42.235332,58.572178 42.257481,56.408314 
	C42.320087,50.291840 42.279385,44.174313 42.279385,38.139301 
	C35.938461,37.142101 35.938461,37.142101 35.211224,34.315586 
	C41.334549,34.315586 47.378105,34.315586 53.430229,34.315586 
	C53.276508,37.177105 53.276508,37.177105 46.073929,38.104969 
	C46.073929,45.186817 46.073929,52.415474 45.674446,59.820091 
z"/>
<path fill="#333339" opacity="1.000000" stroke="none" 
	d="
M59.499142,59.893814 
	C54.746033,58.575401 51.878078,55.581326 52.534443,51.188290 
	C52.963943,48.313667 54.927490,44.982952 57.244785,43.241745 
	C60.448463,40.834511 64.601768,41.305626 67.826218,44.061691 
	C71.133789,46.888798 71.423470,50.727573 69.979523,54.531868 
	C68.250214,59.087978 64.405396,60.279041 59.499142,59.893814 
M56.327393,52.142391 
	C57.259846,55.729473 59.512680,57.799732 63.190189,56.584152 
	C66.836594,55.378857 67.669937,52.018490 66.240036,48.897434 
	C65.472496,47.222118 63.001663,45.366447 61.242424,45.307999 
	C57.679955,45.189644 56.356327,48.060715 56.327393,52.142391 
z"/>
<path fill="#333339" opacity="1.000000" stroke="none" 
	d="
M192.969208,54.745037 
	C189.371124,59.738434 185.529037,61.067120 180.911407,59.348232 
	C176.698090,57.779842 175.141647,54.544304 175.409225,50.367939 
	C175.764420,44.824009 180.499405,41.259838 186.197052,42.015530 
	C192.047043,42.791428 194.505325,47.200573 192.969208,54.745037 
M188.600906,55.009052 
	C188.999207,53.601414 189.753372,52.186115 189.723267,50.787697 
	C189.656296,47.675541 188.225555,45.206490 184.779602,45.149826 
	C181.161621,45.090336 179.447388,47.486115 179.269287,50.854694 
	C179.006027,55.833889 183.018356,57.933102 188.600906,55.009052 
z"/>
<path fill="#2F283E" opacity="1.000000" stroke="none" 
	d="
M106.053581,33.180336 
	C107.063530,33.940102 108.823967,34.597378 108.944305,35.478634 
	C109.322350,38.246857 109.083435,41.099331 109.083435,44.358810 
	C110.168320,43.771069 110.941513,43.311218 111.748634,42.921638 
	C116.541924,40.608032 120.446419,42.709946 120.875206,48.112537 
	C121.174355,51.881622 120.932861,55.693615 120.932861,59.543552 
	C118.048050,60.578056 116.690704,60.037750 116.895592,56.881031 
	C117.056587,54.400753 117.319084,51.804085 116.760345,49.442772 
	C116.380119,47.835865 114.659645,46.546082 113.538483,45.114487 
	C112.080162,46.473301 109.842934,47.597759 109.346985,49.246128 
	C108.611916,51.689209 109.306999,54.527603 108.987236,57.148163 
	C108.862549,58.169991 107.636398,59.057415 106.473816,59.455551 
	C106.041649,50.330143 106.047615,41.755238 106.053581,33.180336 
z"/>
<path fill="#34323D" opacity="1.000000" stroke="none" 
	d="
M93.843994,56.133774 
	C96.253899,56.293621 98.315788,56.293621 100.732826,56.293621 
	C101.387123,59.887383 98.444702,59.821342 96.201309,59.985165 
	C91.196869,60.350613 87.334152,57.019672 86.930931,52.287426 
	C86.479439,46.988712 89.695755,42.674026 94.931885,42.104652 
	C97.469154,41.828754 100.861961,41.062840 100.840820,44.298573 
	C97.342735,45.743153 93.751450,46.232037 91.836868,48.284782 
	C89.747208,50.525230 90.422363,53.928101 93.843994,56.133774 
z"/>
<path fill="#40322B" opacity="1.000000" stroke="none" 
	d="
M151.727554,41.997932 
	C153.018616,42.583015 153.900253,43.193684 154.998230,43.954201 
	C156.130219,43.364349 157.771149,42.509304 159.412079,41.654255 
	C159.780121,41.933006 160.148163,42.211761 160.516205,42.490513 
	C160.006073,43.677540 159.612961,45.819569 158.967056,45.898720 
	C154.296753,46.471062 154.204315,49.736561 154.199051,53.179237 
	C154.195801,55.305199 154.198456,57.431164 154.198456,60.469807 
	C152.480164,59.743866 150.359085,59.242233 150.370010,58.792442 
	C150.506042,53.198421 150.951920,47.611938 151.727554,41.997932 
z"/>
<path fill="#3A2635" opacity="1.000000" stroke="none" 
	d="
M75.025818,51.967602 
	C75.025818,48.522655 75.025818,45.557072 75.025818,41.621124 
	C76.938850,42.330936 78.306602,42.838428 80.520836,43.659996 
	C80.932564,43.437851 82.579231,42.549400 84.225899,41.660950 
	C84.585587,41.915909 84.945274,42.170864 85.304962,42.425819 
	C84.835533,43.629395 84.459541,45.825687 83.881950,45.880047 
	C79.111206,46.329052 79.092140,49.654465 79.080093,53.091084 
	C79.072639,55.215908 79.078705,57.340786 79.078705,59.428860 
	C75.026070,59.860535 75.026070,59.860535 75.025818,51.967602 
z"/>
<path fill="#1F3344" opacity="1.000000" stroke="none" 
	d="
M163.715240,58.715523 
	C163.667618,54.282700 163.515976,50.314171 163.735580,46.366287 
	C163.817993,44.884808 164.763138,43.451313 165.314941,41.995941 
	C166.503220,43.685722 168.554596,45.307613 168.693985,47.079899 
	C168.956802,50.420811 167.955002,53.840130 167.783096,57.242229 
	C167.610336,60.661629 166.138901,60.691063 163.715240,58.715523 
z"/>
<path fill="#3B2436" opacity="1.000000" stroke="none" 
	d="
M105.636887,33.306026 
	C106.047615,41.755238 106.041649,50.330143 106.044724,59.362366 
	C105.710991,58.720821 105.075829,57.622856 105.072411,56.522938 
	C105.048569,48.826092 105.155273,41.128838 105.636887,33.306026 
z"/>
<path fill="#E6EDEB" opacity="1.000000" stroke="none" 
	d="
M136.067657,40.449238 
	C137.137054,43.594101 138.099503,46.394382 139.213409,49.635376 
	C136.567184,49.635376 134.240005,49.635376 131.243866,49.635376 
	C132.668167,46.173389 134.014084,42.899593 135.374756,39.631935 
	C135.386612,39.603447 135.636322,39.616268 135.705612,39.682434 
	C135.820374,39.792030 135.878616,39.960812 136.067657,40.449238 
z"/>
<path fill="#F3F4F3" opacity="1.000000" stroke="none" 
	d="
M56.275429,51.765816 
	C56.356327,48.060715 57.679955,45.189644 61.242424,45.307999 
	C63.001663,45.366447 65.472496,47.222118 66.240036,48.897434 
	C67.669937,52.018490 66.836594,55.378857 63.190189,56.584152 
	C59.512680,57.799732 57.259846,55.729473 56.275429,51.765816 
z"/>
<path fill="#F3F4F3" opacity="1.000000" stroke="none" 
	d="
M188.340637,55.295670 
	C183.018356,57.933102 179.006027,55.833889 179.269287,50.854694 
	C179.447388,47.486115 181.161621,45.090336 184.779602,45.149826 
	C188.225555,45.206490 189.656296,47.675541 189.723267,50.787697 
	C189.753372,52.186115 188.999207,53.601414 188.340637,55.295670 
z"/>
</svg>