<svg xmlns="http://www.w3.org/2000/svg" width="352" height="59" fill="none" viewBox="0 0 352 59">
  <path fill="#fff" d="M64.003 43.372a5.834 5.834 0 0 0-.8-1.757c.078-.283.137-.57.176-.86.258-1.845-.386-3.533-1.599-4.84-.657-.713-1.362-1.184-2.108-1.473.49-2.08.738-4.21.739-6.347a29.12 29.12 0 0 0-.325-4.28 27.92 27.92 0 0 0-1.897-6.661 28.29 28.29 0 0 0-1.877-3.627 25.109 25.109 0 0 0-1.525-2.24 21.377 21.377 0 0 0-.84-1.064 28.034 28.034 0 0 0-3.837-3.81 25.382 25.382 0 0 0-1.064-.835A28.315 28.315 0 0 0 32.118 0C16.491 0 3.825 12.578 3.825 28.096c0 2.164.252 4.32.752 6.426-.671.29-1.314.74-1.91 1.393-1.214 1.306-1.858 2.988-1.6 4.832.039.293.098.583.176.868a5.844 5.844 0 0 0-.8 1.757c-.372 1.407-.25 2.676.224 3.788-.515 1.454-.386 3.002.284 4.347.488.983 1.187 1.744 2.047 2.423 1.024.808 2.304 1.494 3.85 2.153 1.843.78 4.093 1.514 5.116 1.783 2.643.68 5.177 1.11 7.746 1.131 3.66.034 6.81-.82 9.067-3.008 1.108.135 2.224.203 3.341.202a29.32 29.32 0 0 0 3.53-.22c2.25 2.2 5.414 3.063 9.087 3.028 2.568-.02 5.102-.451 7.739-1.132 1.03-.269 3.279-1.002 5.123-1.783 1.545-.66 2.826-1.346 3.856-2.152.854-.68 1.552-1.44 2.04-2.423a5.54 5.54 0 0 0 .291-4.347c.47-1.112.592-2.384.219-3.79Zm-2.623 3.694c.52.979.553 2.084.095 3.114-.695 1.56-2.42 2.79-5.773 4.11a44.217 44.217 0 0 1-4.01 1.35c-2.756.71-5.25 1.07-7.408 1.07-3.574 0-6.233-.979-7.92-2.913a26.737 26.737 0 0 1-8.622.05c-1.689 1.901-4.333 2.864-7.877 2.864-2.159 0-4.652-.36-7.409-1.07-.017-.005-1.925-.53-4.01-1.351-3.351-1.32-5.078-2.548-5.772-4.11-.458-1.03-.425-2.135.094-3.114.048-.09.1-.18.155-.265a3.935 3.935 0 0 1-.537-3.191 3.572 3.572 0 0 1 1.21-1.89 3.917 3.917 0 0 1-.537-1.489c-.166-1.146.217-2.29 1.078-3.223.672-.726 1.62-1.126 2.67-1.126h.029a25.893 25.893 0 0 1-1.191-7.787c0-14.401 11.757-26.078 26.261-26.078s26.261 11.675 26.261 26.078a25.876 25.876 0 0 1-1.199 7.807c.127-.013.251-.019.373-.019 1.05 0 2 .4 2.67 1.126.862.932 1.245 2.077 1.078 3.223a3.919 3.919 0 0 1-.537 1.488 3.57 3.57 0 0 1 1.21 1.891 3.922 3.922 0 0 1-.536 3.19c.055.086.107.174.154.265Z"/>
  <path fill="#FF9D00" d="M61.226 46.802a3.934 3.934 0 0 0 .537-3.191 3.574 3.574 0 0 0-1.21-1.89c.278-.456.46-.962.537-1.489.166-1.146-.217-2.29-1.079-3.223-.67-.726-1.62-1.126-2.67-1.126-.122 0-.246.007-.373.019a25.882 25.882 0 0 0 1.197-7.806c0-14.402-11.757-26.078-26.26-26.078-14.503 0-26.26 11.675-26.26 26.078a25.896 25.896 0 0 0 1.19 7.787h-.028c-1.05 0-2 .4-2.67 1.125-.862.932-1.245 2.078-1.078 3.223a3.92 3.92 0 0 0 .537 1.489 3.57 3.57 0 0 0-1.21 1.89 3.926 3.926 0 0 0 .537 3.192 3.575 3.575 0 0 0-.155.265c-.519.979-.552 2.084-.094 3.114.695 1.56 2.42 2.79 5.773 4.11a44.334 44.334 0 0 0 4.01 1.35c2.756.71 5.25 1.07 7.408 1.07 3.544 0 6.188-.962 7.877-2.864 2.858.45 5.77.434 8.622-.049 1.687 1.934 4.346 2.914 7.92 2.914 2.159 0 4.652-.36 7.409-1.07a44.49 44.49 0 0 0 4.01-1.351c3.351-1.32 5.078-2.55 5.772-4.11.458-1.03.425-2.135-.094-3.114-.047-.091-.1-.18-.155-.265Zm-34.692 4.067c-.146.253-.301.5-.467.74a4.729 4.729 0 0 1-1.677 1.48c-1.274.69-2.887.93-4.525.93-2.588 0-5.241-.601-6.728-.984-.074-.019-9.115-2.555-7.97-4.714.192-.363.51-.508.908-.508 1.612 0 4.547 2.383 5.808 2.383.282 0 .481-.119.562-.41.538-1.914-8.17-2.719-7.437-5.49.13-.492.48-.69.974-.69 2.131-.001 6.914 3.72 7.914 3.72.077 0 .132-.022.162-.069l.013-.021c.47-.77.2-1.33-3.017-3.286l-.309-.187c-3.54-2.127-6.023-3.407-4.61-4.935.162-.176.392-.254.672-.254.332 0 .734.11 1.177.295 1.869.783 4.46 2.918 5.542 3.849.17.147.34.295.508.445 0 0 1.37 1.415 2.198 1.415a.505.505 0 0 0 .463-.26c.587-.983-5.458-5.532-5.799-7.41-.23-1.27.163-1.915.89-1.915.346 0 .768.146 1.233.44 1.445.91 4.235 5.67 5.256 7.523.343.62.927.883 1.454.883 1.045 0 1.862-1.032.096-2.343-2.655-1.972-1.723-5.196-.456-5.395a1.04 1.04 0 0 1 .163-.012c1.152 0 1.66 1.971 1.66 1.971s1.49 3.715 4.049 6.254c2.321 2.305 2.646 4.196 1.293 6.555Zm8.274.435-.132.016-.227.026-.358.035-.116.01-.107.01-.15.011-.168.012-.166.011-.037.002-.131.008-.056.003-.155.007-.18.008-.165.006-.109.003h-.056l-.102.002h-.054l-.102.001-.14.002h-.193c-.153 0-.305-.001-.457-.004l-.123-.003-.105-.003-.13-.004-.162-.006-.146-.006-.038-.002-.139-.007-.115-.007-.09-.005a25.63 25.63 0 0 1-.338-.023l-.119-.01-.148-.013a17.095 17.095 0 0 1-.466-.045h-.005c1.42-3.146.702-6.084-2.168-8.931-1.882-1.867-3.134-4.623-3.394-5.228-.525-1.792-1.917-3.783-4.228-3.783-.195 0-.39.016-.583.046-1.013.158-1.898.737-2.529 1.608-.682-.843-1.345-1.513-1.945-1.891-.905-.57-1.807-.859-2.686-.859-1.097 0-2.078.448-2.761 1.26l-.018.02-.038-.16-.002-.008a22.484 22.484 0 0 1-.327-1.67c0-.003 0-.007-.002-.01l-.02-.128a20.02 20.02 0 0 1-.053-.376l-.023-.171-.021-.172-.019-.163-.002-.014a24.316 24.316 0 0 1-.065-.667l-.007-.085-.01-.146a5.139 5.139 0 0 1-.009-.12l-.002-.028a16.086 16.086 0 0 1-.02-.335l-.009-.175L8.376 29l-.002-.047-.004-.14-.004-.12c0-.049-.002-.096-.003-.144l-.002-.151c0-.05 0-.1-.002-.15v-.152C8.36 15.18 18.903 4.71 31.91 4.71s23.55 10.47 23.55 23.385v.302l-.003.15c0 .043-.002.084-.003.126 0 .037-.002.074-.003.11 0 .047-.003.094-.004.142v.003l-.007.164-.006.144-.002.034-.008.153c-.019.328-.044.655-.075.983v.003c-.005.054-.01.108-.017.162l-.014.126-.027.248-.016.126-.02.148-.022.161-.026.18-.022.142-.025.16a7.186 7.186 0 0 1-.028.16l-.028.159a18.15 18.15 0 0 1-.155.792l-.034.157-.035.157c-.663-.64-1.54-.988-2.509-.988-.878 0-1.781.288-2.685.857-.6.379-1.263 1.049-1.946 1.891-.632-.87-1.517-1.449-2.529-1.607a3.774 3.774 0 0 0-.583-.046c-2.312 0-3.702 1.991-4.228 3.783-.261.605-1.514 3.36-3.397 5.23-2.868 2.838-3.591 5.764-2.194 8.896Zm24.312-6.297-.009.027a1.673 1.673 0 0 1-.157.307c-.052.077-.11.15-.171.22-.014.016-.028.032-.044.047a2.258 2.258 0 0 1-.069.07c-.418.412-1.055.773-1.776 1.104-.082.037-.165.074-.249.11l-.083.037a7.275 7.275 0 0 1-.17.073 8.761 8.761 0 0 1-.17.071l-.174.071c-.406.166-.821.324-1.226.48l-.174.067-.17.066a35.19 35.19 0 0 0-.338.133l-.165.066-.162.066-.08.033-.157.066c-1.192.508-2.05 1.025-1.87 1.666a.656.656 0 0 0 .139.257c.212.219.597.184 1.083.01.069-.024.137-.05.204-.077l.043-.018c.11-.047.229-.099.349-.156l.09-.043c.596-.29 1.27-.678 1.938-1.032.268-.143.54-.28.814-.409.633-.296 1.228-.506 1.707-.506.225 0 .423.046.588.151l.028.018a.898.898 0 0 1 .293.34c.236.445.038.907-.425 1.36-.445.434-1.136.86-1.922 1.255l-.177.087c-2.34 1.141-5.404 2-5.446 2.011-.817.21-1.984.486-3.3.693l-.195.03-.032.005a21.82 21.82 0 0 1-.897.117l-.028.003a21.53 21.53 0 0 1-1.665.125h-.008c-.201.007-.402.011-.604.011h-.232a14.47 14.47 0 0 1-.92-.041c-.006 0-.014 0-.021-.002a12.36 12.36 0 0 1-1.115-.142l-.103-.019-.007-.002a8.21 8.21 0 0 1-.322-.067 6.257 6.257 0 0 1-.186-.044l-.037-.01-.09-.023-.016-.004-.096-.028-.104-.03-.012-.004-.09-.027a5.79 5.79 0 0 1-.103-.033l-.083-.027-.061-.022a6.805 6.805 0 0 1-.176-.064l-.056-.021-.045-.018a7.278 7.278 0 0 1-.263-.11l-.057-.029-.01-.004a5.501 5.501 0 0 1-.18-.086l-.013-.006-.057-.03a5.025 5.025 0 0 1-.298-.168l-.054-.033a2.97 2.97 0 0 1-.08-.05l-.069-.047-.075-.05-.045-.032a3.378 3.378 0 0 1-.139-.104l-.072-.055a4.863 4.863 0 0 1-.086-.07l-.07-.06-.002-.002a3.902 3.902 0 0 1-.147-.133l-.002-.003a2.597 2.597 0 0 1-.073-.072l-.072-.072-.07-.075-.066-.074-.007-.008a3.757 3.757 0 0 1-.315-.405l-.038-.057a6.98 6.98 0 0 1-.15-.225 5.706 5.706 0 0 1-.105-.165l-.064-.105-.008-.014-.06-.101a.918.918 0 0 1-.032-.055l-.032-.058-.018-.03-.011-.02a4.825 4.825 0 0 1-.061-.113l-.028-.05-.028-.052-.028-.053a8.44 8.44 0 0 1-.198-.422l-.022-.053c-.015-.034-.028-.069-.042-.103a5.216 5.216 0 0 1-.26-.864c-.004-.017-.008-.034-.01-.05a3.542 3.542 0 0 1-.046-.298l-.005-.05a3.51 3.51 0 0 1-.016-.197l-.002-.05a2.47 2.47 0 0 1-.002-.098c-.018-1.318.654-2.586 2.09-4.012 2.56-2.538 4.05-6.253 4.05-6.253s.04-.156.123-.38a4.134 4.134 0 0 1 .201-.466l.012-.024c.051-.102.108-.202.169-.3l.043-.067a2.243 2.243 0 0 1 .233-.297l.037-.038a1.33 1.33 0 0 1 .509-.342l.024-.008a1.14 1.14 0 0 1 .106-.028l.01-.002a.953.953 0 0 1 .122-.016h.004l.065-.002a.794.794 0 0 1 .164.012c.23.037.45.173.639.384a2.091 2.091 0 0 1 .298.446l.039.08a3.094 3.094 0 0 1 .224.735 3.527 3.527 0 0 1 .046.727c-.017.4-.1.795-.245 1.17l-.041.103a3.258 3.258 0 0 1-.174.358l-.058.102c-.05.085-.104.169-.162.252l-.035.05c-.138.19-.29.369-.458.533a4.782 4.782 0 0 1-.528.454c-.187.138-.362.29-.524.456-.467.486-.576.916-.471 1.242a.81.81 0 0 0 .176.295l.017.017.017.017a.884.884 0 0 0 .053.047l.019.015c.045.035.093.066.143.093l.044.023c.054.026.11.048.166.066l.048.015.02.005.029.008.023.006.026.005.026.006.025.004.055.008.018.003.032.003.02.002.033.002h.019l.034.002h.108l.03-.002.036-.002.043-.004.04-.005a1.573 1.573 0 0 0 .39-.102l.05-.02a1.488 1.488 0 0 0 .24-.13c.071-.046.139-.098.201-.155l.044-.041a.406.406 0 0 0 .021-.021l.041-.043c.1-.108.186-.228.257-.357a70.491 70.491 0 0 1 1.911-3.244l.091-.145.093-.146.139-.218.046-.072c.155-.241.312-.48.472-.718l.095-.14c.19-.28.38-.552.568-.81l.093-.129c.205-.28.417-.554.638-.821l.088-.104c.015-.018.028-.035.044-.052l.086-.099.043-.048.083-.093.042-.046a7.17 7.17 0 0 1 .123-.128l.08-.081c.158-.16.332-.304.52-.428l.043-.028c.041-.028.084-.054.129-.077.734-.414 1.342-.445 1.693-.097.212.21.329.56.322 1.045l-.001.065v.024a.796.796 0 0 1-.004.067c0 .028-.003.055-.006.083l-.007.073-.002.022a1.28 1.28 0 0 1-.008.065c0 .006 0 .013-.003.02l-.012.087a1.333 1.333 0 0 1-.014.08l-.008.047a1.247 1.247 0 0 1-.03.13c-.025.08-.054.157-.089.233a3.379 3.379 0 0 1-.26.467 7.03 7.03 0 0 1-.417.578l-.048.06a15.66 15.66 0 0 1-.535.628l-.058.065c-.079.087-.158.174-.24.262l-.06.066-.125.132c-.04.045-.083.09-.126.134l-.128.134-.13.134-.13.135-.264.27c-1.26 1.283-2.588 2.563-3.037 3.36a1.6 1.6 0 0 0-.081.16c-.064.145-.091.27-.073.37a.28.28 0 0 0 .035.093.58.58 0 0 0 .144.164.528.528 0 0 0 .318.096h.035l.036-.003.037-.004.03-.004.012-.003.028-.005.007-.002.03-.006.012-.003a.903.903 0 0 0 .032-.009l.039-.011a1.568 1.568 0 0 0 .283-.114l.041-.02c.1-.051.197-.107.291-.167l.042-.028a.643.643 0 0 0 .041-.027l.041-.028.022-.015.06-.041c.056-.038.108-.078.16-.117l.005-.004.083-.064c.114-.09.222-.18.32-.265l.066-.056.006-.006.034-.03.211-.193.025-.024.058-.055.035-.034.013-.012.003-.003.036-.037.023-.023.003-.002.011-.01.014-.013.004-.004.011-.01.064-.055.035-.032c.02-.016.038-.033.056-.05l.042-.037.023-.02.045-.038.065-.058.035-.03.488-.416.078-.065.127-.107.131-.108c.17-.141.355-.29.55-.446l.127-.102a59.587 59.587 0 0 1 .473-.368 31.177 31.177 0 0 1 1.169-.86l.119-.083.25-.17.076-.05c.148-.101.3-.199.452-.294l.075-.047.075-.047.224-.136.075-.044.148-.085.146-.084.03-.015.115-.063.143-.076.072-.036.069-.035.072-.035a6.678 6.678 0 0 1 .607-.26l.127-.045.111-.035.013-.004.057-.017.006-.001c.04-.012.08-.021.118-.03h.003a2.379 2.379 0 0 1 .491-.065h.026c.034 0 .068.002.101.006.015 0 .03.003.046.005h.006l.045.007c.014.003.03.005.043.009h.005a.814.814 0 0 1 .36.185l.01.008.015.016.015.016a1.7 1.7 0 0 1 .306.441l.012.028a1.015 1.015 0 0 1 .013.788 1.44 1.44 0 0 1-.105.22 2.517 2.517 0 0 1-.342.448l-.028.03a4.153 4.153 0 0 1-.129.13l-.061.057-.064.059-.033.029a6.263 6.263 0 0 1-.4.326 13.255 13.255 0 0 1-.901.63c-.286.186-.574.367-.866.544-.611.373-1.289.772-2.011 1.207l-.188.112c-.204.124-.398.243-.58.356l-.091.057-.174.11-.344.22-.092.061-.135.088-.044.028-.134.09-.071.049-.083.057-.078.053a17.3 17.3 0 0 0-.36.26l-.042.032a8.321 8.321 0 0 0-.456.37l-.039.036-.064.06-.043.04-.02.02a3.63 3.63 0 0 0-.13.137l-.02.023a1.94 1.94 0 0 0-.12.152l-.016.022a1.314 1.314 0 0 0-.092.154l-.015.031-.01.023-.007.015-.005.014-.007.019a.79.79 0 0 0-.04.161l-.003.02-.002.017v.098c0 .008 0 .016.002.024l.002.015.003.025.006.034v.001l.007.032.009.034a.822.822 0 0 0 .021.066l.015.038.003.007.011.025.016.035c.017.035.035.07.055.103l.02.036.021.035a.136.136 0 0 0 .013.016l.007.008.008.007.008.006a.153.153 0 0 0 .038.02l.022.005c.18.04.548-.107 1.037-.363.028-.015.059-.03.088-.047l.15-.08.072-.04c.052-.028.105-.06.159-.09l.098-.055c.648-.37 1.42-.845 2.22-1.31l.225-.13.151-.095a25.256 25.256 0 0 1 1.202-.65l.148-.075a12.716 12.716 0 0 1 .855-.39l.104-.042.013-.005c.551-.217 1.051-.35 1.456-.35.087-.002.175.006.261.02h.003c.027.005.053.01.078.017h.005a.815.815 0 0 1 .419.243.892.892 0 0 1 .182.32l.027.088c.066.234.06.482-.019.712Z"/>
  <path fill="#FFD21E" fill-rule="evenodd" d="M55.455 28.247v-.151c0-12.916-10.54-23.385-23.546-23.385S8.359 15.18 8.359 28.096v.151c.002.05.002.1.002.15l.001.112.001.04.001.055.002.088.003.12.005.141.002.047.006.146v.007l.008.17v.005l.01.174.01.161.002.01.009.138v.012l.011.134.001.008.006.077c.019.223.04.445.065.667l.002.014.019.163.02.172.016.116.007.054c.017.126.035.252.054.377l.002.008.018.119a22.5 22.5 0 0 0 .33 1.682v.007l.01.041.029.119.017-.02c.684-.812 1.665-1.26 2.762-1.26.88 0 1.781.29 2.686.858.6.379 1.262 1.049 1.945 1.892.631-.871 1.516-1.45 2.529-1.608a3.8 3.8 0 0 1 .583-.046c2.31 0 3.702 1.991 4.228 3.783.26.605 1.512 3.36 3.4 5.225 2.87 2.848 3.588 5.785 2.168 8.931h.005c.096.011.194.021.291.03l.175.016.02.002.128.01.119.01c.112.009.225.017.338.024l.09.005.07.004.045.003.139.007.038.002.146.006.162.006.13.004h.022c.027.002.055.003.083.003h.03c.183.005.366.007.55.007h.194l.139-.002.102-.001h.054l.047-.002h.111l.11-.004.163-.005.18-.008.156-.007.056-.004.082-.004.049-.003.037-.002.166-.011.167-.012.151-.012.107-.01.116-.01c.196-.017.39-.037.585-.06l.132-.016c-1.398-3.133-.674-6.058 2.184-8.894 1.884-1.87 3.136-4.625 3.397-5.23.526-1.792 1.917-3.783 4.228-3.783.195 0 .39.015.584.046 1.011.158 1.896.736 2.529 1.607.682-.842 1.345-1.513 1.945-1.891.904-.569 1.807-.858 2.685-.858.969 0 1.846.349 2.509.989l.035-.157.034-.156.036-.172a30.175 30.175 0 0 0 .12-.621l.009-.058.018-.102c.01-.053.02-.106.028-.16l.003-.02.022-.14.022-.141v-.002c.016-.104.03-.209.045-.313l.003-.026.02-.148.016-.126.028-.248.01-.1.003-.026.017-.162v-.004l.012-.128c.022-.243.04-.488.056-.733l.007-.121v-.002l.008-.152.002-.033c.005-.103.01-.205.013-.308v-.003l.001-.04a2.28 2.28 0 0 0 .003-.102v-.014c.002-.032.003-.064.003-.097l.001-.027.002-.097v-.028c.002-.04.003-.082.003-.123v-.151ZM26.068 51.608c1.865-2.716 1.732-4.754-.826-7.294-2.56-2.54-4.049-6.254-4.049-6.254s-.556-2.157-1.823-1.959c-1.268.198-2.198 3.422.456 5.395 2.655 1.974-.528 3.312-1.55 1.46-1.021-1.852-3.81-6.613-5.257-7.523-1.446-.91-2.463-.4-2.122 1.476.17.932 1.744 2.522 3.215 4.008 1.493 1.507 2.88 2.906 2.583 3.401-.588.984-2.66-1.155-2.66-1.155S7.548 37.3 6.136 38.828c-1.302 1.408.706 2.605 3.8 4.45l.81.485c3.54 2.128 3.816 2.69 3.313 3.495-.185.297-1.37-.41-2.827-1.278-2.485-1.481-5.76-3.434-6.223-1.686-.4 1.513 2.01 2.44 4.195 3.28 1.821.701 3.487 1.342 3.241 2.211-.253.902-1.63.15-3.134-.672-1.689-.923-3.54-1.934-4.145-.793-1.144 2.157 7.896 4.696 7.97 4.715 2.922.752 10.34 2.346 12.932-1.427Zm12.014 0c-1.865-2.716-1.732-4.754.826-7.294 2.56-2.54 4.049-6.254 4.049-6.254s.556-2.157 1.823-1.959c1.268.198 2.198 3.422-.456 5.395-2.655 1.974.528 3.312 1.55 1.46 1.022-1.852 3.81-6.613 5.255-7.523 1.447-.91 2.464-.4 2.123 1.476-.17.932-1.744 2.522-3.216 4.008-1.492 1.507-2.878 2.906-2.582 3.401.588.984 2.661-1.156 2.661-1.156s6.487-5.862 7.9-4.335c1.3 1.408-.707 2.605-3.8 4.45-.271.162-.542.323-.812.486-3.54 2.127-3.815 2.689-3.312 3.494.185.297 1.37-.41 2.827-1.278 2.485-1.481 5.76-3.434 6.223-1.686.4 1.513-2.01 2.44-4.195 3.28-1.821.701-3.487 1.342-3.242 2.211.254.902 1.63.15 3.134-.672 1.688-.923 3.54-1.935 4.145-.793 1.144 2.158-7.897 4.695-7.97 4.713-2.921.755-10.34 2.35-12.93-1.424Z" clip-rule="evenodd"/>
  <path fill="#32343D" fill-rule="evenodd" d="M39.556 21.73c.368.13.641.522.9.896.352.505.679.974 1.18.71a3.376 3.376 0 0 0 1.394-1.379 3.346 3.346 0 0 0-1.095-4.386 3.403 3.403 0 0 0-5.017 1.5 3.347 3.347 0 0 0 .136 2.873c.232.434.748.23 1.292.013.427-.17.872-.346 1.21-.227Zm-15.964 0c-.367.13-.64.522-.9.896-.351.505-.678.974-1.18.71a3.372 3.372 0 0 1-1.6-1.83 3.343 3.343 0 0 1 .054-2.424c.32-.773.92-1.4 1.68-1.759a3.41 3.41 0 0 1 4.072.902 3.345 3.345 0 0 1 .378 3.72c-.233.433-.749.229-1.293.013-.427-.17-.871-.347-1.21-.227Zm13.495 14.427c2.53-1.98 3.46-5.212 3.46-7.203 0-1.573-1.067-1.078-2.773-.239l-.097.047c-1.567.771-3.652 1.797-5.942 1.797s-4.375-1.026-5.942-1.797c-1.762-.867-2.867-1.41-2.867.193 0 2.054.989 5.426 3.703 7.385a5.861 5.861 0 0 1 1.481-1.882 5.907 5.907 0 0 1 2.115-1.137c.271-.08.55.382.836.857.276.457.557.925.844.925.305 0 .605-.461.898-.911.306-.47.605-.929.894-.837a5.885 5.885 0 0 1 3.39 2.802Z" clip-rule="evenodd"/>
  <path fill="#FF323D" d="M37.087 36.156c-1.318 1.032-3.07 1.723-5.351 1.723-2.144 0-3.82-.61-5.108-1.54a5.856 5.856 0 0 1 1.482-1.881 5.906 5.906 0 0 1 2.116-1.138c.532-.158 1.096 1.782 1.68 1.782.624 0 1.226-1.927 1.79-1.748a5.887 5.887 0 0 1 3.39 2.802Z"/>
  <path fill="#FFAD03" fill-rule="evenodd" d="M17.542 24.53a2.209 2.209 0 0 1-2.067.202 2.194 2.194 0 0 1-1.192-1.184 2.172 2.172 0 0 1 .204-2.052 2.2 2.2 0 0 1 .989-.806 2.217 2.217 0 0 1 2.4.475 2.183 2.183 0 0 1 .477 2.384c-.166.4-.449.74-.811.981Zm31.512 0a2.21 2.21 0 0 1-2.066.202 2.197 2.197 0 0 1-1.193-1.184 2.178 2.178 0 0 1 .904-2.713 2.21 2.21 0 0 1 3.292 1.45 2.18 2.18 0 0 1-.937 2.245Z" clip-rule="evenodd"/>
  <path fill="#121212" d="M88.384 45V20.712H80.15v-5.704h23.276v5.704h-8.234V45h-6.808Zm17.235 0V22.184h5.52l.46 4.002h.184c.828-1.533 1.825-2.668 2.99-3.404 1.165-.767 2.331-1.15 3.496-1.15.644 0 1.181.046 1.61.138a3.61 3.61 0 0 1 1.104.322l-1.104 5.842a8.405 8.405 0 0 0-1.196-.276 7.926 7.926 0 0 0-1.288-.092c-.859 0-1.763.322-2.714.966-.92.613-1.687 1.687-2.3 3.22V45h-6.762Zm22.775.552c-2.085 0-3.741-.66-4.968-1.978-1.226-1.35-1.84-2.99-1.84-4.922 0-2.392 1.012-4.263 3.036-5.612 2.024-1.35 5.29-2.254 9.798-2.714-.061-1.012-.368-1.81-.92-2.392-.521-.613-1.41-.92-2.668-.92-.95 0-1.916.184-2.898.552-.981.368-2.024.874-3.128 1.518l-2.438-4.462a22.55 22.55 0 0 1 4.6-2.162 16.188 16.188 0 0 1 5.152-.828c2.914 0 5.152.843 6.716 2.53 1.564 1.687 2.346 4.278 2.346 7.774V45h-5.52l-.46-2.346h-.184a13.764 13.764 0 0 1-3.082 2.116c-1.073.521-2.254.782-3.542.782Zm2.3-5.244c.767 0 1.426-.169 1.978-.506a10.169 10.169 0 0 0 1.748-1.426v-4.002c-2.392.307-4.048.797-4.968 1.472-.92.644-1.38 1.41-1.38 2.3 0 .736.23 1.288.69 1.656.491.337 1.135.506 1.932.506ZM146.902 45V22.184h5.52l.46 2.898h.184a17.548 17.548 0 0 1 3.22-2.392c1.196-.705 2.561-1.058 4.094-1.058 2.484 0 4.278.828 5.382 2.484 1.135 1.625 1.702 3.864 1.702 6.716V45h-6.762V31.706c0-1.656-.23-2.79-.69-3.404-.429-.613-1.135-.92-2.116-.92-.859 0-1.595.2-2.208.598-.613.368-1.288.905-2.024 1.61V45h-6.762Zm33.04.552c-1.502 0-3.051-.291-4.646-.874-1.564-.583-2.928-1.35-4.094-2.3l3.036-4.232c1.043.767 2.04 1.365 2.99 1.794.982.399 1.948.598 2.898.598 1.012 0 1.748-.169 2.208-.506.46-.368.69-.843.69-1.426 0-.521-.23-.95-.69-1.288-.429-.337-.996-.644-1.702-.92a56.182 56.182 0 0 0-2.254-.92 19.31 19.31 0 0 1-2.76-1.38 7.813 7.813 0 0 1-2.254-2.116c-.613-.89-.92-1.963-.92-3.22 0-2.116.798-3.833 2.392-5.152 1.626-1.319 3.742-1.978 6.348-1.978 1.748 0 3.282.307 4.6.92 1.35.583 2.5 1.242 3.45 1.978l-3.036 4.048c-.797-.613-1.594-1.089-2.392-1.426a6.094 6.094 0 0 0-2.392-.506c-1.748 0-2.622.598-2.622 1.794 0 .736.43 1.303 1.288 1.702.89.368 1.917.767 3.082 1.196a15.01 15.01 0 0 1 2.852 1.334 6.752 6.752 0 0 1 2.346 2.116c.644.859.966 1.993.966 3.404 0 2.055-.797 3.803-2.392 5.244-1.594 1.41-3.925 2.116-6.992 2.116ZM194.771 45V27.474h-3.036V22.46l3.036-.23v-1.242c0-1.625.276-3.097.828-4.416.552-1.319 1.441-2.377 2.668-3.174 1.227-.797 2.867-1.196 4.922-1.196.951 0 1.825.092 2.622.276.797.184 1.441.368 1.932.552l-1.242 4.968a5.772 5.772 0 0 0-1.196-.322 5.115 5.115 0 0 0-1.15-.138c-.828 0-1.472.26-1.932.782-.46.49-.69 1.319-.69 2.484v1.38h4.094v5.29h-4.094V45h-6.762Zm23.876.552c-1.932 0-3.756-.46-5.474-1.38-1.686-.95-3.051-2.315-4.094-4.094-1.042-1.81-1.564-3.971-1.564-6.486 0-2.545.522-4.707 1.564-6.486 1.043-1.779 2.408-3.128 4.094-4.048a11.134 11.134 0 0 1 5.474-1.426c1.932 0 3.742.475 5.428 1.426 1.687.92 3.052 2.27 4.094 4.048 1.043 1.779 1.564 3.94 1.564 6.486 0 2.515-.521 4.677-1.564 6.486-1.042 1.779-2.407 3.143-4.094 4.094a11.159 11.159 0 0 1-5.428 1.38Zm0-5.474c1.38 0 2.423-.583 3.128-1.748.706-1.196 1.058-2.775 1.058-4.738 0-1.993-.352-3.573-1.058-4.738-.705-1.165-1.748-1.748-3.128-1.748-1.41 0-2.468.583-3.174 1.748-.674 1.165-1.012 2.745-1.012 4.738 0 1.963.338 3.542 1.012 4.738.706 1.165 1.764 1.748 3.174 1.748ZM234.365 45V22.184h5.52l.46 4.002h.184c.828-1.533 1.825-2.668 2.99-3.404 1.165-.767 2.331-1.15 3.496-1.15.644 0 1.181.046 1.61.138a3.61 3.61 0 0 1 1.104.322l-1.104 5.842a8.405 8.405 0 0 0-1.196-.276 7.926 7.926 0 0 0-1.288-.092c-.859 0-1.763.322-2.714.966-.92.613-1.687 1.687-2.3 3.22V45h-6.762Zm18.328 0V22.184h5.52l.46 2.944h.184a17.382 17.382 0 0 1 3.036-2.438c1.073-.705 2.361-1.058 3.864-1.058 1.625 0 2.929.337 3.91 1.012 1.012.644 1.809 1.58 2.392 2.806a18.578 18.578 0 0 1 3.22-2.668c1.135-.767 2.453-1.15 3.956-1.15 2.453 0 4.247.828 5.382 2.484 1.165 1.625 1.748 3.864 1.748 6.716V45h-6.762V31.706c0-1.656-.23-2.79-.69-3.404-.429-.613-1.135-.92-2.116-.92-1.135 0-2.438.736-3.91 2.208V45h-6.762V31.706c0-1.656-.23-2.79-.69-3.404-.429-.613-1.135-.92-2.116-.92-1.135 0-2.423.736-3.864 2.208V45h-6.762Zm49.654.552c-2.178 0-4.14-.475-5.888-1.426-1.748-.95-3.128-2.315-4.14-4.094-1.012-1.779-1.518-3.925-1.518-6.44 0-2.484.506-4.615 1.518-6.394 1.042-1.779 2.392-3.143 4.048-4.094 1.656-.981 3.388-1.472 5.198-1.472 2.177 0 3.971.49 5.382 1.472 1.441.95 2.514 2.254 3.22 3.91.736 1.625 1.104 3.48 1.104 5.566 0 .583-.031 1.165-.092 1.748a12.97 12.97 0 0 1-.184 1.242h-13.662c.306 1.656.996 2.883 2.07 3.68 1.073.767 2.361 1.15 3.864 1.15 1.625 0 3.266-.506 4.922-1.518l2.254 4.094a14.915 14.915 0 0 1-3.91 1.886c-1.442.46-2.837.69-4.186.69Zm-5.06-14.444h8.234c0-1.257-.307-2.285-.92-3.082-.583-.828-1.549-1.242-2.898-1.242-1.043 0-1.978.368-2.806 1.104-.828.705-1.365 1.779-1.61 3.22ZM315.943 45V22.184h5.52l.46 4.002h.184c.828-1.533 1.825-2.668 2.99-3.404 1.165-.767 2.331-1.15 3.496-1.15.644 0 1.181.046 1.61.138a3.61 3.61 0 0 1 1.104.322l-1.104 5.842a8.405 8.405 0 0 0-1.196-.276 7.926 7.926 0 0 0-1.288-.092c-.859 0-1.763.322-2.714.966-.92.613-1.687 1.687-2.3 3.22V45h-6.762Zm24.685.552c-1.503 0-3.051-.291-4.646-.874-1.564-.583-2.929-1.35-4.094-2.3l3.036-4.232c1.043.767 2.039 1.365 2.99 1.794.981.399 1.947.598 2.898.598 1.012 0 1.748-.169 2.208-.506.46-.368.69-.843.69-1.426 0-.521-.23-.95-.69-1.288-.429-.337-.997-.644-1.702-.92a56.793 56.793 0 0 0-2.254-.92 19.31 19.31 0 0 1-2.76-1.38 7.8 7.8 0 0 1-2.254-2.116c-.613-.89-.92-1.963-.92-3.22 0-2.116.797-3.833 2.392-5.152 1.625-1.319 3.741-1.978 6.348-1.978 1.748 0 3.281.307 4.6.92 1.349.583 2.499 1.242 3.45 1.978l-3.036 4.048c-.797-.613-1.595-1.089-2.392-1.426a6.097 6.097 0 0 0-2.392-.506c-1.748 0-2.622.598-2.622 1.794 0 .736.429 1.303 1.288 1.702.889.368 1.917.767 3.082 1.196a15.02 15.02 0 0 1 2.852 1.334 6.752 6.752 0 0 1 2.346 2.116c.644.859.966 1.993.966 3.404 0 2.055-.797 3.803-2.392 5.244-1.595 1.41-3.925 2.116-6.992 2.116Z"/>
</svg>
